<svg width="1283" height="733" xmlns="http://www.w3.org/2000/svg" xmlns:xlink="http://www.w3.org/1999/xlink" overflow="hidden"><defs><clipPath id="clip0"><path d="M-12-7 1271-7 1271 726-12 726Z" fill-rule="evenodd" clip-rule="evenodd"/></clipPath></defs><g clip-path="url(#clip0)" transform="translate(12 7)"><rect x="626.5" y="302" width="70.5001" height="71.5" fill="#7030A0"/><path d="M697 302 720.5 278.5 720.5 350 697 373.5Z" fill="#5A2781" fill-rule="evenodd"/><path d="M626.5 302 650 278.5 720.5 278.5 697 302Z" fill="#8C59B3" fill-rule="evenodd"/><path d="M626.5 302 650 278.5 720.5 278.5 720.5 350 697 373.5 626.5 373.5ZM626.5 302 697 302 720.5 278.5M697 302 697 373.5" stroke="#7030A0" stroke-width="1.33333" stroke-miterlimit="8" fill="none" fill-rule="evenodd"/><rect x="603.5" y="324.25" width="71.25" height="71.25" fill="#7030A0"/><path d="M674.75 324.25 698.5 300.5 698.5 371.75 674.75 395.5Z" fill="#5A2781" fill-rule="evenodd"/><path d="M603.5 324.25 627.25 300.5 698.5 300.5 674.75 324.25Z" fill="#8C59B3" fill-rule="evenodd"/><path d="M603.5 324.25 627.25 300.5 698.5 300.5 698.5 371.75 674.75 395.5 603.5 395.5ZM603.5 324.25 674.75 324.25 698.5 300.5M674.75 324.25 674.75 395.5" stroke="#7030A0" stroke-width="1.33333" stroke-miterlimit="8" fill="none" fill-rule="evenodd"/><rect x="579.5" y="347" width="70.5001" height="71.5" fill="#C55A11"/><path d="M650 347 673.5 323.5 673.5 395 650 418.5Z" fill="#9E480E" fill-rule="evenodd"/><path d="M579.5 347 603 323.5 673.5 323.5 650 347Z" fill="#D07A40" fill-rule="evenodd"/><path d="M579.5 347 603 323.5 673.5 323.5 673.5 395 650 418.5 579.5 418.5ZM579.5 347 650 347 673.5 323.5M650 347 650 418.5" stroke="#C55A11" stroke-width="1.33333" stroke-miterlimit="8" fill="none" fill-rule="evenodd"/><rect x="557.5" y="369" width="70.5001" height="71.5" fill="#C55A11"/><path d="M628 369 651.5 345.5 651.5 417 628 440.5Z" fill="#9E480E" fill-rule="evenodd"/><path d="M557.5 369 581 345.5 651.5 345.5 628 369Z" fill="#D07A40" fill-rule="evenodd"/><path d="M557.5 369 581 345.5 651.5 345.5 651.5 417 628 440.5 557.5 440.5ZM557.5 369 628 369 651.5 345.5M628 369 628 440.5" stroke="#C55A11" stroke-width="1.33333" stroke-miterlimit="8" fill="none" fill-rule="evenodd"/><rect x="138.5" y="143.5" width="207" height="207" fill="#7030A0"/><path d="M345.5 143.5 414.5 74.5001 414.5 281.5 345.5 350.5Z" fill="#5A2781" fill-rule="evenodd"/><path d="M138.5 143.5 207.5 74.5001 414.5 74.5001 345.5 143.5Z" fill="#8C59B3" fill-rule="evenodd"/><path d="M138.5 143.5 207.5 74.5001 414.5 74.5001 414.5 281.5 345.5 350.5 138.5 350.5ZM138.5 143.5 345.5 143.5 414.5 74.5001M345.5 143.5 345.5 350.5" stroke="#7030A0" stroke-width="1.33333" stroke-miterlimit="8" fill="none" fill-rule="evenodd"/><rect x="70.5001" y="212.25" width="207.25" height="206.25" fill="#C55A11"/><path d="M277.75 212.25 346.5 143.5 346.5 349.75 277.75 418.5Z" fill="#9E480E" fill-rule="evenodd"/><path d="M70.5001 212.25 139.25 143.5 346.5 143.5 277.75 212.25Z" fill="#D07A40" fill-rule="evenodd"/><path d="M70.5001 212.25 139.25 143.5 346.5 143.5 346.5 349.75 277.75 418.5 70.5001 418.5ZM70.5001 212.25 277.75 212.25 346.5 143.5M277.75 212.25 277.75 418.5" stroke="#C55A11" stroke-width="1.33333" stroke-miterlimit="8" fill="none" fill-rule="evenodd"/><rect x="0.500053" y="281.5" width="207" height="207" fill="#4472C4"/><path d="M207.5 281.5 276.5 212.5 276.5 419.5 207.5 488.5Z" fill="#375C9E" fill-rule="evenodd"/><path d="M0.500053 281.5 69.5 212.5 276.5 212.5 207.5 281.5Z" fill="#698ED0" fill-rule="evenodd"/><path d="M0.500053 281.5 69.5 212.5 276.5 212.5 276.5 419.5 207.5 488.5 0.500053 488.5ZM0.500053 281.5 207.5 281.5 276.5 212.5M207.5 281.5 207.5 488.5" stroke="#2F528F" stroke-width="1.33333" stroke-miterlimit="8" fill="none" fill-rule="evenodd"/><path d="M4.9329 4.49703 63.961 63.9717 63.4879 64.4413 4.45973 4.96665ZM2.79643 8.49588 0 0 8.47456 2.86038ZM65.6243 60.4424 68.4207 68.9383 59.9461 66.0779Z" fill="#C55A11" transform="matrix(1 0 0 -1 286.5 425.438)"/><path d="M4.94974 4.47833 64.498 64.0266 64.0266 64.498 4.47833 4.94974ZM2.82843 8.48528 0 0 8.48528 2.82843ZM66.1479 60.4911 68.9764 68.9764 60.4911 66.1479Z" fill="#4472C4" transform="matrix(1 0 0 -1 217.5 495.476)"/><path d="M4.9329 4.49703 63.961 63.9717 63.4879 64.4413 4.45973 4.96665ZM2.79643 8.49588 0 0 8.47456 2.86038ZM65.6243 60.4424 68.4207 68.9383 59.9461 66.0779Z" fill="#7030A0" transform="matrix(1 0 0 -1 356.5 353.438)"/><text fill="#4472C4" font-family="Calibri,Calibri_MSFontService,sans-serif" font-weight="400" font-size="24" transform="translate(262.35 479)">Npar<tspan fill="#C45911" x="71.8981" y="-79">Npar</tspan></text><path d="M5.07357e-07 325 200.262 325 200.262 327-5.07357e-07 327ZM198.929 322 206.929 326 198.929 330Z" fill="#FFC000"/><path d="M0.48181-0.876275 201.84 109.838 200.877 111.591-0.48181 0.876275ZM202.117 106.567 207.2 113.927 198.263 113.577Z" fill="#FFC000" transform="matrix(-1 -8.74228e-08 -8.74228e-08 1 204.2 326)"/><path d="M5.07357e-07 441 200.262 441 200.262 443-5.07357e-07 443ZM198.929 438 206.929 442 198.929 446Z" fill="#FFC000"/><rect x="956.5" y="281.25" width="207.25" height="206.25" fill="#FF0000"/><path d="M1163.75 281.25 1232.5 212.5 1232.5 418.75 1163.75 487.5Z" fill="#CD0000" fill-rule="evenodd"/><path d="M956.5 281.25 1025.25 212.5 1232.5 212.5 1163.75 281.25Z" fill="#FF3232" fill-rule="evenodd"/><path d="M956.5 281.25 1025.25 212.5 1232.5 212.5 1232.5 418.75 1163.75 487.5 956.5 487.5ZM956.5 281.25 1163.75 281.25 1232.5 212.5M1163.75 281.25 1163.75 487.5" stroke="#FF0000" stroke-width="1.33333" stroke-miterlimit="8" fill="none" fill-rule="evenodd"/><path d="M4.94974 4.47833 64.498 64.0266 64.0266 64.498 4.47833 4.94974ZM2.82843 8.48528 0 0 8.48528 2.82843ZM66.1479 60.4911 68.9764 68.9764 60.4911 66.1479Z" fill="#FF0000" transform="matrix(-1 -8.74228e-08 -8.74228e-08 1 1239.48 423.5)"/><text fill="#FF0000" font-family="Calibri,Calibri_MSFontService,sans-serif" font-weight="400" font-size="24" transform="translate(1208.11 471)">Npar</text><rect x="533.5" y="393" width="71.5001" height="70.4999" fill="#4472C4"/><path d="M605 393 628.5 369.5 628.5 440 605 463.5Z" fill="#375C9E" fill-rule="evenodd"/><path d="M533.5 393 557 369.5 628.5 369.5 605 393Z" fill="#698ED0" fill-rule="evenodd"/><path d="M533.5 393 557 369.5 628.5 369.5 628.5 440 605 463.5 533.5 463.5ZM533.5 393 605 393 628.5 369.5M605 393 605 463.5" stroke="#2F528F" stroke-width="1.33333" stroke-miterlimit="8" fill="none" fill-rule="evenodd"/><rect x="510.5" y="415" width="70.5" height="70.5" fill="#4472C4"/><path d="M581 415 604.5 391.5 604.5 462 581 485.5Z" fill="#375C9E" fill-rule="evenodd"/><path d="M510.5 415 534 391.5 604.5 391.5 581 415Z" fill="#698ED0" fill-rule="evenodd"/><path d="M510.5 415 534 391.5 604.5 391.5 604.5 462 581 485.5 510.5 485.5ZM510.5 415 581 415 604.5 391.5M581 415 581 485.5" stroke="#2F528F" stroke-width="1.33333" stroke-miterlimit="8" fill="none" fill-rule="evenodd"/><path d="M1.49712e-06 664 63.4592 664 63.4592 666-1.49712e-06 666ZM62.1259 661 70.1259 665 62.1259 669Z" fill="#FFC000"/><text font-family="Calibri,Calibri_MSFontService,sans-serif" font-weight="400" font-size="24" transform="translate(83.3139 639)">: Loop 3<tspan x="890.869" y="-616">Intermediate</tspan><tspan x="1023.24" y="-616">FM</tspan></text><path d="M630.402 440.217C635.952 445.622 639.722 450.753 638.821 451.678L618.168 472.886C617.267 473.811 621.036 478.943 626.587 484.348 621.036 478.943 615.807 475.311 614.906 476.236L594.253 497.444C593.352 498.369 588.123 494.738 582.572 489.333" stroke="#4472C4" stroke-width="0.666667" stroke-miterlimit="8" fill="none" fill-rule="evenodd"/><text font-family="Cambria Math,Cambria Math_MSFontService,sans-serif" font-weight="400" font-size="24" transform="translate(631.788 495)">ğ‘”ğ‘Ÿğ‘œğ‘¢<tspan x="53.2733" y="0">ğ‘</tspan><tspan font-size="18" x="65.2933" y="5">1</tspan></text><path d="M678.295 392.226C683.845 397.631 687.615 402.762 686.714 403.688L666.061 424.896C665.16 425.821 668.93 430.952 674.48 436.357 668.93 430.952 663.7 427.32 662.799 428.245L642.146 449.453C641.245 450.379 636.016 446.747 630.465 441.342" stroke="#ED7D31" stroke-width="0.666667" stroke-miterlimit="8" fill="none" fill-rule="evenodd"/><path d="M719.683 350.724C725.234 356.129 729.003 361.26 728.102 362.185L710.647 380.11C709.746 381.035 713.515 386.167 719.066 391.572 713.515 386.167 708.286 382.535 707.385 383.46L689.929 401.384C689.029 402.309 683.799 398.678 678.249 393.273" stroke="#7030A0" stroke-width="0.666667" stroke-miterlimit="8" fill="none" fill-rule="evenodd"/><text font-family="Cambria Math,Cambria Math_MSFontService,sans-serif" font-weight="400" font-size="24" transform="translate(684.402 446)">ğ‘”ğ‘Ÿğ‘œğ‘¢<tspan x="53.2733" y="0">ğ‘</tspan><tspan font-size="18" x="65.8467" y="5">ğ‘–</tspan><tspan x="38.1031" y="-43">ğ‘”ğ‘Ÿğ‘œğ‘¢</tspan><tspan x="91.3764" y="-43">ğ‘</tspan><tspan font-size="18" x="103.95" y="-38">ğ‘</tspan><tspan font-size="14" x="116.176" y="-35">ğ‘”ğ‘Ÿ</tspan><tspan x="-149.159" y="-418">1</tspan><tspan x="-130.492" y="-418">Ã—</tspan><tspan x="-107.992" y="-418">1</tspan><tspan font-family="Calibri,Calibri_MSFontService,sans-serif" x="-89.159" y="-418">kernel</tspan></text><path d="M507.5 244C507.5 237.649 512.649 232.5 519 232.5 525.351 232.5 530.5 237.649 530.5 244 530.5 250.351 525.351 255.5 519 255.5 512.649 255.5 507.5 250.351 507.5 244Z" stroke="#000000" stroke-linejoin="round" stroke-miterlimit="10" fill="none" fill-rule="evenodd"/><text font-family="Cambria Math,Cambria Math_MSFontService,sans-serif" font-weight="400" font-size="24" transform="translate(512.858 252)">âˆ—</text><path d="M0.700757-0.7134 86.6617 83.7241 85.2602 85.1509-0.700757 0.7134ZM87.8128 80.6495 90.7169 89.1092 82.2067 86.3567Z" fill="#70AD47" transform="matrix(1 0 0 -1 737 501.109)"/><path d="M1.43076e-06-1 66.7117-0.999905 66.7117 1.0001-1.43076e-06 1ZM65.3784-3.99991 73.3784 0.000104987 65.3784 4.00009Z" fill="#70AD47" transform="matrix(1 0 0 -1 -4 696)"/><text font-family="Calibri,Calibri_MSFontService,sans-serif" font-weight="400" font-size="24" transform="translate(79.2665 704)">: Loop <tspan x="65.6667" y="0">1</tspan></text><path d="M0.74495-0.667121 124.522 137.55 123.032 138.885-0.74495 0.667121ZM125.868 134.556 128.225 143.184 119.908 139.893Z" fill="#70AD47" transform="matrix(1 0 0 -1 341 471.184)"/><text fill="#7030A0" font-family="Calibri,Calibri_MSFontService,sans-serif" font-weight="400" font-size="24" transform="translate(403.224 336)">Npar</text><path d="M1.41421-1.41421 63.3195 60.4911 60.4911 63.3195-1.41421 1.41421ZM64.7337 56.2485 68.9764 68.9764 56.2485 64.7337Z" fill="#A5A5A5" transform="matrix(1 0 0 -1 1163 383.976)"/><path d="M1.49712e-06 631 63.4592 631 63.4592 633-1.49712e-06 633ZM62.1259 628 70.1259 632 62.1259 636Z" fill="#A5A5A5"/><text font-family="Calibri,Calibri_MSFontService,sans-serif" font-weight="400" font-size="24" transform="translate(83.3139 673)">: Loop 2<tspan x="79.8053" y="-647">Input FM</tspan></text><path d="M818.5 248.5 919.5 248.5 919.5 241.5 933.5 255.5 919.5 269.5 919.5 262.5 818.5 262.5Z" stroke="#C00000" stroke-width="1.33333" stroke-miterlimit="8" fill="#FF0000" fill-rule="evenodd"/></g></svg>