<svg width="1240" height="434" xmlns="http://www.w3.org/2000/svg" xmlns:xlink="http://www.w3.org/1999/xlink" overflow="hidden"><defs><clipPath id="clip0"><path d="M30 172 1270 172 1270 606 30 606Z" fill-rule="evenodd" clip-rule="evenodd"/></clipPath></defs><g clip-path="url(#clip0)" transform="translate(-30 -172)"><path d="M0.00997802-0.333184 230.341 6.56466 230.321 7.23103-0.00997802 0.333184ZM229.119 2.85975 236.996 7.09743 228.88 10.8562Z" fill="#4472C4" transform="matrix(1 0 0 -1 294.5 506.597)"/><path d="M294.578 442.176 525.091 497.605 524.936 498.254 294.422 442.824ZM524.653 493.729 531.496 499.488 522.782 501.507Z" fill="#ED7D31"/><path d="M294.653 376.204 525.724 495.476 525.419 496.069 294.347 376.796ZM526.222 491.607 531.496 498.83 522.552 498.715Z" fill="#A5A5A5"/><path d="M0.333344 6.66666 0.333427 58.076-0.333239 58.076-0.333322 6.66666ZM-3.99999 8.00001 0 0 4.00001 7.99999ZM4.00009 56.7427 0.000104987 64.7427-3.99991 56.7427Z" fill="#4472C4" transform="matrix(1 0 0 -1 207.5 544.243)"/><path d="M0.333344 6.66666 0.333427 58.076-0.333239 58.076-0.333322 6.66666ZM-3.99999 8.00001 0 0 4.00001 7.99999ZM4.00009 56.7427 0.000104987 64.7427-3.99991 56.7427Z" fill="#ED7D31" transform="matrix(1 0 0 -1 207.5 479.243)"/><path d="M0.333344 6.66666 0.333427 58.076-0.333239 58.076-0.333322 6.66666ZM-3.99999 8.00001 0 0 4.00001 7.99999ZM4.00009 56.7427 0.000104987 64.7427-3.99991 56.7427Z" fill="#A5A5A5" transform="matrix(1 0 0 -1 207.5 416.243)"/><path d="M0.333344 6.66666 0.333427 58.076-0.333239 58.076-0.333322 6.66666ZM-3.99999 8.00001 0 0 4.00001 7.99999ZM4.00009 56.7427 0.000104987 64.7427-3.99991 56.7427Z" fill="#70AD47" transform="matrix(1 0 0 -1 207.5 350.243)"/><path d="M0.333344 6.66666 0.333427 58.076-0.333239 58.076-0.333322 6.66666ZM-3.99999 8.00001 0 0 4.00001 7.99999ZM4.00009 56.7427 0.000104987 64.7427-3.99991 56.7427Z" fill="#C00000" transform="matrix(1 0 0 -1 613.5 536.243)"/><path d="M294.706 312.238 526.462 494.532 526.05 495.056 294.294 312.762ZM527.681 490.826 531.496 498.916 522.735 497.114Z" fill="#70AD47"/><text font-family="Calibri,Calibri_MSFontService,sans-serif" font-weight="400" font-size="13" transform="translate(168.277 319)">Npar<tspan x="0" y="64">Npar</tspan><tspan x="-0.798111" y="127">Npar</tspan><tspan x="-2.43086" y="196">Npar</tspan></text><rect x="1097.5" y="208.5" width="69" height="327" stroke="#BC8C00" stroke-width="1.33333" stroke-miterlimit="8" fill="#FFC000"/><path d="M687 499 757.094 499 757.094 507 687 507ZM753.094 491 777.094 503 753.094 515Z" fill="#C00000"/><path d="M0.333336 6.66669 0.333436 252.304-0.333231 252.304-0.333331 6.66669ZM-4 8 0 0 4 8ZM4.0001 250.971 0.000104987 258.971-3.9999 250.971Z" transform="matrix(1 0 0 -1 156.5 543.471)"/><path d="M1 6.6664 1.0001 320.275-0.999897 320.275-0.999998 6.6664ZM-4 8 0 0 4 8ZM4.0001 318.941 0.000104987 326.941-3.9999 318.941Z" fill="#FFC000" transform="matrix(1 0 0 -1 1187 539.941)"/><text font-family="Cambria Math,Cambria Math_MSFontService,sans-serif" font-weight="400" font-size="19" transform="translate(342.397 195)">1<tspan x="14.48" y="0">Ã—</tspan><tspan x="31.96" y="0">1</tspan><tspan x="42.2933" y="0"> </tspan><tspan x="46.46" y="0">ğ‘ğ‘œğ‘›ğ‘£ğ‘œğ‘™ğ‘¢ğ‘¡ğ‘–ğ‘œğ‘›</tspan><tspan font-family="Calibri,Calibri_MSFontService,sans-serif" font-size="24" x="282.103" y="315">Npar</tspan><tspan font-size="24" x="859.764" y="184">ğ‘</tspan><tspan font-size="18" x="875.27" y="189">ğ‘œğ‘“</tspan><tspan x="309.477" y="0">ğ‘‘ğ‘’ğ‘ğ‘¡â„ğ‘¤ğ‘–ğ‘ ğ‘’</tspan><tspan x="395.724" y="0"> </tspan><tspan x="304.611" y="35">ğ‘ğ‘œğ‘›ğ‘£ğ‘œğ‘™ğ‘¢ğ‘¡ğ‘–ğ‘œğ‘›</tspan></text><path d="M1.86315-3.53959 233.227 118.244 229.5 125.323-1.86315 3.53959ZM233.413 109.302 249.061 131.099 222.234 130.539Z" fill="#FFFF00" transform="matrix(1 0 0 -1 847 503.099)"/><path d="M0.0380942-0.331149 229.343 26.0473 229.267 26.7096-0.0380942 0.331149ZM228.437 22.2522 235.928 27.1403 227.523 30.1998Z" fill="#70AD47" transform="matrix(1 0 0 -1 294.5 312.64)"/><path d="M0.120216-0.310901 229.83 88.5108 229.59 89.1326-0.120216 0.310901ZM229.909 84.6098 235.928 91.2258 227.023 92.0715Z" fill="#A5A5A5" transform="matrix(1 0 0 -1 294.5 376.726)"/><path d="M0.184315-0.277739 230.558 152.604 230.189 153.16-0.184315 0.277739ZM231.474 148.812 235.928 156.568 227.05 155.477Z" fill="#ED7D31" transform="matrix(1 0 0 -1 294.5 442.068)"/><path d="M0.22769-0.243451 231.286 215.856 230.831 216.343-0.22769 0.243451ZM232.817 212.268 235.928 220.654 227.352 218.11Z" fill="#4472C4" transform="matrix(1 0 0 -1 294.5 506.154)"/><path d="M688 281 757.522 281 757.522 289 688 289ZM753.522 273 777.522 285 753.522 297Z" fill="#7030A0"/><path d="M848.317 281.223 1078.53 361.467 1075.9 369.021 845.683 288.777ZM1077.39 352.596 1096.1 371.827 1069.49 375.259Z" fill="#BCBC14"/><path d="M0.333344 6.66666 0.333427 58.076-0.333239 58.076-0.333322 6.66666ZM-3.99999 8.00001 0 0 4.00001 7.99999ZM4.00009 56.7427 0.000104987 64.7427-3.99991 56.7427Z" fill="#7030A0" transform="matrix(1 0 0 -1 610.5 318.243)"/><text font-family="Calibri,Calibri_MSFontService,sans-serif" font-weight="400" font-size="24" transform="translate(625.03 292)">Npar<tspan font-family="Cambria Math,Cambria Math_MSFontService,sans-serif" font-size="19" x="260.75" y="-93">p</tspan><tspan font-family="Cambria Math,Cambria Math_MSFontService,sans-serif" font-size="19" x="271.083" y="-93">ğ‘œğ‘–ğ‘›ğ‘¡ğ‘¤ğ‘–ğ‘ ğ‘’</tspan><tspan font-family="Cambria Math,Cambria Math_MSFontService,sans-serif" font-size="19" x="342.997" y="-93"> </tspan><tspan font-family="Cambria Math,Cambria Math_MSFontService,sans-serif" font-size="19" x="347.163" y="-93">ğ‘ğ‘œğ‘›ğ‘£ğ‘œğ‘™ğ‘¢ğ‘¡ğ‘–ğ‘œğ‘›</tspan></text><path d="M561.5 344C561.5 342.067 563.291 340.5 565.5 340.5 567.709 340.5 569.5 342.067 569.5 344 569.5 345.933 567.709 347.5 565.5 347.5 563.291 347.5 561.5 345.933 561.5 344Z" stroke="#000000" stroke-width="1.33333" stroke-miterlimit="8" fill-rule="evenodd"/><path d="M562.5 429C562.5 427.067 564.291 425.5 566.5 425.5 568.709 425.5 570.5 427.067 570.5 429 570.5 430.933 568.709 432.5 566.5 432.5 564.291 432.5 562.5 430.933 562.5 429Z" stroke="#000000" stroke-width="1.33333" stroke-miterlimit="8" fill-rule="evenodd"/><path d="M561.5 386.5C561.5 384.291 563.067 382.5 565 382.5 566.933 382.5 568.5 384.291 568.5 386.5 568.5 388.709 566.933 390.5 565 390.5 563.067 390.5 561.5 388.709 561.5 386.5Z" stroke="#000000" stroke-width="1.33333" stroke-miterlimit="8" fill-rule="evenodd"/><path d="M813.5 343.5C813.5 341.291 815.291 339.5 817.5 339.5 819.709 339.5 821.5 341.291 821.5 343.5 821.5 345.709 819.709 347.5 817.5 347.5 815.291 347.5 813.5 345.709 813.5 343.5Z" stroke="#000000" stroke-width="1.33333" stroke-miterlimit="8" fill-rule="evenodd"/><path d="M814.5 428.5C814.5 426.291 816.291 424.5 818.5 424.5 820.709 424.5 822.5 426.291 822.5 428.5 822.5 430.709 820.709 432.5 818.5 432.5 816.291 432.5 814.5 430.709 814.5 428.5Z" stroke="#000000" stroke-width="1.33333" stroke-miterlimit="8" fill-rule="evenodd"/><path d="M813.5 386C813.5 384.067 815.067 382.5 817 382.5 818.933 382.5 820.5 384.067 820.5 386 820.5 387.933 818.933 389.5 817 389.5 815.067 389.5 813.5 387.933 813.5 386Z" stroke="#000000" stroke-width="1.33333" stroke-miterlimit="8" fill-rule="evenodd"/><text font-family="Cambria Math,Cambria Math_MSFontService,sans-serif" font-weight="400" font-size="24" transform="translate(91.948 421)">ğ‘<tspan font-size="18" x="15.5067" y="5">ğ‘–</tspan><tspan font-size="18" x="21.6733" y="5">ğ‘“</tspan><tspan font-family="Calibri,Calibri_MSFontService,sans-serif" font-weight="700" font-size="19" x="129.665" y="168">Input FM</tspan><tspan font-family="Calibri,Calibri_MSFontService,sans-serif" font-weight="700" font-size="19" x="995.908" y="167">Output</tspan><tspan font-family="Calibri,Calibri_MSFontService,sans-serif" font-weight="700" font-size="19" x="1055.74" y="167">FM</tspan><tspan font-family="Calibri,Calibri_MSFontService,sans-serif" font-weight="700" font-size="19" x="418.267" y="167">Intermediate</tspan><tspan font-family="Calibri,Calibri_MSFontService,sans-serif" font-weight="700" font-size="19" x="523.3" y="167">FM</tspan></text><rect x="537.5" y="522.5" width="70" height="15" stroke="#C00000" stroke-width="1.33333" stroke-miterlimit="8" fill="#FF0000"/><rect x="538.5" y="502.5" width="70" height="15" stroke="#C00000" stroke-width="1.33333" stroke-miterlimit="8" fill="#FF0000"/><rect x="537.5" y="482.5" width="70" height="16" stroke="#C00000" stroke-width="1.33333" stroke-miterlimit="8" fill="#FF0000"/><rect x="537.5" y="463.5" width="70" height="15" stroke="#C00000" stroke-width="1.33333" stroke-miterlimit="8" fill="#FF0000"/><rect x="777.5" y="522.5" width="70" height="13" stroke="#C00000" stroke-width="1.33333" stroke-miterlimit="8" fill="#C00000"/><rect x="777.5" y="505.5" width="70" height="12" stroke="#C00000" stroke-width="1.33333" stroke-miterlimit="8" fill="#C00000"/><rect x="777.5" y="486.5" width="70" height="13" stroke="#C00000" stroke-width="1.33333" stroke-miterlimit="8" fill="#C00000"/><rect x="777.5" y="469.5" width="70" height="13" stroke="#C00000" stroke-width="1.33333" stroke-miterlimit="8" fill="#C00000"/><rect x="535.5" y="301.5" width="70" height="15" stroke="#7030A0" stroke-width="1.33333" stroke-miterlimit="8" fill="#F42AB1"/><rect x="534.5" y="281.5" width="70" height="15" stroke="#7030A0" stroke-width="1.33333" stroke-miterlimit="8" fill="#F42AB1"/><rect x="535.5" y="262.5" width="70" height="15" stroke="#7030A0" stroke-width="1.33333" stroke-miterlimit="8" fill="#F42AB1"/><rect x="535.5" y="242.5" width="70" height="15" stroke="#7030A0" stroke-width="1.33333" stroke-miterlimit="8" fill="#F42AB1"/><rect x="776.5" y="302.5" width="70" height="15" stroke="#7030A0" stroke-width="1.33333" stroke-miterlimit="8" fill="#7030A0"/><rect x="775.5" y="284.5" width="70" height="14" stroke="#7030A0" stroke-width="1.33333" stroke-miterlimit="8" fill="#7030A0"/><rect x="774.5" y="265.5" width="70" height="15" stroke="#7030A0" stroke-width="1.33333" stroke-miterlimit="8" fill="#7030A0"/><rect x="774.5" y="246.5" width="70" height="15" stroke="#7030A0" stroke-width="1.33333" stroke-miterlimit="8" fill="#7030A0"/><rect x="224.5" y="525.5" width="70" height="15" stroke="#2F528F" stroke-width="1.33333" stroke-miterlimit="8" fill="#4472C4"/><rect x="224.5" y="508.5" width="70" height="14" stroke="#2F528F" stroke-width="1.33333" stroke-miterlimit="8" fill="#4472C4"/><rect x="224.5" y="492.5" width="70" height="12" stroke="#2F528F" stroke-width="1.33333" stroke-miterlimit="8" fill="#4472C4"/><rect x="224.5" y="476.5" width="70" height="13" stroke="#2F528F" stroke-width="1.33333" stroke-miterlimit="8" fill="#4472C4"/><rect x="224.5" y="460.5" width="70" height="13" stroke="#AE5A21" stroke-width="1.33333" stroke-miterlimit="8" fill="#ED7D31"/><rect x="224.5" y="444.5" width="70" height="13" stroke="#AE5A21" stroke-width="1.33333" stroke-miterlimit="8" fill="#ED7D31"/><rect x="224.5" y="429.5" width="70" height="12" stroke="#AE5A21" stroke-width="1.33333" stroke-miterlimit="8" fill="#ED7D31"/><rect x="224.5" y="412.5" width="70" height="13" stroke="#AE5A21" stroke-width="1.33333" stroke-miterlimit="8" fill="#ED7D31"/><rect x="224.5" y="396.5" width="70" height="13" stroke="#787878" stroke-width="1.33333" stroke-miterlimit="8" fill="#A5A5A5"/><rect x="224.5" y="379.5" width="70" height="13" stroke="#787878" stroke-width="1.33333" stroke-miterlimit="8" fill="#A5A5A5"/><rect x="224.5" y="363.5" width="70" height="12" stroke="#787878" stroke-width="1.33333" stroke-miterlimit="8" fill="#A5A5A5"/><rect x="224.5" y="348.5" width="70" height="13" stroke="#787878" stroke-width="1.33333" stroke-miterlimit="8" fill="#A5A5A5"/><rect x="224.5" y="331.5" width="70" height="13" stroke="#507E32" stroke-width="1.33333" stroke-miterlimit="8" fill="#70AD47"/><rect x="224.5" y="314.5" width="70" height="13" stroke="#507E32" stroke-width="1.33333" stroke-miterlimit="8" fill="#70AD47"/><rect x="224.5" y="296.5" width="70" height="14" stroke="#507E32" stroke-width="1.33333" stroke-miterlimit="8" fill="#70AD47"/><rect x="224.5" y="277.5" width="70" height="14" stroke="#507E32" stroke-width="1.33333" stroke-miterlimit="8" fill="#70AD47"/></g></svg>