<svg width="1261" height="445" xmlns="http://www.w3.org/2000/svg" xmlns:xlink="http://www.w3.org/1999/xlink" overflow="hidden"><defs><clipPath id="clip0"><path d="M-15 290 1246 290 1246 735-15 735Z" fill-rule="evenodd" clip-rule="evenodd"/></clipPath></defs><g clip-path="url(#clip0)" transform="translate(15 -290)"><rect x="1124.5" y="407.5" width="27" height="26" stroke="#000000" stroke-linejoin="round" stroke-miterlimit="10" fill="none"/><rect x="1125.5" y="380.5" width="26" height="26" stroke="#000000" stroke-linejoin="round" stroke-miterlimit="10" fill="none"/><rect x="91.5001" y="372.5" width="26" height="27" stroke="#000000" stroke-linejoin="round" stroke-miterlimit="10" fill="none"/><rect x="117.5" y="372.5" width="27" height="27" stroke="#000000" stroke-linejoin="round" stroke-miterlimit="10" fill="none"/><rect x="142.5" y="372.5" width="26" height="27" stroke="#000000" stroke-linejoin="round" stroke-miterlimit="10" fill="none"/><rect x="169.5" y="372.5" width="26" height="27" stroke="#000000" stroke-linejoin="round" stroke-miterlimit="10" fill="none"/><rect x="91.5001" y="399.5" width="26" height="26" stroke="#000000" stroke-linejoin="round" stroke-miterlimit="10" fill="none"/><rect x="117.5" y="399.5" width="27" height="26" stroke="#000000" stroke-linejoin="round" stroke-miterlimit="10" fill="none"/><rect x="169.5" y="399.5" width="26" height="26" stroke="#000000" stroke-linejoin="round" stroke-miterlimit="10" fill="none"/><rect x="91.5001" y="425.5" width="26" height="27" stroke="#000000" stroke-linejoin="round" stroke-miterlimit="10" fill="none"/><rect x="144.5" y="425.5" width="25" height="27" stroke="#000000" stroke-linejoin="round" stroke-miterlimit="10" fill="none"/><rect x="169.5" y="425.5" width="26" height="26" stroke="#000000" stroke-linejoin="round" stroke-miterlimit="10" fill="none"/><rect x="91.5001" y="452.5" width="26" height="26" stroke="#000000" stroke-linejoin="round" stroke-miterlimit="10" fill="none"/><rect x="117.5" y="451.5" width="27" height="27" stroke="#000000" stroke-linejoin="round" stroke-miterlimit="10" fill="none"/><rect x="143.5" y="451.5" width="26" height="27" stroke="#000000" stroke-linejoin="round" stroke-miterlimit="10" fill="none"/><rect x="169.5" y="451.5" width="26" height="27" stroke="#000000" stroke-linejoin="round" stroke-miterlimit="10" fill="none"/><rect x="83.5001" y="381" width="25.5" height="25.5" fill="#ED7D31"/><path d="M109 381 117.5 372.5 117.5 398 109 406.5Z" fill="#BF6427" fill-rule="evenodd"/><path d="M83.5001 381 92.0001 372.5 117.5 372.5 109 381Z" fill="#F19659" fill-rule="evenodd"/><path d="M83.5001 381 92.0001 372.5 117.5 372.5 117.5 398 109 406.5 83.5001 406.5ZM83.5001 381 109 381 117.5 372.5M109 381 109 406.5" stroke="#787878" stroke-width="1.33333" stroke-miterlimit="8" fill="none" fill-rule="evenodd"/><rect x="75.5001" y="389" width="25.5" height="25.5" fill="#FFE699"/><path d="M101 389 109.5 380.5 109.5 406 101 414.5Z" fill="#CDB97B" fill-rule="evenodd"/><path d="M75.5001 389 84.0001 380.5 109.5 380.5 101 389Z" fill="#FFEBAD" fill-rule="evenodd"/><path d="M75.5001 389 84.0001 380.5 109.5 380.5 109.5 406 101 414.5 75.5001 414.5ZM75.5001 389 101 389 109.5 380.5M101 389 101 414.5" stroke="#41719C" stroke-width="1.33333" stroke-miterlimit="8" fill="none" fill-rule="evenodd"/><rect x="67.5001" y="397" width="25.5" height="25.5" fill="#FFC000"/><path d="M93.0001 397 101.5 388.5 101.5 414 93.0001 422.5Z" fill="#CD9A00" fill-rule="evenodd"/><path d="M67.5001 397 76.0001 388.5 101.5 388.5 93.0001 397Z" fill="#FFCC32" fill-rule="evenodd"/><path d="M67.5001 397 76.0001 388.5 101.5 388.5 101.5 414 93.0001 422.5 67.5001 422.5ZM67.5001 397 93.0001 397 101.5 388.5M93.0001 397 93.0001 422.5" stroke="#787878" stroke-width="1.33333" stroke-miterlimit="8" fill="none" fill-rule="evenodd"/><rect x="58.5001" y="406" width="25.5" height="25.5" fill="#BF9000"/><path d="M84.0001 406 92.5001 397.5 92.5001 423 84.0001 431.5Z" fill="#9A7400" fill-rule="evenodd"/><path d="M58.5001 406 67.0001 397.5 92.5001 397.5 84.0001 406Z" fill="#CCA632" fill-rule="evenodd"/><path d="M58.5001 406 67.0001 397.5 92.5001 397.5 92.5001 423 84.0001 431.5 58.5001 431.5ZM58.5001 406 84.0001 406 92.5001 397.5M84.0001 406 84.0001 431.5" stroke="#41719C" stroke-width="1.33333" stroke-miterlimit="8" fill="none" fill-rule="evenodd"/><rect x="50.5001" y="415" width="25.5" height="25.5" fill="#385723"/><path d="M76.0001 415 84.5001 406.5 84.5001 432 76.0001 440.5Z" fill="#2D461C" fill-rule="evenodd"/><path d="M50.5001 415 59.0001 406.5 84.5001 406.5 76.0001 415Z" fill="#5F784E" fill-rule="evenodd"/><path d="M50.5001 415 59.0001 406.5 84.5001 406.5 84.5001 432 76.0001 440.5 50.5001 440.5ZM50.5001 415 76.0001 415 84.5001 406.5M76.0001 415 76.0001 440.5" stroke="#507E32" stroke-width="1.33333" stroke-miterlimit="8" fill="none" fill-rule="evenodd"/><rect x="41.5001" y="423" width="25.5" height="25.5" fill="#70AD47"/><path d="M67.0001 423 75.5001 414.5 75.5001 440 67.0001 448.5Z" fill="#5A8B39" fill-rule="evenodd"/><path d="M41.5001 423 50.0001 414.5 75.5001 414.5 67.0001 423Z" fill="#8CBD6B" fill-rule="evenodd"/><path d="M41.5001 423 50.0001 414.5 75.5001 414.5 75.5001 440 67.0001 448.5 41.5001 448.5ZM41.5001 423 67.0001 423 75.5001 414.5M67.0001 423 67.0001 448.5" stroke="#2F528F" stroke-width="1.33333" stroke-miterlimit="8" fill="none" fill-rule="evenodd"/><rect x="32.5001" y="432" width="25.5" height="25.5" fill="#A9D18E"/><path d="M58.0001 432 66.5001 423.5 66.5001 449 58.0001 457.5Z" fill="#88A872" fill-rule="evenodd"/><path d="M32.5001 432 41.0001 423.5 66.5001 423.5 58.0001 432Z" fill="#BADAA4" fill-rule="evenodd"/><path d="M32.5001 432 41.0001 423.5 66.5001 423.5 66.5001 449 58.0001 457.5 32.5001 457.5ZM32.5001 432 58.0001 432 66.5001 423.5M58.0001 432 58.0001 457.5" stroke="#787878" stroke-width="1.33333" stroke-miterlimit="8" fill="none" fill-rule="evenodd"/><rect x="25.5001" y="440" width="25.5" height="25.5" fill="#5B9BD5"/><path d="M51.0001 440 59.5001 431.5 59.5001 457 51.0001 465.5Z" fill="#497DAB" fill-rule="evenodd"/><path d="M25.5001 440 34.0001 431.5 59.5001 431.5 51.0001 440Z" fill="#7BAFDD" fill-rule="evenodd"/><path d="M25.5001 440 34.0001 431.5 59.5001 431.5 59.5001 457 51.0001 465.5 25.5001 465.5ZM25.5001 440 51.0001 440 59.5001 431.5M51.0001 440 51.0001 465.5" stroke="#41719C" stroke-width="1.33333" stroke-miterlimit="8" fill="none" fill-rule="evenodd"/><rect x="16.5001" y="448" width="25.5" height="25.5" fill="#4472C4"/><path d="M42.0001 448 50.5001 439.5 50.5001 465 42.0001 473.5Z" fill="#375C9E" fill-rule="evenodd"/><path d="M16.5001 448 25.0001 439.5 50.5001 439.5 42.0001 448Z" fill="#698ED0" fill-rule="evenodd"/><path d="M16.5001 448 25.0001 439.5 50.5001 439.5 50.5001 465 42.0001 473.5 16.5001 473.5ZM16.5001 448 42.0001 448 50.5001 439.5M42.0001 448 42.0001 473.5" stroke="#41719C" stroke-width="1.33333" stroke-miterlimit="8" fill="none" fill-rule="evenodd"/><rect x="7.50005" y="457" width="25.5" height="25.5" fill="#44546A"/><path d="M33 457 41.5001 448.5 41.5001 474 33 482.5Z" fill="#374455" fill-rule="evenodd"/><path d="M7.50005 457 16.0001 448.5 41.5001 448.5 33 457Z" fill="#697687" fill-rule="evenodd"/><path d="M7.50005 457 16.0001 448.5 41.5001 448.5 41.5001 474 33 482.5 7.50005 482.5ZM7.50005 457 33 457 41.5001 448.5M33 457 33 482.5" stroke="#2F528F" stroke-width="1.33333" stroke-miterlimit="8" fill="none" fill-rule="evenodd"/><rect x="661.5" y="460" width="25.5" height="25.5" fill="#ED7D31"/><path d="M687 460 695.5 451.5 695.5 477 687 485.5Z" fill="#BF6427" fill-rule="evenodd"/><path d="M661.5 460 670 451.5 695.5 451.5 687 460Z" fill="#F19659" fill-rule="evenodd"/><path d="M661.5 460 670 451.5 695.5 451.5 695.5 477 687 485.5 661.5 485.5ZM661.5 460 687 460 695.5 451.5M687 460 687 485.5" stroke="#787878" stroke-width="1.33333" stroke-miterlimit="8" fill="none" fill-rule="evenodd"/><rect x="652.5" y="469" width="25.5" height="25.5" fill="#FFE699"/><path d="M678 469 686.5 460.5 686.5 486 678 494.5Z" fill="#CDB97B" fill-rule="evenodd"/><path d="M652.5 469 661 460.5 686.5 460.5 678 469Z" fill="#FFEBAD" fill-rule="evenodd"/><path d="M652.5 469 661 460.5 686.5 460.5 686.5 486 678 494.5 652.5 494.5ZM652.5 469 678 469 686.5 460.5M678 469 678 494.5" stroke="#41719C" stroke-width="1.33333" stroke-miterlimit="8" fill="none" fill-rule="evenodd"/><rect x="643.5" y="477" width="25.5" height="25.5" fill="#FFC000"/><path d="M669 477 677.5 468.5 677.5 494 669 502.5Z" fill="#CD9A00" fill-rule="evenodd"/><path d="M643.5 477 652 468.5 677.5 468.5 669 477Z" fill="#FFCC32" fill-rule="evenodd"/><path d="M643.5 477 652 468.5 677.5 468.5 677.5 494 669 502.5 643.5 502.5ZM643.5 477 669 477 677.5 468.5M669 477 669 502.5" stroke="#787878" stroke-width="1.33333" stroke-miterlimit="8" fill="none" fill-rule="evenodd"/><rect x="635.5" y="486" width="25.5" height="25.5" fill="#BF9000"/><path d="M661 486 669.5 477.5 669.5 503 661 511.5Z" fill="#9A7400" fill-rule="evenodd"/><path d="M635.5 486 644 477.5 669.5 477.5 661 486Z" fill="#CCA632" fill-rule="evenodd"/><path d="M635.5 486 644 477.5 669.5 477.5 669.5 503 661 511.5 635.5 511.5ZM635.5 486 661 486 669.5 477.5M661 486 661 511.5" stroke="#41719C" stroke-width="1.33333" stroke-miterlimit="8" fill="none" fill-rule="evenodd"/><rect x="626.5" y="494" width="25.5" height="25.5" fill="#385723"/><path d="M652 494 660.5 485.5 660.5 511 652 519.5Z" fill="#2D461C" fill-rule="evenodd"/><path d="M626.5 494 635 485.5 660.5 485.5 652 494Z" fill="#5F784E" fill-rule="evenodd"/><path d="M626.5 494 635 485.5 660.5 485.5 660.5 511 652 519.5 626.5 519.5ZM626.5 494 652 494 660.5 485.5M652 494 652 519.5" stroke="#507E32" stroke-width="1.33333" stroke-miterlimit="8" fill="none" fill-rule="evenodd"/><rect x="618.5" y="502" width="25.5" height="25.5" fill="#70AD47"/><path d="M644 502 652.5 493.5 652.5 519 644 527.5Z" fill="#5A8B39" fill-rule="evenodd"/><path d="M618.5 502 627 493.5 652.5 493.5 644 502Z" fill="#8CBD6B" fill-rule="evenodd"/><path d="M618.5 502 627 493.5 652.5 493.5 652.5 519 644 527.5 618.5 527.5ZM618.5 502 644 502 652.5 493.5M644 502 644 527.5" stroke="#2F528F" stroke-width="1.33333" stroke-miterlimit="8" fill="none" fill-rule="evenodd"/><rect x="610.5" y="510" width="25.5" height="25.5" fill="#A9D18E"/><path d="M636 510 644.5 501.5 644.5 527 636 535.5Z" fill="#88A872" fill-rule="evenodd"/><path d="M610.5 510 619 501.5 644.5 501.5 636 510Z" fill="#BADAA4" fill-rule="evenodd"/><path d="M610.5 510 619 501.5 644.5 501.5 644.5 527 636 535.5 610.5 535.5ZM610.5 510 636 510 644.5 501.5M636 510 636 535.5" stroke="#787878" stroke-width="1.33333" stroke-miterlimit="8" fill="none" fill-rule="evenodd"/><rect x="600.5" y="520" width="25.5" height="25.5" fill="#5B9BD5"/><path d="M626 520 634.5 511.5 634.5 537 626 545.5Z" fill="#497DAB" fill-rule="evenodd"/><path d="M600.5 520 609 511.5 634.5 511.5 626 520Z" fill="#7BAFDD" fill-rule="evenodd"/><path d="M600.5 520 609 511.5 634.5 511.5 634.5 537 626 545.5 600.5 545.5ZM600.5 520 626 520 634.5 511.5M626 520 626 545.5" stroke="#41719C" stroke-width="1.33333" stroke-miterlimit="8" fill="none" fill-rule="evenodd"/><rect x="592.5" y="528" width="25.5" height="25.5" fill="#4472C4"/><path d="M618 528 626.5 519.5 626.5 545 618 553.5Z" fill="#375C9E" fill-rule="evenodd"/><path d="M592.5 528 601 519.5 626.5 519.5 618 528Z" fill="#698ED0" fill-rule="evenodd"/><path d="M592.5 528 601 519.5 626.5 519.5 626.5 545 618 553.5 592.5 553.5ZM592.5 528 618 528 626.5 519.5M618 528 618 553.5" stroke="#41719C" stroke-width="1.33333" stroke-miterlimit="8" fill="none" fill-rule="evenodd"/><rect x="583.5" y="537" width="25.5" height="25.5" fill="#44546A"/><path d="M609 537 617.5 528.5 617.5 554 609 562.5Z" fill="#374455" fill-rule="evenodd"/><path d="M583.5 537 592 528.5 617.5 528.5 609 537Z" fill="#697687" fill-rule="evenodd"/><path d="M583.5 537 592 528.5 617.5 528.5 617.5 554 609 562.5 583.5 562.5ZM583.5 537 609 537 617.5 528.5M609 537 609 562.5" stroke="#2F528F" stroke-width="1.33333" stroke-miterlimit="8" fill="none" fill-rule="evenodd"/><rect x="575.5" y="545" width="25.5" height="25.5" fill="#002060"/><path d="M601 545 609.5 536.5 609.5 562 601 570.5Z" fill="#001A4D" fill-rule="evenodd"/><path d="M575.5 545 584 536.5 609.5 536.5 601 545Z" fill="#324C7F" fill-rule="evenodd"/><path d="M575.5 545 584 536.5 609.5 536.5 609.5 562 601 570.5 575.5 570.5ZM575.5 545 601 545 609.5 536.5M601 545 601 570.5" stroke="#2F528F" stroke-width="1.33333" stroke-miterlimit="8" fill="none" fill-rule="evenodd"/><rect x="134.5" y="432" width="25.5" height="25.5" fill="#ED7D31"/><path d="M160 432 168.5 423.5 168.5 449 160 457.5Z" fill="#BF6427" fill-rule="evenodd"/><path d="M134.5 432 143 423.5 168.5 423.5 160 432Z" fill="#F19659" fill-rule="evenodd"/><path d="M134.5 432 143 423.5 168.5 423.5 168.5 449 160 457.5 134.5 457.5ZM134.5 432 160 432 168.5 423.5M160 432 160 457.5" stroke="#787878" stroke-width="1.33333" stroke-miterlimit="8" fill="none" fill-rule="evenodd"/><rect x="134.5" y="406" width="25.5" height="25.5" fill="#ED7D31"/><path d="M160 406 168.5 397.5 168.5 423 160 431.5Z" fill="#BF6427" fill-rule="evenodd"/><path d="M134.5 406 143 397.5 168.5 397.5 160 406Z" fill="#F19659" fill-rule="evenodd"/><path d="M134.5 406 143 397.5 168.5 397.5 168.5 423 160 431.5 134.5 431.5ZM134.5 406 160 406 168.5 397.5M160 406 160 431.5" stroke="#787878" stroke-width="1.33333" stroke-miterlimit="8" fill="none" fill-rule="evenodd"/><rect x="108.5" y="381" width="25.5" height="25.5" fill="#ED7D31"/><path d="M134 381 142.5 372.5 142.5 398 134 406.5Z" fill="#BF6427" fill-rule="evenodd"/><path d="M108.5 381 117 372.5 142.5 372.5 134 381Z" fill="#F19659" fill-rule="evenodd"/><path d="M108.5 381 117 372.5 142.5 372.5 142.5 398 134 406.5 108.5 406.5ZM108.5 381 134 381 142.5 372.5M134 381 134 406.5" stroke="#787878" stroke-width="1.33333" stroke-miterlimit="8" fill="none" fill-rule="evenodd"/><rect x="134.5" y="381" width="25.5" height="25.5" fill="#ED7D31"/><path d="M160 381 168.5 372.5 168.5 398 160 406.5Z" fill="#BF6427" fill-rule="evenodd"/><path d="M134.5 381 143 372.5 168.5 372.5 160 381Z" fill="#F19659" fill-rule="evenodd"/><path d="M134.5 381 143 372.5 168.5 372.5 168.5 398 160 406.5 134.5 406.5ZM134.5 381 160 381 168.5 372.5M160 381 160 406.5" stroke="#787878" stroke-width="1.33333" stroke-miterlimit="8" fill="none" fill-rule="evenodd"/><rect x="100.5" y="389" width="25.5" height="25.5" fill="#FFE699"/><path d="M126 389 134.5 380.5 134.5 406 126 414.5Z" fill="#CDB97B" fill-rule="evenodd"/><path d="M100.5 389 109 380.5 134.5 380.5 126 389Z" fill="#FFEBAD" fill-rule="evenodd"/><path d="M100.5 389 109 380.5 134.5 380.5 134.5 406 126 414.5 100.5 414.5ZM100.5 389 126 389 134.5 380.5M126 389 126 414.5" stroke="#41719C" stroke-width="1.33333" stroke-miterlimit="8" fill="none" fill-rule="evenodd"/><rect x="126.5" y="441" width="25.5" height="25.5" fill="#FFE699"/><path d="M152 441 160.5 432.5 160.5 458 152 466.5Z" fill="#CDB97B" fill-rule="evenodd"/><path d="M126.5 441 135 432.5 160.5 432.5 152 441Z" fill="#FFEBAD" fill-rule="evenodd"/><path d="M126.5 441 135 432.5 160.5 432.5 160.5 458 152 466.5 126.5 466.5ZM126.5 441 152 441 160.5 432.5M152 441 152 466.5" stroke="#41719C" stroke-width="1.33333" stroke-miterlimit="8" fill="none" fill-rule="evenodd"/><rect x="126.5" y="416" width="25.5" height="25.5" fill="#FFE699"/><path d="M152 416 160.5 407.5 160.5 433 152 441.5Z" fill="#CDB97B" fill-rule="evenodd"/><path d="M126.5 416 135 407.5 160.5 407.5 152 416Z" fill="#FFEBAD" fill-rule="evenodd"/><path d="M126.5 416 135 407.5 160.5 407.5 160.5 433 152 441.5 126.5 441.5ZM126.5 416 152 416 160.5 407.5M152 416 152 441.5" stroke="#41719C" stroke-width="1.33333" stroke-miterlimit="8" fill="none" fill-rule="evenodd"/><rect x="126.5" y="390" width="25.5" height="25.5" fill="#FFE699"/><path d="M152 390 160.5 381.5 160.5 407 152 415.5Z" fill="#CDB97B" fill-rule="evenodd"/><path d="M126.5 390 135 381.5 160.5 381.5 152 390Z" fill="#FFEBAD" fill-rule="evenodd"/><path d="M126.5 390 135 381.5 160.5 381.5 160.5 407 152 415.5 126.5 415.5ZM126.5 390 152 390 160.5 381.5M152 390 152 415.5" stroke="#41719C" stroke-width="1.33333" stroke-miterlimit="8" fill="none" fill-rule="evenodd"/><rect x="118.5" y="450" width="25.5" height="25.5" fill="#FFC000"/><path d="M144 450 152.5 441.5 152.5 467 144 475.5Z" fill="#CD9A00" fill-rule="evenodd"/><path d="M118.5 450 127 441.5 152.5 441.5 144 450Z" fill="#FFCC32" fill-rule="evenodd"/><path d="M118.5 450 127 441.5 152.5 441.5 152.5 467 144 475.5 118.5 475.5ZM118.5 450 144 450 152.5 441.5M144 450 144 475.5" stroke="#787878" stroke-width="1.33333" stroke-miterlimit="8" fill="none" fill-rule="evenodd"/><rect x="92.5001" y="398" width="25.5" height="25.5" fill="#FFC000"/><path d="M118 398 126.5 389.5 126.5 415 118 423.5Z" fill="#CD9A00" fill-rule="evenodd"/><path d="M92.5001 398 101 389.5 126.5 389.5 118 398Z" fill="#FFCC32" fill-rule="evenodd"/><path d="M92.5001 398 101 389.5 126.5 389.5 126.5 415 118 423.5 92.5001 423.5ZM92.5001 398 118 398 126.5 389.5M118 398 118 423.5" stroke="#787878" stroke-width="1.33333" stroke-miterlimit="8" fill="none" fill-rule="evenodd"/><rect x="118.5" y="424" width="25.5" height="25.5" fill="#FFC000"/><path d="M144 424 152.5 415.5 152.5 441 144 449.5Z" fill="#CD9A00" fill-rule="evenodd"/><path d="M118.5 424 127 415.5 152.5 415.5 144 424Z" fill="#FFCC32" fill-rule="evenodd"/><path d="M118.5 424 127 415.5 152.5 415.5 152.5 441 144 449.5 118.5 449.5ZM118.5 424 144 424 152.5 415.5M144 424 144 449.5" stroke="#787878" stroke-width="1.33333" stroke-miterlimit="8" fill="none" fill-rule="evenodd"/><rect x="118.5" y="398" width="25.5" height="25.5" fill="#FFC000"/><path d="M144 398 152.5 389.5 152.5 415 144 423.5Z" fill="#CD9A00" fill-rule="evenodd"/><path d="M118.5 398 127 389.5 152.5 389.5 144 398Z" fill="#FFCC32" fill-rule="evenodd"/><path d="M118.5 398 127 389.5 152.5 389.5 152.5 415 144 423.5 118.5 423.5ZM118.5 398 144 398 152.5 389.5M144 398 144 423.5" stroke="#787878" stroke-width="1.33333" stroke-miterlimit="8" fill="none" fill-rule="evenodd"/><rect x="85.5001" y="406" width="25.5" height="25.5" fill="#BF9000"/><path d="M111 406 119.5 397.5 119.5 423 111 431.5Z" fill="#9A7400" fill-rule="evenodd"/><path d="M85.5001 406 94.0001 397.5 119.5 397.5 111 406Z" fill="#CCA632" fill-rule="evenodd"/><path d="M85.5001 406 94.0001 397.5 119.5 397.5 119.5 423 111 431.5 85.5001 431.5ZM85.5001 406 111 406 119.5 397.5M111 406 111 431.5" stroke="#41719C" stroke-width="1.33333" stroke-miterlimit="8" fill="none" fill-rule="evenodd"/><rect x="110.5" y="458" width="25.5" height="25.5" fill="#BF9000"/><path d="M136 458 144.5 449.5 144.5 475 136 483.5Z" fill="#9A7400" fill-rule="evenodd"/><path d="M110.5 458 119 449.5 144.5 449.5 136 458Z" fill="#CCA632" fill-rule="evenodd"/><path d="M110.5 458 119 449.5 144.5 449.5 144.5 475 136 483.5 110.5 483.5ZM110.5 458 136 458 144.5 449.5M136 458 136 483.5" stroke="#41719C" stroke-width="1.33333" stroke-miterlimit="8" fill="none" fill-rule="evenodd"/><rect x="109.5" y="433" width="25.5" height="25.5" fill="#BF9000"/><path d="M135 433 143.5 424.5 143.5 450 135 458.5Z" fill="#9A7400" fill-rule="evenodd"/><path d="M109.5 433 118 424.5 143.5 424.5 135 433Z" fill="#CCA632" fill-rule="evenodd"/><path d="M109.5 433 118 424.5 143.5 424.5 143.5 450 135 458.5 109.5 458.5ZM109.5 433 135 433 143.5 424.5M135 433 135 458.5" stroke="#41719C" stroke-width="1.33333" stroke-miterlimit="8" fill="none" fill-rule="evenodd"/><rect x="109.5" y="406" width="25.5" height="25.5" fill="#BF9000"/><path d="M135 406 143.5 397.5 143.5 423 135 431.5Z" fill="#9A7400" fill-rule="evenodd"/><path d="M109.5 406 118 397.5 143.5 397.5 135 406Z" fill="#CCA632" fill-rule="evenodd"/><path d="M109.5 406 118 397.5 143.5 397.5 143.5 423 135 431.5 109.5 431.5ZM109.5 406 135 406 143.5 397.5M135 406 135 431.5" stroke="#41719C" stroke-width="1.33333" stroke-miterlimit="8" fill="none" fill-rule="evenodd"/><rect x="76.5001" y="416" width="25.5" height="25.5" fill="#385723"/><path d="M102 416 110.5 407.5 110.5 433 102 441.5Z" fill="#2D461C" fill-rule="evenodd"/><path d="M76.5001 416 85.0001 407.5 110.5 407.5 102 416Z" fill="#5F784E" fill-rule="evenodd"/><path d="M76.5001 416 85.0001 407.5 110.5 407.5 110.5 433 102 441.5 76.5001 441.5ZM76.5001 416 102 416 110.5 407.5M102 416 102 441.5" stroke="#507E32" stroke-width="1.33333" stroke-miterlimit="8" fill="none" fill-rule="evenodd"/><rect x="101.5" y="466" width="25.5" height="25.5" fill="#385723"/><path d="M127 466 135.5 457.5 135.5 483 127 491.5Z" fill="#2D461C" fill-rule="evenodd"/><path d="M101.5 466 110 457.5 135.5 457.5 127 466Z" fill="#5F784E" fill-rule="evenodd"/><path d="M101.5 466 110 457.5 135.5 457.5 135.5 483 127 491.5 101.5 491.5ZM101.5 466 127 466 135.5 457.5M127 466 127 491.5" stroke="#507E32" stroke-width="1.33333" stroke-miterlimit="8" fill="none" fill-rule="evenodd"/><rect x="101.5" y="442" width="25.5" height="25.5" fill="#385723"/><path d="M127 442 135.5 433.5 135.5 459 127 467.5Z" fill="#2D461C" fill-rule="evenodd"/><path d="M101.5 442 110 433.5 135.5 433.5 127 442Z" fill="#5F784E" fill-rule="evenodd"/><path d="M101.5 442 110 433.5 135.5 433.5 135.5 459 127 467.5 101.5 467.5ZM101.5 442 127 442 135.5 433.5M127 442 127 467.5" stroke="#507E32" stroke-width="1.33333" stroke-miterlimit="8" fill="none" fill-rule="evenodd"/><rect x="102.5" y="415" width="25.5" height="25.5" fill="#385723"/><path d="M128 415 136.5 406.5 136.5 432 128 440.5Z" fill="#2D461C" fill-rule="evenodd"/><path d="M102.5 415 111 406.5 136.5 406.5 128 415Z" fill="#5F784E" fill-rule="evenodd"/><path d="M102.5 415 111 406.5 136.5 406.5 136.5 432 128 440.5 102.5 440.5ZM102.5 415 128 415 136.5 406.5M128 415 128 440.5" stroke="#507E32" stroke-width="1.33333" stroke-miterlimit="8" fill="none" fill-rule="evenodd"/><rect x="92.5001" y="475" width="25.5" height="25.5" fill="#70AD47"/><path d="M118 475 126.5 466.5 126.5 492 118 500.5Z" fill="#5A8B39" fill-rule="evenodd"/><path d="M92.5001 475 101 466.5 126.5 466.5 118 475Z" fill="#8CBD6B" fill-rule="evenodd"/><path d="M92.5001 475 101 466.5 126.5 466.5 126.5 492 118 500.5 92.5001 500.5ZM92.5001 475 118 475 126.5 466.5M118 475 118 500.5" stroke="#2F528F" stroke-width="1.33333" stroke-miterlimit="8" fill="none" fill-rule="evenodd"/><rect x="51.5001" y="464.5" width="27" height="26" stroke="#000000" stroke-linejoin="round" stroke-miterlimit="10" fill="none"/><rect x="25.5001" y="490.5" width="26" height="27" stroke="#000000" stroke-linejoin="round" stroke-miterlimit="10" fill="none"/><rect x="-1.50005" y="543.5" width="27.0001" height="27" stroke="#000000" stroke-linejoin="round" stroke-miterlimit="10" fill="none"/><rect x="25.5001" y="543.5" width="26" height="27" stroke="#000000" stroke-linejoin="round" stroke-miterlimit="10" fill="none"/><rect x="67.5001" y="423" width="25.5" height="25.5" fill="#70AD47"/><path d="M93.0001 423 101.5 414.5 101.5 440 93.0001 448.5Z" fill="#5A8B39" fill-rule="evenodd"/><path d="M67.5001 423 76.0001 414.5 101.5 414.5 93.0001 423Z" fill="#8CBD6B" fill-rule="evenodd"/><path d="M67.5001 423 76.0001 414.5 101.5 414.5 101.5 440 93.0001 448.5 67.5001 448.5ZM67.5001 423 93.0001 423 101.5 414.5M93.0001 423 93.0001 448.5" stroke="#2F528F" stroke-width="1.33333" stroke-miterlimit="8" fill="none" fill-rule="evenodd"/><rect x="93.5001" y="449" width="25.5" height="25.5" fill="#70AD47"/><path d="M119 449 127.5 440.5 127.5 466 119 474.5Z" fill="#5A8B39" fill-rule="evenodd"/><path d="M93.5001 449 102 440.5 127.5 440.5 119 449Z" fill="#8CBD6B" fill-rule="evenodd"/><path d="M93.5001 449 102 440.5 127.5 440.5 127.5 466 119 474.5 93.5001 474.5ZM93.5001 449 119 449 127.5 440.5M119 449 119 474.5" stroke="#2F528F" stroke-width="1.33333" stroke-miterlimit="8" fill="none" fill-rule="evenodd"/><rect x="94.5001" y="423" width="25.5" height="25.5" fill="#70AD47"/><path d="M120 423 128.5 414.5 128.5 440 120 448.5Z" fill="#5A8B39" fill-rule="evenodd"/><path d="M94.5001 423 103 414.5 128.5 414.5 120 423Z" fill="#8CBD6B" fill-rule="evenodd"/><path d="M94.5001 423 103 414.5 128.5 414.5 128.5 440 120 448.5 94.5001 448.5ZM94.5001 423 120 423 128.5 414.5M120 423 120 448.5" stroke="#2F528F" stroke-width="1.33333" stroke-miterlimit="8" fill="none" fill-rule="evenodd"/><rect x="59.5001" y="433" width="25.5" height="25.5" fill="#A9D18E"/><path d="M85.0001 433 93.5001 424.5 93.5001 450 85.0001 458.5Z" fill="#88A872" fill-rule="evenodd"/><path d="M59.5001 433 68.0001 424.5 93.5001 424.5 85.0001 433Z" fill="#BADAA4" fill-rule="evenodd"/><path d="M59.5001 433 68.0001 424.5 93.5001 424.5 93.5001 450 85.0001 458.5 59.5001 458.5ZM59.5001 433 85.0001 433 93.5001 424.5M85.0001 433 85.0001 458.5" stroke="#787878" stroke-width="1.33333" stroke-miterlimit="8" fill="none" fill-rule="evenodd"/><rect x="84.5001" y="484" width="25.5" height="25.5" fill="#A9D18E"/><path d="M110 484 118.5 475.5 118.5 501 110 509.5Z" fill="#88A872" fill-rule="evenodd"/><path d="M84.5001 484 93.0001 475.5 118.5 475.5 110 484Z" fill="#BADAA4" fill-rule="evenodd"/><path d="M84.5001 484 93.0001 475.5 118.5 475.5 118.5 501 110 509.5 84.5001 509.5ZM84.5001 484 110 484 118.5 475.5M110 484 110 509.5" stroke="#787878" stroke-width="1.33333" stroke-miterlimit="8" fill="none" fill-rule="evenodd"/><rect x="76.5001" y="492" width="25.5" height="25.5" fill="#5B9BD5"/><path d="M102 492 110.5 483.5 110.5 509 102 517.5Z" fill="#497DAB" fill-rule="evenodd"/><path d="M76.5001 492 85.0001 483.5 110.5 483.5 102 492Z" fill="#7BAFDD" fill-rule="evenodd"/><path d="M76.5001 492 85.0001 483.5 110.5 483.5 110.5 509 102 517.5 76.5001 517.5ZM76.5001 492 102 492 110.5 483.5M102 492 102 517.5" stroke="#41719C" stroke-width="1.33333" stroke-miterlimit="8" fill="none" fill-rule="evenodd"/><rect x="83.5001" y="459" width="25.5" height="25.5" fill="#A9D18E"/><path d="M109 459 117.5 450.5 117.5 476 109 484.5Z" fill="#88A872" fill-rule="evenodd"/><path d="M83.5001 459 92.0001 450.5 117.5 450.5 109 459Z" fill="#BADAA4" fill-rule="evenodd"/><path d="M83.5001 459 92.0001 450.5 117.5 450.5 117.5 476 109 484.5 83.5001 484.5ZM83.5001 459 109 459 117.5 450.5M109 459 109 484.5" stroke="#787878" stroke-width="1.33333" stroke-miterlimit="8" fill="none" fill-rule="evenodd"/><rect x="84.5001" y="432" width="25.5" height="25.5" fill="#A9D18E"/><path d="M110 432 118.5 423.5 118.5 449 110 457.5Z" fill="#88A872" fill-rule="evenodd"/><path d="M84.5001 432 93.0001 423.5 118.5 423.5 110 432Z" fill="#BADAA4" fill-rule="evenodd"/><path d="M84.5001 432 93.0001 423.5 118.5 423.5 118.5 449 110 457.5 84.5001 457.5ZM84.5001 432 110 432 118.5 423.5M110 432 110 457.5" stroke="#787878" stroke-width="1.33333" stroke-miterlimit="8" fill="none" fill-rule="evenodd"/><rect x="49.5001" y="440" width="25.5" height="25.5" fill="#5B9BD5"/><path d="M75.0001 440 83.5001 431.5 83.5001 457 75.0001 465.5Z" fill="#497DAB" fill-rule="evenodd"/><path d="M49.5001 440 58.0001 431.5 83.5001 431.5 75.0001 440Z" fill="#7BAFDD" fill-rule="evenodd"/><path d="M49.5001 440 58.0001 431.5 83.5001 431.5 83.5001 457 75.0001 465.5 49.5001 465.5ZM49.5001 440 75.0001 440 83.5001 431.5M75.0001 440 75.0001 465.5" stroke="#41719C" stroke-width="1.33333" stroke-miterlimit="8" fill="none" fill-rule="evenodd"/><rect x="76.5001" y="467" width="25.5" height="25.5" fill="#5B9BD5"/><path d="M102 467 110.5 458.5 110.5 484 102 492.5Z" fill="#497DAB" fill-rule="evenodd"/><path d="M76.5001 467 85.0001 458.5 110.5 458.5 102 467Z" fill="#7BAFDD" fill-rule="evenodd"/><path d="M76.5001 467 85.0001 458.5 110.5 458.5 110.5 484 102 492.5 76.5001 492.5ZM76.5001 467 102 467 110.5 458.5M102 467 102 492.5" stroke="#41719C" stroke-width="1.33333" stroke-miterlimit="8" fill="none" fill-rule="evenodd"/><rect x="76.5001" y="440" width="25.5" height="25.5" fill="#5B9BD5"/><path d="M102 440 110.5 431.5 110.5 457 102 465.5Z" fill="#497DAB" fill-rule="evenodd"/><path d="M76.5001 440 85.0001 431.5 110.5 431.5 102 440Z" fill="#7BAFDD" fill-rule="evenodd"/><path d="M76.5001 440 85.0001 431.5 110.5 431.5 110.5 457 102 465.5 76.5001 465.5ZM76.5001 440 102 440 110.5 431.5M102 440 102 465.5" stroke="#41719C" stroke-width="1.33333" stroke-miterlimit="8" fill="none" fill-rule="evenodd"/><rect x="41.5001" y="448" width="25.5" height="25.5" fill="#4472C4"/><path d="M67.0001 448 75.5001 439.5 75.5001 465 67.0001 473.5Z" fill="#375C9E" fill-rule="evenodd"/><path d="M41.5001 448 50.0001 439.5 75.5001 439.5 67.0001 448Z" fill="#698ED0" fill-rule="evenodd"/><path d="M41.5001 448 50.0001 439.5 75.5001 439.5 75.5001 465 67.0001 473.5 41.5001 473.5ZM41.5001 448 67.0001 448 75.5001 439.5M67.0001 448 67.0001 473.5" stroke="#41719C" stroke-width="1.33333" stroke-miterlimit="8" fill="none" fill-rule="evenodd"/><rect x="69.5001" y="500" width="25.5" height="25.5" fill="#4472C4"/><path d="M95.0001 500 103.5 491.5 103.5 517 95.0001 525.5Z" fill="#375C9E" fill-rule="evenodd"/><path d="M69.5001 500 78.0001 491.5 103.5 491.5 95.0001 500Z" fill="#698ED0" fill-rule="evenodd"/><path d="M69.5001 500 78.0001 491.5 103.5 491.5 103.5 517 95.0001 525.5 69.5001 525.5ZM69.5001 500 95.0001 500 103.5 491.5M95.0001 500 95.0001 525.5" stroke="#41719C" stroke-width="1.33333" stroke-miterlimit="8" fill="none" fill-rule="evenodd"/><rect x="61.5001" y="508" width="25.5" height="25.5" fill="#44546A"/><path d="M87.0001 508 95.5001 499.5 95.5001 525 87.0001 533.5Z" fill="#374455" fill-rule="evenodd"/><path d="M61.5001 508 70.0001 499.5 95.5001 499.5 87.0001 508Z" fill="#697687" fill-rule="evenodd"/><path d="M61.5001 508 70.0001 499.5 95.5001 499.5 95.5001 525 87.0001 533.5 61.5001 533.5ZM61.5001 508 87.0001 508 95.5001 499.5M87.0001 508 87.0001 533.5" stroke="#2F528F" stroke-width="1.33333" stroke-miterlimit="8" fill="none" fill-rule="evenodd"/><rect x="70.5001" y="473" width="25.5" height="25.5" fill="#4472C4"/><path d="M96.0001 473 104.5 464.5 104.5 490 96.0001 498.5Z" fill="#375C9E" fill-rule="evenodd"/><path d="M70.5001 473 79.0001 464.5 104.5 464.5 96.0001 473Z" fill="#698ED0" fill-rule="evenodd"/><path d="M70.5001 473 79.0001 464.5 104.5 464.5 104.5 490 96.0001 498.5 70.5001 498.5ZM70.5001 473 96.0001 473 104.5 464.5M96.0001 473 96.0001 498.5" stroke="#41719C" stroke-width="1.33333" stroke-miterlimit="8" fill="none" fill-rule="evenodd"/><rect x="69.5001" y="449" width="25.5" height="25.5" fill="#4472C4"/><path d="M95.0001 449 103.5 440.5 103.5 466 95.0001 474.5Z" fill="#375C9E" fill-rule="evenodd"/><path d="M69.5001 449 78.0001 440.5 103.5 440.5 95.0001 449Z" fill="#698ED0" fill-rule="evenodd"/><path d="M69.5001 449 78.0001 440.5 103.5 440.5 103.5 466 95.0001 474.5 69.5001 474.5ZM69.5001 449 95.0001 449 103.5 440.5M95.0001 449 95.0001 474.5" stroke="#41719C" stroke-width="1.33333" stroke-miterlimit="8" fill="none" fill-rule="evenodd"/><rect x="33.5001" y="457" width="25.5" height="25.5" fill="#44546A"/><path d="M59.0001 457 67.5001 448.5 67.5001 474 59.0001 482.5Z" fill="#374455" fill-rule="evenodd"/><path d="M33.5001 457 42.0001 448.5 67.5001 448.5 59.0001 457Z" fill="#697687" fill-rule="evenodd"/><path d="M33.5001 457 42.0001 448.5 67.5001 448.5 67.5001 474 59.0001 482.5 33.5001 482.5ZM33.5001 457 59.0001 457 67.5001 448.5M59.0001 457 59.0001 482.5" stroke="#2F528F" stroke-width="1.33333" stroke-miterlimit="8" fill="none" fill-rule="evenodd"/><rect x="60.5001" y="482" width="25.5" height="25.5" fill="#44546A"/><path d="M86.0001 482 94.5001 473.5 94.5001 499 86.0001 507.5Z" fill="#374455" fill-rule="evenodd"/><path d="M60.5001 482 69.0001 473.5 94.5001 473.5 86.0001 482Z" fill="#697687" fill-rule="evenodd"/><path d="M60.5001 482 69.0001 473.5 94.5001 473.5 94.5001 499 86.0001 507.5 60.5001 507.5ZM60.5001 482 86.0001 482 94.5001 473.5M86.0001 482 86.0001 507.5" stroke="#2F528F" stroke-width="1.33333" stroke-miterlimit="8" fill="none" fill-rule="evenodd"/><rect x="-0.500053" y="518" width="25.5001" height="25.5001" fill="#002060"/><path d="M25 518 33.5 509.5 33.5 535 25 543.5Z" fill="#001A4D" fill-rule="evenodd"/><path d="M-0.500053 518 7.99997 509.5 33.5 509.5 25 518Z" fill="#324C7F" fill-rule="evenodd"/><path d="M-0.500053 518 7.99997 509.5 33.5 509.5 33.5 535 25 543.5-0.500053 543.5ZM-0.500053 518 25 518 33.5 509.5M25 518 25 543.5" stroke="#2F528F" stroke-width="1.33333" stroke-miterlimit="8" fill="none" fill-rule="evenodd"/><rect x="25.5001" y="518" width="25.5" height="25.5" fill="#002060"/><path d="M51.0001 518 59.5001 509.5 59.5001 535 51.0001 543.5Z" fill="#001A4D" fill-rule="evenodd"/><path d="M25.5001 518 34.0001 509.5 59.5001 509.5 51.0001 518Z" fill="#324C7F" fill-rule="evenodd"/><path d="M25.5001 518 34.0001 509.5 59.5001 509.5 59.5001 535 51.0001 543.5 25.5001 543.5ZM25.5001 518 51.0001 518 59.5001 509.5M51.0001 518 51.0001 543.5" stroke="#2F528F" stroke-width="1.33333" stroke-miterlimit="8" fill="none" fill-rule="evenodd"/><rect x="-0.500053" y="491" width="26.5001" height="25.5" fill="#002060"/><path d="M26 491 34.5 482.5 34.5 508 26 516.5Z" fill="#001A4D" fill-rule="evenodd"/><path d="M-0.500053 491 7.99995 482.5 34.5 482.5 26 491Z" fill="#324C7F" fill-rule="evenodd"/><path d="M-0.500053 491 7.99995 482.5 34.5 482.5 34.5 508 26 516.5-0.500053 516.5ZM-0.500053 491 26 491 34.5 482.5M26 491 26 516.5" stroke="#2F528F" stroke-width="1.33333" stroke-miterlimit="8" fill="none" fill-rule="evenodd"/><rect x="26.5001" y="492" width="25.5" height="25.5" fill="#002060"/><path d="M52.0001 492 60.5001 483.5 60.5001 509 52.0001 517.5Z" fill="#001A4D" fill-rule="evenodd"/><path d="M26.5001 492 35.0001 483.5 60.5001 483.5 52.0001 492Z" fill="#324C7F" fill-rule="evenodd"/><path d="M26.5001 492 35.0001 483.5 60.5001 483.5 60.5001 509 52.0001 517.5 26.5001 517.5ZM26.5001 492 52.0001 492 60.5001 483.5M52.0001 492 52.0001 517.5" stroke="#2F528F" stroke-width="1.33333" stroke-miterlimit="8" fill="none" fill-rule="evenodd"/><rect x="51.5001" y="518" width="25.5" height="25.5" fill="#002060"/><path d="M77.0001 518 85.5001 509.5 85.5001 535 77.0001 543.5Z" fill="#001A4D" fill-rule="evenodd"/><path d="M51.5001 518 60.0001 509.5 85.5001 509.5 77.0001 518Z" fill="#324C7F" fill-rule="evenodd"/><path d="M51.5001 518 60.0001 509.5 85.5001 509.5 85.5001 535 77.0001 543.5 51.5001 543.5ZM51.5001 518 77.0001 518 85.5001 509.5M77.0001 518 77.0001 543.5" stroke="#2F528F" stroke-width="1.33333" stroke-miterlimit="8" fill="none" fill-rule="evenodd"/><rect x="52.5001" y="492" width="25.5" height="25.5" fill="#002060"/><path d="M78.0001 492 86.5001 483.5 86.5001 509 78.0001 517.5Z" fill="#001A4D" fill-rule="evenodd"/><path d="M52.5001 492 61.0001 483.5 86.5001 483.5 78.0001 492Z" fill="#324C7F" fill-rule="evenodd"/><path d="M52.5001 492 61.0001 483.5 86.5001 483.5 86.5001 509 78.0001 517.5 52.5001 517.5ZM52.5001 492 78.0001 492 86.5001 483.5M78.0001 492 78.0001 517.5" stroke="#2F528F" stroke-width="1.33333" stroke-miterlimit="8" fill="none" fill-rule="evenodd"/><rect x="59.5001" y="457" width="25.5" height="25.5" fill="#44546A"/><path d="M85.0001 457 93.5001 448.5 93.5001 474 85.0001 482.5Z" fill="#374455" fill-rule="evenodd"/><path d="M59.5001 457 68.0001 448.5 93.5001 448.5 85.0001 457Z" fill="#697687" fill-rule="evenodd"/><path d="M59.5001 457 68.0001 448.5 93.5001 448.5 93.5001 474 85.0001 482.5 59.5001 482.5ZM59.5001 457 85.0001 457 93.5001 448.5M85.0001 457 85.0001 482.5" stroke="#2F528F" stroke-width="1.33333" stroke-miterlimit="8" fill="none" fill-rule="evenodd"/><rect x="78.5001" y="490.5" width="26" height="27" stroke="#000000" stroke-linejoin="round" stroke-miterlimit="10" fill="none"/><rect x="78.5001" y="517.5" width="26" height="26" stroke="#000000" stroke-linejoin="round" stroke-miterlimit="10" fill="none"/><rect x="51.5001" y="543.5" width="27" height="27" stroke="#000000" stroke-linejoin="round" stroke-miterlimit="10" fill="none"/><rect x="78.5001" y="543.5" width="26" height="27" stroke="#000000" stroke-linejoin="round" stroke-miterlimit="10" fill="none"/><rect x="-1.50005" y="517.5" width="27.0001" height="26" stroke="#000000" stroke-linejoin="round" stroke-miterlimit="10" fill="none"/><rect x="25.5001" y="517.5" width="26" height="26" stroke="#000000" stroke-linejoin="round" stroke-miterlimit="10" fill="none"/><rect x="51.5001" y="517.5" width="26" height="26" stroke="#000000" stroke-linejoin="round" stroke-miterlimit="10" fill="none"/><rect x="51.5001" y="490.5" width="27" height="27" stroke="#000000" stroke-linejoin="round" stroke-miterlimit="10" fill="none"/><rect x="25.5001" y="490.5" width="27" height="26" stroke="#000000" stroke-linejoin="round" stroke-miterlimit="10" fill="none"/><rect x="-0.500053" y="465" width="25.5001" height="25.5001" fill="#002060"/><path d="M25 465 33.5 456.5 33.5 482 25 490.5Z" fill="#001A4D" fill-rule="evenodd"/><path d="M-0.500053 465 7.99997 456.5 33.5 456.5 25 465Z" fill="#324C7F" fill-rule="evenodd"/><path d="M-0.500053 465 7.99997 456.5 33.5 456.5 33.5 482 25 490.5-0.500053 490.5ZM-0.500053 465 25 465 33.5 456.5M25 465 25 490.5" stroke="#2F528F" stroke-width="1.33333" stroke-miterlimit="8" fill="none" fill-rule="evenodd"/><rect x="-1.50005" y="464.5" width="27.0001" height="26" stroke="#000000" stroke-linejoin="round" stroke-miterlimit="10" fill="none"/><rect x="26.5001" y="466" width="25.5" height="25.5" fill="#002060"/><path d="M52.0001 466 60.5001 457.5 60.5001 483 52.0001 491.5Z" fill="#001A4D" fill-rule="evenodd"/><path d="M26.5001 466 35.0001 457.5 60.5001 457.5 52.0001 466Z" fill="#324C7F" fill-rule="evenodd"/><path d="M26.5001 466 35.0001 457.5 60.5001 457.5 60.5001 483 52.0001 491.5 26.5001 491.5ZM26.5001 466 52.0001 466 60.5001 457.5M52.0001 466 52.0001 491.5" stroke="#2F528F" stroke-width="1.33333" stroke-miterlimit="8" fill="none" fill-rule="evenodd"/><rect x="52.5001" y="465" width="25.5" height="25.5" fill="#002060"/><path d="M78.0001 465 86.5001 456.5 86.5001 482 78.0001 490.5Z" fill="#001A4D" fill-rule="evenodd"/><path d="M52.5001 465 61.0001 456.5 86.5001 456.5 78.0001 465Z" fill="#324C7F" fill-rule="evenodd"/><path d="M52.5001 465 61.0001 456.5 86.5001 456.5 86.5001 482 78.0001 490.5 52.5001 490.5ZM52.5001 465 78.0001 465 86.5001 456.5M78.0001 465 78.0001 490.5" stroke="#2F528F" stroke-width="1.33333" stroke-miterlimit="8" fill="none" fill-rule="evenodd"/><rect x="-1.50005" y="490.5" width="27.0001" height="27" stroke="#000000" stroke-linejoin="round" stroke-miterlimit="10" fill="none"/><rect x="52.5001" y="464.5" width="26" height="26" stroke="#000000" stroke-linejoin="round" stroke-miterlimit="10" fill="none"/><rect x="25.5001" y="464.5" width="27" height="26" stroke="#000000" stroke-linejoin="round" stroke-miterlimit="10" fill="none"/><rect x="359.5" y="426.5" width="26" height="26" stroke="#000000" stroke-linejoin="round" stroke-miterlimit="10" fill="none"/><rect x="385.5" y="426.5" width="27" height="26" stroke="#000000" stroke-linejoin="round" stroke-miterlimit="10" fill="none"/><rect x="359.5" y="452.5" width="26" height="26" stroke="#000000" stroke-linejoin="round" stroke-miterlimit="10" fill="none"/><rect x="359.5" y="478.5" width="26" height="27" stroke="#000000" stroke-linejoin="round" stroke-miterlimit="10" fill="none"/><rect x="356.5" y="408" width="25.5" height="25.5" fill="#ED7D31"/><path d="M382 408 390.5 399.5 390.5 425 382 433.5Z" fill="#BF6427" fill-rule="evenodd"/><path d="M356.5 408 365 399.5 390.5 399.5 382 408Z" fill="#F19659" fill-rule="evenodd"/><path d="M356.5 408 365 399.5 390.5 399.5 390.5 425 382 433.5 356.5 433.5ZM356.5 408 382 408 390.5 399.5M382 408 382 433.5" stroke="#787878" stroke-width="1.33333" stroke-miterlimit="8" fill="none" fill-rule="evenodd"/><rect x="348.5" y="416" width="25.5" height="25.5" fill="#FFE699"/><path d="M374 416 382.5 407.5 382.5 433 374 441.5Z" fill="#CDB97B" fill-rule="evenodd"/><path d="M348.5 416 357 407.5 382.5 407.5 374 416Z" fill="#FFEBAD" fill-rule="evenodd"/><path d="M348.5 416 357 407.5 382.5 407.5 382.5 433 374 441.5 348.5 441.5ZM348.5 416 374 416 382.5 407.5M374 416 374 441.5" stroke="#41719C" stroke-width="1.33333" stroke-miterlimit="8" fill="none" fill-rule="evenodd"/><rect x="339.5" y="425" width="25.5" height="25.5" fill="#FFC000"/><path d="M365 425 373.5 416.5 373.5 442 365 450.5Z" fill="#CD9A00" fill-rule="evenodd"/><path d="M339.5 425 348 416.5 373.5 416.5 365 425Z" fill="#FFCC32" fill-rule="evenodd"/><path d="M339.5 425 348 416.5 373.5 416.5 373.5 442 365 450.5 339.5 450.5ZM339.5 425 365 425 373.5 416.5M365 425 365 450.5" stroke="#787878" stroke-width="1.33333" stroke-miterlimit="8" fill="none" fill-rule="evenodd"/><rect x="330.5" y="433" width="25.5" height="25.5" fill="#BF9000"/><path d="M356 433 364.5 424.5 364.5 450 356 458.5Z" fill="#9A7400" fill-rule="evenodd"/><path d="M330.5 433 339 424.5 364.5 424.5 356 433Z" fill="#CCA632" fill-rule="evenodd"/><path d="M330.5 433 339 424.5 364.5 424.5 364.5 450 356 458.5 330.5 458.5ZM330.5 433 356 433 364.5 424.5M356 433 356 458.5" stroke="#41719C" stroke-width="1.33333" stroke-miterlimit="8" fill="none" fill-rule="evenodd"/><rect x="321.5" y="442" width="25.5" height="25.5" fill="#385723"/><path d="M347 442 355.5 433.5 355.5 459 347 467.5Z" fill="#2D461C" fill-rule="evenodd"/><path d="M321.5 442 330 433.5 355.5 433.5 347 442Z" fill="#5F784E" fill-rule="evenodd"/><path d="M321.5 442 330 433.5 355.5 433.5 355.5 459 347 467.5 321.5 467.5ZM321.5 442 347 442 355.5 433.5M347 442 347 467.5" stroke="#507E32" stroke-width="1.33333" stroke-miterlimit="8" fill="none" fill-rule="evenodd"/><rect x="312.5" y="452" width="25.5" height="25.5" fill="#70AD47"/><path d="M338 452 346.5 443.5 346.5 469 338 477.5Z" fill="#5A8B39" fill-rule="evenodd"/><path d="M312.5 452 321 443.5 346.5 443.5 338 452Z" fill="#8CBD6B" fill-rule="evenodd"/><path d="M312.5 452 321 443.5 346.5 443.5 346.5 469 338 477.5 312.5 477.5ZM312.5 452 338 452 346.5 443.5M338 452 338 477.5" stroke="#2F528F" stroke-width="1.33333" stroke-miterlimit="8" fill="none" fill-rule="evenodd"/><rect x="304.5" y="460" width="25.5" height="25.5" fill="#A9D18E"/><path d="M330 460 338.5 451.5 338.5 477 330 485.5Z" fill="#88A872" fill-rule="evenodd"/><path d="M304.5 460 313 451.5 338.5 451.5 330 460Z" fill="#BADAA4" fill-rule="evenodd"/><path d="M304.5 460 313 451.5 338.5 451.5 338.5 477 330 485.5 304.5 485.5ZM304.5 460 330 460 338.5 451.5M330 460 330 485.5" stroke="#787878" stroke-width="1.33333" stroke-miterlimit="8" fill="none" fill-rule="evenodd"/><rect x="295.5" y="468" width="25.5" height="25.5" fill="#5B9BD5"/><path d="M321 468 329.5 459.5 329.5 485 321 493.5Z" fill="#497DAB" fill-rule="evenodd"/><path d="M295.5 468 304 459.5 329.5 459.5 321 468Z" fill="#7BAFDD" fill-rule="evenodd"/><path d="M295.5 468 304 459.5 329.5 459.5 329.5 485 321 493.5 295.5 493.5ZM295.5 468 321 468 329.5 459.5M321 468 321 493.5" stroke="#41719C" stroke-width="1.33333" stroke-miterlimit="8" fill="none" fill-rule="evenodd"/><rect x="285.5" y="477" width="25.5" height="25.5" fill="#4472C4"/><path d="M311 477 319.5 468.5 319.5 494 311 502.5Z" fill="#375C9E" fill-rule="evenodd"/><path d="M285.5 477 294 468.5 319.5 468.5 311 477Z" fill="#698ED0" fill-rule="evenodd"/><path d="M285.5 477 294 468.5 319.5 468.5 319.5 494 311 502.5 285.5 502.5ZM285.5 477 311 477 319.5 468.5M311 477 311 502.5" stroke="#41719C" stroke-width="1.33333" stroke-miterlimit="8" fill="none" fill-rule="evenodd"/><rect x="276.5" y="486" width="25.5" height="25.5" fill="#44546A"/><path d="M302 486 310.5 477.5 310.5 503 302 511.5Z" fill="#374455" fill-rule="evenodd"/><path d="M276.5 486 285 477.5 310.5 477.5 302 486Z" fill="#697687" fill-rule="evenodd"/><path d="M276.5 486 285 477.5 310.5 477.5 310.5 503 302 511.5 276.5 511.5ZM276.5 486 302 486 310.5 477.5M302 486 302 511.5" stroke="#2F528F" stroke-width="1.33333" stroke-miterlimit="8" fill="none" fill-rule="evenodd"/><rect x="407.5" y="459" width="25.5" height="25.5" fill="#ED7D31"/><path d="M433 459 441.5 450.5 441.5 476 433 484.5Z" fill="#BF6427" fill-rule="evenodd"/><path d="M407.5 459 416 450.5 441.5 450.5 433 459Z" fill="#F19659" fill-rule="evenodd"/><path d="M407.5 459 416 450.5 441.5 450.5 441.5 476 433 484.5 407.5 484.5ZM407.5 459 433 459 441.5 450.5M433 459 433 484.5" stroke="#787878" stroke-width="1.33333" stroke-miterlimit="8" fill="none" fill-rule="evenodd"/><rect x="407.5" y="434" width="25.5" height="25.5" fill="#ED7D31"/><path d="M433 434 441.5 425.5 441.5 451 433 459.5Z" fill="#BF6427" fill-rule="evenodd"/><path d="M407.5 434 416 425.5 441.5 425.5 433 434Z" fill="#F19659" fill-rule="evenodd"/><path d="M407.5 434 416 425.5 441.5 425.5 441.5 451 433 459.5 407.5 459.5ZM407.5 434 433 434 441.5 425.5M433 434 433 459.5" stroke="#787878" stroke-width="1.33333" stroke-miterlimit="8" fill="none" fill-rule="evenodd"/><rect x="381.5" y="408" width="25.5" height="25.5" fill="#ED7D31"/><path d="M407 408 415.5 399.5 415.5 425 407 433.5Z" fill="#BF6427" fill-rule="evenodd"/><path d="M381.5 408 390 399.5 415.5 399.5 407 408Z" fill="#F19659" fill-rule="evenodd"/><path d="M381.5 408 390 399.5 415.5 399.5 415.5 425 407 433.5 381.5 433.5ZM381.5 408 407 408 415.5 399.5M407 408 407 433.5" stroke="#787878" stroke-width="1.33333" stroke-miterlimit="8" fill="none" fill-rule="evenodd"/><rect x="407.5" y="408" width="25.5" height="25.5" fill="#ED7D31"/><path d="M433 408 441.5 399.5 441.5 425 433 433.5Z" fill="#BF6427" fill-rule="evenodd"/><path d="M407.5 408 416 399.5 441.5 399.5 433 408Z" fill="#F19659" fill-rule="evenodd"/><path d="M407.5 408 416 399.5 441.5 399.5 441.5 425 433 433.5 407.5 433.5ZM407.5 408 433 408 441.5 399.5M433 408 433 433.5" stroke="#787878" stroke-width="1.33333" stroke-miterlimit="8" fill="none" fill-rule="evenodd"/><rect x="372.5" y="417" width="25.5" height="25.5" fill="#FFE699"/><path d="M398 417 406.5 408.5 406.5 434 398 442.5Z" fill="#CDB97B" fill-rule="evenodd"/><path d="M372.5 417 381 408.5 406.5 408.5 398 417Z" fill="#FFEBAD" fill-rule="evenodd"/><path d="M372.5 417 381 408.5 406.5 408.5 406.5 434 398 442.5 372.5 442.5ZM372.5 417 398 417 406.5 408.5M398 417 398 442.5" stroke="#41719C" stroke-width="1.33333" stroke-miterlimit="8" fill="none" fill-rule="evenodd"/><rect x="398.5" y="468" width="25.5" height="25.5" fill="#FFE699"/><path d="M424 468 432.5 459.5 432.5 485 424 493.5Z" fill="#CDB97B" fill-rule="evenodd"/><path d="M398.5 468 407 459.5 432.5 459.5 424 468Z" fill="#FFEBAD" fill-rule="evenodd"/><path d="M398.5 468 407 459.5 432.5 459.5 432.5 485 424 493.5 398.5 493.5ZM398.5 468 424 468 432.5 459.5M424 468 424 493.5" stroke="#41719C" stroke-width="1.33333" stroke-miterlimit="8" fill="none" fill-rule="evenodd"/><rect x="398.5" y="442" width="25.5" height="25.5" fill="#FFE699"/><path d="M424 442 432.5 433.5 432.5 459 424 467.5Z" fill="#CDB97B" fill-rule="evenodd"/><path d="M398.5 442 407 433.5 432.5 433.5 424 442Z" fill="#FFEBAD" fill-rule="evenodd"/><path d="M398.5 442 407 433.5 432.5 433.5 432.5 459 424 467.5 398.5 467.5ZM398.5 442 424 442 432.5 433.5M424 442 424 467.5" stroke="#41719C" stroke-width="1.33333" stroke-miterlimit="8" fill="none" fill-rule="evenodd"/><rect x="397.5" y="416" width="25.5" height="25.5" fill="#FFE699"/><path d="M423 416 431.5 407.5 431.5 433 423 441.5Z" fill="#CDB97B" fill-rule="evenodd"/><path d="M397.5 416 406 407.5 431.5 407.5 423 416Z" fill="#FFEBAD" fill-rule="evenodd"/><path d="M397.5 416 406 407.5 431.5 407.5 431.5 433 423 441.5 397.5 441.5ZM397.5 416 423 416 431.5 407.5M423 416 423 441.5" stroke="#41719C" stroke-width="1.33333" stroke-miterlimit="8" fill="none" fill-rule="evenodd"/><rect x="390.5" y="475" width="25.5" height="25.5" fill="#FFC000"/><path d="M416 475 424.5 466.5 424.5 492 416 500.5Z" fill="#CD9A00" fill-rule="evenodd"/><path d="M390.5 475 399 466.5 424.5 466.5 416 475Z" fill="#FFCC32" fill-rule="evenodd"/><path d="M390.5 475 399 466.5 424.5 466.5 424.5 492 416 500.5 390.5 500.5ZM390.5 475 416 475 424.5 466.5M416 475 416 500.5" stroke="#787878" stroke-width="1.33333" stroke-miterlimit="8" fill="none" fill-rule="evenodd"/><rect x="364.5" y="425" width="25.5" height="25.5" fill="#FFC000"/><path d="M390 425 398.5 416.5 398.5 442 390 450.5Z" fill="#CD9A00" fill-rule="evenodd"/><path d="M364.5 425 373 416.5 398.5 416.5 390 425Z" fill="#FFCC32" fill-rule="evenodd"/><path d="M364.5 425 373 416.5 398.5 416.5 398.5 442 390 450.5 364.5 450.5ZM364.5 425 390 425 398.5 416.5M390 425 390 450.5" stroke="#787878" stroke-width="1.33333" stroke-miterlimit="8" fill="none" fill-rule="evenodd"/><rect x="389.5" y="450" width="25.5" height="25.5" fill="#FFC000"/><path d="M415 450 423.5 441.5 423.5 467 415 475.5Z" fill="#CD9A00" fill-rule="evenodd"/><path d="M389.5 450 398 441.5 423.5 441.5 415 450Z" fill="#FFCC32" fill-rule="evenodd"/><path d="M389.5 450 398 441.5 423.5 441.5 423.5 467 415 475.5 389.5 475.5ZM389.5 450 415 450 423.5 441.5M415 450 415 475.5" stroke="#787878" stroke-width="1.33333" stroke-miterlimit="8" fill="none" fill-rule="evenodd"/><rect x="389.5" y="425" width="25.5" height="25.5" fill="#FFC000"/><path d="M415 425 423.5 416.5 423.5 442 415 450.5Z" fill="#CD9A00" fill-rule="evenodd"/><path d="M389.5 425 398 416.5 423.5 416.5 415 425Z" fill="#FFCC32" fill-rule="evenodd"/><path d="M389.5 425 398 416.5 423.5 416.5 423.5 442 415 450.5 389.5 450.5ZM389.5 425 415 425 423.5 416.5M415 425 415 450.5" stroke="#787878" stroke-width="1.33333" stroke-miterlimit="8" fill="none" fill-rule="evenodd"/><rect x="355.5" y="433" width="25.5" height="25.5" fill="#BF9000"/><path d="M381 433 389.5 424.5 389.5 450 381 458.5Z" fill="#9A7400" fill-rule="evenodd"/><path d="M355.5 433 364 424.5 389.5 424.5 381 433Z" fill="#CCA632" fill-rule="evenodd"/><path d="M355.5 433 364 424.5 389.5 424.5 389.5 450 381 458.5 355.5 458.5ZM355.5 433 381 433 389.5 424.5M381 433 381 458.5" stroke="#41719C" stroke-width="1.33333" stroke-miterlimit="8" fill="none" fill-rule="evenodd"/><rect x="381.5" y="484" width="25.5" height="25.5" fill="#BF9000"/><path d="M407 484 415.5 475.5 415.5 501 407 509.5Z" fill="#9A7400" fill-rule="evenodd"/><path d="M381.5 484 390 475.5 415.5 475.5 407 484Z" fill="#CCA632" fill-rule="evenodd"/><path d="M381.5 484 390 475.5 415.5 475.5 415.5 501 407 509.5 381.5 509.5ZM381.5 484 407 484 415.5 475.5M407 484 407 509.5" stroke="#41719C" stroke-width="1.33333" stroke-miterlimit="8" fill="none" fill-rule="evenodd"/><rect x="380.5" y="460" width="25.5" height="25.5" fill="#BF9000"/><path d="M406 460 414.5 451.5 414.5 477 406 485.5Z" fill="#9A7400" fill-rule="evenodd"/><path d="M380.5 460 389 451.5 414.5 451.5 406 460Z" fill="#CCA632" fill-rule="evenodd"/><path d="M380.5 460 389 451.5 414.5 451.5 414.5 477 406 485.5 380.5 485.5ZM380.5 460 406 460 414.5 451.5M406 460 406 485.5" stroke="#41719C" stroke-width="1.33333" stroke-miterlimit="8" fill="none" fill-rule="evenodd"/><rect x="381.5" y="433" width="25.5" height="25.5" fill="#BF9000"/><path d="M407 433 415.5 424.5 415.5 450 407 458.5Z" fill="#9A7400" fill-rule="evenodd"/><path d="M381.5 433 390 424.5 415.5 424.5 407 433Z" fill="#CCA632" fill-rule="evenodd"/><path d="M381.5 433 390 424.5 415.5 424.5 415.5 450 407 458.5 381.5 458.5ZM381.5 433 407 433 415.5 424.5M407 433 407 458.5" stroke="#41719C" stroke-width="1.33333" stroke-miterlimit="8" fill="none" fill-rule="evenodd"/><rect x="344.5" y="442" width="26.5" height="25.4999" fill="#385723"/><path d="M371 442 379.5 433.5 379.5 459 371 467.5Z" fill="#2D461C" fill-rule="evenodd"/><path d="M344.5 442 353 433.5 379.5 433.5 371 442Z" fill="#5F784E" fill-rule="evenodd"/><path d="M344.5 442 353 433.5 379.5 433.5 379.5 459 371 467.5 344.5 467.5ZM344.5 442 371 442 379.5 433.5M371 442 371 467.5" stroke="#507E32" stroke-width="1.33333" stroke-miterlimit="8" fill="none" fill-rule="evenodd"/><rect x="372.5" y="493" width="25.5" height="25.5" fill="#385723"/><path d="M398 493 406.5 484.5 406.5 510 398 518.5Z" fill="#2D461C" fill-rule="evenodd"/><path d="M372.5 493 381 484.5 406.5 484.5 398 493Z" fill="#5F784E" fill-rule="evenodd"/><path d="M372.5 493 381 484.5 406.5 484.5 406.5 510 398 518.5 372.5 518.5ZM372.5 493 398 493 406.5 484.5M398 493 398 518.5" stroke="#507E32" stroke-width="1.33333" stroke-miterlimit="8" fill="none" fill-rule="evenodd"/><rect x="371.5" y="469" width="25.5" height="25.5" fill="#385723"/><path d="M397 469 405.5 460.5 405.5 486 397 494.5Z" fill="#2D461C" fill-rule="evenodd"/><path d="M371.5 469 380 460.5 405.5 460.5 397 469Z" fill="#5F784E" fill-rule="evenodd"/><path d="M371.5 469 380 460.5 405.5 460.5 405.5 486 397 494.5 371.5 494.5ZM371.5 469 397 469 405.5 460.5M397 469 397 494.5" stroke="#507E32" stroke-width="1.33333" stroke-miterlimit="8" fill="none" fill-rule="evenodd"/><rect x="371.5" y="443" width="25.5" height="25.5" fill="#385723"/><path d="M397 443 405.5 434.5 405.5 460 397 468.5Z" fill="#2D461C" fill-rule="evenodd"/><path d="M371.5 443 380 434.5 405.5 434.5 397 443Z" fill="#5F784E" fill-rule="evenodd"/><path d="M371.5 443 380 434.5 405.5 434.5 405.5 460 397 468.5 371.5 468.5ZM371.5 443 397 443 405.5 434.5M397 443 397 468.5" stroke="#507E32" stroke-width="1.33333" stroke-miterlimit="8" fill="none" fill-rule="evenodd"/><rect x="363.5" y="502" width="25.5" height="25.5" fill="#70AD47"/><path d="M389 502 397.5 493.5 397.5 519 389 527.5Z" fill="#5A8B39" fill-rule="evenodd"/><path d="M363.5 502 372 493.5 397.5 493.5 389 502Z" fill="#8CBD6B" fill-rule="evenodd"/><path d="M363.5 502 372 493.5 397.5 493.5 397.5 519 389 527.5 363.5 527.5ZM363.5 502 389 502 397.5 493.5M389 502 389 527.5" stroke="#2F528F" stroke-width="1.33333" stroke-miterlimit="8" fill="none" fill-rule="evenodd"/><rect x="320.5" y="491.5" width="26" height="26" stroke="#000000" stroke-linejoin="round" stroke-miterlimit="10" fill="none"/><rect x="293.5" y="517.5" width="27" height="27" stroke="#000000" stroke-linejoin="round" stroke-miterlimit="10" fill="none"/><rect x="338.5" y="451" width="25.5" height="25.5" fill="#70AD47"/><path d="M364 451 372.5 442.5 372.5 468 364 476.5Z" fill="#5A8B39" fill-rule="evenodd"/><path d="M338.5 451 347 442.5 372.5 442.5 364 451Z" fill="#8CBD6B" fill-rule="evenodd"/><path d="M338.5 451 347 442.5 372.5 442.5 372.5 468 364 476.5 338.5 476.5ZM338.5 451 364 451 372.5 442.5M364 451 364 476.5" stroke="#2F528F" stroke-width="1.33333" stroke-miterlimit="8" fill="none" fill-rule="evenodd"/><rect x="363.5" y="477" width="25.5" height="25.5" fill="#70AD47"/><path d="M389 477 397.5 468.5 397.5 494 389 502.5Z" fill="#5A8B39" fill-rule="evenodd"/><path d="M363.5 477 372 468.5 397.5 468.5 389 477Z" fill="#8CBD6B" fill-rule="evenodd"/><path d="M363.5 477 372 468.5 397.5 468.5 397.5 494 389 502.5 363.5 502.5ZM363.5 477 389 477 397.5 468.5M389 477 389 502.5" stroke="#2F528F" stroke-width="1.33333" stroke-miterlimit="8" fill="none" fill-rule="evenodd"/><rect x="363.5" y="451" width="25.5" height="25.5" fill="#70AD47"/><path d="M389 451 397.5 442.5 397.5 468 389 476.5Z" fill="#5A8B39" fill-rule="evenodd"/><path d="M363.5 451 372 442.5 397.5 442.5 389 451Z" fill="#8CBD6B" fill-rule="evenodd"/><path d="M363.5 451 372 442.5 397.5 442.5 397.5 468 389 476.5 363.5 476.5ZM363.5 451 389 451 397.5 442.5M389 451 389 476.5" stroke="#2F528F" stroke-width="1.33333" stroke-miterlimit="8" fill="none" fill-rule="evenodd"/><rect x="329.5" y="460" width="25.5" height="25.5" fill="#A9D18E"/><path d="M355 460 363.5 451.5 363.5 477 355 485.5Z" fill="#88A872" fill-rule="evenodd"/><path d="M329.5 460 338 451.5 363.5 451.5 355 460Z" fill="#BADAA4" fill-rule="evenodd"/><path d="M329.5 460 338 451.5 363.5 451.5 363.5 477 355 485.5 329.5 485.5ZM329.5 460 355 460 363.5 451.5M355 460 355 485.5" stroke="#787878" stroke-width="1.33333" stroke-miterlimit="8" fill="none" fill-rule="evenodd"/><rect x="354.5" y="511" width="25.5" height="25.5" fill="#A9D18E"/><path d="M380 511 388.5 502.5 388.5 528 380 536.5Z" fill="#88A872" fill-rule="evenodd"/><path d="M354.5 511 363 502.5 388.5 502.5 380 511Z" fill="#BADAA4" fill-rule="evenodd"/><path d="M354.5 511 363 502.5 388.5 502.5 388.5 528 380 536.5 354.5 536.5ZM354.5 511 380 511 388.5 502.5M380 511 380 536.5" stroke="#787878" stroke-width="1.33333" stroke-miterlimit="8" fill="none" fill-rule="evenodd"/><rect x="354.5" y="485" width="25.5" height="25.5" fill="#A9D18E"/><path d="M380 485 388.5 476.5 388.5 502 380 510.5Z" fill="#88A872" fill-rule="evenodd"/><path d="M354.5 485 363 476.5 388.5 476.5 380 485Z" fill="#BADAA4" fill-rule="evenodd"/><path d="M354.5 485 363 476.5 388.5 476.5 388.5 502 380 510.5 354.5 510.5ZM354.5 485 380 485 388.5 476.5M380 485 380 510.5" stroke="#787878" stroke-width="1.33333" stroke-miterlimit="8" fill="none" fill-rule="evenodd"/><rect x="354.5" y="460" width="25.5" height="25.5" fill="#A9D18E"/><path d="M380 460 388.5 451.5 388.5 477 380 485.5Z" fill="#88A872" fill-rule="evenodd"/><path d="M354.5 460 363 451.5 388.5 451.5 380 460Z" fill="#BADAA4" fill-rule="evenodd"/><path d="M354.5 460 363 451.5 388.5 451.5 388.5 477 380 485.5 354.5 485.5ZM354.5 460 380 460 388.5 451.5M380 460 380 485.5" stroke="#787878" stroke-width="1.33333" stroke-miterlimit="8" fill="none" fill-rule="evenodd"/><rect x="321.5" y="469" width="25.5" height="25.5" fill="#5B9BD5"/><path d="M347 469 355.5 460.5 355.5 486 347 494.5Z" fill="#497DAB" fill-rule="evenodd"/><path d="M321.5 469 330 460.5 355.5 460.5 347 469Z" fill="#7BAFDD" fill-rule="evenodd"/><path d="M321.5 469 330 460.5 355.5 460.5 355.5 486 347 494.5 321.5 494.5ZM321.5 469 347 469 355.5 460.5M347 469 347 494.5" stroke="#41719C" stroke-width="1.33333" stroke-miterlimit="8" fill="none" fill-rule="evenodd"/><rect x="345.5" y="520" width="25.5" height="25.5" fill="#5B9BD5"/><path d="M371 520 379.5 511.5 379.5 537 371 545.5Z" fill="#497DAB" fill-rule="evenodd"/><path d="M345.5 520 354 511.5 379.5 511.5 371 520Z" fill="#7BAFDD" fill-rule="evenodd"/><path d="M345.5 520 354 511.5 379.5 511.5 379.5 537 371 545.5 345.5 545.5ZM345.5 520 371 520 379.5 511.5M371 520 371 545.5" stroke="#41719C" stroke-width="1.33333" stroke-miterlimit="8" fill="none" fill-rule="evenodd"/><rect x="345.5" y="494" width="25.5" height="25.5" fill="#5B9BD5"/><path d="M371 494 379.5 485.5 379.5 511 371 519.5Z" fill="#497DAB" fill-rule="evenodd"/><path d="M345.5 494 354 485.5 379.5 485.5 371 494Z" fill="#7BAFDD" fill-rule="evenodd"/><path d="M345.5 494 354 485.5 379.5 485.5 379.5 511 371 519.5 345.5 519.5ZM345.5 494 371 494 379.5 485.5M371 494 371 519.5" stroke="#41719C" stroke-width="1.33333" stroke-miterlimit="8" fill="none" fill-rule="evenodd"/><rect x="345.5" y="468" width="25.5" height="25.5" fill="#5B9BD5"/><path d="M371 468 379.5 459.5 379.5 485 371 493.5Z" fill="#497DAB" fill-rule="evenodd"/><path d="M345.5 468 354 459.5 379.5 459.5 371 468Z" fill="#7BAFDD" fill-rule="evenodd"/><path d="M345.5 468 354 459.5 379.5 459.5 379.5 485 371 493.5 345.5 493.5ZM345.5 468 371 468 379.5 459.5M371 468 371 493.5" stroke="#41719C" stroke-width="1.33333" stroke-miterlimit="8" fill="none" fill-rule="evenodd"/><rect x="310.5" y="477" width="25.5" height="25.5" fill="#4472C4"/><path d="M336 477 344.5 468.5 344.5 494 336 502.5Z" fill="#375C9E" fill-rule="evenodd"/><path d="M310.5 477 319 468.5 344.5 468.5 336 477Z" fill="#698ED0" fill-rule="evenodd"/><path d="M310.5 477 319 468.5 344.5 468.5 344.5 494 336 502.5 310.5 502.5ZM310.5 477 336 477 344.5 468.5M336 477 336 502.5" stroke="#41719C" stroke-width="1.33333" stroke-miterlimit="8" fill="none" fill-rule="evenodd"/><rect x="338.5" y="527" width="25.5" height="25.5" fill="#4472C4"/><path d="M364 527 372.5 518.5 372.5 544 364 552.5Z" fill="#375C9E" fill-rule="evenodd"/><path d="M338.5 527 347 518.5 372.5 518.5 364 527Z" fill="#698ED0" fill-rule="evenodd"/><path d="M338.5 527 347 518.5 372.5 518.5 372.5 544 364 552.5 338.5 552.5ZM338.5 527 364 527 372.5 518.5M364 527 364 552.5" stroke="#41719C" stroke-width="1.33333" stroke-miterlimit="8" fill="none" fill-rule="evenodd"/><rect x="329.5" y="536" width="25.5" height="25.5" fill="#44546A"/><path d="M355 536 363.5 527.5 363.5 553 355 561.5Z" fill="#374455" fill-rule="evenodd"/><path d="M329.5 536 338 527.5 363.5 527.5 355 536Z" fill="#697687" fill-rule="evenodd"/><path d="M329.5 536 338 527.5 363.5 527.5 363.5 553 355 561.5 329.5 561.5ZM329.5 536 355 536 363.5 527.5M355 536 355 561.5" stroke="#2F528F" stroke-width="1.33333" stroke-miterlimit="8" fill="none" fill-rule="evenodd"/><rect x="338.5" y="500" width="25.5" height="25.5" fill="#4472C4"/><path d="M364 500 372.5 491.5 372.5 517 364 525.5Z" fill="#375C9E" fill-rule="evenodd"/><path d="M338.5 500 347 491.5 372.5 491.5 364 500Z" fill="#698ED0" fill-rule="evenodd"/><path d="M338.5 500 347 491.5 372.5 491.5 372.5 517 364 525.5 338.5 525.5ZM338.5 500 364 500 372.5 491.5M364 500 364 525.5" stroke="#41719C" stroke-width="1.33333" stroke-miterlimit="8" fill="none" fill-rule="evenodd"/><rect x="337.5" y="477" width="25.5" height="25.5" fill="#4472C4"/><path d="M363 477 371.5 468.5 371.5 494 363 502.5Z" fill="#375C9E" fill-rule="evenodd"/><path d="M337.5 477 346 468.5 371.5 468.5 363 477Z" fill="#698ED0" fill-rule="evenodd"/><path d="M337.5 477 346 468.5 371.5 468.5 371.5 494 363 502.5 337.5 502.5ZM337.5 477 363 477 371.5 468.5M363 477 363 502.5" stroke="#41719C" stroke-width="1.33333" stroke-miterlimit="8" fill="none" fill-rule="evenodd"/><rect x="302.5" y="486" width="25.5" height="25.5" fill="#44546A"/><path d="M328 486 336.5 477.5 336.5 503 328 511.5Z" fill="#374455" fill-rule="evenodd"/><path d="M302.5 486 311 477.5 336.5 477.5 328 486Z" fill="#697687" fill-rule="evenodd"/><path d="M302.5 486 311 477.5 336.5 477.5 336.5 503 328 511.5 302.5 511.5ZM302.5 486 328 486 336.5 477.5M328 486 328 511.5" stroke="#2F528F" stroke-width="1.33333" stroke-miterlimit="8" fill="none" fill-rule="evenodd"/><rect x="329.5" y="509" width="25.5" height="25.5" fill="#44546A"/><path d="M355 509 363.5 500.5 363.5 526 355 534.5Z" fill="#374455" fill-rule="evenodd"/><path d="M329.5 509 338 500.5 363.5 500.5 355 509Z" fill="#697687" fill-rule="evenodd"/><path d="M329.5 509 338 500.5 363.5 500.5 363.5 526 355 534.5 329.5 534.5ZM329.5 509 355 509 363.5 500.5M355 509 355 534.5" stroke="#2F528F" stroke-width="1.33333" stroke-miterlimit="8" fill="none" fill-rule="evenodd"/><rect x="267.5" y="545" width="25.5" height="25.5" fill="#002060"/><path d="M293 545 301.5 536.5 301.5 562 293 570.5Z" fill="#001A4D" fill-rule="evenodd"/><path d="M267.5 545 276 536.5 301.5 536.5 293 545Z" fill="#324C7F" fill-rule="evenodd"/><path d="M267.5 545 276 536.5 301.5 536.5 301.5 562 293 570.5 267.5 570.5ZM267.5 545 293 545 301.5 536.5M293 545 293 570.5" stroke="#2F528F" stroke-width="1.33333" stroke-miterlimit="8" fill="none" fill-rule="evenodd"/><rect x="293.5" y="545" width="25.5" height="25.5" fill="#002060"/><path d="M319 545 327.5 536.5 327.5 562 319 570.5Z" fill="#001A4D" fill-rule="evenodd"/><path d="M293.5 545 302 536.5 327.5 536.5 319 545Z" fill="#324C7F" fill-rule="evenodd"/><path d="M293.5 545 302 536.5 327.5 536.5 327.5 562 319 570.5 293.5 570.5ZM293.5 545 319 545 327.5 536.5M319 545 319 570.5" stroke="#2F528F" stroke-width="1.33333" stroke-miterlimit="8" fill="none" fill-rule="evenodd"/><rect x="267.5" y="518" width="25.5" height="25.5" fill="#002060"/><path d="M293 518 301.5 509.5 301.5 535 293 543.5Z" fill="#001A4D" fill-rule="evenodd"/><path d="M267.5 518 276 509.5 301.5 509.5 293 518Z" fill="#324C7F" fill-rule="evenodd"/><path d="M267.5 518 276 509.5 301.5 509.5 301.5 535 293 543.5 267.5 543.5ZM267.5 518 293 518 301.5 509.5M293 518 293 543.5" stroke="#2F528F" stroke-width="1.33333" stroke-miterlimit="8" fill="none" fill-rule="evenodd"/><rect x="293.5" y="518" width="26.5" height="25.4999" fill="#002060"/><path d="M320 518 328.5 509.5 328.5 535 320 543.5Z" fill="#001A4D" fill-rule="evenodd"/><path d="M293.5 518 302 509.5 328.5 509.5 320 518Z" fill="#324C7F" fill-rule="evenodd"/><path d="M293.5 518 302 509.5 328.5 509.5 328.5 535 320 543.5 293.5 543.5ZM293.5 518 320 518 328.5 509.5M320 518 320 543.5" stroke="#2F528F" stroke-width="1.33333" stroke-miterlimit="8" fill="none" fill-rule="evenodd"/><rect x="320.5" y="545" width="25.5" height="25.5" fill="#002060"/><path d="M346 545 354.5 536.5 354.5 562 346 570.5Z" fill="#001A4D" fill-rule="evenodd"/><path d="M320.5 545 329 536.5 354.5 536.5 346 545Z" fill="#324C7F" fill-rule="evenodd"/><path d="M320.5 545 329 536.5 354.5 536.5 354.5 562 346 570.5 320.5 570.5ZM320.5 545 346 545 354.5 536.5M346 545 346 570.5" stroke="#2F528F" stroke-width="1.33333" stroke-miterlimit="8" fill="none" fill-rule="evenodd"/><rect x="320.5" y="519" width="25.5" height="25.5" fill="#002060"/><path d="M346 519 354.5 510.5 354.5 536 346 544.5Z" fill="#001A4D" fill-rule="evenodd"/><path d="M320.5 519 329 510.5 354.5 510.5 346 519Z" fill="#324C7F" fill-rule="evenodd"/><path d="M320.5 519 329 510.5 354.5 510.5 354.5 536 346 544.5 320.5 544.5ZM320.5 519 346 519 354.5 510.5M346 519 346 544.5" stroke="#2F528F" stroke-width="1.33333" stroke-miterlimit="8" fill="none" fill-rule="evenodd"/><rect x="328.5" y="486" width="25.5" height="25.5" fill="#44546A"/><path d="M354 486 362.5 477.5 362.5 503 354 511.5Z" fill="#374455" fill-rule="evenodd"/><path d="M328.5 486 337 477.5 362.5 477.5 354 486Z" fill="#697687" fill-rule="evenodd"/><path d="M328.5 486 337 477.5 362.5 477.5 362.5 503 354 511.5 328.5 511.5ZM328.5 486 354 486 362.5 477.5M354 486 354 511.5" stroke="#2F528F" stroke-width="1.33333" stroke-miterlimit="8" fill="none" fill-rule="evenodd"/><rect x="267.5" y="495" width="25.5" height="25.5" fill="#002060"/><path d="M293 495 301.5 486.5 301.5 512 293 520.5Z" fill="#001A4D" fill-rule="evenodd"/><path d="M267.5 495 276 486.5 301.5 486.5 293 495Z" fill="#324C7F" fill-rule="evenodd"/><path d="M267.5 495 276 486.5 301.5 486.5 301.5 512 293 520.5 267.5 520.5ZM267.5 495 293 495 301.5 486.5M293 495 293 520.5" stroke="#2F528F" stroke-width="1.33333" stroke-miterlimit="8" fill="none" fill-rule="evenodd"/><rect x="294.5" y="495" width="25.5" height="25.5" fill="#002060"/><path d="M320 495 328.5 486.5 328.5 512 320 520.5Z" fill="#001A4D" fill-rule="evenodd"/><path d="M294.5 495 303 486.5 328.5 486.5 320 495Z" fill="#324C7F" fill-rule="evenodd"/><path d="M294.5 495 303 486.5 328.5 486.5 328.5 512 320 520.5 294.5 520.5ZM294.5 495 320 495 328.5 486.5M320 495 320 520.5" stroke="#2F528F" stroke-width="1.33333" stroke-miterlimit="8" fill="none" fill-rule="evenodd"/><rect x="320.5" y="495" width="25.5" height="25.5" fill="#002060"/><path d="M346 495 354.5 486.5 354.5 512 346 520.5Z" fill="#001A4D" fill-rule="evenodd"/><path d="M320.5 495 329 486.5 354.5 486.5 346 495Z" fill="#324C7F" fill-rule="evenodd"/><path d="M320.5 495 329 486.5 354.5 486.5 354.5 512 346 520.5 320.5 520.5ZM320.5 495 346 495 354.5 486.5M346 495 346 520.5" stroke="#2F528F" stroke-width="1.33333" stroke-miterlimit="8" fill="none" fill-rule="evenodd"/><rect x="78.5001" y="464.5" width="26" height="26" stroke="#000000" stroke-linejoin="round" stroke-miterlimit="10" fill="none"/><path d="M0 0 91.1094 92.1457" stroke="#000000" stroke-width="2" stroke-miterlimit="8" fill="none" fill-rule="evenodd" transform="matrix(1 0 0 -1 104 570.146)"/><path d="M0 0 90.8259 91.6003" stroke="#000000" stroke-width="2" stroke-miterlimit="8" fill="none" fill-rule="evenodd" transform="matrix(1 0 0 -1 104 464.6)"/><text font-family="Calibri,Calibri_MSFontService,sans-serif" font-weight="400" font-size="24" transform="translate(557.984 320)">Depthwise<tspan x="109.393" y="0">FM</tspan><tspan x="-245.839" y="0">Depthwise</tspan><tspan x="-136.446" y="0">kernel</tspan></text><path d="M242.5 408.5C242.5 402.425 247.649 397.5 254 397.5 260.351 397.5 265.5 402.425 265.5 408.5 265.5 414.575 260.351 419.5 254 419.5 247.649 419.5 242.5 414.575 242.5 408.5Z" stroke="#000000" stroke-linejoin="round" stroke-miterlimit="10" fill="none" fill-rule="evenodd"/><text font-family="Cambria Math,Cambria Math_MSFontService,sans-serif" font-weight="400" font-size="21" transform="translate(248.383 416)"></text><path d="M502.5 403 548.5 403 548.5 397.5 559.5 408.5 548.5 419.5 548.5 414 502.5 414Z" stroke="#000000" stroke-width="1.33333" stroke-miterlimit="8" fill-rule="evenodd"/><path d="M720.5 409C720.5 402.649 725.425 397.5 731.5 397.5 737.575 397.5 742.5 402.649 742.5 409 742.5 415.351 737.575 420.5 731.5 420.5 725.425 420.5 720.5 415.351 720.5 409Z" stroke="#000000" stroke-linejoin="round" stroke-miterlimit="10" fill="none" fill-rule="evenodd"/><text font-family="Cambria Math,Cambria Math_MSFontService,sans-serif" font-weight="400" font-size="21" transform="translate(725.85 416)"></text><rect x="840.5" y="376" width="28.5" height="25.5" fill="#FF0000"/><path d="M869 376 877.5 367.5 877.5 393 869 401.5Z" fill="#CD0000" fill-rule="evenodd"/><path d="M840.5 376 849 367.5 877.5 367.5 869 376Z" fill="#FF3232" fill-rule="evenodd"/><path d="M840.5 376 849 367.5 877.5 367.5 877.5 393 869 401.5 840.5 401.5ZM840.5 376 869 376 877.5 367.5M869 376 869 401.5" stroke="#C00000" stroke-width="1.33333" stroke-miterlimit="8" fill="none" fill-rule="evenodd"/><rect x="831.5" y="385" width="29.5" height="25.5" fill="#FF0000"/><path d="M861 385 869.5 376.5 869.5 402 861 410.5Z" fill="#CD0000" fill-rule="evenodd"/><path d="M831.5 385 840 376.5 869.5 376.5 861 385Z" fill="#FF3232" fill-rule="evenodd"/><path d="M831.5 385 840 376.5 869.5 376.5 869.5 402 861 410.5 831.5 410.5ZM831.5 385 861 385 869.5 376.5M861 385 861 410.5" stroke="#C00000" stroke-width="1.33333" stroke-miterlimit="8" fill="none" fill-rule="evenodd"/><rect x="833.5" y="427" width="29.5" height="25.5" fill="#CC00CC"/><path d="M863 427 871.5 418.5 871.5 444 863 452.5Z" fill="#A400A4" fill-rule="evenodd"/><path d="M833.5 427 842 418.5 871.5 418.5 863 427Z" fill="#D632D6" fill-rule="evenodd"/><path d="M833.5 427 842 418.5 871.5 418.5 871.5 444 863 452.5 833.5 452.5ZM833.5 427 863 427 871.5 418.5M863 427 863 452.5" stroke="#C00000" stroke-width="1.33333" stroke-miterlimit="8" fill="none" fill-rule="evenodd"/><rect x="825.5" y="436" width="29.5" height="25.5" fill="#CC00CC"/><path d="M855 436 863.5 427.5 863.5 453 855 461.5Z" fill="#A400A4" fill-rule="evenodd"/><path d="M825.5 436 834 427.5 863.5 427.5 855 436Z" fill="#D632D6" fill-rule="evenodd"/><path d="M825.5 436 834 427.5 863.5 427.5 863.5 453 855 461.5 825.5 461.5ZM825.5 436 855 436 863.5 427.5M855 436 855 461.5" stroke="#C00000" stroke-width="1.33333" stroke-miterlimit="8" fill="none" fill-rule="evenodd"/><rect x="834.5" y="479" width="29.5" height="25.5" fill="#CC3300"/><path d="M864 479 872.5 470.5 872.5 496 864 504.5Z" fill="#A42900" fill-rule="evenodd"/><path d="M834.5 479 843 470.5 872.5 470.5 864 479Z" fill="#D65B32" fill-rule="evenodd"/><path d="M834.5 479 843 470.5 872.5 470.5 872.5 496 864 504.5 834.5 504.5ZM834.5 479 864 479 872.5 470.5M864 479 864 504.5" stroke="#C00000" stroke-width="1.33333" stroke-miterlimit="8" fill="none" fill-rule="evenodd"/><rect x="825.5" y="487" width="29.5" height="25.5" fill="#CC3300"/><path d="M855 487 863.5 478.5 863.5 504 855 512.5Z" fill="#A42900" fill-rule="evenodd"/><path d="M825.5 487 834 478.5 863.5 478.5 855 487Z" fill="#D65B32" fill-rule="evenodd"/><path d="M825.5 487 834 478.5 863.5 478.5 863.5 504 855 512.5 825.5 512.5ZM825.5 487 855 487 863.5 478.5M855 487 855 512.5" stroke="#C00000" stroke-width="1.33333" stroke-miterlimit="8" fill="none" fill-rule="evenodd"/><path d="M986.5 405 1032.5 405 1032.5 399.5 1043.5 410.5 1032.5 421.5 1032.5 416 986.5 416Z" stroke="#000000" stroke-width="1.33333" stroke-miterlimit="8" fill-rule="evenodd"/><text font-family="Calibri,Calibri_MSFontService,sans-serif" font-weight="400" font-size="24" transform="translate(763.69 320)">Pointwise<tspan x="99.9667" y="0">kernel</tspan><tspan x="330.167" y="1">Output FM</tspan></text><rect x="1117.5" y="390" width="25.5" height="25.5" fill="#CC3300"/><path d="M1143 390 1151.5 381.5 1151.5 407 1143 415.5Z" fill="#A42900" fill-rule="evenodd"/><path d="M1117.5 390 1126 381.5 1151.5 381.5 1143 390Z" fill="#D65B32" fill-rule="evenodd"/><path d="M1117.5 390 1126 381.5 1151.5 381.5 1151.5 407 1143 415.5 1117.5 415.5ZM1117.5 390 1143 390 1151.5 381.5M1143 390 1143 415.5" stroke="#C00000" stroke-width="1.33333" stroke-miterlimit="8" fill="none" fill-rule="evenodd"/><rect x="1108.5" y="399" width="25.5" height="25.5" fill="#CC00CC"/><path d="M1134 399 1142.5 390.5 1142.5 416 1134 424.5Z" fill="#A400A4" fill-rule="evenodd"/><path d="M1108.5 399 1117 390.5 1142.5 390.5 1134 399Z" fill="#D632D6" fill-rule="evenodd"/><path d="M1108.5 399 1117 390.5 1142.5 390.5 1142.5 416 1134 424.5 1108.5 424.5ZM1108.5 399 1134 399 1142.5 390.5M1134 399 1134 424.5" stroke="#C00000" stroke-width="1.33333" stroke-miterlimit="8" fill="none" fill-rule="evenodd"/><rect x="1151.5" y="380.5" width="26" height="27" stroke="#000000" stroke-linejoin="round" stroke-miterlimit="10" fill="none"/><rect x="1099.5" y="408" width="25.5" height="25.5" fill="#FF0000"/><path d="M1125 408 1133.5 399.5 1133.5 425 1125 433.5Z" fill="#CD0000" fill-rule="evenodd"/><path d="M1099.5 408 1108 399.5 1133.5 399.5 1125 408Z" fill="#FF3232" fill-rule="evenodd"/><path d="M1099.5 408 1108 399.5 1133.5 399.5 1133.5 425 1125 433.5 1099.5 433.5ZM1099.5 408 1125 408 1133.5 399.5M1125 408 1125 433.5" stroke="#C00000" stroke-width="1.33333" stroke-miterlimit="8" fill="none" fill-rule="evenodd"/><rect x="1177.5" y="380.5" width="27" height="27" stroke="#000000" stroke-linejoin="round" stroke-miterlimit="10" fill="none"/><rect x="1151.5" y="406.5" width="27" height="27" stroke="#000000" stroke-linejoin="round" stroke-miterlimit="10" fill="none"/><rect x="1177.5" y="407.5" width="27" height="26" stroke="#000000" stroke-linejoin="round" stroke-miterlimit="10" fill="none"/><rect x="1124.5" y="433.5" width="27" height="27" stroke="#000000" stroke-linejoin="round" stroke-miterlimit="10" fill="none"/><rect x="1151.5" y="433.5" width="26" height="27" stroke="#000000" stroke-linejoin="round" stroke-miterlimit="10" fill="none"/><rect x="1177.5" y="433.5" width="27" height="27" stroke="#000000" stroke-linejoin="round" stroke-miterlimit="10" fill="none"/><rect x="1204.5" y="380.5" width="27" height="27" stroke="#000000" stroke-linejoin="round" stroke-miterlimit="10" fill="none"/><rect x="1204.5" y="406.5" width="27" height="27" stroke="#000000" stroke-linejoin="round" stroke-miterlimit="10" fill="none"/><rect x="1204.5" y="433.5" width="27" height="27" stroke="#000000" stroke-linejoin="round" stroke-miterlimit="10" fill="none"/><rect x="1124.5" y="460.5" width="27" height="27" stroke="#000000" stroke-linejoin="round" stroke-miterlimit="10" fill="none"/><rect x="1150.5" y="460.5" width="27" height="27" stroke="#000000" stroke-linejoin="round" stroke-miterlimit="10" fill="none"/><rect x="1177.5" y="460.5" width="27" height="27" stroke="#000000" stroke-linejoin="round" stroke-miterlimit="10" fill="none"/><rect x="1204.5" y="460.5" width="27" height="27" stroke="#000000" stroke-linejoin="round" stroke-miterlimit="10" fill="none"/><path d="M-1.9865 475 66.901 475.465 66.874 479.465-2.0135 479ZM64.9281 471.452 76.8873 477.532 64.8471 483.451Z" fill="#70AD47"/><path d="M1.10632-1.66615 71.6629 45.1832 69.4503 48.5155-1.10632 1.66615ZM72.2094 40.7446 78.8873 52.381 65.5715 50.7415Z" fill="#70AD47" transform="matrix(-1 -8.74228e-08 -8.74228e-08 1 76.8874 478)"/><path d="M-0.997881 528 67.6865 528.073 67.6822 532.073-1.00212 532ZM65.6907 524.071 77.6843 530.083 65.6779 536.071Z" fill="#70AD47"/><path d="M1101 421 1196.83 421 1196.83 425 1101 425ZM1194.83 417 1206.83 423 1194.83 429Z" fill="#FFC000"/><path d="M1.2-1.6 99.0268 71.7701 96.6268 74.9701-1.2 1.6ZM99.8268 67.3701 105.827 79.3701 92.6268 76.9701Z" fill="#FFC000" transform="matrix(-1 -8.74228e-08 -8.74228e-08 1 1206.83 423)"/><path d="M1101 501 1196.83 501 1196.83 505 1101 505ZM1194.83 497 1206.83 503 1194.83 509Z" fill="#FFC000"/><path d="M4.98824 4.43567 90.9544 88.9341 90.4871 89.4095 4.52091 4.91112ZM2.90138 8.46061 0 0 8.50932 2.75526ZM92.5739 85.3845 95.4753 93.8451 86.966 91.0899Z" transform="matrix(1 0 0 -1 352.5 573.345)"/><text font-family="Calibri,Calibri_MSFontService,sans-serif" font-weight="400" font-size="24" transform="translate(420.426 538)">Npar</text><path d="M1.40925-1.41916 20.8072 17.8434 17.9887 20.6817-1.40925 1.41916ZM22.2065 13.5958 26.4938 26.3088 13.751 22.1107Z" fill="#6699FF" transform="matrix(1 0 0 -1 1089 407.309)"/><path d="M1.43368-1.39448 11.2396 8.6871 8.37221 11.476-1.43368 1.39448ZM12.7125 4.46447 16.7783 17.25 4.11038 12.8313Z" fill="#660066" transform="matrix(1 0 0 -1 867 411.25)"/><path d="M1.27711-1.53915 11.4184 6.87561 8.86419 9.95391-1.27711 1.53915ZM12.4335 2.52019 17.8371 14.8003 4.77082 11.7551Z" fill="#660066" transform="matrix(1 0 0 -1 861 460.8)"/><path d="M1.49641-1.32694 9.58163 7.79091 6.58881 10.4448-1.49641 1.32694ZM11.2475 3.64063 14.7199 16.5999 2.26905 11.6022Z" fill="#660066" transform="matrix(1 0 0 -1 862 516.6)"/><path d="M-1.99999 663 27.4437 663 27.4437 667-2.00001 667ZM25.4437 659 37.4437 665 25.4437 671Z" fill="#6699FF"/><path d="M5.32338e-06 684 29.4437 684 29.4437 688-5.32338e-06 688ZM27.4437 680 39.4437 686 27.4437 692Z" fill="#70AD47"/><path d="M-0.999995 705 28.4437 705 28.4437 709-1.00001 709ZM26.4437 701 38.4437 707 26.4437 713Z" fill="#FFC000"/><path d="M5.32338e-06 644 29.4437 644 29.4437 648-5.32338e-06 648ZM27.4437 640 39.4437 646 27.4437 652Z" fill="#660066"/><path d="M266.013 502 334.901 502.465 334.874 506.465 265.987 506ZM332.928 498.452 344.887 504.532 332.847 510.451Z" fill="#70AD47"/><path d="M1.10632-1.66615 71.6629 45.1832 69.4503 48.5155-1.10632 1.66615ZM72.2094 40.7446 78.8873 52.381 65.5715 50.7415Z" fill="#70AD47" transform="matrix(-1 -8.74228e-08 -8.74228e-08 1 344.887 504)"/><path d="M267.002 555 335.686 555.073 335.682 559.073 266.998 559ZM333.691 551.071 345.684 557.083 333.678 563.071Z" fill="#70AD47"/><text font-family="Calibri,Calibri_MSFontService,sans-serif" font-weight="400" font-size="24" transform="translate(63.1738 648)">: Loop 1<tspan x="-0.324722" y="23">: Loop 2</tspan><tspan x="0" y="44">: Loop 3</tspan><tspan x="0.359371" y="65">: Loop 4</tspan><tspan x="5.78693" y="-327">Input FM</tspan></text></g></svg>