<svg width="1035" height="553" xmlns="http://www.w3.org/2000/svg" xmlns:xlink="http://www.w3.org/1999/xlink" overflow="hidden"><defs><clipPath id="clip0"><path d="M99 17 1134 17 1134 570 99 570Z" fill-rule="evenodd" clip-rule="evenodd"/></clipPath></defs><g clip-path="url(#clip0)" transform="translate(-99 -17)"><rect x="112.5" y="271.5" width="121" height="62" stroke="#000000" stroke-width="1.33333" stroke-miterlimit="8" fill="#FFFFFF"/><text font-family="Calibri,Calibri_MSFontService,sans-serif" font-weight="400" font-size="24" transform="translate(113.599 252)">Input image</text><rect x="325.5" y="82.5001" width="693" height="487" stroke="#000000" stroke-linejoin="round" stroke-miterlimit="10" fill="none"/><text font-family="Calibri,Calibri_MSFontService,sans-serif" font-weight="400" font-size="33" transform="translate(645.579 59)">CNN</text><path d="M284 286 337.243 286 337.243 292 284 292ZM334.243 280 352.243 289 334.242 298Z"/><path d="M0.0912133-2.99861 20.7271-2.3709 20.5447 3.62633-0.0912133 2.99861ZM17.9109-8.45934 35.629 1.08378 17.3637 9.53234Z" transform="matrix(1 0 0 -1 712 289.084)"/><text font-family="Calibri,Calibri_MSFontService,sans-serif" font-weight="400" font-size="24" transform="translate(755.514 290)">…</text><path d="M946 287 1023.96 287 1023.96 293 946 293ZM1020.96 281 1038.96 290 1020.96 299Z"/><text font-family="Calibri,Calibri_MSFontService,sans-serif" font-weight="400" font-size="24" transform="translate(1048.58 297)">Output<tspan x="-218.574" y="109">Fully connected </tspan><tspan x="-218.574" y="138">layers</tspan></text><rect x="834.5" y="346.5" width="21" height="20" stroke="#2F528F" stroke-width="1.33333" stroke-miterlimit="8" fill="#FFFFFF"/><rect x="834.5" y="326.5" width="21" height="20" stroke="#2F528F" stroke-width="1.33333" stroke-miterlimit="8" fill="#FFFFFF"/><rect x="834.5" y="307.5" width="21" height="19" stroke="#2F528F" stroke-width="1.33333" stroke-miterlimit="8" fill="#FFFFFF"/><rect x="834.5" y="287.5" width="21" height="20" stroke="#2F528F" stroke-width="1.33333" stroke-miterlimit="8" fill="#FFFFFF"/><rect x="380.5" y="243.5" width="62" height="67" stroke="#2F528F" stroke-width="1.33333" stroke-miterlimit="8" fill="#FFFFFF"/><rect x="391.5" y="260.5" width="62" height="66" stroke="#2F528F" stroke-width="1.33333" stroke-miterlimit="8" fill="#FFFFFF"/><rect x="406.5" y="276.5" width="62" height="67" stroke="#2F528F" stroke-width="1.33333" stroke-miterlimit="8" fill="#FFFFFF"/><rect x="421.5" y="293.5" width="61" height="67" stroke="#2F528F" stroke-width="1.33333" stroke-miterlimit="8" fill="#FFFFFF"/><text font-family="Calibri,Calibri_MSFontService,sans-serif" font-weight="400" font-size="24" transform="translate(374.4 406)">Convolution layer<tspan x="-3.87296" y="-202">Channel of FM</tspan></text><path d="M492 298 532.144 298 532.144 304 492 304ZM529.144 292 547.144 301 529.144 310Z"/><text font-family="Calibri,Calibri_MSFontService,sans-serif" font-weight="400" font-size="24" transform="translate(579.875 406)">Pooling layer</text><rect x="554.5" y="260.5" width="30" height="33" stroke="#2F528F" stroke-width="1.33333" stroke-miterlimit="8" fill="#FFFFFF"/><rect x="565.5" y="276.5" width="30" height="34" stroke="#2F528F" stroke-width="1.33333" stroke-miterlimit="8" fill="#FFFFFF"/><rect x="580.5" y="293.5" width="30" height="33" stroke="#2F528F" stroke-width="1.33333" stroke-miterlimit="8" fill="#FFFFFF"/><rect x="595.5" y="310.5" width="30" height="33" stroke="#2F528F" stroke-width="1.33333" stroke-miterlimit="8" fill="#FFFFFF"/><text font-family="Calibri,Calibri_MSFontService,sans-serif" font-weight="400" font-size="24" transform="translate(545.657 178)">Channel of <tspan x="0" y="29">pooled FM</tspan></text><rect x="355" y="151" width="352" height="276" stroke="#4472C4" stroke-width="2" stroke-linejoin="round" stroke-miterlimit="10" fill="none"/><path d="M0.0912133-2.99861 20.7271-2.3709 20.5447 3.62633-0.0912133 2.99861ZM17.9109-8.45934 35.629 1.08378 17.3637 9.53234Z" transform="matrix(1 0 0 -1 778 290.084)"/><path d="M0.0912133-2.99861 20.7271-2.3709 20.5447 3.62633-0.0912133 2.99861ZM17.9109-8.45934 35.629 1.08378 17.3637 9.53234Z" transform="matrix(1 0 0 -1 875 290.084)"/><text font-family="Calibri,Calibri_MSFontService,sans-serif" font-weight="400" font-size="24" transform="translate(918.676 291)">…</text><path d="M763.5 471.5C763.5 476.471 762.829 480.5 762 480.5L554 480.5C553.172 480.5 552.5 484.53 552.5 489.5 552.5 484.53 551.829 480.5 551 480.5L343 480.5C342.172 480.5 341.5 476.471 341.5 471.5" stroke="#4472C4" stroke-width="0.666667" stroke-miterlimit="8" fill="none" fill-rule="evenodd"/><text font-family="Calibri,Calibri_MSFontService,sans-serif" font-weight="400" font-size="24" transform="translate(475.366 518)">Feature<tspan x="80.1133" y="0">extractor</tspan></text><path d="M1008.5 469.5C1008.5 474.747 1007.79 479 1006.92 479L905.583 479C904.709 479 904 483.253 904 488.5 904 483.253 903.291 479 902.417 479L801.083 479C800.209 479 799.5 474.747 799.5 469.5" stroke="#4472C4" stroke-width="0.666667" stroke-miterlimit="8" fill="none" fill-rule="evenodd"/><text font-family="Calibri,Calibri_MSFontService,sans-serif" font-weight="400" font-size="24" transform="translate(874.255 526)">Classifier</text><rect x="834.5" y="267.5" width="21" height="20" stroke="#2F528F" stroke-width="1.33333" stroke-miterlimit="8" fill="#FFFFFF"/><rect x="834.5" y="247.5" width="21" height="20" stroke="#2F528F" stroke-width="1.33333" stroke-miterlimit="8" fill="#FFFFFF"/><rect x="834.5" y="228.5" width="21" height="19" stroke="#2F528F" stroke-width="1.33333" stroke-miterlimit="8" fill="#FFFFFF"/><rect x="834.5" y="208.5" width="21" height="20" stroke="#2F528F" stroke-width="1.33333" stroke-miterlimit="8" fill="#FFFFFF"/><text font-family="Calibri,Calibri_MSFontService,sans-serif" font-weight="400" font-size="15" transform="translate(865.89 275)">activation<tspan font-size="12" x="-156.274" y="-3">activation</tspan><tspan font-size="12" x="-95.7394" y="-3">activation</tspan><tspan x="85.3124" y="-1">activation</tspan></text></g></svg>