<svg width="741" height="307" xmlns="http://www.w3.org/2000/svg" xmlns:xlink="http://www.w3.org/1999/xlink" overflow="hidden"><defs><clipPath id="clip0"><path d="M27 122 768 122 768 429 27 429Z" fill-rule="evenodd" clip-rule="evenodd"/></clipPath></defs><g clip-path="url(#clip0)" transform="translate(-27 -122)"><rect x="639.5" y="250" width="19.5" height="20.5" fill="#A5A5A5"/><path d="M659 250 665.5 243.5 665.5 264 659 270.5Z" fill="#858585" fill-rule="evenodd"/><path d="M639.5 250 646 243.5 665.5 243.5 659 250Z" fill="#B7B7B7" fill-rule="evenodd"/><path d="M639.5 250 646 243.5 665.5 243.5 665.5 264 659 270.5 639.5 270.5ZM639.5 250 659 250 665.5 243.5M659 250 659 270.5" stroke="#787878" stroke-width="1.33333" stroke-miterlimit="8" fill="none" fill-rule="evenodd"/><rect x="633.5" y="256" width="19.5" height="20.5" fill="#4472C4"/><path d="M653 256 659.5 249.5 659.5 270 653 276.5Z" fill="#375C9E" fill-rule="evenodd"/><path d="M633.5 256 640 249.5 659.5 249.5 653 256Z" fill="#698ED0" fill-rule="evenodd"/><path d="M633.5 256 640 249.5 659.5 249.5 659.5 270 653 276.5 633.5 276.5ZM633.5 256 653 256 659.5 249.5M653 256 653 276.5" stroke="#2F528F" stroke-width="1.33333" stroke-miterlimit="8" fill="none" fill-rule="evenodd"/><rect x="627.5" y="263" width="19.5" height="20.5" fill="#5B9BD5"/><path d="M647 263 653.5 256.5 653.5 277 647 283.5Z" fill="#497DAB" fill-rule="evenodd"/><path d="M627.5 263 634 256.5 653.5 256.5 647 263Z" fill="#7BAFDD" fill-rule="evenodd"/><path d="M627.5 263 634 256.5 653.5 256.5 653.5 277 647 283.5 627.5 283.5ZM627.5 263 647 263 653.5 256.5M647 263 647 283.5" stroke="#41719C" stroke-width="1.33333" stroke-miterlimit="8" fill="none" fill-rule="evenodd"/><rect x="620.5" y="269" width="20.5" height="19.5" fill="#70AD47"/><path d="M641 269 647.5 262.5 647.5 282 641 288.5Z" fill="#5A8B39" fill-rule="evenodd"/><path d="M620.5 269 627 262.5 647.5 262.5 641 269Z" fill="#8CBD6B" fill-rule="evenodd"/><path d="M620.5 269 627 262.5 647.5 262.5 647.5 282 641 288.5 620.5 288.5ZM620.5 269 641 269 647.5 262.5M641 269 641 288.5" stroke="#507E32" stroke-width="1.33333" stroke-miterlimit="8" fill="none" fill-rule="evenodd"/><rect x="613.5" y="276" width="20.5" height="19.5" fill="#FFC000"/><path d="M634 276 640.5 269.5 640.5 289 634 295.5Z" fill="#CD9A00" fill-rule="evenodd"/><path d="M613.5 276 620 269.5 640.5 269.5 634 276Z" fill="#FFCC32" fill-rule="evenodd"/><path d="M613.5 276 620 269.5 640.5 269.5 640.5 289 634 295.5 613.5 295.5ZM613.5 276 634 276 640.5 269.5M634 276 634 295.5" stroke="#BC8C00" stroke-width="1.33333" stroke-miterlimit="8" fill="none" fill-rule="evenodd"/><rect x="607.5" y="281.25" width="20.25" height="20.25" fill="#ED7D31"/><path d="M627.75 281.25 634.5 274.5 634.5 294.75 627.75 301.5Z" fill="#BF6427" fill-rule="evenodd"/><path d="M607.5 281.25 614.25 274.5 634.5 274.5 627.75 281.25Z" fill="#F19659" fill-rule="evenodd"/><path d="M607.5 281.25 614.25 274.5 634.5 274.5 634.5 294.75 627.75 301.5 607.5 301.5ZM607.5 281.25 627.75 281.25 634.5 274.5M627.75 281.25 627.75 301.5" stroke="#AE5A21" stroke-width="1.33333" stroke-miterlimit="8" fill="none" fill-rule="evenodd"/><rect x="601.5" y="288" width="19.5" height="19.5" fill="#FF0000"/><path d="M621 288 627.5 281.5 627.5 301 621 307.5Z" fill="#CD0000" fill-rule="evenodd"/><path d="M601.5 288 608 281.5 627.5 281.5 621 288Z" fill="#FF3232" fill-rule="evenodd"/><path d="M601.5 288 608 281.5 627.5 281.5 627.5 301 621 307.5 601.5 307.5ZM601.5 288 621 288 627.5 281.5M621 288 621 307.5" stroke="#C00000" stroke-width="1.33333" stroke-miterlimit="8" fill="none" fill-rule="evenodd"/><rect x="30.5001" y="309" width="19.5" height="19.5" fill="#4472C4"/><path d="M50.0001 309 56.5001 302.5 56.5001 322 50.0001 328.5Z" fill="#375C9E" fill-rule="evenodd"/><path d="M30.5001 309 37.0001 302.5 56.5001 302.5 50.0001 309Z" fill="#698ED0" fill-rule="evenodd"/><path d="M30.5001 309 37.0001 302.5 56.5001 302.5 56.5001 322 50.0001 328.5 30.5001 328.5ZM30.5001 309 50.0001 309 56.5001 302.5M50.0001 309 50.0001 328.5" stroke="#2F528F" stroke-width="1.33333" stroke-miterlimit="8" fill="none" fill-rule="evenodd"/><rect x="49.5001" y="309" width="20.5" height="19.5" fill="#4472C4"/><path d="M70.0001 309 76.5001 302.5 76.5001 322 70.0001 328.5Z" fill="#375C9E" fill-rule="evenodd"/><path d="M49.5001 309 56 302.5 76.5001 302.5 70.0001 309Z" fill="#698ED0" fill-rule="evenodd"/><path d="M49.5001 309 56 302.5 76.5001 302.5 76.5001 322 70.0001 328.5 49.5001 328.5ZM49.5001 309 70.0001 309 76.5001 302.5M70.0001 309 70.0001 328.5" stroke="#2F528F" stroke-width="1.33333" stroke-miterlimit="8" fill="none" fill-rule="evenodd"/><rect x="30.5001" y="290" width="19.5" height="20.5" fill="#4472C4"/><path d="M50.0001 290 56.5001 283.5 56.5001 304 50.0001 310.5Z" fill="#375C9E" fill-rule="evenodd"/><path d="M30.5001 290 37 283.5 56.5001 283.5 50.0001 290Z" fill="#698ED0" fill-rule="evenodd"/><path d="M30.5001 290 37 283.5 56.5001 283.5 56.5001 304 50.0001 310.5 30.5001 310.5ZM30.5001 290 50.0001 290 56.5001 283.5M50.0001 290 50.0001 310.5" stroke="#2F528F" stroke-width="1.33333" stroke-miterlimit="8" fill="none" fill-rule="evenodd"/><rect x="50.5001" y="291" width="19.5" height="19.5" fill="#4472C4"/><path d="M70.0001 291 76.5001 284.5 76.5001 304 70.0001 310.5Z" fill="#375C9E" fill-rule="evenodd"/><path d="M50.5001 291 57.0001 284.5 76.5001 284.5 70.0001 291Z" fill="#698ED0" fill-rule="evenodd"/><path d="M50.5001 291 57.0001 284.5 76.5001 284.5 76.5001 304 70.0001 310.5 50.5001 310.5ZM50.5001 291 70.0001 291 76.5001 284.5M70.0001 291 70.0001 310.5" stroke="#2F528F" stroke-width="1.33333" stroke-miterlimit="8" fill="none" fill-rule="evenodd"/><rect x="87.5001" y="290" width="20.5" height="19.5" fill="#4472C4"/><path d="M108 290 114.5 283.5 114.5 303 108 309.5Z" fill="#375C9E" fill-rule="evenodd"/><path d="M87.5001 290 94 283.5 114.5 283.5 108 290Z" fill="#698ED0" fill-rule="evenodd"/><path d="M87.5001 290 94 283.5 114.5 283.5 114.5 303 108 309.5 87.5001 309.5ZM87.5001 290 108 290 114.5 283.5M108 290 108 309.5" stroke="#2F528F" stroke-width="1.33333" stroke-miterlimit="8" fill="none" fill-rule="evenodd"/><rect x="87.5001" y="271" width="20.5" height="19.5" fill="#4472C4"/><path d="M108 271 114.5 264.5 114.5 284 108 290.5Z" fill="#375C9E" fill-rule="evenodd"/><path d="M87.5001 271 94 264.5 114.5 264.5 108 271Z" fill="#698ED0" fill-rule="evenodd"/><path d="M87.5001 271 94 264.5 114.5 264.5 114.5 284 108 290.5 87.5001 290.5ZM87.5001 271 108 271 114.5 264.5M108 271 108 290.5" stroke="#2F528F" stroke-width="1.33333" stroke-miterlimit="8" fill="none" fill-rule="evenodd"/><rect x="49.5001" y="251.25" width="20.25" height="20.25" fill="#4472C4"/><path d="M69.7501 251.25 76.5001 244.5 76.5001 264.75 69.7501 271.5Z" fill="#375C9E" fill-rule="evenodd"/><path d="M49.5001 251.25 56.2501 244.5 76.5001 244.5 69.7501 251.25Z" fill="#698ED0" fill-rule="evenodd"/><path d="M49.5001 251.25 56.2501 244.5 76.5001 244.5 76.5001 264.75 69.7501 271.5 49.5001 271.5ZM49.5001 251.25 69.7501 251.25 76.5001 244.5M69.7501 251.25 69.7501 271.5" stroke="#2F528F" stroke-width="1.33333" stroke-miterlimit="8" fill="none" fill-rule="evenodd"/><rect x="69.5001" y="251" width="19.5" height="20.5" fill="#4472C4"/><path d="M89.0001 251 95.5001 244.5 95.5001 265 89.0001 271.5Z" fill="#375C9E" fill-rule="evenodd"/><path d="M69.5001 251 76 244.5 95.5001 244.5 89.0001 251Z" fill="#698ED0" fill-rule="evenodd"/><path d="M69.5001 251 76 244.5 95.5001 244.5 95.5001 265 89.0001 271.5 69.5001 271.5ZM69.5001 251 89.0001 251 95.5001 244.5M89.0001 251 89.0001 271.5" stroke="#2F528F" stroke-width="1.33333" stroke-miterlimit="8" fill="none" fill-rule="evenodd"/><rect x="87.5001" y="251.25" width="20.25" height="20.25" fill="#4472C4"/><path d="M107.75 251.25 114.5 244.5 114.5 264.75 107.75 271.5Z" fill="#375C9E" fill-rule="evenodd"/><path d="M87.5001 251.25 94.2501 244.5 114.5 244.5 107.75 251.25Z" fill="#698ED0" fill-rule="evenodd"/><path d="M87.5001 251.25 94.2501 244.5 114.5 244.5 114.5 264.75 107.75 271.5 87.5001 271.5ZM87.5001 251.25 107.75 251.25 114.5 244.5M107.75 251.25 107.75 271.5" stroke="#2F528F" stroke-width="1.33333" stroke-miterlimit="8" fill="none" fill-rule="evenodd"/><rect x="81.5001" y="295.25" width="20.25" height="20.25" fill="#4472C4"/><path d="M101.75 295.25 108.5 288.5 108.5 308.75 101.75 315.5Z" fill="#375C9E" fill-rule="evenodd"/><path d="M81.5001 295.25 88.2501 288.5 108.5 288.5 101.75 295.25Z" fill="#698ED0" fill-rule="evenodd"/><path d="M81.5001 295.25 88.2501 288.5 108.5 288.5 108.5 308.75 101.75 315.5 81.5001 315.5ZM81.5001 295.25 101.75 295.25 108.5 288.5M101.75 295.25 101.75 315.5" stroke="#2F528F" stroke-width="1.33333" stroke-miterlimit="8" fill="none" fill-rule="evenodd"/><rect x="81.5001" y="278" width="20.5" height="19.5" fill="#4472C4"/><path d="M102 278 108.5 271.5 108.5 291 102 297.5Z" fill="#375C9E" fill-rule="evenodd"/><path d="M81.5001 278 88 271.5 108.5 271.5 102 278Z" fill="#698ED0" fill-rule="evenodd"/><path d="M81.5001 278 88 271.5 108.5 271.5 108.5 291 102 297.5 81.5001 297.5ZM81.5001 278 102 278 108.5 271.5M102 278 102 297.5" stroke="#2F528F" stroke-width="1.33333" stroke-miterlimit="8" fill="none" fill-rule="evenodd"/><rect x="43.5001" y="257.25" width="20.25" height="20.25" fill="#4472C4"/><path d="M63.7501 257.25 70.5001 250.5 70.5001 270.75 63.7501 277.5Z" fill="#375C9E" fill-rule="evenodd"/><path d="M43.5001 257.25 50.2501 250.5 70.5001 250.5 63.7501 257.25Z" fill="#698ED0" fill-rule="evenodd"/><path d="M43.5001 257.25 50.2501 250.5 70.5001 250.5 70.5001 270.75 63.7501 277.5 43.5001 277.5ZM43.5001 257.25 63.7501 257.25 70.5001 250.5M63.7501 257.25 63.7501 277.5" stroke="#2F528F" stroke-width="1.33333" stroke-miterlimit="8" fill="none" fill-rule="evenodd"/><rect x="63.5001" y="257" width="19.5" height="20.5" fill="#4472C4"/><path d="M83.0001 257 89.5001 250.5 89.5001 271 83.0001 277.5Z" fill="#375C9E" fill-rule="evenodd"/><path d="M63.5001 257 70 250.5 89.5001 250.5 83.0001 257Z" fill="#698ED0" fill-rule="evenodd"/><path d="M63.5001 257 70 250.5 89.5001 250.5 89.5001 271 83.0001 277.5 63.5001 277.5ZM63.5001 257 83.0001 257 89.5001 250.5M83.0001 257 83.0001 277.5" stroke="#2F528F" stroke-width="1.33333" stroke-miterlimit="8" fill="none" fill-rule="evenodd"/><rect x="81.5001" y="257.25" width="20.25" height="20.25" fill="#4472C4"/><path d="M101.75 257.25 108.5 250.5 108.5 270.75 101.75 277.5Z" fill="#375C9E" fill-rule="evenodd"/><path d="M81.5001 257.25 88.2501 250.5 108.5 250.5 101.75 257.25Z" fill="#698ED0" fill-rule="evenodd"/><path d="M81.5001 257.25 88.2501 250.5 108.5 250.5 108.5 270.75 101.75 277.5 81.5001 277.5ZM81.5001 257.25 101.75 257.25 108.5 250.5M101.75 257.25 101.75 277.5" stroke="#2F528F" stroke-width="1.33333" stroke-miterlimit="8" fill="none" fill-rule="evenodd"/><rect x="74.5001" y="302.25" width="20.25" height="20.25" fill="#4472C4"/><path d="M94.7501 302.25 101.5 295.5 101.5 315.75 94.7501 322.5Z" fill="#375C9E" fill-rule="evenodd"/><path d="M74.5001 302.25 81.2501 295.5 101.5 295.5 94.7501 302.25Z" fill="#698ED0" fill-rule="evenodd"/><path d="M74.5001 302.25 81.2501 295.5 101.5 295.5 101.5 315.75 94.7501 322.5 74.5001 322.5ZM74.5001 302.25 94.7501 302.25 101.5 295.5M94.7501 302.25 94.7501 322.5" stroke="#2F528F" stroke-width="1.33333" stroke-miterlimit="8" fill="none" fill-rule="evenodd"/><rect x="74.5001" y="284" width="20.5" height="19.5" fill="#4472C4"/><path d="M95.0001 284 101.5 277.5 101.5 297 95.0001 303.5Z" fill="#375C9E" fill-rule="evenodd"/><path d="M74.5001 284 81 277.5 101.5 277.5 95.0001 284Z" fill="#698ED0" fill-rule="evenodd"/><path d="M74.5001 284 81 277.5 101.5 277.5 101.5 297 95.0001 303.5 74.5001 303.5ZM74.5001 284 95.0001 284 101.5 277.5M95.0001 284 95.0001 303.5" stroke="#2F528F" stroke-width="1.33333" stroke-miterlimit="8" fill="none" fill-rule="evenodd"/><rect x="36.5001" y="264.25" width="20.25" height="20.25" fill="#4472C4"/><path d="M56.7501 264.25 63.5001 257.5 63.5001 277.75 56.7501 284.5Z" fill="#375C9E" fill-rule="evenodd"/><path d="M36.5001 264.25 43.2501 257.5 63.5001 257.5 56.7501 264.25Z" fill="#698ED0" fill-rule="evenodd"/><path d="M36.5001 264.25 43.2501 257.5 63.5001 257.5 63.5001 277.75 56.7501 284.5 36.5001 284.5ZM36.5001 264.25 56.7501 264.25 63.5001 257.5M56.7501 264.25 56.7501 284.5" stroke="#2F528F" stroke-width="1.33333" stroke-miterlimit="8" fill="none" fill-rule="evenodd"/><rect x="56.5001" y="264" width="19.5" height="20.5" fill="#4472C4"/><path d="M76.0001 264 82.5001 257.5 82.5001 278 76.0001 284.5Z" fill="#375C9E" fill-rule="evenodd"/><path d="M56.5001 264 63 257.5 82.5001 257.5 76.0001 264Z" fill="#698ED0" fill-rule="evenodd"/><path d="M56.5001 264 63 257.5 82.5001 257.5 82.5001 278 76.0001 284.5 56.5001 284.5ZM56.5001 264 76.0001 264 82.5001 257.5M76.0001 264 76.0001 284.5" stroke="#2F528F" stroke-width="1.33333" stroke-miterlimit="8" fill="none" fill-rule="evenodd"/><rect x="74.5001" y="264.25" width="20.25" height="20.25" fill="#4472C4"/><path d="M94.7501 264.25 101.5 257.5 101.5 277.75 94.7501 284.5Z" fill="#375C9E" fill-rule="evenodd"/><path d="M74.5001 264.25 81.2501 257.5 101.5 257.5 94.7501 264.25Z" fill="#698ED0" fill-rule="evenodd"/><path d="M74.5001 264.25 81.2501 257.5 101.5 257.5 101.5 277.75 94.7501 284.5 74.5001 284.5ZM74.5001 264.25 94.7501 264.25 101.5 257.5M94.7501 264.25 94.7501 284.5" stroke="#2F528F" stroke-width="1.33333" stroke-miterlimit="8" fill="none" fill-rule="evenodd"/><rect x="68.5001" y="309" width="19.5" height="19.5" fill="#4472C4"/><path d="M88.0001 309 94.5001 302.5 94.5001 322 88.0001 328.5Z" fill="#375C9E" fill-rule="evenodd"/><path d="M68.5001 309 75.0001 302.5 94.5001 302.5 88.0001 309Z" fill="#698ED0" fill-rule="evenodd"/><path d="M68.5001 309 75.0001 302.5 94.5001 302.5 94.5001 322 88.0001 328.5 68.5001 328.5ZM68.5001 309 88.0001 309 94.5001 302.5M88.0001 309 88.0001 328.5" stroke="#2F528F" stroke-width="1.33333" stroke-miterlimit="8" fill="none" fill-rule="evenodd"/><rect x="68.5001" y="291" width="19.5" height="19.5" fill="#4472C4"/><path d="M88.0001 291 94.5001 284.5 94.5001 304 88.0001 310.5Z" fill="#375C9E" fill-rule="evenodd"/><path d="M68.5001 291 75.0001 284.5 94.5001 284.5 88.0001 291Z" fill="#698ED0" fill-rule="evenodd"/><path d="M68.5001 291 75.0001 284.5 94.5001 284.5 94.5001 304 88.0001 310.5 68.5001 310.5ZM68.5001 291 88.0001 291 94.5001 284.5M88.0001 291 88.0001 310.5" stroke="#2F528F" stroke-width="1.33333" stroke-miterlimit="8" fill="none" fill-rule="evenodd"/><rect x="30.5001" y="271" width="19.5" height="19.5" fill="#4472C4"/><path d="M50.0001 271 56.5001 264.5 56.5001 284 50.0001 290.5Z" fill="#375C9E" fill-rule="evenodd"/><path d="M30.5001 271 37.0001 264.5 56.5001 264.5 50.0001 271Z" fill="#698ED0" fill-rule="evenodd"/><path d="M30.5001 271 37.0001 264.5 56.5001 264.5 56.5001 284 50.0001 290.5 30.5001 290.5ZM30.5001 271 50.0001 271 56.5001 264.5M50.0001 271 50.0001 290.5" stroke="#2F528F" stroke-width="1.33333" stroke-miterlimit="8" fill="none" fill-rule="evenodd"/><rect x="49.5001" y="271" width="20.5" height="19.5" fill="#4472C4"/><path d="M70.0001 271 76.5001 264.5 76.5001 284 70.0001 290.5Z" fill="#375C9E" fill-rule="evenodd"/><path d="M49.5001 271 56 264.5 76.5001 264.5 70.0001 271Z" fill="#698ED0" fill-rule="evenodd"/><path d="M49.5001 271 56 264.5 76.5001 264.5 76.5001 284 70.0001 290.5 49.5001 290.5ZM49.5001 271 70.0001 271 76.5001 264.5M70.0001 271 70.0001 290.5" stroke="#2F528F" stroke-width="1.33333" stroke-miterlimit="8" fill="none" fill-rule="evenodd"/><rect x="68.5001" y="271" width="19.5" height="19.5" fill="#4472C4"/><path d="M88.0001 271 94.5001 264.5 94.5001 284 88.0001 290.5Z" fill="#375C9E" fill-rule="evenodd"/><path d="M68.5001 271 75.0001 264.5 94.5001 264.5 88.0001 271Z" fill="#698ED0" fill-rule="evenodd"/><path d="M68.5001 271 75.0001 264.5 94.5001 264.5 94.5001 284 88.0001 290.5 68.5001 290.5ZM68.5001 271 88.0001 271 94.5001 264.5M88.0001 271 88.0001 290.5" stroke="#2F528F" stroke-width="1.33333" stroke-miterlimit="8" fill="none" fill-rule="evenodd"/><path d="M29.5001 270.541 56.5407 243.5 256.5 243.5 256.5 400.459 229.459 427.5 29.5001 427.5ZM29.5001 270.541 229.459 270.541 256.5 243.5M229.459 270.541 229.459 427.5" stroke="#000000" stroke-width="3" stroke-miterlimit="8" fill="none" fill-rule="evenodd"/><path d="M0.0133599-0.999911 98.1294 0.311023 98.1027 2.31084-0.0133599 0.999911ZM96.8363-2.70652 104.782 1.4 96.7294 5.29276Z" fill="#FFC000" transform="matrix(1 0 0 -1 101 287.4)"/><path d="M0.605985-0.795476 146.109 110.048 144.898 111.638-0.605985 0.795476ZM146.867 106.853 150.807 114.883 142.019 113.217Z" fill="#FFC000" transform="matrix(-1 -8.74228e-08 -8.74228e-08 1 204.807 285)"/><path d="M0.00495697-0.999988 134.562-0.332982 134.553 1.66699-0.00495697 0.999988ZM133.244-3.33955 141.224 0.700052 133.204 4.66035Z" fill="#FFC000" transform="matrix(1 0 0 -1 56 398.7)"/><path d="M602.5 286.126 645.126 243.5 765.5 243.5 765.5 331.874 722.874 374.5 602.5 374.5ZM602.5 286.126 722.874 286.126 765.5 243.5M722.874 286.126 722.874 374.5" stroke="#000000" stroke-width="3" stroke-miterlimit="8" fill="none" fill-rule="evenodd"/><path d="M622.006 293 697.919 293.449 697.907 295.449 621.994 295ZM696.603 290.441 704.579 294.488 696.556 298.441Z" fill="#FFC000"/><path d="M0.550256-0.834996 87.239 56.2923 86.1385 57.9623-0.550256 0.834996ZM87.7765 53.0537 92.2554 60.7957 83.3744 59.7336Z" fill="#FFC000" transform="matrix(-1 -8.74228e-08 -8.74228e-08 1 703.255 296)"/><path d="M0.00388636-0.999992 83.402-0.675875 83.3943 1.32411-0.00388636 0.999992ZM82.0803-3.68103 90.0647 0.350026 82.0492 4.3189Z" fill="#FFC000" transform="matrix(1 0 0 -1 614 356.35)"/><rect x="387.5" y="407.25" width="20.25" height="20.25" fill="#FF0000"/><path d="M407.75 407.25 414.5 400.5 414.5 420.75 407.75 427.5Z" fill="#CD0000" fill-rule="evenodd"/><path d="M387.5 407.25 394.25 400.5 414.5 400.5 407.75 407.25Z" fill="#FF3232" fill-rule="evenodd"/><path d="M387.5 407.25 394.25 400.5 414.5 400.5 414.5 420.75 407.75 427.5 387.5 427.5ZM387.5 407.25 407.75 407.25 414.5 400.5M407.75 407.25 407.75 427.5" stroke="#C00000" stroke-width="1.33333" stroke-miterlimit="8" fill="none" fill-rule="evenodd"/><rect x="407.5" y="407" width="19.5" height="20.5" fill="#FF0000"/><path d="M427 407 433.5 400.5 433.5 421 427 427.5Z" fill="#CD0000" fill-rule="evenodd"/><path d="M407.5 407 414 400.5 433.5 400.5 427 407Z" fill="#FF3232" fill-rule="evenodd"/><path d="M407.5 407 414 400.5 433.5 400.5 433.5 421 427 427.5 407.5 427.5ZM407.5 407 427 407 433.5 400.5M427 407 427 427.5" stroke="#C00000" stroke-width="1.33333" stroke-miterlimit="8" fill="none" fill-rule="evenodd"/><rect x="387.5" y="389" width="20.5" height="19.5" fill="#FF0000"/><path d="M408 389 414.5 382.5 414.5 402 408 408.5Z" fill="#CD0000" fill-rule="evenodd"/><path d="M387.5 389 394 382.5 414.5 382.5 408 389Z" fill="#FF3232" fill-rule="evenodd"/><path d="M387.5 389 394 382.5 414.5 382.5 414.5 402 408 408.5 387.5 408.5ZM387.5 389 408 389 414.5 382.5M408 389 408 408.5" stroke="#C00000" stroke-width="1.33333" stroke-miterlimit="8" fill="none" fill-rule="evenodd"/><rect x="407.5" y="388" width="19.5" height="20.5" fill="#FF0000"/><path d="M427 388 433.5 381.5 433.5 402 427 408.5Z" fill="#CD0000" fill-rule="evenodd"/><path d="M407.5 388 414 381.5 433.5 381.5 427 388Z" fill="#FF3232" fill-rule="evenodd"/><path d="M407.5 388 414 381.5 433.5 381.5 433.5 402 427 408.5 407.5 408.5ZM407.5 388 427 388 433.5 381.5M427 388 427 408.5" stroke="#C00000" stroke-width="1.33333" stroke-miterlimit="8" fill="none" fill-rule="evenodd"/><rect x="445.5" y="388" width="19.5" height="19.5" fill="#FF0000"/><path d="M465 388 471.5 381.5 471.5 401 465 407.5Z" fill="#CD0000" fill-rule="evenodd"/><path d="M445.5 388 452 381.5 471.5 381.5 465 388Z" fill="#FF3232" fill-rule="evenodd"/><path d="M445.5 388 452 381.5 471.5 381.5 471.5 401 465 407.5 445.5 407.5ZM445.5 388 465 388 471.5 381.5M465 388 465 407.5" stroke="#C00000" stroke-width="1.33333" stroke-miterlimit="8" fill="none" fill-rule="evenodd"/><rect x="445.5" y="369" width="19.5" height="19.5" fill="#FF0000"/><path d="M465 369 471.5 362.5 471.5 382 465 388.5Z" fill="#CD0000" fill-rule="evenodd"/><path d="M445.5 369 452 362.5 471.5 362.5 465 369Z" fill="#FF3232" fill-rule="evenodd"/><path d="M445.5 369 452 362.5 471.5 362.5 471.5 382 465 388.5 445.5 388.5ZM445.5 369 465 369 471.5 362.5M465 369 465 388.5" stroke="#C00000" stroke-width="1.33333" stroke-miterlimit="8" fill="none" fill-rule="evenodd"/><rect x="407.5" y="349" width="19.5" height="20.5" fill="#FF0000"/><path d="M427 349 433.5 342.5 433.5 363 427 369.5Z" fill="#CD0000" fill-rule="evenodd"/><path d="M407.5 349 414 342.5 433.5 342.5 427 349Z" fill="#FF3232" fill-rule="evenodd"/><path d="M407.5 349 414 342.5 433.5 342.5 433.5 363 427 369.5 407.5 369.5ZM407.5 349 427 349 433.5 342.5M427 349 427 369.5" stroke="#C00000" stroke-width="1.33333" stroke-miterlimit="8" fill="none" fill-rule="evenodd"/><rect x="426.5" y="349.25" width="20.25" height="20.25" fill="#FF0000"/><path d="M446.75 349.25 453.5 342.5 453.5 362.75 446.75 369.5Z" fill="#CD0000" fill-rule="evenodd"/><path d="M426.5 349.25 433.25 342.5 453.5 342.5 446.75 349.25Z" fill="#FF3232" fill-rule="evenodd"/><path d="M426.5 349.25 433.25 342.5 453.5 342.5 453.5 362.75 446.75 369.5 426.5 369.5ZM426.5 349.25 446.75 349.25 453.5 342.5M446.75 349.25 446.75 369.5" stroke="#C00000" stroke-width="1.33333" stroke-miterlimit="8" fill="none" fill-rule="evenodd"/><rect x="445.5" y="349" width="19.5" height="20.5" fill="#FF0000"/><path d="M465 349 471.5 342.5 471.5 363 465 369.5Z" fill="#CD0000" fill-rule="evenodd"/><path d="M445.5 349 452 342.5 471.5 342.5 465 349Z" fill="#FF3232" fill-rule="evenodd"/><path d="M445.5 349 452 342.5 471.5 342.5 471.5 363 465 369.5 445.5 369.5ZM445.5 349 465 349 471.5 342.5M465 349 465 369.5" stroke="#C00000" stroke-width="1.33333" stroke-miterlimit="8" fill="none" fill-rule="evenodd"/><rect x="438.5" y="394.25" width="20.25" height="20.25" fill="#FF0000"/><path d="M458.75 394.25 465.5 387.5 465.5 407.75 458.75 414.5Z" fill="#CD0000" fill-rule="evenodd"/><path d="M438.5 394.25 445.25 387.5 465.5 387.5 458.75 394.25Z" fill="#FF3232" fill-rule="evenodd"/><path d="M438.5 394.25 445.25 387.5 465.5 387.5 465.5 407.75 458.75 414.5 438.5 414.5ZM438.5 394.25 458.75 394.25 465.5 387.5M458.75 394.25 458.75 414.5" stroke="#C00000" stroke-width="1.33333" stroke-miterlimit="8" fill="none" fill-rule="evenodd"/><rect x="438.5" y="376" width="20.5" height="19.5" fill="#FF0000"/><path d="M459 376 465.5 369.5 465.5 389 459 395.5Z" fill="#CD0000" fill-rule="evenodd"/><path d="M438.5 376 445 369.5 465.5 369.5 459 376Z" fill="#FF3232" fill-rule="evenodd"/><path d="M438.5 376 445 369.5 465.5 369.5 465.5 389 459 395.5 438.5 395.5ZM438.5 376 459 376 465.5 369.5M459 376 459 395.5" stroke="#C00000" stroke-width="1.33333" stroke-miterlimit="8" fill="none" fill-rule="evenodd"/><rect x="400.5" y="356" width="20.5" height="19.5" fill="#FF0000"/><path d="M421 356 427.5 349.5 427.5 369 421 375.5Z" fill="#CD0000" fill-rule="evenodd"/><path d="M400.5 356 407 349.5 427.5 349.5 421 356Z" fill="#FF3232" fill-rule="evenodd"/><path d="M400.5 356 407 349.5 427.5 349.5 427.5 369 421 375.5 400.5 375.5ZM400.5 356 421 356 427.5 349.5M421 356 421 375.5" stroke="#C00000" stroke-width="1.33333" stroke-miterlimit="8" fill="none" fill-rule="evenodd"/><rect x="420.5" y="356" width="19.5" height="19.5" fill="#FF0000"/><path d="M440 356 446.5 349.5 446.5 369 440 375.5Z" fill="#CD0000" fill-rule="evenodd"/><path d="M420.5 356 427 349.5 446.5 349.5 440 356Z" fill="#FF3232" fill-rule="evenodd"/><path d="M420.5 356 427 349.5 446.5 349.5 446.5 369 440 375.5 420.5 375.5ZM420.5 356 440 356 446.5 349.5M440 356 440 375.5" stroke="#C00000" stroke-width="1.33333" stroke-miterlimit="8" fill="none" fill-rule="evenodd"/><rect x="438.5" y="356" width="20.5" height="19.5" fill="#FF0000"/><path d="M459 356 465.5 349.5 465.5 369 459 375.5Z" fill="#CD0000" fill-rule="evenodd"/><path d="M438.5 356 445 349.5 465.5 349.5 459 356Z" fill="#FF3232" fill-rule="evenodd"/><path d="M438.5 356 445 349.5 465.5 349.5 465.5 369 459 375.5 438.5 375.5ZM438.5 356 459 356 465.5 349.5M459 356 459 375.5" stroke="#C00000" stroke-width="1.33333" stroke-miterlimit="8" fill="none" fill-rule="evenodd"/><rect x="431.5" y="401" width="20.5" height="19.5" fill="#FF0000"/><path d="M452 401 458.5 394.5 458.5 414 452 420.5Z" fill="#CD0000" fill-rule="evenodd"/><path d="M431.5 401 438 394.5 458.5 394.5 452 401Z" fill="#FF3232" fill-rule="evenodd"/><path d="M431.5 401 438 394.5 458.5 394.5 458.5 414 452 420.5 431.5 420.5ZM431.5 401 452 401 458.5 394.5M452 401 452 420.5" stroke="#C00000" stroke-width="1.33333" stroke-miterlimit="8" fill="none" fill-rule="evenodd"/><rect x="431.5" y="382" width="20.5" height="19.5" fill="#FF0000"/><path d="M452 382 458.5 375.5 458.5 395 452 401.5Z" fill="#CD0000" fill-rule="evenodd"/><path d="M431.5 382 438 375.5 458.5 375.5 452 382Z" fill="#FF3232" fill-rule="evenodd"/><path d="M431.5 382 438 375.5 458.5 375.5 458.5 395 452 401.5 431.5 401.5ZM431.5 382 452 382 458.5 375.5M452 382 452 401.5" stroke="#C00000" stroke-width="1.33333" stroke-miterlimit="8" fill="none" fill-rule="evenodd"/><rect x="393.5" y="363" width="20.5" height="19.5" fill="#FF0000"/><path d="M414 363 420.5 356.5 420.5 376 414 382.5Z" fill="#CD0000" fill-rule="evenodd"/><path d="M393.5 363 400 356.5 420.5 356.5 414 363Z" fill="#FF3232" fill-rule="evenodd"/><path d="M393.5 363 400 356.5 420.5 356.5 420.5 376 414 382.5 393.5 382.5ZM393.5 363 414 363 420.5 356.5M414 363 414 382.5" stroke="#C00000" stroke-width="1.33333" stroke-miterlimit="8" fill="none" fill-rule="evenodd"/><rect x="413.5" y="363" width="19.5" height="19.5" fill="#FF0000"/><path d="M433 363 439.5 356.5 439.5 376 433 382.5Z" fill="#CD0000" fill-rule="evenodd"/><path d="M413.5 363 420 356.5 439.5 356.5 433 363Z" fill="#FF3232" fill-rule="evenodd"/><path d="M413.5 363 420 356.5 439.5 356.5 439.5 376 433 382.5 413.5 382.5ZM413.5 363 433 363 439.5 356.5M433 363 433 382.5" stroke="#C00000" stroke-width="1.33333" stroke-miterlimit="8" fill="none" fill-rule="evenodd"/><rect x="431.5" y="363" width="20.5" height="19.5" fill="#FF0000"/><path d="M452 363 458.5 356.5 458.5 376 452 382.5Z" fill="#CD0000" fill-rule="evenodd"/><path d="M431.5 363 438 356.5 458.5 356.5 452 363Z" fill="#FF3232" fill-rule="evenodd"/><path d="M431.5 363 438 356.5 458.5 356.5 458.5 376 452 382.5 431.5 382.5ZM431.5 363 452 363 458.5 356.5M452 363 452 382.5" stroke="#C00000" stroke-width="1.33333" stroke-miterlimit="8" fill="none" fill-rule="evenodd"/><rect x="425.5" y="407.25" width="20.25" height="20.25" fill="#FF0000"/><path d="M445.75 407.25 452.5 400.5 452.5 420.75 445.75 427.5Z" fill="#CD0000" fill-rule="evenodd"/><path d="M425.5 407.25 432.25 400.5 452.5 400.5 445.75 407.25Z" fill="#FF3232" fill-rule="evenodd"/><path d="M425.5 407.25 432.25 400.5 452.5 400.5 452.5 420.75 445.75 427.5 425.5 427.5ZM425.5 407.25 445.75 407.25 452.5 400.5M445.75 407.25 445.75 427.5" stroke="#C00000" stroke-width="1.33333" stroke-miterlimit="8" fill="none" fill-rule="evenodd"/><rect x="425.5" y="388.25" width="20.25" height="20.25" fill="#FF0000"/><path d="M445.75 388.25 452.5 381.5 452.5 401.75 445.75 408.5Z" fill="#CD0000" fill-rule="evenodd"/><path d="M425.5 388.25 432.25 381.5 452.5 381.5 445.75 388.25Z" fill="#FF3232" fill-rule="evenodd"/><path d="M425.5 388.25 432.25 381.5 452.5 381.5 452.5 401.75 445.75 408.5 425.5 408.5ZM425.5 388.25 445.75 388.25 452.5 381.5M445.75 388.25 445.75 408.5" stroke="#C00000" stroke-width="1.33333" stroke-miterlimit="8" fill="none" fill-rule="evenodd"/><rect x="387.5" y="369" width="20.5" height="19.5" fill="#FF0000"/><path d="M408 369 414.5 362.5 414.5 382 408 388.5Z" fill="#CD0000" fill-rule="evenodd"/><path d="M387.5 369 394 362.5 414.5 362.5 408 369Z" fill="#FF3232" fill-rule="evenodd"/><path d="M387.5 369 394 362.5 414.5 362.5 414.5 382 408 388.5 387.5 388.5ZM387.5 369 408 369 414.5 362.5M408 369 408 388.5" stroke="#C00000" stroke-width="1.33333" stroke-miterlimit="8" fill="none" fill-rule="evenodd"/><rect x="407.5" y="369" width="19.5" height="19.5" fill="#FF0000"/><path d="M427 369 433.5 362.5 433.5 382 427 388.5Z" fill="#CD0000" fill-rule="evenodd"/><path d="M407.5 369 414 362.5 433.5 362.5 427 369Z" fill="#FF3232" fill-rule="evenodd"/><path d="M407.5 369 414 362.5 433.5 362.5 433.5 382 427 388.5 407.5 388.5ZM407.5 369 427 369 433.5 362.5M427 369 427 388.5" stroke="#C00000" stroke-width="1.33333" stroke-miterlimit="8" fill="none" fill-rule="evenodd"/><rect x="425.5" y="369" width="20.5" height="19.5" fill="#FF0000"/><path d="M446 369 452.5 362.5 452.5 382 446 388.5Z" fill="#CD0000" fill-rule="evenodd"/><path d="M425.5 369 432 362.5 452.5 362.5 446 369Z" fill="#FF3232" fill-rule="evenodd"/><path d="M425.5 369 432 362.5 452.5 362.5 452.5 382 446 388.5 425.5 388.5ZM425.5 369 446 369 452.5 362.5M446 369 446 388.5" stroke="#C00000" stroke-width="1.33333" stroke-miterlimit="8" fill="none" fill-rule="evenodd"/><path d="M431.5 319C431.5 317.067 433.067 315.5 435 315.5 436.933 315.5 438.5 317.067 438.5 319 438.5 320.933 436.933 322.5 435 322.5 433.067 322.5 431.5 320.933 431.5 319Z" stroke="#000000" stroke-width="1.33333" stroke-miterlimit="8" fill-rule="evenodd"/><path d="M432.5 299.5C432.5 297.843 433.843 296.5 435.5 296.5 437.157 296.5 438.5 297.843 438.5 299.5 438.5 301.157 437.157 302.5 435.5 302.5 433.843 302.5 432.5 301.157 432.5 299.5Z" stroke="#000000" stroke-width="1.33333" stroke-miterlimit="8" fill-rule="evenodd"/><path d="M432.5 280.5C432.5 278.843 434.067 277.5 436 277.5 437.933 277.5 439.5 278.843 439.5 280.5 439.5 282.157 437.933 283.5 436 283.5 434.067 283.5 432.5 282.157 432.5 280.5Z" stroke="#000000" stroke-width="1.33333" stroke-miterlimit="8" fill-rule="evenodd"/><rect x="387.5" y="236" width="20.5" height="19.5" fill="#A5A5A5"/><path d="M408 236 414.5 229.5 414.5 249 408 255.5Z" fill="#858585" fill-rule="evenodd"/><path d="M387.5 236 394 229.5 414.5 229.5 408 236Z" fill="#B7B7B7" fill-rule="evenodd"/><path d="M387.5 236 394 229.5 414.5 229.5 414.5 249 408 255.5 387.5 255.5ZM387.5 236 408 236 414.5 229.5M408 236 408 255.5" stroke="#787878" stroke-width="1.33333" stroke-miterlimit="8" fill="none" fill-rule="evenodd"/><rect x="406.5" y="236" width="19.5" height="19.5" fill="#A5A5A5"/><path d="M426 236 432.5 229.5 432.5 249 426 255.5Z" fill="#858585" fill-rule="evenodd"/><path d="M406.5 236 413 229.5 432.5 229.5 426 236Z" fill="#B7B7B7" fill-rule="evenodd"/><path d="M406.5 236 413 229.5 432.5 229.5 432.5 249 426 255.5 406.5 255.5ZM406.5 236 426 236 432.5 229.5M426 236 426 255.5" stroke="#787878" stroke-width="1.33333" stroke-miterlimit="8" fill="none" fill-rule="evenodd"/><rect x="387.5" y="217.25" width="20.25" height="20.25" fill="#A5A5A5"/><path d="M407.75 217.25 414.5 210.5 414.5 230.75 407.75 237.5Z" fill="#858585" fill-rule="evenodd"/><path d="M387.5 217.25 394.25 210.5 414.5 210.5 407.75 217.25Z" fill="#B7B7B7" fill-rule="evenodd"/><path d="M387.5 217.25 394.25 210.5 414.5 210.5 414.5 230.75 407.75 237.5 387.5 237.5ZM387.5 217.25 407.75 217.25 414.5 210.5M407.75 217.25 407.75 237.5" stroke="#787878" stroke-width="1.33333" stroke-miterlimit="8" fill="none" fill-rule="evenodd"/><rect x="406.5" y="217" width="20.5" height="19.5" fill="#A5A5A5"/><path d="M427 217 433.5 210.5 433.5 230 427 236.5Z" fill="#858585" fill-rule="evenodd"/><path d="M406.5 217 413 210.5 433.5 210.5 427 217Z" fill="#B7B7B7" fill-rule="evenodd"/><path d="M406.5 217 413 210.5 433.5 210.5 433.5 230 427 236.5 406.5 236.5ZM406.5 217 427 217 433.5 210.5M427 217 427 236.5" stroke="#787878" stroke-width="1.33333" stroke-miterlimit="8" fill="none" fill-rule="evenodd"/><rect x="445.5" y="217" width="19.5" height="19.5" fill="#A5A5A5"/><path d="M465 217 471.5 210.5 471.5 230 465 236.5Z" fill="#858585" fill-rule="evenodd"/><path d="M445.5 217 452 210.5 471.5 210.5 465 217Z" fill="#B7B7B7" fill-rule="evenodd"/><path d="M445.5 217 452 210.5 471.5 210.5 471.5 230 465 236.5 445.5 236.5ZM445.5 217 465 217 471.5 210.5M465 217 465 236.5" stroke="#787878" stroke-width="1.33333" stroke-miterlimit="8" fill="none" fill-rule="evenodd"/><rect x="445.5" y="197" width="19.5" height="20.5" fill="#A5A5A5"/><path d="M465 197 471.5 190.5 471.5 211 465 217.5Z" fill="#858585" fill-rule="evenodd"/><path d="M445.5 197 452 190.5 471.5 190.5 465 197Z" fill="#B7B7B7" fill-rule="evenodd"/><path d="M445.5 197 452 190.5 471.5 190.5 471.5 211 465 217.5 445.5 217.5ZM445.5 197 465 197 471.5 190.5M465 197 465 217.5" stroke="#787878" stroke-width="1.33333" stroke-miterlimit="8" fill="none" fill-rule="evenodd"/><rect x="407.5" y="178" width="19.5" height="19.5" fill="#A5A5A5"/><path d="M427 178 433.5 171.5 433.5 191 427 197.5Z" fill="#858585" fill-rule="evenodd"/><path d="M407.5 178 414 171.5 433.5 171.5 427 178Z" fill="#B7B7B7" fill-rule="evenodd"/><path d="M407.5 178 414 171.5 433.5 171.5 433.5 191 427 197.5 407.5 197.5ZM407.5 178 427 178 433.5 171.5M427 178 427 197.5" stroke="#787878" stroke-width="1.33333" stroke-miterlimit="8" fill="none" fill-rule="evenodd"/><rect x="426.5" y="179" width="20.5" height="19.5" fill="#A5A5A5"/><path d="M447 179 453.5 172.5 453.5 192 447 198.5Z" fill="#858585" fill-rule="evenodd"/><path d="M426.5 179 433 172.5 453.5 172.5 447 179Z" fill="#B7B7B7" fill-rule="evenodd"/><path d="M426.5 179 433 172.5 453.5 172.5 453.5 192 447 198.5 426.5 198.5ZM426.5 179 447 179 453.5 172.5M447 179 447 198.5" stroke="#787878" stroke-width="1.33333" stroke-miterlimit="8" fill="none" fill-rule="evenodd"/><rect x="445.5" y="179" width="19.5" height="19.5" fill="#A5A5A5"/><path d="M465 179 471.5 172.5 471.5 192 465 198.5Z" fill="#858585" fill-rule="evenodd"/><path d="M445.5 179 452 172.5 471.5 172.5 465 179Z" fill="#B7B7B7" fill-rule="evenodd"/><path d="M445.5 179 452 172.5 471.5 172.5 471.5 192 465 198.5 445.5 198.5ZM445.5 179 465 179 471.5 172.5M465 179 465 198.5" stroke="#787878" stroke-width="1.33333" stroke-miterlimit="8" fill="none" fill-rule="evenodd"/><rect x="439.5" y="223" width="19.5" height="20.5" fill="#A5A5A5"/><path d="M459 223 465.5 216.5 465.5 237 459 243.5Z" fill="#858585" fill-rule="evenodd"/><path d="M439.5 223 446 216.5 465.5 216.5 459 223Z" fill="#B7B7B7" fill-rule="evenodd"/><path d="M439.5 223 446 216.5 465.5 216.5 465.5 237 459 243.5 439.5 243.5ZM439.5 223 459 223 465.5 216.5M459 223 459 243.5" stroke="#787878" stroke-width="1.33333" stroke-miterlimit="8" fill="none" fill-rule="evenodd"/><rect x="439.5" y="204" width="19.5" height="20.5" fill="#A5A5A5"/><path d="M459 204 465.5 197.5 465.5 218 459 224.5Z" fill="#858585" fill-rule="evenodd"/><path d="M439.5 204 446 197.5 465.5 197.5 459 204Z" fill="#B7B7B7" fill-rule="evenodd"/><path d="M439.5 204 446 197.5 465.5 197.5 465.5 218 459 224.5 439.5 224.5ZM439.5 204 459 204 465.5 197.5M459 204 459 224.5" stroke="#787878" stroke-width="1.33333" stroke-miterlimit="8" fill="none" fill-rule="evenodd"/><rect x="401.5" y="185" width="19.5" height="19.5" fill="#A5A5A5"/><path d="M421 185 427.5 178.5 427.5 198 421 204.5Z" fill="#858585" fill-rule="evenodd"/><path d="M401.5 185 408 178.5 427.5 178.5 421 185Z" fill="#B7B7B7" fill-rule="evenodd"/><path d="M401.5 185 408 178.5 427.5 178.5 427.5 198 421 204.5 401.5 204.5ZM401.5 185 421 185 427.5 178.5M421 185 421 204.5" stroke="#787878" stroke-width="1.33333" stroke-miterlimit="8" fill="none" fill-rule="evenodd"/><rect x="420.5" y="185" width="19.5" height="19.5" fill="#A5A5A5"/><path d="M440 185 446.5 178.5 446.5 198 440 204.5Z" fill="#858585" fill-rule="evenodd"/><path d="M420.5 185 427 178.5 446.5 178.5 440 185Z" fill="#B7B7B7" fill-rule="evenodd"/><path d="M420.5 185 427 178.5 446.5 178.5 446.5 198 440 204.5 420.5 204.5ZM420.5 185 440 185 446.5 178.5M440 185 440 204.5" stroke="#787878" stroke-width="1.33333" stroke-miterlimit="8" fill="none" fill-rule="evenodd"/><rect x="439.5" y="185" width="19.5" height="19.5" fill="#A5A5A5"/><path d="M459 185 465.5 178.5 465.5 198 459 204.5Z" fill="#858585" fill-rule="evenodd"/><path d="M439.5 185 446 178.5 465.5 178.5 459 185Z" fill="#B7B7B7" fill-rule="evenodd"/><path d="M439.5 185 446 178.5 465.5 178.5 465.5 198 459 204.5 439.5 204.5ZM439.5 185 459 185 465.5 178.5M459 185 459 204.5" stroke="#787878" stroke-width="1.33333" stroke-miterlimit="8" fill="none" fill-rule="evenodd"/><rect x="433.5" y="229" width="19.5" height="19.5" fill="#A5A5A5"/><path d="M453 229 459.5 222.5 459.5 242 453 248.5Z" fill="#858585" fill-rule="evenodd"/><path d="M433.5 229 440 222.5 459.5 222.5 453 229Z" fill="#B7B7B7" fill-rule="evenodd"/><path d="M433.5 229 440 222.5 459.5 222.5 459.5 242 453 248.5 433.5 248.5ZM433.5 229 453 229 459.5 222.5M453 229 453 248.5" stroke="#787878" stroke-width="1.33333" stroke-miterlimit="8" fill="none" fill-rule="evenodd"/><rect x="433.5" y="212" width="19.5" height="19.5" fill="#A5A5A5"/><path d="M453 212 459.5 205.5 459.5 225 453 231.5Z" fill="#858585" fill-rule="evenodd"/><path d="M433.5 212 440 205.5 459.5 205.5 453 212Z" fill="#B7B7B7" fill-rule="evenodd"/><path d="M433.5 212 440 205.5 459.5 205.5 459.5 225 453 231.5 433.5 231.5ZM433.5 212 453 212 459.5 205.5M453 212 453 231.5" stroke="#787878" stroke-width="1.33333" stroke-miterlimit="8" fill="none" fill-rule="evenodd"/><rect x="395.5" y="191" width="19.5" height="20.5" fill="#A5A5A5"/><path d="M415 191 421.5 184.5 421.5 205 415 211.5Z" fill="#858585" fill-rule="evenodd"/><path d="M395.5 191 402 184.5 421.5 184.5 415 191Z" fill="#B7B7B7" fill-rule="evenodd"/><path d="M395.5 191 402 184.5 421.5 184.5 421.5 205 415 211.5 395.5 211.5ZM395.5 191 415 191 421.5 184.5M415 191 415 211.5" stroke="#787878" stroke-width="1.33333" stroke-miterlimit="8" fill="none" fill-rule="evenodd"/><rect x="413.5" y="191" width="19.5" height="20.5" fill="#A5A5A5"/><path d="M433 191 439.5 184.5 439.5 205 433 211.5Z" fill="#858585" fill-rule="evenodd"/><path d="M413.5 191 420 184.5 439.5 184.5 433 191Z" fill="#B7B7B7" fill-rule="evenodd"/><path d="M413.5 191 420 184.5 439.5 184.5 439.5 205 433 211.5 413.5 211.5ZM413.5 191 433 191 439.5 184.5M433 191 433 211.5" stroke="#787878" stroke-width="1.33333" stroke-miterlimit="8" fill="none" fill-rule="evenodd"/><rect x="433.5" y="191" width="19.5" height="20.5" fill="#A5A5A5"/><path d="M453 191 459.5 184.5 459.5 205 453 211.5Z" fill="#858585" fill-rule="evenodd"/><path d="M433.5 191 440 184.5 459.5 184.5 453 191Z" fill="#B7B7B7" fill-rule="evenodd"/><path d="M433.5 191 440 184.5 459.5 184.5 459.5 205 453 211.5 433.5 211.5ZM433.5 191 453 191 459.5 184.5M453 191 453 211.5" stroke="#787878" stroke-width="1.33333" stroke-miterlimit="8" fill="none" fill-rule="evenodd"/><rect x="426.5" y="236" width="20.5" height="19.5" fill="#A5A5A5"/><path d="M447 236 453.5 229.5 453.5 249 447 255.5Z" fill="#858585" fill-rule="evenodd"/><path d="M426.5 236 433 229.5 453.5 229.5 447 236Z" fill="#B7B7B7" fill-rule="evenodd"/><path d="M426.5 236 433 229.5 453.5 229.5 453.5 249 447 255.5 426.5 255.5ZM426.5 236 447 236 453.5 229.5M447 236 447 255.5" stroke="#787878" stroke-width="1.33333" stroke-miterlimit="8" fill="none" fill-rule="evenodd"/><rect x="426.5" y="217.25" width="20.25" height="20.25" fill="#A5A5A5"/><path d="M446.75 217.25 453.5 210.5 453.5 230.75 446.75 237.5Z" fill="#858585" fill-rule="evenodd"/><path d="M426.5 217.25 433.25 210.5 453.5 210.5 446.75 217.25Z" fill="#B7B7B7" fill-rule="evenodd"/><path d="M426.5 217.25 433.25 210.5 453.5 210.5 453.5 230.75 446.75 237.5 426.5 237.5ZM426.5 217.25 446.75 217.25 453.5 210.5M446.75 217.25 446.75 237.5" stroke="#787878" stroke-width="1.33333" stroke-miterlimit="8" fill="none" fill-rule="evenodd"/><rect x="387.5" y="198.25" width="20.25" height="20.25" fill="#A5A5A5"/><path d="M407.75 198.25 414.5 191.5 414.5 211.75 407.75 218.5Z" fill="#858585" fill-rule="evenodd"/><path d="M387.5 198.25 394.25 191.5 414.5 191.5 407.75 198.25Z" fill="#B7B7B7" fill-rule="evenodd"/><path d="M387.5 198.25 394.25 191.5 414.5 191.5 414.5 211.75 407.75 218.5 387.5 218.5ZM387.5 198.25 407.75 198.25 414.5 191.5M407.75 198.25 407.75 218.5" stroke="#787878" stroke-width="1.33333" stroke-miterlimit="8" fill="none" fill-rule="evenodd"/><rect x="407.5" y="198" width="19.5" height="20.5" fill="#A5A5A5"/><path d="M427 198 433.5 191.5 433.5 212 427 218.5Z" fill="#858585" fill-rule="evenodd"/><path d="M407.5 198 414 191.5 433.5 191.5 427 198Z" fill="#B7B7B7" fill-rule="evenodd"/><path d="M407.5 198 414 191.5 433.5 191.5 433.5 212 427 218.5 407.5 218.5ZM407.5 198 427 198 433.5 191.5M427 198 427 218.5" stroke="#787878" stroke-width="1.33333" stroke-miterlimit="8" fill="none" fill-rule="evenodd"/><rect x="426.5" y="198.25" width="20.25" height="20.25" fill="#A5A5A5"/><path d="M446.75 198.25 453.5 191.5 453.5 211.75 446.75 218.5Z" fill="#858585" fill-rule="evenodd"/><path d="M426.5 198.25 433.25 191.5 453.5 191.5 446.75 198.25Z" fill="#B7B7B7" fill-rule="evenodd"/><path d="M426.5 198.25 433.25 191.5 453.5 191.5 453.5 211.75 446.75 218.5 426.5 218.5ZM426.5 198.25 446.75 198.25 453.5 191.5M446.75 198.25 446.75 218.5" stroke="#787878" stroke-width="1.33333" stroke-miterlimit="8" fill="none" fill-rule="evenodd"/><path d="M0.16882-0.287421 124.322 72.6354 123.984 73.2102-0.16882 0.287421ZM125.029 68.7985 129.901 76.2992 120.977 75.6966Z" fill="#C00000" transform="matrix(1 0 0 -1 471.5 373.799)"/><path d="M471.586 200.178 628.723 242.186 628.55 242.83 471.414 200.822ZM628.381 238.3 635.077 244.23 626.315 246.028Z" fill="#A5A5A5"/><path d="M0.0560732-0.328583 267.067 45.2373 266.955 45.8945-0.0560732 0.328583ZM266.369 41.3985 273.582 46.6872 265.024 49.2845Z" fill="#4472C4" transform="matrix(1 0 0 -1 114.5 274.187)"/><path d="M115.639 273.197 381.531 395.154 381.253 395.76 115.361 273.803ZM381.848 391.265 387.452 398.236 378.512 398.537Z" fill="#4472C4"/><text font-family="Calibri,Calibri_MSFontService,sans-serif" font-weight="400" font-size="24" transform="translate(403.057 152)">Kernels<tspan x="183.407" y="0">Output FM</tspan><tspan x="-317.715" y="0">Input FM</tspan><tspan font-family="Cambria Math,Cambria Math_MSFontService,sans-serif" x="-87.6053" y="159">∗</tspan></text><path d="M310.5 303C310.5 296.649 315.649 291.5 322 291.5 328.351 291.5 333.5 296.649 333.5 303 333.5 309.351 328.351 314.5 322 314.5 315.649 314.5 310.5 309.351 310.5 303Z" stroke="#000000" stroke-linejoin="round" stroke-miterlimit="10" fill="none" fill-rule="evenodd"/><path d="M510.5 297.25 529 297.25 529 291.5 540.5 303 529 314.5 529 308.75 510.5 308.75Z" stroke="#2F528F" stroke-width="1.33333" stroke-miterlimit="8" fill="#4472C4" fill-rule="evenodd"/></g></svg>