<svg width="1109" height="529" xmlns="http://www.w3.org/2000/svg" xmlns:xlink="http://www.w3.org/1999/xlink" overflow="hidden"><defs><clipPath id="clip0"><path d="M99 41 1208 41 1208 570 99 570Z" fill-rule="evenodd" clip-rule="evenodd"/></clipPath><linearGradient x1="814.5" y1="442.5" x2="814.5" y2="473.5" gradientUnits="userSpaceOnUse" spreadMethod="reflect" id="fill1"><stop offset="0" stop-color="#4C4C4C"/><stop offset="0.5" stop-color="#262626"/><stop offset="1"/></linearGradient><linearGradient x1="814.5" y1="442.5" x2="814.5" y2="473.5" gradientUnits="userSpaceOnUse" spreadMethod="reflect" id="fill2"><stop offset="0" stop-color="#3D3D3D"/><stop offset="0.5" stop-color="#1F1F1F"/><stop offset="1"/></linearGradient><linearGradient x1="814.5" y1="442.5" x2="814.5" y2="473.5" gradientUnits="userSpaceOnUse" spreadMethod="reflect" id="fill3"><stop offset="0" stop-color="#6F6F6F"/><stop offset="0.5" stop-color="#515151"/><stop offset="1" stop-color="#323232"/></linearGradient><linearGradient x1="792" y1="420.5" x2="792" y2="450.5" gradientUnits="userSpaceOnUse" spreadMethod="reflect" id="fill4"><stop offset="0" stop-color="#4C4C4C"/><stop offset="0.5" stop-color="#262626"/><stop offset="1"/></linearGradient><linearGradient x1="792" y1="420.5" x2="792" y2="450.5" gradientUnits="userSpaceOnUse" spreadMethod="reflect" id="fill5"><stop offset="0" stop-color="#3D3D3D"/><stop offset="0.5" stop-color="#1F1F1F"/><stop offset="1"/></linearGradient><linearGradient x1="792" y1="420.5" x2="792" y2="450.5" gradientUnits="userSpaceOnUse" spreadMethod="reflect" id="fill6"><stop offset="0" stop-color="#6F6F6F"/><stop offset="0.5" stop-color="#515151"/><stop offset="1" stop-color="#323232"/></linearGradient><linearGradient x1="814.5" y1="420.5" x2="814.5" y2="450.5" gradientUnits="userSpaceOnUse" spreadMethod="reflect" id="fill7"><stop offset="0" stop-color="#4C4C4C"/><stop offset="0.5" stop-color="#262626"/><stop offset="1"/></linearGradient><linearGradient x1="814.5" y1="420.5" x2="814.5" y2="450.5" gradientUnits="userSpaceOnUse" spreadMethod="reflect" id="fill8"><stop offset="0" stop-color="#3D3D3D"/><stop offset="0.5" stop-color="#1F1F1F"/><stop offset="1"/></linearGradient><linearGradient x1="814.5" y1="420.5" x2="814.5" y2="450.5" gradientUnits="userSpaceOnUse" spreadMethod="reflect" id="fill9"><stop offset="0" stop-color="#6F6F6F"/><stop offset="0.5" stop-color="#515151"/><stop offset="1" stop-color="#323232"/></linearGradient><linearGradient x1="466.5" y1="369.5" x2="466.5" y2="399.5" gradientUnits="userSpaceOnUse" spreadMethod="reflect" id="fill10"><stop offset="0" stop-color="#4C4C4C"/><stop offset="0.5" stop-color="#262626"/><stop offset="1"/></linearGradient><linearGradient x1="466.5" y1="369.5" x2="466.5" y2="399.5" gradientUnits="userSpaceOnUse" spreadMethod="reflect" id="fill11"><stop offset="0" stop-color="#3D3D3D"/><stop offset="0.5" stop-color="#1F1F1F"/><stop offset="1"/></linearGradient><linearGradient x1="466.5" y1="369.5" x2="466.5" y2="399.5" gradientUnits="userSpaceOnUse" spreadMethod="reflect" id="fill12"><stop offset="0" stop-color="#6F6F6F"/><stop offset="0.5" stop-color="#515151"/><stop offset="1" stop-color="#323232"/></linearGradient><linearGradient x1="459" y1="377.5" x2="459" y2="407.5" gradientUnits="userSpaceOnUse" spreadMethod="reflect" id="fill13"><stop offset="0" stop-color="#4C4C4C"/><stop offset="0.5" stop-color="#262626"/><stop offset="1"/></linearGradient><linearGradient x1="459" y1="377.5" x2="459" y2="407.5" gradientUnits="userSpaceOnUse" spreadMethod="reflect" id="fill14"><stop offset="0" stop-color="#3D3D3D"/><stop offset="0.5" stop-color="#1F1F1F"/><stop offset="1"/></linearGradient><linearGradient x1="459" y1="377.5" x2="459" y2="407.5" gradientUnits="userSpaceOnUse" spreadMethod="reflect" id="fill15"><stop offset="0" stop-color="#6F6F6F"/><stop offset="0.5" stop-color="#515151"/><stop offset="1" stop-color="#323232"/></linearGradient><linearGradient x1="451.5" y1="384.5" x2="451.5" y2="415.5" gradientUnits="userSpaceOnUse" spreadMethod="reflect" id="fill16"><stop offset="0" stop-color="#4C4C4C"/><stop offset="0.5" stop-color="#262626"/><stop offset="1"/></linearGradient><linearGradient x1="451.5" y1="384.5" x2="451.5" y2="415.5" gradientUnits="userSpaceOnUse" spreadMethod="reflect" id="fill17"><stop offset="0" stop-color="#3D3D3D"/><stop offset="0.5" stop-color="#1F1F1F"/><stop offset="1"/></linearGradient><linearGradient x1="451.5" y1="384.5" x2="451.5" y2="415.5" gradientUnits="userSpaceOnUse" spreadMethod="reflect" id="fill18"><stop offset="0" stop-color="#6F6F6F"/><stop offset="0.5" stop-color="#515151"/><stop offset="1" stop-color="#323232"/></linearGradient><linearGradient x1="443.5" y1="392.5" x2="443.5" y2="422.5" gradientUnits="userSpaceOnUse" spreadMethod="reflect" id="fill19"><stop offset="0" stop-color="#4C4C4C"/><stop offset="0.5" stop-color="#262626"/><stop offset="1"/></linearGradient><linearGradient x1="443.5" y1="392.5" x2="443.5" y2="422.5" gradientUnits="userSpaceOnUse" spreadMethod="reflect" id="fill20"><stop offset="0" stop-color="#3D3D3D"/><stop offset="0.5" stop-color="#1F1F1F"/><stop offset="1"/></linearGradient><linearGradient x1="443.5" y1="392.5" x2="443.5" y2="422.5" gradientUnits="userSpaceOnUse" spreadMethod="reflect" id="fill21"><stop offset="0" stop-color="#6F6F6F"/><stop offset="0.5" stop-color="#515151"/><stop offset="1" stop-color="#323232"/></linearGradient></defs><g clip-path="url(#clip0)" transform="translate(-99 -41)"><text font-family="Cambria Math,Cambria Math_MSFontService,sans-serif" font-weight="400" font-size="24" transform="translate(314.618 219)">∗</text><path d="M305.5 211C305.5 202.44 312.44 195.5 321 195.5 329.56 195.5 336.5 202.44 336.5 211 336.5 219.56 329.56 226.5 321 226.5 312.44 226.5 305.5 219.56 305.5 211Z" stroke="#000000" stroke-linejoin="round" stroke-miterlimit="10" fill="none" fill-rule="evenodd"/><path d="M622.5 202.25 641 202.25 641 193.5 658.5 211 641 228.5 641 219.75 622.5 219.75Z" stroke="#2F528F" stroke-width="1.33333" stroke-miterlimit="8" fill="#4472C4" fill-rule="evenodd"/><path d="M622.5 445.25 641 445.25 641 436.5 658.5 454 641 471.5 641 462.75 622.5 462.75Z" stroke="#2F528F" stroke-width="1.33333" stroke-miterlimit="8" fill="#4472C4" fill-rule="evenodd"/><rect x="123.5" y="159" width="22.5" height="22.5" fill="#4472C4"/><path d="M146 159 153.5 151.5 153.5 174 146 181.5Z" fill="#375C9E" fill-rule="evenodd"/><path d="M123.5 159 131 151.5 153.5 151.5 146 159Z" fill="#698ED0" fill-rule="evenodd"/><path d="M123.5 159 131 151.5 153.5 151.5 153.5 174 146 181.5 123.5 181.5ZM123.5 159 146 159 153.5 151.5M146 159 146 181.5" stroke="#2F528F" stroke-width="1.33333" stroke-miterlimit="8" fill="none" fill-rule="evenodd"/><rect x="191.5" y="226" width="22.5" height="22.5" fill="#4472C4"/><path d="M214 226 221.5 218.5 221.5 241 214 248.5Z" fill="#375C9E" fill-rule="evenodd"/><path d="M191.5 226 199 218.5 221.5 218.5 214 226Z" fill="#698ED0" fill-rule="evenodd"/><path d="M191.5 226 199 218.5 221.5 218.5 221.5 241 214 248.5 191.5 248.5ZM191.5 226 214 226 221.5 218.5M214 226 214 248.5" stroke="#2F528F" stroke-width="1.33333" stroke-miterlimit="8" fill="none" fill-rule="evenodd"/><rect x="191.5" y="203" width="22.5" height="23.5" fill="#4472C4"/><path d="M214 203 221.5 195.5 221.5 219 214 226.5Z" fill="#375C9E" fill-rule="evenodd"/><path d="M191.5 203 199 195.5 221.5 195.5 214 203Z" fill="#698ED0" fill-rule="evenodd"/><path d="M191.5 203 199 195.5 221.5 195.5 221.5 219 214 226.5 191.5 226.5ZM191.5 203 214 203 221.5 195.5M214 203 214 226.5" stroke="#2F528F" stroke-width="1.33333" stroke-miterlimit="8" fill="none" fill-rule="evenodd"/><rect x="191.5" y="181" width="22.5" height="22.5" fill="#4472C4"/><path d="M214 181 221.5 173.5 221.5 196 214 203.5Z" fill="#375C9E" fill-rule="evenodd"/><path d="M191.5 181 199 173.5 221.5 173.5 214 181Z" fill="#698ED0" fill-rule="evenodd"/><path d="M191.5 181 199 173.5 221.5 173.5 221.5 196 214 203.5 191.5 203.5ZM191.5 181 214 181 221.5 173.5M214 181 214 203.5" stroke="#2F528F" stroke-width="1.33333" stroke-miterlimit="8" fill="none" fill-rule="evenodd"/><rect x="146.5" y="159" width="22.5" height="22.5" fill="#4472C4"/><path d="M169 159 176.5 151.5 176.5 174 169 181.5Z" fill="#375C9E" fill-rule="evenodd"/><path d="M146.5 159 154 151.5 176.5 151.5 169 159Z" fill="#698ED0" fill-rule="evenodd"/><path d="M146.5 159 154 151.5 176.5 151.5 176.5 174 169 181.5 146.5 181.5ZM146.5 159 169 159 176.5 151.5M169 159 169 181.5" stroke="#2F528F" stroke-width="1.33333" stroke-miterlimit="8" fill="none" fill-rule="evenodd"/><rect x="168.5" y="159" width="22.5" height="22.5" fill="#4472C4"/><path d="M191 159 198.5 151.5 198.5 174 191 181.5Z" fill="#375C9E" fill-rule="evenodd"/><path d="M168.5 159 176 151.5 198.5 151.5 191 159Z" fill="#698ED0" fill-rule="evenodd"/><path d="M168.5 159 176 151.5 198.5 151.5 198.5 174 191 181.5 168.5 181.5ZM168.5 159 191 159 198.5 151.5M191 159 191 181.5" stroke="#2F528F" stroke-width="1.33333" stroke-miterlimit="8" fill="none" fill-rule="evenodd"/><rect x="191.5" y="158" width="22.5" height="23.5" fill="#4472C4"/><path d="M214 158 221.5 150.5 221.5 174 214 181.5Z" fill="#375C9E" fill-rule="evenodd"/><path d="M191.5 158 199 150.5 221.5 150.5 214 158Z" fill="#698ED0" fill-rule="evenodd"/><path d="M191.5 158 199 150.5 221.5 150.5 221.5 174 214 181.5 191.5 181.5ZM191.5 158 214 158 221.5 150.5M214 158 214 181.5" stroke="#2F528F" stroke-width="1.33333" stroke-miterlimit="8" fill="none" fill-rule="evenodd"/><rect x="115.5" y="166" width="23.5" height="22.5" fill="#FFC000"/><path d="M139 166 146.5 158.5 146.5 181 139 188.5Z" fill="#CD9A00" fill-rule="evenodd"/><path d="M115.5 166 123 158.5 146.5 158.5 139 166Z" fill="#FFCC32" fill-rule="evenodd"/><path d="M115.5 166 123 158.5 146.5 158.5 146.5 181 139 188.5 115.5 188.5ZM115.5 166 139 166 146.5 158.5M139 166 139 188.5" stroke="#BC8C00" stroke-width="1.33333" stroke-miterlimit="8" fill="none" fill-rule="evenodd"/><rect x="183.5" y="234" width="22.5" height="22.5" fill="#FFC000"/><path d="M206 234 213.5 226.5 213.5 249 206 256.5Z" fill="#CD9A00" fill-rule="evenodd"/><path d="M183.5 234 191 226.5 213.5 226.5 206 234Z" fill="#FFCC32" fill-rule="evenodd"/><path d="M183.5 234 191 226.5 213.5 226.5 213.5 249 206 256.5 183.5 256.5ZM183.5 234 206 234 213.5 226.5M206 234 206 256.5" stroke="#BC8C00" stroke-width="1.33333" stroke-miterlimit="8" fill="none" fill-rule="evenodd"/><rect x="183.5" y="211" width="22.5" height="22.5" fill="#FFC000"/><path d="M206 211 213.5 203.5 213.5 226 206 233.5Z" fill="#CD9A00" fill-rule="evenodd"/><path d="M183.5 211 191 203.5 213.5 203.5 206 211Z" fill="#FFCC32" fill-rule="evenodd"/><path d="M183.5 211 191 203.5 213.5 203.5 213.5 226 206 233.5 183.5 233.5ZM183.5 211 206 211 213.5 203.5M206 211 206 233.5" stroke="#BC8C00" stroke-width="1.33333" stroke-miterlimit="8" fill="none" fill-rule="evenodd"/><rect x="183.5" y="189" width="22.5" height="22.5" fill="#FFC000"/><path d="M206 189 213.5 181.5 213.5 204 206 211.5Z" fill="#CD9A00" fill-rule="evenodd"/><path d="M183.5 189 191 181.5 213.5 181.5 206 189Z" fill="#FFCC32" fill-rule="evenodd"/><path d="M183.5 189 191 181.5 213.5 181.5 213.5 204 206 211.5 183.5 211.5ZM183.5 189 206 189 213.5 181.5M206 189 206 211.5" stroke="#BC8C00" stroke-width="1.33333" stroke-miterlimit="8" fill="none" fill-rule="evenodd"/><rect x="138.5" y="166" width="22.5" height="22.5" fill="#FFC000"/><path d="M161 166 168.5 158.5 168.5 181 161 188.5Z" fill="#CD9A00" fill-rule="evenodd"/><path d="M138.5 166 146 158.5 168.5 158.5 161 166Z" fill="#FFCC32" fill-rule="evenodd"/><path d="M138.5 166 146 158.5 168.5 158.5 168.5 181 161 188.5 138.5 188.5ZM138.5 166 161 166 168.5 158.5M161 166 161 188.5" stroke="#BC8C00" stroke-width="1.33333" stroke-miterlimit="8" fill="none" fill-rule="evenodd"/><rect x="161.5" y="166" width="22.5" height="22.5" fill="#FFC000"/><path d="M184 166 191.5 158.5 191.5 181 184 188.5Z" fill="#CD9A00" fill-rule="evenodd"/><path d="M161.5 166 169 158.5 191.5 158.5 184 166Z" fill="#FFCC32" fill-rule="evenodd"/><path d="M161.5 166 169 158.5 191.5 158.5 191.5 181 184 188.5 161.5 188.5ZM161.5 166 184 166 191.5 158.5M184 166 184 188.5" stroke="#BC8C00" stroke-width="1.33333" stroke-miterlimit="8" fill="none" fill-rule="evenodd"/><rect x="183.5" y="166" width="22.5" height="22.5" fill="#FFC000"/><path d="M206 166 213.5 158.5 213.5 181 206 188.5Z" fill="#CD9A00" fill-rule="evenodd"/><path d="M183.5 166 191 158.5 213.5 158.5 206 166Z" fill="#FFCC32" fill-rule="evenodd"/><path d="M183.5 166 191 158.5 213.5 158.5 213.5 181 206 188.5 183.5 188.5ZM183.5 166 206 166 213.5 158.5M206 166 206 188.5" stroke="#BC8C00" stroke-width="1.33333" stroke-miterlimit="8" fill="none" fill-rule="evenodd"/><rect x="108.5" y="174" width="22.5" height="22.5" fill="#70AD47"/><path d="M131 174 138.5 166.5 138.5 189 131 196.5Z" fill="#5A8B39" fill-rule="evenodd"/><path d="M108.5 174 116 166.5 138.5 166.5 131 174Z" fill="#8CBD6B" fill-rule="evenodd"/><path d="M108.5 174 116 166.5 138.5 166.5 138.5 189 131 196.5 108.5 196.5ZM108.5 174 131 174 138.5 166.5M131 174 131 196.5" stroke="#507E32" stroke-width="1.33333" stroke-miterlimit="8" fill="none" fill-rule="evenodd"/><rect x="176.5" y="241" width="22.5" height="22.5" fill="#70AD47"/><path d="M199 241 206.5 233.5 206.5 256 199 263.5Z" fill="#5A8B39" fill-rule="evenodd"/><path d="M176.5 241 184 233.5 206.5 233.5 199 241Z" fill="#8CBD6B" fill-rule="evenodd"/><path d="M176.5 241 184 233.5 206.5 233.5 206.5 256 199 263.5 176.5 263.5ZM176.5 241 199 241 206.5 233.5M199 241 199 263.5" stroke="#507E32" stroke-width="1.33333" stroke-miterlimit="8" fill="none" fill-rule="evenodd"/><rect x="176.5" y="219" width="22.5" height="22.5" fill="#70AD47"/><path d="M199 219 206.5 211.5 206.5 234 199 241.5Z" fill="#5A8B39" fill-rule="evenodd"/><path d="M176.5 219 184 211.5 206.5 211.5 199 219Z" fill="#8CBD6B" fill-rule="evenodd"/><path d="M176.5 219 184 211.5 206.5 211.5 206.5 234 199 241.5 176.5 241.5ZM176.5 219 199 219 206.5 211.5M199 219 199 241.5" stroke="#507E32" stroke-width="1.33333" stroke-miterlimit="8" fill="none" fill-rule="evenodd"/><rect x="176.5" y="196" width="22.5" height="22.5" fill="#70AD47"/><path d="M199 196 206.5 188.5 206.5 211 199 218.5Z" fill="#5A8B39" fill-rule="evenodd"/><path d="M176.5 196 184 188.5 206.5 188.5 199 196Z" fill="#8CBD6B" fill-rule="evenodd"/><path d="M176.5 196 184 188.5 206.5 188.5 206.5 211 199 218.5 176.5 218.5ZM176.5 196 199 196 206.5 188.5M199 196 199 218.5" stroke="#507E32" stroke-width="1.33333" stroke-miterlimit="8" fill="none" fill-rule="evenodd"/><rect x="130.5" y="174" width="23.5" height="22.5" fill="#70AD47"/><path d="M154 174 161.5 166.5 161.5 189 154 196.5Z" fill="#5A8B39" fill-rule="evenodd"/><path d="M130.5 174 138 166.5 161.5 166.5 154 174Z" fill="#8CBD6B" fill-rule="evenodd"/><path d="M130.5 174 138 166.5 161.5 166.5 161.5 189 154 196.5 130.5 196.5ZM130.5 174 154 174 161.5 166.5M154 174 154 196.5" stroke="#507E32" stroke-width="1.33333" stroke-miterlimit="8" fill="none" fill-rule="evenodd"/><rect x="153.5" y="174" width="22.5" height="22.5" fill="#70AD47"/><path d="M176 174 183.5 166.5 183.5 189 176 196.5Z" fill="#5A8B39" fill-rule="evenodd"/><path d="M153.5 174 161 166.5 183.5 166.5 176 174Z" fill="#8CBD6B" fill-rule="evenodd"/><path d="M153.5 174 161 166.5 183.5 166.5 183.5 189 176 196.5 153.5 196.5ZM153.5 174 176 174 183.5 166.5M176 174 176 196.5" stroke="#507E32" stroke-width="1.33333" stroke-miterlimit="8" fill="none" fill-rule="evenodd"/><rect x="176.5" y="174" width="22.5" height="22.5" fill="#70AD47"/><path d="M199 174 206.5 166.5 206.5 189 199 196.5Z" fill="#5A8B39" fill-rule="evenodd"/><path d="M176.5 174 184 166.5 206.5 166.5 199 174Z" fill="#8CBD6B" fill-rule="evenodd"/><path d="M176.5 174 184 166.5 206.5 166.5 206.5 189 199 196.5 176.5 196.5ZM176.5 174 199 174 206.5 166.5M199 174 199 196.5" stroke="#507E32" stroke-width="1.33333" stroke-miterlimit="8" fill="none" fill-rule="evenodd"/><rect x="100.5" y="249" width="22.5" height="22.5" fill="#ED7D31"/><path d="M123 249 130.5 241.5 130.5 264 123 271.5Z" fill="#BF6427" fill-rule="evenodd"/><path d="M100.5 249 108 241.5 130.5 241.5 123 249Z" fill="#F19659" fill-rule="evenodd"/><path d="M100.5 249 108 241.5 130.5 241.5 130.5 264 123 271.5 100.5 271.5ZM100.5 249 123 249 130.5 241.5M123 249 123 271.5" stroke="#AE5A21" stroke-width="1.33333" stroke-miterlimit="8" fill="none" fill-rule="evenodd"/><rect x="123.5" y="249" width="22.5" height="22.5" fill="#ED7D31"/><path d="M146 249 153.5 241.5 153.5 264 146 271.5Z" fill="#BF6427" fill-rule="evenodd"/><path d="M123.5 249 131 241.5 153.5 241.5 146 249Z" fill="#F19659" fill-rule="evenodd"/><path d="M123.5 249 131 241.5 153.5 241.5 153.5 264 146 271.5 123.5 271.5ZM123.5 249 146 249 153.5 241.5M146 249 146 271.5" stroke="#AE5A21" stroke-width="1.33333" stroke-miterlimit="8" fill="none" fill-rule="evenodd"/><rect x="145.5" y="249" width="22.5" height="22.5" fill="#ED7D31"/><path d="M168 249 175.5 241.5 175.5 264 168 271.5Z" fill="#BF6427" fill-rule="evenodd"/><path d="M145.5 249 153 241.5 175.5 241.5 168 249Z" fill="#F19659" fill-rule="evenodd"/><path d="M145.5 249 153 241.5 175.5 241.5 175.5 264 168 271.5 145.5 271.5ZM145.5 249 168 249 175.5 241.5M168 249 168 271.5" stroke="#AE5A21" stroke-width="1.33333" stroke-miterlimit="8" fill="none" fill-rule="evenodd"/><rect x="168.5" y="249" width="22.5" height="22.5" fill="#ED7D31"/><path d="M191 249 198.5 241.5 198.5 264 191 271.5Z" fill="#BF6427" fill-rule="evenodd"/><path d="M168.5 249 176 241.5 198.5 241.5 191 249Z" fill="#F19659" fill-rule="evenodd"/><path d="M168.5 249 176 241.5 198.5 241.5 198.5 264 191 271.5 168.5 271.5ZM168.5 249 191 249 198.5 241.5M191 249 191 271.5" stroke="#AE5A21" stroke-width="1.33333" stroke-miterlimit="8" fill="none" fill-rule="evenodd"/><rect x="100.5" y="226" width="22.5" height="23.5" fill="#ED7D31"/><path d="M123 226 130.5 218.5 130.5 242 123 249.5Z" fill="#BF6427" fill-rule="evenodd"/><path d="M100.5 226 108 218.5 130.5 218.5 123 226Z" fill="#F19659" fill-rule="evenodd"/><path d="M100.5 226 108 218.5 130.5 218.5 130.5 242 123 249.5 100.5 249.5ZM100.5 226 123 226 130.5 218.5M123 226 123 249.5" stroke="#AE5A21" stroke-width="1.33333" stroke-miterlimit="8" fill="none" fill-rule="evenodd"/><rect x="123.5" y="226" width="22.5" height="23.5" fill="#ED7D31"/><path d="M146 226 153.5 218.5 153.5 242 146 249.5Z" fill="#BF6427" fill-rule="evenodd"/><path d="M123.5 226 131 218.5 153.5 218.5 146 226Z" fill="#F19659" fill-rule="evenodd"/><path d="M123.5 226 131 218.5 153.5 218.5 153.5 242 146 249.5 123.5 249.5ZM123.5 226 146 226 153.5 218.5M146 226 146 249.5" stroke="#AE5A21" stroke-width="1.33333" stroke-miterlimit="8" fill="none" fill-rule="evenodd"/><rect x="145.5" y="226" width="22.5" height="22.5" fill="#ED7D31"/><path d="M168 226 175.5 218.5 175.5 241 168 248.5Z" fill="#BF6427" fill-rule="evenodd"/><path d="M145.5 226 153 218.5 175.5 218.5 168 226Z" fill="#F19659" fill-rule="evenodd"/><path d="M145.5 226 153 218.5 175.5 218.5 175.5 241 168 248.5 145.5 248.5ZM145.5 226 168 226 175.5 218.5M168 226 168 248.5" stroke="#AE5A21" stroke-width="1.33333" stroke-miterlimit="8" fill="none" fill-rule="evenodd"/><rect x="168.5" y="226" width="22.5" height="22.5" fill="#ED7D31"/><path d="M191 226 198.5 218.5 198.5 241 191 248.5Z" fill="#BF6427" fill-rule="evenodd"/><path d="M168.5 226 176 218.5 198.5 218.5 191 226Z" fill="#F19659" fill-rule="evenodd"/><path d="M168.5 226 176 218.5 198.5 218.5 198.5 241 191 248.5 168.5 248.5ZM168.5 226 191 226 198.5 218.5M191 226 191 248.5" stroke="#AE5A21" stroke-width="1.33333" stroke-miterlimit="8" fill="none" fill-rule="evenodd"/><rect x="100.5" y="204" width="22.5" height="22.5" fill="#ED7D31"/><path d="M123 204 130.5 196.5 130.5 219 123 226.5Z" fill="#BF6427" fill-rule="evenodd"/><path d="M100.5 204 108 196.5 130.5 196.5 123 204Z" fill="#F19659" fill-rule="evenodd"/><path d="M100.5 204 108 196.5 130.5 196.5 130.5 219 123 226.5 100.5 226.5ZM100.5 204 123 204 130.5 196.5M123 204 123 226.5" stroke="#AE5A21" stroke-width="1.33333" stroke-miterlimit="8" fill="none" fill-rule="evenodd"/><rect x="122.5" y="204" width="23.5" height="22.5" fill="#ED7D31"/><path d="M146 204 153.5 196.5 153.5 219 146 226.5Z" fill="#BF6427" fill-rule="evenodd"/><path d="M122.5 204 130 196.5 153.5 196.5 146 204Z" fill="#F19659" fill-rule="evenodd"/><path d="M122.5 204 130 196.5 153.5 196.5 153.5 219 146 226.5 122.5 226.5ZM122.5 204 146 204 153.5 196.5M146 204 146 226.5" stroke="#AE5A21" stroke-width="1.33333" stroke-miterlimit="8" fill="none" fill-rule="evenodd"/><rect x="145.5" y="204" width="22.5" height="22.5" fill="#ED7D31"/><path d="M168 204 175.5 196.5 175.5 219 168 226.5Z" fill="#BF6427" fill-rule="evenodd"/><path d="M145.5 204 153 196.5 175.5 196.5 168 204Z" fill="#F19659" fill-rule="evenodd"/><path d="M145.5 204 153 196.5 175.5 196.5 175.5 219 168 226.5 145.5 226.5ZM145.5 204 168 204 175.5 196.5M168 204 168 226.5" stroke="#AE5A21" stroke-width="1.33333" stroke-miterlimit="8" fill="none" fill-rule="evenodd"/><rect x="168.5" y="204" width="22.5" height="22.5" fill="#ED7D31"/><path d="M191 204 198.5 196.5 198.5 219 191 226.5Z" fill="#BF6427" fill-rule="evenodd"/><path d="M168.5 204 176 196.5 198.5 196.5 191 204Z" fill="#F19659" fill-rule="evenodd"/><path d="M168.5 204 176 196.5 198.5 196.5 198.5 219 191 226.5 168.5 226.5ZM168.5 204 191 204 198.5 196.5M191 204 191 226.5" stroke="#AE5A21" stroke-width="1.33333" stroke-miterlimit="8" fill="none" fill-rule="evenodd"/><rect x="100.5" y="182" width="22.5" height="22.5" fill="#ED7D31"/><path d="M123 182 130.5 174.5 130.5 197 123 204.5Z" fill="#BF6427" fill-rule="evenodd"/><path d="M100.5 182 108 174.5 130.5 174.5 123 182Z" fill="#F19659" fill-rule="evenodd"/><path d="M100.5 182 108 174.5 130.5 174.5 130.5 197 123 204.5 100.5 204.5ZM100.5 182 123 182 130.5 174.5M123 182 123 204.5" stroke="#AE5A21" stroke-width="1.33333" stroke-miterlimit="8" fill="none" fill-rule="evenodd"/><rect x="122.5" y="182" width="23.5" height="22.5" fill="#ED7D31"/><path d="M146 182 153.5 174.5 153.5 197 146 204.5Z" fill="#BF6427" fill-rule="evenodd"/><path d="M122.5 182 130 174.5 153.5 174.5 146 182Z" fill="#F19659" fill-rule="evenodd"/><path d="M122.5 182 130 174.5 153.5 174.5 153.5 197 146 204.5 122.5 204.5ZM122.5 182 146 182 153.5 174.5M146 182 146 204.5" stroke="#AE5A21" stroke-width="1.33333" stroke-miterlimit="8" fill="none" fill-rule="evenodd"/><rect x="145.5" y="181" width="22.5" height="23.5" fill="#ED7D31"/><path d="M168 181 175.5 173.5 175.5 197 168 204.5Z" fill="#BF6427" fill-rule="evenodd"/><path d="M145.5 181 153 173.5 175.5 173.5 168 181Z" fill="#F19659" fill-rule="evenodd"/><path d="M145.5 181 153 173.5 175.5 173.5 175.5 197 168 204.5 145.5 204.5ZM145.5 181 168 181 175.5 173.5M168 181 168 204.5" stroke="#AE5A21" stroke-width="1.33333" stroke-miterlimit="8" fill="none" fill-rule="evenodd"/><rect x="168.5" y="182" width="22.5" height="22.5" fill="#ED7D31"/><path d="M191 182 198.5 174.5 198.5 197 191 204.5Z" fill="#BF6427" fill-rule="evenodd"/><path d="M168.5 182 176 174.5 198.5 174.5 191 182Z" fill="#F19659" fill-rule="evenodd"/><path d="M168.5 182 176 174.5 198.5 174.5 198.5 197 191 204.5 168.5 204.5ZM168.5 182 191 182 198.5 174.5M191 182 191 204.5" stroke="#AE5A21" stroke-width="1.33333" stroke-miterlimit="8" fill="none" fill-rule="evenodd"/><rect x="496.5" y="218" width="23.5" height="22.5" fill="#4472C4"/><path d="M520 218 527.5 210.5 527.5 233 520 240.5Z" fill="#375C9E" fill-rule="evenodd"/><path d="M496.5 218 504 210.5 527.5 210.5 520 218Z" fill="#698ED0" fill-rule="evenodd"/><path d="M496.5 218 504 210.5 527.5 210.5 527.5 233 520 240.5 496.5 240.5ZM496.5 218 520 218 527.5 210.5M520 218 520 240.5" stroke="#2F528F" stroke-width="1.33333" stroke-miterlimit="8" fill="none" fill-rule="evenodd"/><rect x="496.5" y="196" width="23.5" height="22.5" fill="#4472C4"/><path d="M520 196 527.5 188.5 527.5 211 520 218.5Z" fill="#375C9E" fill-rule="evenodd"/><path d="M496.5 196 504 188.5 527.5 188.5 520 196Z" fill="#698ED0" fill-rule="evenodd"/><path d="M496.5 196 504 188.5 527.5 188.5 527.5 211 520 218.5 496.5 218.5ZM496.5 196 520 196 527.5 188.5M520 196 520 218.5" stroke="#2F528F" stroke-width="1.33333" stroke-miterlimit="8" fill="none" fill-rule="evenodd"/><rect x="451.5" y="173" width="22.5" height="22.5" fill="#4472C4"/><path d="M474 173 481.5 165.5 481.5 188 474 195.5Z" fill="#375C9E" fill-rule="evenodd"/><path d="M451.5 173 459 165.5 481.5 165.5 474 173Z" fill="#698ED0" fill-rule="evenodd"/><path d="M451.5 173 459 165.5 481.5 165.5 481.5 188 474 195.5 451.5 195.5ZM451.5 173 474 173 481.5 165.5M474 173 474 195.5" stroke="#2F528F" stroke-width="1.33333" stroke-miterlimit="8" fill="none" fill-rule="evenodd"/><rect x="474.5" y="173" width="22.5" height="22.5" fill="#4472C4"/><path d="M497 173 504.5 165.5 504.5 188 497 195.5Z" fill="#375C9E" fill-rule="evenodd"/><path d="M474.5 173 482 165.5 504.5 165.5 497 173Z" fill="#698ED0" fill-rule="evenodd"/><path d="M474.5 173 482 165.5 504.5 165.5 504.5 188 497 195.5 474.5 195.5ZM474.5 173 497 173 504.5 165.5M497 173 497 195.5" stroke="#2F528F" stroke-width="1.33333" stroke-miterlimit="8" fill="none" fill-rule="evenodd"/><rect x="496.5" y="173" width="23.5" height="22.5" fill="#4472C4"/><path d="M520 173 527.5 165.5 527.5 188 520 195.5Z" fill="#375C9E" fill-rule="evenodd"/><path d="M496.5 173 504 165.5 527.5 165.5 520 173Z" fill="#698ED0" fill-rule="evenodd"/><path d="M496.5 173 504 165.5 527.5 165.5 527.5 188 520 195.5 496.5 195.5ZM496.5 173 520 173 527.5 165.5M520 173 520 195.5" stroke="#2F528F" stroke-width="1.33333" stroke-miterlimit="8" fill="none" fill-rule="evenodd"/><rect x="485.5" y="230" width="22.5" height="22.5" fill="#FFC000"/><path d="M508 230 515.5 222.5 515.5 245 508 252.5Z" fill="#CD9A00" fill-rule="evenodd"/><path d="M485.5 230 493 222.5 515.5 222.5 508 230Z" fill="#FFCC32" fill-rule="evenodd"/><path d="M485.5 230 493 222.5 515.5 222.5 515.5 245 508 252.5 485.5 252.5ZM485.5 230 508 230 515.5 222.5M508 230 508 252.5" stroke="#BC8C00" stroke-width="1.33333" stroke-miterlimit="8" fill="none" fill-rule="evenodd"/><rect x="485.5" y="207" width="22.5" height="22.5" fill="#FFC000"/><path d="M508 207 515.5 199.5 515.5 222 508 229.5Z" fill="#CD9A00" fill-rule="evenodd"/><path d="M485.5 207 493 199.5 515.5 199.5 508 207Z" fill="#FFCC32" fill-rule="evenodd"/><path d="M485.5 207 493 199.5 515.5 199.5 515.5 222 508 229.5 485.5 229.5ZM485.5 207 508 207 515.5 199.5M508 207 508 229.5" stroke="#BC8C00" stroke-width="1.33333" stroke-miterlimit="8" fill="none" fill-rule="evenodd"/><rect x="440.5" y="185" width="22.5" height="22.5" fill="#FFC000"/><path d="M463 185 470.5 177.5 470.5 200 463 207.5Z" fill="#CD9A00" fill-rule="evenodd"/><path d="M440.5 185 448 177.5 470.5 177.5 463 185Z" fill="#FFCC32" fill-rule="evenodd"/><path d="M440.5 185 448 177.5 470.5 177.5 470.5 200 463 207.5 440.5 207.5ZM440.5 185 463 185 470.5 177.5M463 185 463 207.5" stroke="#BC8C00" stroke-width="1.33333" stroke-miterlimit="8" fill="none" fill-rule="evenodd"/><rect x="462.5" y="185" width="22.5" height="22.5" fill="#FFC000"/><path d="M485 185 492.5 177.5 492.5 200 485 207.5Z" fill="#CD9A00" fill-rule="evenodd"/><path d="M462.5 185 470 177.5 492.5 177.5 485 185Z" fill="#FFCC32" fill-rule="evenodd"/><path d="M462.5 185 470 177.5 492.5 177.5 492.5 200 485 207.5 462.5 207.5ZM462.5 185 485 185 492.5 177.5M485 185 485 207.5" stroke="#BC8C00" stroke-width="1.33333" stroke-miterlimit="8" fill="none" fill-rule="evenodd"/><rect x="485.5" y="185" width="22.5" height="22.5" fill="#FFC000"/><path d="M508 185 515.5 177.5 515.5 200 508 207.5Z" fill="#CD9A00" fill-rule="evenodd"/><path d="M485.5 185 493 177.5 515.5 177.5 508 185Z" fill="#FFCC32" fill-rule="evenodd"/><path d="M485.5 185 493 177.5 515.5 177.5 515.5 200 508 207.5 485.5 207.5ZM485.5 185 508 185 515.5 177.5M508 185 508 207.5" stroke="#BC8C00" stroke-width="1.33333" stroke-miterlimit="8" fill="none" fill-rule="evenodd"/><rect x="473.5" y="241" width="22.5" height="22.5" fill="#70AD47"/><path d="M496 241 503.5 233.5 503.5 256 496 263.5Z" fill="#5A8B39" fill-rule="evenodd"/><path d="M473.5 241 481 233.5 503.5 233.5 496 241Z" fill="#8CBD6B" fill-rule="evenodd"/><path d="M473.5 241 481 233.5 503.5 233.5 503.5 256 496 263.5 473.5 263.5ZM473.5 241 496 241 503.5 233.5M496 241 496 263.5" stroke="#507E32" stroke-width="1.33333" stroke-miterlimit="8" fill="none" fill-rule="evenodd"/><rect x="473.5" y="219" width="22.5" height="22.5" fill="#70AD47"/><path d="M496 219 503.5 211.5 503.5 234 496 241.5Z" fill="#5A8B39" fill-rule="evenodd"/><path d="M473.5 219 481 211.5 503.5 211.5 496 219Z" fill="#8CBD6B" fill-rule="evenodd"/><path d="M473.5 219 481 211.5 503.5 211.5 503.5 234 496 241.5 473.5 241.5ZM473.5 219 496 219 503.5 211.5M496 219 496 241.5" stroke="#507E32" stroke-width="1.33333" stroke-miterlimit="8" fill="none" fill-rule="evenodd"/><rect x="428.5" y="196" width="22.5" height="23.5" fill="#70AD47"/><path d="M451 196 458.5 188.5 458.5 212 451 219.5Z" fill="#5A8B39" fill-rule="evenodd"/><path d="M428.5 196 436 188.5 458.5 188.5 451 196Z" fill="#8CBD6B" fill-rule="evenodd"/><path d="M428.5 196 436 188.5 458.5 188.5 458.5 212 451 219.5 428.5 219.5ZM428.5 196 451 196 458.5 188.5M451 196 451 219.5" stroke="#507E32" stroke-width="1.33333" stroke-miterlimit="8" fill="none" fill-rule="evenodd"/><rect x="450.5" y="196.25" width="23.25" height="23.25" fill="#70AD47"/><path d="M473.75 196.25 481.5 188.5 481.5 211.75 473.75 219.5Z" fill="#5A8B39" fill-rule="evenodd"/><path d="M450.5 196.25 458.25 188.5 481.5 188.5 473.75 196.25Z" fill="#8CBD6B" fill-rule="evenodd"/><path d="M450.5 196.25 458.25 188.5 481.5 188.5 481.5 211.75 473.75 219.5 450.5 219.5ZM450.5 196.25 473.75 196.25 481.5 188.5M473.75 196.25 473.75 219.5" stroke="#507E32" stroke-width="1.33333" stroke-miterlimit="8" fill="none" fill-rule="evenodd"/><rect x="473.5" y="196" width="22.5" height="22.5" fill="#70AD47"/><path d="M496 196 503.5 188.5 503.5 211 496 218.5Z" fill="#5A8B39" fill-rule="evenodd"/><path d="M473.5 196 481 188.5 503.5 188.5 496 196Z" fill="#8CBD6B" fill-rule="evenodd"/><path d="M473.5 196 481 188.5 503.5 188.5 503.5 211 496 218.5 473.5 218.5ZM473.5 196 496 196 503.5 188.5M496 196 496 218.5" stroke="#507E32" stroke-width="1.33333" stroke-miterlimit="8" fill="none" fill-rule="evenodd"/><rect x="416.5" y="253" width="22.5" height="22.5" fill="#ED7D31"/><path d="M439 253 446.5 245.5 446.5 268 439 275.5Z" fill="#BF6427" fill-rule="evenodd"/><path d="M416.5 253 424 245.5 446.5 245.5 439 253Z" fill="#F19659" fill-rule="evenodd"/><path d="M416.5 253 424 245.5 446.5 245.5 446.5 268 439 275.5 416.5 275.5ZM416.5 253 439 253 446.5 245.5M439 253 439 275.5" stroke="#AE5A21" stroke-width="1.33333" stroke-miterlimit="8" fill="none" fill-rule="evenodd"/><rect x="439.5" y="253" width="22.5" height="22.5" fill="#ED7D31"/><path d="M462 253 469.5 245.5 469.5 268 462 275.5Z" fill="#BF6427" fill-rule="evenodd"/><path d="M439.5 253 447 245.5 469.5 245.5 462 253Z" fill="#F19659" fill-rule="evenodd"/><path d="M439.5 253 447 245.5 469.5 245.5 469.5 268 462 275.5 439.5 275.5ZM439.5 253 462 253 469.5 245.5M462 253 462 275.5" stroke="#AE5A21" stroke-width="1.33333" stroke-miterlimit="8" fill="none" fill-rule="evenodd"/><rect x="461.5" y="253" width="23.5" height="22.5" fill="#ED7D31"/><path d="M485 253 492.5 245.5 492.5 268 485 275.5Z" fill="#BF6427" fill-rule="evenodd"/><path d="M461.5 253 469 245.5 492.5 245.5 485 253Z" fill="#F19659" fill-rule="evenodd"/><path d="M461.5 253 469 245.5 492.5 245.5 492.5 268 485 275.5 461.5 275.5ZM461.5 253 485 253 492.5 245.5M485 253 485 275.5" stroke="#AE5A21" stroke-width="1.33333" stroke-miterlimit="8" fill="none" fill-rule="evenodd"/><rect x="416.5" y="230" width="22.5" height="22.5" fill="#ED7D31"/><path d="M439 230 446.5 222.5 446.5 245 439 252.5Z" fill="#BF6427" fill-rule="evenodd"/><path d="M416.5 230 424 222.5 446.5 222.5 439 230Z" fill="#F19659" fill-rule="evenodd"/><path d="M416.5 230 424 222.5 446.5 222.5 446.5 245 439 252.5 416.5 252.5ZM416.5 230 439 230 446.5 222.5M439 230 439 252.5" stroke="#AE5A21" stroke-width="1.33333" stroke-miterlimit="8" fill="none" fill-rule="evenodd"/><rect x="439.5" y="230" width="22.5" height="22.5" fill="#ED7D31"/><path d="M462 230 469.5 222.5 469.5 245 462 252.5Z" fill="#BF6427" fill-rule="evenodd"/><path d="M439.5 230 447 222.5 469.5 222.5 462 230Z" fill="#F19659" fill-rule="evenodd"/><path d="M439.5 230 447 222.5 469.5 222.5 469.5 245 462 252.5 439.5 252.5ZM439.5 230 462 230 469.5 222.5M462 230 462 252.5" stroke="#AE5A21" stroke-width="1.33333" stroke-miterlimit="8" fill="none" fill-rule="evenodd"/><rect x="462.5" y="230" width="22.5" height="22.5" fill="#ED7D31"/><path d="M485 230 492.5 222.5 492.5 245 485 252.5Z" fill="#BF6427" fill-rule="evenodd"/><path d="M462.5 230 470 222.5 492.5 222.5 485 230Z" fill="#F19659" fill-rule="evenodd"/><path d="M462.5 230 470 222.5 492.5 222.5 492.5 245 485 252.5 462.5 252.5ZM462.5 230 485 230 492.5 222.5M485 230 485 252.5" stroke="#AE5A21" stroke-width="1.33333" stroke-miterlimit="8" fill="none" fill-rule="evenodd"/><rect x="416.5" y="208" width="22.5" height="22.5" fill="#ED7D31"/><path d="M439 208 446.5 200.5 446.5 223 439 230.5Z" fill="#BF6427" fill-rule="evenodd"/><path d="M416.5 208 424 200.5 446.5 200.5 439 208Z" fill="#F19659" fill-rule="evenodd"/><path d="M416.5 208 424 200.5 446.5 200.5 446.5 223 439 230.5 416.5 230.5ZM416.5 208 439 208 446.5 200.5M439 208 439 230.5" stroke="#AE5A21" stroke-width="1.33333" stroke-miterlimit="8" fill="none" fill-rule="evenodd"/><rect x="439.5" y="208" width="22.5" height="22.5" fill="#ED7D31"/><path d="M462 208 469.5 200.5 469.5 223 462 230.5Z" fill="#BF6427" fill-rule="evenodd"/><path d="M439.5 208 447 200.5 469.5 200.5 462 208Z" fill="#F19659" fill-rule="evenodd"/><path d="M439.5 208 447 200.5 469.5 200.5 469.5 223 462 230.5 439.5 230.5ZM439.5 208 462 208 469.5 200.5M462 208 462 230.5" stroke="#AE5A21" stroke-width="1.33333" stroke-miterlimit="8" fill="none" fill-rule="evenodd"/><rect x="461.5" y="208" width="22.5" height="22.5" fill="#ED7D31"/><path d="M484 208 491.5 200.5 491.5 223 484 230.5Z" fill="#BF6427" fill-rule="evenodd"/><path d="M461.5 208 469 200.5 491.5 200.5 484 208Z" fill="#F19659" fill-rule="evenodd"/><path d="M461.5 208 469 200.5 491.5 200.5 491.5 223 484 230.5 461.5 230.5ZM461.5 208 484 208 491.5 200.5M484 208 484 230.5" stroke="#AE5A21" stroke-width="1.33333" stroke-miterlimit="8" fill="none" fill-rule="evenodd"/><rect x="799.5" y="211" width="22.5" height="22.5" fill="#4472C4"/><path d="M822 211 829.5 203.5 829.5 226 822 233.5Z" fill="#375C9E" fill-rule="evenodd"/><path d="M799.5 211 807 203.5 829.5 203.5 822 211Z" fill="#698ED0" fill-rule="evenodd"/><path d="M799.5 211 807 203.5 829.5 203.5 829.5 226 822 233.5 799.5 233.5ZM799.5 211 822 211 829.5 203.5M822 211 822 233.5" stroke="#2F528F" stroke-width="1.33333" stroke-miterlimit="8" fill="none" fill-rule="evenodd"/><rect x="777.5" y="188" width="22.5" height="22.5" fill="#4472C4"/><path d="M800 188 807.5 180.5 807.5 203 800 210.5Z" fill="#375C9E" fill-rule="evenodd"/><path d="M777.5 188 785 180.5 807.5 180.5 800 188Z" fill="#698ED0" fill-rule="evenodd"/><path d="M777.5 188 785 180.5 807.5 180.5 807.5 203 800 210.5 777.5 210.5ZM777.5 188 800 188 807.5 180.5M800 188 800 210.5" stroke="#2F528F" stroke-width="1.33333" stroke-miterlimit="8" fill="none" fill-rule="evenodd"/><rect x="799.5" y="188" width="22.5" height="22.5" fill="#4472C4"/><path d="M822 188 829.5 180.5 829.5 203 822 210.5Z" fill="#375C9E" fill-rule="evenodd"/><path d="M799.5 188 807 180.5 829.5 180.5 822 188Z" fill="#698ED0" fill-rule="evenodd"/><path d="M799.5 188 807 180.5 829.5 180.5 829.5 203 822 210.5 799.5 210.5ZM799.5 188 822 188 829.5 180.5M822 188 822 210.5" stroke="#2F528F" stroke-width="1.33333" stroke-miterlimit="8" fill="none" fill-rule="evenodd"/><rect x="792.5" y="218" width="22.5" height="23.5" fill="#FFC000"/><path d="M815 218 822.5 210.5 822.5 234 815 241.5Z" fill="#CD9A00" fill-rule="evenodd"/><path d="M792.5 218 800 210.5 822.5 210.5 815 218Z" fill="#FFCC32" fill-rule="evenodd"/><path d="M792.5 218 800 210.5 822.5 210.5 822.5 234 815 241.5 792.5 241.5ZM792.5 218 815 218 822.5 210.5M815 218 815 241.5" stroke="#BC8C00" stroke-width="1.33333" stroke-miterlimit="8" fill="none" fill-rule="evenodd"/><rect x="769.5" y="196" width="22.5" height="22.5" fill="#FFC000"/><path d="M792 196 799.5 188.5 799.5 211 792 218.5Z" fill="#CD9A00" fill-rule="evenodd"/><path d="M769.5 196 777 188.5 799.5 188.5 792 196Z" fill="#FFCC32" fill-rule="evenodd"/><path d="M769.5 196 777 188.5 799.5 188.5 799.5 211 792 218.5 769.5 218.5ZM769.5 196 792 196 799.5 188.5M792 196 792 218.5" stroke="#BC8C00" stroke-width="1.33333" stroke-miterlimit="8" fill="none" fill-rule="evenodd"/><rect x="792.5" y="196" width="22.5" height="22.5" fill="#FFC000"/><path d="M815 196 822.5 188.5 822.5 211 815 218.5Z" fill="#CD9A00" fill-rule="evenodd"/><path d="M792.5 196 800 188.5 822.5 188.5 815 196Z" fill="#FFCC32" fill-rule="evenodd"/><path d="M792.5 196 800 188.5 822.5 188.5 822.5 211 815 218.5 792.5 218.5ZM792.5 196 815 196 822.5 188.5M815 196 815 218.5" stroke="#BC8C00" stroke-width="1.33333" stroke-miterlimit="8" fill="none" fill-rule="evenodd"/><rect x="784.5" y="226" width="22.5" height="22.5" fill="#70AD47"/><path d="M807 226 814.5 218.5 814.5 241 807 248.5Z" fill="#5A8B39" fill-rule="evenodd"/><path d="M784.5 226 792 218.5 814.5 218.5 807 226Z" fill="#8CBD6B" fill-rule="evenodd"/><path d="M784.5 226 792 218.5 814.5 218.5 814.5 241 807 248.5 784.5 248.5ZM784.5 226 807 226 814.5 218.5M807 226 807 248.5" stroke="#507E32" stroke-width="1.33333" stroke-miterlimit="8" fill="none" fill-rule="evenodd"/><rect x="761.5" y="203.25" width="23.25" height="23.25" fill="#70AD47"/><path d="M784.75 203.25 792.5 195.5 792.5 218.75 784.75 226.5Z" fill="#5A8B39" fill-rule="evenodd"/><path d="M761.5 203.25 769.25 195.5 792.5 195.5 784.75 203.25Z" fill="#8CBD6B" fill-rule="evenodd"/><path d="M761.5 203.25 769.25 195.5 792.5 195.5 792.5 218.75 784.75 226.5 761.5 226.5ZM761.5 203.25 784.75 203.25 792.5 195.5M784.75 203.25 784.75 226.5" stroke="#507E32" stroke-width="1.33333" stroke-miterlimit="8" fill="none" fill-rule="evenodd"/><rect x="784.5" y="203" width="22.5" height="23.5" fill="#70AD47"/><path d="M807 203 814.5 195.5 814.5 219 807 226.5Z" fill="#5A8B39" fill-rule="evenodd"/><path d="M784.5 203 792 195.5 814.5 195.5 807 203Z" fill="#8CBD6B" fill-rule="evenodd"/><path d="M784.5 203 792 195.5 814.5 195.5 814.5 219 807 226.5 784.5 226.5ZM784.5 203 807 203 814.5 195.5M807 203 807 226.5" stroke="#507E32" stroke-width="1.33333" stroke-miterlimit="8" fill="none" fill-rule="evenodd"/><rect x="754.5" y="233" width="22.5" height="23.5" fill="#ED7D31"/><path d="M777 233 784.5 225.5 784.5 249 777 256.5Z" fill="#BF6427" fill-rule="evenodd"/><path d="M754.5 233 762 225.5 784.5 225.5 777 233Z" fill="#F19659" fill-rule="evenodd"/><path d="M754.5 233 762 225.5 784.5 225.5 784.5 249 777 256.5 754.5 256.5ZM754.5 233 777 233 784.5 225.5M777 233 777 256.5" stroke="#AE5A21" stroke-width="1.33333" stroke-miterlimit="8" fill="none" fill-rule="evenodd"/><rect x="776.5" y="233" width="23.5" height="22.5" fill="#ED7D31"/><path d="M800 233 807.5 225.5 807.5 248 800 255.5Z" fill="#BF6427" fill-rule="evenodd"/><path d="M776.5 233 784 225.5 807.5 225.5 800 233Z" fill="#F19659" fill-rule="evenodd"/><path d="M776.5 233 784 225.5 807.5 225.5 807.5 248 800 255.5 776.5 255.5ZM776.5 233 800 233 807.5 225.5M800 233 800 255.5" stroke="#AE5A21" stroke-width="1.33333" stroke-miterlimit="8" fill="none" fill-rule="evenodd"/><rect x="753.5" y="211" width="23.5" height="22.5" fill="#ED7D31"/><path d="M777 211 784.5 203.5 784.5 226 777 233.5Z" fill="#BF6427" fill-rule="evenodd"/><path d="M753.5 211 761 203.5 784.5 203.5 777 211Z" fill="#F19659" fill-rule="evenodd"/><path d="M753.5 211 761 203.5 784.5 203.5 784.5 226 777 233.5 753.5 233.5ZM753.5 211 777 211 784.5 203.5M777 211 777 233.5" stroke="#AE5A21" stroke-width="1.33333" stroke-miterlimit="8" fill="none" fill-rule="evenodd"/><rect x="776.5" y="211" width="22.5" height="23.5" fill="#ED7D31"/><path d="M799 211 806.5 203.5 806.5 227 799 234.5Z" fill="#BF6427" fill-rule="evenodd"/><path d="M776.5 211 784 203.5 806.5 203.5 799 211Z" fill="#F19659" fill-rule="evenodd"/><path d="M776.5 211 784 203.5 806.5 203.5 806.5 227 799 234.5 776.5 234.5ZM776.5 211 799 211 806.5 203.5M799 211 799 234.5" stroke="#AE5A21" stroke-width="1.33333" stroke-miterlimit="8" fill="none" fill-rule="evenodd"/><rect x="146.5" y="469" width="22.5" height="22.5" fill="#4472C4"/><path d="M169 469 176.5 461.5 176.5 484 169 491.5Z" fill="#375C9E" fill-rule="evenodd"/><path d="M146.5 469 154 461.5 176.5 461.5 169 469Z" fill="#698ED0" fill-rule="evenodd"/><path d="M146.5 469 154 461.5 176.5 461.5 176.5 484 169 491.5 146.5 491.5ZM146.5 469 169 469 176.5 461.5M169 469 169 491.5" stroke="#2F528F" stroke-width="1.33333" stroke-miterlimit="8" fill="none" fill-rule="evenodd"/><rect x="123.5" y="446" width="22.5" height="22.5" fill="#4472C4"/><path d="M146 446 153.5 438.5 153.5 461 146 468.5Z" fill="#375C9E" fill-rule="evenodd"/><path d="M123.5 446 131 438.5 153.5 438.5 146 446Z" fill="#698ED0" fill-rule="evenodd"/><path d="M123.5 446 131 438.5 153.5 438.5 153.5 461 146 468.5 123.5 468.5ZM123.5 446 146 446 153.5 438.5M146 446 146 468.5" stroke="#2F528F" stroke-width="1.33333" stroke-miterlimit="8" fill="none" fill-rule="evenodd"/><rect x="146.5" y="446" width="22.5" height="22.5" fill="#4472C4"/><path d="M169 446 176.5 438.5 176.5 461 169 468.5Z" fill="#375C9E" fill-rule="evenodd"/><path d="M146.5 446 154 438.5 176.5 438.5 169 446Z" fill="#698ED0" fill-rule="evenodd"/><path d="M146.5 446 154 438.5 176.5 438.5 176.5 461 169 468.5 146.5 468.5ZM146.5 446 169 446 176.5 438.5M169 446 169 468.5" stroke="#2F528F" stroke-width="1.33333" stroke-miterlimit="8" fill="none" fill-rule="evenodd"/><rect x="138.5" y="476" width="22.5" height="23.5" fill="#FFC000"/><path d="M161 476 168.5 468.5 168.5 492 161 499.5Z" fill="#CD9A00" fill-rule="evenodd"/><path d="M138.5 476 146 468.5 168.5 468.5 161 476Z" fill="#FFCC32" fill-rule="evenodd"/><path d="M138.5 476 146 468.5 168.5 468.5 168.5 492 161 499.5 138.5 499.5ZM138.5 476 161 476 168.5 468.5M161 476 161 499.5" stroke="#BC8C00" stroke-width="1.33333" stroke-miterlimit="8" fill="none" fill-rule="evenodd"/><rect x="116.5" y="454" width="22.5" height="22.5" fill="#FFC000"/><path d="M139 454 146.5 446.5 146.5 469 139 476.5Z" fill="#CD9A00" fill-rule="evenodd"/><path d="M116.5 454 124 446.5 146.5 446.5 139 454Z" fill="#FFCC32" fill-rule="evenodd"/><path d="M116.5 454 124 446.5 146.5 446.5 146.5 469 139 476.5 116.5 476.5ZM116.5 454 139 454 146.5 446.5M139 454 139 476.5" stroke="#BC8C00" stroke-width="1.33333" stroke-miterlimit="8" fill="none" fill-rule="evenodd"/><rect x="138.5" y="454" width="22.5" height="22.5" fill="#FFC000"/><path d="M161 454 168.5 446.5 168.5 469 161 476.5Z" fill="#CD9A00" fill-rule="evenodd"/><path d="M138.5 454 146 446.5 168.5 446.5 161 454Z" fill="#FFCC32" fill-rule="evenodd"/><path d="M138.5 454 146 446.5 168.5 446.5 168.5 469 161 476.5 138.5 476.5ZM138.5 454 161 454 168.5 446.5M161 454 161 476.5" stroke="#BC8C00" stroke-width="1.33333" stroke-miterlimit="8" fill="none" fill-rule="evenodd"/><rect x="131.5" y="484" width="22.5" height="22.5" fill="#70AD47"/><path d="M154 484 161.5 476.5 161.5 499 154 506.5Z" fill="#5A8B39" fill-rule="evenodd"/><path d="M131.5 484 139 476.5 161.5 476.5 154 484Z" fill="#8CBD6B" fill-rule="evenodd"/><path d="M131.5 484 139 476.5 161.5 476.5 161.5 499 154 506.5 131.5 506.5ZM131.5 484 154 484 161.5 476.5M154 484 154 506.5" stroke="#507E32" stroke-width="1.33333" stroke-miterlimit="8" fill="none" fill-rule="evenodd"/><rect x="108.5" y="461" width="22.5" height="23.5" fill="#70AD47"/><path d="M131 461 138.5 453.5 138.5 477 131 484.5Z" fill="#5A8B39" fill-rule="evenodd"/><path d="M108.5 461 116 453.5 138.5 453.5 131 461Z" fill="#8CBD6B" fill-rule="evenodd"/><path d="M108.5 461 116 453.5 138.5 453.5 138.5 477 131 484.5 108.5 484.5ZM108.5 461 131 461 138.5 453.5M131 461 131 484.5" stroke="#507E32" stroke-width="1.33333" stroke-miterlimit="8" fill="none" fill-rule="evenodd"/><rect x="131.5" y="461" width="22.5" height="23.5" fill="#70AD47"/><path d="M154 461 161.5 453.5 161.5 477 154 484.5Z" fill="#5A8B39" fill-rule="evenodd"/><path d="M131.5 461 139 453.5 161.5 453.5 154 461Z" fill="#8CBD6B" fill-rule="evenodd"/><path d="M131.5 461 139 453.5 161.5 453.5 161.5 477 154 484.5 131.5 484.5ZM131.5 461 154 461 161.5 453.5M154 461 154 484.5" stroke="#507E32" stroke-width="1.33333" stroke-miterlimit="8" fill="none" fill-rule="evenodd"/><rect x="100.5" y="491" width="22.5" height="22.5" fill="#ED7D31"/><path d="M123 491 130.5 483.5 130.5 506 123 513.5Z" fill="#BF6427" fill-rule="evenodd"/><path d="M100.5 491 108 483.5 130.5 483.5 123 491Z" fill="#F19659" fill-rule="evenodd"/><path d="M100.5 491 108 483.5 130.5 483.5 130.5 506 123 513.5 100.5 513.5ZM100.5 491 123 491 130.5 483.5M123 491 123 513.5" stroke="#AE5A21" stroke-width="1.33333" stroke-miterlimit="8" fill="none" fill-rule="evenodd"/><rect x="123.5" y="491" width="22.5" height="22.5" fill="#ED7D31"/><path d="M146 491 153.5 483.5 153.5 506 146 513.5Z" fill="#BF6427" fill-rule="evenodd"/><path d="M123.5 491 131 483.5 153.5 483.5 146 491Z" fill="#F19659" fill-rule="evenodd"/><path d="M123.5 491 131 483.5 153.5 483.5 153.5 506 146 513.5 123.5 513.5ZM123.5 491 146 491 153.5 483.5M146 491 146 513.5" stroke="#AE5A21" stroke-width="1.33333" stroke-miterlimit="8" fill="none" fill-rule="evenodd"/><rect x="100.5" y="469" width="22.5" height="22.5" fill="#ED7D31"/><path d="M123 469 130.5 461.5 130.5 484 123 491.5Z" fill="#BF6427" fill-rule="evenodd"/><path d="M100.5 469 108 461.5 130.5 461.5 123 469Z" fill="#F19659" fill-rule="evenodd"/><path d="M100.5 469 108 461.5 130.5 461.5 130.5 484 123 491.5 100.5 491.5ZM100.5 469 123 469 130.5 461.5M123 469 123 491.5" stroke="#AE5A21" stroke-width="1.33333" stroke-miterlimit="8" fill="none" fill-rule="evenodd"/><rect x="123.5" y="469" width="22.5" height="22.5" fill="#ED7D31"/><path d="M146 469 153.5 461.5 153.5 484 146 491.5Z" fill="#BF6427" fill-rule="evenodd"/><path d="M123.5 469 131 461.5 153.5 461.5 146 469Z" fill="#F19659" fill-rule="evenodd"/><path d="M123.5 469 131 461.5 153.5 461.5 153.5 484 146 491.5 123.5 491.5ZM123.5 469 146 469 153.5 461.5M146 469 146 491.5" stroke="#AE5A21" stroke-width="1.33333" stroke-miterlimit="8" fill="none" fill-rule="evenodd"/><text font-family="Cambria Math,Cambria Math_MSFontService,sans-serif" font-weight="400" font-size="24" transform="translate(314.618 462)">∗</text><path d="M305.5 454C305.5 445.44 312.44 438.5 321 438.5 329.56 438.5 336.5 445.44 336.5 454 336.5 462.56 329.56 469.5 321 469.5 312.44 469.5 305.5 462.56 305.5 454Z" stroke="#000000" stroke-linejoin="round" stroke-miterlimit="10" fill="none" fill-rule="evenodd"/><text font-family="Calibri,Calibri_MSFontService,sans-serif" font-weight="400" font-size="24" transform="translate(117.489 71)">Input <tspan x="57.5" y="0">FMs</tspan><tspan x="304.466" y="0">Kernels</tspan><tspan x="622.579" y="0">Output </tspan>FMs<tspan x="816.454" y="147">Depthwise</tspan><tspan x="925.848" y="147">convolution</tspan><tspan x="816.454" y="394">Pointwise</tspan><tspan x="916.421" y="394">convolution</tspan></text><rect x="807.5" y="443" width="22.5" height="22.5" fill="#FF0000"/><path d="M830 443 837.5 435.5 837.5 458 830 465.5Z" fill="#CD0000" fill-rule="evenodd"/><path d="M807.5 443 815 435.5 837.5 435.5 830 443Z" fill="#FF3232" fill-rule="evenodd"/><path d="M807.5 443 815 435.5 837.5 435.5 837.5 458 830 465.5 807.5 465.5ZM807.5 443 830 443 837.5 435.5M830 443 830 465.5" stroke="#843C0C" stroke-width="1.33333" stroke-miterlimit="8" fill="none" fill-rule="evenodd"/><rect x="784.5" y="420" width="22.5" height="23.5" fill="#FF0000"/><path d="M807 420 814.5 412.5 814.5 436 807 443.5Z" fill="#CD0000" fill-rule="evenodd"/><path d="M784.5 420 792 412.5 814.5 412.5 807 420Z" fill="#FF3232" fill-rule="evenodd"/><path d="M784.5 420 792 412.5 814.5 412.5 814.5 436 807 443.5 784.5 443.5ZM784.5 420 807 420 814.5 412.5M807 420 807 443.5" stroke="#843C0C" stroke-width="1.33333" stroke-miterlimit="8" fill="none" fill-rule="evenodd"/><rect x="807.5" y="420" width="22.5" height="23.5" fill="#FF0000"/><path d="M830 420 837.5 412.5 837.5 436 830 443.5Z" fill="#CD0000" fill-rule="evenodd"/><path d="M807.5 420 815 412.5 837.5 412.5 830 420Z" fill="#FF3232" fill-rule="evenodd"/><path d="M807.5 420 815 412.5 837.5 412.5 837.5 436 830 443.5 807.5 443.5ZM807.5 420 830 420 837.5 412.5M830 420 830 443.5" stroke="#843C0C" stroke-width="1.33333" stroke-miterlimit="8" fill="none" fill-rule="evenodd"/><rect x="799.5" y="450" width="22.5" height="23.5" fill="url(#fill1)"/><path d="M822 450 829.5 442.5 829.5 466 822 473.5Z" fill="url(#fill2)" fill-rule="evenodd"/><path d="M799.5 450 807 442.5 829.5 442.5 822 450Z" fill="url(#fill3)" fill-rule="evenodd"/><path d="M799.5 450 807 442.5 829.5 442.5 829.5 466 822 473.5 799.5 473.5ZM799.5 450 822 450 829.5 442.5M822 450 822 473.5" stroke="#181717" stroke-width="1.33333" stroke-miterlimit="8" fill="none" fill-rule="evenodd"/><rect x="776.5" y="428" width="23.5" height="22.5" fill="url(#fill4)"/><path d="M800 428 807.5 420.5 807.5 443 800 450.5Z" fill="url(#fill5)" fill-rule="evenodd"/><path d="M776.5 428 784 420.5 807.5 420.5 800 428Z" fill="url(#fill6)" fill-rule="evenodd"/><path d="M776.5 428 784 420.5 807.5 420.5 807.5 443 800 450.5 776.5 450.5ZM776.5 428 800 428 807.5 420.5M800 428 800 450.5" stroke="#181717" stroke-width="1.33333" stroke-miterlimit="8" fill="none" fill-rule="evenodd"/><rect x="799.5" y="428" width="22.5" height="22.5" fill="url(#fill7)"/><path d="M822 428 829.5 420.5 829.5 443 822 450.5Z" fill="url(#fill8)" fill-rule="evenodd"/><path d="M799.5 428 807 420.5 829.5 420.5 822 428Z" fill="url(#fill9)" fill-rule="evenodd"/><path d="M799.5 428 807 420.5 829.5 420.5 829.5 443 822 450.5 799.5 450.5ZM799.5 428 822 428 829.5 420.5M822 428 822 450.5" stroke="#181717" stroke-width="1.33333" stroke-miterlimit="8" fill="none" fill-rule="evenodd"/><rect x="791.5" y="458" width="23.5" height="22.5" fill="#A5A5A5"/><path d="M815 458 822.5 450.5 822.5 473 815 480.5Z" fill="#858585" fill-rule="evenodd"/><path d="M791.5 458 799 450.5 822.5 450.5 815 458Z" fill="#B7B7B7" fill-rule="evenodd"/><path d="M791.5 458 799 450.5 822.5 450.5 822.5 473 815 480.5 791.5 480.5ZM791.5 458 815 458 822.5 450.5M815 458 815 480.5" stroke="#787878" stroke-width="1.33333" stroke-miterlimit="8" fill="none" fill-rule="evenodd"/><rect x="769.5" y="435" width="22.5" height="23.5" fill="#A5A5A5"/><path d="M792 435 799.5 427.5 799.5 451 792 458.5Z" fill="#858585" fill-rule="evenodd"/><path d="M769.5 435 777 427.5 799.5 427.5 792 435Z" fill="#B7B7B7" fill-rule="evenodd"/><path d="M769.5 435 777 427.5 799.5 427.5 799.5 451 792 458.5 769.5 458.5ZM769.5 435 792 435 799.5 427.5M792 435 792 458.5" stroke="#787878" stroke-width="1.33333" stroke-miterlimit="8" fill="none" fill-rule="evenodd"/><rect x="791.5" y="435.25" width="23.25" height="23.25" fill="#A5A5A5"/><path d="M814.75 435.25 822.5 427.5 822.5 450.75 814.75 458.5Z" fill="#858585" fill-rule="evenodd"/><path d="M791.5 435.25 799.25 427.5 822.5 427.5 814.75 435.25Z" fill="#B7B7B7" fill-rule="evenodd"/><path d="M791.5 435.25 799.25 427.5 822.5 427.5 822.5 450.75 814.75 458.5 791.5 458.5ZM791.5 435.25 814.75 435.25 822.5 427.5M814.75 435.25 814.75 458.5" stroke="#787878" stroke-width="1.33333" stroke-miterlimit="8" fill="none" fill-rule="evenodd"/><rect x="784.5" y="466" width="22.5" height="22.5"/><path d="M807 466 814.5 458.5 814.5 481 807 488.5Z" fill-rule="evenodd"/><path d="M784.5 466 792 458.5 814.5 458.5 807 466Z" fill="#323232" fill-rule="evenodd"/><path d="M784.5 466 792 458.5 814.5 458.5 814.5 481 807 488.5 784.5 488.5ZM784.5 466 807 466 814.5 458.5M807 466 807 488.5" stroke="#000000" stroke-width="1.33333" stroke-miterlimit="8" fill="none" fill-rule="evenodd"/><rect x="761.5" y="443" width="22.5" height="22.5"/><path d="M784 443 791.5 435.5 791.5 458 784 465.5Z" fill-rule="evenodd"/><path d="M761.5 443 769 435.5 791.5 435.5 784 443Z" fill="#323232" fill-rule="evenodd"/><path d="M761.5 443 769 435.5 791.5 435.5 791.5 458 784 465.5 761.5 465.5ZM761.5 443 784 443 791.5 435.5M784 443 784 465.5" stroke="#000000" stroke-width="1.33333" stroke-miterlimit="8" fill="none" fill-rule="evenodd"/><rect x="784.5" y="443" width="22.5" height="22.5"/><path d="M807 443 814.5 435.5 814.5 458 807 465.5Z" fill-rule="evenodd"/><path d="M784.5 443 792 435.5 814.5 435.5 807 443Z" fill="#323232" fill-rule="evenodd"/><path d="M784.5 443 792 435.5 814.5 435.5 814.5 458 807 465.5 784.5 465.5ZM784.5 443 807 443 814.5 435.5M807 443 807 465.5" stroke="#000000" stroke-width="1.33333" stroke-miterlimit="8" fill="none" fill-rule="evenodd"/><rect x="753.5" y="473" width="23.5" height="22.5" fill="#5B9BD5"/><path d="M777 473 784.5 465.5 784.5 488 777 495.5Z" fill="#497DAB" fill-rule="evenodd"/><path d="M753.5 473 761 465.5 784.5 465.5 777 473Z" fill="#7BAFDD" fill-rule="evenodd"/><path d="M753.5 473 761 465.5 784.5 465.5 784.5 488 777 495.5 753.5 495.5ZM753.5 473 777 473 784.5 465.5M777 473 777 495.5" stroke="#41719C" stroke-width="1.33333" stroke-miterlimit="8" fill="none" fill-rule="evenodd"/><rect x="776.5" y="473" width="22.5" height="22.5" fill="#5B9BD5"/><path d="M799 473 806.5 465.5 806.5 488 799 495.5Z" fill="#497DAB" fill-rule="evenodd"/><path d="M776.5 473 784 465.5 806.5 465.5 799 473Z" fill="#7BAFDD" fill-rule="evenodd"/><path d="M776.5 473 784 465.5 806.5 465.5 806.5 488 799 495.5 776.5 495.5ZM776.5 473 799 473 806.5 465.5M799 473 799 495.5" stroke="#41719C" stroke-width="1.33333" stroke-miterlimit="8" fill="none" fill-rule="evenodd"/><rect x="753.5" y="451" width="22.5" height="22.5" fill="#5B9BD5"/><path d="M776 451 783.5 443.5 783.5 466 776 473.5Z" fill="#497DAB" fill-rule="evenodd"/><path d="M753.5 451 761 443.5 783.5 443.5 776 451Z" fill="#7BAFDD" fill-rule="evenodd"/><path d="M753.5 451 761 443.5 783.5 443.5 783.5 466 776 473.5 753.5 473.5ZM753.5 451 776 451 783.5 443.5M776 451 776 473.5" stroke="#41719C" stroke-width="1.33333" stroke-miterlimit="8" fill="none" fill-rule="evenodd"/><rect x="776.5" y="451" width="22.5" height="22.5" fill="#5B9BD5"/><path d="M799 451 806.5 443.5 806.5 466 799 473.5Z" fill="#497DAB" fill-rule="evenodd"/><path d="M776.5 451 784 443.5 806.5 443.5 799 451Z" fill="#7BAFDD" fill-rule="evenodd"/><path d="M776.5 451 784 443.5 806.5 443.5 806.5 466 799 473.5 776.5 473.5ZM776.5 451 799 451 806.5 443.5M799 451 799 473.5" stroke="#41719C" stroke-width="1.33333" stroke-miterlimit="8" fill="none" fill-rule="evenodd"/><rect x="455.5" y="523" width="22.5" height="23.5" fill="#5B9BD5"/><path d="M478 523 485.5 515.5 485.5 539 478 546.5Z" fill="#497DAB" fill-rule="evenodd"/><path d="M455.5 523 463 515.5 485.5 515.5 478 523Z" fill="#7BAFDD" fill-rule="evenodd"/><path d="M455.5 523 463 515.5 485.5 515.5 485.5 539 478 546.5 455.5 546.5ZM455.5 523 478 523 485.5 515.5M478 523 478 546.5" stroke="#41719C" stroke-width="1.33333" stroke-miterlimit="8" fill="none" fill-rule="evenodd"/><rect x="447.5" y="531" width="23.5" height="22.5" fill="#5B9BD5"/><path d="M471 531 478.5 523.5 478.5 546 471 553.5Z" fill="#497DAB" fill-rule="evenodd"/><path d="M447.5 531 455 523.5 478.5 523.5 471 531Z" fill="#7BAFDD" fill-rule="evenodd"/><path d="M447.5 531 455 523.5 478.5 523.5 478.5 546 471 553.5 447.5 553.5ZM447.5 531 471 531 478.5 523.5M471 531 471 553.5" stroke="#41719C" stroke-width="1.33333" stroke-miterlimit="8" fill="none" fill-rule="evenodd"/><rect x="440.5" y="539" width="22.5" height="22.5" fill="#5B9BD5"/><path d="M463 539 470.5 531.5 470.5 554 463 561.5Z" fill="#497DAB" fill-rule="evenodd"/><path d="M440.5 539 448 531.5 470.5 531.5 463 539Z" fill="#7BAFDD" fill-rule="evenodd"/><path d="M440.5 539 448 531.5 470.5 531.5 470.5 554 463 561.5 440.5 561.5ZM440.5 539 463 539 470.5 531.5M463 539 463 561.5" stroke="#41719C" stroke-width="1.33333" stroke-miterlimit="8" fill="none" fill-rule="evenodd"/><rect x="432.5" y="546" width="22.5" height="23.5" fill="#5B9BD5"/><path d="M455 546 462.5 538.5 462.5 562 455 569.5Z" fill="#497DAB" fill-rule="evenodd"/><path d="M432.5 546 440 538.5 462.5 538.5 455 546Z" fill="#7BAFDD" fill-rule="evenodd"/><path d="M432.5 546 440 538.5 462.5 538.5 462.5 562 455 569.5 432.5 569.5ZM432.5 546 455 546 462.5 538.5M455 546 455 569.5" stroke="#41719C" stroke-width="1.33333" stroke-miterlimit="8" fill="none" fill-rule="evenodd"/><rect x="454.5" y="474.25" width="23.25" height="23.25"/><path d="M477.75 474.25 485.5 466.5 485.5 489.75 477.75 497.5Z" fill-rule="evenodd"/><path d="M454.5 474.25 462.25 466.5 485.5 466.5 477.75 474.25Z" fill="#323232" fill-rule="evenodd"/><path d="M454.5 474.25 462.25 466.5 485.5 466.5 485.5 489.75 477.75 497.5 454.5 497.5ZM454.5 474.25 477.75 474.25 485.5 466.5M477.75 474.25 477.75 497.5" stroke="#000000" stroke-width="1.33333" stroke-miterlimit="8" fill="none" fill-rule="evenodd"/><rect x="447.5" y="482" width="22.5" height="22.5"/><path d="M470 482 477.5 474.5 477.5 497 470 504.5Z" fill-rule="evenodd"/><path d="M447.5 482 455 474.5 477.5 474.5 470 482Z" fill="#323232" fill-rule="evenodd"/><path d="M447.5 482 455 474.5 477.5 474.5 477.5 497 470 504.5 447.5 504.5ZM447.5 482 470 482 477.5 474.5M470 482 470 504.5" stroke="#000000" stroke-width="1.33333" stroke-miterlimit="8" fill="none" fill-rule="evenodd"/><rect x="439.5" y="490" width="22.5" height="22.5"/><path d="M462 490 469.5 482.5 469.5 505 462 512.5Z" fill-rule="evenodd"/><path d="M439.5 490 447 482.5 469.5 482.5 462 490Z" fill="#323232" fill-rule="evenodd"/><path d="M439.5 490 447 482.5 469.5 482.5 469.5 505 462 512.5 439.5 512.5ZM439.5 490 462 490 469.5 482.5M462 490 462 512.5" stroke="#000000" stroke-width="1.33333" stroke-miterlimit="8" fill="none" fill-rule="evenodd"/><rect x="431.5" y="497" width="22.5" height="23.5"/><path d="M454 497 461.5 489.5 461.5 513 454 520.5Z" fill-rule="evenodd"/><path d="M431.5 497 439 489.5 461.5 489.5 454 497Z" fill="#323232" fill-rule="evenodd"/><path d="M431.5 497 439 489.5 461.5 489.5 461.5 513 454 520.5 431.5 520.5ZM431.5 497 454 497 461.5 489.5M454 497 454 520.5" stroke="#000000" stroke-width="1.33333" stroke-miterlimit="8" fill="none" fill-rule="evenodd"/><rect x="454.5" y="426" width="22.5" height="22.5" fill="#A5A5A5"/><path d="M477 426 484.5 418.5 484.5 441 477 448.5Z" fill="#858585" fill-rule="evenodd"/><path d="M454.5 426 462 418.5 484.5 418.5 477 426Z" fill="#B7B7B7" fill-rule="evenodd"/><path d="M454.5 426 462 418.5 484.5 418.5 484.5 441 477 448.5 454.5 448.5ZM454.5 426 477 426 484.5 418.5M477 426 477 448.5" stroke="#787878" stroke-width="1.33333" stroke-miterlimit="8" fill="none" fill-rule="evenodd"/><rect x="446.5" y="433.25" width="23.25" height="23.25" fill="#A5A5A5"/><path d="M469.75 433.25 477.5 425.5 477.5 448.75 469.75 456.5Z" fill="#858585" fill-rule="evenodd"/><path d="M446.5 433.25 454.25 425.5 477.5 425.5 469.75 433.25Z" fill="#B7B7B7" fill-rule="evenodd"/><path d="M446.5 433.25 454.25 425.5 477.5 425.5 477.5 448.75 469.75 456.5 446.5 456.5ZM446.5 433.25 469.75 433.25 477.5 425.5M469.75 433.25 469.75 456.5" stroke="#787878" stroke-width="1.33333" stroke-miterlimit="8" fill="none" fill-rule="evenodd"/><rect x="439.5" y="441" width="22.5" height="22.5" fill="#A5A5A5"/><path d="M462 441 469.5 433.5 469.5 456 462 463.5Z" fill="#858585" fill-rule="evenodd"/><path d="M439.5 441 447 433.5 469.5 433.5 462 441Z" fill="#B7B7B7" fill-rule="evenodd"/><path d="M439.5 441 447 433.5 469.5 433.5 469.5 456 462 463.5 439.5 463.5ZM439.5 441 462 441 469.5 433.5M462 441 462 463.5" stroke="#787878" stroke-width="1.33333" stroke-miterlimit="8" fill="none" fill-rule="evenodd"/><rect x="431.5" y="449" width="22.5" height="22.5" fill="#A5A5A5"/><path d="M454 449 461.5 441.5 461.5 464 454 471.5Z" fill="#858585" fill-rule="evenodd"/><path d="M431.5 449 439 441.5 461.5 441.5 454 449Z" fill="#B7B7B7" fill-rule="evenodd"/><path d="M431.5 449 439 441.5 461.5 441.5 461.5 464 454 471.5 431.5 471.5ZM431.5 449 454 449 461.5 441.5M454 449 454 471.5" stroke="#787878" stroke-width="1.33333" stroke-miterlimit="8" fill="none" fill-rule="evenodd"/><rect x="451.5" y="377" width="22.5" height="22.5" fill="url(#fill10)"/><path d="M474 377 481.5 369.5 481.5 392 474 399.5Z" fill="url(#fill11)" fill-rule="evenodd"/><path d="M451.5 377 459 369.5 481.5 369.5 474 377Z" fill="url(#fill12)" fill-rule="evenodd"/><path d="M451.5 377 459 369.5 481.5 369.5 481.5 392 474 399.5 451.5 399.5ZM451.5 377 474 377 481.5 369.5M474 377 474 399.5" stroke="#181717" stroke-width="1.33333" stroke-miterlimit="8" fill="none" fill-rule="evenodd"/><rect x="443.5" y="385" width="23.5" height="22.5" fill="url(#fill13)"/><path d="M467 385 474.5 377.5 474.5 400 467 407.5Z" fill="url(#fill14)" fill-rule="evenodd"/><path d="M443.5 385 451 377.5 474.5 377.5 467 385Z" fill="url(#fill15)" fill-rule="evenodd"/><path d="M443.5 385 451 377.5 474.5 377.5 474.5 400 467 407.5 443.5 407.5ZM443.5 385 467 385 474.5 377.5M467 385 467 407.5" stroke="#181717" stroke-width="1.33333" stroke-miterlimit="8" fill="none" fill-rule="evenodd"/><rect x="436.5" y="392" width="22.5" height="23.5" fill="url(#fill16)"/><path d="M459 392 466.5 384.5 466.5 408 459 415.5Z" fill="url(#fill17)" fill-rule="evenodd"/><path d="M436.5 392 444 384.5 466.5 384.5 459 392Z" fill="url(#fill18)" fill-rule="evenodd"/><path d="M436.5 392 444 384.5 466.5 384.5 466.5 408 459 415.5 436.5 415.5ZM436.5 392 459 392 466.5 384.5M459 392 459 415.5" stroke="#181717" stroke-width="1.33333" stroke-miterlimit="8" fill="none" fill-rule="evenodd"/><rect x="428.5" y="400" width="22.5" height="22.5" fill="url(#fill19)"/><path d="M451 400 458.5 392.5 458.5 415 451 422.5Z" fill="url(#fill20)" fill-rule="evenodd"/><path d="M428.5 400 436 392.5 458.5 392.5 451 400Z" fill="url(#fill21)" fill-rule="evenodd"/><path d="M428.5 400 436 392.5 458.5 392.5 458.5 415 451 422.5 428.5 422.5ZM428.5 400 451 400 458.5 392.5M451 400 451 422.5" stroke="#181717" stroke-width="1.33333" stroke-miterlimit="8" fill="none" fill-rule="evenodd"/><rect x="450.5" y="330" width="22.5" height="23.5" fill="#FF0000"/><path d="M473 330 480.5 322.5 480.5 346 473 353.5Z" fill="#CD0000" fill-rule="evenodd"/><path d="M450.5 330 458 322.5 480.5 322.5 473 330Z" fill="#FF3232" fill-rule="evenodd"/><path d="M450.5 330 458 322.5 480.5 322.5 480.5 346 473 353.5 450.5 353.5ZM450.5 330 473 330 480.5 322.5M473 330 473 353.5" stroke="#C55A11" stroke-width="1.33333" stroke-miterlimit="8" fill="none" fill-rule="evenodd"/><rect x="442.5" y="338" width="23.5" height="22.5" fill="#FF0000"/><path d="M466 338 473.5 330.5 473.5 353 466 360.5Z" fill="#CD0000" fill-rule="evenodd"/><path d="M442.5 338 450 330.5 473.5 330.5 466 338Z" fill="#FF3232" fill-rule="evenodd"/><path d="M442.5 338 450 330.5 473.5 330.5 473.5 353 466 360.5 442.5 360.5ZM442.5 338 466 338 473.5 330.5M466 338 466 360.5" stroke="#C55A11" stroke-width="1.33333" stroke-miterlimit="8" fill="none" fill-rule="evenodd"/><rect x="435.5" y="345" width="22.5" height="23.5" fill="#FF0000"/><path d="M458 345 465.5 337.5 465.5 361 458 368.5Z" fill="#CD0000" fill-rule="evenodd"/><path d="M435.5 345 443 337.5 465.5 337.5 458 345Z" fill="#FF3232" fill-rule="evenodd"/><path d="M435.5 345 443 337.5 465.5 337.5 465.5 361 458 368.5 435.5 368.5ZM435.5 345 458 345 465.5 337.5M458 345 458 368.5" stroke="#C55A11" stroke-width="1.33333" stroke-miterlimit="8" fill="none" fill-rule="evenodd"/><rect x="427.5" y="353" width="22.5" height="23.5" fill="#FF0000"/><path d="M450 353 457.5 345.5 457.5 369 450 376.5Z" fill="#CD0000" fill-rule="evenodd"/><path d="M427.5 353 435 345.5 457.5 345.5 450 353Z" fill="#FF3232" fill-rule="evenodd"/><path d="M427.5 353 435 345.5 457.5 345.5 457.5 369 450 376.5 427.5 376.5ZM427.5 353 450 353 457.5 345.5M450 353 450 376.5" stroke="#C55A11" stroke-width="1.33333" stroke-miterlimit="8" fill="none" fill-rule="evenodd"/><path d="M0-1 653.237-1 653.278 95.4276 651.278 95.4285 651.238 0.000421364 652.238 1 0 1ZM656.236 93.9747 652.479 102.092 648.24 94.2159Z" transform="matrix(-1 -8.74228e-08 -8.74228e-08 1 790.479 303)"/><path d="M0 0 0.000104987 32.9805" stroke="#000000" stroke-width="2" stroke-miterlimit="8" fill="none" fill-rule="evenodd" transform="matrix(1 0 0 -1 791 303.98)"/></g></svg>