<svg width="868" height="482" xmlns="http://www.w3.org/2000/svg" xmlns:xlink="http://www.w3.org/1999/xlink" overflow="hidden"><defs><clipPath id="clip0"><path d="M9 119 877 119 877 601 9 601Z" fill-rule="evenodd" clip-rule="evenodd"/></clipPath></defs><g clip-path="url(#clip0)" transform="translate(-9 -119)"><path d="M161.5 277.5C161.5 256.513 178.513 239.5 199.5 239.5 220.487 239.5 237.5 256.513 237.5 277.5 237.5 298.487 220.487 315.5 199.5 315.5 178.513 315.5 161.5 298.487 161.5 277.5Z" stroke="#AE5A21" stroke-width="1.33333" stroke-miterlimit="8" fill="#ED7D31" fill-rule="evenodd"/><text fill="#FFFFFF" font-family="Cambria Math,Cambria Math_MSFontService,sans-serif" font-weight="400" font-size="24" transform="translate(187.15 286)">𝑥<tspan font-size="18" x="12.0467" y="5">1</tspan></text><path d="M161.5 562C161.5 541.289 178.513 524.5 199.5 524.5 220.487 524.5 237.5 541.289 237.5 562 237.5 582.711 220.487 599.5 199.5 599.5 178.513 599.5 161.5 582.711 161.5 562Z" stroke="#AE5A21" stroke-width="1.33333" stroke-miterlimit="8" fill="#ED7D31" fill-rule="evenodd"/><text fill="#FFFFFF" font-family="Cambria Math,Cambria Math_MSFontService,sans-serif" font-weight="400" font-size="24" transform="translate(181.67 570)">𝑥<tspan font-size="18" x="12.6" y="5">𝑁𝑖𝑛</tspan></text><path d="M193.5 420C193.5 416.962 195.962 414.5 199 414.5 202.038 414.5 204.5 416.962 204.5 420 204.5 423.038 202.038 425.5 199 425.5 195.962 425.5 193.5 423.038 193.5 420Z" stroke="#000000" stroke-width="1.33333" stroke-miterlimit="8" fill-rule="evenodd"/><path d="M193.5 365C193.5 361.962 195.962 359.5 199 359.5 202.038 359.5 204.5 361.962 204.5 365 204.5 368.038 202.038 370.5 199 370.5 195.962 370.5 193.5 368.038 193.5 365Z" stroke="#000000" stroke-width="1.33333" stroke-miterlimit="8" fill-rule="evenodd"/><path d="M193.5 475C193.5 471.962 195.962 469.5 199 469.5 202.038 469.5 204.5 471.962 204.5 475 204.5 478.038 202.038 480.5 199 480.5 195.962 480.5 193.5 478.038 193.5 475Z" stroke="#000000" stroke-width="1.33333" stroke-miterlimit="8" fill-rule="evenodd"/><path d="M161.5 158.5C161.5 137.513 178.513 120.5 199.5 120.5 220.487 120.5 237.5 137.513 237.5 158.5 237.5 179.487 220.487 196.5 199.5 196.5 178.513 196.5 161.5 179.487 161.5 158.5Z" stroke="#AE5A21" stroke-width="1.33333" stroke-miterlimit="8" fill="#ED7D31" fill-rule="evenodd"/><text fill="#FFFFFF" font-family="Cambria Math,Cambria Math_MSFontService,sans-serif" font-weight="400" font-size="24" transform="translate(192.083 166)">1</text><path d="M640.5 277.5C640.5 256.513 657.513 239.5 678.5 239.5 699.487 239.5 716.5 256.513 716.5 277.5 716.5 298.487 699.487 315.5 678.5 315.5 657.513 315.5 640.5 298.487 640.5 277.5Z" stroke="#AE5A21" stroke-width="1.33333" stroke-miterlimit="8" fill="#ED7D31" fill-rule="evenodd"/><text fill="#FFFFFF" font-family="Cambria Math,Cambria Math_MSFontService,sans-serif" font-weight="400" font-size="24" transform="translate(666.063 286)">𝑦<tspan font-size="18" x="12.22" y="5">1</tspan></text><path d="M640.5 562C640.5 541.289 657.513 524.5 678.5 524.5 699.487 524.5 716.5 541.289 716.5 562 716.5 582.711 699.487 599.5 678.5 599.5 657.513 599.5 640.5 582.711 640.5 562Z" stroke="#AE5A21" stroke-width="1.33333" stroke-miterlimit="8" fill="#ED7D31" fill-rule="evenodd"/><text fill="#FFFFFF" font-family="Cambria Math,Cambria Math_MSFontService,sans-serif" font-weight="400" font-size="24" transform="translate(660.67 570)">𝑦<tspan font-size="18" x="12.7733" y="5">𝑁𝑜𝑢𝑡</tspan></text><path d="M672.5 420C672.5 416.962 674.963 414.5 678 414.5 681.038 414.5 683.5 416.962 683.5 420 683.5 423.038 681.038 425.5 678 425.5 674.963 425.5 672.5 423.038 672.5 420Z" stroke="#000000" stroke-width="1.33333" stroke-miterlimit="8" fill-rule="evenodd"/><path d="M672.5 365C672.5 361.962 674.963 359.5 678 359.5 681.038 359.5 683.5 361.962 683.5 365 683.5 368.038 681.038 370.5 678 370.5 674.963 370.5 672.5 368.038 672.5 365Z" stroke="#000000" stroke-width="1.33333" stroke-miterlimit="8" fill-rule="evenodd"/><path d="M672.5 475C672.5 471.962 674.963 469.5 678 469.5 681.038 469.5 683.5 471.962 683.5 475 683.5 478.038 681.038 480.5 678 480.5 674.963 480.5 672.5 478.038 672.5 475Z" stroke="#000000" stroke-width="1.33333" stroke-miterlimit="8" fill-rule="evenodd"/><path d="M237 276 633.744 276 633.744 278 237 278ZM632.41 273 640.41 277 632.41 281Z"/><path d="M237.283 157.041 634.299 274.391 633.732 276.309 236.717 158.959ZM633.872 271.137 640.41 277.24 631.604 278.809Z"/><path d="M0.575932-0.817497 398.535 279.547 397.383 281.182-0.575932 0.817497ZM399.173 276.327 403.41 284.205 394.566 282.867Z" transform="matrix(1 0 0 -1 237 561.205)"/><path d="M237.707 157.293 636.404 556.025 634.99 557.439 236.293 158.707ZM637.582 552.959 640.41 561.445 631.924 558.616Z"/><path d="M237.576 276.182 635.535 556.547 634.383 558.182 236.424 277.818ZM636.173 553.327 640.41 561.205 631.566 559.867Z"/><path d="M237 560 633.744 560 633.744 562 237 562ZM632.41 557 640.41 561 632.41 565Z"/><path d="M97 599C90.9249 599 86 598.179 86 597.167L86 420.833C86 419.821 81.0751 419 75 419 81.0751 419 86 418.179 86 417.167L86 240.833C86 239.821 90.9249 239 97 239" stroke="#000000" stroke-width="2" stroke-miterlimit="8" fill="none" fill-rule="evenodd"/><text font-family="Cambria Math,Cambria Math_MSFontService,sans-serif" font-weight="400" font-size="24" transform="translate(22.437 428)">𝑁<tspan font-size="18" x="15.5067" y="5">𝑖𝑛</tspan></text><path d="M20 360C14.4772 360 10 359.254 10 358.333L10 181.667C10 180.746 5.52285 180 1.43228e-15 180 5.52285 180 10 179.254 10 178.333L10 1.66654C10 0.746133 14.4772 -3.58069e-16 20 -7.16138e-16" stroke="#000000" stroke-width="2" stroke-miterlimit="8" fill="none" fill-rule="evenodd" transform="matrix(-1 -8.74228e-08 -8.74228e-08 1 800 239)"/><text font-family="Cambria Math,Cambria Math_MSFontService,sans-serif" font-weight="400" font-size="24" transform="translate(814.827 428)">𝑁<tspan font-size="18" x="15.5067" y="5">𝑜𝑢𝑡</tspan><tspan x="-792.317" y="-262">𝑏𝑖𝑎𝑠</tspan></text><path d="M716 276 749.626 276 749.626 278 716 278ZM748.293 273 756.293 277 748.293 281Z"/><path d="M716 560 749.626 560 749.626 562 716 562ZM748.293 557 756.293 561 748.293 565Z"/></g></svg>