<svg width="868" height="531" xmlns="http://www.w3.org/2000/svg" xmlns:xlink="http://www.w3.org/1999/xlink" overflow="hidden"><defs><clipPath id="clip0"><path d="M9 119 877 119 877 650 9 650Z" fill-rule="evenodd" clip-rule="evenodd"/></clipPath></defs><g clip-path="url(#clip0)" transform="translate(-9 -119)"><path d="M161.5 277.5C161.5 256.513 178.513 239.5 199.5 239.5 220.487 239.5 237.5 256.513 237.5 277.5 237.5 298.487 220.487 315.5 199.5 315.5 178.513 315.5 161.5 298.487 161.5 277.5Z" stroke="#AE5A21" stroke-width="1.33333" stroke-miterlimit="8" fill="#ED7D31" fill-rule="evenodd"/><text fill="#FFFFFF" font-family="Cambria Math,Cambria Math_MSFontService,sans-serif" font-weight="400" font-size="24" transform="translate(187.15 286)">𝑥<tspan font-size="18" x="12.0467" y="5">1</tspan></text><path d="M161.5 562C161.5 541.289 178.513 524.5 199.5 524.5 220.487 524.5 237.5 541.289 237.5 562 237.5 582.711 220.487 599.5 199.5 599.5 178.513 599.5 161.5 582.711 161.5 562Z" stroke="#AE5A21" stroke-width="1.33333" stroke-miterlimit="8" fill="#ED7D31" fill-rule="evenodd"/><text fill="#FFFFFF" font-family="Cambria Math,Cambria Math_MSFontService,sans-serif" font-weight="400" font-size="24" transform="translate(181.67 570)">𝑥<tspan font-size="18" x="12.6" y="5">𝑁𝑖𝑛</tspan></text><path d="M193.5 420C193.5 416.962 195.962 414.5 199 414.5 202.038 414.5 204.5 416.962 204.5 420 204.5 423.038 202.038 425.5 199 425.5 195.962 425.5 193.5 423.038 193.5 420Z" stroke="#000000" stroke-width="1.33333" stroke-miterlimit="8" fill-rule="evenodd"/><path d="M193.5 365C193.5 361.962 195.962 359.5 199 359.5 202.038 359.5 204.5 361.962 204.5 365 204.5 368.038 202.038 370.5 199 370.5 195.962 370.5 193.5 368.038 193.5 365Z" stroke="#000000" stroke-width="1.33333" stroke-miterlimit="8" fill-rule="evenodd"/><path d="M193.5 475C193.5 471.962 195.962 469.5 199 469.5 202.038 469.5 204.5 471.962 204.5 475 204.5 478.038 202.038 480.5 199 480.5 195.962 480.5 193.5 478.038 193.5 475Z" stroke="#000000" stroke-width="1.33333" stroke-miterlimit="8" fill-rule="evenodd"/><path d="M161.5 158.5C161.5 137.513 178.513 120.5 199.5 120.5 220.487 120.5 237.5 137.513 237.5 158.5 237.5 179.487 220.487 196.5 199.5 196.5 178.513 196.5 161.5 179.487 161.5 158.5Z" stroke="#AE5A21" stroke-width="1.33333" stroke-miterlimit="8" fill="#ED7D31" fill-rule="evenodd"/><text fill="#FFFFFF" font-family="Cambria Math,Cambria Math_MSFontService,sans-serif" font-weight="400" font-size="24" transform="translate(192.083 166)">1</text><path d="M640.5 277.5C640.5 256.513 657.513 239.5 678.5 239.5 699.487 239.5 716.5 256.513 716.5 277.5 716.5 298.487 699.487 315.5 678.5 315.5 657.513 315.5 640.5 298.487 640.5 277.5Z" stroke="#AE5A21" stroke-width="1.33333" stroke-miterlimit="8" fill="#ED7D31" fill-rule="evenodd"/><text fill="#FFFFFF" font-family="Cambria Math,Cambria Math_MSFontService,sans-serif" font-weight="400" font-size="24" transform="translate(666.063 286)">𝑦<tspan font-size="18" x="12.22" y="5">1</tspan></text><path d="M640.5 562C640.5 541.289 657.513 524.5 678.5 524.5 699.487 524.5 716.5 541.289 716.5 562 716.5 582.711 699.487 599.5 678.5 599.5 657.513 599.5 640.5 582.711 640.5 562Z" stroke="#AE5A21" stroke-width="1.33333" stroke-miterlimit="8" fill="#ED7D31" fill-rule="evenodd"/><text fill="#FFFFFF" font-family="Cambria Math,Cambria Math_MSFontService,sans-serif" font-weight="400" font-size="24" transform="translate(660.67 570)">𝑦<tspan font-size="18" x="12.7733" y="5">𝑁𝑜𝑢𝑡</tspan></text><path d="M672.5 420C672.5 416.962 674.963 414.5 678 414.5 681.038 414.5 683.5 416.962 683.5 420 683.5 423.038 681.038 425.5 678 425.5 674.963 425.5 672.5 423.038 672.5 420Z" stroke="#000000" stroke-width="1.33333" stroke-miterlimit="8" fill-rule="evenodd"/><path d="M672.5 365C672.5 361.962 674.963 359.5 678 359.5 681.038 359.5 683.5 361.962 683.5 365 683.5 368.038 681.038 370.5 678 370.5 674.963 370.5 672.5 368.038 672.5 365Z" stroke="#000000" stroke-width="1.33333" stroke-miterlimit="8" fill-rule="evenodd"/><path d="M672.5 475C672.5 471.962 674.963 469.5 678 469.5 681.038 469.5 683.5 471.962 683.5 475 683.5 478.038 681.038 480.5 678 480.5 674.963 480.5 672.5 478.038 672.5 475Z" stroke="#000000" stroke-width="1.33333" stroke-miterlimit="8" fill-rule="evenodd"/><path d="M237 276 633.744 276 633.744 278 237 278ZM632.41 273 640.41 277 632.41 281Z"/><path d="M237.283 157.041 634.299 274.391 633.732 276.309 236.717 158.959ZM633.872 271.137 640.41 277.24 631.604 278.809Z"/><path d="M0.575932-0.817497 398.535 279.547 397.383 281.182-0.575932 0.817497ZM399.173 276.327 403.41 284.205 394.566 282.867Z" transform="matrix(1 0 0 -1 237 561.205)"/><path d="M237.707 157.293 636.404 556.025 634.99 557.439 236.293 158.707ZM637.582 552.959 640.41 561.445 631.924 558.616Z"/><path d="M237.576 276.182 635.535 556.547 634.383 558.182 236.424 277.818ZM636.173 553.327 640.41 561.205 631.566 559.867Z"/><path d="M237 560 633.744 560 633.744 562 237 562ZM632.41 557 640.41 561 632.41 565Z"/><path d="M97 599C90.9249 599 86 598.179 86 597.167L86 420.833C86 419.821 81.0751 419 75 419 81.0751 419 86 418.179 86 417.167L86 240.833C86 239.821 90.9249 239 97 239" stroke="#000000" stroke-width="2" stroke-miterlimit="8" fill="none" fill-rule="evenodd"/><text font-family="Cambria Math,Cambria Math_MSFontService,sans-serif" font-weight="400" font-size="24" transform="translate(22.437 428)">𝑁<tspan font-size="18" x="15.5067" y="5">𝑖𝑛</tspan></text><path d="M20 360C14.4772 360 10 359.254 10 358.333L10 181.667C10 180.746 5.52285 180 1.43228e-15 180 5.52285 180 10 179.254 10 178.333L10 1.66654C10 0.746133 14.4772 -3.58069e-16 20 -7.16138e-16" stroke="#000000" stroke-width="2" stroke-miterlimit="8" fill="none" fill-rule="evenodd" transform="matrix(-1 -8.74228e-08 -8.74228e-08 1 800 239)"/><text font-family="Cambria Math,Cambria Math_MSFontService,sans-serif" font-weight="400" font-size="24" transform="translate(814.827 428)">𝑁<tspan font-size="18" x="15.5067" y="5">𝑜𝑢𝑡</tspan></text><path d="M419.5 218C419.5 207.783 428.007 199.5 438.5 199.5 448.993 199.5 457.5 207.783 457.5 218 457.5 228.217 448.993 236.5 438.5 236.5 428.007 236.5 419.5 228.217 419.5 218Z" stroke="#2F528F" stroke-width="1.33333" stroke-miterlimit="8" fill="#4472C4" fill-rule="evenodd"/><text fill="#FFFFFF" font-family="Cambria Math,Cambria Math_MSFontService,sans-serif" font-weight="400" font-size="13" transform="translate(434.533 222)">×</text><path d="M419.5 277.5C419.5 267.007 428.007 258.5 438.5 258.5 448.993 258.5 457.5 267.007 457.5 277.5 457.5 287.993 448.993 296.5 438.5 296.5 428.007 296.5 419.5 287.993 419.5 277.5Z" stroke="#2F528F" stroke-width="1.33333" stroke-miterlimit="8" fill="#4472C4" fill-rule="evenodd"/><text fill="#FFFFFF" font-family="Cambria Math,Cambria Math_MSFontService,sans-serif" font-weight="400" font-size="13" transform="translate(434.533 282)">×</text><path d="M419.5 360C419.5 349.783 428.007 341.5 438.5 341.5 448.993 341.5 457.5 349.783 457.5 360 457.5 370.217 448.993 378.5 438.5 378.5 428.007 378.5 419.5 370.217 419.5 360Z" stroke="#2F528F" stroke-width="1.33333" stroke-miterlimit="8" fill="#4472C4" fill-rule="evenodd"/><text fill="#FFFFFF" font-family="Cambria Math,Cambria Math_MSFontService,sans-serif" font-weight="400" font-size="13" transform="translate(434.533 365)">×</text><path d="M419.5 561.5C419.5 551.007 428.007 542.5 438.5 542.5 448.993 542.5 457.5 551.007 457.5 561.5 457.5 571.993 448.993 580.5 438.5 580.5 428.007 580.5 419.5 571.993 419.5 561.5Z" stroke="#2F528F" stroke-width="1.33333" stroke-miterlimit="8" fill="#4472C4" fill-rule="evenodd"/><text fill="#FFFFFF" font-family="Cambria Math,Cambria Math_MSFontService,sans-serif" font-weight="400" font-size="13" transform="translate(434.533 566)">×</text><path d="M363.5 380.5C363.5 370.007 371.783 361.5 382 361.5 392.217 361.5 400.5 370.007 400.5 380.5 400.5 390.993 392.217 399.5 382 399.5 371.783 399.5 363.5 390.993 363.5 380.5Z" stroke="#2F528F" stroke-width="1.33333" stroke-miterlimit="8" fill="#4472C4" fill-rule="evenodd"/><text fill="#FFFFFF" font-family="Cambria Math,Cambria Math_MSFontService,sans-serif" font-weight="400" font-size="13" transform="translate(377.84 385)">×</text><path d="M363.5 458.5C363.5 448.007 371.783 439.5 382 439.5 392.217 439.5 400.5 448.007 400.5 458.5 400.5 468.993 392.217 477.5 382 477.5 371.783 477.5 363.5 468.993 363.5 458.5Z" stroke="#2F528F" stroke-width="1.33333" stroke-miterlimit="8" fill="#4472C4" fill-rule="evenodd"/><text fill="#FFFFFF" font-family="Cambria Math,Cambria Math_MSFontService,sans-serif" font-weight="400" font-size="13" transform="translate(377.84 463)">×</text><path d="M0.999786-0.0206845 1.25286 12.2117-0.746711 12.2531-0.999786 0.0206845ZM4.22464 10.8166 0.390971 18.8976-3.77365 10.9821Z" transform="matrix(-1 -8.74228e-08 -8.74228e-08 1 438.391 180)"/><path d="M414 155.5C414 141.969 424.969 131 438.5 131 452.031 131 463 141.969 463 155.5 463 169.031 452.031 180 438.5 180 424.969 180 414 169.031 414 155.5Z" stroke="#FFFFFF" stroke-width="2" stroke-miterlimit="8" fill="#ED7D31" fill-rule="evenodd"/><text fill="#FFFFFF" font-family="Cambria Math,Cambria Math_MSFontService,sans-serif" font-weight="400" font-size="20" transform="translate(430.915 162)">𝑤<tspan font-size="15" x="14.1667" y="4">0</tspan><tspan font-size="15" x="15.6267" y="-8">1</tspan></text><path d="M412.485 256.126 419.386 259.953 418.416 261.702 411.515 257.874ZM419.675 256.683 424.73 264.061 415.794 263.679Z"/><path d="M370 239.5C370 225.969 380.969 215 394.5 215 408.031 215 419 225.969 419 239.5 419 253.031 408.031 264 394.5 264 380.969 264 370 253.031 370 239.5Z" stroke="#FFFFFF" stroke-width="2" stroke-miterlimit="8" fill="#ED7D31" fill-rule="evenodd"/><text fill="#FFFFFF" font-family="Cambria Math,Cambria Math_MSFontService,sans-serif" font-weight="400" font-size="20" transform="translate(387.059 246)">𝑤<tspan font-size="15" x="13.7" y="5">1</tspan><tspan font-size="15" x="15.6266" y="-7">1</tspan></text><path d="M356.568 435.177 363.257 439.789 362.121 441.436 355.432 436.823ZM363.862 436.563 368.177 444.397 359.32 443.149Z"/><path d="M317 420.5C317 408.074 327.297 398 340 398 352.703 398 363 408.074 363 420.5 363 432.926 352.703 443 340 443 327.297 443 317 432.926 317 420.5Z" stroke="#FFFFFF" stroke-width="2" stroke-miterlimit="8" fill="#ED7D31" fill-rule="evenodd"/><text fill="#FFFFFF" font-family="Cambria Math,Cambria Math_MSFontService,sans-serif" font-weight="400" font-size="13" transform="translate(333.592 425)">𝑤<tspan font-size="9" x="9.39334" y="3">𝑁𝑖𝑛</tspan><tspan font-size="9" x="10.36" y="-5">1</tspan></text><path d="M360.838 327.454 378.975 355.301 377.299 356.392 359.162 328.546ZM380.761 352.546 381.776 361.433 374.058 356.912Z"/><path d="M334 320C334 306.193 344.969 295 358.5 295 372.031 295 383 306.193 383 320 383 333.807 372.031 345 358.5 345 344.969 345 334 333.807 334 320Z" stroke="#FFFFFF" stroke-width="2" stroke-miterlimit="8" fill="#ED7D31" fill-rule="evenodd"/><text fill="#FFFFFF" font-family="Cambria Math,Cambria Math_MSFontService,sans-serif" font-weight="400" transform="translate(350.729 325)">𝑤<tspan font-size="9" x="8.15332" y="2">1</tspan><tspan font-size="9" x="9.56665" y="-5">𝑁𝑜𝑢𝑡</tspan></text><path d="M0.629639-0.776888 9.64556 6.53019 8.38628 8.08396-0.629639 0.776888ZM10.4986 3.36001 14.1952 11.5047 5.46151 9.57511Z" transform="matrix(-1 -8.74228e-08 -8.74228e-08 1 466.195 335)"/><path d="M459 317.5C459 303.969 469.969 293 483.5 293 497.031 293 508 303.969 508 317.5 508 331.031 497.031 342 483.5 342 469.969 342 459 331.031 459 317.5Z" stroke="#FFFFFF" stroke-width="2" stroke-miterlimit="8" fill="#ED7D31" fill-rule="evenodd"/><text fill="#FFFFFF" font-family="Cambria Math,Cambria Math_MSFontService,sans-serif" font-weight="400" transform="translate(475.453 322)">𝑤<tspan font-size="9" x="8.43335" y="3">0</tspan><tspan font-size="9" x="9.56668" y="-5">𝑁𝑜𝑢𝑡</tspan></text><path d="M0.999993-0.0036222 1.0443 12.2274-0.95569 12.2346-0.999993 0.0036222ZM4.03945 10.8832 0.0684514 18.8976-3.9605 10.9122Z" transform="matrix(1 0 0 -1 438 598.898)"/><path d="M414 623.5C414 609.969 424.969 599 438.5 599 452.031 599 463 609.969 463 623.5 463 637.031 452.031 648 438.5 648 424.969 648 414 637.031 414 623.5Z" stroke="#FFFFFF" stroke-width="2" stroke-miterlimit="8" fill="#ED7D31" fill-rule="evenodd"/><text fill="#FFFFFF" font-family="Cambria Math,Cambria Math_MSFontService,sans-serif" font-weight="400" transform="translate(430.455 628)">𝑤<tspan font-size="9" x="8.43332" y="3">𝑁𝑖𝑛</tspan><tspan font-size="9" x="9.56665" y="-5">𝑁𝑜𝑢𝑡</tspan><tspan fill="#000000" font-size="24" x="-407.945" y="-462">𝑏𝑖𝑎𝑠</tspan></text></g></svg>