<svg width="143" height="465" xmlns="http://www.w3.org/2000/svg" xmlns:xlink="http://www.w3.org/1999/xlink" overflow="hidden"><defs><clipPath id="clip0"><path d="M169 124 312 124 312 589 169 589Z" fill-rule="evenodd" clip-rule="evenodd"/></clipPath></defs><g clip-path="url(#clip0)" transform="translate(-169 -124)"><rect x="263.5" y="367.5" width="36" height="36" fill="#4472C4"/><path d="M299.5 367.5 311.5 355.5 311.5 391.5 299.5 403.5Z" fill="#375C9E" fill-rule="evenodd"/><path d="M263.5 367.5 275.5 355.5 311.5 355.5 299.5 367.5Z" fill="#698ED0" fill-rule="evenodd"/><path d="M263.5 367.5 275.5 355.5 311.5 355.5 311.5 391.5 299.5 403.5 263.5 403.5ZM263.5 367.5 299.5 367.5 311.5 355.5M299.5 367.5 299.5 403.5" stroke="#2F528F" stroke-width="1.33333" stroke-miterlimit="8" fill="none" fill-rule="evenodd"/><rect x="252.5" y="379.25" width="35.25" height="36.25" fill="#4472C4"/><path d="M287.75 379.25 299.5 367.5 299.5 403.75 287.75 415.5Z" fill="#375C9E" fill-rule="evenodd"/><path d="M252.5 379.25 264.25 367.5 299.5 367.5 287.75 379.25Z" fill="#698ED0" fill-rule="evenodd"/><path d="M252.5 379.25 264.25 367.5 299.5 367.5 299.5 403.75 287.75 415.5 252.5 415.5ZM252.5 379.25 287.75 379.25 299.5 367.5M287.75 379.25 287.75 415.5" stroke="#2F528F" stroke-width="1.33333" stroke-miterlimit="8" fill="none" fill-rule="evenodd"/><rect x="263.5" y="334.25" width="36.25" height="35.25" fill="#4472C4"/><path d="M299.75 334.25 311.5 322.5 311.5 357.75 299.75 369.5Z" fill="#375C9E" fill-rule="evenodd"/><path d="M263.5 334.25 275.25 322.5 311.5 322.5 299.75 334.25Z" fill="#698ED0" fill-rule="evenodd"/><path d="M263.5 334.25 275.25 322.5 311.5 322.5 311.5 357.75 299.75 369.5 263.5 369.5ZM263.5 334.25 299.75 334.25 311.5 322.5M299.75 334.25 299.75 369.5" stroke="#2F528F" stroke-width="1.33333" stroke-miterlimit="8" fill="none" fill-rule="evenodd"/><rect x="252.5" y="345.25" width="35.25" height="35.25" fill="#4472C4"/><path d="M287.75 345.25 299.5 333.5 299.5 368.75 287.75 380.5Z" fill="#375C9E" fill-rule="evenodd"/><path d="M252.5 345.25 264.25 333.5 299.5 333.5 287.75 345.25Z" fill="#698ED0" fill-rule="evenodd"/><path d="M252.5 345.25 264.25 333.5 299.5 333.5 299.5 368.75 287.75 380.5 252.5 380.5ZM252.5 345.25 287.75 345.25 299.5 333.5M287.75 345.25 287.75 380.5" stroke="#2F528F" stroke-width="1.33333" stroke-miterlimit="8" fill="none" fill-rule="evenodd"/><rect x="170.5" y="392.25" width="35.25" height="35.25" fill="#4472C4"/><path d="M205.75 392.25 217.5 380.5 217.5 415.75 205.75 427.5Z" fill="#375C9E" fill-rule="evenodd"/><path d="M170.5 392.25 182.25 380.5 217.5 380.5 205.75 392.25Z" fill="#698ED0" fill-rule="evenodd"/><path d="M170.5 392.25 182.25 380.5 217.5 380.5 217.5 415.75 205.75 427.5 170.5 427.5ZM170.5 392.25 205.75 392.25 217.5 380.5M205.75 392.25 205.75 427.5" stroke="#2F528F" stroke-width="1.33333" stroke-miterlimit="8" fill="none" fill-rule="evenodd"/><rect x="205.5" y="392.25" width="36.25" height="35.25" fill="#4472C4"/><path d="M241.75 392.25 253.5 380.5 253.5 415.75 241.75 427.5Z" fill="#375C9E" fill-rule="evenodd"/><path d="M205.5 392.25 217.25 380.5 253.5 380.5 241.75 392.25Z" fill="#698ED0" fill-rule="evenodd"/><path d="M205.5 392.25 217.25 380.5 253.5 380.5 253.5 415.75 241.75 427.5 205.5 427.5ZM205.5 392.25 241.75 392.25 253.5 380.5M241.75 392.25 241.75 427.5" stroke="#2F528F" stroke-width="1.33333" stroke-miterlimit="8" fill="none" fill-rule="evenodd"/><rect x="170.5" y="357.25" width="35.25" height="35.25" fill="#4472C4"/><path d="M205.75 357.25 217.5 345.5 217.5 380.75 205.75 392.5Z" fill="#375C9E" fill-rule="evenodd"/><path d="M170.5 357.25 182.25 345.5 217.5 345.5 205.75 357.25Z" fill="#698ED0" fill-rule="evenodd"/><path d="M170.5 357.25 182.25 345.5 217.5 345.5 217.5 380.75 205.75 392.5 170.5 392.5ZM170.5 357.25 205.75 357.25 217.5 345.5M205.75 357.25 205.75 392.5" stroke="#2F528F" stroke-width="1.33333" stroke-miterlimit="8" fill="none" fill-rule="evenodd"/><rect x="205.5" y="357.25" width="35.25" height="35.25" fill="#4472C4"/><path d="M240.75 357.25 252.5 345.5 252.5 380.75 240.75 392.5Z" fill="#375C9E" fill-rule="evenodd"/><path d="M205.5 357.25 217.25 345.5 252.5 345.5 240.75 357.25Z" fill="#698ED0" fill-rule="evenodd"/><path d="M205.5 357.25 217.25 345.5 252.5 345.5 252.5 380.75 240.75 392.5 205.5 392.5ZM205.5 357.25 240.75 357.25 252.5 345.5M240.75 357.25 240.75 392.5" stroke="#2F528F" stroke-width="1.33333" stroke-miterlimit="8" fill="none" fill-rule="evenodd"/><rect x="240.5" y="392.25" width="35.25" height="35.25" fill="#4472C4"/><path d="M275.75 392.25 287.5 380.5 287.5 415.75 275.75 427.5Z" fill="#375C9E" fill-rule="evenodd"/><path d="M240.5 392.25 252.25 380.5 287.5 380.5 275.75 392.25Z" fill="#698ED0" fill-rule="evenodd"/><path d="M240.5 392.25 252.25 380.5 287.5 380.5 287.5 415.75 275.75 427.5 240.5 427.5ZM240.5 392.25 275.75 392.25 287.5 380.5M275.75 392.25 275.75 427.5" stroke="#2F528F" stroke-width="1.33333" stroke-miterlimit="8" fill="none" fill-rule="evenodd"/><rect x="240.5" y="357.25" width="35.25" height="35.25" fill="#4472C4"/><path d="M275.75 357.25 287.5 345.5 287.5 380.75 275.75 392.5Z" fill="#375C9E" fill-rule="evenodd"/><path d="M240.5 357.25 252.25 345.5 287.5 345.5 275.75 357.25Z" fill="#698ED0" fill-rule="evenodd"/><path d="M240.5 357.25 252.25 345.5 287.5 345.5 287.5 380.75 275.75 392.5 240.5 392.5ZM240.5 357.25 275.75 357.25 287.5 345.5M275.75 357.25 275.75 392.5" stroke="#2F528F" stroke-width="1.33333" stroke-miterlimit="8" fill="none" fill-rule="evenodd"/><rect x="193.5" y="300.25" width="35.25" height="35.25" fill="#4472C4"/><path d="M228.75 300.25 240.5 288.5 240.5 323.75 228.75 335.5Z" fill="#375C9E" fill-rule="evenodd"/><path d="M193.5 300.25 205.25 288.5 240.5 288.5 228.75 300.25Z" fill="#698ED0" fill-rule="evenodd"/><path d="M193.5 300.25 205.25 288.5 240.5 288.5 240.5 323.75 228.75 335.5 193.5 335.5ZM193.5 300.25 228.75 300.25 240.5 288.5M228.75 300.25 228.75 335.5" stroke="#2F528F" stroke-width="1.33333" stroke-miterlimit="8" fill="none" fill-rule="evenodd"/><rect x="182.5" y="311.25" width="35.25" height="36.25" fill="#4472C4"/><path d="M217.75 311.25 229.5 299.5 229.5 335.75 217.75 347.5Z" fill="#375C9E" fill-rule="evenodd"/><path d="M182.5 311.25 194.25 299.5 229.5 299.5 217.75 311.25Z" fill="#698ED0" fill-rule="evenodd"/><path d="M182.5 311.25 194.25 299.5 229.5 299.5 229.5 335.75 217.75 347.5 182.5 347.5ZM182.5 311.25 217.75 311.25 229.5 299.5M217.75 311.25 217.75 347.5" stroke="#2F528F" stroke-width="1.33333" stroke-miterlimit="8" fill="none" fill-rule="evenodd"/><rect x="170.5" y="323.25" width="35.25" height="35.25" fill="#4472C4"/><path d="M205.75 323.25 217.5 311.5 217.5 346.75 205.75 358.5Z" fill="#375C9E" fill-rule="evenodd"/><path d="M170.5 323.25 182.25 311.5 217.5 311.5 205.75 323.25Z" fill="#698ED0" fill-rule="evenodd"/><path d="M170.5 323.25 182.25 311.5 217.5 311.5 217.5 346.75 205.75 358.5 170.5 358.5ZM170.5 323.25 205.75 323.25 217.5 311.5M205.75 323.25 205.75 358.5" stroke="#2F528F" stroke-width="1.33333" stroke-miterlimit="8" fill="none" fill-rule="evenodd"/><rect x="228.5" y="300.25" width="35.25" height="35.25" fill="#4472C4"/><path d="M263.75 300.25 275.5 288.5 275.5 323.75 263.75 335.5Z" fill="#375C9E" fill-rule="evenodd"/><path d="M228.5 300.25 240.25 288.5 275.5 288.5 263.75 300.25Z" fill="#698ED0" fill-rule="evenodd"/><path d="M228.5 300.25 240.25 288.5 275.5 288.5 275.5 323.75 263.75 335.5 228.5 335.5ZM228.5 300.25 263.75 300.25 275.5 288.5M263.75 300.25 263.75 335.5" stroke="#2F528F" stroke-width="1.33333" stroke-miterlimit="8" fill="none" fill-rule="evenodd"/><rect x="217.5" y="311.25" width="35.25" height="36.25" fill="#4472C4"/><path d="M252.75 311.25 264.5 299.5 264.5 335.75 252.75 347.5Z" fill="#375C9E" fill-rule="evenodd"/><path d="M217.5 311.25 229.25 299.5 264.5 299.5 252.75 311.25Z" fill="#698ED0" fill-rule="evenodd"/><path d="M217.5 311.25 229.25 299.5 264.5 299.5 264.5 335.75 252.75 347.5 217.5 347.5ZM217.5 311.25 252.75 311.25 264.5 299.5M252.75 311.25 252.75 347.5" stroke="#2F528F" stroke-width="1.33333" stroke-miterlimit="8" fill="none" fill-rule="evenodd"/><rect x="205.5" y="323.25" width="35.25" height="35.25" fill="#4472C4"/><path d="M240.75 323.25 252.5 311.5 252.5 346.75 240.75 358.5Z" fill="#375C9E" fill-rule="evenodd"/><path d="M205.5 323.25 217.25 311.5 252.5 311.5 240.75 323.25Z" fill="#698ED0" fill-rule="evenodd"/><path d="M205.5 323.25 217.25 311.5 252.5 311.5 252.5 346.75 240.75 358.5 205.5 358.5ZM205.5 323.25 240.75 323.25 252.5 311.5M240.75 323.25 240.75 358.5" stroke="#2F528F" stroke-width="1.33333" stroke-miterlimit="8" fill="none" fill-rule="evenodd"/><rect x="263.5" y="300.25" width="36.25" height="35.25" fill="#4472C4"/><path d="M299.75 300.25 311.5 288.5 311.5 323.75 299.75 335.5Z" fill="#375C9E" fill-rule="evenodd"/><path d="M263.5 300.25 275.25 288.5 311.5 288.5 299.75 300.25Z" fill="#698ED0" fill-rule="evenodd"/><path d="M263.5 300.25 275.25 288.5 311.5 288.5 311.5 323.75 299.75 335.5 263.5 335.5ZM263.5 300.25 299.75 300.25 311.5 288.5M299.75 300.25 299.75 335.5" stroke="#2F528F" stroke-width="1.33333" stroke-miterlimit="8" fill="none" fill-rule="evenodd"/><rect x="252.5" y="311.25" width="35.25" height="36.25" fill="#4472C4"/><path d="M287.75 311.25 299.5 299.5 299.5 335.75 287.75 347.5Z" fill="#375C9E" fill-rule="evenodd"/><path d="M252.5 311.25 264.25 299.5 299.5 299.5 287.75 311.25Z" fill="#698ED0" fill-rule="evenodd"/><path d="M252.5 311.25 264.25 299.5 299.5 299.5 299.5 335.75 287.75 347.5 252.5 347.5ZM252.5 311.25 287.75 311.25 299.5 299.5M287.75 311.25 287.75 347.5" stroke="#2F528F" stroke-width="1.33333" stroke-miterlimit="8" fill="none" fill-rule="evenodd"/><rect x="240.5" y="323.25" width="35.25" height="35.25" fill="#4472C4"/><path d="M275.75 323.25 287.5 311.5 287.5 346.75 275.75 358.5Z" fill="#375C9E" fill-rule="evenodd"/><path d="M240.5 323.25 252.25 311.5 287.5 311.5 275.75 323.25Z" fill="#698ED0" fill-rule="evenodd"/><path d="M240.5 323.25 252.25 311.5 287.5 311.5 287.5 346.75 275.75 358.5 240.5 358.5ZM240.5 323.25 275.75 323.25 287.5 311.5M275.75 323.25 275.75 358.5" stroke="#2F528F" stroke-width="1.33333" stroke-miterlimit="8" fill="none" fill-rule="evenodd"/><rect x="263.5" y="527.5" width="36" height="36" fill="#4472C4"/><path d="M299.5 527.5 311.5 515.5 311.5 551.5 299.5 563.5Z" fill="#375C9E" fill-rule="evenodd"/><path d="M263.5 527.5 275.5 515.5 311.5 515.5 299.5 527.5Z" fill="#698ED0" fill-rule="evenodd"/><path d="M263.5 527.5 275.5 515.5 311.5 515.5 311.5 551.5 299.5 563.5 263.5 563.5ZM263.5 527.5 299.5 527.5 311.5 515.5M299.5 527.5 299.5 563.5" stroke="#2F528F" stroke-width="1.33333" stroke-miterlimit="8" fill="none" fill-rule="evenodd"/><rect x="252.5" y="540.25" width="35.25" height="35.25" fill="#4472C4"/><path d="M287.75 540.25 299.5 528.5 299.5 563.75 287.75 575.5Z" fill="#375C9E" fill-rule="evenodd"/><path d="M252.5 540.25 264.25 528.5 299.5 528.5 287.75 540.25Z" fill="#698ED0" fill-rule="evenodd"/><path d="M252.5 540.25 264.25 528.5 299.5 528.5 299.5 563.75 287.75 575.5 252.5 575.5ZM252.5 540.25 287.75 540.25 299.5 528.5M287.75 540.25 287.75 575.5" stroke="#2F528F" stroke-width="1.33333" stroke-miterlimit="8" fill="none" fill-rule="evenodd"/><rect x="263.5" y="494.25" width="36.25" height="35.25" fill="#4472C4"/><path d="M299.75 494.25 311.5 482.5 311.5 517.75 299.75 529.5Z" fill="#375C9E" fill-rule="evenodd"/><path d="M263.5 494.25 275.25 482.5 311.5 482.5 299.75 494.25Z" fill="#698ED0" fill-rule="evenodd"/><path d="M263.5 494.25 275.25 482.5 311.5 482.5 311.5 517.75 299.75 529.5 263.5 529.5ZM263.5 494.25 299.75 494.25 311.5 482.5M299.75 494.25 299.75 529.5" stroke="#2F528F" stroke-width="1.33333" stroke-miterlimit="8" fill="none" fill-rule="evenodd"/><rect x="252.5" y="505.25" width="35.25" height="36.25" fill="#4472C4"/><path d="M287.75 505.25 299.5 493.5 299.5 529.75 287.75 541.5Z" fill="#375C9E" fill-rule="evenodd"/><path d="M252.5 505.25 264.25 493.5 299.5 493.5 287.75 505.25Z" fill="#698ED0" fill-rule="evenodd"/><path d="M252.5 505.25 264.25 493.5 299.5 493.5 299.5 529.75 287.75 541.5 252.5 541.5ZM252.5 505.25 287.75 505.25 299.5 493.5M287.75 505.25 287.75 541.5" stroke="#2F528F" stroke-width="1.33333" stroke-miterlimit="8" fill="none" fill-rule="evenodd"/><rect x="170.5" y="552.25" width="35.25" height="35.25" fill="#4472C4"/><path d="M205.75 552.25 217.5 540.5 217.5 575.75 205.75 587.5Z" fill="#375C9E" fill-rule="evenodd"/><path d="M170.5 552.25 182.25 540.5 217.5 540.5 205.75 552.25Z" fill="#698ED0" fill-rule="evenodd"/><path d="M170.5 552.25 182.25 540.5 217.5 540.5 217.5 575.75 205.75 587.5 170.5 587.5ZM170.5 552.25 205.75 552.25 217.5 540.5M205.75 552.25 205.75 587.5" stroke="#2F528F" stroke-width="1.33333" stroke-miterlimit="8" fill="none" fill-rule="evenodd"/><rect x="205.5" y="552.25" width="36.25" height="35.25" fill="#4472C4"/><path d="M241.75 552.25 253.5 540.5 253.5 575.75 241.75 587.5Z" fill="#375C9E" fill-rule="evenodd"/><path d="M205.5 552.25 217.25 540.5 253.5 540.5 241.75 552.25Z" fill="#698ED0" fill-rule="evenodd"/><path d="M205.5 552.25 217.25 540.5 253.5 540.5 253.5 575.75 241.75 587.5 205.5 587.5ZM205.5 552.25 241.75 552.25 253.5 540.5M241.75 552.25 241.75 587.5" stroke="#2F528F" stroke-width="1.33333" stroke-miterlimit="8" fill="none" fill-rule="evenodd"/><rect x="170.5" y="517.25" width="35.25" height="36.25" fill="#4472C4"/><path d="M205.75 517.25 217.5 505.5 217.5 541.75 205.75 553.5Z" fill="#375C9E" fill-rule="evenodd"/><path d="M170.5 517.25 182.25 505.5 217.5 505.5 205.75 517.25Z" fill="#698ED0" fill-rule="evenodd"/><path d="M170.5 517.25 182.25 505.5 217.5 505.5 217.5 541.75 205.75 553.5 170.5 553.5ZM170.5 517.25 205.75 517.25 217.5 505.5M205.75 517.25 205.75 553.5" stroke="#2F528F" stroke-width="1.33333" stroke-miterlimit="8" fill="none" fill-rule="evenodd"/><rect x="205.5" y="517.25" width="35.25" height="36.25" fill="#4472C4"/><path d="M240.75 517.25 252.5 505.5 252.5 541.75 240.75 553.5Z" fill="#375C9E" fill-rule="evenodd"/><path d="M205.5 517.25 217.25 505.5 252.5 505.5 240.75 517.25Z" fill="#698ED0" fill-rule="evenodd"/><path d="M205.5 517.25 217.25 505.5 252.5 505.5 252.5 541.75 240.75 553.5 205.5 553.5ZM205.5 517.25 240.75 517.25 252.5 505.5M240.75 517.25 240.75 553.5" stroke="#2F528F" stroke-width="1.33333" stroke-miterlimit="8" fill="none" fill-rule="evenodd"/><rect x="240.5" y="552.25" width="35.25" height="35.25" fill="#4472C4"/><path d="M275.75 552.25 287.5 540.5 287.5 575.75 275.75 587.5Z" fill="#375C9E" fill-rule="evenodd"/><path d="M240.5 552.25 252.25 540.5 287.5 540.5 275.75 552.25Z" fill="#698ED0" fill-rule="evenodd"/><path d="M240.5 552.25 252.25 540.5 287.5 540.5 287.5 575.75 275.75 587.5 240.5 587.5ZM240.5 552.25 275.75 552.25 287.5 540.5M275.75 552.25 275.75 587.5" stroke="#2F528F" stroke-width="1.33333" stroke-miterlimit="8" fill="none" fill-rule="evenodd"/><rect x="240.5" y="517.25" width="35.25" height="36.25" fill="#4472C4"/><path d="M275.75 517.25 287.5 505.5 287.5 541.75 275.75 553.5Z" fill="#375C9E" fill-rule="evenodd"/><path d="M240.5 517.25 252.25 505.5 287.5 505.5 275.75 517.25Z" fill="#698ED0" fill-rule="evenodd"/><path d="M240.5 517.25 252.25 505.5 287.5 505.5 287.5 541.75 275.75 553.5 240.5 553.5ZM240.5 517.25 275.75 517.25 287.5 505.5M275.75 517.25 275.75 553.5" stroke="#2F528F" stroke-width="1.33333" stroke-miterlimit="8" fill="none" fill-rule="evenodd"/><rect x="193.5" y="460.25" width="35.25" height="35.25" fill="#4472C4"/><path d="M228.75 460.25 240.5 448.5 240.5 483.75 228.75 495.5Z" fill="#375C9E" fill-rule="evenodd"/><path d="M193.5 460.25 205.25 448.5 240.5 448.5 228.75 460.25Z" fill="#698ED0" fill-rule="evenodd"/><path d="M193.5 460.25 205.25 448.5 240.5 448.5 240.5 483.75 228.75 495.5 193.5 495.5ZM193.5 460.25 228.75 460.25 240.5 448.5M228.75 460.25 228.75 495.5" stroke="#2F528F" stroke-width="1.33333" stroke-miterlimit="8" fill="none" fill-rule="evenodd"/><rect x="182.5" y="471.25" width="35.25" height="36.25" fill="#4472C4"/><path d="M217.75 471.25 229.5 459.5 229.5 495.75 217.75 507.5Z" fill="#375C9E" fill-rule="evenodd"/><path d="M182.5 471.25 194.25 459.5 229.5 459.5 217.75 471.25Z" fill="#698ED0" fill-rule="evenodd"/><path d="M182.5 471.25 194.25 459.5 229.5 459.5 229.5 495.75 217.75 507.5 182.5 507.5ZM182.5 471.25 217.75 471.25 229.5 459.5M217.75 471.25 217.75 507.5" stroke="#2F528F" stroke-width="1.33333" stroke-miterlimit="8" fill="none" fill-rule="evenodd"/><rect x="170.5" y="483.25" width="35.25" height="35.25" fill="#4472C4"/><path d="M205.75 483.25 217.5 471.5 217.5 506.75 205.75 518.5Z" fill="#375C9E" fill-rule="evenodd"/><path d="M170.5 483.25 182.25 471.5 217.5 471.5 205.75 483.25Z" fill="#698ED0" fill-rule="evenodd"/><path d="M170.5 483.25 182.25 471.5 217.5 471.5 217.5 506.75 205.75 518.5 170.5 518.5ZM170.5 483.25 205.75 483.25 217.5 471.5M205.75 483.25 205.75 518.5" stroke="#2F528F" stroke-width="1.33333" stroke-miterlimit="8" fill="none" fill-rule="evenodd"/><rect x="228.5" y="460.25" width="35.25" height="35.25" fill="#4472C4"/><path d="M263.75 460.25 275.5 448.5 275.5 483.75 263.75 495.5Z" fill="#375C9E" fill-rule="evenodd"/><path d="M228.5 460.25 240.25 448.5 275.5 448.5 263.75 460.25Z" fill="#698ED0" fill-rule="evenodd"/><path d="M228.5 460.25 240.25 448.5 275.5 448.5 275.5 483.75 263.75 495.5 228.5 495.5ZM228.5 460.25 263.75 460.25 275.5 448.5M263.75 460.25 263.75 495.5" stroke="#2F528F" stroke-width="1.33333" stroke-miterlimit="8" fill="none" fill-rule="evenodd"/><rect x="217.5" y="471.25" width="35.25" height="36.25" fill="#4472C4"/><path d="M252.75 471.25 264.5 459.5 264.5 495.75 252.75 507.5Z" fill="#375C9E" fill-rule="evenodd"/><path d="M217.5 471.25 229.25 459.5 264.5 459.5 252.75 471.25Z" fill="#698ED0" fill-rule="evenodd"/><path d="M217.5 471.25 229.25 459.5 264.5 459.5 264.5 495.75 252.75 507.5 217.5 507.5ZM217.5 471.25 252.75 471.25 264.5 459.5M252.75 471.25 252.75 507.5" stroke="#2F528F" stroke-width="1.33333" stroke-miterlimit="8" fill="none" fill-rule="evenodd"/><rect x="205.5" y="483.25" width="35.25" height="35.25" fill="#4472C4"/><path d="M240.75 483.25 252.5 471.5 252.5 506.75 240.75 518.5Z" fill="#375C9E" fill-rule="evenodd"/><path d="M205.5 483.25 217.25 471.5 252.5 471.5 240.75 483.25Z" fill="#698ED0" fill-rule="evenodd"/><path d="M205.5 483.25 217.25 471.5 252.5 471.5 252.5 506.75 240.75 518.5 205.5 518.5ZM205.5 483.25 240.75 483.25 252.5 471.5M240.75 483.25 240.75 518.5" stroke="#2F528F" stroke-width="1.33333" stroke-miterlimit="8" fill="none" fill-rule="evenodd"/><rect x="263.5" y="460.25" width="36.25" height="35.25" fill="#4472C4"/><path d="M299.75 460.25 311.5 448.5 311.5 483.75 299.75 495.5Z" fill="#375C9E" fill-rule="evenodd"/><path d="M263.5 460.25 275.25 448.5 311.5 448.5 299.75 460.25Z" fill="#698ED0" fill-rule="evenodd"/><path d="M263.5 460.25 275.25 448.5 311.5 448.5 311.5 483.75 299.75 495.5 263.5 495.5ZM263.5 460.25 299.75 460.25 311.5 448.5M299.75 460.25 299.75 495.5" stroke="#2F528F" stroke-width="1.33333" stroke-miterlimit="8" fill="none" fill-rule="evenodd"/><rect x="252.5" y="471.25" width="35.25" height="36.25" fill="#4472C4"/><path d="M287.75 471.25 299.5 459.5 299.5 495.75 287.75 507.5Z" fill="#375C9E" fill-rule="evenodd"/><path d="M252.5 471.25 264.25 459.5 299.5 459.5 287.75 471.25Z" fill="#698ED0" fill-rule="evenodd"/><path d="M252.5 471.25 264.25 459.5 299.5 459.5 299.5 495.75 287.75 507.5 252.5 507.5ZM252.5 471.25 287.75 471.25 299.5 459.5M287.75 471.25 287.75 507.5" stroke="#2F528F" stroke-width="1.33333" stroke-miterlimit="8" fill="none" fill-rule="evenodd"/><rect x="240.5" y="483.25" width="35.25" height="35.25" fill="#4472C4"/><path d="M275.75 483.25 287.5 471.5 287.5 506.75 275.75 518.5Z" fill="#375C9E" fill-rule="evenodd"/><path d="M240.5 483.25 252.25 471.5 287.5 471.5 275.75 483.25Z" fill="#698ED0" fill-rule="evenodd"/><path d="M240.5 483.25 252.25 471.5 287.5 471.5 287.5 506.75 275.75 518.5 240.5 518.5ZM240.5 483.25 275.75 483.25 287.5 471.5M275.75 483.25 275.75 518.5" stroke="#2F528F" stroke-width="1.33333" stroke-miterlimit="8" fill="none" fill-rule="evenodd"/><rect x="263.5" y="205.5" width="36" height="36" fill="#FFC000"/><path d="M299.5 205.5 311.5 193.5 311.5 229.5 299.5 241.5Z" fill="#CD9A00" fill-rule="evenodd"/><path d="M263.5 205.5 275.5 193.5 311.5 193.5 299.5 205.5Z" fill="#FFCC32" fill-rule="evenodd"/><path d="M263.5 205.5 275.5 193.5 311.5 193.5 311.5 229.5 299.5 241.5 263.5 241.5ZM263.5 205.5 299.5 205.5 311.5 193.5M299.5 205.5 299.5 241.5" stroke="#BC8C00" stroke-width="1.33333" stroke-miterlimit="8" fill="none" fill-rule="evenodd"/><rect x="252.5" y="217.25" width="35.25" height="36.25" fill="#FFC000"/><path d="M287.75 217.25 299.5 205.5 299.5 241.75 287.75 253.5Z" fill="#CD9A00" fill-rule="evenodd"/><path d="M252.5 217.25 264.25 205.5 299.5 205.5 287.75 217.25Z" fill="#FFCC32" fill-rule="evenodd"/><path d="M252.5 217.25 264.25 205.5 299.5 205.5 299.5 241.75 287.75 253.5 252.5 253.5ZM252.5 217.25 287.75 217.25 299.5 205.5M287.75 217.25 287.75 253.5" stroke="#BC8C00" stroke-width="1.33333" stroke-miterlimit="8" fill="none" fill-rule="evenodd"/><rect x="263.5" y="172.25" width="36.25" height="35.25" fill="#FFC000"/><path d="M299.75 172.25 311.5 160.5 311.5 195.75 299.75 207.5Z" fill="#CD9A00" fill-rule="evenodd"/><path d="M263.5 172.25 275.25 160.5 311.5 160.5 299.75 172.25Z" fill="#FFCC32" fill-rule="evenodd"/><path d="M263.5 172.25 275.25 160.5 311.5 160.5 311.5 195.75 299.75 207.5 263.5 207.5ZM263.5 172.25 299.75 172.25 311.5 160.5M299.75 172.25 299.75 207.5" stroke="#BC8C00" stroke-width="1.33333" stroke-miterlimit="8" fill="none" fill-rule="evenodd"/><rect x="252.5" y="183.25" width="35.25" height="35.25" fill="#FFC000"/><path d="M287.75 183.25 299.5 171.5 299.5 206.75 287.75 218.5Z" fill="#CD9A00" fill-rule="evenodd"/><path d="M252.5 183.25 264.25 171.5 299.5 171.5 287.75 183.25Z" fill="#FFCC32" fill-rule="evenodd"/><path d="M252.5 183.25 264.25 171.5 299.5 171.5 299.5 206.75 287.75 218.5 252.5 218.5ZM252.5 183.25 287.75 183.25 299.5 171.5M287.75 183.25 287.75 218.5" stroke="#BC8C00" stroke-width="1.33333" stroke-miterlimit="8" fill="none" fill-rule="evenodd"/><rect x="170.5" y="230.25" width="35.25" height="35.25" fill="#FFC000"/><path d="M205.75 230.25 217.5 218.5 217.5 253.75 205.75 265.5Z" fill="#CD9A00" fill-rule="evenodd"/><path d="M170.5 230.25 182.25 218.5 217.5 218.5 205.75 230.25Z" fill="#FFCC32" fill-rule="evenodd"/><path d="M170.5 230.25 182.25 218.5 217.5 218.5 217.5 253.75 205.75 265.5 170.5 265.5ZM170.5 230.25 205.75 230.25 217.5 218.5M205.75 230.25 205.75 265.5" stroke="#BC8C00" stroke-width="1.33333" stroke-miterlimit="8" fill="none" fill-rule="evenodd"/><rect x="205.5" y="230.25" width="36.25" height="35.25" fill="#FFC000"/><path d="M241.75 230.25 253.5 218.5 253.5 253.75 241.75 265.5Z" fill="#CD9A00" fill-rule="evenodd"/><path d="M205.5 230.25 217.25 218.5 253.5 218.5 241.75 230.25Z" fill="#FFCC32" fill-rule="evenodd"/><path d="M205.5 230.25 217.25 218.5 253.5 218.5 253.5 253.75 241.75 265.5 205.5 265.5ZM205.5 230.25 241.75 230.25 253.5 218.5M241.75 230.25 241.75 265.5" stroke="#BC8C00" stroke-width="1.33333" stroke-miterlimit="8" fill="none" fill-rule="evenodd"/><rect x="170.5" y="195.25" width="35.25" height="35.25" fill="#FFC000"/><path d="M205.75 195.25 217.5 183.5 217.5 218.75 205.75 230.5Z" fill="#CD9A00" fill-rule="evenodd"/><path d="M170.5 195.25 182.25 183.5 217.5 183.5 205.75 195.25Z" fill="#FFCC32" fill-rule="evenodd"/><path d="M170.5 195.25 182.25 183.5 217.5 183.5 217.5 218.75 205.75 230.5 170.5 230.5ZM170.5 195.25 205.75 195.25 217.5 183.5M205.75 195.25 205.75 230.5" stroke="#BC8C00" stroke-width="1.33333" stroke-miterlimit="8" fill="none" fill-rule="evenodd"/><rect x="205.5" y="195.25" width="35.25" height="35.25" fill="#FFC000"/><path d="M240.75 195.25 252.5 183.5 252.5 218.75 240.75 230.5Z" fill="#CD9A00" fill-rule="evenodd"/><path d="M205.5 195.25 217.25 183.5 252.5 183.5 240.75 195.25Z" fill="#FFCC32" fill-rule="evenodd"/><path d="M205.5 195.25 217.25 183.5 252.5 183.5 252.5 218.75 240.75 230.5 205.5 230.5ZM205.5 195.25 240.75 195.25 252.5 183.5M240.75 195.25 240.75 230.5" stroke="#BC8C00" stroke-width="1.33333" stroke-miterlimit="8" fill="none" fill-rule="evenodd"/><rect x="240.5" y="230.25" width="35.25" height="35.25" fill="#FFC000"/><path d="M275.75 230.25 287.5 218.5 287.5 253.75 275.75 265.5Z" fill="#CD9A00" fill-rule="evenodd"/><path d="M240.5 230.25 252.25 218.5 287.5 218.5 275.75 230.25Z" fill="#FFCC32" fill-rule="evenodd"/><path d="M240.5 230.25 252.25 218.5 287.5 218.5 287.5 253.75 275.75 265.5 240.5 265.5ZM240.5 230.25 275.75 230.25 287.5 218.5M275.75 230.25 275.75 265.5" stroke="#BC8C00" stroke-width="1.33333" stroke-miterlimit="8" fill="none" fill-rule="evenodd"/><rect x="240.5" y="195.25" width="35.25" height="35.25" fill="#FFC000"/><path d="M275.75 195.25 287.5 183.5 287.5 218.75 275.75 230.5Z" fill="#CD9A00" fill-rule="evenodd"/><path d="M240.5 195.25 252.25 183.5 287.5 183.5 275.75 195.25Z" fill="#FFCC32" fill-rule="evenodd"/><path d="M240.5 195.25 252.25 183.5 287.5 183.5 287.5 218.75 275.75 230.5 240.5 230.5ZM240.5 195.25 275.75 195.25 287.5 183.5M275.75 195.25 275.75 230.5" stroke="#BC8C00" stroke-width="1.33333" stroke-miterlimit="8" fill="none" fill-rule="evenodd"/><rect x="193.5" y="138.25" width="35.25" height="35.25" fill="#FFC000"/><path d="M228.75 138.25 240.5 126.5 240.5 161.75 228.75 173.5Z" fill="#CD9A00" fill-rule="evenodd"/><path d="M193.5 138.25 205.25 126.5 240.5 126.5 228.75 138.25Z" fill="#FFCC32" fill-rule="evenodd"/><path d="M193.5 138.25 205.25 126.5 240.5 126.5 240.5 161.75 228.75 173.5 193.5 173.5ZM193.5 138.25 228.75 138.25 240.5 126.5M228.75 138.25 228.75 173.5" stroke="#BC8C00" stroke-width="1.33333" stroke-miterlimit="8" fill="none" fill-rule="evenodd"/><rect x="182.5" y="149.25" width="35.25" height="36.25" fill="#FFC000"/><path d="M217.75 149.25 229.5 137.5 229.5 173.75 217.75 185.5Z" fill="#CD9A00" fill-rule="evenodd"/><path d="M182.5 149.25 194.25 137.5 229.5 137.5 217.75 149.25Z" fill="#FFCC32" fill-rule="evenodd"/><path d="M182.5 149.25 194.25 137.5 229.5 137.5 229.5 173.75 217.75 185.5 182.5 185.5ZM182.5 149.25 217.75 149.25 229.5 137.5M217.75 149.25 217.75 185.5" stroke="#BC8C00" stroke-width="1.33333" stroke-miterlimit="8" fill="none" fill-rule="evenodd"/><rect x="170.5" y="161.25" width="35.25" height="35.25" fill="#FFC000"/><path d="M205.75 161.25 217.5 149.5 217.5 184.75 205.75 196.5Z" fill="#CD9A00" fill-rule="evenodd"/><path d="M170.5 161.25 182.25 149.5 217.5 149.5 205.75 161.25Z" fill="#FFCC32" fill-rule="evenodd"/><path d="M170.5 161.25 182.25 149.5 217.5 149.5 217.5 184.75 205.75 196.5 170.5 196.5ZM170.5 161.25 205.75 161.25 217.5 149.5M205.75 161.25 205.75 196.5" stroke="#BC8C00" stroke-width="1.33333" stroke-miterlimit="8" fill="none" fill-rule="evenodd"/><rect x="228.5" y="138.25" width="35.25" height="35.25" fill="#FFC000"/><path d="M263.75 138.25 275.5 126.5 275.5 161.75 263.75 173.5Z" fill="#CD9A00" fill-rule="evenodd"/><path d="M228.5 138.25 240.25 126.5 275.5 126.5 263.75 138.25Z" fill="#FFCC32" fill-rule="evenodd"/><path d="M228.5 138.25 240.25 126.5 275.5 126.5 275.5 161.75 263.75 173.5 228.5 173.5ZM228.5 138.25 263.75 138.25 275.5 126.5M263.75 138.25 263.75 173.5" stroke="#BC8C00" stroke-width="1.33333" stroke-miterlimit="8" fill="none" fill-rule="evenodd"/><rect x="217.5" y="149.25" width="35.25" height="36.25" fill="#FFC000"/><path d="M252.75 149.25 264.5 137.5 264.5 173.75 252.75 185.5Z" fill="#CD9A00" fill-rule="evenodd"/><path d="M217.5 149.25 229.25 137.5 264.5 137.5 252.75 149.25Z" fill="#FFCC32" fill-rule="evenodd"/><path d="M217.5 149.25 229.25 137.5 264.5 137.5 264.5 173.75 252.75 185.5 217.5 185.5ZM217.5 149.25 252.75 149.25 264.5 137.5M252.75 149.25 252.75 185.5" stroke="#BC8C00" stroke-width="1.33333" stroke-miterlimit="8" fill="none" fill-rule="evenodd"/><rect x="205.5" y="161.25" width="35.25" height="35.25" fill="#FFC000"/><path d="M240.75 161.25 252.5 149.5 252.5 184.75 240.75 196.5Z" fill="#CD9A00" fill-rule="evenodd"/><path d="M205.5 161.25 217.25 149.5 252.5 149.5 240.75 161.25Z" fill="#FFCC32" fill-rule="evenodd"/><path d="M205.5 161.25 217.25 149.5 252.5 149.5 252.5 184.75 240.75 196.5 205.5 196.5ZM205.5 161.25 240.75 161.25 252.5 149.5M240.75 161.25 240.75 196.5" stroke="#BC8C00" stroke-width="1.33333" stroke-miterlimit="8" fill="none" fill-rule="evenodd"/><rect x="263.5" y="138.25" width="36.25" height="35.25" fill="#FFC000"/><path d="M299.75 138.25 311.5 126.5 311.5 161.75 299.75 173.5Z" fill="#CD9A00" fill-rule="evenodd"/><path d="M263.5 138.25 275.25 126.5 311.5 126.5 299.75 138.25Z" fill="#FFCC32" fill-rule="evenodd"/><path d="M263.5 138.25 275.25 126.5 311.5 126.5 311.5 161.75 299.75 173.5 263.5 173.5ZM263.5 138.25 299.75 138.25 311.5 126.5M299.75 138.25 299.75 173.5" stroke="#BC8C00" stroke-width="1.33333" stroke-miterlimit="8" fill="none" fill-rule="evenodd"/><rect x="252.5" y="149.25" width="35.25" height="36.25" fill="#FFC000"/><path d="M287.75 149.25 299.5 137.5 299.5 173.75 287.75 185.5Z" fill="#CD9A00" fill-rule="evenodd"/><path d="M252.5 149.25 264.25 137.5 299.5 137.5 287.75 149.25Z" fill="#FFCC32" fill-rule="evenodd"/><path d="M252.5 149.25 264.25 137.5 299.5 137.5 299.5 173.75 287.75 185.5 252.5 185.5ZM252.5 149.25 287.75 149.25 299.5 137.5M287.75 149.25 287.75 185.5" stroke="#BC8C00" stroke-width="1.33333" stroke-miterlimit="8" fill="none" fill-rule="evenodd"/><rect x="240.5" y="161.25" width="35.25" height="35.25" fill="#FFC000"/><path d="M275.75 161.25 287.5 149.5 287.5 184.75 275.75 196.5Z" fill="#CD9A00" fill-rule="evenodd"/><path d="M240.5 161.25 252.25 149.5 287.5 149.5 275.75 161.25Z" fill="#FFCC32" fill-rule="evenodd"/><path d="M240.5 161.25 252.25 149.5 287.5 149.5 287.5 184.75 275.75 196.5 240.5 196.5ZM240.5 161.25 275.75 161.25 287.5 149.5M275.75 161.25 275.75 196.5" stroke="#BC8C00" stroke-width="1.33333" stroke-miterlimit="8" fill="none" fill-rule="evenodd"/></g></svg>