<svg width="1529" height="1003" xmlns="http://www.w3.org/2000/svg" xmlns:xlink="http://www.w3.org/1999/xlink" overflow="hidden"><defs><clipPath id="clip0"><path d="M-22-1 1507-1 1507 1002-22 1002Z" fill-rule="evenodd" clip-rule="evenodd"/></clipPath></defs><g clip-path="url(#clip0)" transform="translate(22 1)"><path d="M19.5001 175.5C19.5001 121.376 63.3761 77.5001 117.5 77.5001 171.624 77.5001 215.5 121.376 215.5 175.5 215.5 229.624 171.624 273.5 117.5 273.5 63.3761 273.5 19.5001 229.624 19.5001 175.5Z" stroke="#000000" stroke-linejoin="round" stroke-miterlimit="10" fill="none" fill-rule="evenodd"/><text font-family="Calibri,Calibri_MSFontService,sans-serif" font-weight="700" font-size="27" transform="translate(92.8178 184)">IDLE</text><path d="M10.4776 61.6521 42.7101 96.9859 39.755 99.6816 7.52243 64.3479ZM44.3174 92.8125 47.972 105.722 35.452 100.9Z"/><text font-family="Cambria Math,Cambria Math_MSFontService,sans-serif" font-weight="400" font-size="29" transform="translate(58.9788 60)">𝑟𝑠𝑡</text><path d="M0.0126491-0.333093 4.96297-0.145107 9.86997 0.421086 19.4728 2.68059 28.3908 6.07192 36.43 10.5312 39.9548 13.1119 43.2274 15.818 46.0002 18.7168 48.4602 21.7445 50.3577 24.8438 51.8146 28.0742 52.7041 31.3145 53.0222 34.6235 52.4549 41.1162 50.9433 47.4144 48.55 53.3347 45.4622 58.6281 41.8003 63.1108 37.674 66.5388 35.178 67.5697 34.9235 66.9535 37.3728 65.9419 37.287 65.9936 41.3495 62.6186 41.3044 62.6641 44.9294 58.2266 44.8996 58.2695 47.9621 53.0195 47.941 53.0626 50.316 47.1876 50.3009 47.2347 51.8009 40.9847 51.7929 41.0335 52.3554 34.596 52.3557 34.6569 52.0432 31.4069 52.0536 31.4632 51.1786 28.2757 51.1961 28.3245 49.7586 25.137 49.7782 25.1741 47.9032 22.1116 47.9288 22.1477 45.4913 19.1477 45.5091 19.1679 42.7591 16.2929 42.7876 16.3194 39.5376 13.6319 39.5531 13.644 36.0531 11.0815 36.0883 11.104 28.0883 6.66649 28.1315 6.68656 19.2565 3.31157 19.2987 3.32447 9.73615 1.07447 9.77429 1.08114 4.89929 0.518636 4.92485 0.520593-0.0126491 0.333093ZM37.5164 70.6818 28.6875 69.25 35.1303 63.046Z" transform="matrix(-4.37114e-08 -1 -1 4.37114e-08 186.693 106.161)"/><text font-family="Cambria Math,Cambria Math_MSFontService,sans-serif" font-weight="400" font-size="29" transform="translate(148.364 39)">𝑠<tspan font-size="21" x="12.9467" y="6">𝑑𝑠𝑐</tspan></text><path d="M148.624 18.215 173.624 18.215 198.624 18.215 198.624 20.215 173.624 20.215 148.624 20.215Z" fill-rule="evenodd"/><text font-family="Cambria Math,Cambria Math_MSFontService,sans-serif" font-weight="400" font-size="29" transform="translate(254.178 208)">𝑠<tspan font-size="21" x="12.9467" y="6">𝑑𝑠𝑐</tspan></text><path d="M22.5001 537.5C22.5001 483.376 66.1523 439.5 120 439.5 173.848 439.5 217.5 483.376 217.5 537.5 217.5 591.624 173.848 635.5 120 635.5 66.1523 635.5 22.5001 591.624 22.5001 537.5Z" stroke="#000000" stroke-linejoin="round" stroke-miterlimit="10" fill="none" fill-rule="evenodd"/><text font-family="Calibri,Calibri_MSFontService,sans-serif" font-weight="700" font-size="27" transform="translate(67.7438 530)">FINISHED<tspan font-family="Cambria Math,Cambria Math_MSFontService,sans-serif" font-weight="400" x="4.81333" y="32">𝑓</tspan><tspan font-family="Cambria Math,Cambria Math_MSFontService,sans-serif" font-weight="400" font-size="20" x="15.3133" y="37">𝑑𝑠𝑐</tspan><tspan font-family="Cambria Math,Cambria Math_MSFontService,sans-serif" font-weight="400" x="56.28" y="32">=</tspan><tspan font-family="Cambria Math,Cambria Math_MSFontService,sans-serif" font-weight="400" x="83.6867" y="32">1</tspan></text><path d="M117.453 438.92 115.148 283.029 119.148 282.97 121.452 438.861ZM111.178 285.087 117 273 123.177 284.91Z"/><path d="M1306.5 589.5C1306.5 535.376 1350.15 491.5 1404 491.5 1457.85 491.5 1501.5 535.376 1501.5 589.5 1501.5 643.624 1457.85 687.5 1404 687.5 1350.15 687.5 1306.5 643.624 1306.5 589.5Z" stroke="#000000" stroke-linejoin="round" stroke-miterlimit="10" fill="none" fill-rule="evenodd"/><text font-family="Calibri,Calibri_MSFontService,sans-serif" font-weight="700" font-size="24" transform="translate(1321.28 596)">D<tspan x="14.9333" y="0">W_CONV_ADD</tspan></text><path d="M946.5 174.5C946.5 120.376 990.376 76.5001 1044.5 76.5001 1098.62 76.5001 1142.5 120.376 1142.5 174.5 1142.5 228.624 1098.62 272.5 1044.5 272.5 990.376 272.5 946.5 228.624 946.5 174.5Z" stroke="#000000" stroke-linejoin="round" stroke-miterlimit="10" fill="none" fill-rule="evenodd"/><text font-family="Calibri,Calibri_MSFontService,sans-serif" font-weight="700" font-size="27" transform="translate(969.644 138)">L<tspan x="10.8666" y="0">OAD_FMINT</tspan><tspan font-family="Cambria Math,Cambria Math_MSFontService,sans-serif" font-weight="400" font-size="24" x="10.76" y="30">𝑈𝑝𝑑𝑎𝑡𝑒</tspan><tspan font-family="Cambria Math,Cambria Math_MSFontService,sans-serif" font-weight="400" font-size="24" x="89.62" y="30"> </tspan><tspan font-family="Cambria Math,Cambria Math_MSFontService,sans-serif" font-weight="400" font-size="24" x="94.9534" y="30">𝑖𝑛𝑡</tspan><tspan font-family="Cambria Math,Cambria Math_MSFontService,sans-serif" font-weight="400" font-size="18" x="125.6" y="34">𝑥</tspan><tspan font-family="Cambria Math,Cambria Math_MSFontService,sans-serif" font-weight="400" font-size="24" x="10.3666" y="59">𝑈𝑝𝑑𝑎𝑡𝑒</tspan><tspan font-family="Cambria Math,Cambria Math_MSFontService,sans-serif" font-weight="400" font-size="24" x="89.2267" y="59"> </tspan><tspan font-family="Cambria Math,Cambria Math_MSFontService,sans-serif" font-weight="400" font-size="24" x="94.5599" y="59">𝑖𝑛𝑡</tspan><tspan font-family="Cambria Math,Cambria Math_MSFontService,sans-serif" font-weight="400" font-size="18" x="125.207" y="63">𝑦</tspan><tspan font-family="Cambria Math,Cambria Math_MSFontService,sans-serif" font-weight="400" font-size="24" x="8.73334" y="90">𝑈𝑝𝑑𝑎𝑡𝑒</tspan><tspan font-family="Cambria Math,Cambria Math_MSFontService,sans-serif" font-weight="400" font-size="24" x="87.5933" y="90"> </tspan><tspan font-family="Cambria Math,Cambria Math_MSFontService,sans-serif" font-weight="400" font-size="24" x="92.9266" y="90">𝑖𝑛𝑡</tspan><tspan font-family="Cambria Math,Cambria Math_MSFontService,sans-serif" font-weight="400" font-size="18" x="122.127" y="94">𝑓</tspan><tspan font-family="Cambria Math,Cambria Math_MSFontService,sans-serif" font-weight="400" font-size="24" x="134.087" y="90"> </tspan></text><path d="M1306.5 289.5C1306.5 235.376 1350.15 191.5 1404 191.5 1457.85 191.5 1501.5 235.376 1501.5 289.5 1501.5 343.624 1457.85 387.5 1404 387.5 1350.15 387.5 1306.5 343.624 1306.5 289.5Z" stroke="#000000" stroke-linejoin="round" stroke-miterlimit="10" fill="none" fill-rule="evenodd"/><text font-family="Calibri,Calibri_MSFontService,sans-serif" font-weight="700" font-size="25" transform="translate(1315.7 298)">D<tspan x="15.7533" y="0">W_CONV_MUL</tspan></text><path d="M1027.5 789.5C1027.5 735.376 1071.15 691.5 1125 691.5 1178.85 691.5 1222.5 735.376 1222.5 789.5 1222.5 843.624 1178.85 887.5 1125 887.5 1071.15 887.5 1027.5 843.624 1027.5 789.5Z" stroke="#000000" stroke-linejoin="round" stroke-miterlimit="10" fill="none" fill-rule="evenodd"/><text font-family="Calibri,Calibri_MSFontService,sans-serif" font-weight="700" font-size="27" transform="translate(1053.81 784)">L<tspan x="10.8666" y="0">OAD_K_</tspan>PW<tspan font-family="Cambria Math,Cambria Math_MSFontService,sans-serif" font-weight="400" font-size="24" x="26.1799" y="30">𝑛</tspan><tspan font-family="Cambria Math,Cambria Math_MSFontService,sans-serif" font-weight="400" font-size="24" x="40.0133" y="30">𝑝</tspan><tspan font-family="Cambria Math,Cambria Math_MSFontService,sans-serif" font-weight="400" font-size="24" x="58.9733" y="30">+</tspan><tspan font-family="Cambria Math,Cambria Math_MSFontService,sans-serif" font-weight="400" font-size="24" x="76.9733" y="30">=</tspan><tspan font-family="Cambria Math,Cambria Math_MSFontService,sans-serif" font-weight="400" font-size="24" x="101.64" y="30">1</tspan></text><path d="M468.5 175.5C468.5 121.376 512.376 77.5001 566.5 77.5001 620.624 77.5001 664.5 121.376 664.5 175.5 664.5 229.624 620.624 273.5 566.5 273.5 512.376 273.5 468.5 229.624 468.5 175.5Z" stroke="#000000" stroke-linejoin="round" stroke-miterlimit="10" fill="none" fill-rule="evenodd"/><text font-family="Calibri,Calibri_MSFontService,sans-serif" font-weight="700" font-size="24" transform="translate(495.915 152)">LOAD_K_DW<tspan font-family="Cambria Math,Cambria Math_MSFontService,sans-serif" font-weight="400" x="-4.57333" y="30">𝑈𝑝𝑑𝑎𝑡𝑒</tspan><tspan font-family="Cambria Math,Cambria Math_MSFontService,sans-serif" font-weight="400" x="74.2867" y="30"> </tspan><tspan font-family="Cambria Math,Cambria Math_MSFontService,sans-serif" font-weight="400" x="79.62" y="30">𝑘</tspan><tspan font-family="Cambria Math,Cambria Math_MSFontService,sans-serif" font-weight="400" font-size="18" x="92.7867" y="35">𝑥</tspan><tspan font-family="Cambria Math,Cambria Math_MSFontService,sans-serif" font-weight="400" x="104.58" y="30">,</tspan><tspan font-family="Cambria Math,Cambria Math_MSFontService,sans-serif" font-weight="400" x="113.58" y="30">𝑘</tspan><tspan font-family="Cambria Math,Cambria Math_MSFontService,sans-serif" font-weight="400" font-size="18" x="126.747" y="35">𝑦</tspan><tspan font-family="Cambria Math,Cambria Math_MSFontService,sans-serif" font-weight="400" x="7.98666" y="61">𝑈𝑝𝑑𝑎𝑡𝑒</tspan><tspan font-family="Cambria Math,Cambria Math_MSFontService,sans-serif" font-weight="400" x="86.8466" y="61"> </tspan><tspan font-family="Cambria Math,Cambria Math_MSFontService,sans-serif" font-weight="400" x="92.18" y="61">𝑘</tspan><tspan font-family="Cambria Math,Cambria Math_MSFontService,sans-serif" font-weight="400" font-size="18" x="103.9" y="66">𝑓</tspan><tspan font-family="Cambria Math,Cambria Math_MSFontService,sans-serif" font-weight="400" x="115.86" y="61"> </tspan></text><path d="M660.5 789.5C660.5 735.376 704.152 691.5 758 691.5 811.848 691.5 855.5 735.376 855.5 789.5 855.5 843.624 811.848 887.5 758 887.5 704.152 887.5 660.5 843.624 660.5 789.5Z" stroke="#000000" stroke-linejoin="round" stroke-miterlimit="10" fill="none" fill-rule="evenodd"/><text font-family="Calibri,Calibri_MSFontService,sans-serif" font-weight="700" font-size="24" transform="translate(704.802 781)">PW_<tspan x="46.6667" y="0">CONV</tspan><tspan font-family="Cambria Math,Cambria Math_MSFontService,sans-serif" font-weight="400" x="6.28003" y="30">𝑡</tspan><tspan font-family="Cambria Math,Cambria Math_MSFontService,sans-serif" font-weight="400" font-size="18" x="15.4267" y="35">𝑜</tspan><tspan font-family="Cambria Math,Cambria Math_MSFontService,sans-serif" font-weight="400" font-size="18" x="25.76" y="35">𝑓</tspan><tspan font-family="Cambria Math,Cambria Math_MSFontService,sans-serif" font-weight="400" x="43.0533" y="30">+</tspan><tspan font-family="Cambria Math,Cambria Math_MSFontService,sans-serif" font-weight="400" x="61.0533" y="30">=</tspan><tspan font-family="Cambria Math,Cambria Math_MSFontService,sans-serif" font-weight="400" x="85.72" y="30">1</tspan></text><path d="M279.5 789.5C279.5 735.376 323.376 691.5 377.5 691.5 431.624 691.5 475.5 735.376 475.5 789.5 475.5 843.624 431.624 887.5 377.5 887.5 323.376 887.5 279.5 843.624 279.5 789.5Z" stroke="#000000" stroke-linejoin="round" stroke-miterlimit="10" fill="none" fill-rule="evenodd"/><text font-family="Calibri,Calibri_MSFontService,sans-serif" font-weight="700" font-size="24" transform="translate(341.703 782)">WRITE<tspan font-family="Cambria Math,Cambria Math_MSFontService,sans-serif" font-weight="400" x="-3.48001" y="29">𝑛</tspan><tspan font-family="Cambria Math,Cambria Math_MSFontService,sans-serif" font-weight="400" x="10.3533" y="29">𝑝</tspan><tspan font-family="Cambria Math,Cambria Math_MSFontService,sans-serif" font-weight="400" x="30.6467" y="29">=</tspan><tspan font-family="Cambria Math,Cambria Math_MSFontService,sans-serif" font-weight="400" x="55.3133" y="29">0</tspan></text><path d="M0.984727-1.74078 173.443 95.8158 171.474 99.2974-0.984727 1.74078ZM173.672 91.3495 181.162 102.48 167.763 101.794Z" transform="matrix(-1 -8.74228e-08 -8.74228e-08 1 1403.16 687)"/><path d="M215 173 458.269 173 458.269 177 215 177ZM456.269 169 468.269 175 456.269 181Z"/><path d="M0.113597-1.49569 5.17337-1.11141 10.2611 0.127908 15.312 2.07058 20.1541 4.65304 24.8565 7.87383 29.278 11.7186 33.486 15.9904 37.4444 20.7149 41.0121 25.8753 44.3232 31.4151 47.1215 37.2661 49.6023 43.309 51.5133 49.6155 52.9774 56.0444 53.8701 62.6127 54.1892 69.25 53.8704 75.881 53.0414 82.3854 51.5758 88.8851 49.6687 95.1149 47.3149 101.222 44.5147 107.014 41.335 112.546 37.8302 117.708 34.0053 122.425 29.9153 126.771 25.5507 130.558 20.9822 133.775 16.2663 136.359 11.3572 138.323 9.05855 138.75 8.51025 135.801 10.6633 135.4 10.3804 135.482 15.0679 133.607 14.9042 133.685 19.4667 131.185 19.3238 131.274 23.7613 128.149 23.642 128.242 27.892 124.555 27.7827 124.659 31.7827 120.409 31.7099 120.493 35.4599 115.868 35.384 115.97 38.8215 110.907 38.762 111.003 41.887 105.565 41.8371 105.66 44.5871 99.972 44.5379 100.086 46.8504 94.0856 46.8157 94.1859 48.6907 88.0609 48.6617 88.17 50.0992 81.795 50.0745 81.9353 50.887 75.5603 50.8767 75.678 51.1892 69.178 51.1892 69.322 50.8767 62.822 50.8887 62.952 50.0137 56.5145 50.0374 56.6456 48.5999 50.3331 48.627 50.435 46.752 44.2475 46.7999 44.3822 44.3624 38.4447 44.3968 38.5222 41.6468 32.7722 41.7125 32.8946 38.4625 27.4571 38.5162 27.5405 35.0162 22.478 35.1002 22.5883 31.2252 17.9633 31.3064 18.0527 27.1814 13.8652 27.2657 13.9444 22.9532 10.1944 23.0899 10.3 18.5274 7.17505 18.6691 7.26103 13.9816 4.76103 14.149 4.83752 9.27403 2.96252 9.4575 3.01989 4.5825 1.83239 4.8239 1.87069-0.113597 1.49569ZM10.9636 141.488 1.375 138.437 9.56894 132.597Z" fill="#70AD47" transform="matrix(-4.37114e-08 -1 -1 4.37114e-08 635.886 106.833)"/><text fill="#70AD47" font-family="Cambria Math,Cambria Math_MSFontService,sans-serif" font-weight="400" font-size="29" transform="translate(367.24 39)">𝑘<tspan font-size="21" x="16.3333" y="6">𝑥</tspan><tspan x="38.98" y="0">&lt;</tspan><tspan x="69.1667" y="0">𝑁</tspan><tspan font-size="21" x="88.22" y="6">𝑘𝑥</tspan><tspan font-size="21" x="114.46" y="6"> </tspan><tspan x="120.347" y="0">⋁</tspan><tspan x="144.107" y="0"> </tspan><tspan x="150.607" y="0">𝑘</tspan><tspan font-size="21" x="166.94" y="6">𝑦</tspan><tspan x="186.447" y="0">&lt;</tspan><tspan x="216.633" y="0">𝑁</tspan><tspan font-size="21" x="235.687" y="6">𝑘𝑦</tspan><tspan font-size="21" x="262.88" y="6"> </tspan><tspan x="268.767" y="0">⋁</tspan><tspan x="292.527" y="0"> </tspan>𝑘<tspan font-size="21" x="313.58" y="6">𝑓</tspan><tspan x="332.3" y="0">&lt;</tspan><tspan x="362.487" y="0">𝑁</tspan><tspan font-size="21" x="381.54" y="6">𝑝𝑎𝑟</tspan></text><path d="M0.00749131-1.99999 272.089-0.980854 272.074 3.01912-0.00749131 1.99999ZM270.104-4.98832 282.082 1.05659 270.059 7.0116Z" transform="matrix(1 0 0 -1 664 175.057)"/><text font-family="Cambria Math,Cambria Math_MSFontService,sans-serif" font-weight="400" font-size="29" transform="translate(691.117 218)">𝑘<tspan font-size="21" x="16.3334" y="6">𝑥</tspan><tspan x="38.98" y="0">=</tspan>=<tspan x="91.1667" y="0">𝑁</tspan><tspan font-size="21" x="110.22" y="6">𝑘𝑥</tspan><tspan font-size="21" x="136.46" y="6"> </tspan><tspan x="142.347" y="0">⋀</tspan><tspan x="0" y="35"> </tspan>𝑘<tspan font-size="21" x="22.8334" y="41">𝑦</tspan><tspan x="38.2467" y="35">=</tspan>=<tspan x="90.4333" y="35">𝑁</tspan><tspan font-size="21" x="109.487" y="41">𝑘𝑦</tspan><tspan font-size="21" x="136.68" y="41"> </tspan><tspan x="142.567" y="35">⋀</tspan><tspan x="13.84" y="73"> </tspan>𝑘<tspan font-size="21" x="34.8934" y="79">𝑓</tspan><tspan x="49.52" y="73">=</tspan>=<tspan x="101.707" y="73">𝑁</tspan><tspan font-size="21" x="120.76" y="79">𝑘𝑓</tspan><tspan x="-466.582" y="-127">𝑘</tspan><tspan font-size="21" x="-450.249" y="-121">𝑥</tspan><tspan x="-427.602" y="-127">=</tspan><tspan x="-397.416" y="-127">0</tspan>;<tspan x="-368.336" y="-127">𝑡</tspan><tspan font-size="21" x="-357.102" y="-121">𝑜𝑥</tspan><tspan x="-321.789" y="-127">=</tspan><tspan x="-291.602" y="-127">0</tspan><tspan x="-466.582" y="-92">𝑘</tspan><tspan font-size="21" x="-450.249" y="-86">𝑦</tspan><tspan x="-426.649" y="-92">=</tspan><tspan x="-396.462" y="-92">0</tspan>;<tspan x="-367.382" y="-92">𝑡</tspan><tspan font-size="21" x="-356.149" y="-86">𝑜</tspan><tspan font-size="21" x="-343.482" y="-86">𝑦</tspan><tspan x="-319.882" y="-92">=</tspan><tspan x="-289.696" y="-92">0</tspan><tspan x="-411.916" y="-54">𝑘</tspan><tspan font-size="21" x="-397.362" y="-48">𝑓</tspan><tspan x="-374.549" y="-54">=</tspan><tspan x="-344.362" y="-54">0</tspan><tspan x="12.9458" y="-127">𝑖𝑛𝑡</tspan><tspan font-size="21" x="50.3458" y="-121">𝑥</tspan><tspan x="72.9925" y="-127">=</tspan><tspan x="103.179" y="-127">0</tspan><tspan x="12.9458" y="-92">𝑖𝑛𝑡</tspan><tspan font-size="21" x="50.3458" y="-86">𝑦</tspan><tspan x="73.9458" y="-92">=</tspan><tspan x="104.132" y="-92">0</tspan><tspan x="15.0724" y="-54"> </tspan>𝑖𝑛𝑡<tspan font-size="21" x="57.1924" y="-48">𝑓</tspan><tspan x="71.8192" y="-54">=</tspan><tspan x="102.006" y="-54">0</tspan><tspan fill="#ED7D31" x="169.209" y="-185">𝑖𝑛𝑡</tspan><tspan fill="#ED7D31" font-size="21" x="206.609" y="-179">𝑥</tspan><tspan fill="#ED7D31" x="229.256" y="-185">&lt;</tspan><tspan fill="#ED7D31" x="259.442" y="-185">𝑁</tspan><tspan fill="#ED7D31" font-size="21" x="278.496" y="-179">𝑘𝑥</tspan><tspan fill="#ED7D31" font-size="21" x="304.736" y="-179"> </tspan><tspan fill="#ED7D31" x="310.622" y="-185">⋁</tspan><tspan fill="#ED7D31" x="334.382" y="-185"> </tspan><tspan fill="#ED7D31" x="340.882" y="-185">𝑖𝑛𝑡</tspan><tspan fill="#ED7D31" font-size="21" x="378.282" y="-179">𝑦</tspan><tspan fill="#ED7D31" x="397.789" y="-185">&lt;</tspan><tspan fill="#ED7D31" x="427.976" y="-185">𝑁</tspan><tspan fill="#ED7D31" font-size="21" x="447.029" y="-179">𝑘𝑦</tspan><tspan fill="#ED7D31" font-size="21" x="474.222" y="-179"> </tspan><tspan fill="#ED7D31" x="480.109" y="-185">⋁</tspan><tspan fill="#ED7D31" x="503.869" y="-185"> </tspan><tspan fill="#ED7D31" x="510.369" y="-185">𝑖𝑛𝑡</tspan><tspan fill="#ED7D31" font-size="21" x="545.989" y="-179">𝑓</tspan><tspan fill="#ED7D31" x="564.709" y="-185">&lt;</tspan><tspan fill="#ED7D31" x="594.896" y="-185">𝑁</tspan><tspan fill="#ED7D31" font-size="21" x="613.949" y="-179">𝑝𝑎𝑟</tspan></text><path d="M0.113597-1.49569 5.17337-1.11141 10.2611 0.127908 15.312 2.07058 20.1541 4.65304 24.8565 7.87383 29.278 11.7186 33.486 15.9904 37.4444 20.7149 41.0121 25.8753 44.3232 31.4151 47.1215 37.2661 49.6023 43.309 51.5133 49.6155 52.9774 56.0444 53.8701 62.6127 54.1892 69.25 53.8704 75.881 53.0414 82.3854 51.5758 88.8851 49.6687 95.1149 47.3149 101.222 44.5147 107.014 41.335 112.546 37.8302 117.708 34.0053 122.425 29.9153 126.771 25.5507 130.558 20.9822 133.775 16.2663 136.359 11.3572 138.323 9.05855 138.75 8.51025 135.801 10.6633 135.4 10.3804 135.482 15.0679 133.607 14.9042 133.685 19.4667 131.185 19.3238 131.274 23.7613 128.149 23.642 128.242 27.892 124.555 27.7827 124.659 31.7827 120.409 31.7099 120.493 35.4599 115.868 35.384 115.97 38.8215 110.907 38.762 111.003 41.887 105.565 41.8371 105.66 44.5871 99.972 44.5379 100.086 46.8504 94.0856 46.8157 94.1859 48.6907 88.0609 48.6617 88.17 50.0992 81.795 50.0745 81.9353 50.887 75.5603 50.8767 75.678 51.1892 69.178 51.1892 69.322 50.8767 62.822 50.8887 62.952 50.0137 56.5145 50.0374 56.6456 48.5999 50.3331 48.627 50.435 46.752 44.2475 46.7999 44.3822 44.3624 38.4447 44.3968 38.5222 41.6468 32.7722 41.7125 32.8946 38.4625 27.4571 38.5162 27.5405 35.0162 22.478 35.1002 22.5883 31.2252 17.9633 31.3064 18.0527 27.1814 13.8652 27.2657 13.9444 22.9532 10.1944 23.0899 10.3 18.5274 7.17505 18.6691 7.26103 13.9816 4.76103 14.149 4.83752 9.27403 2.96252 9.4575 3.01989 4.5825 1.83239 4.8239 1.87069-0.113597 1.49569ZM10.9636 141.488 1.375 138.437 9.56894 132.597Z" fill="#ED7D31" transform="matrix(-4.37114e-08 -1 -1 4.37114e-08 1113.89 105.833)"/><path d="M1142.46 172.054 1325.33 215.427 1324.41 219.319 1141.54 175.946ZM1324.31 211.074 1334.6 219.681 1321.54 222.75Z"/><path d="M1405 387 1405.01 481.146 1401.01 481.147 1401 387ZM1409.01 479.146 1403.01 491.146 1397.01 479.147Z"/><text font-family="Cambria Math,Cambria Math_MSFontService,sans-serif" font-weight="400" font-size="29" transform="translate(1178.24 107)">𝑖𝑛𝑡<tspan font-size="21" x="37.3999" y="6">𝑥</tspan><tspan x="60.0466" y="0">=</tspan>=<tspan x="112.233" y="0">𝑁</tspan><tspan font-size="21" x="131.287" y="6">𝑘𝑥</tspan><tspan font-size="21" x="157.527" y="6"> </tspan><tspan x="163.413" y="0">⋀</tspan><tspan x="0" y="35"> </tspan>𝑖𝑛𝑡<tspan font-size="21" x="43.8999" y="41">𝑦</tspan><tspan x="59.3132" y="35">=</tspan>=<tspan x="111.5" y="35">𝑁</tspan><tspan font-size="21" x="130.553" y="41">𝑘𝑦</tspan><tspan font-size="21" x="157.747" y="41"> </tspan><tspan x="163.633" y="35">⋀</tspan><tspan x="13.84" y="73"> </tspan>𝑖𝑛𝑡<tspan font-size="21" x="55.96" y="79">𝑓</tspan><tspan x="70.5867" y="73">=</tspan>=<tspan x="122.773" y="73">𝑁</tspan><tspan font-size="21" x="141.827" y="79">𝑘𝑓</tspan></text><path d="M1.22636e-06-2 161.217-1.9999 161.217 2.0001-1.22636e-06 2ZM159.217-5.9999 171.217 0.000104987 159.217 6.0001Z" transform="matrix(-1 -8.74228e-08 -8.74228e-08 1 1026.22 789)"/><path d="M1.13671e-06-2 174.721-1.9999 174.721 2.0001-1.13671e-06 2ZM172.721-5.9999 184.721 0.000104987 172.721 6.0001Z" transform="matrix(-1 -8.74228e-08 -8.74228e-08 1 659.721 789)"/><path d="M277.355 790.991 124.797 643.391 127.578 640.516 280.136 788.116ZM123.452 647.656 119 635 131.796 639.032Z" fill="#FF0000"/><path d="M376.002 691.778 376.506 681.895 377.963 671.948 380.306 662.006 383.596 652.199 387.703 642.468 392.69 632.81 398.428 623.288 404.921 613.959 412.223 604.769 420.149 595.71 428.765 586.906 438.005 578.294 447.932 569.938 458.354 561.839 469.339 553.992 480.888 546.397 492.875 539.18 505.358 532.28 518.216 525.695 531.513 519.485 545.186 513.652 559.172 508.258 573.467 503.305 588.014 498.728 602.878 494.651 617.862 491.078 633.1 487.942 648.467 485.371 663.956 483.364 679.511 481.859 695.193 480.98 710.845 480.667 726.47 480.355 726.416 480.357 741.978 479.482 741.919 479.487 757.481 477.987 757.432 477.992 772.87 475.992 772.815 476 788.127 473.438 788.073 473.448 803.26 470.323 803.215 470.333 818.152 466.771 818.103 466.783 832.916 462.721 832.862 462.736 847.362 458.174 847.321 458.187 861.571 453.25 861.517 453.27 875.455 447.832 875.417 447.848 889.042 442.098 888.99 442.121 902.24 435.933 902.191 435.957 915.004 429.395 914.962 429.417 927.399 422.542 927.346 422.573 939.284 415.323 939.243 415.348 950.743 407.848 950.691 407.884 961.628 400.072 961.58 400.108 971.955 392.045 971.905 392.085 981.718 383.773 981.669 383.816 990.919 375.254 990.862 375.309 999.424 366.497 999.375 366.55 1007.25 357.613 1007.2 357.676 1014.38 348.551 1014.33 348.621 1020.83 339.309 1020.78 339.389 1026.47 330.014 1026.42 330.104 1031.35 320.541 1031.31 320.646 1035.37 311.021 1035.33 311.128 1038.58 301.44 1038.54 301.573 1040.85 291.761 1040.83 291.887 1042.27 282.075 1042.25 282.216 1042.37 279.894 1045.37 280.046 1045.24 282.439 1043.79 292.386 1041.44 302.329 1038.15 312.136 1034.05 321.866 1029.06 331.526 1023.32 340.986 1016.77 350.374 1009.53 359.565 1001.6 368.561 992.986 377.428 983.682 386.04 973.82 394.395 963.397 402.495 952.409 410.344 940.862 417.874 928.877 425.153 916.392 432.054 903.534 438.64 890.234 444.851 876.564 450.62 862.581 456.075 848.283 461.029 833.736 465.606 818.872 469.683 803.888 473.257 788.65 476.392 773.283 478.964 757.793 480.97 742.177 482.476 726.557 483.354 710.905 483.667 695.28 483.979 695.334 483.977 679.709 484.852 679.77 484.848 664.27 486.348 664.318 486.342 648.88 488.342 648.935 488.334 633.623 490.897 633.677 490.886 618.49 494.011 618.536 494.001 603.598 497.564 603.647 497.551 588.834 501.614 588.888 501.598 574.388 506.16 574.429 506.147 560.179 511.084 560.227 511.067 546.29 516.442 546.339 516.422 532.714 522.234 532.76 522.214 519.51 528.401 519.559 528.377 506.746 534.94 506.788 534.917 494.351 541.792 494.399 541.765 482.461 548.952 482.512 548.92 471.012 556.483 471.059 556.45 460.122 564.263 460.17 564.227 449.795 572.289 449.841 572.252 439.966 580.565 440.023 580.514 430.835 589.077 430.885 589.029 422.322 597.779 422.379 597.717 414.504 606.717 414.549 606.663 407.299 615.788 407.356 615.711 400.919 624.961 400.972 624.879 395.285 634.316 395.333 634.23 390.395 643.793 390.445 643.688 386.382 653.313 386.422 653.207 383.172 662.894 383.21 662.761 380.898 672.574 380.922 672.447 379.484 682.26 379.498 682.118 378.998 691.931ZM1039.3 281.239 1044.25 272.48 1048.29 281.697Z" fill="#4472C4"/><path d="M378.968 886.854 379.531 889.541 379.32 889.03 381.07 891.717 380.837 891.44 383.712 894.128 383.524 893.978 387.524 896.666 387.385 896.583 392.385 899.208 392.289 899.162 398.289 901.787 398.203 901.752 405.203 904.315 405.148 904.296 413.086 906.858 413.034 906.843 421.847 909.343 421.806 909.332 431.431 911.769 431.402 911.762 441.902 914.2 441.863 914.191 453.175 916.504 453.159 916.5 465.159 918.813 465.129 918.807 477.879 920.995 477.866 920.993 491.304 923.18 491.28 923.177 505.343 925.239 505.322 925.236 519.947 927.174 519.934 927.172 535.121 929.047 535.109 929.046 550.859 930.858 550.842 930.856 567.092 932.544 567.083 932.543 583.708 934.168 583.688 934.166 600.813 935.604 600.799 935.602 635.987 938.227 635.962 938.226 672.4 940.351 672.373 940.35 709.748 941.85 709.727 941.849 747.602 942.849 747.575 942.848 785.825 943.161 785.793 943.161 824.043 942.661 824.006 942.662 861.881 941.224 861.845 941.226 899.22 938.914 899.184 938.916 935.559 935.791 935.521 935.795 970.771 931.858 970.747 931.86 987.809 929.673 987.789 929.676 1004.48 927.301 1004.45 927.304 1020.64 924.742 1020.62 924.745 1036.37 922.057 1036.35 922.061 1051.54 919.248 1051.51 919.254 1066.2 916.254 1066.18 916.258 1080.24 913.195 1080.21 913.203 1093.58 909.953 1093.56 909.959 1106.31 906.647 1106.28 906.654 1118.28 903.279 1118.24 903.293 1129.55 899.73 1129.52 899.74 1140.02 896.178 1139.97 896.196 1149.65 892.509 1149.6 892.531 1158.41 888.781 1158.34 888.815 1166.21 884.94 1166.15 884.974 1173.15 881.099 1173.06 881.151 1179.06 877.276 1178.94 877.365 1183.94 873.365 1183.81 873.475 1187.81 869.475 1187.59 869.764 1190.53 864.858 1193.11 866.403 1190.07 871.466 1185.88 875.655 1180.75 879.755 1174.65 883.698 1167.57 887.616 1159.63 891.525 1150.75 895.302 1141.01 899.01 1130.47 902.587 1119.12 906.161 1107.08 909.546 1094.3 912.866 1080.9 916.123 1066.81 919.191 1052.1 922.196 1036.89 925.013 1021.12 927.703 1004.91 930.269 988.201 932.647 971.116 934.838 935.835 938.779 899.423 941.907 862.012 944.222 824.101 945.66 785.816 946.161 747.537 945.848 709.638 944.848 672.239 943.347 635.776 941.22 600.569 938.594 583.427 937.155 566.787 935.528 550.524 933.839 534.76 932.025 519.56 930.149 504.918 928.209 490.833 926.143 477.378 923.953 464.606 921.762 452.583 919.445 441.243 917.126 430.709 914.681 421.049 912.235 412.19 909.722 404.199 907.142 397.129 904.554 391.038 901.889 385.918 899.201 381.751 896.401 378.655 893.507 376.652 890.431 376.032 887.468ZM1187.08 865.716 1194.06 858.473 1195.67 868.407Z"/><path d="M0.0945485-1.49702 6.13585-1.11546 12.1315 0.109465 18.0989 2.03441 23.8676 4.5983 29.4403 7.801 34.7346 11.6282 39.8303 15.8958 44.4851 20.6144 48.8121 25.7686 52.7636 31.3135 56.1391 37.1729 59.0681 43.2218 61.4304 49.5427 63.1555 55.9959 64.2429 62.5842 64.6275 69.25 64.2433 75.9098 63.2199 82.434 61.4946 88.9515 59.1982 95.203 56.3325 101.317 53.0209 107.112 49.1976 112.656 44.9298 117.815 40.348 122.524 35.4368 126.861 30.195 130.633 24.755 133.833 19.1093 136.399 13.2397 138.334 9.08117 139.054 8.56953 136.098 12.6192 135.397 12.4054 135.45 18.0929 133.575 17.9418 133.634 23.4418 131.134 23.302 131.207 28.6145 128.082 28.4989 128.157 33.6239 124.47 33.5071 124.563 38.3196 120.313 38.2374 120.391 42.7374 115.766 42.6567 115.856 46.8442 110.794 46.7652 110.898 50.5152 105.461 50.4476 105.568 53.6976 99.8808 53.6418 99.9883 56.4543 93.9883 56.4045 94.1078 58.6545 87.9828 58.6124 88.1162 60.2999 81.7412 60.2681 81.8925 61.2681 75.5175 61.2525 75.6636 61.6275 69.1636 61.6275 69.3364 61.2525 62.8364 61.27 62.9943 60.2075 56.5568 60.2384 56.6999 58.5509 50.3874 58.5949 50.5251 56.2824 44.3376 56.3374 44.4662 53.4624 38.5287 53.5128 38.6238 50.2003 32.8738 50.2785 32.9955 46.4035 27.558 46.4762 27.652 42.2262 22.5895 42.3071 22.6784 37.7446 18.0534 37.8494 18.15 32.8494 13.9625 32.9337 14.0281 27.7462 10.2781 27.8776 10.363 22.4401 7.23802 22.5783 7.30822 16.9533 4.80822 17.102 4.86506 11.2895 2.99006 11.4497 3.03214 5.63725 1.84464 5.84295 1.87202-0.0945485 1.49702ZM10.8324 141.874 1.375 138.437 9.79848 132.933Z" fill="#A5A5A5" transform="matrix(-4.37114e-08 -1 -1 4.37114e-08 1194.89 720.833)"/><text fill="#FF0000" font-family="Cambria Math,Cambria Math_MSFontService,sans-serif" font-weight="400" font-size="29" transform="translate(13.8668 725)">𝑡<tspan font-size="21" x="11.2333" y="6">𝑜</tspan><tspan font-size="21" x="23.9" y="6">𝑥</tspan><tspan x="46.5467" y="0">=</tspan><tspan x="68.5467" y="0">=</tspan><tspan x="98.7333" y="0">𝑇</tspan><tspan font-size="21" x="112.207" y="6">𝑜𝑥</tspan><tspan font-size="21" x="138.113" y="6"> </tspan><tspan x="144" y="0">⋀</tspan><tspan x="0" y="35"> </tspan>𝑡<tspan font-size="21" x="17.7333" y="41">𝑜</tspan><tspan font-size="21" x="30.4" y="41">𝑦</tspan><tspan x="45.8133" y="35">=</tspan><tspan x="67.8133" y="35">=</tspan><tspan x="98" y="35">𝑇</tspan><tspan font-size="21" x="111.473" y="41">𝑜𝑦</tspan><tspan font-size="21" x="138.333" y="41"> </tspan><tspan x="144.22" y="35">⋀</tspan><tspan x="10.16" y="73"> </tspan>𝑡<tspan font-size="21" x="27.8933" y="79">𝑜</tspan><tspan font-size="21" x="40.56" y="79">𝑓</tspan><tspan x="55.1867" y="73">=</tspan><tspan x="77.1867" y="73">=</tspan><tspan x="107.373" y="73">𝑁</tspan><tspan font-size="21" x="126.427" y="79">𝑜𝑓</tspan><tspan fill="#000000" font-size="32" x="705.182" y="260"> </tspan><tspan fill="#000000" font-size="32" x="712.182" y="260">𝑡</tspan><tspan fill="#000000" font-size="23" x="724.382" y="266">𝑜</tspan><tspan fill="#000000" font-size="23" x="738.216" y="266">𝑓</tspan><tspan fill="#000000" font-size="32" x="754.169" y="260">&lt;</tspan><tspan fill="#000000" font-size="32" x="787.056" y="260">𝑁</tspan><tspan fill="#000000" font-size="23" x="807.902" y="266">𝑜𝑓</tspan><tspan fill="#4472C4" x="330.969" y="-365">(</tspan><tspan fill="#4472C4" x="343.136" y="-365">𝑡</tspan><tspan fill="#4472C4" font-size="21" x="354.369" y="-359">𝑜</tspan><tspan fill="#4472C4" font-size="21" x="367.036" y="-359">𝑥</tspan><tspan fill="#4472C4" x="389.682" y="-365">&lt;</tspan><tspan fill="#4472C4" x="419.869" y="-365">𝑇</tspan><tspan fill="#4472C4" font-size="21" x="433.342" y="-359">𝑜𝑥</tspan><tspan fill="#4472C4" font-size="21" x="459.249" y="-359"> </tspan><tspan fill="#4472C4" x="465.136" y="-365">⋁</tspan><tspan fill="#4472C4" x="330.969" y="-330"> </tspan><tspan fill="#4472C4" x="337.469" y="-330">𝑡</tspan><tspan fill="#4472C4" font-size="21" x="348.702" y="-324">𝑜</tspan><tspan fill="#4472C4" font-size="21" x="361.369" y="-324">𝑦</tspan><tspan fill="#4472C4" x="376.782" y="-330">&lt;</tspan><tspan fill="#4472C4" x="406.969" y="-330">𝑇</tspan><tspan fill="#4472C4" font-size="21" x="420.442" y="-324">𝑜𝑦</tspan><tspan fill="#4472C4" font-size="21" x="447.302" y="-324"> </tspan><tspan fill="#4472C4" x="453.189" y="-330">)</tspan><tspan fill="#4472C4" x="465.356" y="-330"> </tspan><tspan fill="#4472C4" x="471.856" y="-330">⋀</tspan><tspan fill="#4472C4" x="339.469" y="-292"> </tspan><tspan fill="#4472C4" x="345.969" y="-292">𝑡</tspan><tspan fill="#4472C4" font-size="21" x="357.202" y="-286">𝑜</tspan><tspan fill="#4472C4" font-size="21" x="369.869" y="-286">𝑓</tspan><tspan fill="#4472C4" x="384.496" y="-292">=</tspan><tspan fill="#4472C4" x="406.496" y="-292">=</tspan><tspan fill="#4472C4" x="436.682" y="-292">𝑁</tspan><tspan fill="#4472C4" font-size="21" x="455.736" y="-286">𝑜𝑓</tspan><tspan fill="#4472C4" x="308.796" y="-254">𝑈𝑝𝑑𝑎𝑡𝑒</tspan><tspan fill="#4472C4" x="406.109" y="-254"> </tspan><tspan fill="#4472C4" x="412.609" y="-254">𝑡</tspan><tspan fill="#4472C4" font-size="21" x="423.842" y="-248">𝑜𝑥</tspan><tspan fill="#4472C4" x="450.969" y="-254">,</tspan><tspan fill="#4472C4" x="461.882" y="-254">𝑡</tspan><tspan fill="#4472C4" font-size="21" x="473.116" y="-248">𝑜𝑦</tspan><tspan fill="#4472C4" x="501.196" y="-254">,</tspan><tspan fill="#4472C4" x="507.196" y="-254"> </tspan><tspan fill="#4472C4" x="294.582" y="-216">𝑖𝑛𝑡</tspan><tspan fill="#4472C4" font-size="21" x="331.982" y="-210">𝑥</tspan><tspan fill="#4472C4" x="354.629" y="-216">=</tspan><tspan fill="#4472C4" x="384.816" y="-216">0</tspan><tspan fill="#4472C4" x="401.149" y="-216">;</tspan><tspan fill="#4472C4" x="411.436" y="-216"> </tspan><tspan fill="#4472C4" x="420.396" y="-216">𝑖𝑛𝑡</tspan><tspan fill="#4472C4" font-size="21" x="457.796" y="-210">𝑦</tspan><tspan fill="#4472C4" x="481.396" y="-216">=</tspan><tspan fill="#4472C4" x="511.582" y="-216">0</tspan><tspan fill="#4472C4" x="359.616" y="-178"> </tspan><tspan fill="#4472C4" x="366.116" y="-178">𝑖𝑛𝑡</tspan><tspan fill="#4472C4" font-size="21" x="401.736" y="-172">𝑓</tspan><tspan fill="#4472C4" x="416.362" y="-178">=</tspan><tspan fill="#4472C4" x="446.549" y="-178">0</tspan><tspan fill="#767171" font-size="32" x="1045.2" y="-85">𝑛𝑝</tspan><tspan fill="#767171" font-size="32" x="1090.65" y="-85">&lt;</tspan><tspan fill="#767171" font-size="32" x="1123.54" y="-85">𝑁</tspan><tspan fill="#767171" font-size="23" x="1144.38" y="-79">𝑛𝑝</tspan><tspan fill="#000000" font-size="32" x="855.543" y="42">𝑛𝑝</tspan><tspan fill="#000000" font-size="32" x="900.99" y="42">=</tspan><tspan fill="#000000" font-size="32" x="924.823" y="42">=</tspan><tspan fill="#000000" font-size="32" x="957.543" y="42">𝑁</tspan><tspan fill="#000000" font-size="23" x="978.39" y="49">𝑛𝑝</tspan><tspan fill="#000000" font-size="32" x="1307.56" y="38">𝑡</tspan><tspan fill="#000000" font-size="23" x="1319.76" y="44">𝑜</tspan><tspan fill="#000000" font-size="23" x="1333.59" y="44">𝑓</tspan><tspan fill="#000000" font-size="32" x="1358.43" y="38">=</tspan><tspan fill="#000000" font-size="32" x="1391.15" y="38">1</tspan><tspan fill="#000000" font-size="32" x="1310.27" y="80">𝑛</tspan><tspan fill="#000000" font-size="32" x="1328.6" y="80">𝑝</tspan><tspan fill="#000000" font-size="32" x="1355.72" y="80">=</tspan><tspan fill="#000000" font-size="32" x="1388.44" y="80">1</tspan></text></g></svg>