<svg width="1498" height="759" xmlns="http://www.w3.org/2000/svg" xmlns:xlink="http://www.w3.org/1999/xlink" overflow="hidden"><defs><clipPath id="clip0"><path d="M15 124 1513 124 1513 883 15 883Z" fill-rule="evenodd" clip-rule="evenodd"/></clipPath></defs><g clip-path="url(#clip0)" transform="translate(-15 -124)"><path d="M100.5 343C100.5 281.973 149.973 232.5 211 232.5 272.027 232.5 321.5 281.973 321.5 343 321.5 404.027 272.027 453.5 211 453.5 149.973 453.5 100.5 404.027 100.5 343Z" stroke="#000000" stroke-linejoin="round" stroke-miterlimit="10" fill="none" fill-rule="evenodd"/><text font-family="Calibri,Calibri_MSFontService,sans-serif" font-weight="700" font-size="27" transform="translate(186.224 352)">IDLE</text><path d="M89.4776 214.652 126.687 255.442 123.732 258.138 86.5224 217.348ZM128.294 251.268 131.949 264.178 119.429 259.356Z"/><text font-family="Cambria Math,Cambria Math_MSFontService,sans-serif" font-weight="400" font-size="29" transform="translate(68.3366 207)">𝑟𝑠𝑡</text><path d="M0.015855-0.332956 5.27766-0.0823937 10.5532 0.545651 15.7671 1.61355 20.7955 3.05923 30.3971 6.88729 38.9355 11.9099 42.7741 14.8046 46.2339 17.8869 49.2571 21.1621 51.7775 24.5646 53.8598 28.0351 55.4413 31.7042 56.3922 35.3811 56.7094 39.0611 56.1431 46.3602 54.6339 53.4663 52.2436 60.1339 49.1593 66.0508 45.5012 71.0963 41.3805 74.9635 38.8454 76.2399 38.5456 75.6445 41.0376 74.3898 40.9594 74.4444 45.0219 70.6319 44.9801 70.6793 48.6051 65.6793 48.5794 65.7209 51.6419 59.8459 51.6237 59.8875 53.9987 53.2625 53.9864 53.3057 55.4864 46.2432 55.4802 46.2867 56.0427 39.0367 56.0429 39.0911 55.7304 35.4661 55.7398 35.521 54.8023 31.896 54.8189 31.9444 53.2564 28.3194 53.2767 28.359 51.2142 24.9215 51.2321 24.9484 48.7321 21.5734 48.7551 21.6011 45.7551 18.3511 45.7783 18.3739 42.3408 15.3114 42.3618 15.3286 38.5493 12.4536 38.581 12.4748 30.081 7.47481 30.1266 7.49713 20.5641 3.68463 20.5954 3.69536 15.5954 2.25786 15.6206 2.26405 10.4331 1.20155 10.4606 1.206 5.2106 0.580996 5.23414 0.582956-0.015855 0.332956ZM41.2318 79.3104 32.375 78.0625 38.6874 71.7258Z" transform="matrix(-4.37114e-08 -1 -1 4.37114e-08 288.53 264.821)"/><text font-family="Cambria Math,Cambria Math_MSFontService,sans-serif" font-weight="400" font-size="29" transform="translate(312.554 223)">𝑠<tspan font-size="21" x="12.9467" y="6">𝑑𝑚𝑎</tspan></text><path d="M312.734 201.596 343.734 201.596 374.734 201.596 374.734 203.596 343.734 203.596 312.734 203.596Z" fill-rule="evenodd"/><path d="M1090.5 343.5C1090.5 260.105 1158.1 192.5 1241.5 192.5 1324.9 192.5 1392.5 260.105 1392.5 343.5 1392.5 426.895 1324.9 494.5 1241.5 494.5 1158.1 494.5 1090.5 426.895 1090.5 343.5Z" stroke="#000000" stroke-linejoin="round" stroke-miterlimit="10" fill="none" fill-rule="evenodd"/><text font-family="Calibri,Calibri_MSFontService,sans-serif" font-weight="700" font-size="27" transform="translate(1210.36 320)">READ<tspan font-family="Cambria Math,Cambria Math_MSFontService,sans-serif" font-weight="400" x="-43.5533" y="32">𝑑𝑎𝑡𝑎</tspan><tspan font-family="Cambria Math,Cambria Math_MSFontService,sans-serif" font-weight="400" x="20.1732" y="32">=</tspan><tspan font-family="Cambria Math,Cambria Math_MSFontService,sans-serif" font-weight="400" x="47.58" y="32">𝑟</tspan><tspan font-family="Cambria Math,Cambria Math_MSFontService,sans-serif" font-weight="400" font-size="20" x="57.3199" y="37">𝑑𝑎𝑡𝑎</tspan><tspan font-weight="400" x="-88.04" y="64">r</tspan><tspan font-family="Cambria Math,Cambria Math_MSFontService,sans-serif" font-weight="400" x="-78.7067" y="64">−</tspan><tspan font-family="Cambria Math,Cambria Math_MSFontService,sans-serif" font-weight="400" x="-58.7067" y="64">𝑚𝑒</tspan><tspan font-family="Cambria Math,Cambria Math_MSFontService,sans-serif" font-weight="400" x="-22.62" y="64">𝑚</tspan><tspan font-family="Cambria Math,Cambria Math_MSFontService,sans-serif" font-weight="400" font-size="20" x="-0.286743" y="69">𝑎𝑑𝑑𝑟</tspan><tspan font-family="Cambria Math,Cambria Math_MSFontService,sans-serif" font-weight="400" x="56.3466" y="64">=</tspan><tspan font-family="Cambria Math,Cambria Math_MSFontService,sans-serif" font-weight="400" x="83.7533" y="64">𝑟</tspan><tspan font-family="Cambria Math,Cambria Math_MSFontService,sans-serif" font-weight="400" font-size="20" x="93.4933" y="69">𝑎𝑑𝑑𝑟</tspan></text><path d="M321.001 341 1079.78 341.392 1079.77 345.392 320.999 345ZM1077.78 337.391 1089.78 343.397 1077.77 349.391Z"/><text font-family="Cambria Math,Cambria Math_MSFontService,sans-serif" font-weight="400" font-size="29" transform="translate(362.161 324)">𝑠<tspan font-size="21" x="12.9467" y="6">𝑑𝑚𝑎</tspan></text><path d="M0.0325238-0.331743 6.43582 0.296031 12.8659 2.06114 19.1606 5.01968 25.3213 8.91728 31.2255 13.8164 36.8724 19.5261 42.2657 26.0483 47.2812 33.258 51.8563 41.0921 55.991 49.4869 59.6874 58.3206 62.7573 67.5929 65.263 77.1773 67.0797 86.9497 68.2701 96.9114 68.6461 106.938 68.2701 116.963 67.1424 126.924 65.3257 136.697 62.8825 146.281 59.8131 155.49 56.2425 164.385 52.1697 172.781 47.6577 180.614 42.7676 187.824 37.4994 194.284 31.9149 200.057 26.1363 204.893 20.1639 208.791 13.9884 211.753 8.05934 213.224 7.89874 212.577 13.7947 211.114 13.7309 211.137 19.8559 208.199 19.8178 208.221 25.7553 204.346 25.7236 204.369 31.4736 199.557 31.4479 199.581 37.0104 193.831 36.9917 193.852 42.2417 187.414 42.2241 187.438 47.0991 180.25 47.0862 180.271 51.5862 172.459 51.5751 172.48 55.6376 164.105 55.6282 164.126 59.1907 155.251 59.1838 155.27 62.2463 146.082 62.2395 146.105 64.677 136.543 64.6723 136.564 66.4848 126.814 66.4813 126.838 67.6063 116.9 67.6044 116.925 67.9794 106.925 67.9794 106.95 67.6044 96.95 67.6065 96.9771 66.419 87.0396 66.4223 87.0609 64.6098 77.3109 64.615 77.3343 62.115 67.7718 62.1211 67.7923 59.0586 58.5423 59.0675 58.5662 55.38 49.7537 55.3885 49.7723 51.2635 41.3973 51.2747 41.4181 46.7122 33.6056 46.7264 33.6279 41.7264 26.4404 41.7431 26.4624 36.3681 19.9624 36.388 19.9844 30.763 14.2969 30.7871 14.319 24.9121 9.44402 24.9468 9.46919 18.8218 5.59419 18.8582 5.61417 12.6082 2.67667 12.6618 2.69644 6.28676 0.946442 6.34248 0.956743-0.0325238 0.331743ZM9.84683 216.681 1.375 213.812 8.75287 208.756Z" transform="matrix(-4.37114e-08 -1 -1 4.37114e-08 1348.3 236.833)"/><text font-family="Cambria Math,Cambria Math_MSFontService,sans-serif" font-weight="400" font-size="29" transform="translate(1137.06 162)">𝑑𝑎𝑡𝑎<tspan x="68.9332" y="0">−</tspan><tspan x="97.48" y="0">𝑟𝑒𝑎𝑑𝑦</tspan></text><path d="M1136.64 135.247 1180.89 135.247 1225.14 135.247 1269.39 135.247 1313.64 135.247 1313.64 137.247 1269.39 137.247 1225.14 137.247 1180.89 137.247 1136.64 137.247Z" fill-rule="evenodd"/><text font-family="Cambria Math,Cambria Math_MSFontService,sans-serif" font-weight="400" font-size="29" transform="translate(1322.08 534)">𝑑𝑎𝑡𝑎<tspan x="68.9333" y="0">−</tspan><tspan x="97.48" y="0">𝑟𝑒𝑎𝑑𝑦</tspan></text><path d="M1090.5 731C1090.5 647.329 1158.1 579.5 1241.5 579.5 1324.9 579.5 1392.5 647.329 1392.5 731 1392.5 814.671 1324.9 882.5 1241.5 882.5 1158.1 882.5 1090.5 814.671 1090.5 731Z" stroke="#000000" stroke-linejoin="round" stroke-miterlimit="10" fill="none" fill-rule="evenodd"/><text font-family="Calibri,Calibri_MSFontService,sans-serif" font-weight="700" font-size="27" transform="translate(1204.45 668)">WRITE<tspan font-family="Cambria Math,Cambria Math_MSFontService,sans-serif" font-weight="400" font-size="24" x="-34.2667" y="30">𝑤</tspan><tspan font-family="Cambria Math,Cambria Math_MSFontService,sans-serif" font-weight="400" font-size="18" x="-17.4" y="34">𝑑𝑎𝑡𝑎</tspan><tspan font-family="Cambria Math,Cambria Math_MSFontService,sans-serif" font-weight="400" font-size="24" x="31.5199" y="30">=</tspan><tspan font-family="Cambria Math,Cambria Math_MSFontService,sans-serif" font-weight="400" font-size="24" x="56.1866" y="30">𝑑𝑎𝑡𝑎</tspan><tspan font-weight="400" font-size="24" x="-73.4067" y="58">w</tspan><tspan font-weight="400" font-size="24" x="-56.2401" y="58">-</tspan><tspan font-family="Cambria Math,Cambria Math_MSFontService,sans-serif" font-weight="400" font-size="24" x="-48.9067" y="58">𝑚𝑒</tspan><tspan font-family="Cambria Math,Cambria Math_MSFontService,sans-serif" font-weight="400" font-size="24" x="-16.38" y="58">𝑚</tspan><tspan font-family="Cambria Math,Cambria Math_MSFontService,sans-serif" font-weight="400" font-size="18" x="3.78662" y="62">𝑎𝑑𝑑𝑟</tspan><tspan font-family="Cambria Math,Cambria Math_MSFontService,sans-serif" font-weight="400" font-size="24" x="54.6666" y="58">=</tspan><tspan font-family="Cambria Math,Cambria Math_MSFontService,sans-serif" font-weight="400" font-size="24" x="79.3333" y="58">𝑤</tspan><tspan font-family="Cambria Math,Cambria Math_MSFontService,sans-serif" font-weight="400" font-size="18" x="96.2" y="62">𝑎𝑑𝑑𝑟</tspan><tspan font-weight="400" font-size="24" x="-32.88" y="87">Update </tspan><tspan font-family="Cambria Math,Cambria Math_MSFontService,sans-serif" font-weight="400" font-size="24" x="44.3066" y="87">𝑤</tspan><tspan font-family="Cambria Math,Cambria Math_MSFontService,sans-serif" font-weight="400" font-size="18" x="61.1732" y="91">𝑎𝑑𝑑𝑟</tspan><tspan font-weight="400" font-size="24" x="-28.7933" y="116">Update</tspan><tspan font-family="Cambria Math,Cambria Math_MSFontService,sans-serif" font-weight="400" font-size="24" x="48.3933" y="116">𝑟</tspan><tspan font-family="Cambria Math,Cambria Math_MSFontService,sans-serif" font-weight="400" font-size="18" x="57.0867" y="120">𝑎𝑑𝑑𝑟</tspan><tspan font-weight="400" font-size="24" x="-32.4601" y="145">Update </tspan><tspan font-family="Cambria Math,Cambria Math_MSFontService,sans-serif" font-weight="400" font-size="24" x="44.7266" y="145">𝑟</tspan><tspan font-family="Cambria Math,Cambria Math_MSFontService,sans-serif" font-weight="400" font-size="18" x="53.4199" y="149">𝑐𝑜𝑜𝑟𝑑</tspan></text><path d="M2-1.95205e-06 2.0001 97.566-1.9999 97.566-2 1.95205e-06ZM6.00009 95.566 0.000104987 107.566-5.99991 95.566Z" transform="matrix(1 0 0 -1 1185 589.566)"/><path d="M1293 482 1293 579.566 1289 579.566 1289 482ZM1297 577.566 1291 589.566 1285 577.566Z"/><text font-family="Cambria Math,Cambria Math_MSFontService,sans-serif" font-weight="400" font-size="29" transform="translate(758.975 547)">𝑟<tspan font-size="21" x="10.76" y="6">𝑐𝑜𝑜𝑟𝑑</tspan><tspan x="82.18" y="0">&lt;</tspan><tspan x="112.367" y="0">𝑟</tspan><tspan font-size="21" x="123.127" y="6">𝑐𝑜𝑜𝑟𝑑</tspan><tspan font-size="21" x="185.14" y="6">−</tspan><tspan font-size="21" x="200.807" y="6">0</tspan><tspan x="221.073" y="0">+</tspan><tspan x="249.62" y="0">𝑇𝑖𝑙</tspan><tspan x="286.72" y="0">𝑒</tspan><tspan font-size="21" x="300.527" y="6">𝑠𝑖𝑧𝑒</tspan></text><path d="M100.5 731C100.5 669.973 149.973 620.5 211 620.5 272.027 620.5 321.5 669.973 321.5 731 321.5 792.028 272.027 841.5 211 841.5 149.973 841.5 100.5 792.028 100.5 731Z" stroke="#000000" stroke-linejoin="round" stroke-miterlimit="10" fill="none" fill-rule="evenodd"/><text font-family="Calibri,Calibri_MSFontService,sans-serif" font-weight="700" font-size="27" transform="translate(155.724 724)">FINISHED<tspan font-family="Cambria Math,Cambria Math_MSFontService,sans-serif" font-weight="400" x="-0.613342" y="32">𝑓</tspan><tspan font-family="Cambria Math,Cambria Math_MSFontService,sans-serif" font-weight="400" font-size="20" x="9.88666" y="37">𝑑𝑚𝑎</tspan><tspan font-family="Cambria Math,Cambria Math_MSFontService,sans-serif" font-weight="400" x="61.7067" y="32">=</tspan><tspan font-family="Cambria Math,Cambria Math_MSFontService,sans-serif" font-weight="400" x="89.1133" y="32">1</tspan></text><path d="M2.73127e-07-2 758.78-1.9999 758.78 2.0001-2.73127e-07 2ZM756.777-5.9999 768.777 0.000104987 756.777 6.0001Z" transform="matrix(-1 -8.74228e-08 -8.74228e-08 1 1089.78 731)"/><path d="M208 620.354 208 463 212 463 212 620.354ZM204 465 210 453 216 465Z"/><text font-family="Cambria Math,Cambria Math_MSFontService,sans-serif" font-weight="400" font-size="32" transform="translate(609.181 209)">𝑟<tspan font-size="23" x="11.6533" y="7">𝑎𝑑𝑑𝑟</tspan><tspan x="79.6066" y="0">=</tspan><tspan x="112.327" y="0">𝑟</tspan><tspan font-size="23" x="123.98" y="7">𝑎𝑑𝑑𝑟</tspan><tspan font-size="23" x="181.72" y="7">−</tspan><tspan font-size="23" x="198.72" y="7">𝑖</tspan><tspan x="-9.83337" y="38">𝑟</tspan><tspan font-size="23" x="1.82001" y="45">𝑐𝑜𝑜𝑟𝑑</tspan><tspan x="79.6066" y="38">=</tspan><tspan x="112.327" y="38">𝑟</tspan><tspan font-size="23" x="123.98" y="45">𝑐𝑜𝑜𝑟𝑑</tspan><tspan font-size="23" x="191.553" y="45">−</tspan><tspan font-size="23" x="208.553" y="45">𝑖</tspan><tspan x="-25.08" y="77">𝑟</tspan><tspan font-size="23" x="-13.4267" y="84">𝑐𝑜𝑜𝑟𝑑</tspan><tspan font-size="23" x="54.1467" y="84">−</tspan><tspan font-size="23" x="71.1467" y="84">0</tspan><tspan x="94.86" y="77">=</tspan><tspan x="127.58" y="77">𝑟</tspan><tspan font-size="23" x="139.233" y="84">𝑐𝑜𝑜𝑟𝑑</tspan><tspan font-size="23" x="206.807" y="84">−</tspan><tspan font-size="23" x="223.807" y="84">𝑖</tspan><tspan x="-10.9534" y="115">𝑤</tspan><tspan font-size="23" x="11.6533" y="122">𝑎𝑑𝑑𝑟</tspan><tspan x="79.6066" y="115">=</tspan><tspan x="112.327" y="115">𝑤</tspan><tspan font-size="23" x="134.933" y="122">𝑎𝑑𝑑𝑟</tspan><tspan font-size="23" x="192.673" y="122">−</tspan><tspan font-size="23" x="209.673" y="122">𝑖</tspan><tspan font-size="29" x="-78.0517" y="562">𝑟</tspan><tspan font-size="21" x="-67.2917" y="568">𝑐𝑜𝑜𝑟𝑑</tspan><tspan font-size="29" x="4.1283" y="562">=</tspan><tspan font-size="29" x="26.1283" y="562">=</tspan><tspan font-size="29" x="56.3149" y="562">𝑟</tspan><tspan font-size="21" x="67.075" y="568">𝑐𝑜𝑜𝑟𝑑</tspan><tspan font-size="21" x="129.088" y="568">−</tspan><tspan font-size="21" x="144.755" y="568">0</tspan><tspan font-size="29" x="165.022" y="562">+</tspan><tspan font-size="29" x="193.568" y="562">𝑇𝑖𝑙</tspan><tspan font-size="29" x="230.668" y="562">𝑒</tspan><tspan font-size="21" x="244.475" y="568">𝑠𝑖𝑧𝑒</tspan></text></g></svg>