<svg width="1541" height="946" xmlns="http://www.w3.org/2000/svg" xmlns:xlink="http://www.w3.org/1999/xlink" overflow="hidden"><defs><clipPath id="clip0"><path d="M-1 94 1540 94 1540 1040-1 1040Z" fill-rule="evenodd" clip-rule="evenodd"/></clipPath></defs><g clip-path="url(#clip0)" transform="translate(1 -94)"><path d="M18.5001 270C18.5001 216.152 62.1523 172.5 116 172.5 169.848 172.5 213.5 216.152 213.5 270 213.5 323.848 169.848 367.5 116 367.5 62.1523 367.5 18.5001 323.848 18.5001 270Z" stroke="#000000" stroke-linejoin="round" stroke-miterlimit="10" fill="none" fill-rule="evenodd"/><text font-family="Calibri,Calibri_MSFontService,sans-serif" font-weight="700" font-size="27" transform="translate(91.4465 279)">IDLE</text><path d="M8.47757 156.652 40.7101 191.986 37.755 194.682 5.52243 159.348ZM42.3174 187.813 45.972 200.722 33.452 195.9Z"/><path d="M441.5 270C441.5 216.152 485.376 172.5 539.5 172.5 593.624 172.5 637.5 216.152 637.5 270 637.5 323.848 593.624 367.5 539.5 367.5 485.376 367.5 441.5 323.848 441.5 270Z" stroke="#000000" stroke-linejoin="round" stroke-miterlimit="10" fill="none" fill-rule="evenodd"/><text font-family="Calibri,Calibri_MSFontService,sans-serif" font-weight="700" font-size="27" transform="translate(482.864 247)">LOAD_INF<tspan font-family="Cambria Math,Cambria Math_MSFontService,sans-serif" font-weight="400" x="-5.56665" y="32">𝑜</tspan><tspan font-family="Cambria Math,Cambria Math_MSFontService,sans-serif" font-weight="400" x="9.18668" y="32">𝑝</tspan><tspan font-family="Cambria Math,Cambria Math_MSFontService,sans-serif" font-weight="400" font-size="20" x="23.1733" y="37">𝑑𝑚𝑎</tspan><tspan font-family="Cambria Math,Cambria Math_MSFontService,sans-serif" font-weight="400" x="74.9933" y="32">=</tspan><tspan font-family="Cambria Math,Cambria Math_MSFontService,sans-serif" font-weight="400" x="102.4" y="32">0</tspan><tspan font-family="Cambria Math,Cambria Math_MSFontService,sans-serif" font-weight="400" x="2.96002" y="64">𝑠</tspan><tspan font-family="Cambria Math,Cambria Math_MSFontService,sans-serif" font-weight="400" font-size="20" x="14.64" y="69">𝑑𝑚𝑎</tspan><tspan font-family="Cambria Math,Cambria Math_MSFontService,sans-serif" font-weight="400" x="66.46" y="64">=</tspan><tspan font-family="Cambria Math,Cambria Math_MSFontService,sans-serif" font-weight="400" x="93.8667" y="64">1</tspan></text><path d="M1197.5 270C1197.5 216.152 1241.38 172.5 1295.5 172.5 1349.62 172.5 1393.5 216.152 1393.5 270 1393.5 323.848 1349.62 367.5 1295.5 367.5 1241.38 367.5 1197.5 323.848 1197.5 270Z" stroke="#000000" stroke-linejoin="round" stroke-miterlimit="10" fill="none" fill-rule="evenodd"/><text font-family="Calibri,Calibri_MSFontService,sans-serif" font-weight="700" font-size="27" transform="translate(1236.14 247)">LOAD_KEX<tspan font-family="Cambria Math,Cambria Math_MSFontService,sans-serif" font-weight="400" x="-2.81323" y="32">𝑜</tspan><tspan font-family="Cambria Math,Cambria Math_MSFontService,sans-serif" font-weight="400" x="11.9401" y="32">𝑝</tspan><tspan font-family="Cambria Math,Cambria Math_MSFontService,sans-serif" font-weight="400" font-size="20" x="25.9268" y="37">𝑑𝑚𝑎</tspan><tspan font-family="Cambria Math,Cambria Math_MSFontService,sans-serif" font-weight="400" x="77.7467" y="32">=</tspan><tspan font-family="Cambria Math,Cambria Math_MSFontService,sans-serif" font-weight="400" x="105.153" y="32">2</tspan><tspan font-family="Cambria Math,Cambria Math_MSFontService,sans-serif" font-weight="400" x="5.71338" y="64">𝑠</tspan><tspan font-family="Cambria Math,Cambria Math_MSFontService,sans-serif" font-weight="400" font-size="20" x="17.3934" y="69">𝑑𝑚𝑎</tspan><tspan font-family="Cambria Math,Cambria Math_MSFontService,sans-serif" font-weight="400" x="69.2134" y="64">=</tspan><tspan font-family="Cambria Math,Cambria Math_MSFontService,sans-serif" font-weight="400" x="96.62" y="64">1</tspan></text><path d="M1197.5 513C1197.5 459.152 1241.38 415.5 1295.5 415.5 1349.62 415.5 1393.5 459.152 1393.5 513 1393.5 566.848 1349.62 610.5 1295.5 610.5 1241.38 610.5 1197.5 566.848 1197.5 513Z" stroke="#000000" stroke-linejoin="round" stroke-miterlimit="10" fill="none" fill-rule="evenodd"/><text font-family="Calibri,Calibri_MSFontService,sans-serif" font-weight="700" font-size="27" transform="translate(1224.54 489)">Convolution<tspan font-family="Cambria Math,Cambria Math_MSFontService,sans-serif" font-weight="400" x="38.76" y="32">𝟏</tspan><tspan font-family="Cambria Math,Cambria Math_MSFontService,sans-serif" font-weight="400" x="60.6866" y="32">×</tspan><tspan font-family="Cambria Math,Cambria Math_MSFontService,sans-serif" font-weight="400" x="85.6134" y="32">𝟏</tspan><tspan font-family="Cambria Math,Cambria Math_MSFontService,sans-serif" font-weight="400" x="22.72" y="64">𝑠</tspan><tspan font-family="Cambria Math,Cambria Math_MSFontService,sans-serif" font-weight="400" font-size="20" x="34.4" y="70">𝑐11</tspan><tspan font-family="Cambria Math,Cambria Math_MSFontService,sans-serif" font-weight="400" x="75.4133" y="64">=</tspan><tspan font-family="Cambria Math,Cambria Math_MSFontService,sans-serif" font-weight="400" x="102.82" y="64">1</tspan></text><path d="M1197.5 755.5C1197.5 701.376 1241.38 657.5 1295.5 657.5 1349.62 657.5 1393.5 701.376 1393.5 755.5 1393.5 809.624 1349.62 853.5 1295.5 853.5 1241.38 853.5 1197.5 809.624 1197.5 755.5Z" stroke="#000000" stroke-linejoin="round" stroke-miterlimit="10" fill="none" fill-rule="evenodd"/><text font-family="Calibri,Calibri_MSFontService,sans-serif" font-weight="700" font-size="27" transform="translate(1229.61 726)">LOAD_KDW<tspan font-family="Cambria Math,Cambria Math_MSFontService,sans-serif" font-weight="400" font-size="32" x="-4.04663" y="37">𝑜</tspan><tspan font-family="Cambria Math,Cambria Math_MSFontService,sans-serif" font-weight="400" font-size="32" x="13.6533" y="37">𝑝</tspan><tspan font-family="Cambria Math,Cambria Math_MSFontService,sans-serif" font-weight="400" font-size="23" x="30.4734" y="43">𝑑𝑚𝑎</tspan><tspan font-family="Cambria Math,Cambria Math_MSFontService,sans-serif" font-weight="400" font-size="32" x="92.7534" y="37">=</tspan><tspan font-family="Cambria Math,Cambria Math_MSFontService,sans-serif" font-weight="400" font-size="32" x="125.473" y="37">3</tspan><tspan font-family="Cambria Math,Cambria Math_MSFontService,sans-serif" font-weight="400" font-size="32" x="1.76001" y="75">𝑠</tspan><tspan font-family="Cambria Math,Cambria Math_MSFontService,sans-serif" font-weight="400" font-size="23" x="15.8134" y="81">𝑑𝑚𝑎</tspan><tspan font-family="Cambria Math,Cambria Math_MSFontService,sans-serif" font-weight="400" font-size="32" x="78.0934" y="75">=</tspan><tspan font-family="Cambria Math,Cambria Math_MSFontService,sans-serif" font-weight="400" font-size="32" x="110.813" y="75">1</tspan></text><path d="M441.5 755.5C441.5 701.376 485.376 657.5 539.5 657.5 593.624 657.5 637.5 701.376 637.5 755.5 637.5 809.624 593.624 853.5 539.5 853.5 485.376 853.5 441.5 809.624 441.5 755.5Z" stroke="#000000" stroke-linejoin="round" stroke-miterlimit="10" fill="none" fill-rule="evenodd"/><text font-family="Calibri,Calibri_MSFontService,sans-serif" font-weight="700" font-size="27" transform="translate(471.511 732)">Convolution<tspan x="45.3533" y="32">DSC</tspan><tspan font-family="Cambria Math,Cambria Math_MSFontService,sans-serif" font-weight="400" x="19.74" y="64">𝑠</tspan><tspan font-family="Cambria Math,Cambria Math_MSFontService,sans-serif" font-weight="400" font-size="20" x="31.42" y="70">𝑑𝑠𝑐</tspan><tspan font-family="Cambria Math,Cambria Math_MSFontService,sans-serif" font-weight="400" x="72.3867" y="64">=</tspan><tspan font-family="Cambria Math,Cambria Math_MSFontService,sans-serif" font-weight="400" x="99.7933" y="64">1</tspan></text><path d="M13.5001 755.5C13.5001 698.615 59.6147 652.5 116.5 652.5 173.385 652.5 219.5 698.615 219.5 755.5 219.5 812.385 173.385 858.5 116.5 858.5 59.6147 858.5 13.5001 812.385 13.5001 755.5Z" stroke="#000000" stroke-linejoin="round" stroke-miterlimit="10" fill="none" fill-rule="evenodd"/><text font-family="Calibri,Calibri_MSFontService,sans-serif" font-weight="700" font-size="27" transform="translate(45.9421 732)">WRITE_FMO<tspan font-family="Cambria Math,Cambria Math_MSFontService,sans-serif" font-weight="400" x="8.26667" y="32">𝑜</tspan><tspan font-family="Cambria Math,Cambria Math_MSFontService,sans-serif" font-weight="400" x="23.02" y="32">𝑝</tspan><tspan font-family="Cambria Math,Cambria Math_MSFontService,sans-serif" font-weight="400" font-size="20" x="37.0067" y="38">𝑑𝑚𝑎</tspan><tspan font-family="Cambria Math,Cambria Math_MSFontService,sans-serif" font-weight="400" x="88.8267" y="32">=</tspan><tspan font-family="Cambria Math,Cambria Math_MSFontService,sans-serif" font-weight="400" x="116.233" y="32">5</tspan><tspan font-family="Cambria Math,Cambria Math_MSFontService,sans-serif" font-weight="400" x="16.7933" y="64">𝑠</tspan><tspan font-family="Cambria Math,Cambria Math_MSFontService,sans-serif" font-weight="400" font-size="20" x="28.4733" y="70">𝑑𝑚𝑎</tspan><tspan font-family="Cambria Math,Cambria Math_MSFontService,sans-serif" font-weight="400" x="80.2933" y="64">=</tspan><tspan font-family="Cambria Math,Cambria Math_MSFontService,sans-serif" font-weight="400" x="107.7" y="64">1</tspan></text><path d="M18.5001 513C18.5001 459.152 62.1523 415.5 116 415.5 169.848 415.5 213.5 459.152 213.5 513 213.5 566.848 169.848 610.5 116 610.5 62.1523 610.5 18.5001 566.848 18.5001 513Z" stroke="#000000" stroke-linejoin="round" stroke-miterlimit="10" fill="none" fill-rule="evenodd"/><text font-family="Calibri,Calibri_MSFontService,sans-serif" font-weight="700" font-size="27" transform="translate(63.9206 505)">FINISHED<tspan font-family="Cambria Math,Cambria Math_MSFontService,sans-serif" font-weight="400" x="-10.4667" y="32">𝑓𝑖𝑛𝑖𝑠ℎ</tspan><tspan font-family="Cambria Math,Cambria Math_MSFontService,sans-serif" font-weight="400" x="71.56" y="32">=</tspan><tspan font-family="Cambria Math,Cambria Math_MSFontService,sans-serif" font-weight="400" x="98.9667" y="32">1</tspan><tspan font-family="Cambria Math,Cambria Math_MSFontService,sans-serif" font-weight="400" font-size="29" x="-6.31312" y="-350">𝑟𝑠𝑡</tspan></text><path d="M855.5 270C855.5 216.152 899.152 172.5 953 172.5 1006.85 172.5 1050.5 216.152 1050.5 270 1050.5 323.848 1006.85 367.5 953 367.5 899.152 367.5 855.5 323.848 855.5 270Z" stroke="#000000" stroke-linejoin="round" stroke-miterlimit="10" fill="none" fill-rule="evenodd"/><text font-family="Calibri,Calibri_MSFontService,sans-serif" font-weight="700" font-size="27" transform="translate(893.588 247)">LOAD_FMI<tspan font-family="Cambria Math,Cambria Math_MSFontService,sans-serif" font-weight="400" x="-2.64667" y="32">𝑜</tspan><tspan font-family="Cambria Math,Cambria Math_MSFontService,sans-serif" font-weight="400" x="12.1067" y="32">𝑝</tspan><tspan font-family="Cambria Math,Cambria Math_MSFontService,sans-serif" font-weight="400" font-size="20" x="26.0933" y="37">𝑑𝑚𝑎</tspan><tspan font-family="Cambria Math,Cambria Math_MSFontService,sans-serif" font-weight="400" x="77.9133" y="32">=</tspan><tspan font-family="Cambria Math,Cambria Math_MSFontService,sans-serif" font-weight="400" x="105.32" y="32">1</tspan><tspan font-family="Cambria Math,Cambria Math_MSFontService,sans-serif" font-weight="400" x="5.88" y="64">𝑠</tspan><tspan font-family="Cambria Math,Cambria Math_MSFontService,sans-serif" font-weight="400" font-size="20" x="17.56" y="69">𝑑𝑚𝑎</tspan><tspan font-family="Cambria Math,Cambria Math_MSFontService,sans-serif" font-weight="400" x="69.38" y="64">=</tspan><tspan font-family="Cambria Math,Cambria Math_MSFontService,sans-serif" font-weight="400" x="96.7867" y="64">1</tspan></text><path d="M855.5 755.5C855.5 701.376 899.152 657.5 953 657.5 1006.85 657.5 1050.5 701.376 1050.5 755.5 1050.5 809.624 1006.85 853.5 953 853.5 899.152 853.5 855.5 809.624 855.5 755.5Z" stroke="#000000" stroke-linejoin="round" stroke-miterlimit="10" fill="none" fill-rule="evenodd"/><text font-family="Calibri,Calibri_MSFontService,sans-serif" font-weight="700" font-size="27" transform="translate(888.421 732)">LOAD_KPW<tspan font-family="Cambria Math,Cambria Math_MSFontService,sans-serif" font-weight="400" x="2.52002" y="32">𝑜</tspan><tspan font-family="Cambria Math,Cambria Math_MSFontService,sans-serif" font-weight="400" x="17.2734" y="32">𝑝</tspan><tspan font-family="Cambria Math,Cambria Math_MSFontService,sans-serif" font-weight="400" font-size="20" x="31.26" y="38">𝑑𝑚𝑎</tspan><tspan font-family="Cambria Math,Cambria Math_MSFontService,sans-serif" font-weight="400" x="83.08" y="32">=</tspan><tspan font-family="Cambria Math,Cambria Math_MSFontService,sans-serif" font-weight="400" x="110.487" y="32">4</tspan><tspan font-family="Cambria Math,Cambria Math_MSFontService,sans-serif" font-weight="400" x="11.0467" y="64">𝑠</tspan><tspan font-family="Cambria Math,Cambria Math_MSFontService,sans-serif" font-weight="400" font-size="20" x="22.7267" y="70">𝑑𝑚𝑎</tspan><tspan font-family="Cambria Math,Cambria Math_MSFontService,sans-serif" font-weight="400" x="74.5467" y="64">=</tspan><tspan font-family="Cambria Math,Cambria Math_MSFontService,sans-serif" font-weight="400" x="101.953" y="64">1</tspan></text><path d="M213 268 430.403 268 430.403 272 213 272ZM428.403 264 440.403 270 428.403 276Z"/><path d="M637 268 844.936 268 844.936 272 637 272ZM842.936 264 854.936 270 842.936 276Z"/><path d="M1050 268 1186.68 268 1186.68 272 1050 272ZM1184.68 264 1196.68 270 1184.68 276Z"/><path d="M1297 367 1297 404.096 1293 404.096 1293 367ZM1301 402.096 1295 414.096 1289 402.096Z"/><path d="M1297 610 1297 647.096 1293 647.096 1293 610ZM1301 645.096 1295 657.096 1289 645.096Z"/><path d="M1.43152e-06-2 136.679-1.9999 136.679 2.0001-1.43152e-06 2ZM134.679-5.9999 146.679 0.000104987 134.679 6.0001Z" transform="matrix(-1 -8.74228e-08 -8.74228e-08 1 1196.68 755)"/><path d="M9.63465e-07-2 207.936-1.9999 207.936 2.0001-9.63465e-07 2ZM205.936-5.9999 217.936 0.000104987 205.936 6.0001Z" transform="matrix(-1 -8.74228e-08 -8.74228e-08 1 854.936 755)"/><path d="M9.44778e-07-2 212.247-1.9999 212.247 2.0001-9.44778e-07 2ZM210.247-5.9999 222.247 0.000104987 210.247 6.0001Z" transform="matrix(-1 -8.74228e-08 -8.74228e-08 1 441.247 755)"/><path d="M103 651.94 103 625 109 625 109 651.94ZM97.0002 628 106 610 115 628Z" fill="#FF0000"/><path d="M114.001 414.096 114 377 118 377 118.001 414.096ZM110 379 116 367 122 379Z"/><path d="M0.0126491-0.333093 4.96297-0.145107 9.86997 0.421086 19.4728 2.68059 28.3908 6.07192 36.43 10.5312 39.9548 13.1119 43.2274 15.818 46.0002 18.7168 48.4602 21.7445 50.3577 24.8438 51.8146 28.0742 52.7041 31.3145 53.0222 34.6235 52.4549 41.1162 50.9433 47.4144 48.55 53.3347 45.4622 58.6281 41.8003 63.1108 37.674 66.5388 35.178 67.5697 34.9235 66.9535 37.3728 65.9419 37.287 65.9936 41.3495 62.6186 41.3044 62.6641 44.9294 58.2266 44.8996 58.2695 47.9621 53.0195 47.941 53.0626 50.316 47.1876 50.3009 47.2347 51.8009 40.9847 51.7929 41.0335 52.3554 34.596 52.3557 34.6569 52.0432 31.4069 52.0536 31.4632 51.1786 28.2757 51.1961 28.3245 49.7586 25.137 49.7782 25.1741 47.9032 22.1116 47.9288 22.1477 45.4913 19.1477 45.5091 19.1679 42.7591 16.2929 42.7876 16.3194 39.5376 13.6319 39.5531 13.644 36.0531 11.0815 36.0883 11.104 28.0883 6.66649 28.1315 6.68656 19.2565 3.31157 19.2987 3.32447 9.73615 1.07447 9.77429 1.08114 4.89929 0.518636 4.92485 0.520593-0.0126491 0.333093ZM37.5164 70.6818 28.6875 69.25 35.1303 63.046Z" transform="matrix(-4.37114e-08 -1 -1 4.37114e-08 185.693 201.161)"/><text font-family="Cambria Math,Cambria Math_MSFontService,sans-serif" font-weight="400" font-size="29" transform="translate(211.163 159)">𝑠𝑡𝑎𝑟𝑡</text><path d="M211.61 135.183 234.276 135.183 256.943 135.183 279.61 135.183 279.61 137.183 256.943 137.183 234.276 137.183 211.61 137.183Z" fill-rule="evenodd"/><text font-family="Cambria Math,Cambria Math_MSFontService,sans-serif" font-weight="400" font-size="29" transform="translate(297.711 311)">𝑠𝑡𝑎𝑟𝑡</text><path d="M0.0246239-0.332423 5.11318 0.0445077 10.2227 1.24303 15.1981 3.13245 20.1066 5.64958 24.8257 8.79567 29.2874 12.5661 33.5559 16.7719 37.5746 21.4185 41.2157 26.5035 44.5419 31.9635 47.4287 37.737 49.8757 43.6978 51.8842 49.9116 53.3279 56.2514 54.2697 62.7179 54.5837 69.25 54.2697 75.7807 53.3908 82.1844 51.9471 88.5871 50.0018 94.7367 47.6174 100.76 44.7935 106.471 41.5931 111.931 38.0145 117.016 34.1227 121.661 29.9776 125.932 25.5771 129.641 20.9856 132.785 16.2638 135.304 11.3433 137.196 8.10613 137.846 7.975 137.192 11.1844 136.548 11.1303 136.564 16.0053 134.689 15.9681 134.706 20.6556 132.206 20.6241 132.225 25.1866 129.1 25.1602 129.12 29.5352 125.433 29.5108 125.455 33.6358 121.205 33.6195 121.223 37.4945 116.598 37.4774 116.621 41.0399 111.558 41.0249 111.581 44.2124 106.144 44.2012 106.165 47.0137 100.477 47.0026 100.502 49.3776 94.5023 49.3697 94.5245 51.3072 88.3995 51.2998 88.4267 52.7373 82.0517 52.7323 82.0797 53.6073 75.7047 53.6045 75.734 53.917 69.234 53.917 69.266 53.6045 62.766 53.6076 62.798 52.6701 56.3605 52.675 56.3865 51.2375 50.074 51.2453 50.1025 49.2453 43.915 49.2541 43.9391 46.8166 38.0016 46.8269 38.0241 43.9519 32.2741 43.9653 32.2984 40.6528 26.8609 40.6665 26.8816 37.0415 21.8191 37.0604 21.8431 33.0604 17.2181 33.0785 17.2374 28.8285 13.0499 28.8473 13.0671 24.4098 9.3171 24.4401 9.33985 19.7526 6.21485 19.7854 6.23411 14.9104 3.73411 14.9442 3.74912 10.0067 1.87412 10.0489 1.88702 4.98638 0.699525 5.03788 0.707423-0.0246239 0.332423ZM9.91238 141.297 1.4375 138.437 8.80998 133.373Z" transform="matrix(-4.37114e-08 -1 -1 4.37114e-08 608.886 201.918)"/><text font-family="Cambria Math,Cambria Math_MSFontService,sans-serif" font-weight="400" font-size="29" transform="translate(508.24 137)">𝑓<tspan font-size="21" x="11.56" y="6">𝑑𝑚𝑎</tspan></text><path d="M507.98 109.193 528.313 109.193 548.646 109.193 568.98 109.193 568.98 111.193 548.646 111.193 528.313 111.193 507.98 111.193Z" fill-rule="evenodd"/><path d="M0.0246239-0.332423 5.11318 0.0445077 10.2227 1.24303 15.1981 3.13245 20.1066 5.64958 24.8257 8.79567 29.2874 12.5661 33.5559 16.7719 37.5746 21.4185 41.2157 26.5035 44.5419 31.9635 47.4287 37.737 49.8757 43.6978 51.8842 49.9116 53.3279 56.2514 54.2697 62.7179 54.5837 69.25 54.2697 75.7807 53.3908 82.1844 51.9471 88.5871 50.0018 94.7367 47.6174 100.76 44.7935 106.471 41.5931 111.931 38.0145 117.016 34.1227 121.661 29.9776 125.932 25.5771 129.641 20.9856 132.785 16.2638 135.304 11.3433 137.196 8.10613 137.846 7.975 137.192 11.1844 136.548 11.1303 136.564 16.0053 134.689 15.9681 134.706 20.6556 132.206 20.6241 132.225 25.1866 129.1 25.1602 129.12 29.5352 125.433 29.5108 125.455 33.6358 121.205 33.6195 121.223 37.4945 116.598 37.4774 116.621 41.0399 111.558 41.0249 111.581 44.2124 106.144 44.2012 106.165 47.0137 100.477 47.0026 100.502 49.3776 94.5023 49.3697 94.5245 51.3072 88.3995 51.2998 88.4267 52.7373 82.0517 52.7323 82.0797 53.6073 75.7047 53.6045 75.734 53.917 69.234 53.917 69.266 53.6045 62.766 53.6076 62.798 52.6701 56.3605 52.675 56.3865 51.2375 50.074 51.2453 50.1025 49.2453 43.915 49.2541 43.9391 46.8166 38.0016 46.8269 38.0241 43.9519 32.2741 43.9653 32.2984 40.6528 26.8609 40.6665 26.8816 37.0415 21.8191 37.0604 21.8431 33.0604 17.2181 33.0785 17.2374 28.8285 13.0499 28.8473 13.0671 24.4098 9.3171 24.4401 9.33985 19.7526 6.21485 19.7854 6.23411 14.9104 3.73411 14.9442 3.74912 10.0067 1.87412 10.0489 1.88702 4.98638 0.699525 5.03788 0.707423-0.0246239 0.332423ZM9.91238 141.297 1.4375 138.437 8.80998 133.373Z" transform="matrix(-4.37114e-08 -1 -1 4.37114e-08 1022.89 201.918)"/><text font-family="Cambria Math,Cambria Math_MSFontService,sans-serif" font-weight="400" font-size="29" transform="translate(920.878 132)">𝑓<tspan font-size="21" x="11.56" y="6">𝑑𝑚𝑎</tspan></text><path d="M920.618 104.3 940.951 104.3 961.284 104.3 981.618 104.3 981.618 106.3 961.284 106.3 940.951 106.3 920.618 106.3Z" fill-rule="evenodd"/><path d="M0.0246239-0.332423 5.11318 0.0445077 10.2227 1.24303 15.1981 3.13245 20.1066 5.64958 24.8257 8.79567 29.2874 12.5661 33.5559 16.7719 37.5746 21.4185 41.2157 26.5035 44.5419 31.9635 47.4287 37.737 49.8757 43.6978 51.8842 49.9116 53.3279 56.2514 54.2697 62.7179 54.5837 69.25 54.2697 75.7807 53.3908 82.1844 51.9471 88.5871 50.0018 94.7367 47.6174 100.76 44.7935 106.471 41.5931 111.931 38.0145 117.016 34.1227 121.661 29.9776 125.932 25.5771 129.641 20.9856 132.785 16.2638 135.304 11.3433 137.196 8.10613 137.846 7.975 137.192 11.1844 136.548 11.1303 136.564 16.0053 134.689 15.9681 134.706 20.6556 132.206 20.6241 132.225 25.1866 129.1 25.1602 129.12 29.5352 125.433 29.5108 125.455 33.6358 121.205 33.6195 121.223 37.4945 116.598 37.4774 116.621 41.0399 111.558 41.0249 111.581 44.2124 106.144 44.2012 106.165 47.0137 100.477 47.0026 100.502 49.3776 94.5023 49.3697 94.5245 51.3072 88.3995 51.2998 88.4267 52.7373 82.0517 52.7323 82.0797 53.6073 75.7047 53.6045 75.734 53.917 69.234 53.917 69.266 53.6045 62.766 53.6076 62.798 52.6701 56.3605 52.675 56.3865 51.2375 50.074 51.2453 50.1025 49.2453 43.915 49.2541 43.9391 46.8166 38.0016 46.8269 38.0241 43.9519 32.2741 43.9653 32.2984 40.6528 26.8609 40.6665 26.8816 37.0415 21.8191 37.0604 21.8431 33.0604 17.2181 33.0785 17.2374 28.8285 13.0499 28.8473 13.0671 24.4098 9.3171 24.4401 9.33985 19.7526 6.21485 19.7854 6.23411 14.9104 3.73411 14.9442 3.74912 10.0067 1.87412 10.0489 1.88702 4.98638 0.699525 5.03788 0.707423-0.0246239 0.332423ZM9.91238 141.297 1.4375 138.437 8.80998 133.373Z" transform="matrix(-4.37114e-08 -1 -1 4.37114e-08 1364.89 201.918)"/><text font-family="Cambria Math,Cambria Math_MSFontService,sans-serif" font-weight="400" font-size="29" transform="translate(1264.98 135)">𝑓<tspan font-size="21" x="11.5601" y="6">𝑑𝑚𝑎</tspan></text><path d="M1264.72 107.027 1285.05 107.027 1305.39 107.027 1325.72 107.027 1325.72 109.027 1305.39 109.027 1285.05 109.027 1264.72 109.027Z" fill-rule="evenodd"/><text font-family="Cambria Math,Cambria Math_MSFontService,sans-serif" font-weight="400" font-size="29" transform="translate(715.142 311)">𝑓<tspan font-size="21" x="11.56" y="6">𝑑𝑚𝑎</tspan><tspan x="378.015" y="-1">𝑓</tspan><tspan font-size="21" x="389.575" y="5">𝑑𝑚𝑎</tspan><tspan x="506.593" y="87">𝑓</tspan><tspan font-size="21" x="518.153" y="93">𝑑𝑚𝑎</tspan></text><path d="M1023.22 824.525 1022.84 829.49 1021.64 834.412 1019.75 839.326 1017.23 844.048 1014.09 848.642 1010.32 852.979 1006.11 857.122 1001.46 861.016 996.379 864.531 990.919 867.794 985.147 870.555 979.186 873.002 972.972 874.885 966.633 876.328 960.167 877.207 953.636 877.521 947.107 877.207 940.703 876.391 934.301 874.948 928.152 873.065 922.129 870.744 916.418 867.983 910.959 864.845 905.875 861.393 901.229 857.626 896.958 853.606 893.248 849.331 890.103 844.864 887.584 840.268 885.691 835.534 885.081 832.539 885.735 832.406 886.338 835.371 886.321 835.314 888.196 840.001 888.179 839.965 890.679 844.527 890.659 844.496 893.784 848.933 893.763 848.907 897.451 853.157 897.427 853.132 901.677 857.132 901.659 857.116 906.284 860.866 906.261 860.849 911.323 864.287 911.302 864.274 916.74 867.399 916.719 867.388 922.406 870.138 922.381 870.127 928.381 872.439 928.359 872.431 934.484 874.306 934.46 874.3 940.835 875.737 940.803 875.732 947.178 876.544 947.152 876.542 953.652 876.855 953.62 876.855 960.12 876.542 960.091 876.545 966.529 875.67 966.5 875.675 972.812 874.238 972.79 874.244 978.977 872.369 978.947 872.379 984.885 869.942 984.867 869.949 990.617 867.199 990.59 867.214 996.028 863.964 996.009 863.976 1001.07 860.476 1001.05 860.495 1005.67 856.62 1005.65 856.638 1009.84 852.513 1009.82 852.531 1013.57 848.219 1013.55 848.249 1016.67 843.687 1016.65 843.718 1019.15 839.031 1019.14 839.068 1021.01 834.193 1021 834.234 1022.19 829.359 1022.18 829.412 1022.55 824.475ZM881.641 834.367 884.449 825.875 889.558 833.216Z"/><text font-family="Cambria Math,Cambria Math_MSFontService,sans-serif" font-weight="400" font-size="29" transform="translate(922.55 909)">𝑓<tspan font-size="21" x="11.56" y="6">𝑑𝑚𝑎</tspan></text><path d="M922.29 881.127 942.623 881.127 962.957 881.127 983.29 881.127 983.29 883.127 962.957 883.127 942.623 883.127 922.29 883.127Z" fill-rule="evenodd"/><path d="M-0.0276818 0.332182-2.30462 0.142437-4.61539-0.435256-8.99519-2.59342-13.111-6.01267-16.7724-10.3685-19.8609-15.537-22.2551-21.2705-23.7673-27.4452-24.3359-33.8269-23.7573-37.1057-22.1566-40.3071-19.6164-43.4189-16.2063-46.4501-11.9276-49.4075-6.96511-52.2342-1.25683-54.8688 5.01072-57.3758 11.8399-59.6313 19.1665-61.6978 26.8687-63.5138 34.9481-65.0169 51.8427-67.2069 60.4856-67.7706 69.25-67.9584 78.0144-67.7706 86.6574-67.2069 103.491-65.0167 111.571-63.4507 119.272-61.5724 126.6-59.5056 133.429-57.1248 139.696-54.6182 145.405-51.9203 150.366-49.0316 154.647-46.0732 158.057-42.9152 160.596-39.7421 162.195-36.4789 162.773-33.1391 162.205-26.6338 160.693-20.335 158.3-14.4773 155.212-9.1834 151.55-4.7646 147.424-1.27334 144.935-0.271465 144.686-0.88991 147.126-1.87172 147.035-1.81696 151.097-5.25446 151.056-5.21267 154.681-9.58767 154.65-9.54296 157.712-14.793 157.691-14.7511 160.066-20.5636 160.051-20.5153 161.551-26.7653 161.543-26.7165 162.105-33.154 162.109-33.0682 161.547-36.3182 161.576-36.2283 160.013-39.4158 160.052-39.3543 157.552-42.4793 157.586-42.4429 154.211-45.5679 154.248-45.5383 149.998-48.4758 150.02-48.4619 145.082-51.3369 145.108-51.3236 139.42-54.0111 139.439-54.003 133.189-56.503 133.203-56.4977 126.39-58.8727 126.41-58.8667 119.097-60.9292 119.108-60.9262 111.421-62.8012 111.437-62.7978 103.374-64.3603 103.394-64.357 86.582-66.5445 86.6033-66.5424 77.9783-67.1049 77.9929-67.1042 69.2429-67.2917 69.2571-67.2917 60.5071-67.1042 60.5217-67.1049 51.8967-66.5424 51.9179-66.5444 35.0429-64.3569 35.061-64.3598 26.9985-62.8598 27.014-62.8631 19.3265-61.0506 19.3405-61.0542 12.028-58.9917 12.042-58.996 5.22954-56.746 5.2488-56.753-1.0012-54.253-0.985314-54.2598-6.67281-51.6348-6.64751-51.6479-11.585-48.8354-11.5605-48.8508-15.8105-45.9133-15.7785-45.9384-19.1535-42.9384-19.1168-42.9767-21.6168-39.9142-21.5769-39.9759-23.1394-36.8509-23.1092-36.9421-23.6717-33.7546-23.668-33.8421-23.1055-27.5296-23.1137-27.5793-21.6137-21.4543-21.6299-21.5034-19.2549-15.8159-19.2764-15.8585-16.2139-10.7335-16.2448-10.777-12.6198-6.46448-12.662-6.5064-8.59949-3.1314-8.66516-3.174-4.35266-1.049-4.41915-1.07338-2.16915-0.510881-2.22232-0.519682 0.0276818-0.332182ZM147.259 2.85219 138.437 1.375 144.912-4.79584Z" transform="matrix(-4.37114e-08 -1 -1 4.37114e-08 1364.83 825.886)"/><text font-family="Cambria Math,Cambria Math_MSFontService,sans-serif" font-weight="400" font-size="29" transform="translate(1444.46 766)">𝑓<tspan font-size="21" x="11.5599" y="6">𝑑𝑚𝑎</tspan></text><path d="M1444.2 737.551 1464.53 737.551 1484.87 737.551 1505.2 737.551 1505.2 739.551 1484.87 739.551 1464.53 739.551 1444.2 739.551Z" fill-rule="evenodd"/><path d="M0.0276818 0.332182-2.22232 0.519682-2.16079 0.508673-4.41079 1.13367-4.34247 1.10626-8.65497 3.41876-8.59057 3.37371-12.6531 6.99871-12.6126 6.95563-16.2376 11.5806-16.208 11.5358-19.2705 17.0983-19.2517 17.058-21.6267 23.183-21.6125 23.1368-23.1125 29.6993-23.1053 29.6524-23.6678 36.4649-23.668 36.4073-23.3555 39.8448-23.3648 39.7913-22.4898 43.1663-22.5088 43.1125-21.0088 46.425-21.0286 46.3878-19.0286 49.6378-19.0477 49.61-16.6102 52.7975-16.6343 52.7694-13.7593 55.7694-13.7843 55.7459-10.4718 58.5584-10.489 58.5447-6.86398 61.2322-6.89688 61.2107 1.29062 65.8982 1.24551 65.8767 10.433 69.4392 10.3894 69.4257 20.1394 71.7382 20.0965 71.7309 23.5705 72.0869 23.5025 72.7501 20.0068 72.3919 10.2133 70.0691 0.981128 66.4892-7.2452 61.7795-10.8949 59.0737-14.2288 56.243-17.1285 53.2172-19.5875 50.0016-21.6074 46.7192-23.128 43.3614-24.017 39.9323-24.3346 36.4389-23.7677 29.5739-22.257 22.9646-19.8652 16.7962-16.779 11.1906-13.1191 6.52103-9.0049 2.84994-4.62489 0.501238-2.30897-0.142075-0.0276818-0.332182ZM22.4802 68.3366 30.1875 72.875 21.9324 76.3178Z" transform="matrix(-4.37114e-08 -1 -1 4.37114e-08 116.339 858.671)"/><text font-family="Cambria Math,Cambria Math_MSFontService,sans-serif" font-weight="400" font-size="29" transform="translate(33.86 938)">𝑓<tspan font-size="21" x="11.56" y="6">𝑑𝑚𝑎</tspan></text><path d="M33.6 909.966 53.9333 909.966 74.2667 909.966 94.6 909.966 94.6 911.966 74.2667 911.966 53.9333 911.966 33.6 911.966Z" fill-rule="evenodd"/><path d="M609.219 824.525 608.842 829.49 607.643 834.412 605.753 839.326 603.234 844.048 600.088 848.642 596.317 852.979 592.111 857.122 587.464 861.016 582.379 864.531 576.919 867.794 571.147 870.555 565.186 873.002 558.972 874.885 552.633 876.328 546.167 877.207 539.636 877.521 533.107 877.207 526.703 876.391 520.301 874.948 514.152 873.065 508.129 870.744 502.418 867.983 496.959 864.845 491.875 861.393 487.229 857.626 482.958 853.606 479.248 849.331 476.103 844.864 473.584 840.268 471.691 835.534 471.081 832.539 471.735 832.406 472.338 835.371 472.321 835.314 474.196 840.001 474.179 839.965 476.679 844.527 476.659 844.496 479.784 848.933 479.763 848.907 483.451 853.157 483.427 853.132 487.677 857.132 487.659 857.116 492.284 860.866 492.261 860.849 497.323 864.287 497.302 864.274 502.74 867.399 502.719 867.388 508.406 870.138 508.381 870.127 514.381 872.439 514.359 872.431 520.484 874.306 520.46 874.3 526.835 875.737 526.803 875.732 533.178 876.544 533.152 876.542 539.652 876.855 539.62 876.855 546.12 876.542 546.091 876.545 552.529 875.67 552.5 875.675 558.812 874.238 558.79 874.244 564.977 872.369 564.947 872.379 570.885 869.942 570.867 869.949 576.617 867.199 576.59 867.214 582.028 863.964 582.009 863.976 587.072 860.476 587.047 860.495 591.672 856.62 591.652 856.638 595.84 852.513 595.822 852.531 599.572 848.219 599.549 848.249 602.674 843.687 602.655 843.718 605.155 839.031 605.138 839.068 607.013 834.193 607 834.234 608.187 829.359 608.179 829.412 608.554 824.475ZM467.641 834.367 470.449 825.875 475.558 833.216Z"/><text font-family="Cambria Math,Cambria Math_MSFontService,sans-serif" font-weight="400" font-size="29" transform="translate(515.08 911)">𝑓<tspan font-size="21" x="11.56" y="6">𝑑𝑠𝑐</tspan></text><path d="M514.646 882.562 538.646 882.562 562.646 882.562 562.646 884.562 538.646 884.562 514.646 884.562Z" fill-rule="evenodd"/><text font-family="Cambria Math,Cambria Math_MSFontService,sans-serif" font-weight="400" font-size="29" transform="translate(320.018 789)">𝑓<tspan font-size="21" x="11.56" y="6">𝑑𝑠𝑐</tspan><tspan x="395.124" y="3">𝑓</tspan><tspan font-size="21" x="406.684" y="9">𝑑𝑚𝑎</tspan><tspan x="773.139" y="5">𝑓</tspan><tspan font-size="21" x="784.699" y="11">𝑑𝑚𝑎</tspan></text><path d="M-0.0276818 0.332182-2.30897 0.142075-4.61461-0.498382-6.84818-1.51944-9.01521-2.92164-13.1199-6.58426-16.7795-11.3166-19.8658-16.9222-22.2574-23.216-23.7678-29.8869-24.3356-36.826-23.7593-40.3476-22.1639-43.8576-19.6272-47.282-16.2177-50.6284-11.937-53.8389-6.97448-56.8541-1.26741-59.739 5.00157-62.4974 11.8323-64.9414 19.159-67.1957 26.8625-69.1999 34.9398-70.8279 43.2659-72.2052 51.8436-73.2069 60.4844-73.8331 69.25-74.0209 78.0156-73.8331 86.6577-73.2068 95.1729-72.1424 103.499-70.7652 111.576-69.0746 119.279-67.0707 126.608-64.8156 133.437-62.2468 139.705-59.5516 145.416-56.602 150.378-53.4613 154.656-50.1898 158.066-46.8435 160.603-43.3553 162.197-39.7835 162.773-36.2008 162.205-29.1381 160.695-22.28 158.304-15.9242 155.219-10.1947 151.56-5.33682 147.438-1.59568 144.923-0.38396 144.633-0.984572 147.105-2.17531 147.026-2.12182 151.088-5.80932 151.046-5.76305 154.671-10.5756 154.644-10.533 157.706-16.2205 157.688-16.1799 160.063-22.4924 160.049-22.4467 161.549-29.2592 161.543-29.2142 162.105-36.2142 162.108-36.1346 161.546-39.6346 161.571-39.5516 160.008-43.0516 160.043-42.9914 157.543-46.4289 157.579-46.3871 154.204-49.6996 154.235-49.6727 149.985-52.9227 150.009-52.9058 145.072-56.0308 145.097-56.0163 139.41-58.9538 139.431-58.9438 133.181-61.6313 133.195-61.6255 126.383-64.188 126.402-64.1814 119.089-66.4314 119.104-66.4274 111.416-68.4274 111.432-68.4237 103.369-70.1112 103.383-70.1086 95.0706-71.4836 95.0836-71.4817 86.5836-72.5442 86.6009-72.5425 77.9759-73.1675 77.9929-73.1667 69.2429-73.3542 69.2571-73.3542 60.5071-73.1667 60.5241-73.1675 51.8991-72.5425 51.9137-72.5439 43.3512-71.5439 43.3669-71.5461 35.0544-70.1711 35.0659-70.1732 27.0034-68.5482 27.0214-68.5524 19.3339-66.5524 19.348-66.5564 12.0355-64.3064 12.0498-64.3111 5.23729-61.8736 5.25925-61.8824-0.990754-59.1324-0.974623-59.14-6.66212-56.265-6.63941-56.2776-11.5769-53.2776-11.55-53.2958-15.8-50.1083-15.7665-50.1371-19.1415-46.8246-19.1071-46.8641-21.6071-43.4891-21.5715-43.5496-23.134-40.1121-23.1085-40.1962-23.671-36.7587-23.6678-36.8397-23.1053-29.9647-23.1124-30.0111-21.6124-23.3861-21.6259-23.4309-19.2509-17.1809-19.2705-17.2233-16.208-11.6608-16.2363-11.7039-12.6113-7.01642-12.6531-7.06121-8.59057-3.43621-8.63142-3.46736-6.50642-2.09236-6.54891-2.11566-4.36141-1.11566-4.41079-1.13367-2.16079-0.508673-2.22232-0.519682 0.0276818-0.332182ZM147.282 2.70827 138.437 1.375 144.811-4.90051Z" transform="matrix(-4.37114e-08 -1 -1 4.37114e-08 1364.83 582.886)"/><text font-family="Cambria Math,Cambria Math_MSFontService,sans-serif" font-weight="400" font-size="29" transform="translate(1449.83 528)">𝑓<tspan font-size="21" x="11.5601" y="6">𝑐11</tspan></text><path d="M1449.47 499.515 1473.97 499.515 1498.47 499.515 1498.47 501.515 1473.97 501.515 1449.47 501.515Z" fill-rule="evenodd"/><text font-family="Cambria Math,Cambria Math_MSFontService,sans-serif" font-weight="400" font-size="29" transform="translate(1211.54 639)">𝑓<tspan font-size="21" x="11.5601" y="6">𝑐11</tspan></text><path d="M186.118 681.237 186.846 679.214 189.005 677.221 191.995 675.553 195.866 673.912 200.687 672.37 206.403 670.845 213.032 669.393 220.449 667.948 228.741 666.503 237.836 665.123 247.67 663.745 258.26 662.366 269.529 661.114 281.484 659.8 294.066 658.61 307.203 657.422 320.906 656.296 335.17 655.232 349.864 654.232 365.066 653.231 380.706 652.355 396.654 651.542 429.67 650.041 463.753 648.853 498.709 647.977 534.229 647.414 569.99 647.227 569.951 647.228 587.826 646.79 587.742 646.794 605.617 645.606 605.527 645.614 623.339 643.614 623.262 643.625 640.95 640.937 640.858 640.953 658.358 637.453 658.288 637.469 675.663 633.344 675.579 633.365 692.767 628.49 692.701 628.51 709.639 623.073 709.559 623.1 726.184 616.975 726.116 617.001 742.429 610.314 742.362 610.343 758.362 603.093 758.29 603.127 773.853 595.315 773.79 595.348 788.977 587.035 788.914 587.071 803.601 578.321 803.531 578.365 817.781 569.053 817.719 569.094 831.407 559.407 831.341 559.456 844.466 549.331 844.405 549.38 856.967 538.88 856.903 538.936 868.841 528.061 868.773 528.125 880.023 516.875 879.964 516.937 890.527 505.437 890.462 505.511 900.274 493.699 900.213 493.776 909.276 481.713 909.213 481.801 917.463 469.489 917.402 469.586 924.777 457.086 924.724 457.183 931.286 444.496 931.231 444.61 936.856 431.798 936.806 431.924 941.494 418.924 941.45 419.059 945.138 405.996 945.103 406.138 947.791 393.013 947.765 393.17 949.39 379.982 949.377 380.142 949.515 376.883 953.512 377.053 953.37 380.392 951.725 393.738 949.007 407.012 945.28 420.214 940.546 433.344 934.868 446.277 928.251 459.07 920.818 471.668 912.506 484.073 903.382 496.217 893.507 508.106 882.882 519.674 871.569 530.987 859.565 541.922 846.94 552.474 833.751 562.648 820 572.381 805.684 581.736 790.93 590.526 775.679 598.873 760.049 606.72 743.98 614.001 727.6 620.716 710.902 626.868 693.891 632.329 676.629 637.225 659.177 641.369 641.596 644.885 623.824 647.585 605.928 649.595 587.966 650.788 570.03 651.227 534.26 651.414 534.282 651.414 498.782 651.977 498.8 651.976 463.863 652.851 463.882 652.851 429.82 654.038 429.841 654.037 396.841 655.537 396.852 655.537 380.914 656.349 380.924 656.349 365.299 657.224 365.319 657.223 350.136 658.222 335.448 659.222 335.461 659.221 321.211 660.284 321.226 660.283 307.539 661.408 307.555 661.406 294.43 662.594 294.438 662.593 281.876 663.781 281.906 663.777 269.971 665.09 258.721 666.34 258.758 666.335 248.196 667.71 248.215 667.708 238.403 669.083 238.425 669.079 229.363 670.454 229.406 670.447 221.156 671.885 221.195 671.878 213.82 673.315 213.865 673.306 207.303 674.743 207.39 674.722 201.765 676.222 201.86 676.194 197.172 677.694 197.343 677.631 193.655 679.193 193.85 679.098 191.162 680.598 191.544 680.322 189.919 681.822 190.444 681.029 189.882 682.592ZM945.434 378.712 951.937 366.977 957.423 379.221Z" fill="#4472C4"/><path d="M189.996 827.523 190.184 830.586 190.153 830.34 190.716 833.34 190.625 833.012 192.875 839.075 192.712 838.736 196.337 844.736 196.161 844.49 201.161 850.49 200.988 850.307 207.363 856.245 207.221 856.124 214.846 861.999 214.721 861.91 223.596 867.723 223.492 867.659 233.555 873.409 233.461 873.359 244.648 878.984 244.573 878.948 256.886 884.51 256.811 884.479 270.124 889.854 270.071 889.833 284.383 895.146 284.322 895.124 299.635 900.249 299.59 900.235 315.778 905.235 315.732 905.221 332.732 910.034 332.69 910.022 350.503 914.647 350.464 914.638 369.089 919.075 369.055 919.067 388.367 923.317 388.337 923.311 408.274 927.373 408.238 927.366 428.863 931.179 428.833 931.173 449.958 934.736 449.927 934.731 471.614 938.044 471.592 938.04 493.717 941.165 493.679 941.16 516.304 943.91 516.279 943.907 539.217 946.407 539.193 946.405 562.443 948.655 562.397 948.651 609.772 952.151 609.713 952.148 657.838 954.273 657.796 954.271 682.046 954.834 682.015 954.833 706.265 955.021 706.235 955.021 730.86 954.833 730.828 954.834 755.078 954.271 755.032 954.273 803.219 952.023 803.162 952.026 850.537 948.464 850.49 948.468 873.802 946.155 873.778 946.158 896.778 943.595 896.747 943.599 919.31 940.724 919.283 940.728 941.471 937.603 941.437 937.608 963.124 934.17 963.093 934.175 984.218 930.488 984.187 930.494 1004.81 926.556 1004.78 926.562 1024.78 922.437 1024.75 922.445 1044.06 918.07 1044.02 918.078 1062.59 913.516 1062.55 913.525 1080.42 908.775 1080.37 908.789 1097.37 903.789 1097.33 903.801 1113.52 898.676 1113.48 898.691 1128.79 893.441 1128.73 893.464 1143.04 888.026 1142.98 888.05 1156.29 882.488 1156.22 882.517 1168.54 876.83 1168.45 876.871 1179.64 871.058 1179.55 871.106 1189.62 865.231 1189.5 865.301 1198.38 859.301 1198.26 859.393 1205.88 853.33 1205.73 853.46 1212.04 847.335 1211.9 847.496 1216.96 841.371 1216.77 841.635 1220.4 835.447 1220.19 835.938 1220.94 833.18 1224.8 834.22 1223.99 837.237 1220.14 843.796 1214.91 850.13 1208.45 856.4 1200.68 862.572 1191.69 868.652 1181.53 874.585 1170.26 880.442 1157.87 886.164 1144.49 891.754 1130.12 897.214 1114.75 902.483 1098.52 907.621 1081.48 912.634 1063.56 917.396 1044.96 921.967 1025.61 926.35 1005.58 930.482 984.922 934.426 963.766 938.119 942.046 941.561 919.828 944.69 897.237 947.569 874.209 950.135 850.861 952.451 803.434 956.017 755.195 958.27 730.906 958.833 706.25 959.021 681.969 958.833 657.683 958.27 609.507 956.142 562.08 952.638 538.795 950.385 515.833 947.883 493.177 945.129 471.022 941.999 449.308 938.683 428.152 935.115 407.493 931.297 387.523 927.227 368.178 922.97 349.517 918.524 331.664 913.888 314.62 909.064 298.387 904.05 283.022 898.907 268.652 893.573 255.276 888.172 242.889 882.576 231.616 876.909 221.455 871.102 212.465 865.214 204.705 859.235 198.169 853.148 192.991 846.935 189.191 840.643 186.816 834.244 186.199 830.954 186.004 827.768ZM1216.57 834.294 1225.12 823.958 1228.26 837.003Z"/><text font-family="Cambria Math,Cambria Math_MSFontService,sans-serif" font-weight="400" font-size="29" transform="translate(608.026 988)">𝑔<tspan x="18.5067" y="0">𝑟</tspan><tspan font-size="21" x="29.2667" y="6">𝑖𝑛𝑡</tspan><tspan x="70.2466" y="0">&lt;</tspan><tspan x="100.433" y="0">𝑁</tspan><tspan font-size="21" x="118.227" y="6">𝑔</tspan><tspan font-size="21" x="132.76" y="6">𝑟</tspan><tspan font-size="17" x="144.093" y="10">𝑖𝑛𝑡</tspan><tspan x="18.2866" y="38">𝑔</tspan><tspan x="36.7933" y="38">𝑟</tspan><tspan font-size="21" x="47.5533" y="44">𝑖𝑛𝑡</tspan><tspan x="86.8933" y="38">+</tspan>=<tspan x="139.08" y="38">1</tspan><tspan fill="#4472C4" font-size="32" x="-47.2251" y="-534">𝑔</tspan><tspan fill="#4472C4" font-size="32" x="-27.1785" y="-534">𝑟</tspan><tspan fill="#4472C4" font-size="23" x="-15.5251" y="-527">𝑖𝑛𝑡</tspan><tspan fill="#4472C4" font-size="32" x="28.9816" y="-534">=</tspan><tspan fill="#4472C4" font-size="32" x="52.8149" y="-534">=</tspan><tspan fill="#4472C4" font-size="32" x="85.5349" y="-534">𝑁</tspan><tspan fill="#4472C4" font-size="23" x="105.015" y="-527">𝑔</tspan><tspan fill="#4472C4" font-size="23" x="120.915" y="-527">𝑟</tspan><tspan fill="#4472C4" font-size="19" x="133.248" y="-522">𝑖𝑛𝑡</tspan><tspan fill="#4472C4" font-size="32" x="165.208" y="-534"> </tspan><tspan fill="#4472C4" font-size="32" x="172.208" y="-534">⋀</tspan><tspan fill="#4472C4" font-size="32" x="-132.372" y="-492">∼</tspan><tspan fill="#4472C4" font-size="32" x="-100.652" y="-492">(</tspan><tspan fill="#4472C4" font-size="32" x="-87.3184" y="-492">𝑡</tspan><tspan fill="#4472C4" font-size="23" x="-75.1185" y="-485">𝑜𝑥</tspan><tspan fill="#4472C4" font-size="32" x="-36.6118" y="-492">=</tspan><tspan fill="#4472C4" font-size="32" x="-12.7784" y="-492">=</tspan><tspan fill="#4472C4" font-size="32" x="19.9416" y="-492">𝑁</tspan><tspan fill="#4472C4" font-size="23" x="40.7882" y="-485">𝑜𝑥</tspan><tspan fill="#4472C4" font-size="32" x="70.4082" y="-492"> </tspan><tspan fill="#4472C4" font-size="32" x="77.4082" y="-492">⋀</tspan><tspan fill="#4472C4" font-size="32" x="98.7416" y="-492"> </tspan><tspan fill="#4472C4" font-size="32" x="105.742" y="-492">𝑡</tspan><tspan fill="#4472C4" font-size="23" x="117.942" y="-485">𝑜𝑦</tspan><tspan fill="#4472C4" font-size="32" x="157.388" y="-492">=</tspan><tspan fill="#4472C4" font-size="32" x="181.222" y="-492">=</tspan><tspan fill="#4472C4" font-size="32" x="213.942" y="-492">𝑁</tspan><tspan fill="#4472C4" font-size="23" x="234.788" y="-485">𝑜𝑦</tspan><tspan fill="#4472C4" font-size="32" x="265.348" y="-492">)</tspan><tspan fill="#4472C4" font-size="32" x="-31.2318" y="-413">𝑈𝑝𝑑𝑎𝑡𝑒</tspan><tspan fill="#4472C4" font-size="32" x="74.1349" y="-413"> </tspan><tspan fill="#4472C4" font-size="32" x="81.1349" y="-413">𝑡</tspan><tspan fill="#4472C4" font-size="23" x="93.3349" y="-406">𝑜𝑥</tspan><tspan fill="#4472C4" font-size="32" x="122.955" y="-413">,</tspan><tspan fill="#4472C4" font-size="32" x="134.788" y="-413">𝑡</tspan><tspan fill="#4472C4" font-size="23" x="146.988" y="-406">𝑜𝑦</tspan><tspan fill="#FF0000" x="-392.056" y="-394">𝑔</tspan><tspan fill="#FF0000" x="-373.556" y="-394">𝑟</tspan><tspan fill="#FF0000" font-size="21" x="-362.776" y="-388">𝑖𝑛𝑡</tspan><tspan fill="#FF0000" x="-322.003" y="-394">=</tspan><tspan fill="#FF0000" x="-300.169" y="-394">=</tspan><tspan fill="#FF0000" x="-270.189" y="-394">𝑁</tspan><tspan fill="#FF0000" font-size="21" x="-252.376" y="-388">𝑔</tspan><tspan fill="#FF0000" font-size="21" x="-237.843" y="-388">𝑟</tspan><tspan fill="#FF0000" font-size="17" x="-226.509" y="-383">𝑖𝑛𝑡</tspan><tspan fill="#FF0000" x="-196.903" y="-394"> </tspan><tspan fill="#FF0000" x="-190.403" y="-394">⋀</tspan><tspan fill="#FF0000" x="-442.863" y="-356">𝑡</tspan><tspan fill="#FF0000" font-size="21" x="-431.789" y="-350">𝑜𝑥</tspan><tspan fill="#FF0000" x="-396.516" y="-356">=</tspan><tspan fill="#FF0000" x="-374.683" y="-356">=</tspan><tspan fill="#FF0000" x="-344.703" y="-356">𝑁</tspan><tspan fill="#FF0000" font-size="21" x="-325.636" y="-350">𝑜𝑥</tspan><tspan fill="#FF0000" x="-298.509" y="-356"> </tspan><tspan fill="#FF0000" x="-292.009" y="-356">⋀</tspan><tspan fill="#FF0000" x="-272.509" y="-356"> </tspan><tspan fill="#FF0000" x="-266.009" y="-356">𝑡</tspan><tspan fill="#FF0000" font-size="21" x="-254.936" y="-350">𝑜𝑦</tspan><tspan fill="#FF0000" x="-218.883" y="-356">=</tspan><tspan fill="#FF0000" x="-197.049" y="-356">=</tspan><tspan fill="#FF0000" x="-167.069" y="-356">𝑁</tspan><tspan fill="#FF0000" font-size="21" x="-148.003" y="-350">𝑜𝑦</tspan><tspan x="-323.151" y="-773">𝑡</tspan><tspan font-size="21" x="-311.918" y="-767">𝑜𝑥</tspan><tspan x="-276.604" y="-773">=</tspan><tspan x="-246.418" y="-773">0</tspan><tspan x="-323.631" y="-738">𝑡</tspan><tspan font-size="21" x="-312.398" y="-732">𝑜𝑦</tspan><tspan x="-276.131" y="-738">=</tspan><tspan x="-245.944" y="-738">0</tspan><tspan x="712.651" y="-353">𝑔</tspan><tspan x="731.157" y="-353">𝑟</tspan><tspan font-size="21" x="741.917" y="-347">𝑖𝑛𝑡</tspan><tspan x="782.897" y="-353">=</tspan><tspan x="813.084" y="-353">0</tspan></text></g></svg>