<svg width="1500" height="1004" xmlns="http://www.w3.org/2000/svg" xmlns:xlink="http://www.w3.org/1999/xlink" overflow="hidden"><defs><clipPath id="clip0"><path d="M7-1 1507-1 1507 1003 7 1003Z" fill-rule="evenodd" clip-rule="evenodd"/></clipPath></defs><g clip-path="url(#clip0)" transform="translate(-7 1)"><path d="M19.5001 175.5C19.5001 121.376 63.3761 77.5001 117.5 77.5001 171.624 77.5001 215.5 121.376 215.5 175.5 215.5 229.624 171.624 273.5 117.5 273.5 63.3761 273.5 19.5001 229.624 19.5001 175.5Z" stroke="#000000" stroke-linejoin="round" stroke-miterlimit="10" fill="none" fill-rule="evenodd"/><text font-family="Calibri,Calibri_MSFontService,sans-serif" font-weight="700" font-size="27" transform="translate(92.8178 184)">IDLE</text><path d="M10.4776 61.6521 42.7101 96.9859 39.755 99.6816 7.52243 64.3479ZM44.3174 92.8125 47.972 105.722 35.452 100.9Z"/><text font-family="Cambria Math,Cambria Math_MSFontService,sans-serif" font-weight="400" font-size="29" transform="translate(57.5055 60)">𝒓𝒔𝒕</text><path d="M0.0126491-0.333093 4.96297-0.145107 9.86997 0.421086 19.4728 2.68059 28.3908 6.07192 36.43 10.5312 39.9548 13.1119 43.2274 15.818 46.0002 18.7168 48.4602 21.7445 50.3577 24.8438 51.8146 28.0742 52.7041 31.3145 53.0222 34.6235 52.4549 41.1162 50.9433 47.4144 48.55 53.3347 45.4622 58.6281 41.8003 63.1108 37.674 66.5388 35.178 67.5697 34.9235 66.9535 37.3728 65.9419 37.287 65.9936 41.3495 62.6186 41.3044 62.6641 44.9294 58.2266 44.8996 58.2695 47.9621 53.0195 47.941 53.0626 50.316 47.1876 50.3009 47.2347 51.8009 40.9847 51.7929 41.0335 52.3554 34.596 52.3557 34.6569 52.0432 31.4069 52.0536 31.4632 51.1786 28.2757 51.1961 28.3245 49.7586 25.137 49.7782 25.1741 47.9032 22.1116 47.9288 22.1477 45.4913 19.1477 45.5091 19.1679 42.7591 16.2929 42.7876 16.3194 39.5376 13.6319 39.5531 13.644 36.0531 11.0815 36.0883 11.104 28.0883 6.66649 28.1315 6.68656 19.2565 3.31157 19.2987 3.32447 9.73615 1.07447 9.77429 1.08114 4.89929 0.518636 4.92485 0.520593-0.0126491 0.333093ZM37.5164 70.6818 28.6875 69.25 35.1303 63.046Z" transform="matrix(-4.37114e-08 -1 -1 4.37114e-08 186.693 106.161)"/><text font-family="Cambria Math,Cambria Math_MSFontService,sans-serif" font-weight="400" font-size="29" transform="translate(147.511 39)">𝒔<tspan font-size="21" x="14.8333" y="6">𝒅𝒔𝒄</tspan></text><path d="M147.624 18.215 173.624 18.215 199.624 18.215 199.624 20.215 173.624 20.215 147.624 20.215Z" fill-rule="evenodd"/><text font-family="Cambria Math,Cambria Math_MSFontService,sans-serif" font-weight="400" font-size="29" transform="translate(253.325 208)">𝒔<tspan font-size="21" x="14.8333" y="6">𝒅𝒔𝒄</tspan></text><path d="M22.5001 537.5C22.5001 483.376 66.1523 439.5 120 439.5 173.848 439.5 217.5 483.376 217.5 537.5 217.5 591.624 173.848 635.5 120 635.5 66.1523 635.5 22.5001 591.624 22.5001 537.5Z" stroke="#000000" stroke-linejoin="round" stroke-miterlimit="10" fill="none" fill-rule="evenodd"/><text font-family="Calibri,Calibri_MSFontService,sans-serif" font-weight="700" font-size="27" transform="translate(67.7438 530)">FINISHED<tspan font-family="Cambria Math,Cambria Math_MSFontService,sans-serif" font-weight="400" x="4.81333" y="32">𝑓</tspan><tspan font-family="Cambria Math,Cambria Math_MSFontService,sans-serif" font-weight="400" font-size="20" x="15.3133" y="37">𝑑𝑠𝑐</tspan><tspan font-family="Cambria Math,Cambria Math_MSFontService,sans-serif" font-weight="400" x="56.28" y="32">=</tspan><tspan font-family="Cambria Math,Cambria Math_MSFontService,sans-serif" font-weight="400" x="83.6867" y="32">1</tspan></text><path d="M117.453 438.92 115.148 283.029 119.148 282.97 121.452 438.861ZM111.178 285.087 117 273 123.177 284.91Z"/><path d="M1306.5 589.5C1306.5 535.376 1350.15 491.5 1404 491.5 1457.85 491.5 1501.5 535.376 1501.5 589.5 1501.5 643.624 1457.85 687.5 1404 687.5 1350.15 687.5 1306.5 643.624 1306.5 589.5Z" stroke="#000000" stroke-linejoin="round" stroke-miterlimit="10" fill="none" fill-rule="evenodd"/><text font-family="Calibri,Calibri_MSFontService,sans-serif" font-weight="700" font-size="24" transform="translate(1321.28 596)">D<tspan x="14.9333" y="0">W_CONV_ADD</tspan></text><path d="M946.5 174.5C946.5 120.376 990.376 76.5001 1044.5 76.5001 1098.62 76.5001 1142.5 120.376 1142.5 174.5 1142.5 228.624 1098.62 272.5 1044.5 272.5 990.376 272.5 946.5 228.624 946.5 174.5Z" stroke="#000000" stroke-linejoin="round" stroke-miterlimit="10" fill="none" fill-rule="evenodd"/><text font-family="Calibri,Calibri_MSFontService,sans-serif" font-weight="700" font-size="27" transform="translate(969.644 131)">L<tspan x="10.8666" y="0">OAD_FMINT</tspan><tspan font-family="Cambria Math,Cambria Math_MSFontService,sans-serif" font-weight="400" font-size="21" x="17.7667" y="28">𝑈𝑝𝑑𝑎𝑡𝑒</tspan><tspan font-family="Cambria Math,Cambria Math_MSFontService,sans-serif" font-weight="400" font-size="21" x="88.0667" y="28"> </tspan><tspan font-family="Cambria Math,Cambria Math_MSFontService,sans-serif" font-weight="400" font-size="21" x="92.7333" y="28">𝑖𝑛𝑡</tspan><tspan font-family="Cambria Math,Cambria Math_MSFontService,sans-serif" font-weight="400" font-size="15" x="119.92" y="33">𝑥</tspan><tspan font-family="Cambria Math,Cambria Math_MSFontService,sans-serif" font-weight="400" font-size="21" x="17.4533" y="53">𝑈𝑝𝑑𝑎𝑡𝑒</tspan><tspan font-family="Cambria Math,Cambria Math_MSFontService,sans-serif" font-weight="400" font-size="21" x="87.7533" y="53"> </tspan><tspan font-family="Cambria Math,Cambria Math_MSFontService,sans-serif" font-weight="400" font-size="21" x="92.42" y="53">𝑖𝑛𝑡</tspan><tspan font-family="Cambria Math,Cambria Math_MSFontService,sans-serif" font-weight="400" font-size="15" x="119.607" y="58">𝑦</tspan><tspan font-family="Cambria Math,Cambria Math_MSFontService,sans-serif" font-weight="400" font-size="21" x="18.3267" y="80">𝑈𝑝𝑑𝑎𝑡𝑒</tspan><tspan font-family="Cambria Math,Cambria Math_MSFontService,sans-serif" font-weight="400" font-size="21" x="88.6267" y="80"> </tspan><tspan font-family="Cambria Math,Cambria Math_MSFontService,sans-serif" font-weight="400" font-size="21" x="93.2933" y="80">𝑖𝑛𝑡</tspan><tspan font-family="Cambria Math,Cambria Math_MSFontService,sans-serif" font-weight="400" font-size="15" x="119.193" y="85">𝑓</tspan><tspan font-family="Cambria Math,Cambria Math_MSFontService,sans-serif" font-weight="400" font-size="19" x="7.95331" y="105">𝑆𝑡𝑜𝑟𝑒</tspan><tspan font-family="Cambria Math,Cambria Math_MSFontService,sans-serif" font-weight="400" font-size="19" x="53.7" y="105"> </tspan><tspan font-family="Cambria Math,Cambria Math_MSFontService,sans-serif" font-weight="400" font-size="19" x="57.8667" y="105">𝑓𝑚𝑖𝑛𝑡</tspan><tspan font-family="Cambria Math,Cambria Math_MSFontService,sans-serif" font-weight="400" font-size="14" x="107.427" y="109">𝑑𝑎𝑡𝑎</tspan></text><path d="M1306.5 289.5C1306.5 235.376 1350.15 191.5 1404 191.5 1457.85 191.5 1501.5 235.376 1501.5 289.5 1501.5 343.624 1457.85 387.5 1404 387.5 1350.15 387.5 1306.5 343.624 1306.5 289.5Z" stroke="#000000" stroke-linejoin="round" stroke-miterlimit="10" fill="none" fill-rule="evenodd"/><text font-family="Calibri,Calibri_MSFontService,sans-serif" font-weight="700" font-size="25" transform="translate(1315.7 298)">D<tspan x="15.7533" y="0">W_CONV_MUL</tspan></text><path d="M1027.5 789.5C1027.5 735.376 1071.15 691.5 1125 691.5 1178.85 691.5 1222.5 735.376 1222.5 789.5 1222.5 843.624 1178.85 887.5 1125 887.5 1071.15 887.5 1027.5 843.624 1027.5 789.5Z" stroke="#000000" stroke-linejoin="round" stroke-miterlimit="10" fill="none" fill-rule="evenodd"/><text font-family="Calibri,Calibri_MSFontService,sans-serif" font-weight="700" font-size="27" transform="translate(1053.78 784)">L<tspan x="10.8667" y="0">OAD_K_PW</tspan><tspan font-family="Cambria Math,Cambria Math_MSFontService,sans-serif" font-weight="400" font-size="24" x="26.1801" y="30">𝑛</tspan><tspan font-family="Cambria Math,Cambria Math_MSFontService,sans-serif" font-weight="400" font-size="24" x="40.0134" y="30">𝑝</tspan><tspan font-family="Cambria Math,Cambria Math_MSFontService,sans-serif" font-weight="400" font-size="24" x="58.9734" y="30">+</tspan><tspan font-family="Cambria Math,Cambria Math_MSFontService,sans-serif" font-weight="400" font-size="24" x="76.9734" y="30">=</tspan><tspan font-family="Cambria Math,Cambria Math_MSFontService,sans-serif" font-weight="400" font-size="24" x="101.64" y="30">1</tspan></text><path d="M468.5 175.5C468.5 121.376 512.376 77.5001 566.5 77.5001 620.624 77.5001 664.5 121.376 664.5 175.5 664.5 229.624 620.624 273.5 566.5 273.5 512.376 273.5 468.5 229.624 468.5 175.5Z" stroke="#000000" stroke-linejoin="round" stroke-miterlimit="10" fill="none" fill-rule="evenodd"/><text font-family="Calibri,Calibri_MSFontService,sans-serif" font-weight="700" font-size="24" transform="translate(501.342 137)">LOAD_K_DW<tspan font-family="Cambria Math,Cambria Math_MSFontService,sans-serif" font-weight="400" x="-4.57333" y="30">𝑈𝑝𝑑𝑎𝑡𝑒</tspan><tspan font-family="Cambria Math,Cambria Math_MSFontService,sans-serif" font-weight="400" x="74.2867" y="30"> </tspan><tspan font-family="Cambria Math,Cambria Math_MSFontService,sans-serif" font-weight="400" x="79.62" y="30">𝑘</tspan><tspan font-family="Cambria Math,Cambria Math_MSFontService,sans-serif" font-weight="400" font-size="18" x="92.7867" y="35">𝑥</tspan><tspan font-family="Cambria Math,Cambria Math_MSFontService,sans-serif" font-weight="400" x="104.58" y="30">,</tspan><tspan font-family="Cambria Math,Cambria Math_MSFontService,sans-serif" font-weight="400" x="113.58" y="30">𝑘</tspan><tspan font-family="Cambria Math,Cambria Math_MSFontService,sans-serif" font-weight="400" font-size="18" x="126.747" y="35">𝑦</tspan><tspan font-family="Cambria Math,Cambria Math_MSFontService,sans-serif" font-weight="400" x="10.6534" y="61">𝑈𝑝𝑑𝑎𝑡𝑒</tspan><tspan font-family="Cambria Math,Cambria Math_MSFontService,sans-serif" font-weight="400" x="89.5134" y="61"> </tspan><tspan font-family="Cambria Math,Cambria Math_MSFontService,sans-serif" font-weight="400" x="94.8467" y="61">𝑘</tspan><tspan font-family="Cambria Math,Cambria Math_MSFontService,sans-serif" font-weight="400" font-size="18" x="106.567" y="66">𝑓</tspan><tspan font-family="Cambria Math,Cambria Math_MSFontService,sans-serif" font-weight="400" x="4.86667" y="92">𝑆𝑡𝑜𝑟𝑒</tspan><tspan font-family="Cambria Math,Cambria Math_MSFontService,sans-serif" font-weight="400" x="63.56" y="92"> </tspan><tspan font-family="Cambria Math,Cambria Math_MSFontService,sans-serif" font-weight="400" x="68.8934" y="92">𝑘</tspan><tspan font-family="Cambria Math,Cambria Math_MSFontService,sans-serif" font-weight="400" font-size="18" x="82.06" y="97">𝑑𝑎𝑡𝑎</tspan></text><path d="M660.5 789.5C660.5 735.376 704.152 691.5 758 691.5 811.848 691.5 855.5 735.376 855.5 789.5 855.5 843.624 811.848 887.5 758 887.5 704.152 887.5 660.5 843.624 660.5 789.5Z" stroke="#000000" stroke-linejoin="round" stroke-miterlimit="10" fill="none" fill-rule="evenodd"/><text font-family="Calibri,Calibri_MSFontService,sans-serif" font-weight="700" font-size="24" transform="translate(704.772 767)">PW_CONV<tspan font-family="Cambria Math,Cambria Math_MSFontService,sans-serif" font-weight="400" x="6.27997" y="30">𝑡</tspan><tspan font-family="Cambria Math,Cambria Math_MSFontService,sans-serif" font-weight="400" font-size="18" x="15.4266" y="35">𝑜</tspan><tspan font-family="Cambria Math,Cambria Math_MSFontService,sans-serif" font-weight="400" font-size="18" x="25.7599" y="35">𝑓</tspan><tspan font-family="Cambria Math,Cambria Math_MSFontService,sans-serif" font-weight="400" x="43.0533" y="30">+</tspan><tspan font-family="Cambria Math,Cambria Math_MSFontService,sans-serif" font-weight="400" x="61.0533" y="30">=</tspan><tspan font-family="Cambria Math,Cambria Math_MSFontService,sans-serif" font-weight="400" x="85.72" y="30">1</tspan><tspan font-family="Cambria Math,Cambria Math_MSFontService,sans-serif" font-weight="400" x="-16.5" y="60">𝑈𝑝𝑑𝑎𝑡𝑒</tspan><tspan font-family="Cambria Math,Cambria Math_MSFontService,sans-serif" font-weight="400" x="62.36" y="60"> </tspan><tspan font-family="Cambria Math,Cambria Math_MSFontService,sans-serif" font-weight="400" x="67.6933" y="60">𝑤</tspan><tspan font-family="Cambria Math,Cambria Math_MSFontService,sans-serif" font-weight="400" font-size="18" x="84.56" y="65">𝑑𝑎𝑡𝑎</tspan></text><path d="M279.5 789.5C279.5 735.376 323.376 691.5 377.5 691.5 431.624 691.5 475.5 735.376 475.5 789.5 475.5 843.624 431.624 887.5 377.5 887.5 323.376 887.5 279.5 843.624 279.5 789.5Z" stroke="#000000" stroke-linejoin="round" stroke-miterlimit="10" fill="none" fill-rule="evenodd"/><text font-family="Calibri,Calibri_MSFontService,sans-serif" font-weight="700" font-size="24" transform="translate(344.423 768)">WRITE<tspan font-family="Cambria Math,Cambria Math_MSFontService,sans-serif" font-weight="400" x="-3.47998" y="29">𝑛</tspan><tspan font-family="Cambria Math,Cambria Math_MSFontService,sans-serif" font-weight="400" x="10.3533" y="29">𝑝</tspan><tspan font-family="Cambria Math,Cambria Math_MSFontService,sans-serif" font-weight="400" x="30.6467" y="29">=</tspan><tspan font-family="Cambria Math,Cambria Math_MSFontService,sans-serif" font-weight="400" x="55.3134" y="29">1</tspan><tspan font-family="Cambria Math,Cambria Math_MSFontService,sans-serif" font-weight="400" x="-34.24" y="58">𝑊𝑟𝑖𝑡𝑒</tspan><tspan font-family="Cambria Math,Cambria Math_MSFontService,sans-serif" font-weight="400" x="29.4533" y="58"> </tspan><tspan font-family="Cambria Math,Cambria Math_MSFontService,sans-serif" font-weight="400" x="34.7867" y="58">𝑤</tspan><tspan font-family="Cambria Math,Cambria Math_MSFontService,sans-serif" font-weight="400" font-size="18" x="51.6534" y="63">𝑑𝑎𝑡𝑎</tspan></text><path d="M0.984727-1.74078 173.443 95.8158 171.474 99.2974-0.984727 1.74078ZM173.672 91.3495 181.162 102.48 167.763 101.794Z" transform="matrix(-1 -8.74228e-08 -8.74228e-08 1 1403.16 687)"/><path d="M215 173 458.269 173 458.269 177 215 177ZM456.269 169 468.269 175 456.269 181Z"/><path d="M0.113597-1.49569 5.17337-1.11141 10.2611 0.127908 15.312 2.07058 20.1541 4.65304 24.8565 7.87383 29.278 11.7186 33.486 15.9904 37.4444 20.7149 41.0121 25.8753 44.3232 31.4151 47.1215 37.2661 49.6023 43.309 51.5133 49.6155 52.9774 56.0444 53.8701 62.6127 54.1892 69.25 53.8704 75.881 53.0414 82.3854 51.5758 88.8851 49.6687 95.1149 47.3149 101.222 44.5147 107.014 41.335 112.546 37.8302 117.708 34.0053 122.425 29.9153 126.771 25.5507 130.558 20.9822 133.775 16.2663 136.359 11.3572 138.323 9.05855 138.75 8.51025 135.801 10.6633 135.4 10.3804 135.482 15.0679 133.607 14.9042 133.685 19.4667 131.185 19.3238 131.274 23.7613 128.149 23.642 128.242 27.892 124.555 27.7827 124.659 31.7827 120.409 31.7099 120.493 35.4599 115.868 35.384 115.97 38.8215 110.907 38.762 111.003 41.887 105.565 41.8371 105.66 44.5871 99.972 44.5379 100.086 46.8504 94.0856 46.8157 94.1859 48.6907 88.0609 48.6617 88.17 50.0992 81.795 50.0745 81.9353 50.887 75.5603 50.8767 75.678 51.1892 69.178 51.1892 69.322 50.8767 62.822 50.8887 62.952 50.0137 56.5145 50.0374 56.6456 48.5999 50.3331 48.627 50.435 46.752 44.2475 46.7999 44.3822 44.3624 38.4447 44.3968 38.5222 41.6468 32.7722 41.7125 32.8946 38.4625 27.4571 38.5162 27.5405 35.0162 22.478 35.1002 22.5883 31.2252 17.9633 31.3064 18.0527 27.1814 13.8652 27.2657 13.9444 22.9532 10.1944 23.0899 10.3 18.5274 7.17505 18.6691 7.26103 13.9816 4.76103 14.149 4.83752 9.27403 2.96252 9.4575 3.01989 4.5825 1.83239 4.8239 1.87069-0.113597 1.49569ZM10.9636 141.488 1.375 138.437 9.56894 132.597Z" fill="#70AD47" transform="matrix(-4.37114e-08 -1 -1 4.37114e-08 635.886 106.833)"/><text fill="#70AD47" font-family="Cambria Math,Cambria Math_MSFontService,sans-serif" font-weight="400" font-size="29" transform="translate(367.24 39)">𝑘<tspan font-size="21" x="16.3333" y="6">𝑥</tspan><tspan x="38.98" y="0">&lt;</tspan><tspan x="69.1667" y="0">𝑁</tspan><tspan font-size="21" x="88.22" y="6">𝑘𝑥</tspan><tspan font-size="21" x="114.46" y="6"> </tspan><tspan x="120.347" y="0">⋁</tspan><tspan x="144.107" y="0"> </tspan><tspan x="150.607" y="0">𝑘</tspan><tspan font-size="21" x="166.94" y="6">𝑦</tspan><tspan x="186.447" y="0">&lt;</tspan><tspan x="216.633" y="0">𝑁</tspan><tspan font-size="21" x="235.687" y="6">𝑘𝑦</tspan><tspan font-size="21" x="262.88" y="6"> </tspan><tspan x="268.767" y="0">⋁</tspan><tspan x="292.527" y="0"> </tspan>𝑘<tspan font-size="21" x="313.58" y="6">𝑓</tspan><tspan x="332.3" y="0">&lt;</tspan><tspan x="362.487" y="0">𝑁</tspan><tspan font-size="21" x="381.54" y="6">𝑝𝑎𝑟</tspan></text><path d="M0.00749131-1.99999 272.089-0.980854 272.074 3.01912-0.00749131 1.99999ZM270.104-4.98832 282.082 1.05659 270.059 7.0116Z" transform="matrix(1 0 0 -1 664 175.057)"/><text font-family="Cambria Math,Cambria Math_MSFontService,sans-serif" font-weight="400" font-size="29" transform="translate(689.577 218)">𝒌<tspan font-size="21" x="18" y="6">𝒙</tspan><tspan x="39.74" y="0">=</tspan>=<tspan x="91.9267" y="0">𝑵</tspan><tspan font-size="21" x="114.26" y="6">𝒌𝒙</tspan><tspan font-size="21" x="139.76" y="6"> </tspan><tspan x="145.647" y="0">⋀</tspan><tspan x="0" y="35"> </tspan>𝒌<tspan font-size="21" x="24.5" y="41">𝒚</tspan><tspan x="38.5533" y="35">=</tspan>=<tspan x="90.74" y="35">𝑵</tspan><tspan font-size="21" x="113.073" y="41">𝒌𝒚</tspan><tspan font-size="21" x="139.073" y="41"> </tspan><tspan x="144.96" y="35">⋀</tspan><tspan x="13.1733" y="73"> </tspan>𝒌<tspan font-size="21" x="37.6733" y="79">𝒇</tspan><tspan x="51.06" y="73">=</tspan>=<tspan x="103.247" y="73">𝑵</tspan><tspan font-size="21" x="125.58" y="79">𝒌𝒇</tspan><tspan x="-465.042" y="-127">𝑘</tspan><tspan font-size="21" x="-448.709" y="-121">𝑥</tspan><tspan x="-426.062" y="-127">=</tspan><tspan x="-395.876" y="-127">1</tspan>;<tspan x="-366.796" y="-127">𝑡</tspan><tspan font-size="21" x="-355.562" y="-121">𝑜𝑥</tspan><tspan x="-320.249" y="-127">=</tspan><tspan x="-290.062" y="-127">1</tspan><tspan x="-465.042" y="-92">𝑘</tspan><tspan font-size="21" x="-448.709" y="-86">𝑦</tspan><tspan x="-425.109" y="-92">=</tspan><tspan x="-394.922" y="-92">1</tspan>;<tspan x="-365.842" y="-92">𝑡</tspan><tspan font-size="21" x="-354.609" y="-86">𝑜</tspan><tspan font-size="21" x="-341.942" y="-86">𝑦</tspan><tspan x="-318.342" y="-92">=</tspan><tspan x="-288.156" y="-92">1</tspan><tspan x="-410.376" y="-54">𝑘</tspan><tspan font-size="21" x="-395.822" y="-48">𝑓</tspan><tspan x="-373.009" y="-54">=</tspan><tspan x="-342.822" y="-54">1</tspan><tspan x="-14.6337" y="-102">𝑖𝑛𝑡</tspan><tspan font-size="21" x="22.7662" y="-96">𝑥</tspan><tspan x="45.4129" y="-102">=</tspan><tspan x="75.5996" y="-102">0</tspan><tspan x="91.9329" y="-102">;</tspan><tspan x="102.22" y="-102"> </tspan><tspan x="111.18" y="-102">𝑖𝑛𝑡</tspan><tspan font-size="21" x="148.58" y="-96">𝑦</tspan><tspan x="172.18" y="-102">=</tspan><tspan x="202.366" y="-102">0</tspan><tspan x="50.3996" y="-64"> </tspan>𝑖𝑛𝑡<tspan font-size="21" x="92.5196" y="-58">𝑓</tspan><tspan x="107.146" y="-64">=</tspan><tspan x="137.333" y="-64">0</tspan><tspan fill="#ED7D31" x="170.749" y="-185">𝑖𝑛𝑡</tspan><tspan fill="#ED7D31" font-size="21" x="208.149" y="-179">𝑥</tspan><tspan fill="#ED7D31" x="230.796" y="-185">&lt;</tspan><tspan fill="#ED7D31" x="260.982" y="-185">𝑁</tspan><tspan fill="#ED7D31" font-size="21" x="280.036" y="-179">𝑘𝑥</tspan><tspan fill="#ED7D31" font-size="21" x="306.276" y="-179"> </tspan><tspan fill="#ED7D31" x="312.162" y="-185">⋁</tspan><tspan fill="#ED7D31" x="335.922" y="-185"> </tspan><tspan fill="#ED7D31" x="342.422" y="-185">𝑖𝑛𝑡</tspan><tspan fill="#ED7D31" font-size="21" x="379.822" y="-179">𝑦</tspan><tspan fill="#ED7D31" x="399.329" y="-185">&lt;</tspan><tspan fill="#ED7D31" x="429.516" y="-185">𝑁</tspan><tspan fill="#ED7D31" font-size="21" x="448.569" y="-179">𝑘𝑦</tspan><tspan fill="#ED7D31" font-size="21" x="475.762" y="-179"> </tspan><tspan fill="#ED7D31" x="481.649" y="-185">⋁</tspan><tspan fill="#ED7D31" x="505.409" y="-185"> </tspan><tspan fill="#ED7D31" x="511.909" y="-185">𝑖𝑛𝑡</tspan><tspan fill="#ED7D31" font-size="21" x="547.529" y="-179">𝑓</tspan><tspan fill="#ED7D31" x="566.249" y="-185">&lt;</tspan><tspan fill="#ED7D31" x="596.436" y="-185">𝑁</tspan><tspan fill="#ED7D31" font-size="21" x="615.489" y="-179">𝑝𝑎𝑟</tspan></text><path d="M0.113597-1.49569 5.17337-1.11141 10.2611 0.127908 15.312 2.07058 20.1541 4.65304 24.8565 7.87383 29.278 11.7186 33.486 15.9904 37.4444 20.7149 41.0121 25.8753 44.3232 31.4151 47.1215 37.2661 49.6023 43.309 51.5133 49.6155 52.9774 56.0444 53.8701 62.6127 54.1892 69.25 53.8704 75.881 53.0414 82.3854 51.5758 88.8851 49.6687 95.1149 47.3149 101.222 44.5147 107.014 41.335 112.546 37.8302 117.708 34.0053 122.425 29.9153 126.771 25.5507 130.558 20.9822 133.775 16.2663 136.359 11.3572 138.323 9.05855 138.75 8.51025 135.801 10.6633 135.4 10.3804 135.482 15.0679 133.607 14.9042 133.685 19.4667 131.185 19.3238 131.274 23.7613 128.149 23.642 128.242 27.892 124.555 27.7827 124.659 31.7827 120.409 31.7099 120.493 35.4599 115.868 35.384 115.97 38.8215 110.907 38.762 111.003 41.887 105.565 41.8371 105.66 44.5871 99.972 44.5379 100.086 46.8504 94.0856 46.8157 94.1859 48.6907 88.0609 48.6617 88.17 50.0992 81.795 50.0745 81.9353 50.887 75.5603 50.8767 75.678 51.1892 69.178 51.1892 69.322 50.8767 62.822 50.8887 62.952 50.0137 56.5145 50.0374 56.6456 48.5999 50.3331 48.627 50.435 46.752 44.2475 46.7999 44.3822 44.3624 38.4447 44.3968 38.5222 41.6468 32.7722 41.7125 32.8946 38.4625 27.4571 38.5162 27.5405 35.0162 22.478 35.1002 22.5883 31.2252 17.9633 31.3064 18.0527 27.1814 13.8652 27.2657 13.9444 22.9532 10.1944 23.0899 10.3 18.5274 7.17505 18.6691 7.26103 13.9816 4.76103 14.149 4.83752 9.27403 2.96252 9.4575 3.01989 4.5825 1.83239 4.8239 1.87069-0.113597 1.49569ZM10.9636 141.488 1.375 138.437 9.56894 132.597Z" fill="#ED7D31" transform="matrix(-4.37114e-08 -1 -1 4.37114e-08 1113.89 105.833)"/><path d="M1142.46 172.054 1325.33 215.427 1324.41 219.319 1141.54 175.946ZM1324.31 211.074 1334.6 219.681 1321.54 222.75Z"/><path d="M1405 387 1405.01 481.146 1401.01 481.147 1401 387ZM1409.01 479.146 1403.01 491.146 1397.01 479.147Z"/><text font-family="Cambria Math,Cambria Math_MSFontService,sans-serif" font-weight="400" font-size="29" transform="translate(1175.07 107)">𝒊𝒏𝒕<tspan font-size="21" x="42.3333" y="6">𝒙</tspan><tspan x="64.0732" y="0">=</tspan>=<tspan x="116.26" y="0">𝑵</tspan><tspan font-size="21" x="138.593" y="6">𝒌𝒙</tspan><tspan font-size="21" x="164.093" y="6"> </tspan><tspan x="169.98" y="0">⋀</tspan><tspan x="0" y="35"> </tspan>𝒊𝒏𝒕<tspan font-size="21" x="48.8333" y="41">𝒚</tspan><tspan x="62.8866" y="35">=</tspan>=<tspan x="115.073" y="35">𝑵</tspan><tspan font-size="21" x="137.407" y="41">𝒌𝒚</tspan><tspan font-size="21" x="163.407" y="41"> </tspan><tspan x="169.293" y="35">⋀</tspan><tspan x="13.1733" y="73"> </tspan>𝒊𝒏𝒕<tspan font-size="21" x="62.0066" y="79">𝒇</tspan><tspan x="75.3933" y="73">=</tspan>=<tspan x="127.58" y="73">𝑵</tspan><tspan font-size="21" x="149.913" y="79">𝒌𝒇</tspan></text><path d="M1.22636e-06-2 161.217-1.9999 161.217 2.0001-1.22636e-06 2ZM159.217-5.9999 171.217 0.000104987 159.217 6.0001Z" transform="matrix(-1 -8.74228e-08 -8.74228e-08 1 1026.22 789)"/><path d="M1.13671e-06-2 174.721-1.9999 174.721 2.0001-1.13671e-06 2ZM172.721-5.9999 184.721 0.000104987 172.721 6.0001Z" transform="matrix(-1 -8.74228e-08 -8.74228e-08 1 659.721 789)"/><path d="M277.355 790.991 124.797 643.391 127.578 640.516 280.136 788.116ZM123.452 647.656 119 635 131.796 639.032Z" fill="#FF0000"/><path d="M375.001 691.283 375.504 677.278 376.955 663.212 379.288 649.272 382.566 635.341 386.663 621.538 391.639 607.932 397.367 594.461 403.853 581.176 411.151 568.152 419.074 555.324 427.691 542.808 436.935 530.609 446.866 518.728 457.296 507.231 468.293 496.045 479.857 485.298 491.856 475.058 504.357 465.195 517.238 455.896 530.556 447.102 544.252 438.809 558.263 431.143 572.587 424.044 587.169 417.57 602.063 411.788 617.086 406.634 632.368 402.232 647.774 398.585 663.306 395.692 678.909 393.553 694.642 392.294 710.325 391.855 741.518 391.168 741.43 391.171 772.43 389.109 772.351 389.116 802.851 385.866 802.763 385.877 832.513 381.377 832.437 381.39 861.187 375.89 861.103 375.908 888.666 369.408 888.606 369.423 901.856 365.861 901.805 365.875 914.617 362.063 914.575 362.076 927.013 358.076 926.963 358.092 938.9 353.905 938.851 353.923 950.351 349.548 950.292 349.571 961.23 345.009 961.177 345.032 971.551 340.344 971.485 340.376 981.298 335.501 981.246 335.528 990.496 330.59 990.41 330.638 998.973 325.513 998.9 325.559 1006.77 320.372 1006.69 320.429 1013.94 315.116 1013.84 315.194 1020.28 309.819 1020.17 309.917 1025.86 304.417 1025.75 304.527 1030.69 298.964 1030.57 299.112 1034.63 293.55 1034.51 293.737 1037.76 288.05 1037.61 288.386 1040.12 281.17 1043.9 282.482 1041.33 289.873 1037.93 295.819 1033.75 301.549 1028.7 307.239 1022.9 312.843 1016.36 318.305 1009.02 323.685 1001.06 328.924 992.422 334.096 983.103 339.07 973.232 343.975 962.797 348.689 951.803 353.275 940.249 357.671 928.262 361.876 915.779 365.89 902.92 369.717 889.614 373.294 861.98 379.811 833.15 385.326 803.318 389.839 772.735 393.098 741.651 395.166 710.419 395.854 710.431 395.854 694.806 396.291 694.909 396.286 679.284 397.536 679.397 397.524 663.897 399.649 663.991 399.633 648.554 402.508 648.648 402.488 633.336 406.113 633.429 406.089 618.241 410.464 618.337 410.434 603.399 415.559 603.474 415.532 588.661 421.282 588.749 421.245 574.249 427.683 574.326 427.647 560.076 434.709 560.147 434.672 546.21 442.297 546.286 442.253 532.661 450.503 532.727 450.461 519.477 459.211 519.546 459.164 506.733 468.414 506.801 468.362 494.364 478.175 494.423 478.126 482.486 488.313 482.549 488.257 471.049 498.945 471.114 498.882 460.176 510.007 460.231 509.948 449.856 521.386 449.909 521.325 440.034 533.137 440.094 533.062 430.907 545.187 430.96 545.114 422.397 557.551 422.452 557.468 414.577 570.218 414.62 570.145 407.37 583.082 407.422 582.982 400.985 596.169 401.028 596.075 395.341 609.45 395.378 609.354 390.441 622.854 390.48 622.736 386.417 636.424 386.447 636.313 383.197 650.125 383.223 649.997 380.91 663.81 380.927 663.685 379.489 677.622 379.499 677.489 378.999 691.426ZM1035.75 282.749 1043.75 271.98 1047.56 284.842Z" fill="#4472C4"/><path d="M378.968 886.854 379.531 889.541 379.32 889.03 381.07 891.717 380.837 891.44 383.712 894.128 383.524 893.978 387.524 896.666 387.385 896.583 392.385 899.208 392.289 899.162 398.289 901.787 398.203 901.752 405.203 904.315 405.148 904.296 413.086 906.858 413.034 906.843 421.847 909.343 421.806 909.332 431.431 911.769 431.402 911.762 441.902 914.2 441.863 914.191 453.175 916.504 453.159 916.5 465.159 918.813 465.129 918.807 477.879 920.995 477.866 920.993 491.304 923.18 491.28 923.177 505.343 925.239 505.322 925.236 519.947 927.174 519.934 927.172 535.121 929.047 535.109 929.046 550.859 930.858 550.842 930.856 567.092 932.544 567.083 932.543 583.708 934.168 583.688 934.166 600.813 935.604 600.799 935.602 635.987 938.227 635.962 938.226 672.4 940.351 672.373 940.35 709.748 941.85 709.727 941.849 747.602 942.849 747.575 942.848 785.825 943.161 785.793 943.161 824.043 942.661 824.006 942.662 861.881 941.224 861.845 941.226 899.22 938.914 899.184 938.916 935.559 935.791 935.521 935.795 970.771 931.858 970.747 931.86 987.809 929.673 987.789 929.676 1004.48 927.301 1004.45 927.304 1020.64 924.742 1020.62 924.745 1036.37 922.057 1036.35 922.061 1051.54 919.248 1051.51 919.254 1066.2 916.254 1066.18 916.258 1080.24 913.195 1080.21 913.203 1093.58 909.953 1093.56 909.959 1106.31 906.647 1106.28 906.654 1118.28 903.279 1118.24 903.293 1129.55 899.73 1129.52 899.74 1140.02 896.178 1139.97 896.196 1149.65 892.509 1149.6 892.531 1158.41 888.781 1158.34 888.815 1166.21 884.94 1166.15 884.974 1173.15 881.099 1173.06 881.151 1179.06 877.276 1178.94 877.365 1183.94 873.365 1183.81 873.475 1187.81 869.475 1187.59 869.764 1190.53 864.858 1193.11 866.403 1190.07 871.466 1185.88 875.655 1180.75 879.755 1174.65 883.698 1167.57 887.616 1159.63 891.525 1150.75 895.302 1141.01 899.01 1130.47 902.587 1119.12 906.161 1107.08 909.546 1094.3 912.866 1080.9 916.123 1066.81 919.191 1052.1 922.196 1036.89 925.013 1021.12 927.703 1004.91 930.269 988.201 932.647 971.116 934.838 935.835 938.779 899.423 941.907 862.012 944.222 824.101 945.66 785.816 946.161 747.537 945.848 709.638 944.848 672.239 943.347 635.776 941.22 600.569 938.594 583.427 937.155 566.787 935.528 550.524 933.839 534.76 932.025 519.56 930.149 504.918 928.209 490.833 926.143 477.378 923.953 464.606 921.762 452.583 919.445 441.243 917.126 430.709 914.681 421.049 912.235 412.19 909.722 404.199 907.142 397.129 904.554 391.038 901.889 385.918 899.201 381.751 896.401 378.655 893.507 376.652 890.431 376.032 887.468ZM1187.08 865.716 1194.06 858.473 1195.67 868.407Z"/><path d="M0.0945485-1.49702 6.13585-1.11546 12.1315 0.109465 18.0989 2.03441 23.8676 4.5983 29.4403 7.801 34.7346 11.6282 39.8303 15.8958 44.4851 20.6144 48.8121 25.7686 52.7636 31.3135 56.1391 37.1729 59.0681 43.2218 61.4304 49.5427 63.1555 55.9959 64.2429 62.5842 64.6275 69.25 64.2433 75.9098 63.2199 82.434 61.4946 88.9515 59.1982 95.203 56.3325 101.317 53.0209 107.112 49.1976 112.656 44.9298 117.815 40.348 122.524 35.4368 126.861 30.195 130.633 24.755 133.833 19.1093 136.399 13.2397 138.334 9.08117 139.054 8.56953 136.098 12.6192 135.397 12.4054 135.45 18.0929 133.575 17.9418 133.634 23.4418 131.134 23.302 131.207 28.6145 128.082 28.4989 128.157 33.6239 124.47 33.5071 124.563 38.3196 120.313 38.2374 120.391 42.7374 115.766 42.6567 115.856 46.8442 110.794 46.7652 110.898 50.5152 105.461 50.4476 105.568 53.6976 99.8808 53.6418 99.9883 56.4543 93.9883 56.4045 94.1078 58.6545 87.9828 58.6124 88.1162 60.2999 81.7412 60.2681 81.8925 61.2681 75.5175 61.2525 75.6636 61.6275 69.1636 61.6275 69.3364 61.2525 62.8364 61.27 62.9943 60.2075 56.5568 60.2384 56.6999 58.5509 50.3874 58.5949 50.5251 56.2824 44.3376 56.3374 44.4662 53.4624 38.5287 53.5128 38.6238 50.2003 32.8738 50.2785 32.9955 46.4035 27.558 46.4762 27.652 42.2262 22.5895 42.3071 22.6784 37.7446 18.0534 37.8494 18.15 32.8494 13.9625 32.9337 14.0281 27.7462 10.2781 27.8776 10.363 22.4401 7.23802 22.5783 7.30822 16.9533 4.80822 17.102 4.86506 11.2895 2.99006 11.4497 3.03214 5.63725 1.84464 5.84295 1.87202-0.0945485 1.49702ZM10.8324 141.874 1.375 138.437 9.79848 132.933Z" fill="#A5A5A5" transform="matrix(-4.37114e-08 -1 -1 4.37114e-08 1194.89 720.833)"/><text fill="#FF0000" font-family="Cambria Math,Cambria Math_MSFontService,sans-serif" font-weight="400" font-size="29" transform="translate(209.635 605)">𝒕<tspan font-size="21" x="12.3333" y="6">𝒐</tspan><tspan font-size="21" x="24.6667" y="6">𝒙</tspan><tspan x="46.4067" y="0">=</tspan>=<tspan x="98.5933" y="0">𝑻</tspan><tspan font-size="21" x="116.927" y="6">𝒐𝒙</tspan><tspan font-size="21" x="141.593" y="6"> </tspan><tspan x="147.48" y="0">⋀</tspan><tspan x="0" y="35"> </tspan>𝒕<tspan font-size="21" x="18.8333" y="41">𝒐</tspan><tspan font-size="21" x="31.1667" y="41">𝒚</tspan><tspan x="45.22" y="35">=</tspan>=<tspan x="97.4067" y="35">𝑻</tspan><tspan font-size="21" x="115.74" y="41">𝒐𝒚</tspan><tspan font-size="21" x="140.907" y="41"> </tspan><tspan x="146.793" y="35">⋀</tspan><tspan x="11.18" y="73"> </tspan>𝒕<tspan font-size="21" x="30.0133" y="79">𝒐</tspan><tspan font-size="21" x="42.3467" y="79">𝒇</tspan><tspan x="55.7333" y="73">=</tspan>=<tspan x="107.92" y="73">𝑵</tspan><tspan font-size="21" x="130.253" y="79">𝒐𝒇</tspan><tspan fill="#000000" font-size="32" x="508.814" y="380"> </tspan><tspan fill="#000000" font-size="32" x="515.814" y="380">𝒕</tspan><tspan fill="#000000" font-size="23" x="529.314" y="386">𝒐</tspan><tspan fill="#000000" font-size="23" x="542.814" y="386">𝒇</tspan><tspan fill="#000000" font-size="32" x="557.307" y="380">&lt;</tspan><tspan fill="#000000" font-size="32" x="590.194" y="380">𝑵</tspan><tspan fill="#000000" font-size="23" x="614.527" y="386">𝒐𝒇</tspan><tspan fill="#4472C4" x="390.766" y="-147">(</tspan><tspan fill="#4472C4" x="402.933" y="-147">𝒕</tspan><tspan fill="#4472C4" font-size="21" x="415.266" y="-141">𝒐</tspan><tspan fill="#4472C4" font-size="21" x="427.599" y="-141">𝒙</tspan><tspan fill="#4472C4" x="449.339" y="-147">&lt;</tspan><tspan fill="#4472C4" x="479.526" y="-147">𝑻</tspan><tspan fill="#4472C4" font-size="21" x="497.859" y="-141">𝒐𝒙</tspan><tspan fill="#4472C4" font-size="21" x="522.526" y="-141"> </tspan><tspan fill="#4472C4" x="528.413" y="-147">⋁</tspan><tspan fill="#4472C4" x="552.173" y="-147"> </tspan><tspan fill="#4472C4" x="558.673" y="-147">𝒕</tspan><tspan fill="#4472C4" font-size="21" x="571.006" y="-141">𝒐</tspan><tspan fill="#4472C4" font-size="21" x="583.339" y="-141">𝒚</tspan><tspan fill="#4472C4" x="601.486" y="-147">&lt;</tspan><tspan fill="#4472C4" x="631.673" y="-147">𝑻</tspan><tspan fill="#4472C4" font-size="21" x="650.006" y="-141">𝒐𝒚</tspan><tspan fill="#4472C4" font-size="21" x="675.173" y="-141"> </tspan><tspan fill="#4472C4" x="681.059" y="-147">)</tspan><tspan fill="#4472C4" x="693.226" y="-147"> </tspan><tspan fill="#4472C4" x="699.726" y="-147">⋀</tspan><tspan fill="#4472C4" x="482.679" y="-108"> </tspan><tspan fill="#4472C4" x="489.179" y="-108">𝒕</tspan><tspan fill="#4472C4" font-size="21" x="501.513" y="-102">𝒐</tspan><tspan fill="#4472C4" font-size="21" x="513.846" y="-102">𝒇</tspan><tspan fill="#4472C4" x="527.233" y="-108">=</tspan><tspan fill="#4472C4" x="549.233" y="-108">=</tspan><tspan fill="#4472C4" x="579.419" y="-108">𝑵</tspan><tspan fill="#4472C4" font-size="21" x="601.753" y="-102">𝒐𝒇</tspan><tspan fill="#4472C4" x="452.626" y="-70">𝑈𝑝𝑑𝑎𝑡𝑒</tspan><tspan fill="#4472C4" x="549.939" y="-70"> </tspan><tspan fill="#4472C4" x="556.439" y="-70">𝑡</tspan><tspan fill="#4472C4" font-size="21" x="567.673" y="-64">𝑜𝑥</tspan><tspan fill="#4472C4" x="594.799" y="-70">,</tspan><tspan fill="#4472C4" x="605.713" y="-70">𝑡</tspan><tspan fill="#4472C4" font-size="21" x="616.946" y="-64">𝑜𝑦</tspan><tspan fill="#4472C4" x="645.026" y="-70">,</tspan><tspan fill="#4472C4" x="651.026" y="-70"> </tspan><tspan fill="#4472C4" x="438.413" y="-31">𝑖𝑛𝑡</tspan><tspan fill="#4472C4" font-size="21" x="475.813" y="-25">𝑥</tspan><tspan fill="#4472C4" x="498.459" y="-31">=</tspan><tspan fill="#4472C4" x="528.646" y="-31">0</tspan><tspan fill="#4472C4" x="544.979" y="-31">;</tspan><tspan fill="#4472C4" x="555.266" y="-31"> </tspan><tspan fill="#4472C4" x="564.226" y="-31">𝑖𝑛𝑡</tspan><tspan fill="#4472C4" font-size="21" x="601.626" y="-25">𝑦</tspan><tspan fill="#4472C4" x="625.226" y="-31">=</tspan><tspan fill="#4472C4" x="655.413" y="-31">0</tspan><tspan fill="#4472C4" x="503.446" y="7"> </tspan><tspan fill="#4472C4" x="509.946" y="7">𝑖𝑛𝑡</tspan><tspan fill="#4472C4" font-size="21" x="545.566" y="13">𝑓</tspan><tspan fill="#4472C4" x="560.193" y="7">=</tspan><tspan fill="#4472C4" x="590.379" y="7">0</tspan><tspan fill="#767171" font-size="32" x="845.948" y="35">𝒏𝒑</tspan><tspan fill="#767171" font-size="32" x="895.334" y="35">&lt;</tspan><tspan fill="#767171" font-size="32" x="928.221" y="35">𝑵</tspan><tspan fill="#767171" font-size="23" x="952.554" y="41">𝒏𝒑</tspan><tspan fill="#000000" font-size="32" x="656.288" y="162">𝒏𝒑</tspan><tspan fill="#000000" font-size="32" x="705.674" y="162">=</tspan><tspan fill="#000000" font-size="32" x="729.508" y="162">=</tspan><tspan fill="#000000" font-size="32" x="762.228" y="162">𝑵</tspan><tspan fill="#000000" font-size="23" x="786.561" y="169">𝒏𝒑</tspan><tspan fill="#000000" font-size="32" x="1111.79" y="158">𝑡</tspan><tspan fill="#000000" font-size="23" x="1123.99" y="164">𝑜</tspan><tspan fill="#000000" font-size="23" x="1137.82" y="164">𝑓</tspan><tspan fill="#000000" font-size="32" x="1162.66" y="158">=</tspan><tspan fill="#000000" font-size="32" x="1195.38" y="158">1</tspan><tspan fill="#000000" font-size="32" x="1114.5" y="200">𝑛</tspan><tspan fill="#000000" font-size="32" x="1132.84" y="200">𝑝</tspan><tspan fill="#000000" font-size="32" x="1159.95" y="200">=</tspan><tspan fill="#000000" font-size="32" x="1192.67" y="200">1</tspan><tspan fill="#000000" font-size="24" x="647.647" y="231">𝑤</tspan><tspan fill="#000000" font-size="18" x="664.514" y="235">𝑑𝑎𝑡𝑎</tspan><tspan fill="#000000" font-size="24" x="713.434" y="231">=</tspan><tspan fill="#000000" font-size="24" x="738.1" y="231">𝑓𝑚</tspan><tspan fill="#000000" font-size="24" x="771.847" y="231">𝑜</tspan><tspan fill="#000000" font-size="18" x="783.92" y="235">𝑑𝑎𝑡𝑎</tspan></text></g></svg>