<svg width="1339" height="665" xmlns="http://www.w3.org/2000/svg" xmlns:xlink="http://www.w3.org/1999/xlink" overflow="hidden"><defs><clipPath id="clip0"><path d="M5 4 1344 4 1344 669 5 669Z" fill-rule="evenodd" clip-rule="evenodd"/></clipPath></defs><g clip-path="url(#clip0)" transform="translate(-5 -4)"><path d="M18.5001 175.5C18.5001 121.376 62.1523 77.5001 116 77.5001 169.848 77.5001 213.5 121.376 213.5 175.5 213.5 229.624 169.848 273.5 116 273.5 62.1523 273.5 18.5001 229.624 18.5001 175.5Z" stroke="#000000" stroke-linejoin="round" stroke-miterlimit="10" fill="none" fill-rule="evenodd"/><text font-family="Calibri,Calibri_MSFontService,sans-serif" font-weight="700" font-size="27" transform="translate(91.4464 184)">IDLE</text><path d="M8.47757 61.6521 40.7101 96.9859 37.755 99.6816 5.52243 64.3479ZM42.3174 92.8125 45.972 105.722 33.452 100.9Z"/><path d="M18.5001 570.5C18.5001 516.376 62.1523 472.5 116 472.5 169.848 472.5 213.5 516.376 213.5 570.5 213.5 624.624 169.848 668.5 116 668.5 62.1523 668.5 18.5001 624.624 18.5001 570.5Z" stroke="#000000" stroke-linejoin="round" stroke-miterlimit="10" fill="none" fill-rule="evenodd"/><text font-family="Calibri,Calibri_MSFontService,sans-serif" font-weight="700" font-size="27" transform="translate(63.9199 563)">FINISHED<tspan font-family="Cambria Math,Cambria Math_MSFontService,sans-serif" font-weight="400" x="4.78666" y="32">𝑓</tspan><tspan font-family="Cambria Math,Cambria Math_MSFontService,sans-serif" font-weight="400" font-size="20" x="15.2867" y="38">𝑐11</tspan><tspan font-family="Cambria Math,Cambria Math_MSFontService,sans-serif" font-weight="400" x="56.3" y="32">=</tspan><tspan font-family="Cambria Math,Cambria Math_MSFontService,sans-serif" font-weight="400" x="83.7067" y="32">1</tspan><tspan font-family="Cambria Math,Cambria Math_MSFontService,sans-serif" font-weight="400" font-size="29" x="-6.31249" y="-503">𝑟𝑠𝑡</tspan></text><path d="M2-1.05275e-06 2.0001 189.453-1.9999 189.453-2 1.05275e-06ZM6.0001 187.453 0.000104987 199.453-5.9999 187.453Z" transform="matrix(1 0 0 -1 116 472.453)"/><path d="M0.0126491-0.333093 4.96297-0.145107 9.86997 0.421086 19.4728 2.68059 28.3908 6.07192 36.43 10.5312 39.9548 13.1119 43.2274 15.818 46.0002 18.7168 48.4602 21.7445 50.3577 24.8438 51.8146 28.0742 52.7041 31.3145 53.0222 34.6235 52.4549 41.1162 50.9433 47.4144 48.55 53.3347 45.4622 58.6281 41.8003 63.1108 37.674 66.5388 35.178 67.5697 34.9235 66.9535 37.3728 65.9419 37.287 65.9936 41.3495 62.6186 41.3044 62.6641 44.9294 58.2266 44.8996 58.2695 47.9621 53.0195 47.941 53.0626 50.316 47.1876 50.3009 47.2347 51.8009 40.9847 51.7929 41.0335 52.3554 34.596 52.3557 34.6569 52.0432 31.4069 52.0536 31.4632 51.1786 28.2757 51.1961 28.3245 49.7586 25.137 49.7782 25.1741 47.9032 22.1116 47.9288 22.1477 45.4913 19.1477 45.5091 19.1679 42.7591 16.2929 42.7876 16.3194 39.5376 13.6319 39.5531 13.644 36.0531 11.0815 36.0883 11.104 28.0883 6.66649 28.1315 6.68656 19.2565 3.31157 19.2987 3.32447 9.73615 1.07447 9.77429 1.08114 4.89929 0.518636 4.92485 0.520593-0.0126491 0.333093ZM37.5164 70.6818 28.6875 69.25 35.1303 63.046Z" transform="matrix(-4.37114e-08 -1 -1 4.37114e-08 185.693 106.161)"/><text font-family="Cambria Math,Cambria Math_MSFontService,sans-serif" font-weight="400" font-size="29" transform="translate(220.276 64)">𝑠<tspan font-size="21" x="12.9467" y="6">𝑐11</tspan></text><path d="M220.61 42.6832 245.61 42.6832 270.61 42.6832 270.61 44.6832 245.61 44.6832 220.61 44.6832Z" fill-rule="evenodd"/><path d="M840.5 175.5C840.5 121.376 884.376 77.5001 938.5 77.5001 992.624 77.5001 1036.5 121.376 1036.5 175.5 1036.5 229.624 992.624 273.5 938.5 273.5 884.376 273.5 840.5 229.624 840.5 175.5Z" stroke="#000000" stroke-linejoin="round" stroke-miterlimit="10" fill="none" fill-rule="evenodd"/><text font-family="Calibri,Calibri_MSFontService,sans-serif" font-weight="700" font-size="27" transform="translate(871.575 151)">LOAD_DATA<tspan font-family="Cambria Math,Cambria Math_MSFontService,sans-serif" font-weight="400" x="-2.98663" y="32">𝑈𝑝𝑑𝑎𝑡𝑒</tspan><tspan font-family="Cambria Math,Cambria Math_MSFontService,sans-serif" font-weight="400" x="84.7667" y="32"> </tspan><tspan font-family="Cambria Math,Cambria Math_MSFontService,sans-serif" font-weight="400" x="90.6" y="32">𝑟</tspan><tspan font-family="Cambria Math,Cambria Math_MSFontService,sans-serif" font-weight="400" font-size="20" x="100.34" y="37">𝑎𝑑𝑑𝑟</tspan><tspan font-family="Cambria Math,Cambria Math_MSFontService,sans-serif" font-weight="400" x="16.98" y="64">𝑡</tspan><tspan font-family="Cambria Math,Cambria Math_MSFontService,sans-serif" font-weight="400" font-size="20" x="27.0867" y="69">𝑖𝑓</tspan><tspan font-family="Cambria Math,Cambria Math_MSFontService,sans-serif" font-weight="400" x="53.14" y="64">+</tspan><tspan font-family="Cambria Math,Cambria Math_MSFontService,sans-serif" font-weight="400" x="73.14" y="64">=</tspan><tspan font-family="Cambria Math,Cambria Math_MSFontService,sans-serif" font-weight="400" x="100.547" y="64">1</tspan></text><path d="M576.5 570.5C576.5 516.376 620.152 472.5 674 472.5 727.848 472.5 771.5 516.376 771.5 570.5 771.5 624.624 727.848 668.5 674 668.5 620.152 668.5 576.5 624.624 576.5 570.5Z" stroke="#000000" stroke-linejoin="round" stroke-miterlimit="10" fill="none" fill-rule="evenodd"/><text font-family="Calibri,Calibri_MSFontService,sans-serif" font-weight="700" font-size="27" transform="translate(637.198 563)">WRITE<tspan font-family="Cambria Math,Cambria Math_MSFontService,sans-serif" font-weight="400" x="-32.9133" y="32">𝑈𝑝𝑑𝑎𝑡𝑒</tspan><tspan font-family="Cambria Math,Cambria Math_MSFontService,sans-serif" font-weight="400" x="54.84" y="32"> </tspan><tspan font-family="Cambria Math,Cambria Math_MSFontService,sans-serif" font-weight="400" x="60.6733" y="32">𝑤</tspan><tspan font-family="Cambria Math,Cambria Math_MSFontService,sans-serif" font-weight="400" font-size="20" x="79.4534" y="38">𝑎𝑑𝑑𝑟</tspan></text><path d="M1133.5 570.5C1133.5 516.376 1177.38 472.5 1231.5 472.5 1285.62 472.5 1329.5 516.376 1329.5 570.5 1329.5 624.624 1285.62 668.5 1231.5 668.5 1177.38 668.5 1133.5 624.624 1133.5 570.5Z" stroke="#000000" stroke-linejoin="round" stroke-miterlimit="10" fill="none" fill-rule="evenodd"/><text font-family="Calibri,Calibri_MSFontService,sans-serif" font-weight="700" font-size="27" transform="translate(1147.42 563)">COMPUTATION<tspan font-family="Cambria Math,Cambria Math_MSFontService,sans-serif" font-weight="400" x="35.0134" y="32">𝑔𝑟</tspan><tspan font-family="Cambria Math,Cambria Math_MSFontService,sans-serif" font-weight="400" x="70.5267" y="32">+</tspan><tspan font-family="Cambria Math,Cambria Math_MSFontService,sans-serif" font-weight="400" x="90.5267" y="32">=</tspan><tspan font-family="Cambria Math,Cambria Math_MSFontService,sans-serif" font-weight="400" x="117.933" y="32">1</tspan><tspan font-family="Cambria Math,Cambria Math_MSFontService,sans-serif" font-weight="400" font-size="29" x="-894.69" y="-355">𝑠</tspan><tspan font-family="Cambria Math,Cambria Math_MSFontService,sans-serif" font-weight="400" font-size="21" x="-881.743" y="-349">𝑐11</tspan></text><path d="M213 173 829.462 173 829.462 177 213 177ZM827.461 169 839.461 175 827.461 181Z"/><text font-family="Cambria Math,Cambria Math_MSFontService,sans-serif" font-weight="400" font-size="32" transform="translate(417.246 76)">𝑡<tspan font-size="23" x="12.2" y="6">𝑖𝑥</tspan><tspan x="45.04" y="0">=</tspan><tspan x="77.76" y="0">1</tspan><tspan x="95.4267" y="0">;</tspan><tspan x="109.26" y="0">𝑡</tspan><tspan font-size="23" x="121.46" y="6">𝑖𝑦</tspan><tspan x="155.24" y="0">=</tspan><tspan x="187.96" y="0">1</tspan><tspan x="205.627" y="0">;</tspan><tspan x="219.46" y="0">𝑡</tspan><tspan font-size="23" x="231.66" y="6">𝑖𝑓</tspan><tspan x="264.667" y="0">=</tspan><tspan x="297.387" y="0">1</tspan><tspan x="110.207" y="42">𝑔𝑟</tspan><tspan x="154.46" y="42">=</tspan><tspan x="187.18" y="42">1</tspan><tspan x="15.14" y="80">𝑟</tspan><tspan font-size="23" x="26.7933" y="86">𝑎𝑑𝑑𝑟</tspan><tspan x="94.7467" y="80">=</tspan><tspan x="127.467" y="80">0</tspan><tspan x="145.133" y="80">;</tspan><tspan x="158.967" y="80">𝑤</tspan><tspan font-size="23" x="181.573" y="86">𝑎𝑑𝑑𝑟</tspan><tspan x="249.527" y="80">=</tspan><tspan x="282.247" y="80">0</tspan></text><path d="M1230.04 473.407 1039.83 184.452 1043.17 182.253 1233.38 471.207ZM1037.59 188.322 1036 175 1047.61 181.724Z"/><path d="M1008.71 242.966 1158.71 491.181 1155.29 493.25 1005.29 245.034ZM1161.1 487.401 1162.18 500.774 1150.83 493.607Z"/><path d="M5.79786e-07-2 352.157-1.9999 352.157 2.0001-5.79786e-07 2ZM350.157-5.9999 362.157 0.000104987 350.157 6.0001Z" transform="matrix(-1 -8.74228e-08 -8.74228e-08 1 1133.16 570)"/><path d="M1.51988-1.29999 190.13 219.214 187.091 221.814-1.51988 1.29999ZM191.87 215.095 195.111 228.114 182.751 222.894Z" transform="matrix(1 0 0 -1 673 472.114)"/><path d="M5.79786e-07-2 352.157-1.9999 352.157 2.0001-5.79786e-07 2ZM350.157-5.9999 362.157 0.000104987 350.157 6.0001Z" transform="matrix(-1 -8.74228e-08 -8.74228e-08 1 575.157 570)"/><text font-family="Cambria Math,Cambria Math_MSFontService,sans-serif" font-weight="400" font-size="32" transform="translate(234.767 623)">𝑡<tspan font-size="23" x="12.2" y="6">𝑖𝑥</tspan><tspan x="45.04" y="0">=</tspan><tspan x="68.8733" y="0">=</tspan><tspan x="101.593" y="0">𝑇</tspan><tspan font-size="23" x="117.153" y="6">𝑖𝑥</tspan><tspan x="141.107" y="0"> </tspan>⋀<tspan x="173.88" y="0"> </tspan>𝑡<tspan font-size="23" x="193.08" y="6">𝑖𝑦</tspan><tspan x="222.42" y="0">=</tspan><tspan x="246.253" y="0">=</tspan><tspan x="278.973" y="0">𝑇</tspan><tspan font-size="23" x="294.533" y="6">𝑖𝑦</tspan><tspan x="260.33" y="-341">𝑡</tspan><tspan font-size="23" x="272.53" y="-335">𝑖𝑥</tspan><tspan x="305.37" y="-341">&lt;</tspan><tspan x="338.257" y="-341">𝑇</tspan><tspan font-size="23" x="353.817" y="-335">𝑖𝑥</tspan><tspan x="377.77" y="-341"> </tspan>⋁<tspan x="410.543" y="-341"> </tspan>𝑡<tspan font-size="23" x="429.743" y="-335">𝑖𝑦</tspan><tspan x="459.083" y="-341">&lt;</tspan><tspan x="491.97" y="-341">𝑇</tspan><tspan font-size="23" x="507.53" y="-335">𝑖𝑦</tspan><tspan x="349.057" y="-300">𝑔𝑟</tspan><tspan x="393.31" y="-300">=</tspan><tspan x="426.03" y="-300">0</tspan><tspan x="297.657" y="-261">𝑈𝑝𝑑𝑎𝑡𝑒</tspan><tspan x="403.023" y="-261"> </tspan>𝑡<tspan font-size="23" x="422.223" y="-255">𝑖𝑥</tspan><tspan x="446.177" y="-261">,</tspan><tspan x="458.01" y="-261">𝑡</tspan><tspan font-size="23" x="470.21" y="-255">𝑖𝑦</tspan><tspan x="304.837" y="-220">𝑈𝑝𝑑𝑎𝑡𝑒</tspan><tspan x="410.203" y="-220"> </tspan>𝑟<tspan font-size="23" x="428.857" y="-214">𝑎𝑑𝑑𝑟</tspan><tspan x="725.768" y="-10">𝑔𝑟</tspan><tspan x="770.021" y="-10">=</tspan><tspan x="793.855" y="-10">=</tspan><tspan x="826.575" y="-10">𝑁</tspan><tspan font-size="23" x="846.055" y="-4">𝑔𝑟</tspan><tspan x="947.639" y="-357">𝑔𝑟</tspan><tspan x="991.893" y="-357">&lt;</tspan><tspan x="1024.78" y="-357">𝑁</tspan><tspan font-size="23" x="1044.26" y="-350">𝑔𝑟</tspan><tspan x="963.106" y="-315">𝑡</tspan><tspan font-size="23" x="975.306" y="-308">𝑖𝑓</tspan><tspan x="1008.31" y="-315">=</tspan><tspan x="1041.03" y="-315">0</tspan><tspan x="922.653" y="-274">𝑈𝑝𝑑𝑎𝑡𝑒</tspan><tspan x="1028.02" y="-274"> </tspan>𝑟<tspan font-size="23" x="1046.67" y="-267">𝑎𝑑𝑑𝑟</tspan><tspan x="664.813" y="-256">𝑡</tspan><tspan font-size="23" x="677.013" y="-249">𝑖𝑓</tspan><tspan x="710.02" y="-256">=</tspan><tspan x="733.853" y="-256">=</tspan><tspan x="766.573" y="-256">𝑁</tspan><tspan font-size="23" x="787.42" y="-249">𝑝𝑎𝑟</tspan></text><path d="M0.151463-1.99426 5.25199-1.60687 10.4106-0.350289 15.5202 1.61494 20.4138 4.22489 25.1628 7.47761 29.6206 11.354 33.8563 15.6538 37.8425 20.4115 41.4328 25.6046 44.7643 31.1785 47.5787 37.0631 50.0739 43.1412 51.997 49.4873 53.4698 55.9551 54.3685 62.5669 54.6898 69.25 54.3689 75.9247 53.5344 82.4722 52.0594 89.0134 50.1417 95.2782 47.774 101.421 44.957 107.247 41.7592 112.812 38.2319 118.006 34.382 122.754 30.2621 127.132 25.8593 130.952 21.2472 134.2 16.4139 136.848 11.7682 138.314 10.5649 134.499 15.0234 133.093 14.6639 133.246 19.2264 130.746 19.0359 130.865 23.4734 127.74 23.3143 127.864 27.5643 124.177 27.4186 124.317 31.4186 120.067 31.3215 120.178 35.0715 115.553 34.9704 115.689 38.4079 110.626 38.3285 110.753 41.4535 105.316 41.3869 105.442 44.1369 99.7544 44.0713 99.9057 46.3838 93.9057 46.3376 94.0396 48.2126 87.9146 48.174 88.0601 49.6115 81.6851 49.5785 81.8721 50.391 75.4971 50.3773 75.654 50.6898 69.154 50.6898 69.346 50.3773 62.846 50.3932 63.0194 49.5182 56.5819 49.5499 56.7566 48.1124 50.4441 48.1484 50.58 46.2734 44.3925 46.3373 44.572 43.8998 38.6345 43.9457 38.7379 41.1957 32.9879 41.2833 33.1511 38.0333 27.7136 38.1049 27.8249 34.6049 22.7624 34.717 22.9094 30.842 18.2844 30.9502 18.4035 26.8252 14.216 26.9376 14.3217 22.6251 10.5717 22.8073 10.7126 18.2448 7.58756 18.4338 7.70221 13.7463 5.20221 13.9695 5.30419 9.09454 3.42919 9.33916 3.50568 4.46416 2.31818 4.78604 2.36926-0.151463 1.99426ZM14.3436 141.875 1.375 138.437 11.9061 130.125Z" transform="matrix(-4.37114e-08 -1 -1 4.37114e-08 1007.39 106.333)"/><text font-family="Cambria Math,Cambria Math_MSFontService,sans-serif" font-weight="400" font-size="32" transform="translate(881.07 39)">𝑡<tspan font-size="23" x="12.2" y="7">𝑖𝑓</tspan><tspan x="45.2067" y="0">&lt;</tspan><tspan x="78.0934" y="0">𝑁</tspan><tspan font-size="23" x="98.94" y="7">𝑝𝑎𝑟</tspan></text></g></svg>