<svg width="1339" height="665" xmlns="http://www.w3.org/2000/svg" xmlns:xlink="http://www.w3.org/1999/xlink" overflow="hidden"><defs><clipPath id="clip0"><path d="M5 99 1344 99 1344 764 5 764Z" fill-rule="evenodd" clip-rule="evenodd"/></clipPath></defs><g clip-path="url(#clip0)" transform="translate(-5 -99)"><path d="M18.5001 270C18.5001 216.152 62.1523 172.5 116 172.5 169.848 172.5 213.5 216.152 213.5 270 213.5 323.848 169.848 367.5 116 367.5 62.1523 367.5 18.5001 323.848 18.5001 270Z" stroke="#000000" stroke-linejoin="round" stroke-miterlimit="10" fill="none" fill-rule="evenodd"/><text font-family="Calibri,Calibri_MSFontService,sans-serif" font-weight="700" font-size="27" transform="translate(91.4465 279)">IDLE</text><path d="M8.47757 156.652 40.7101 191.986 37.755 194.682 5.52243 159.348ZM42.3174 187.813 45.972 200.722 33.452 195.9Z"/><path d="M18.5001 665.5C18.5001 611.376 62.1523 567.5 116 567.5 169.848 567.5 213.5 611.376 213.5 665.5 213.5 719.624 169.848 763.5 116 763.5 62.1523 763.5 18.5001 719.624 18.5001 665.5Z" stroke="#000000" stroke-linejoin="round" stroke-miterlimit="10" fill="none" fill-rule="evenodd"/><text font-family="Calibri,Calibri_MSFontService,sans-serif" font-weight="700" font-size="27" transform="translate(63.9201 658)">FINISHED<tspan font-family="Cambria Math,Cambria Math_MSFontService,sans-serif" font-weight="400" x="4.78667" y="32">𝑓</tspan><tspan font-family="Cambria Math,Cambria Math_MSFontService,sans-serif" font-weight="400" font-size="20" x="15.2867" y="37">𝑐11</tspan><tspan font-family="Cambria Math,Cambria Math_MSFontService,sans-serif" font-weight="400" x="56.3" y="32">=</tspan><tspan font-family="Cambria Math,Cambria Math_MSFontService,sans-serif" font-weight="400" x="83.7067" y="32">1</tspan><tspan font-family="Cambria Math,Cambria Math_MSFontService,sans-serif" font-weight="400" font-size="29" x="-6.3126" y="-503">𝑟𝑠𝑡</tspan></text><path d="M2-1.05275e-06 2.0001 189.453-1.9999 189.453-2 1.05275e-06ZM6.0001 187.453 0.000104987 199.453-5.9999 187.453Z" transform="matrix(1 0 0 -1 116 566.453)"/><path d="M0.0126491-0.333093 4.96297-0.145107 9.86997 0.421086 19.4728 2.68059 28.3908 6.07192 36.43 10.5312 39.9548 13.1119 43.2274 15.818 46.0002 18.7168 48.4602 21.7445 50.3577 24.8438 51.8146 28.0742 52.7041 31.3145 53.0222 34.6235 52.4549 41.1162 50.9433 47.4144 48.55 53.3347 45.4622 58.6281 41.8003 63.1108 37.674 66.5388 35.178 67.5697 34.9235 66.9535 37.3728 65.9419 37.287 65.9936 41.3495 62.6186 41.3044 62.6641 44.9294 58.2266 44.8996 58.2695 47.9621 53.0195 47.941 53.0626 50.316 47.1876 50.3009 47.2347 51.8009 40.9847 51.7929 41.0335 52.3554 34.596 52.3557 34.6569 52.0432 31.4069 52.0536 31.4632 51.1786 28.2757 51.1961 28.3245 49.7586 25.137 49.7782 25.1741 47.9032 22.1116 47.9288 22.1477 45.4913 19.1477 45.5091 19.1679 42.7591 16.2929 42.7876 16.3194 39.5376 13.6319 39.5531 13.644 36.0531 11.0815 36.0883 11.104 28.0883 6.66649 28.1315 6.68656 19.2565 3.31157 19.2987 3.32447 9.73615 1.07447 9.77429 1.08114 4.89929 0.518636 4.92485 0.520593-0.0126491 0.333093ZM37.5164 70.6818 28.6875 69.25 35.1303 63.046Z" transform="matrix(-4.37114e-08 -1 -1 4.37114e-08 185.693 201.161)"/><text font-family="Cambria Math,Cambria Math_MSFontService,sans-serif" font-weight="400" font-size="29" transform="translate(218.996 158)">𝒔<tspan font-size="21" x="14.8333" y="6">𝒄𝟏𝟏</tspan></text><path d="M218.61 137.183 245.11 137.183 271.61 137.183 271.61 139.183 245.11 139.183 218.61 139.183Z" fill-rule="evenodd"/><path d="M840.5 270C840.5 216.152 884.376 172.5 938.5 172.5 992.624 172.5 1036.5 216.152 1036.5 270 1036.5 323.848 992.624 367.5 938.5 367.5 884.376 367.5 840.5 323.848 840.5 270Z" stroke="#000000" stroke-linejoin="round" stroke-miterlimit="10" fill="none" fill-rule="evenodd"/><text font-family="Calibri,Calibri_MSFontService,sans-serif" font-weight="700" font-size="27" transform="translate(871.575 229)">LOAD_DATA<tspan font-family="Cambria Math,Cambria Math_MSFontService,sans-serif" font-weight="400" x="3.39331" y="32">𝑠𝑡𝑜𝑟𝑒</tspan><tspan font-family="Cambria Math,Cambria Math_MSFontService,sans-serif" font-weight="400" x="66.8134" y="32"> </tspan><tspan font-family="Cambria Math,Cambria Math_MSFontService,sans-serif" font-weight="400" x="72.6467" y="32">𝑑𝑎𝑡𝑎</tspan><tspan font-family="Cambria Math,Cambria Math_MSFontService,sans-serif" font-weight="400" x="-2.98669" y="64">𝑈𝑝𝑑𝑎𝑡𝑒</tspan><tspan font-family="Cambria Math,Cambria Math_MSFontService,sans-serif" font-weight="400" x="84.7667" y="64"> </tspan><tspan font-family="Cambria Math,Cambria Math_MSFontService,sans-serif" font-weight="400" x="90.6" y="64">𝑟</tspan><tspan font-family="Cambria Math,Cambria Math_MSFontService,sans-serif" font-weight="400" font-size="20" x="100.34" y="70">𝑎𝑑𝑑𝑟</tspan><tspan font-family="Cambria Math,Cambria Math_MSFontService,sans-serif" font-weight="400" x="16.98" y="96">𝑡</tspan><tspan font-family="Cambria Math,Cambria Math_MSFontService,sans-serif" font-weight="400" font-size="20" x="27.0867" y="102">𝑖𝑓</tspan><tspan font-family="Cambria Math,Cambria Math_MSFontService,sans-serif" font-weight="400" x="53.14" y="96">+</tspan><tspan font-family="Cambria Math,Cambria Math_MSFontService,sans-serif" font-weight="400" x="73.14" y="96">=</tspan><tspan font-family="Cambria Math,Cambria Math_MSFontService,sans-serif" font-weight="400" x="100.547" y="96">1</tspan></text><path d="M576.5 665.5C576.5 611.376 620.152 567.5 674 567.5 727.848 567.5 771.5 611.376 771.5 665.5 771.5 719.624 727.848 763.5 674 763.5 620.152 763.5 576.5 719.624 576.5 665.5Z" stroke="#000000" stroke-linejoin="round" stroke-miterlimit="10" fill="none" fill-rule="evenodd"/><text font-family="Calibri,Calibri_MSFontService,sans-serif" font-weight="700" font-size="27" transform="translate(637.198 642)">WRITE<tspan font-family="Cambria Math,Cambria Math_MSFontService,sans-serif" font-weight="400" x="-32.9133" y="32">𝑈𝑝𝑑𝑎𝑡𝑒</tspan><tspan font-family="Cambria Math,Cambria Math_MSFontService,sans-serif" font-weight="400" x="54.84" y="32"> </tspan><tspan font-family="Cambria Math,Cambria Math_MSFontService,sans-serif" font-weight="400" x="60.6733" y="32">𝑤</tspan><tspan font-family="Cambria Math,Cambria Math_MSFontService,sans-serif" font-weight="400" font-size="20" x="79.4533" y="37">𝑎𝑑𝑑𝑟</tspan><tspan font-family="Cambria Math,Cambria Math_MSFontService,sans-serif" font-weight="400" x="-32.0533" y="64">𝑤𝑟𝑖𝑡𝑒</tspan><tspan font-family="Cambria Math,Cambria Math_MSFontService,sans-serif" font-weight="400" x="33.0333" y="64"> </tspan><tspan font-family="Cambria Math,Cambria Math_MSFontService,sans-serif" font-weight="400" x="38.8666" y="64">𝑤</tspan><tspan font-family="Cambria Math,Cambria Math_MSFontService,sans-serif" font-weight="400" font-size="20" x="57.6467" y="69">𝑑𝑎𝑡𝑎</tspan></text><path d="M1133.5 665.5C1133.5 611.376 1177.38 567.5 1231.5 567.5 1285.62 567.5 1329.5 611.376 1329.5 665.5 1329.5 719.624 1285.62 763.5 1231.5 763.5 1177.38 763.5 1133.5 719.624 1133.5 665.5Z" stroke="#000000" stroke-linejoin="round" stroke-miterlimit="10" fill="none" fill-rule="evenodd"/><text font-family="Calibri,Calibri_MSFontService,sans-serif" font-weight="700" font-size="27" transform="translate(1147.42 642)">COMPUTATION<tspan font-family="Cambria Math,Cambria Math_MSFontService,sans-serif" font-weight="400" x="35.0133" y="32">𝑔𝑟</tspan><tspan font-family="Cambria Math,Cambria Math_MSFontService,sans-serif" font-weight="400" x="70.5267" y="32">+</tspan><tspan font-family="Cambria Math,Cambria Math_MSFontService,sans-serif" font-weight="400" x="90.5267" y="32">=</tspan><tspan font-family="Cambria Math,Cambria Math_MSFontService,sans-serif" font-weight="400" x="117.933" y="32">1</tspan><tspan font-family="Cambria Math,Cambria Math_MSFontService,sans-serif" font-weight="400" x="14.7267" y="64">𝑈𝑝𝑑𝑎𝑡𝑒</tspan><tspan font-family="Cambria Math,Cambria Math_MSFontService,sans-serif" font-weight="400" x="102.48" y="64"> </tspan><tspan font-family="Cambria Math,Cambria Math_MSFontService,sans-serif" font-weight="400" x="108.313" y="64">𝑤</tspan><tspan font-family="Cambria Math,Cambria Math_MSFontService,sans-serif" font-weight="400" font-size="20" x="127.093" y="69">𝑑𝑎𝑡𝑎</tspan><tspan font-family="Cambria Math,Cambria Math_MSFontService,sans-serif" font-weight="400" font-size="29" x="-895.97" y="-340">𝒔</tspan><tspan font-family="Cambria Math,Cambria Math_MSFontService,sans-serif" font-weight="400" font-size="21" x="-881.136" y="-334">𝒄𝟏𝟏</tspan></text><path d="M213 268 829.462 268 829.462 272 213 272ZM827.461 264 839.461 270 827.461 276Z"/><text font-family="Cambria Math,Cambria Math_MSFontService,sans-serif" font-weight="400" font-size="32" transform="translate(415.482 137)">𝑡<tspan font-size="23" x="12.2" y="7">𝑖𝑥</tspan><tspan x="45.04" y="0">=</tspan><tspan x="77.76" y="0">1</tspan><tspan x="95.4267" y="0">;</tspan><tspan x="109.26" y="0">𝑡</tspan><tspan font-size="23" x="121.46" y="7">𝑖𝑦</tspan><tspan x="155.24" y="0">=</tspan><tspan x="187.96" y="0">1</tspan><tspan x="205.627" y="0">;</tspan><tspan x="219.46" y="0">𝑡</tspan><tspan font-size="23" x="231.66" y="7">𝑖𝑓</tspan><tspan x="264.667" y="0">=</tspan><tspan x="297.387" y="0">1</tspan><tspan x="110.207" y="42">𝑔𝑟</tspan><tspan x="154.46" y="42">=</tspan><tspan x="187.18" y="42">1</tspan><tspan x="10.8933" y="81">𝑟</tspan><tspan font-size="23" x="22.5467" y="88">𝑎𝑑𝑑𝑟</tspan><tspan x="90.5" y="81">=</tspan><tspan x="123.22" y="81">0</tspan><tspan x="140.887" y="81">;</tspan><tspan x="154.72" y="81">𝑤</tspan><tspan font-size="23" x="177.327" y="88">𝑎𝑑𝑑𝑟</tspan><tspan x="245.28" y="81">=</tspan><tspan x="278" y="81">0</tspan><tspan x="295.667" y="81">;</tspan><tspan x="88.3067" y="118">𝑤</tspan><tspan font-size="23" x="110.913" y="125">𝑑𝑎𝑡𝑎</tspan><tspan x="176.36" y="118">=</tspan><tspan x="209.08" y="118">0</tspan></text><path d="M1230.04 568.407 1039.83 279.452 1043.17 277.253 1233.38 566.207ZM1037.59 283.322 1036 270 1047.61 276.724Z"/><path d="M1008.71 337.966 1158.71 586.181 1155.29 588.25 1005.29 340.034ZM1161.1 582.401 1162.18 595.774 1150.83 588.607Z"/><path d="M5.79786e-07-2 352.157-1.9999 352.157 2.0001-5.79786e-07 2ZM350.157-5.9999 362.157 0.000104987 350.157 6.0001Z" transform="matrix(-1 -8.74228e-08 -8.74228e-08 1 1133.16 665)"/><path d="M1.51988-1.29999 190.13 219.214 187.091 221.814-1.51988 1.29999ZM191.87 215.095 195.111 228.114 182.751 222.894Z" transform="matrix(1 0 0 -1 673 567.114)"/><path d="M5.79786e-07-2 352.157-1.9999 352.157 2.0001-5.79786e-07 2ZM350.157-5.9999 362.157 0.000104987 350.157 6.0001Z" transform="matrix(-1 -8.74228e-08 -8.74228e-08 1 575.157 665)"/><text font-family="Cambria Math,Cambria Math_MSFontService,sans-serif" font-weight="400" font-size="32" transform="translate(230.387 717)">𝒕<tspan font-size="23" x="13.5" y="7">𝒊𝒙</tspan><tspan x="45.88" y="0">=</tspan><tspan x="69.7133" y="0">=</tspan><tspan x="102.433" y="0">𝑻</tspan><tspan font-size="23" x="122.433" y="7">𝒊𝒙</tspan><tspan x="145.927" y="0"> </tspan>⋀<tspan x="178.7" y="0"> </tspan>𝒕<tspan font-size="23" x="199.2" y="7">𝒊𝒚</tspan><tspan x="227.64" y="0">=</tspan><tspan x="251.473" y="0">=</tspan><tspan x="284.193" y="0">𝑻</tspan><tspan font-size="23" x="304.193" y="7">𝒊𝒚</tspan><tspan x="235.403" y="-350">𝒕</tspan><tspan font-size="23" x="248.903" y="-344">𝒊𝒙</tspan><tspan x="281.283" y="-350">&lt;</tspan><tspan x="314.17" y="-350">𝑻</tspan><tspan font-size="23" x="334.17" y="-344">𝒊𝒙</tspan><tspan x="357.663" y="-350"> </tspan>⋁<tspan x="390.437" y="-350"> </tspan>𝒕<tspan font-size="23" x="410.937" y="-344">𝒊𝒚</tspan><tspan x="439.377" y="-350">&lt;</tspan><tspan x="472.263" y="-350">𝑻</tspan><tspan font-size="23" x="492.263" y="-344">𝒊𝒚</tspan><tspan x="328.51" y="-308">𝑔𝑟</tspan><tspan x="372.763" y="-308">=</tspan><tspan x="405.483" y="-308">1</tspan><tspan x="277.11" y="-269">𝑈𝑝𝑑𝑎𝑡𝑒</tspan><tspan x="382.477" y="-269"> </tspan>𝑡<tspan font-size="23" x="401.677" y="-263">𝑖𝑥</tspan><tspan x="425.63" y="-269">,</tspan><tspan x="437.463" y="-269">𝑡</tspan><tspan font-size="23" x="449.663" y="-263">𝑖𝑦</tspan><tspan x="284.29" y="-228">𝑈𝑝𝑑𝑎𝑡𝑒</tspan><tspan x="389.657" y="-228"> </tspan>𝑟<tspan font-size="23" x="408.31" y="-222">𝑎𝑑𝑑𝑟</tspan><tspan x="306.61" y="-190">𝑤</tspan><tspan font-size="23" x="329.217" y="-184">𝑑𝑎𝑡𝑎</tspan><tspan x="394.663" y="-190">=</tspan><tspan x="427.383" y="-190">0</tspan><tspan x="726.108" y="-10">𝒈𝒓</tspan><tspan x="773.828" y="-10">=</tspan>=<tspan x="830.381" y="-10">𝑵</tspan><tspan font-size="23" x="854.715" y="-3">𝒈𝒓</tspan><tspan x="947.979" y="-356">𝒈𝒓</tspan><tspan x="995.699" y="-356">&lt;</tspan><tspan x="1028.59" y="-356">𝑵</tspan><tspan font-size="23" x="1052.92" y="-350">𝒈𝒓</tspan><tspan x="967.486" y="-314">𝑡</tspan><tspan font-size="23" x="979.686" y="-308">𝑖𝑓</tspan><tspan x="1012.69" y="-314">=</tspan><tspan x="1045.41" y="-314">1</tspan><tspan x="927.033" y="-272">𝑈𝑝𝑑𝑎𝑡𝑒</tspan><tspan x="1032.4" y="-272"> </tspan>𝑟<tspan font-size="23" x="1051.05" y="-266">𝑎𝑑𝑑𝑟</tspan><tspan x="667.733" y="-255">𝒕</tspan><tspan font-size="23" x="681.233" y="-249">𝒊𝒇</tspan><tspan x="713.28" y="-255">=</tspan>=<tspan x="769.833" y="-255">𝑵</tspan><tspan font-size="23" x="794.167" y="-249">𝒑𝒂𝒓</tspan></text><path d="M0.151463-1.99426 5.25199-1.60687 10.4106-0.350289 15.5202 1.61494 20.4138 4.22489 25.1628 7.47761 29.6206 11.354 33.8563 15.6538 37.8425 20.4115 41.4328 25.6046 44.7643 31.1785 47.5787 37.0631 50.0739 43.1412 51.997 49.4873 53.4698 55.9551 54.3685 62.5669 54.6898 69.25 54.3689 75.9247 53.5344 82.4722 52.0594 89.0134 50.1417 95.2782 47.774 101.421 44.957 107.247 41.7592 112.812 38.2319 118.006 34.382 122.754 30.2621 127.132 25.8593 130.952 21.2472 134.2 16.4139 136.848 11.7682 138.314 10.5649 134.499 15.0234 133.093 14.6639 133.246 19.2264 130.746 19.0359 130.865 23.4734 127.74 23.3143 127.864 27.5643 124.177 27.4186 124.317 31.4186 120.067 31.3215 120.178 35.0715 115.553 34.9704 115.689 38.4079 110.626 38.3285 110.753 41.4535 105.316 41.3869 105.442 44.1369 99.7544 44.0713 99.9057 46.3838 93.9057 46.3376 94.0396 48.2126 87.9146 48.174 88.0601 49.6115 81.6851 49.5785 81.8721 50.391 75.4971 50.3773 75.654 50.6898 69.154 50.6898 69.346 50.3773 62.846 50.3932 63.0194 49.5182 56.5819 49.5499 56.7566 48.1124 50.4441 48.1484 50.58 46.2734 44.3925 46.3373 44.572 43.8998 38.6345 43.9457 38.7379 41.1957 32.9879 41.2833 33.1511 38.0333 27.7136 38.1049 27.8249 34.6049 22.7624 34.717 22.9094 30.842 18.2844 30.9502 18.4035 26.8252 14.216 26.9376 14.3217 22.6251 10.5717 22.8073 10.7126 18.2448 7.58756 18.4338 7.70221 13.7463 5.20221 13.9695 5.30419 9.09454 3.42919 9.33916 3.50568 4.46416 2.31818 4.78604 2.36926-0.151463 1.99426ZM14.3436 141.875 1.375 138.437 11.9061 130.125Z" transform="matrix(-4.37114e-08 -1 -1 4.37114e-08 1007.39 201.333)"/><text font-family="Cambria Math,Cambria Math_MSFontService,sans-serif" font-weight="400" font-size="32" transform="translate(879.61 134)">𝒕<tspan font-size="23" x="13.5" y="7">𝒊𝒇</tspan><tspan x="45.5466" y="0">&lt;</tspan><tspan x="78.4333" y="0">𝑵</tspan><tspan font-size="23" x="102.767" y="7">𝒑𝒂𝒓</tspan></text></g></svg>