<svg width="1535" height="942" xmlns="http://www.w3.org/2000/svg" xmlns:xlink="http://www.w3.org/1999/xlink" overflow="hidden"><defs><clipPath id="clip0"><path d="M5-1 1540-1 1540 941 5 941Z" fill-rule="evenodd" clip-rule="evenodd"/></clipPath></defs><g clip-path="url(#clip0)" transform="translate(-5 1)"><path d="M18.5001 175.5C18.5001 121.376 62.1523 77.5001 116 77.5001 169.848 77.5001 213.5 121.376 213.5 175.5 213.5 229.624 169.848 273.5 116 273.5 62.1523 273.5 18.5001 229.624 18.5001 175.5Z" stroke="#000000" stroke-linejoin="round" stroke-miterlimit="10" fill="none" fill-rule="evenodd"/><text font-family="Calibri,Calibri_MSFontService,sans-serif" font-weight="700" font-size="27" transform="translate(91.4464 184)">IDLE</text><path d="M8.47757 61.6521 40.7101 96.9859 37.755 99.6816 5.52243 64.3479ZM42.3174 92.8125 45.972 105.722 33.452 100.9Z"/><path d="M441.5 175.5C441.5 121.376 485.376 77.5001 539.5 77.5001 593.624 77.5001 637.5 121.376 637.5 175.5 637.5 229.624 593.624 273.5 539.5 273.5 485.376 273.5 441.5 229.624 441.5 175.5Z" stroke="#000000" stroke-linejoin="round" stroke-miterlimit="10" fill="none" fill-rule="evenodd"/><text font-family="Calibri,Calibri_MSFontService,sans-serif" font-weight="700" font-size="27" transform="translate(482.864 152)">LOAD_INF<tspan font-family="Cambria Math,Cambria Math_MSFontService,sans-serif" font-weight="400" x="-5.56668" y="32">𝑜</tspan><tspan font-family="Cambria Math,Cambria Math_MSFontService,sans-serif" font-weight="400" x="9.18668" y="32">𝑝</tspan><tspan font-family="Cambria Math,Cambria Math_MSFontService,sans-serif" font-weight="400" font-size="20" x="23.1733" y="38">𝑑𝑚𝑎</tspan><tspan font-family="Cambria Math,Cambria Math_MSFontService,sans-serif" font-weight="400" x="74.9933" y="32">=</tspan><tspan font-family="Cambria Math,Cambria Math_MSFontService,sans-serif" font-weight="400" x="102.4" y="32">0</tspan><tspan font-family="Cambria Math,Cambria Math_MSFontService,sans-serif" font-weight="400" x="2.95999" y="64">𝑠</tspan><tspan font-family="Cambria Math,Cambria Math_MSFontService,sans-serif" font-weight="400" font-size="20" x="14.64" y="70">𝑑𝑚𝑎</tspan><tspan font-family="Cambria Math,Cambria Math_MSFontService,sans-serif" font-weight="400" x="66.46" y="64">=</tspan><tspan font-family="Cambria Math,Cambria Math_MSFontService,sans-serif" font-weight="400" x="93.8667" y="64">1</tspan></text><path d="M1197.5 175.5C1197.5 121.376 1241.38 77.5001 1295.5 77.5001 1349.62 77.5001 1393.5 121.376 1393.5 175.5 1393.5 229.624 1349.62 273.5 1295.5 273.5 1241.38 273.5 1197.5 229.624 1197.5 175.5Z" stroke="#000000" stroke-linejoin="round" stroke-miterlimit="10" fill="none" fill-rule="evenodd"/><text font-family="Calibri,Calibri_MSFontService,sans-serif" font-weight="700" font-size="27" transform="translate(1236.14 152)">LOAD_KEX<tspan font-family="Cambria Math,Cambria Math_MSFontService,sans-serif" font-weight="400" x="-2.81323" y="32">𝑜</tspan><tspan font-family="Cambria Math,Cambria Math_MSFontService,sans-serif" font-weight="400" x="11.9401" y="32">𝑝</tspan><tspan font-family="Cambria Math,Cambria Math_MSFontService,sans-serif" font-weight="400" font-size="20" x="25.9268" y="38">𝑑𝑚𝑎</tspan><tspan font-family="Cambria Math,Cambria Math_MSFontService,sans-serif" font-weight="400" x="77.7467" y="32">=</tspan><tspan font-family="Cambria Math,Cambria Math_MSFontService,sans-serif" font-weight="400" x="105.153" y="32">2</tspan><tspan font-family="Cambria Math,Cambria Math_MSFontService,sans-serif" font-weight="400" x="5.71338" y="64">𝑠</tspan><tspan font-family="Cambria Math,Cambria Math_MSFontService,sans-serif" font-weight="400" font-size="20" x="17.3934" y="70">𝑑𝑚𝑎</tspan><tspan font-family="Cambria Math,Cambria Math_MSFontService,sans-serif" font-weight="400" x="69.2134" y="64">=</tspan><tspan font-family="Cambria Math,Cambria Math_MSFontService,sans-serif" font-weight="400" x="96.6201" y="64">1</tspan></text><path d="M1197.5 418.5C1197.5 364.376 1241.38 320.5 1295.5 320.5 1349.62 320.5 1393.5 364.376 1393.5 418.5 1393.5 472.624 1349.62 516.5 1295.5 516.5 1241.38 516.5 1197.5 472.624 1197.5 418.5Z" stroke="#000000" stroke-linejoin="round" stroke-miterlimit="10" fill="none" fill-rule="evenodd"/><text font-family="Calibri,Calibri_MSFontService,sans-serif" font-weight="700" font-size="27" transform="translate(1224.54 395)">Convolution<tspan font-family="Cambria Math,Cambria Math_MSFontService,sans-serif" font-weight="400" x="38.76" y="32">𝟏</tspan><tspan font-family="Cambria Math,Cambria Math_MSFontService,sans-serif" font-weight="400" x="60.6866" y="32">×</tspan><tspan font-family="Cambria Math,Cambria Math_MSFontService,sans-serif" font-weight="400" x="85.6134" y="32">𝟏</tspan><tspan font-family="Cambria Math,Cambria Math_MSFontService,sans-serif" font-weight="400" x="22.7201" y="64">𝑠</tspan><tspan font-family="Cambria Math,Cambria Math_MSFontService,sans-serif" font-weight="400" font-size="20" x="34.4" y="69">𝑐11</tspan><tspan font-family="Cambria Math,Cambria Math_MSFontService,sans-serif" font-weight="400" x="75.4133" y="64">=</tspan><tspan font-family="Cambria Math,Cambria Math_MSFontService,sans-serif" font-weight="400" x="102.82" y="64">1</tspan></text><path d="M1197.5 661.5C1197.5 607.376 1241.38 563.5 1295.5 563.5 1349.62 563.5 1393.5 607.376 1393.5 661.5 1393.5 715.624 1349.62 759.5 1295.5 759.5 1241.38 759.5 1197.5 715.624 1197.5 661.5Z" stroke="#000000" stroke-linejoin="round" stroke-miterlimit="10" fill="none" fill-rule="evenodd"/><text font-family="Calibri,Calibri_MSFontService,sans-serif" font-weight="700" font-size="27" transform="translate(1229.61 631)">LOAD_KDW<tspan font-family="Cambria Math,Cambria Math_MSFontService,sans-serif" font-weight="400" font-size="32" x="-4.04663" y="37">𝑜</tspan><tspan font-family="Cambria Math,Cambria Math_MSFontService,sans-serif" font-weight="400" font-size="32" x="13.6534" y="37">𝑝</tspan><tspan font-family="Cambria Math,Cambria Math_MSFontService,sans-serif" font-weight="400" font-size="23" x="30.4734" y="44">𝑑𝑚𝑎</tspan><tspan font-family="Cambria Math,Cambria Math_MSFontService,sans-serif" font-weight="400" font-size="32" x="92.7534" y="37">=</tspan><tspan font-family="Cambria Math,Cambria Math_MSFontService,sans-serif" font-weight="400" font-size="32" x="125.473" y="37">3</tspan><tspan font-family="Cambria Math,Cambria Math_MSFontService,sans-serif" font-weight="400" font-size="32" x="1.76001" y="75">𝑠</tspan><tspan font-family="Cambria Math,Cambria Math_MSFontService,sans-serif" font-weight="400" font-size="23" x="15.8134" y="82">𝑑𝑚𝑎</tspan><tspan font-family="Cambria Math,Cambria Math_MSFontService,sans-serif" font-weight="400" font-size="32" x="78.0934" y="75">=</tspan><tspan font-family="Cambria Math,Cambria Math_MSFontService,sans-serif" font-weight="400" font-size="32" x="110.813" y="75">1</tspan></text><path d="M441.5 661.5C441.5 607.376 485.376 563.5 539.5 563.5 593.624 563.5 637.5 607.376 637.5 661.5 637.5 715.624 593.624 759.5 539.5 759.5 485.376 759.5 441.5 715.624 441.5 661.5Z" stroke="#000000" stroke-linejoin="round" stroke-miterlimit="10" fill="none" fill-rule="evenodd"/><text font-family="Calibri,Calibri_MSFontService,sans-serif" font-weight="700" font-size="27" transform="translate(471.511 638)">Convolution<tspan x="45.3533" y="32">DSC</tspan><tspan font-family="Cambria Math,Cambria Math_MSFontService,sans-serif" font-weight="400" x="19.74" y="64">𝑠</tspan><tspan font-family="Cambria Math,Cambria Math_MSFontService,sans-serif" font-weight="400" font-size="20" x="31.42" y="69">𝑑𝑠𝑐</tspan><tspan font-family="Cambria Math,Cambria Math_MSFontService,sans-serif" font-weight="400" x="72.3867" y="64">=</tspan><tspan font-family="Cambria Math,Cambria Math_MSFontService,sans-serif" font-weight="400" x="99.7933" y="64">1</tspan></text><path d="M13.5001 661.5C13.5001 604.615 59.6147 558.5 116.5 558.5 173.385 558.5 219.5 604.615 219.5 661.5 219.5 718.385 173.385 764.5 116.5 764.5 59.6147 764.5 13.5001 718.385 13.5001 661.5Z" stroke="#000000" stroke-linejoin="round" stroke-miterlimit="10" fill="none" fill-rule="evenodd"/><text font-family="Calibri,Calibri_MSFontService,sans-serif" font-weight="700" font-size="27" transform="translate(45.942 638)">WRITE_FMO<tspan font-family="Cambria Math,Cambria Math_MSFontService,sans-serif" font-weight="400" x="8.26667" y="32">𝑜</tspan><tspan font-family="Cambria Math,Cambria Math_MSFontService,sans-serif" font-weight="400" x="23.02" y="32">𝑝</tspan><tspan font-family="Cambria Math,Cambria Math_MSFontService,sans-serif" font-weight="400" font-size="20" x="37.0067" y="37">𝑑𝑚𝑎</tspan><tspan font-family="Cambria Math,Cambria Math_MSFontService,sans-serif" font-weight="400" x="88.8267" y="32">=</tspan><tspan font-family="Cambria Math,Cambria Math_MSFontService,sans-serif" font-weight="400" x="116.233" y="32">5</tspan><tspan font-family="Cambria Math,Cambria Math_MSFontService,sans-serif" font-weight="400" x="16.7933" y="64">𝑠</tspan><tspan font-family="Cambria Math,Cambria Math_MSFontService,sans-serif" font-weight="400" font-size="20" x="28.4733" y="69">𝑑𝑚𝑎</tspan><tspan font-family="Cambria Math,Cambria Math_MSFontService,sans-serif" font-weight="400" x="80.2933" y="64">=</tspan><tspan font-family="Cambria Math,Cambria Math_MSFontService,sans-serif" font-weight="400" x="107.7" y="64">1</tspan></text><path d="M18.5001 418.5C18.5001 364.376 62.1523 320.5 116 320.5 169.848 320.5 213.5 364.376 213.5 418.5 213.5 472.624 169.848 516.5 116 516.5 62.1523 516.5 18.5001 472.624 18.5001 418.5Z" stroke="#000000" stroke-linejoin="round" stroke-miterlimit="10" fill="none" fill-rule="evenodd"/><text font-family="Calibri,Calibri_MSFontService,sans-serif" font-weight="700" font-size="27" transform="translate(63.9205 411)">FINISHED<tspan font-family="Cambria Math,Cambria Math_MSFontService,sans-serif" font-weight="400" x="-10.4667" y="32">𝑓𝑖𝑛𝑖𝑠ℎ</tspan><tspan font-family="Cambria Math,Cambria Math_MSFontService,sans-serif" font-weight="400" x="71.56" y="32">=</tspan><tspan font-family="Cambria Math,Cambria Math_MSFontService,sans-serif" font-weight="400" x="98.9667" y="32">1</tspan><tspan font-family="Cambria Math,Cambria Math_MSFontService,sans-serif" font-weight="400" font-size="29" x="-6.31301" y="-351">𝑟𝑠𝑡</tspan></text><path d="M855.5 175.5C855.5 121.376 899.152 77.5001 953 77.5001 1006.85 77.5001 1050.5 121.376 1050.5 175.5 1050.5 229.624 1006.85 273.5 953 273.5 899.152 273.5 855.5 229.624 855.5 175.5Z" stroke="#000000" stroke-linejoin="round" stroke-miterlimit="10" fill="none" fill-rule="evenodd"/><text font-family="Calibri,Calibri_MSFontService,sans-serif" font-weight="700" font-size="27" transform="translate(893.588 152)">LOAD_FMI<tspan font-family="Cambria Math,Cambria Math_MSFontService,sans-serif" font-weight="400" x="-2.64667" y="32">𝑜</tspan><tspan font-family="Cambria Math,Cambria Math_MSFontService,sans-serif" font-weight="400" x="12.1067" y="32">𝑝</tspan><tspan font-family="Cambria Math,Cambria Math_MSFontService,sans-serif" font-weight="400" font-size="20" x="26.0934" y="38">𝑑𝑚𝑎</tspan><tspan font-family="Cambria Math,Cambria Math_MSFontService,sans-serif" font-weight="400" x="77.9134" y="32">=</tspan><tspan font-family="Cambria Math,Cambria Math_MSFontService,sans-serif" font-weight="400" x="105.32" y="32">1</tspan><tspan font-family="Cambria Math,Cambria Math_MSFontService,sans-serif" font-weight="400" x="5.88" y="64">𝑠</tspan><tspan font-family="Cambria Math,Cambria Math_MSFontService,sans-serif" font-weight="400" font-size="20" x="17.56" y="70">𝑑𝑚𝑎</tspan><tspan font-family="Cambria Math,Cambria Math_MSFontService,sans-serif" font-weight="400" x="69.38" y="64">=</tspan><tspan font-family="Cambria Math,Cambria Math_MSFontService,sans-serif" font-weight="400" x="96.7867" y="64">1</tspan></text><path d="M855.5 661.5C855.5 607.376 899.152 563.5 953 563.5 1006.85 563.5 1050.5 607.376 1050.5 661.5 1050.5 715.624 1006.85 759.5 953 759.5 899.152 759.5 855.5 715.624 855.5 661.5Z" stroke="#000000" stroke-linejoin="round" stroke-miterlimit="10" fill="none" fill-rule="evenodd"/><text font-family="Calibri,Calibri_MSFontService,sans-serif" font-weight="700" font-size="27" transform="translate(888.421 638)">LOAD_KPW<tspan font-family="Cambria Math,Cambria Math_MSFontService,sans-serif" font-weight="400" x="2.51996" y="32">𝑜</tspan><tspan font-family="Cambria Math,Cambria Math_MSFontService,sans-serif" font-weight="400" x="17.2733" y="32">𝑝</tspan><tspan font-family="Cambria Math,Cambria Math_MSFontService,sans-serif" font-weight="400" font-size="20" x="31.26" y="37">𝑑𝑚𝑎</tspan><tspan font-family="Cambria Math,Cambria Math_MSFontService,sans-serif" font-weight="400" x="83.08" y="32">=</tspan><tspan font-family="Cambria Math,Cambria Math_MSFontService,sans-serif" font-weight="400" x="110.487" y="32">4</tspan><tspan font-family="Cambria Math,Cambria Math_MSFontService,sans-serif" font-weight="400" x="11.0466" y="64">𝑠</tspan><tspan font-family="Cambria Math,Cambria Math_MSFontService,sans-serif" font-weight="400" font-size="20" x="22.7266" y="69">𝑑𝑚𝑎</tspan><tspan font-family="Cambria Math,Cambria Math_MSFontService,sans-serif" font-weight="400" x="74.5466" y="64">=</tspan><tspan font-family="Cambria Math,Cambria Math_MSFontService,sans-serif" font-weight="400" x="101.953" y="64">1</tspan></text><path d="M213 173 430.403 173 430.403 177 213 177ZM428.403 169 440.403 175 428.403 181Z"/><path d="M637 173 844.936 173 844.936 177 637 177ZM842.936 169 854.936 175 842.936 181Z"/><path d="M1050 173 1186.68 173 1186.68 177 1050 177ZM1184.68 169 1196.68 175 1184.68 181Z"/><path d="M1297 273 1297 310.096 1293 310.096 1293 273ZM1301 308.096 1295 320.096 1289 308.096Z"/><path d="M1297 516 1297 553.096 1293 553.096 1293 516ZM1301 551.096 1295 563.096 1289 551.096Z"/><path d="M1.43152e-06-2 136.679-1.9999 136.679 2.0001-1.43152e-06 2ZM134.679-5.9999 146.679 0.000104987 134.679 6.0001Z" transform="matrix(-1 -8.74228e-08 -8.74228e-08 1 1196.68 661)"/><path d="M9.63465e-07-2 207.936-1.9999 207.936 2.0001-9.63465e-07 2ZM205.936-5.9999 217.936 0.000104987 205.936 6.0001Z" transform="matrix(-1 -8.74228e-08 -8.74228e-08 1 854.936 661)"/><path d="M9.44778e-07-2 212.247-1.9999 212.247 2.0001-9.44778e-07 2ZM210.247-5.9999 222.247 0.000104987 210.247 6.0001Z" transform="matrix(-1 -8.74228e-08 -8.74228e-08 1 441.247 661)"/><path d="M114 557.94 114 526 118 526 118 557.94ZM110 528 116 516 122 528Z" fill="#FF0000"/><path d="M114.001 320.096 114 283 118 283 118.001 320.096ZM110 285 116 273 122 285Z"/><path d="M0.0126491-0.333093 4.96297-0.145107 9.86997 0.421086 19.4728 2.68059 28.3908 6.07192 36.43 10.5312 39.9548 13.1119 43.2274 15.818 46.0002 18.7168 48.4602 21.7445 50.3577 24.8438 51.8146 28.0742 52.7041 31.3145 53.0222 34.6235 52.4549 41.1162 50.9433 47.4144 48.55 53.3347 45.4622 58.6281 41.8003 63.1108 37.674 66.5388 35.178 67.5697 34.9235 66.9535 37.3728 65.9419 37.287 65.9936 41.3495 62.6186 41.3044 62.6641 44.9294 58.2266 44.8996 58.2695 47.9621 53.0195 47.941 53.0626 50.316 47.1876 50.3009 47.2347 51.8009 40.9847 51.7929 41.0335 52.3554 34.596 52.3557 34.6569 52.0432 31.4069 52.0536 31.4632 51.1786 28.2757 51.1961 28.3245 49.7586 25.137 49.7782 25.1741 47.9032 22.1116 47.9288 22.1477 45.4913 19.1477 45.5091 19.1679 42.7591 16.2929 42.7876 16.3194 39.5376 13.6319 39.5531 13.644 36.0531 11.0815 36.0883 11.104 28.0883 6.66649 28.1315 6.68656 19.2565 3.31157 19.2987 3.32447 9.73615 1.07447 9.77429 1.08114 4.89929 0.518636 4.92485 0.520593-0.0126491 0.333093ZM37.5164 70.6818 28.6875 69.25 35.1303 63.046Z" transform="matrix(-4.37114e-08 -1 -1 4.37114e-08 185.693 106.161)"/><text font-family="Cambria Math,Cambria Math_MSFontService,sans-serif" font-weight="400" font-size="29" transform="translate(211.163 65)">𝑠𝑡𝑎𝑟𝑡</text><path d="M211.61 40.6832 234.276 40.6832 256.943 40.6832 279.61 40.6832 279.61 42.6832 256.943 42.6832 234.276 42.6832 211.61 42.6832Z" fill-rule="evenodd"/><text font-family="Cambria Math,Cambria Math_MSFontService,sans-serif" font-weight="400" font-size="29" transform="translate(297.711 217)">𝑠𝑡𝑎𝑟𝑡</text><path d="M0.0246239-0.332423 5.11318 0.0445077 10.2227 1.24303 15.1981 3.13245 20.1066 5.64958 24.8257 8.79567 29.2874 12.5661 33.5559 16.7719 37.5746 21.4185 41.2157 26.5035 44.5419 31.9635 47.4287 37.737 49.8757 43.6978 51.8842 49.9116 53.3279 56.2514 54.2697 62.7179 54.5837 69.25 54.2697 75.7807 53.3908 82.1844 51.9471 88.5871 50.0018 94.7367 47.6174 100.76 44.7935 106.471 41.5931 111.931 38.0145 117.016 34.1227 121.661 29.9776 125.932 25.5771 129.641 20.9856 132.785 16.2638 135.304 11.3433 137.196 8.10613 137.846 7.975 137.192 11.1844 136.548 11.1303 136.564 16.0053 134.689 15.9681 134.706 20.6556 132.206 20.6241 132.225 25.1866 129.1 25.1602 129.12 29.5352 125.433 29.5108 125.455 33.6358 121.205 33.6195 121.223 37.4945 116.598 37.4774 116.621 41.0399 111.558 41.0249 111.581 44.2124 106.144 44.2012 106.165 47.0137 100.477 47.0026 100.502 49.3776 94.5023 49.3697 94.5245 51.3072 88.3995 51.2998 88.4267 52.7373 82.0517 52.7323 82.0797 53.6073 75.7047 53.6045 75.734 53.917 69.234 53.917 69.266 53.6045 62.766 53.6076 62.798 52.6701 56.3605 52.675 56.3865 51.2375 50.074 51.2453 50.1025 49.2453 43.915 49.2541 43.9391 46.8166 38.0016 46.8269 38.0241 43.9519 32.2741 43.9653 32.2984 40.6528 26.8609 40.6665 26.8816 37.0415 21.8191 37.0604 21.8431 33.0604 17.2181 33.0785 17.2374 28.8285 13.0499 28.8473 13.0671 24.4098 9.3171 24.4401 9.33985 19.7526 6.21485 19.7854 6.23411 14.9104 3.73411 14.9442 3.74912 10.0067 1.87412 10.0489 1.88702 4.98638 0.699525 5.03788 0.707423-0.0246239 0.332423ZM9.91238 141.297 1.4375 138.437 8.80998 133.373Z" transform="matrix(-4.37114e-08 -1 -1 4.37114e-08 608.886 106.918)"/><text font-family="Cambria Math,Cambria Math_MSFontService,sans-serif" font-weight="400" font-size="29" transform="translate(508.24 43)">𝑓<tspan font-size="21" x="11.56" y="6">𝑑𝑚𝑎</tspan></text><path d="M507.98 14.6927 528.313 14.6927 548.646 14.6927 568.98 14.6927 568.98 16.6927 548.646 16.6927 528.313 16.6927 507.98 16.6927Z" fill-rule="evenodd"/><path d="M0.0246239-0.332423 5.11318 0.0445077 10.2227 1.24303 15.1981 3.13245 20.1066 5.64958 24.8257 8.79567 29.2874 12.5661 33.5559 16.7719 37.5746 21.4185 41.2157 26.5035 44.5419 31.9635 47.4287 37.737 49.8757 43.6978 51.8842 49.9116 53.3279 56.2514 54.2697 62.7179 54.5837 69.25 54.2697 75.7807 53.3908 82.1844 51.9471 88.5871 50.0018 94.7367 47.6174 100.76 44.7935 106.471 41.5931 111.931 38.0145 117.016 34.1227 121.661 29.9776 125.932 25.5771 129.641 20.9856 132.785 16.2638 135.304 11.3433 137.196 8.10613 137.846 7.975 137.192 11.1844 136.548 11.1303 136.564 16.0053 134.689 15.9681 134.706 20.6556 132.206 20.6241 132.225 25.1866 129.1 25.1602 129.12 29.5352 125.433 29.5108 125.455 33.6358 121.205 33.6195 121.223 37.4945 116.598 37.4774 116.621 41.0399 111.558 41.0249 111.581 44.2124 106.144 44.2012 106.165 47.0137 100.477 47.0026 100.502 49.3776 94.5023 49.3697 94.5245 51.3072 88.3995 51.2998 88.4267 52.7373 82.0517 52.7323 82.0797 53.6073 75.7047 53.6045 75.734 53.917 69.234 53.917 69.266 53.6045 62.766 53.6076 62.798 52.6701 56.3605 52.675 56.3865 51.2375 50.074 51.2453 50.1025 49.2453 43.915 49.2541 43.9391 46.8166 38.0016 46.8269 38.0241 43.9519 32.2741 43.9653 32.2984 40.6528 26.8609 40.6665 26.8816 37.0415 21.8191 37.0604 21.8431 33.0604 17.2181 33.0785 17.2374 28.8285 13.0499 28.8473 13.0671 24.4098 9.3171 24.4401 9.33985 19.7526 6.21485 19.7854 6.23411 14.9104 3.73411 14.9442 3.74912 10.0067 1.87412 10.0489 1.88702 4.98638 0.699525 5.03788 0.707423-0.0246239 0.332423ZM9.91238 141.297 1.4375 138.437 8.80998 133.373Z" transform="matrix(-4.37114e-08 -1 -1 4.37114e-08 1022.89 106.918)"/><text font-family="Cambria Math,Cambria Math_MSFontService,sans-serif" font-weight="400" font-size="29" transform="translate(920.878 38)">𝑓<tspan font-size="21" x="11.56" y="6">𝑑𝑚𝑎</tspan></text><path d="M920.618 9.8 940.951 9.8 961.284 9.8 981.618 9.8 981.618 11.8 961.284 11.8 940.951 11.8 920.618 11.8Z" fill-rule="evenodd"/><path d="M0.0246239-0.332423 5.11318 0.0445077 10.2227 1.24303 15.1981 3.13245 20.1066 5.64958 24.8257 8.79567 29.2874 12.5661 33.5559 16.7719 37.5746 21.4185 41.2157 26.5035 44.5419 31.9635 47.4287 37.737 49.8757 43.6978 51.8842 49.9116 53.3279 56.2514 54.2697 62.7179 54.5837 69.25 54.2697 75.7807 53.3908 82.1844 51.9471 88.5871 50.0018 94.7367 47.6174 100.76 44.7935 106.471 41.5931 111.931 38.0145 117.016 34.1227 121.661 29.9776 125.932 25.5771 129.641 20.9856 132.785 16.2638 135.304 11.3433 137.196 8.10613 137.846 7.975 137.192 11.1844 136.548 11.1303 136.564 16.0053 134.689 15.9681 134.706 20.6556 132.206 20.6241 132.225 25.1866 129.1 25.1602 129.12 29.5352 125.433 29.5108 125.455 33.6358 121.205 33.6195 121.223 37.4945 116.598 37.4774 116.621 41.0399 111.558 41.0249 111.581 44.2124 106.144 44.2012 106.165 47.0137 100.477 47.0026 100.502 49.3776 94.5023 49.3697 94.5245 51.3072 88.3995 51.2998 88.4267 52.7373 82.0517 52.7323 82.0797 53.6073 75.7047 53.6045 75.734 53.917 69.234 53.917 69.266 53.6045 62.766 53.6076 62.798 52.6701 56.3605 52.675 56.3865 51.2375 50.074 51.2453 50.1025 49.2453 43.915 49.2541 43.9391 46.8166 38.0016 46.8269 38.0241 43.9519 32.2741 43.9653 32.2984 40.6528 26.8609 40.6665 26.8816 37.0415 21.8191 37.0604 21.8431 33.0604 17.2181 33.0785 17.2374 28.8285 13.0499 28.8473 13.0671 24.4098 9.3171 24.4401 9.33985 19.7526 6.21485 19.7854 6.23411 14.9104 3.73411 14.9442 3.74912 10.0067 1.87412 10.0489 1.88702 4.98638 0.699525 5.03788 0.707423-0.0246239 0.332423ZM9.91238 141.297 1.4375 138.437 8.80998 133.373Z" transform="matrix(-4.37114e-08 -1 -1 4.37114e-08 1364.89 106.918)"/><text font-family="Cambria Math,Cambria Math_MSFontService,sans-serif" font-weight="400" font-size="29" transform="translate(1264.98 41)">𝑓<tspan font-size="21" x="11.5601" y="6">𝑑𝑚𝑎</tspan></text><path d="M1264.72 12.5265 1285.05 12.5265 1305.39 12.5265 1325.72 12.5265 1325.72 14.5265 1305.39 14.5265 1285.05 14.5265 1264.72 14.5265Z" fill-rule="evenodd"/><text font-family="Cambria Math,Cambria Math_MSFontService,sans-serif" font-weight="400" font-size="29" transform="translate(715.142 217)">𝑓<tspan font-size="21" x="11.56" y="6">𝑑𝑚𝑎</tspan><tspan x="378.015" y="-1">𝑓</tspan><tspan font-size="21" x="389.575" y="5">𝑑𝑚𝑎</tspan><tspan x="506.593" y="86">𝑓</tspan><tspan font-size="21" x="518.153" y="92">𝑑𝑚𝑎</tspan></text><path d="M1023.22 729.525 1022.84 734.49 1021.64 739.412 1019.75 744.326 1017.23 749.048 1014.09 753.642 1010.32 757.979 1006.11 762.122 1001.46 766.016 996.379 769.531 990.919 772.794 985.147 775.555 979.186 778.002 972.972 779.885 966.633 781.328 960.167 782.207 953.636 782.521 947.107 782.207 940.703 781.391 934.301 779.948 928.152 778.065 922.129 775.744 916.418 772.983 910.959 769.845 905.875 766.393 901.229 762.626 896.958 758.606 893.248 754.331 890.103 749.864 887.584 745.268 885.691 740.534 885.081 737.539 885.735 737.406 886.338 740.371 886.321 740.314 888.196 745.001 888.179 744.965 890.679 749.527 890.659 749.496 893.784 753.933 893.763 753.907 897.451 758.157 897.427 758.132 901.677 762.132 901.659 762.116 906.284 765.866 906.261 765.849 911.323 769.287 911.302 769.274 916.74 772.399 916.719 772.388 922.406 775.138 922.381 775.127 928.381 777.439 928.359 777.431 934.484 779.306 934.46 779.3 940.835 780.737 940.803 780.732 947.178 781.544 947.152 781.542 953.652 781.855 953.62 781.855 960.12 781.542 960.091 781.545 966.529 780.67 966.5 780.675 972.812 779.238 972.79 779.244 978.977 777.369 978.947 777.379 984.885 774.942 984.867 774.949 990.617 772.199 990.59 772.214 996.028 768.964 996.009 768.976 1001.07 765.476 1001.05 765.495 1005.67 761.62 1005.65 761.638 1009.84 757.513 1009.82 757.531 1013.57 753.219 1013.55 753.249 1016.67 748.687 1016.65 748.718 1019.15 744.031 1019.14 744.068 1021.01 739.193 1021 739.234 1022.19 734.359 1022.18 734.412 1022.55 729.475ZM881.641 739.367 884.449 730.875 889.558 738.216Z"/><text font-family="Cambria Math,Cambria Math_MSFontService,sans-serif" font-weight="400" font-size="29" transform="translate(917.701 826)">𝑓<tspan font-size="21" x="11.56" y="6">𝑑𝑚𝑎</tspan></text><path d="M917.441 797.663 937.774 797.663 958.108 797.663 978.441 797.663 978.441 799.663 958.108 799.663 937.774 799.663 917.441 799.663Z" fill-rule="evenodd"/><path d="M-0.0276818 0.332182-2.30462 0.142437-4.61539-0.435256-8.99519-2.59342-13.111-6.01267-16.7724-10.3685-19.8609-15.537-22.2551-21.2705-23.7673-27.4452-24.3359-33.8269-23.7573-37.1057-22.1566-40.3071-19.6164-43.4189-16.2063-46.4501-11.9276-49.4075-6.96511-52.2342-1.25683-54.8688 5.01072-57.3758 11.8399-59.6313 19.1665-61.6978 26.8687-63.5138 34.9481-65.0169 51.8427-67.2069 60.4856-67.7706 69.25-67.9584 78.0144-67.7706 86.6574-67.2069 103.491-65.0167 111.571-63.4507 119.272-61.5724 126.6-59.5056 133.429-57.1248 139.696-54.6182 145.405-51.9203 150.366-49.0316 154.647-46.0732 158.057-42.9152 160.596-39.7421 162.195-36.4789 162.773-33.1391 162.205-26.6338 160.693-20.335 158.3-14.4773 155.212-9.1834 151.55-4.7646 147.424-1.27334 144.935-0.271465 144.686-0.88991 147.126-1.87172 147.035-1.81696 151.097-5.25446 151.056-5.21267 154.681-9.58767 154.65-9.54296 157.712-14.793 157.691-14.7511 160.066-20.5636 160.051-20.5153 161.551-26.7653 161.543-26.7165 162.105-33.154 162.109-33.0682 161.547-36.3182 161.576-36.2283 160.013-39.4158 160.052-39.3543 157.552-42.4793 157.586-42.4429 154.211-45.5679 154.248-45.5383 149.998-48.4758 150.02-48.4619 145.082-51.3369 145.108-51.3236 139.42-54.0111 139.439-54.003 133.189-56.503 133.203-56.4977 126.39-58.8727 126.41-58.8667 119.097-60.9292 119.108-60.9262 111.421-62.8012 111.437-62.7978 103.374-64.3603 103.394-64.357 86.582-66.5445 86.6033-66.5424 77.9783-67.1049 77.9929-67.1042 69.2429-67.2917 69.2571-67.2917 60.5071-67.1042 60.5217-67.1049 51.8967-66.5424 51.9179-66.5444 35.0429-64.3569 35.061-64.3598 26.9985-62.8598 27.014-62.8631 19.3265-61.0506 19.3405-61.0542 12.028-58.9917 12.042-58.996 5.22954-56.746 5.2488-56.753-1.0012-54.253-0.985314-54.2598-6.67281-51.6348-6.64751-51.6479-11.585-48.8354-11.5605-48.8508-15.8105-45.9133-15.7785-45.9384-19.1535-42.9384-19.1168-42.9767-21.6168-39.9142-21.5769-39.9759-23.1394-36.8509-23.1092-36.9421-23.6717-33.7546-23.668-33.8421-23.1055-27.5296-23.1137-27.5793-21.6137-21.4543-21.6299-21.5034-19.2549-15.8159-19.2764-15.8585-16.2139-10.7335-16.2448-10.777-12.6198-6.46448-12.662-6.5064-8.59949-3.1314-8.66516-3.174-4.35266-1.049-4.41915-1.07338-2.16915-0.510881-2.22232-0.519682 0.0276818-0.332182ZM147.259 2.85219 138.437 1.375 144.912-4.79584Z" transform="matrix(-4.37114e-08 -1 -1 4.37114e-08 1364.83 730.886)"/><text font-family="Cambria Math,Cambria Math_MSFontService,sans-serif" font-weight="400" font-size="29" transform="translate(1444.46 671)">𝑓<tspan font-size="21" x="11.5599" y="6">𝑑𝑚𝑎</tspan></text><path d="M1444.2 643.051 1464.53 643.051 1484.87 643.051 1505.2 643.051 1505.2 645.051 1484.87 645.051 1464.53 645.051 1444.2 645.051Z" fill-rule="evenodd"/><path d="M173.438 745.668 175.443 746.315 177.402 748.078 179.191 750.761 180.772 754.24 182.095 758.334 183.164 762.864 183.793 767.769 184.045 772.815 183.658 775.397 182.434 777.973 180.52 780.461 177.923 782.869 174.706 785.203 170.932 787.404 166.661 789.54 161.892 791.485 156.752 793.303 151.295 794.934 139.394 797.564 126.678 799.255 113.584 799.882 106.987 799.505 100.453 798.437 93.9827 796.678 87.7024 794.292 81.6144 791.279 75.7779 787.827 70.3171 783.873 65.1719 779.481 60.4017 774.71 56.1329 769.563 52.366 764.164 49.1629 758.511 46.586 752.729 44.6986 746.689 43.7485 741.181 44.4054 741.067 45.3518 746.554 45.3415 746.511 47.2165 752.511 47.2028 752.475 49.7653 758.225 49.7509 758.196 52.9384 763.821 52.9217 763.795 56.6717 769.17 56.6549 769.148 60.9049 774.273 60.8841 774.25 65.634 779 65.6148 778.982 70.7398 783.357 70.7189 783.341 76.1564 787.278 76.1305 787.261 81.943 790.699 81.9212 790.687 87.9837 793.687 87.9543 793.674 94.2043 796.049 94.1733 796.039 100.611 797.789 100.577 797.782 107.077 798.844 107.042 798.84 113.605 799.215 113.57 799.215 126.632 798.59 126.604 798.593 139.292 796.905 139.264 796.91 151.139 794.285 151.115 794.291 156.553 792.666 156.537 792.671 161.662 790.859 161.647 790.865 166.397 788.927 166.374 788.938 170.624 786.813 170.605 786.823 174.355 784.635 174.328 784.653 177.515 782.341 177.484 782.366 180.047 779.991 180.009 780.032 181.884 777.595 181.847 777.655 183.035 775.155 183.006 775.249 183.381 772.749 183.378 772.815 183.128 767.815 183.13 767.841 182.505 762.966 182.511 763 181.449 758.5 181.456 758.526 180.144 754.463 180.157 754.499 178.595 751.061 178.621 751.108 176.871 748.483 176.925 748.546 175.05 746.858 175.171 746.928 173.234 746.303ZM40.2173 742.821 43.4608 734.486 48.1831 742.082Z"/><text font-family="Cambria Math,Cambria Math_MSFontService,sans-serif" font-weight="400" font-size="29" transform="translate(87.3427 844)">𝑓<tspan font-size="21" x="11.56" y="6">𝑑𝑚𝑎</tspan></text><path d="M87.0827 815.814 107.416 815.814 127.749 815.814 148.083 815.814 148.083 817.814 127.749 817.814 107.416 817.814 87.0827 817.814Z" fill-rule="evenodd"/><path d="M609.219 729.525 608.842 734.49 607.643 739.412 605.753 744.326 603.234 749.048 600.088 753.642 596.317 757.979 592.111 762.122 587.464 766.016 582.379 769.531 576.919 772.794 571.147 775.555 565.186 778.002 558.972 779.885 552.633 781.328 546.167 782.207 539.636 782.521 533.107 782.207 526.703 781.391 520.301 779.948 514.152 778.065 508.129 775.744 502.418 772.983 496.959 769.845 491.875 766.393 487.229 762.626 482.958 758.606 479.248 754.331 476.103 749.864 473.584 745.268 471.691 740.534 471.081 737.539 471.735 737.406 472.338 740.371 472.321 740.314 474.196 745.001 474.179 744.965 476.679 749.527 476.659 749.496 479.784 753.933 479.763 753.907 483.451 758.157 483.427 758.132 487.677 762.132 487.659 762.116 492.284 765.866 492.261 765.849 497.323 769.287 497.302 769.274 502.74 772.399 502.719 772.388 508.406 775.138 508.381 775.127 514.381 777.439 514.359 777.431 520.484 779.306 520.46 779.3 526.835 780.737 526.803 780.732 533.178 781.544 533.152 781.542 539.652 781.855 539.62 781.855 546.12 781.542 546.091 781.545 552.529 780.67 552.5 780.675 558.812 779.238 558.79 779.244 564.977 777.369 564.947 777.379 570.885 774.942 570.867 774.949 576.617 772.199 576.59 772.214 582.028 768.964 582.009 768.976 587.072 765.476 587.047 765.495 591.672 761.62 591.652 761.638 595.84 757.513 595.822 757.531 599.572 753.219 599.549 753.249 602.674 748.687 602.655 748.718 605.155 744.031 605.138 744.068 607.013 739.193 607 739.234 608.187 734.359 608.179 734.412 608.554 729.475ZM467.641 739.367 470.449 730.875 475.558 738.216Z"/><text font-family="Cambria Math,Cambria Math_MSFontService,sans-serif" font-weight="400" font-size="29" transform="translate(514.413 823)">𝑓<tspan font-size="21" x="11.56" y="6">𝑑</tspan><tspan font-size="21" x="25.3933" y="6">𝑠𝑐</tspan></text><path d="M513.98 795.16 537.98 795.16 561.98 795.16 561.98 797.16 537.98 797.16 513.98 797.16Z" fill-rule="evenodd"/><text font-family="Cambria Math,Cambria Math_MSFontService,sans-serif" font-weight="400" font-size="29" transform="translate(320.018 695)">𝑓<tspan font-size="21" x="11.56" y="6">𝑑𝑠𝑐</tspan><tspan x="395.124" y="2">𝑓</tspan><tspan font-size="21" x="406.684" y="8">𝑑𝑚𝑎</tspan><tspan x="773.139" y="4">𝑓</tspan><tspan font-size="21" x="784.699" y="10">𝑑𝑚𝑎</tspan></text><path d="M-0.0276818 0.332182-2.30897 0.142075-4.61461-0.498382-6.84818-1.51944-9.01521-2.92164-13.1199-6.58426-16.7795-11.3166-19.8658-16.9222-22.2574-23.216-23.7678-29.8869-24.3356-36.826-23.7593-40.3476-22.1639-43.8576-19.6272-47.282-16.2177-50.6284-11.937-53.8389-6.97448-56.8541-1.26741-59.739 5.00157-62.4974 11.8323-64.9414 19.159-67.1957 26.8625-69.1999 34.9398-70.8279 43.2659-72.2052 51.8436-73.2069 60.4844-73.8331 69.25-74.0209 78.0156-73.8331 86.6577-73.2068 95.1729-72.1424 103.499-70.7652 111.576-69.0746 119.279-67.0707 126.608-64.8156 133.437-62.2468 139.705-59.5516 145.416-56.602 150.378-53.4613 154.656-50.1898 158.066-46.8435 160.603-43.3553 162.197-39.7835 162.773-36.2008 162.205-29.1381 160.695-22.28 158.304-15.9242 155.219-10.1947 151.56-5.33682 147.438-1.59568 144.923-0.38396 144.633-0.984572 147.105-2.17531 147.026-2.12182 151.088-5.80932 151.046-5.76305 154.671-10.5756 154.644-10.533 157.706-16.2205 157.688-16.1799 160.063-22.4924 160.049-22.4467 161.549-29.2592 161.543-29.2142 162.105-36.2142 162.108-36.1346 161.546-39.6346 161.571-39.5516 160.008-43.0516 160.043-42.9914 157.543-46.4289 157.579-46.3871 154.204-49.6996 154.235-49.6727 149.985-52.9227 150.009-52.9058 145.072-56.0308 145.097-56.0163 139.41-58.9538 139.431-58.9438 133.181-61.6313 133.195-61.6255 126.383-64.188 126.402-64.1814 119.089-66.4314 119.104-66.4274 111.416-68.4274 111.432-68.4237 103.369-70.1112 103.383-70.1086 95.0706-71.4836 95.0836-71.4817 86.5836-72.5442 86.6009-72.5425 77.9759-73.1675 77.9929-73.1667 69.2429-73.3542 69.2571-73.3542 60.5071-73.1667 60.5241-73.1675 51.8991-72.5425 51.9137-72.5439 43.3512-71.5439 43.3669-71.5461 35.0544-70.1711 35.0659-70.1732 27.0034-68.5482 27.0214-68.5524 19.3339-66.5524 19.348-66.5564 12.0355-64.3064 12.0498-64.3111 5.23729-61.8736 5.25925-61.8824-0.990754-59.1324-0.974623-59.14-6.66212-56.265-6.63941-56.2776-11.5769-53.2776-11.55-53.2958-15.8-50.1083-15.7665-50.1371-19.1415-46.8246-19.1071-46.8641-21.6071-43.4891-21.5715-43.5496-23.134-40.1121-23.1085-40.1962-23.671-36.7587-23.6678-36.8397-23.1053-29.9647-23.1124-30.0111-21.6124-23.3861-21.6259-23.4309-19.2509-17.1809-19.2705-17.2233-16.208-11.6608-16.2363-11.7039-12.6113-7.01642-12.6531-7.06121-8.59057-3.43621-8.63142-3.46736-6.50642-2.09236-6.54891-2.11566-4.36141-1.11566-4.41079-1.13367-2.16079-0.508673-2.22232-0.519682 0.0276818-0.332182ZM147.282 2.70827 138.437 1.375 144.811-4.90051Z" transform="matrix(-4.37114e-08 -1 -1 4.37114e-08 1364.83 487.886)"/><text font-family="Cambria Math,Cambria Math_MSFontService,sans-serif" font-weight="400" font-size="29" transform="translate(1449.83 433)">𝑓<tspan font-size="21" x="11.5601" y="6">𝑐11</tspan></text><path d="M1449.47 405.015 1473.97 405.015 1498.47 405.015 1498.47 407.015 1473.97 407.015 1449.47 407.015Z" fill-rule="evenodd"/><text font-family="Cambria Math,Cambria Math_MSFontService,sans-serif" font-weight="400" font-size="29" transform="translate(1211.54 544)">𝑓<tspan font-size="21" x="11.5601" y="6">𝑐11</tspan></text><path d="M186.438 586.665 187.008 585.953 188.369 585.386 189.825 585.022 191.582 584.696 193.793 584.306 196.498 584.049 196.48 584.05 199.492 583.737 202.887 583.422 206.655 583.108 210.865 582.794 220.205 582.23 230.911 581.729 242.673 581.229 255.494 580.791 269.192 580.353 283.703 579.978 298.842 579.665 314.476 579.477 330.483 579.29 363.176 579.102 363.081 579.105 371.268 578.667 371.058 578.69 379.246 577.377 379.046 577.42 387.234 575.232 387.057 575.288 395.182 572.288 395.026 572.354 403.026 568.604 402.884 568.677 410.884 564.115 410.766 564.188 418.641 558.938 418.526 559.021 426.276 553.021 426.188 553.092 433.813 546.467 433.729 546.545 441.229 539.233 441.154 539.309 448.467 531.372 448.405 531.442 455.53 522.942 455.48 523.004 462.48 513.942 462.42 514.023 469.108 504.398 469.072 504.452 475.634 494.327 475.589 494.401 481.839 483.776 481.811 483.824 487.873 472.824 487.836 472.895 493.586 461.395 493.557 461.457 498.994 449.582 498.971 449.635 504.158 437.385 504.122 437.477 513.434 412.039 513.406 412.122 517.594 398.934 517.574 399.002 521.324 385.564 521.309 385.621 524.684 371.996 524.67 372.054 527.67 358.179 527.659 358.233 530.284 344.233 530.272 344.305 532.397 330.18 532.389 330.243 534.076 315.93 534.07 315.991 535.32 301.678 535.315 301.748 536.065 287.311 536.063 287.38 536.14 282.941 540.139 283.01 540.062 287.484 539.308 301.991 538.052 316.369 536.357 330.743 534.222 344.935 531.586 358.998 528.573 372.929 525.184 386.611 521.417 400.111 517.206 413.374 507.861 438.899 502.643 451.221 497.179 463.153 491.396 474.72 485.301 485.779 479.014 496.466 472.411 506.654 465.676 516.347 458.621 525.481 451.44 534.048 444.06 542.059 436.48 549.449 428.769 556.149 420.918 562.227 412.926 567.555 404.796 572.192 396.647 576.011 388.356 579.073 379.98 581.311 371.587 582.656 363.247 583.102 330.511 583.289 330.523 583.289 314.524 583.477 298.899 583.664 298.916 583.664 283.791 583.977 283.802 583.976 269.302 584.351 269.314 584.351 255.631 584.788 242.818 585.226 242.835 585.225 231.085 585.725 231.093 585.725 220.406 586.225 220.433 586.223 211.121 586.786 211.149 586.784 206.961 587.096 206.979 587.095 203.229 587.408 203.247 587.406 199.872 587.719 199.895 587.716 196.886 588.03 194.252 588.281 194.41 588.259 192.285 588.634 192.302 588.631 190.614 588.944 190.735 588.917 189.485 589.23 189.769 589.136 189.019 589.448 189.812 588.851 189.562 589.164ZM532.106 284.871 538.313 272.977 544.104 285.079Z" fill="#4472C4"/><path d="M189.997 733.541 190.185 737.103 190.162 736.891 190.725 740.391 190.657 740.106 192.907 747.231 192.779 746.92 196.404 753.982 196.252 753.733 201.252 760.733 201.098 760.542 207.473 767.48 207.339 767.348 214.964 774.223 214.843 774.122 223.718 780.934 223.607 780.855 233.669 787.542 233.582 787.487 244.769 794.112 244.677 794.061 256.989 800.498 256.926 800.467 270.239 806.842 270.169 806.81 284.481 812.997 284.417 812.971 299.73 818.971 299.676 818.951 315.863 824.763 315.816 824.747 332.816 830.372 332.771 830.358 350.584 835.795 350.543 835.783 369.168 841.033 369.12 841.02 388.433 845.958 388.401 845.95 408.338 850.7 408.296 850.69 428.921 855.128 428.889 855.121 450.014 859.309 449.977 859.302 471.664 863.177 471.636 863.172 493.761 866.797 493.722 866.791 516.347 870.041 516.317 870.037 539.254 872.974 539.219 872.97 562.469 875.533 562.44 875.53 586.065 877.78 586.032 877.777 609.782 879.652 609.745 879.649 633.745 881.087 633.713 881.085 657.838 882.148 657.807 882.146 682.057 882.834 682.015 882.833 706.265 883.021 706.23 883.021 730.855 882.771 730.823 882.771 755.073 882.146 755.032 882.148 779.157 881.023 779.125 881.024 803.188 879.524 803.155 879.527 826.968 877.652 826.93 877.655 850.492 875.343 850.464 875.346 873.776 872.721 873.741 872.725 896.741 869.725 896.704 869.73 919.267 866.355 919.234 866.36 941.422 862.673 941.393 862.678 963.08 858.74 963.037 858.749 984.162 854.436 984.13 854.443 1004.76 849.88 1004.71 849.89 1024.71 845.015 1024.68 845.023 1043.99 839.961 1043.95 839.973 1062.51 834.66 1062.46 834.675 1080.34 829.05 1080.3 829.064 1097.3 823.314 1097.24 823.333 1113.43 817.333 1113.38 817.351 1128.69 811.226 1128.63 811.253 1142.94 804.941 1142.87 804.973 1156.18 798.473 1156.11 798.509 1168.43 791.884 1168.34 791.933 1179.53 785.183 1179.43 785.244 1189.5 778.369 1189.39 778.45 1198.26 771.45 1198.15 771.547 1205.77 764.547 1205.63 764.694 1211.94 757.569 1211.8 757.744 1216.86 750.556 1216.71 750.814 1220.34 743.564 1220.19 743.961 1221.39 739.297 1225.26 740.292 1224.01 745.162 1220.22 752.737 1215.01 760.138 1208.55 767.424 1200.8 774.545 1191.81 781.633 1181.64 788.579 1170.37 795.384 1157.98 802.051 1144.59 808.585 1130.21 814.927 1114.84 821.075 1098.61 827.093 1081.56 832.859 1063.64 838.499 1045.03 843.825 1025.68 848.897 1005.64 853.781 984.978 858.352 963.816 862.672 942.092 866.616 919.874 870.309 897.277 873.689 874.241 876.694 850.897 879.322 827.301 881.638 803.453 883.516 779.359 885.018 755.197 886.144 730.911 886.77 706.252 887.021 681.964 886.833 657.678 886.144 633.521 885.081 609.486 883.641 585.701 881.763 562.046 879.51 538.763 876.944 515.793 874.002 493.133 870.747 470.975 867.117 449.255 863.236 428.095 859.042 407.433 854.596 387.458 849.837 368.106 844.89 349.437 839.627 331.581 834.177 314.535 828.536 298.297 822.706 282.926 816.683 268.546 810.466 255.167 804.059 242.776 797.581 231.499 790.903 221.336 784.149 212.344 777.246 204.591 770.256 198.069 763.158 192.912 755.939 189.144 748.596 186.799 741.17 186.196 737.42 186.003 733.751ZM1217.06 740.68 1225.12 729.958 1228.86 742.843Z"/><text font-family="Cambria Math,Cambria Math_MSFontService,sans-serif" font-weight="400" font-size="29" transform="translate(608.025 924)">𝑔<tspan x="18.5067" y="0">𝑟</tspan><tspan font-size="21" x="29.2667" y="6">𝑖𝑛𝑡</tspan><tspan x="70.2467" y="0">&lt;</tspan><tspan x="100.433" y="0">𝑁</tspan><tspan font-size="21" x="118.227" y="6">𝑔</tspan><tspan font-size="21" x="132.76" y="6">𝑟</tspan><tspan font-size="17" x="144.093" y="10">𝑖𝑛𝑡</tspan><tspan fill="#4472C4" font-size="32" x="-28.9152" y="-485">𝑔</tspan><tspan fill="#4472C4" font-size="32" x="-8.86853" y="-485">𝑟</tspan><tspan fill="#4472C4" font-size="23" x="2.78479" y="-479">𝑖𝑛𝑡</tspan><tspan fill="#4472C4" font-size="32" x="47.2914" y="-485">=</tspan><tspan fill="#4472C4" font-size="32" x="80.0115" y="-485">𝑁</tspan><tspan fill="#4472C4" font-size="23" x="99.4915" y="-479">𝑔</tspan><tspan fill="#4472C4" font-size="23" x="115.391" y="-479">𝑟</tspan><tspan fill="#4472C4" font-size="19" x="127.725" y="-474">𝑖𝑛𝑡</tspan><tspan fill="#4472C4" font-size="32" x="159.685" y="-485"> </tspan><tspan fill="#4472C4" font-size="32" x="166.685" y="-485">⋀</tspan><tspan fill="#4472C4" font-size="32" x="-102.142" y="-443">∼</tspan><tspan fill="#4472C4" font-size="32" x="-70.4219" y="-443">(</tspan><tspan fill="#4472C4" font-size="32" x="-57.0886" y="-443">𝑡</tspan><tspan fill="#4472C4" font-size="23" x="-44.8885" y="-437">𝑜𝑥</tspan><tspan fill="#4472C4" font-size="32" x="-6.3819" y="-443">=</tspan><tspan fill="#4472C4" font-size="32" x="26.3381" y="-443">𝑁</tspan><tspan fill="#4472C4" font-size="23" x="47.1848" y="-437">𝑜𝑥</tspan><tspan fill="#4472C4" font-size="32" x="76.8048" y="-443"> </tspan><tspan fill="#4472C4" font-size="32" x="83.8048" y="-443">⋀</tspan><tspan fill="#4472C4" font-size="32" x="105.138" y="-443"> </tspan><tspan fill="#4472C4" font-size="32" x="112.138" y="-443">𝑡</tspan><tspan fill="#4472C4" font-size="23" x="124.338" y="-437">𝑜𝑦</tspan><tspan fill="#4472C4" font-size="32" x="163.785" y="-443">=</tspan><tspan fill="#4472C4" font-size="32" x="196.505" y="-443">𝑁</tspan><tspan fill="#4472C4" font-size="23" x="217.351" y="-437">𝑜𝑦</tspan><tspan fill="#4472C4" font-size="32" x="247.911" y="-443">)</tspan><tspan fill="#FF0000" font-size="31" x="-432.026" y="-412">𝑔</tspan><tspan fill="#FF0000" font-size="31" x="-412.666" y="-412">𝑟</tspan><tspan fill="#FF0000" font-size="23" x="-401.366" y="-406">𝑖𝑛𝑡</tspan><tspan fill="#FF0000" font-size="31" x="-358.806" y="-412">=</tspan><tspan fill="#FF0000" font-size="31" x="-327.452" y="-412">𝑁</tspan><tspan fill="#FF0000" font-size="23" x="-308.806" y="-406">𝑔</tspan><tspan fill="#FF0000" font-size="23" x="-293.592" y="-406">𝑟</tspan><tspan fill="#FF0000" font-size="19" x="-281.759" y="-401">𝑖𝑛𝑡</tspan><tspan fill="#FF0000" font-size="31" x="-251.059" y="-412"> </tspan><tspan fill="#FF0000" font-size="31" x="-244.226" y="-412">⋀</tspan><tspan fill="#FF0000" font-size="31" x="-473.866" y="-371">𝑡</tspan><tspan fill="#FF0000" font-size="23" x="-462.146" y="-365">𝑜𝑥</tspan><tspan fill="#FF0000" font-size="31" x="-425.419" y="-371">=</tspan><tspan fill="#FF0000" font-size="31" x="-394.066" y="-371">𝑁</tspan><tspan fill="#FF0000" font-size="23" x="-374.112" y="-365">𝑜𝑥</tspan><tspan fill="#FF0000" font-size="31" x="-345.906" y="-371"> </tspan><tspan fill="#FF0000" font-size="31" x="-339.072" y="-371">⋀</tspan><tspan fill="#FF0000" font-size="31" x="-318.739" y="-371"> </tspan><tspan fill="#FF0000" font-size="31" x="-311.906" y="-371">𝑡</tspan><tspan fill="#FF0000" font-size="23" x="-300.186" y="-365">𝑜𝑦</tspan><tspan fill="#FF0000" font-size="31" x="-262.512" y="-371">=</tspan><tspan fill="#FF0000" font-size="31" x="-231.159" y="-371">𝑁</tspan><tspan fill="#FF0000" font-size="23" x="-211.206" y="-365">𝑜𝑦</tspan></text></g></svg>