<svg width="696" height="353" xmlns="http://www.w3.org/2000/svg" xmlns:xlink="http://www.w3.org/1999/xlink" overflow="hidden"><defs><clipPath id="clip0"><path d="M80 73 776 73 776 426 80 426Z" fill-rule="evenodd" clip-rule="evenodd"/></clipPath></defs><g clip-path="url(#clip0)" transform="translate(-80 -73)"><path d="M81.5001 145.5C81.5001 106.84 113.736 75.5001 153.5 75.5001 193.265 75.5001 225.5 106.84 225.5 145.5 225.5 184.16 193.265 215.5 153.5 215.5 113.736 215.5 81.5001 184.16 81.5001 145.5Z" stroke="#000000" stroke-linejoin="round" stroke-miterlimit="10" fill="none" fill-rule="evenodd"/><text font-family="Calibri,Calibri_MSFontService,sans-serif" font-weight="400" font-size="21" transform="translate(137.116 152)">Idle</text><path d="M81.5001 355.5C81.5001 316.84 113.736 285.5 153.5 285.5 193.265 285.5 225.5 316.84 225.5 355.5 225.5 394.16 193.265 425.5 153.5 425.5 113.736 425.5 81.5001 394.16 81.5001 355.5Z" stroke="#000000" stroke-linejoin="round" stroke-miterlimit="10" fill="none" fill-rule="evenodd"/><text font-family="Calibri,Calibri_MSFontService,sans-serif" font-weight="400" font-size="21" transform="translate(117.116 362)">Finished</text><path d="M494.5 144C494.5 105.616 526.736 74.5001 566.5 74.5001 606.265 74.5001 638.5 105.616 638.5 144 638.5 182.384 606.265 213.5 566.5 213.5 526.736 213.5 494.5 182.384 494.5 144Z" stroke="#000000" stroke-linejoin="round" stroke-miterlimit="10" fill="none" fill-rule="evenodd"/><text font-family="Calibri,Calibri_MSFontService,sans-serif" font-weight="400" font-size="19" transform="translate(537.922 127)">R_FMI/<tspan x="-3.41339" y="23">R_KPW/</tspan><tspan x="-0.686707" y="45">R</tspan><tspan x="9.47998" y="45">_KDW</tspan></text><path d="M356.5 354.5C356.5 315.84 388.736 284.5 428.5 284.5 468.265 284.5 500.5 315.84 500.5 354.5 500.5 393.16 468.265 424.5 428.5 424.5 388.736 424.5 356.5 393.16 356.5 354.5Z" stroke="#000000" stroke-linejoin="round" stroke-miterlimit="10" fill="none" fill-rule="evenodd"/><text font-family="Calibri,Calibri_MSFontService,sans-serif" font-weight="400" font-size="19" transform="translate(397.103 338)">W_<tspan x="26" y="0">FMI/</tspan><tspan x="-3.42001" y="23">W_</tspan><tspan x="22.58" y="23">KPW/</tspan><tspan x="-0.686676" y="45">W_KDW</tspan></text><path d="M632.5 354.5C632.5 315.84 664.512 284.5 704 284.5 743.488 284.5 775.5 315.84 775.5 354.5 775.5 393.16 743.488 424.5 704 424.5 664.512 424.5 632.5 393.16 632.5 354.5Z" stroke="#000000" stroke-linejoin="round" stroke-miterlimit="10" fill="none" fill-rule="evenodd"/><text font-family="Calibri,Calibri_MSFontService,sans-serif" font-weight="400" font-size="19" transform="translate(675.164 337)">A_<tspan x="20.1666" y="0">FMI/</tspan><tspan x="-3.41333" y="23">A_</tspan><tspan x="16.7533" y="23">KPW/</tspan><tspan x="-0.686707" y="45">A_KDW</tspan></text><path d="M1-1.48244e-06 1.0001 64.1537-0.999905 64.1537-1 1.48244e-06ZM4.00009 62.8204 0.000104987 70.8204-3.99991 62.8204Z" transform="matrix(1 0 0 -1 153 285.82)"/><path d="M0.00398831-0.999992 262.442 0.0466989 262.434 2.04668-0.00398831 0.999992ZM261.121-2.95859 269.105 1.07328 261.089 5.04134Z" transform="matrix(1 0 0 -1 225 145.073)"/><path d="M0.725306-0.688427 82.9333 85.9234 81.4826 87.3003-0.725306 0.688427ZM84.1913 82.8911 86.7975 91.4472 78.3888 88.3985Z" transform="matrix(-1 -8.74228e-08 -8.74228e-08 1 514.797 193)"/><path d="M0.00699286-0.999975 124.87-0.126804 124.856 1.87315-0.00699286 0.999975ZM123.558-3.13605 131.529 0.91979 123.502 4.86375Z" transform="matrix(-1 -8.74228e-08 -8.74228e-08 1 356.529 354)"/><path d="M753.945 305.42 621.546 197.977 622.807 196.424 755.205 303.867ZM620.691 201.147 617 193 625.732 194.935Z"/><path d="M0.00210405-0.999998 124.865-0.737279 124.861 1.26272-0.00210405 0.999998ZM123.538-3.74008 131.53 0.276745 123.521 4.2599Z" transform="matrix(1 0 0 -1 500 354.277)"/></g></svg>