<svg width="955" height="471" xmlns="http://www.w3.org/2000/svg" xmlns:xlink="http://www.w3.org/1999/xlink" overflow="hidden"><defs><clipPath id="clip0"><path d="M91 201 1046 201 1046 672 91 672Z" fill-rule="evenodd" clip-rule="evenodd"/></clipPath></defs><g clip-path="url(#clip0)" transform="translate(-91 -201)"><path d="M0-0.333333 29.031-0.333333 29.031 55.2188 28.6977 54.8855 124.427 54.8855 124.427 55.5521 28.3644 55.5521 28.3644 0 28.6977 0.333333 0 0.333333ZM123.094 51.2188 131.094 55.2188 123.094 59.2188Z" fill="#70AD47" transform="matrix(-4.37114e-08 1 1 4.37114e-08 544.5 334.5)"/><path d="M0-0.333333 27.0922-0.333333 27.0922 55.3133 26.7589 54.9799 124.427 54.9799 124.427 55.6466 26.4255 55.6466 26.4255 0 26.7589 0.333333 0 0.333333ZM123.094 51.3133 131.094 55.3133 123.094 59.3133Z" fill="#ED7D31" transform="matrix(-4.37114e-08 1 1 4.37114e-08 480.5 334.5)"/><path d="M0-0.333333 27.0922-0.333333 27.0922 74.1385 26.7588 73.8051 124.427 73.8051 124.427 74.4718 26.4255 74.4718 26.4255 0 26.7588 0.333333 0 0.333333ZM123.094 70.1385 131.094 74.1385 123.094 78.1385Z" fill="#4472C4" transform="matrix(-4.37114e-08 1 1 4.37114e-08 416.5 334.5)"/><path d="M0-0.333333 27.0921-0.333333 27.0921 96.0611 26.7588 95.7278 124.427 95.7278 124.427 96.3944 26.4255 96.3944 26.4255 0 26.7588 0.333333 0 0.333333ZM123.094 92.0611 131.094 96.0611 123.094 100.061Z" transform="matrix(-4.37114e-08 1 1 4.37114e-08 352.5 334.5)"/><rect x="384.5" y="270.5" width="64" height="64" stroke="#000000" stroke-linejoin="round" stroke-miterlimit="10" fill="none"/><text font-family="Cambria Math,Cambria Math_MSFontService,sans-serif" font-weight="400" font-size="24" transform="translate(396.162 310)">𝑝<tspan x="13.6266" y="0">𝑥</tspan><tspan font-size="18" x="26.2267" y="5">𝑖</tspan></text><rect x="320.5" y="270.5" width="64" height="64" stroke="#000000" stroke-linejoin="round" stroke-miterlimit="10" fill="none"/><text font-family="Cambria Math,Cambria Math_MSFontService,sans-serif" font-weight="400" font-size="23" transform="translate(331.698 309)">𝑝<tspan x="12.9467" y="0">𝑥</tspan><tspan font-size="17" x="24.7267" y="5">0</tspan></text><rect x="448.5" y="270.5" width="64" height="64" stroke="#000000" stroke-linejoin="round" stroke-miterlimit="10" fill="none"/><text font-family="Cambria Math,Cambria Math_MSFontService,sans-serif" font-weight="400" font-size="21" transform="translate(452.293 309)">𝑝<tspan x="12.0933" y="0">𝑥</tspan><tspan font-size="15" x="23.22" y="4">𝑖</tspan><tspan font-size="15" x="29.2533" y="4">+</tspan><tspan font-size="15" x="40.5866" y="4">1</tspan></text><rect x="512.5" y="270.5" width="64" height="64" stroke="#000000" stroke-linejoin="round" stroke-miterlimit="10" fill="none"/><text font-family="Cambria Math,Cambria Math_MSFontService,sans-serif" font-weight="400" font-size="19" transform="translate(515.589 306)">𝑝<tspan x="10.56" y="0">𝑥</tspan><tspan font-size="14" x="20.38" y="4">𝑁</tspan><tspan font-size="11" x="29.98" y="7">𝑝𝑎𝑟</tspan></text><path d="M7.50009-1.5 248.882-1.4999 248.882 1.5001 7.50009 1.5ZM9 4.5 0 0 9-4.5ZM247.382-4.4999 256.382 0.000104987 247.382 4.5001Z" transform="matrix(1 0 0 -1 320.5 258.5)"/><text font-family="Cambria Math,Cambria Math_MSFontService,sans-serif" font-weight="400" font-size="24" transform="translate(393.742 238)">𝑁<tspan font-size="18" x="15.5067" y="4">𝑝𝑎𝑟</tspan><tspan font-family="Calibri,Calibri_MSFontService,sans-serif" x="53.8867" y="0">pixels</tspan></text><path d="M576.5 398.5 572.75 413.5 324.25 413.5 320.5 398.5Z" stroke="#000000" stroke-width="3" stroke-miterlimit="8" fill="#FFFFFF" fill-rule="evenodd"/><path d="M352.833 334.5 352.833 389.799 352.167 389.799 352.167 334.5ZM356.5 388.466 352.5 396.466 348.5 388.466Z"/><path d="M0.333333-5.64756e-07 0.333427 55.2992-0.33324 55.2992-0.333333 5.64756e-07ZM4.00009 53.9659 0.000104987 61.9659-3.99991 53.9659Z" fill="#4472C4" transform="matrix(-1 -8.74228e-08 -8.74228e-08 1 416.5 334.5)"/><path d="M0.333333-5.64756e-07 0.333427 55.2992-0.33324 55.2992-0.333333 5.64756e-07ZM4.00009 53.9659 0.000104987 61.9659-3.99991 53.9659Z" fill="#ED7D31" transform="matrix(-1 -8.74228e-08 -8.74228e-08 1 480.5 334.5)"/><path d="M0.333333-5.64755e-07 0.333427 55.2993-0.33324 55.2993-0.333333 5.64755e-07ZM4.00009 53.966 0.000104987 61.966-3.99991 53.966Z" fill="#70AD47" transform="matrix(-1 -8.74228e-08 -8.74228e-08 1 544.5 334.5)"/><path d="M640.5 465.5 636.75 480.5 388.25 480.5 384.5 465.5Z" stroke="#000000" stroke-width="3" stroke-miterlimit="8" fill="#FFFFFF" fill-rule="evenodd"/><rect x="111.5" y="503.5" width="64" height="64" stroke="#000000" stroke-linejoin="round" stroke-miterlimit="10" fill="none"/><text font-family="Calibri,Calibri_MSFontService,sans-serif" font-weight="400" font-size="23" transform="translate(129.979 556)">val</text><rect x="111.5" y="503.5" width="64" height="24" stroke="#787878" stroke-width="1.33333" stroke-miterlimit="8" fill="#A5A5A5"/><text fill="#FFFFFF" font-family="Calibri,Calibri_MSFontService,sans-serif" font-weight="400" font-size="23" transform="translate(126.562 522)">pos</text><path d="M0-1.5 74.91-1.5 74.91 109.614 73.41 108.114 139.32 108.114 139.32 111.114 71.91 111.114 71.91 0 73.41 1.5 0 1.5ZM137.82 105.114 146.82 109.614 137.82 114.114Z" fill="#A5A5A5" transform="matrix(1 0 0 -1 175.5 515.114)"/><path d="M335.5 546.5C335.5 537.111 343.111 529.5 352.5 529.5 361.889 529.5 369.5 537.111 369.5 546.5 369.5 555.889 361.889 563.5 352.5 563.5 343.111 563.5 335.5 555.889 335.5 546.5Z" fill="#FFFFFF" fill-rule="evenodd"/><path d="M340.479 534.479 364.521 558.521M364.521 534.479 340.479 558.521" stroke="#000000" stroke-width="1.33333" stroke-miterlimit="8" fill="none" fill-rule="evenodd"/><path d="M335.5 546.5C335.5 537.111 343.111 529.5 352.5 529.5 361.889 529.5 369.5 537.111 369.5 546.5 369.5 555.889 361.889 563.5 352.5 563.5 343.111 563.5 335.5 555.889 335.5 546.5Z" stroke="#000000" stroke-width="1.33333" stroke-miterlimit="8" fill="none" fill-rule="evenodd"/><rect x="111.5" y="598.5" width="64" height="64" stroke="#000000" stroke-linejoin="round" stroke-miterlimit="10" fill="none"/><text font-family="Calibri,Calibri_MSFontService,sans-serif" font-weight="400" font-size="23" transform="translate(129.979 651)">val</text><rect x="111.5" y="598.5" width="64" height="24" stroke="#787878" stroke-width="1.33333" stroke-miterlimit="8" fill="#A5A5A5"/><text fill="#FFFFFF" font-family="Calibri,Calibri_MSFontService,sans-serif" font-weight="400" font-size="23" transform="translate(126.562 618)">pos</text><path d="M399.5 644.5C399.5 635.111 407.111 627.5 416.5 627.5 425.889 627.5 433.5 635.111 433.5 644.5 433.5 653.889 425.889 661.5 416.5 661.5 407.111 661.5 399.5 653.889 399.5 644.5Z" fill="#FFFFFF" fill-rule="evenodd"/><path d="M404.479 632.479 428.521 656.521M428.521 632.479 404.479 656.521" stroke="#000000" stroke-width="1.33333" stroke-miterlimit="8" fill="none" fill-rule="evenodd"/><path d="M399.5 644.5C399.5 635.111 407.111 627.5 416.5 627.5 425.889 627.5 433.5 635.111 433.5 644.5 433.5 653.889 425.889 661.5 416.5 661.5 407.111 661.5 399.5 653.889 399.5 644.5Z" stroke="#000000" stroke-width="1.33333" stroke-miterlimit="8" fill="none" fill-rule="evenodd"/><path d="M0.00360634-0.333314 217.319 2.01796 217.312 2.68459-0.00360634 0.333314ZM216.026-1.66291 223.982 2.42341 215.939 6.33663Z" transform="matrix(1 0 0 -1 175.5 646.923)"/><path d="M0-1.5 106.859-1.5 106.859 138.039 105.359 136.539 203.218 136.539 203.218 139.539 103.859 139.539 103.859 0 105.359 1.5 0 1.5ZM201.718 133.539 210.718 138.039 201.718 142.539Z" fill="#A5A5A5" transform="matrix(1 0 0 -1 175.5 610.539)"/><path d="M417 480 417 619.993 415 619.993 415 480ZM420 618.66 416 626.66 412 618.66Z"/><path d="M747.5 581.5C747.5 572.111 755.111 564.5 764.5 564.5 773.889 564.5 781.5 572.111 781.5 581.5 781.5 590.889 773.889 598.5 764.5 598.5 755.111 598.5 747.5 590.889 747.5 581.5Z" fill="#FFFFFF" fill-rule="evenodd"/><path d="M764.5 564.5 764.5 598.5M747.5 581.5 781.5 581.5" stroke="#000000" stroke-width="1.33333" stroke-miterlimit="8" fill="none" fill-rule="evenodd"/><path d="M747.5 581.5C747.5 572.111 755.111 564.5 764.5 564.5 773.889 564.5 781.5 572.111 781.5 581.5 781.5 590.889 773.889 598.5 764.5 598.5 755.111 598.5 747.5 590.889 747.5 581.5Z" stroke="#000000" stroke-width="1.33333" stroke-miterlimit="8" fill="none" fill-rule="evenodd"/><path d="M781 580 886.219 580 886.219 582 781 582ZM884.885 577 892.885 581 884.885 585Z"/><rect x="893.5" y="556.5" width="150" height="50" stroke="#000000" stroke-linejoin="round" stroke-miterlimit="10" fill="none"/><text font-family="Calibri,Calibri_MSFontService,sans-serif" font-weight="400" font-size="24" transform="translate(906.136 589)">Accumulator</text><path d="M353 413 353 522.78 351 522.78 351 413ZM356 521.447 352 529.447 348 521.447Z"/><path d="M175 545 328.275 545 328.275 547 175 547ZM326.942 542 334.942 546 326.942 550Z"/><path d="M369 545 753.298 545 753.298 562.293 751.298 562.293 751.298 546 752.298 547 369 547ZM756.298 560.96 752.298 568.96 748.298 560.96Z"/><path d="M0-1 320.258-1 320.258 43.5539 318.258 43.5539 318.258 0 319.258 1 0 1ZM323.258 42.2206 319.258 50.2206 315.258 42.2206Z" transform="matrix(1 0 0 -1 433 643.221)"/><path d="M1.5 7.49995 1.5001 151.986-1.4999 151.986-1.49999 7.49996ZM-4.49999 9 0 0 4.50001 9ZM4.5001 150.486 0.000104987 159.486-4.4999 150.486Z" transform="matrix(1 0 0 -1 102.5 662.986)"/><text font-family="Cambria Math,Cambria Math_MSFontService,sans-serif" font-weight="400" font-size="24" transform="translate(101.311 497)">𝑤𝑒𝑖𝑔ℎ<tspan x="65.58" y="0">𝑡</tspan><tspan font-size="18" x="74.7267" y="4">0</tspan><tspan x="10.0066" y="96">𝑤𝑒𝑖𝑔ℎ</tspan><tspan x="75.5866" y="96">𝑡</tspan><tspan font-size="18" x="84.7333" y="101">𝑁</tspan><tspan font-size="14" x="96.9599" y="104">𝑛𝑝</tspan></text></g></svg>