<svg width="1085" height="279" xmlns="http://www.w3.org/2000/svg" xmlns:xlink="http://www.w3.org/1999/xlink" overflow="hidden"><defs><clipPath id="clip0"><path d="M3 218 1088 218 1088 497 3 497Z" fill-rule="evenodd" clip-rule="evenodd"/></clipPath></defs><g clip-path="url(#clip0)" transform="translate(-3 -218)"><rect x="404.5" y="289.25" width="206.25" height="207.25" fill="#4472C4"/><path d="M610.75 289.25 679.5 220.5 679.5 427.75 610.75 496.5Z" fill="#375C9E" fill-rule="evenodd"/><path d="M404.5 289.25 473.25 220.5 679.5 220.5 610.75 289.25Z" fill="#698ED0" fill-rule="evenodd"/><path d="M404.5 289.25 473.25 220.5 679.5 220.5 679.5 427.75 610.75 496.5 404.5 496.5ZM404.5 289.25 610.75 289.25 679.5 220.5M610.75 289.25 610.75 496.5" stroke="#2F528F" stroke-width="1.33333" stroke-miterlimit="8" fill="none" fill-rule="evenodd"/><text fill="#FFFFFF" font-family="Calibri,Calibri_MSFontService,sans-serif" font-weight="400" font-size="24" transform="translate(464.178 261)">Multiplier <tspan x="101.667" y="0">array</tspan></text><path d="M418.5 321.5C418.5 311.007 426.783 302.5 437 302.5 447.217 302.5 455.5 311.007 455.5 321.5 455.5 331.993 447.217 340.5 437 340.5 426.783 340.5 418.5 331.993 418.5 321.5Z" fill="#FFFFFF" fill-rule="evenodd"/><path d="M423.919 308.065 450.082 334.935M450.082 308.065 423.919 334.935" stroke="#000000" stroke-width="1.33333" stroke-miterlimit="8" fill="none" fill-rule="evenodd"/><path d="M418.5 321.5C418.5 311.007 426.783 302.5 437 302.5 447.217 302.5 455.5 311.007 455.5 321.5 455.5 331.993 447.217 340.5 437 340.5 426.783 340.5 418.5 331.993 418.5 321.5Z" stroke="#000000" stroke-width="1.33333" stroke-miterlimit="8" fill="none" fill-rule="evenodd"/><path d="M488.5 321.5C488.5 311.007 497.007 302.5 507.5 302.5 517.993 302.5 526.5 311.007 526.5 321.5 526.5 331.993 517.993 340.5 507.5 340.5 497.007 340.5 488.5 331.993 488.5 321.5Z" fill="#FFFFFF" fill-rule="evenodd"/><path d="M494.065 308.065 520.935 334.935M520.935 308.065 494.065 334.935" stroke="#000000" stroke-width="1.33333" stroke-miterlimit="8" fill="none" fill-rule="evenodd"/><path d="M488.5 321.5C488.5 311.007 497.007 302.5 507.5 302.5 517.993 302.5 526.5 311.007 526.5 321.5 526.5 331.993 517.993 340.5 507.5 340.5 497.007 340.5 488.5 331.993 488.5 321.5Z" stroke="#000000" stroke-width="1.33333" stroke-miterlimit="8" fill="none" fill-rule="evenodd"/><path d="M559.5 321.5C559.5 311.007 568.007 302.5 578.5 302.5 588.993 302.5 597.5 311.007 597.5 321.5 597.5 331.993 588.993 340.5 578.5 340.5 568.007 340.5 559.5 331.993 559.5 321.5Z" fill="#FFFFFF" fill-rule="evenodd"/><path d="M565.065 308.065 591.935 334.935M591.935 308.065 565.065 334.935" stroke="#000000" stroke-width="1.33333" stroke-miterlimit="8" fill="none" fill-rule="evenodd"/><path d="M559.5 321.5C559.5 311.007 568.007 302.5 578.5 302.5 588.993 302.5 597.5 311.007 597.5 321.5 597.5 331.993 588.993 340.5 578.5 340.5 568.007 340.5 559.5 331.993 559.5 321.5Z" stroke="#000000" stroke-width="1.33333" stroke-miterlimit="8" fill="none" fill-rule="evenodd"/><path d="M418.5 390C418.5 379.783 426.783 371.5 437 371.5 447.217 371.5 455.5 379.783 455.5 390 455.5 400.217 447.217 408.5 437 408.5 426.783 408.5 418.5 400.217 418.5 390Z" fill="#FFFFFF" fill-rule="evenodd"/><path d="M423.919 376.919 450.082 403.082M450.082 376.919 423.919 403.082" stroke="#000000" stroke-width="1.33333" stroke-miterlimit="8" fill="none" fill-rule="evenodd"/><path d="M418.5 390C418.5 379.783 426.783 371.5 437 371.5 447.217 371.5 455.5 379.783 455.5 390 455.5 400.217 447.217 408.5 437 408.5 426.783 408.5 418.5 400.217 418.5 390Z" stroke="#000000" stroke-width="1.33333" stroke-miterlimit="8" fill="none" fill-rule="evenodd"/><path d="M418.5 458.5C418.5 448.007 426.783 439.5 437 439.5 447.217 439.5 455.5 448.007 455.5 458.5 455.5 468.993 447.217 477.5 437 477.5 426.783 477.5 418.5 468.993 418.5 458.5Z" fill="#FFFFFF" fill-rule="evenodd"/><path d="M423.919 445.065 450.082 471.935M450.082 445.065 423.919 471.935" stroke="#000000" stroke-width="1.33333" stroke-miterlimit="8" fill="none" fill-rule="evenodd"/><path d="M418.5 458.5C418.5 448.007 426.783 439.5 437 439.5 447.217 439.5 455.5 448.007 455.5 458.5 455.5 468.993 447.217 477.5 437 477.5 426.783 477.5 418.5 468.993 418.5 458.5Z" stroke="#000000" stroke-width="1.33333" stroke-miterlimit="8" fill="none" fill-rule="evenodd"/><path d="M488.5 390C488.5 379.783 497.007 371.5 507.5 371.5 517.993 371.5 526.5 379.783 526.5 390 526.5 400.217 517.993 408.5 507.5 408.5 497.007 408.5 488.5 400.217 488.5 390Z" fill="#FFFFFF" fill-rule="evenodd"/><path d="M494.065 376.919 520.935 403.082M520.935 376.919 494.065 403.082" stroke="#000000" stroke-width="1.33333" stroke-miterlimit="8" fill="none" fill-rule="evenodd"/><path d="M488.5 390C488.5 379.783 497.007 371.5 507.5 371.5 517.993 371.5 526.5 379.783 526.5 390 526.5 400.217 517.993 408.5 507.5 408.5 497.007 408.5 488.5 400.217 488.5 390Z" stroke="#000000" stroke-width="1.33333" stroke-miterlimit="8" fill="none" fill-rule="evenodd"/><path d="M488.5 458.5C488.5 448.007 497.007 439.5 507.5 439.5 517.993 439.5 526.5 448.007 526.5 458.5 526.5 468.993 517.993 477.5 507.5 477.5 497.007 477.5 488.5 468.993 488.5 458.5Z" fill="#FFFFFF" fill-rule="evenodd"/><path d="M494.065 445.065 520.935 471.935M520.935 445.065 494.065 471.935" stroke="#000000" stroke-width="1.33333" stroke-miterlimit="8" fill="none" fill-rule="evenodd"/><path d="M488.5 458.5C488.5 448.007 497.007 439.5 507.5 439.5 517.993 439.5 526.5 448.007 526.5 458.5 526.5 468.993 517.993 477.5 507.5 477.5 497.007 477.5 488.5 468.993 488.5 458.5Z" stroke="#000000" stroke-width="1.33333" stroke-miterlimit="8" fill="none" fill-rule="evenodd"/><path d="M559.5 390C559.5 379.783 568.007 371.5 578.5 371.5 588.993 371.5 597.5 379.783 597.5 390 597.5 400.217 588.993 408.5 578.5 408.5 568.007 408.5 559.5 400.217 559.5 390Z" fill="#FFFFFF" fill-rule="evenodd"/><path d="M565.065 376.919 591.935 403.082M591.935 376.919 565.065 403.082" stroke="#000000" stroke-width="1.33333" stroke-miterlimit="8" fill="none" fill-rule="evenodd"/><path d="M559.5 390C559.5 379.783 568.007 371.5 578.5 371.5 588.993 371.5 597.5 379.783 597.5 390 597.5 400.217 588.993 408.5 578.5 408.5 568.007 408.5 559.5 400.217 559.5 390Z" stroke="#000000" stroke-width="1.33333" stroke-miterlimit="8" fill="none" fill-rule="evenodd"/><path d="M559.5 458.5C559.5 448.007 568.007 439.5 578.5 439.5 588.993 439.5 597.5 448.007 597.5 458.5 597.5 468.993 588.993 477.5 578.5 477.5 568.007 477.5 559.5 468.993 559.5 458.5Z" fill="#FFFFFF" fill-rule="evenodd"/><path d="M565.065 445.065 591.935 471.935M591.935 445.065 565.065 471.935" stroke="#000000" stroke-width="1.33333" stroke-miterlimit="8" fill="none" fill-rule="evenodd"/><path d="M559.5 458.5C559.5 448.007 568.007 439.5 578.5 439.5 588.993 439.5 597.5 448.007 597.5 458.5 597.5 468.993 588.993 477.5 578.5 477.5 568.007 477.5 559.5 468.993 559.5 458.5Z" stroke="#000000" stroke-width="1.33333" stroke-miterlimit="8" fill="none" fill-rule="evenodd"/><path d="M282.5 309.25 356 309.25 356 297.5 379.5 321 356 344.5 356 332.75 282.5 332.75Z" stroke="#507E32" stroke-width="1.33333" stroke-miterlimit="8" fill="#70AD47" fill-rule="evenodd"/><path d="M284.5 447.25 358 447.25 358 435.5 381.5 459 358 482.5 358 470.75 284.5 470.75Z" stroke="#507E32" stroke-width="1.33333" stroke-miterlimit="8" fill="#70AD47" fill-rule="evenodd"/><rect x="21.5001" y="309.25" width="224.25" height="35.2501" fill="#70AD47"/><path d="M245.75 309.25 257.5 297.5 257.5 332.75 245.75 344.5Z" fill="#5A8B39" fill-rule="evenodd"/><path d="M21.5001 309.25 33.25 297.5 257.5 297.5 245.75 309.25Z" fill="#8CBD6B" fill-rule="evenodd"/><path d="M21.5001 309.25 33.25 297.5 257.5 297.5 257.5 332.75 245.75 344.5 21.5001 344.5ZM21.5001 309.25 245.75 309.25 257.5 297.5M245.75 309.25 245.75 344.5" stroke="#507E32" stroke-width="1.33333" stroke-miterlimit="8" fill="none" fill-rule="evenodd"/><text fill="#FFFFFF" font-family="Calibri,Calibri_MSFontService,sans-serif" font-weight="400" font-size="24" transform="translate(39.6115 334)">Intermediate<tspan x="132.373" y="0">pixel</tspan>s</text><path d="M37 394 230.423 394 230.423 400 37 400ZM40 406 22 397 40 388ZM227.423 388 245.423 397 227.423 406Z"/><rect x="16.5001" y="447.25" width="223.25" height="35.25" fill="#70AD47"/><path d="M239.75 447.25 251.5 435.5 251.5 470.75 239.75 482.5Z" fill="#5A8B39" fill-rule="evenodd"/><path d="M16.5001 447.25 28.2501 435.5 251.5 435.5 239.75 447.25Z" fill="#8CBD6B" fill-rule="evenodd"/><path d="M16.5001 447.25 28.2501 435.5 251.5 435.5 251.5 470.75 239.75 482.5 16.5001 482.5ZM16.5001 447.25 239.75 447.25 251.5 435.5M239.75 447.25 239.75 482.5" stroke="#507E32" stroke-width="1.33333" stroke-miterlimit="8" fill="none" fill-rule="evenodd"/><text fill="#FFFFFF" font-family="Calibri,Calibri_MSFontService,sans-serif" font-weight="400" font-size="24" transform="translate(35.2114 472)">Depthwise<tspan x="109.393" y="0">weights</tspan><tspan fill="#000000" font-family="Cambria Math,Cambria Math_MSFontService,sans-serif" x="13.4283" y="-93">ğ‘</tspan><tspan fill="#000000" font-family="Cambria Math,Cambria Math_MSFontService,sans-serif" font-size="18" x="28.935" y="-88">ğ‘ğ‘ğ‘Ÿ</tspan><tspan fill="#000000" font-family="Cambria Math,Cambria Math_MSFontService,sans-serif" x="67.1483" y="-93">Ã—</tspan><tspan fill="#000000" font-family="Cambria Math,Cambria Math_MSFontService,sans-serif" x="89.6483" y="-93">ğ‘</tspan><tspan fill="#000000" font-family="Cambria Math,Cambria Math_MSFontService,sans-serif" font-size="18" x="105.155" y="-88">ğ‘˜ğ‘¥</tspan><tspan fill="#000000" font-family="Cambria Math,Cambria Math_MSFontService,sans-serif" x="132.948" y="-93">Ã—</tspan><tspan fill="#000000" font-family="Cambria Math,Cambria Math_MSFontService,sans-serif" x="155.448" y="-93">ğ‘</tspan><tspan fill="#000000" font-family="Cambria Math,Cambria Math_MSFontService,sans-serif" font-size="18" x="170.955" y="-88">ğ‘˜ğ‘¦</tspan></text><rect x="802.5" y="220.5" width="81" height="276" stroke="#AE5A21" stroke-width="1.33333" stroke-miterlimit="8" fill="#ED7D31"/><text fill="#FFFFFF" font-family="Calibri,Calibri_MSFontService,sans-serif" font-weight="400" font-size="24" transform="matrix(6.12323e-17 -1 1 6.12323e-17 850.227 410)">Adder<tspan x="65" y="-3.9801e-15">tree</tspan></text><path d="M692.5 363.25 766 363.25 766 351.5 789.5 375 766 398.5 766 386.75 692.5 386.75Z" stroke="#2F528F" stroke-width="1.33333" stroke-miterlimit="8" fill="#4472C4" fill-rule="evenodd"/><path d="M896.5 363.25 970 363.25 970 351.5 993.5 375 970 398.5 970 386.75 896.5 386.75Z" stroke="#AE5A21" stroke-width="1.33333" stroke-miterlimit="8" fill="#ED7D31" fill-rule="evenodd"/><rect x="1006.5" y="219.5" width="80.9999" height="276" stroke="#787878" stroke-width="1.33333" stroke-miterlimit="8" fill="#A5A5A5"/><text fill="#FFFFFF" font-family="Calibri,Calibri_MSFontService,sans-serif" font-weight="400" font-size="24" transform="matrix(6.12323e-17 -1 1 6.12323e-17 1053.92 391)">ReLU<tspan x="55" y="-3.36778e-15">6</tspan></text></g></svg>