<svg width="1148" height="682" xmlns="http://www.w3.org/2000/svg" xmlns:xlink="http://www.w3.org/1999/xlink" overflow="hidden"><defs><clipPath id="clip0"><path d="M132-1 1280-1 1280 681 132 681Z" fill-rule="evenodd" clip-rule="evenodd"/></clipPath></defs><g clip-path="url(#clip0)" transform="translate(-132 1)"><text font-family="Calibri,Calibri_MSFontService,sans-serif" font-weight="400" font-size="24" transform="translate(1098.19 346)">padding</text><path d="M292.5 611C292.5 615.694 457.259 619.5 660.5 619.5 863.741 619.5 1028.5 615.694 1028.5 611L1028.5 662C1028.5 666.695 863.741 670.5 660.5 670.5 457.259 670.5 292.5 666.695 292.5 662Z" fill="#4472C4" fill-rule="evenodd"/><path d="M292.5 611C292.5 606.306 457.259 602.5 660.5 602.5 863.741 602.5 1028.5 606.306 1028.5 611 1028.5 615.694 863.741 619.5 660.5 619.5 457.259 619.5 292.5 615.694 292.5 611Z" fill="#8FAADC" fill-rule="evenodd"/><path d="M1028.5 611C1028.5 615.694 863.741 619.5 660.5 619.5 457.259 619.5 292.5 615.694 292.5 611 292.5 606.306 457.259 602.5 660.5 602.5 863.741 602.5 1028.5 606.306 1028.5 611ZM1028.5 611 1028.5 662C1028.5 666.695 863.741 670.5 660.5 670.5 457.259 670.5 292.5 666.695 292.5 662L292.5 611" stroke="#2F528F" stroke-width="1.33333" stroke-miterlimit="8" fill="none" fill-rule="evenodd"/><text fill="#FFFFFF" font-family="Calibri,Calibri_MSFontService,sans-serif" font-weight="400" font-size="24" transform="translate(517.956 648)">Standard convolution kernels</text><path d="M292.5 560.875C292.5 565.5 457.259 569.25 660.5 569.25 863.741 569.25 1028.5 565.5 1028.5 560.875L1028.5 611.125C1028.5 615.75 863.741 619.5 660.5 619.5 457.259 619.5 292.5 615.75 292.5 611.125Z" fill="#FFFFFF" fill-rule="evenodd"/><path d="M292.5 560.875C292.5 556.25 457.259 552.5 660.5 552.5 863.741 552.5 1028.5 556.25 1028.5 560.875 1028.5 565.5 863.741 569.25 660.5 569.25 457.259 569.25 292.5 565.5 292.5 560.875Z" fill="#FFFFFF" fill-rule="evenodd"/><path d="M1028.5 560.875C1028.5 565.5 863.741 569.25 660.5 569.25 457.259 569.25 292.5 565.5 292.5 560.875 292.5 556.25 457.259 552.5 660.5 552.5 863.741 552.5 1028.5 556.25 1028.5 560.875ZM1028.5 560.875 1028.5 611.125C1028.5 615.75 863.741 619.5 660.5 619.5 457.259 619.5 292.5 615.75 292.5 611.125L292.5 560.875" stroke="#4472C4" stroke-width="1.33333" stroke-miterlimit="8" fill="none" fill-rule="evenodd"/><path d="M292.5 510C292.5 514.694 457.259 518.5 660.5 518.5 863.741 518.5 1028.5 514.694 1028.5 510L1028.5 561C1028.5 565.695 863.741 569.5 660.5 569.5 457.259 569.5 292.5 565.695 292.5 561Z" fill="#4472C4" fill-rule="evenodd"/><path d="M292.5 510C292.5 505.306 457.259 501.5 660.5 501.5 863.741 501.5 1028.5 505.306 1028.5 510 1028.5 514.694 863.741 518.5 660.5 518.5 457.259 518.5 292.5 514.694 292.5 510Z" fill="#8FAADC" fill-rule="evenodd"/><path d="M1028.5 510C1028.5 514.694 863.741 518.5 660.5 518.5 457.259 518.5 292.5 514.694 292.5 510 292.5 505.306 457.259 501.5 660.5 501.5 863.741 501.5 1028.5 505.306 1028.5 510ZM1028.5 510 1028.5 561C1028.5 565.695 863.741 569.5 660.5 569.5 457.259 569.5 292.5 565.695 292.5 561L292.5 510" stroke="#2F528F" stroke-width="1.33333" stroke-miterlimit="8" fill="none" fill-rule="evenodd"/><text fill="#FFFFFF" font-family="Calibri,Calibri_MSFontService,sans-serif" font-weight="400" font-size="24" transform="translate(566.233 547)">Depthtwise<tspan x="117.34" y="0">kernels</tspan></text><path d="M292.5 462C292.5 466.694 457.259 470.5 660.5 470.5 863.741 470.5 1028.5 466.694 1028.5 462L1028.5 513C1028.5 517.695 863.741 521.5 660.5 521.5 457.259 521.5 292.5 517.695 292.5 513Z" fill="#FFFFFF" fill-rule="evenodd"/><path d="M292.5 462C292.5 457.306 457.259 453.5 660.5 453.5 863.741 453.5 1028.5 457.306 1028.5 462 1028.5 466.694 863.741 470.5 660.5 470.5 457.259 470.5 292.5 466.694 292.5 462Z" fill="#FFFFFF" fill-rule="evenodd"/><path d="M1028.5 462C1028.5 466.694 863.741 470.5 660.5 470.5 457.259 470.5 292.5 466.694 292.5 462 292.5 457.306 457.259 453.5 660.5 453.5 863.741 453.5 1028.5 457.306 1028.5 462ZM1028.5 462 1028.5 513C1028.5 517.695 863.741 521.5 660.5 521.5 457.259 521.5 292.5 517.695 292.5 513L292.5 462" stroke="#4472C4" stroke-width="1.33333" stroke-miterlimit="8" fill="none" fill-rule="evenodd"/><path d="M292.5 411.875C292.5 416.5 457.259 420.25 660.5 420.25 863.741 420.25 1028.5 416.5 1028.5 411.875L1028.5 462.125C1028.5 466.75 863.741 470.5 660.5 470.5 457.259 470.5 292.5 466.75 292.5 462.125Z" fill="#4472C4" fill-rule="evenodd"/><path d="M292.5 411.875C292.5 407.25 457.259 403.5 660.5 403.5 863.741 403.5 1028.5 407.25 1028.5 411.875 1028.5 416.5 863.741 420.25 660.5 420.25 457.259 420.25 292.5 416.5 292.5 411.875Z" fill="#8FAADC" fill-rule="evenodd"/><path d="M1028.5 411.875C1028.5 416.5 863.741 420.25 660.5 420.25 457.259 420.25 292.5 416.5 292.5 411.875 292.5 407.25 457.259 403.5 660.5 403.5 863.741 403.5 1028.5 407.25 1028.5 411.875ZM1028.5 411.875 1028.5 462.125C1028.5 466.75 863.741 470.5 660.5 470.5 457.259 470.5 292.5 466.75 292.5 462.125L292.5 411.875" stroke="#2F528F" stroke-width="1.33333" stroke-miterlimit="8" fill="none" fill-rule="evenodd"/><text fill="#FFFFFF" font-family="Calibri,Calibri_MSFontService,sans-serif" font-weight="400" font-size="24" transform="translate(574.92 448)">Pointwis<tspan x="82.4667" y="0">e</tspan><tspan x="99.9667" y="0">kernels</tspan></text><path d="M292.5 361C292.5 365.694 457.259 369.5 660.5 369.5 863.741 369.5 1028.5 365.694 1028.5 361L1028.5 412C1028.5 416.695 863.741 420.5 660.5 420.5 457.259 420.5 292.5 416.695 292.5 412Z" fill="#FFFFFF" fill-rule="evenodd"/><path d="M292.5 361C292.5 356.306 457.259 352.5 660.5 352.5 863.741 352.5 1028.5 356.306 1028.5 361 1028.5 365.694 863.741 369.5 660.5 369.5 457.259 369.5 292.5 365.694 292.5 361Z" fill="#FFFFFF" fill-rule="evenodd"/><path d="M1028.5 361C1028.5 365.694 863.741 369.5 660.5 369.5 457.259 369.5 292.5 365.694 292.5 361 292.5 356.306 457.259 352.5 660.5 352.5 863.741 352.5 1028.5 356.306 1028.5 361ZM1028.5 361 1028.5 412C1028.5 416.695 863.741 420.5 660.5 420.5 457.259 420.5 292.5 416.695 292.5 412L292.5 361" stroke="#4472C4" stroke-width="1.33333" stroke-miterlimit="8" fill="none" fill-rule="evenodd"/><path d="M292.5 311C292.5 315.694 457.259 319.5 660.5 319.5 863.741 319.5 1028.5 315.694 1028.5 311L1028.5 362C1028.5 366.695 863.741 370.5 660.5 370.5 457.259 370.5 292.5 366.695 292.5 362Z" fill="#4472C4" fill-rule="evenodd"/><path d="M292.5 311C292.5 306.306 457.259 302.5 660.5 302.5 863.741 302.5 1028.5 306.306 1028.5 311 1028.5 315.694 863.741 319.5 660.5 319.5 457.259 319.5 292.5 315.694 292.5 311Z" fill="#8FAADC" fill-rule="evenodd"/><path d="M1028.5 311C1028.5 315.694 863.741 319.5 660.5 319.5 457.259 319.5 292.5 315.694 292.5 311 292.5 306.306 457.259 302.5 660.5 302.5 863.741 302.5 1028.5 306.306 1028.5 311ZM1028.5 311 1028.5 362C1028.5 366.695 863.741 370.5 660.5 370.5 457.259 370.5 292.5 366.695 292.5 362L292.5 311" stroke="#2F528F" stroke-width="1.33333" stroke-miterlimit="8" fill="none" fill-rule="evenodd"/><text fill="#FFFFFF" font-family="Cambria Math,Cambria Math_MSFontService,sans-serif" font-weight="400" font-size="24" transform="translate(542.653 349)">1<tspan x="18.6667" y="0">×</tspan><tspan x="41.1667" y="0">1</tspan><tspan font-family="Calibri,Calibri_MSFontService,sans-serif" x="60" y="0">Expansion kernels</tspan></text><path d="M292.5 260.875C292.5 265.5 457.259 269.25 660.5 269.25 863.741 269.25 1028.5 265.5 1028.5 260.875L1028.5 311.125C1028.5 315.75 863.741 319.5 660.5 319.5 457.259 319.5 292.5 315.75 292.5 311.125Z" fill="#FFFFFF" fill-rule="evenodd"/><path d="M292.5 260.875C292.5 256.25 457.259 252.5 660.5 252.5 863.741 252.5 1028.5 256.25 1028.5 260.875 1028.5 265.5 863.741 269.25 660.5 269.25 457.259 269.25 292.5 265.5 292.5 260.875Z" fill="#FFFFFF" fill-rule="evenodd"/><path d="M1028.5 260.875C1028.5 265.5 863.741 269.25 660.5 269.25 457.259 269.25 292.5 265.5 292.5 260.875 292.5 256.25 457.259 252.5 660.5 252.5 863.741 252.5 1028.5 256.25 1028.5 260.875ZM1028.5 260.875 1028.5 311.125C1028.5 315.75 863.741 319.5 660.5 319.5 457.259 319.5 292.5 315.75 292.5 311.125L292.5 260.875" stroke="#4472C4" stroke-width="1.33333" stroke-miterlimit="8" fill="none" fill-rule="evenodd"/><path d="M292.5 210C292.5 214.694 457.259 218.5 660.5 218.5 863.741 218.5 1028.5 214.694 1028.5 210L1028.5 261C1028.5 265.695 863.741 269.5 660.5 269.5 457.259 269.5 292.5 265.695 292.5 261Z" fill="#4472C4" fill-rule="evenodd"/><path d="M292.5 210C292.5 205.306 457.259 201.5 660.5 201.5 863.741 201.5 1028.5 205.306 1028.5 210 1028.5 214.694 863.741 218.5 660.5 218.5 457.259 218.5 292.5 214.694 292.5 210Z" fill="#8FAADC" fill-rule="evenodd"/><path d="M1028.5 210C1028.5 214.694 863.741 218.5 660.5 218.5 457.259 218.5 292.5 214.694 292.5 210 292.5 205.306 457.259 201.5 660.5 201.5 863.741 201.5 1028.5 205.306 1028.5 210ZM1028.5 210 1028.5 261C1028.5 265.695 863.741 269.5 660.5 269.5 457.259 269.5 292.5 265.695 292.5 261L292.5 210" stroke="#2F528F" stroke-width="1.33333" stroke-miterlimit="8" fill="none" fill-rule="evenodd"/><text fill="#FFFFFF" font-family="Calibri,Calibri_MSFontService,sans-serif" font-weight="400" font-size="24" transform="translate(612.766 247)">FMO/FMI</text><path d="M292.5 160C292.5 164.694 457.259 168.5 660.5 168.5 863.741 168.5 1028.5 164.694 1028.5 160L1028.5 211C1028.5 215.695 863.741 219.5 660.5 219.5 457.259 219.5 292.5 215.695 292.5 211Z" fill="#FFFFFF" fill-rule="evenodd"/><path d="M292.5 160C292.5 155.306 457.259 151.5 660.5 151.5 863.741 151.5 1028.5 155.306 1028.5 160 1028.5 164.694 863.741 168.5 660.5 168.5 457.259 168.5 292.5 164.694 292.5 160Z" fill="#FFFFFF" fill-rule="evenodd"/><path d="M1028.5 160C1028.5 164.694 863.741 168.5 660.5 168.5 457.259 168.5 292.5 164.694 292.5 160 292.5 155.306 457.259 151.5 660.5 151.5 863.741 151.5 1028.5 155.306 1028.5 160ZM1028.5 160 1028.5 211C1028.5 215.695 863.741 219.5 660.5 219.5 457.259 219.5 292.5 215.695 292.5 211L292.5 160" stroke="#4472C4" stroke-width="1.33333" stroke-miterlimit="8" fill="none" fill-rule="evenodd"/><path d="M292.5 109.875C292.5 114.5 457.259 118.25 660.5 118.25 863.741 118.25 1028.5 114.5 1028.5 109.875L1028.5 160.125C1028.5 164.75 863.741 168.5 660.5 168.5 457.259 168.5 292.5 164.75 292.5 160.125Z" fill="#4472C4" fill-rule="evenodd"/><path d="M292.5 109.875C292.5 105.25 457.259 101.5 660.5 101.5 863.741 101.5 1028.5 105.25 1028.5 109.875 1028.5 114.5 863.741 118.25 660.5 118.25 457.259 118.25 292.5 114.5 292.5 109.875Z" fill="#8FAADC" fill-rule="evenodd"/><path d="M1028.5 109.875C1028.5 114.5 863.741 118.25 660.5 118.25 457.259 118.25 292.5 114.5 292.5 109.875 292.5 105.25 457.259 101.5 660.5 101.5 863.741 101.5 1028.5 105.25 1028.5 109.875ZM1028.5 109.875 1028.5 160.125C1028.5 164.75 863.741 168.5 660.5 168.5 457.259 168.5 292.5 164.75 292.5 160.125L292.5 109.875" stroke="#2F528F" stroke-width="1.33333" stroke-miterlimit="8" fill="none" fill-rule="evenodd"/><text fill="#FFFFFF" font-family="Calibri,Calibri_MSFontService,sans-serif" font-weight="400" font-size="24" transform="translate(612.766 146)">FMI/FMO</text><path d="M292.5 58.9999C292.5 63.6942 457.259 67.4996 660.5 67.4996 863.741 67.4996 1028.5 63.6942 1028.5 58.9999L1028.5 110C1028.5 114.695 863.741 118.5 660.5 118.5 457.259 118.5 292.5 114.695 292.5 110Z" fill="#FFFFFF" fill-rule="evenodd"/><path d="M292.5 58.9999C292.5 54.3055 457.259 50.5001 660.5 50.5001 863.741 50.5001 1028.5 54.3055 1028.5 58.9999 1028.5 63.6942 863.741 67.4996 660.5 67.4996 457.259 67.4996 292.5 63.6942 292.5 58.9999Z" fill="#FFFFFF" fill-rule="evenodd"/><path d="M1028.5 58.9999C1028.5 63.6942 863.741 67.4996 660.5 67.4996 457.259 67.4996 292.5 63.6942 292.5 58.9999 292.5 54.3055 457.259 50.5001 660.5 50.5001 863.741 50.5001 1028.5 54.3055 1028.5 58.9999ZM1028.5 58.9999 1028.5 110C1028.5 114.695 863.741 118.5 660.5 118.5 457.259 118.5 292.5 114.695 292.5 110L292.5 58.9999" stroke="#4472C4" stroke-width="1.33333" stroke-miterlimit="8" fill="none" fill-rule="evenodd"/><path d="M292.5 8.99985C292.5 13.6942 457.259 17.4996 660.5 17.4996 863.741 17.4996 1028.5 13.6942 1028.5 8.99985L1028.5 60.0003C1028.5 64.6946 863.741 68.5 660.5 68.5 457.259 68.5 292.5 64.6946 292.5 60.0003Z" fill="#4472C4" fill-rule="evenodd"/><path d="M292.5 8.99985C292.5 4.30554 457.259 0.500053 660.5 0.500053 863.741 0.500053 1028.5 4.30554 1028.5 8.99985 1028.5 13.6942 863.741 17.4996 660.5 17.4996 457.259 17.4996 292.5 13.6942 292.5 8.99985Z" fill="#8FAADC" fill-rule="evenodd"/><path d="M1028.5 8.99985C1028.5 13.6942 863.741 17.4996 660.5 17.4996 457.259 17.4996 292.5 13.6942 292.5 8.99985 292.5 4.30554 457.259 0.500053 660.5 0.500053 863.741 0.500053 1028.5 4.30554 1028.5 8.99985ZM1028.5 8.99985 1028.5 60.0003C1028.5 64.6946 863.741 68.5 660.5 68.5 457.259 68.5 292.5 64.6946 292.5 60.0003L292.5 8.99985" stroke="#2F528F" stroke-width="1.33333" stroke-miterlimit="8" fill="none" fill-rule="evenodd"/><text fill="#FFFFFF" font-family="Calibri,Calibri_MSFontService,sans-serif" font-weight="400" font-size="24" transform="translate(573.486 46)">Layer informatio<tspan x="160.06" y="0">n</tspan></text><path d="M1028 84 1040.15 84.4293" stroke="#4472C4" stroke-width="2" stroke-miterlimit="8" fill="none" fill-rule="evenodd"/><path d="M1028.5 586.5 1040.65 586.5" stroke="#4472C4" stroke-width="0.666667" stroke-miterlimit="8" fill="none" fill-rule="evenodd"/><path d="M0 0 0.000104987 501.362" stroke="#4472C4" stroke-width="2" stroke-miterlimit="8" fill="none" fill-rule="evenodd" transform="matrix(1 0 0 -1 1040 585.363)"/><path d="M1028 185 1040.15 185" stroke="#4472C4" stroke-width="2" stroke-miterlimit="8" fill="none" fill-rule="evenodd"/><path d="M1028 286 1040.15 286" stroke="#4472C4" stroke-width="2" stroke-miterlimit="8" fill="none" fill-rule="evenodd"/><path d="M0 0 34.1689 0.000104987" stroke="#4472C4" stroke-width="2" stroke-miterlimit="8" fill="none" fill-rule="evenodd" transform="matrix(1 0 0 -1 1040 336)"/><path d="M1028 386 1040.15 386.214" stroke="#4472C4" stroke-width="2" stroke-miterlimit="8" fill="none" fill-rule="evenodd"/><path d="M1028 487 1040.15 487" stroke="#4472C4" stroke-width="2" stroke-miterlimit="8" fill="none" fill-rule="evenodd"/><path d="M291.7 110 252 110" stroke="#4472C4" stroke-width="2" stroke-miterlimit="8" fill="none" fill-rule="evenodd"/><text font-family="Cambria Math,Cambria Math_MSFontService,sans-serif" font-weight="400" font-size="24" transform="translate(162.825 119)">2<tspan x="18.6667" y="0">×</tspan><tspan x="41.1667" y="0">2</tspan><tspan font-size="18" x="54.5" y="-9">20</tspan></text><path d="M291.7 212 252 212" stroke="#4472C4" stroke-width="2" stroke-miterlimit="8" fill="none" fill-rule="evenodd"/><text font-family="Cambria Math,Cambria Math_MSFontService,sans-serif" font-weight="400" font-size="24" transform="translate(162.825 220)">4<tspan x="18.6667" y="0">×</tspan><tspan x="41.1667" y="0">2</tspan><tspan font-size="18" x="54.5" y="-8">20</tspan></text><path d="M291.7 311 252 311" stroke="#4472C4" stroke-width="2" stroke-miterlimit="8" fill="none" fill-rule="evenodd"/><text font-family="Cambria Math,Cambria Math_MSFontService,sans-serif" font-weight="400" font-size="24" transform="translate(162.825 320)">6<tspan x="18.6667" y="0">×</tspan><tspan x="41.1667" y="0">2</tspan><tspan font-size="18" x="54.5" y="-9">20</tspan></text><path d="M291.7 413 252 413" stroke="#4472C4" stroke-width="2" stroke-miterlimit="8" fill="none" fill-rule="evenodd"/><text font-family="Cambria Math,Cambria Math_MSFontService,sans-serif" font-weight="400" font-size="24" transform="translate(147.758 421)">2<tspan x="13.3333" y="0">6</tspan><tspan x="32" y="0">×</tspan><tspan x="54.5" y="0">2</tspan><tspan font-size="18" x="67.8333" y="-9">20</tspan></text><path d="M291.7 514 252 514" stroke="#4472C4" stroke-width="2" stroke-miterlimit="8" fill="none" fill-rule="evenodd"/><text font-family="Cambria Math,Cambria Math_MSFontService,sans-serif" font-weight="400" font-size="24" transform="translate(147.758 522)">4<tspan x="13.3333" y="0">4</tspan><tspan x="32" y="0">×</tspan><tspan x="54.5" y="0">2</tspan><tspan font-size="18" x="67.8333" y="-9">20</tspan></text><path d="M291.7 611 252 611" stroke="#4472C4" stroke-width="2" stroke-miterlimit="8" fill="none" fill-rule="evenodd"/><text font-family="Cambria Math,Cambria Math_MSFontService,sans-serif" font-weight="400" font-size="24" transform="translate(147.758 619)">6<tspan x="13.3333" y="0">2</tspan><tspan x="32" y="0">×</tspan><tspan x="54.5" y="0">2</tspan><tspan font-size="18" x="67.8333" y="-8">20</tspan></text><path d="M291.7 660 252 660" stroke="#4472C4" stroke-width="2" stroke-miterlimit="8" fill="none" fill-rule="evenodd"/><text font-family="Cambria Math,Cambria Math_MSFontService,sans-serif" font-weight="400" font-size="24" transform="translate(147.758 669)">6<tspan x="13.3333" y="0">3</tspan><tspan x="32" y="0">×</tspan><tspan x="54.5" y="0">2</tspan><tspan font-size="18" x="67.8333" y="-9">20</tspan></text></g></svg>