<svg width="1041" height="682" xmlns="http://www.w3.org/2000/svg" xmlns:xlink="http://www.w3.org/1999/xlink" overflow="hidden"><defs><clipPath id="clip0"><path d="M55 11 1096 11 1096 693 55 693Z" fill-rule="evenodd" clip-rule="evenodd"/></clipPath></defs><g clip-path="url(#clip0)" transform="translate(-55 -11)"><text font-family="Cambria Math,Cambria Math_MSFontService,sans-serif" font-weight="400" font-size="24" transform="translate(111.276 162)">𝐹<tspan x="15.6067" y="0">𝑀</tspan><tspan font-size="18" x="34.7" y="5">𝐼𝑛</tspan><tspan font-size="18" x="36.18" y="-9">1</tspan><tspan x="-6.46" y="400">𝐹</tspan><tspan x="9.14667" y="400">𝑀</tspan><tspan font-size="18" x="28.24" y="408">𝐼𝑛</tspan><tspan font-size="18" x="30.2333" y="388">𝑁</tspan><tspan font-size="14" x="43.4" y="391">𝑖𝑛</tspan></text><rect x="364.5" y="13.5001" width="584" height="160" stroke="#000000" stroke-width="3" stroke-linejoin="round" stroke-miterlimit="10" stroke-dasharray="12 9" fill="none"/><rect x="378.5" y="29.5001" width="146" height="39" stroke="#000000" stroke-linejoin="round" stroke-miterlimit="10" fill="none"/><text font-family="Calibri,Calibri_MSFontService,sans-serif" font-weight="400" font-size="24" transform="translate(388.008 56)">Conv<tspan x="54.1" y="0">2D</tspan></text><rect x="378.5" y="118.5" width="146" height="39" stroke="#000000" stroke-linejoin="round" stroke-miterlimit="10" fill="none"/><text font-family="Calibri,Calibri_MSFontService,sans-serif" font-weight="400" font-size="24" transform="translate(388.008 145)">Conv<tspan x="54.1" y="0">2D</tspan></text><path d="M616.5 93.5001C616.5 76.3792 630.379 62.5001 647.5 62.5001 664.621 62.5001 678.5 76.3792 678.5 93.5001 678.5 110.621 664.621 124.5 647.5 124.5 630.379 124.5 616.5 110.621 616.5 93.5001Z" stroke="#000000" stroke-linejoin="round" stroke-miterlimit="10" fill="none" fill-rule="evenodd"/><text font-family="Cambria Math,Cambria Math_MSFontService,sans-serif" font-weight="400" font-size="24" transform="translate(635.631 102)">∑</text><rect x="740.5" y="74.5001" width="145" height="39" stroke="#000000" stroke-linejoin="round" stroke-miterlimit="10" fill="none"/><text font-family="Calibri,Calibri_MSFontService,sans-serif" font-weight="400" font-size="15" transform="translate(756.367 97)">Activation <tspan x="63.3334" y="0">function</tspan></text><path d="M448 76C448 74.3431 449.343 73 451 73 452.657 73 454 74.3431 454 76 454 77.6569 452.657 79 451 79 449.343 79 448 77.6569 448 76Z" fill-rule="evenodd"/><path d="M448 93C448 91.3431 449.343 90 451 90 452.657 90 454 91.3431 454 93 454 94.6569 452.657 96 451 96 449.343 96 448 94.6569 448 93Z" fill-rule="evenodd"/><path d="M448 109.5C448 108.119 449.343 107 451 107 452.657 107 454 108.119 454 109.5 454 110.881 452.657 112 451 112 449.343 112 448 110.881 448 109.5Z" fill-rule="evenodd"/><path d="M0.555895-0.831253 152.529 100.799 151.417 102.462-0.555895 0.831253ZM153.088 97.5646 157.515 105.337 148.641 104.215Z" transform="matrix(1 0 0 -1 221 153.337)"/><path d="M0.935332-0.35377 156.091 409.862 154.221 410.57-0.935332 0.35377ZM158.426 407.554 157.515 416.452 150.943 410.384Z" transform="matrix(1 0 0 -1 221 553.452)"/><path d="M524.221 47.0248 619.015 68.5539 618.572 70.5043 523.779 48.9752ZM618.379 65.3331 625.294 71.0056 616.607 73.1344Z"/><path d="M0.215062-0.9766 94.9984 19.8961 94.5683 21.8493-0.215062 0.9766ZM94.3414 16.6796 101.294 22.3065 92.6209 24.4924Z" transform="matrix(1 0 0 -1 524 137.306)"/><path d="M678 92 733.734 92.0001 733.734 94.0001 678 94ZM732.401 89.0001 740.401 93.0001 732.401 97.0001Z"/><path d="M885 92 970.654 92.0001 970.654 94.0001 885 94ZM969.321 89.0001 977.321 93.0001 969.321 97.0001Z"/><text font-family="Cambria Math,Cambria Math_MSFontService,sans-serif" font-weight="400" font-size="24" transform="translate(979.369 101)">𝐹<tspan x="15.6067" y="0">𝑀</tspan><tspan font-size="18" x="34.7" y="5">𝑂𝑢𝑡</tspan><tspan font-size="18" x="36.1801" y="-10">1</tspan></text><rect x="364.5" y="531.5" width="584" height="160" stroke="#000000" stroke-width="3" stroke-linejoin="round" stroke-miterlimit="10" stroke-dasharray="12 9" fill="none"/><rect x="378.5" y="547.5" width="146" height="38" stroke="#000000" stroke-linejoin="round" stroke-miterlimit="10" fill="none"/><text font-family="Calibri,Calibri_MSFontService,sans-serif" font-weight="400" font-size="24" transform="translate(388.008 573)">Conv<tspan x="54.1" y="0">2D</tspan></text><rect x="378.5" y="635.5" width="146" height="39" stroke="#000000" stroke-linejoin="round" stroke-miterlimit="10" fill="none"/><text font-family="Calibri,Calibri_MSFontService,sans-serif" font-weight="400" font-size="24" transform="translate(388.008 662)">Conv<tspan x="54.1" y="0">2D</tspan></text><path d="M616.5 611.5C616.5 594.379 630.379 580.5 647.5 580.5 664.621 580.5 678.5 594.379 678.5 611.5 678.5 628.621 664.621 642.5 647.5 642.5 630.379 642.5 616.5 628.621 616.5 611.5Z" stroke="#000000" stroke-linejoin="round" stroke-miterlimit="10" fill="none" fill-rule="evenodd"/><text font-family="Cambria Math,Cambria Math_MSFontService,sans-serif" font-weight="400" font-size="24" transform="translate(635.631 619)">∑</text><rect x="740.5" y="591.5" width="145" height="39" stroke="#000000" stroke-linejoin="round" stroke-miterlimit="10" fill="none"/><text font-family="Calibri,Calibri_MSFontService,sans-serif" font-weight="400" font-size="15" transform="translate(756.367 615)">Activation <tspan x="63.3334" y="0">function</tspan></text><path d="M448 594C448 592.343 449.343 591 451 591 452.657 591 454 592.343 454 594 454 595.657 452.657 597 451 597 449.343 597 448 595.657 448 594Z" fill-rule="evenodd"/><path d="M448 611C448 609.343 449.343 608 451 608 452.657 608 454 609.343 454 611 454 612.657 452.657 614 451 614 449.343 614 448 612.657 448 611Z" fill-rule="evenodd"/><path d="M448 627C448 625.343 449.343 624 451 624 452.657 624 454 625.343 454 627 454 628.657 452.657 630 451 630 449.343 630 448 628.657 448 627Z" fill-rule="evenodd"/><path d="M221.934 153.643 377.069 559.697 375.201 560.411 220.066 154.357ZM379.396 557.382 378.515 566.283 371.923 560.237Z"/><path d="M221.54 553.159 373.445 650.723 372.365 652.406 220.46 554.841ZM373.945 647.479 378.515 655.167 369.622 654.21Z"/><path d="M524.221 565.025 619.015 586.554 618.572 588.504 523.779 566.975ZM618.379 583.333 625.294 589.006 616.607 591.134Z"/><path d="M0.215062-0.9766 94.9984 19.8961 94.5683 21.8493-0.215062 0.9766ZM94.3414 16.6796 101.294 22.3065 92.6209 24.4924Z" transform="matrix(1 0 0 -1 524 655.306)"/><path d="M678 610 733.734 610 733.734 612 678 612ZM732.401 607 740.401 611 732.401 615Z"/><path d="M885 610 970.654 610 970.654 612 885 612ZM969.321 607 977.321 611 969.321 615Z"/><text font-family="Cambria Math,Cambria Math_MSFontService,sans-serif" font-weight="400" font-size="24" transform="translate(974.715 622)">𝐹<tspan x="15.6067" y="0">𝑀</tspan><tspan font-size="18" x="34.7" y="8">𝑂𝑢𝑡</tspan><tspan font-size="18" x="36.6934" y="-12">𝑁</tspan><tspan font-size="14" x="48.92" y="-9">𝑜𝑢𝑡</tspan></text><path d="M138 261.5C138 258.462 140.91 256 144.5 256 148.09 256 151 258.462 151 261.5 151 264.538 148.09 267 144.5 267 140.91 267 138 264.538 138 261.5Z" fill-rule="evenodd"/><path d="M139 350C139 346.686 141.686 344 145 344 148.314 344 151 346.686 151 350 151 353.314 148.314 356 145 356 141.686 356 139 353.314 139 350Z" fill-rule="evenodd"/><path d="M141 436C141 432.686 143.91 430 147.5 430 151.09 430 154 432.686 154 436 154 439.314 151.09 442 147.5 442 143.91 442 141 439.314 141 436Z" fill-rule="evenodd"/></g></svg>