<svg width="316" height="251" xmlns="http://www.w3.org/2000/svg" xmlns:xlink="http://www.w3.org/1999/xlink" overflow="hidden"><defs><clipPath id="clip0"><path d="M44 422 360 422 360 673 44 673Z" fill-rule="evenodd" clip-rule="evenodd"/></clipPath></defs><g clip-path="url(#clip0)" transform="translate(-44 -422)"><rect x="249.5" y="534.5" width="34" height="33" fill="#4472C4"/><path d="M283.5 534.5 294.5 523.5 294.5 556.5 283.5 567.5Z" fill="#375C9E" fill-rule="evenodd"/><path d="M249.5 534.5 260.5 523.5 294.5 523.5 283.5 534.5Z" fill="#698ED0" fill-rule="evenodd"/><path d="M249.5 534.5 260.5 523.5 294.5 523.5 294.5 556.5 283.5 567.5 249.5 567.5ZM249.5 534.5 283.5 534.5 294.5 523.5M283.5 534.5 283.5 567.5" stroke="#2F528F" stroke-width="1.33333" stroke-miterlimit="8" fill="none" fill-rule="evenodd"/><rect x="249.5" y="500.5" width="34" height="33" fill="#4472C4"/><path d="M283.5 500.5 294.5 489.5 294.5 522.5 283.5 533.5Z" fill="#375C9E" fill-rule="evenodd"/><path d="M249.5 500.5 260.5 489.5 294.5 489.5 283.5 500.5Z" fill="#698ED0" fill-rule="evenodd"/><path d="M249.5 500.5 260.5 489.5 294.5 489.5 294.5 522.5 283.5 533.5 249.5 533.5ZM249.5 500.5 283.5 500.5 294.5 489.5M283.5 500.5 283.5 533.5" stroke="#2F528F" stroke-width="1.33333" stroke-miterlimit="8" fill="none" fill-rule="evenodd"/><rect x="249.5" y="467.5" width="34" height="33" fill="#4472C4"/><path d="M283.5 467.5 294.5 456.5 294.5 489.5 283.5 500.5Z" fill="#375C9E" fill-rule="evenodd"/><path d="M249.5 467.5 260.5 456.5 294.5 456.5 283.5 467.5Z" fill="#698ED0" fill-rule="evenodd"/><path d="M249.5 467.5 260.5 456.5 294.5 456.5 294.5 489.5 283.5 500.5 249.5 500.5ZM249.5 467.5 283.5 467.5 294.5 456.5M283.5 467.5 283.5 500.5" stroke="#2F528F" stroke-width="1.33333" stroke-miterlimit="8" fill="none" fill-rule="evenodd"/><rect x="150.5" y="434.5" width="34" height="33" fill="#4472C4"/><path d="M184.5 434.5 195.5 423.5 195.5 456.5 184.5 467.5Z" fill="#375C9E" fill-rule="evenodd"/><path d="M150.5 434.5 161.5 423.5 195.5 423.5 184.5 434.5Z" fill="#698ED0" fill-rule="evenodd"/><path d="M150.5 434.5 161.5 423.5 195.5 423.5 195.5 456.5 184.5 467.5 150.5 467.5ZM150.5 434.5 184.5 434.5 195.5 423.5M184.5 434.5 184.5 467.5" stroke="#2F528F" stroke-width="1.33333" stroke-miterlimit="8" fill="none" fill-rule="evenodd"/><rect x="184.5" y="434.5" width="33" height="33" fill="#4472C4"/><path d="M217.5 434.5 228.5 423.5 228.5 456.5 217.5 467.5Z" fill="#375C9E" fill-rule="evenodd"/><path d="M184.5 434.5 195.5 423.5 228.5 423.5 217.5 434.5Z" fill="#698ED0" fill-rule="evenodd"/><path d="M184.5 434.5 195.5 423.5 228.5 423.5 228.5 456.5 217.5 467.5 184.5 467.5ZM184.5 434.5 217.5 434.5 228.5 423.5M217.5 434.5 217.5 467.5" stroke="#2F528F" stroke-width="1.33333" stroke-miterlimit="8" fill="none" fill-rule="evenodd"/><rect x="216.5" y="434.5" width="34" height="33" fill="#4472C4"/><path d="M250.5 434.5 261.5 423.5 261.5 456.5 250.5 467.5Z" fill="#375C9E" fill-rule="evenodd"/><path d="M216.5 434.5 227.5 423.5 261.5 423.5 250.5 434.5Z" fill="#698ED0" fill-rule="evenodd"/><path d="M216.5 434.5 227.5 423.5 261.5 423.5 261.5 456.5 250.5 467.5 216.5 467.5ZM216.5 434.5 250.5 434.5 261.5 423.5M250.5 434.5 250.5 467.5" stroke="#2F528F" stroke-width="1.33333" stroke-miterlimit="8" fill="none" fill-rule="evenodd"/><rect x="250.5" y="434.5" width="33" height="33" fill="#4472C4"/><path d="M283.5 434.5 294.5 423.5 294.5 456.5 283.5 467.5Z" fill="#375C9E" fill-rule="evenodd"/><path d="M250.5 434.5 261.5 423.5 294.5 423.5 283.5 434.5Z" fill="#698ED0" fill-rule="evenodd"/><path d="M250.5 434.5 261.5 423.5 294.5 423.5 294.5 456.5 283.5 467.5 250.5 467.5ZM250.5 434.5 283.5 434.5 294.5 423.5M283.5 434.5 283.5 467.5" stroke="#2F528F" stroke-width="1.33333" stroke-miterlimit="8" fill="none" fill-rule="evenodd"/><rect x="238.5" y="545.5" width="34" height="33" fill="#4472C4"/><path d="M272.5 545.5 283.5 534.5 283.5 567.5 272.5 578.5Z" fill="#375C9E" fill-rule="evenodd"/><path d="M238.5 545.5 249.5 534.5 283.5 534.5 272.5 545.5Z" fill="#698ED0" fill-rule="evenodd"/><path d="M238.5 545.5 249.5 534.5 283.5 534.5 283.5 567.5 272.5 578.5 238.5 578.5ZM238.5 545.5 272.5 545.5 283.5 534.5M272.5 545.5 272.5 578.5" stroke="#2F528F" stroke-width="1.33333" stroke-miterlimit="8" fill="none" fill-rule="evenodd"/><rect x="238.5" y="511.5" width="34" height="33" fill="#4472C4"/><path d="M272.5 511.5 283.5 500.5 283.5 533.5 272.5 544.5Z" fill="#375C9E" fill-rule="evenodd"/><path d="M238.5 511.5 249.5 500.5 283.5 500.5 272.5 511.5Z" fill="#698ED0" fill-rule="evenodd"/><path d="M238.5 511.5 249.5 500.5 283.5 500.5 283.5 533.5 272.5 544.5 238.5 544.5ZM238.5 511.5 272.5 511.5 283.5 500.5M272.5 511.5 272.5 544.5" stroke="#2F528F" stroke-width="1.33333" stroke-miterlimit="8" fill="none" fill-rule="evenodd"/><rect x="238.5" y="478.5" width="34" height="33" fill="#4472C4"/><path d="M272.5 478.5 283.5 467.5 283.5 500.5 272.5 511.5Z" fill="#375C9E" fill-rule="evenodd"/><path d="M238.5 478.5 249.5 467.5 283.5 467.5 272.5 478.5Z" fill="#698ED0" fill-rule="evenodd"/><path d="M238.5 478.5 249.5 467.5 283.5 467.5 283.5 500.5 272.5 511.5 238.5 511.5ZM238.5 478.5 272.5 478.5 283.5 467.5M272.5 478.5 272.5 511.5" stroke="#2F528F" stroke-width="1.33333" stroke-miterlimit="8" fill="none" fill-rule="evenodd"/><rect x="140.5" y="445.5" width="33" height="33" fill="#4472C4"/><path d="M173.5 445.5 184.5 434.5 184.5 467.5 173.5 478.5Z" fill="#375C9E" fill-rule="evenodd"/><path d="M140.5 445.5 151.5 434.5 184.5 434.5 173.5 445.5Z" fill="#698ED0" fill-rule="evenodd"/><path d="M140.5 445.5 151.5 434.5 184.5 434.5 184.5 467.5 173.5 478.5 140.5 478.5ZM140.5 445.5 173.5 445.5 184.5 434.5M173.5 445.5 173.5 478.5" stroke="#2F528F" stroke-width="1.33333" stroke-miterlimit="8" fill="none" fill-rule="evenodd"/><rect x="173.5" y="445.5" width="33" height="33" fill="#4472C4"/><path d="M206.5 445.5 217.5 434.5 217.5 467.5 206.5 478.5Z" fill="#375C9E" fill-rule="evenodd"/><path d="M173.5 445.5 184.5 434.5 217.5 434.5 206.5 445.5Z" fill="#698ED0" fill-rule="evenodd"/><path d="M173.5 445.5 184.5 434.5 217.5 434.5 217.5 467.5 206.5 478.5 173.5 478.5ZM173.5 445.5 206.5 445.5 217.5 434.5M206.5 445.5 206.5 478.5" stroke="#2F528F" stroke-width="1.33333" stroke-miterlimit="8" fill="none" fill-rule="evenodd"/><rect x="205.5" y="445.5" width="33" height="33" fill="#4472C4"/><path d="M238.5 445.5 249.5 434.5 249.5 467.5 238.5 478.5Z" fill="#375C9E" fill-rule="evenodd"/><path d="M205.5 445.5 216.5 434.5 249.5 434.5 238.5 445.5Z" fill="#698ED0" fill-rule="evenodd"/><path d="M205.5 445.5 216.5 434.5 249.5 434.5 249.5 467.5 238.5 478.5 205.5 478.5ZM205.5 445.5 238.5 445.5 249.5 434.5M238.5 445.5 238.5 478.5" stroke="#2F528F" stroke-width="1.33333" stroke-miterlimit="8" fill="none" fill-rule="evenodd"/><rect x="238.5" y="445.5" width="34" height="33" fill="#4472C4"/><path d="M272.5 445.5 283.5 434.5 283.5 467.5 272.5 478.5Z" fill="#375C9E" fill-rule="evenodd"/><path d="M238.5 445.5 249.5 434.5 283.5 434.5 272.5 445.5Z" fill="#698ED0" fill-rule="evenodd"/><path d="M238.5 445.5 249.5 434.5 283.5 434.5 283.5 467.5 272.5 478.5 238.5 478.5ZM238.5 445.5 272.5 445.5 283.5 434.5M272.5 445.5 272.5 478.5" stroke="#2F528F" stroke-width="1.33333" stroke-miterlimit="8" fill="none" fill-rule="evenodd"/><rect x="129.5" y="456.5" width="33" height="33" fill="#4472C4"/><path d="M162.5 456.5 173.5 445.5 173.5 478.5 162.5 489.5Z" fill="#375C9E" fill-rule="evenodd"/><path d="M129.5 456.5 140.5 445.5 173.5 445.5 162.5 456.5Z" fill="#698ED0" fill-rule="evenodd"/><path d="M129.5 456.5 140.5 445.5 173.5 445.5 173.5 478.5 162.5 489.5 129.5 489.5ZM129.5 456.5 162.5 456.5 173.5 445.5M162.5 456.5 162.5 489.5" stroke="#2F528F" stroke-width="1.33333" stroke-miterlimit="8" fill="none" fill-rule="evenodd"/><rect x="162.5" y="456.5" width="33" height="33" fill="#4472C4"/><path d="M195.5 456.5 206.5 445.5 206.5 478.5 195.5 489.5Z" fill="#375C9E" fill-rule="evenodd"/><path d="M162.5 456.5 173.5 445.5 206.5 445.5 195.5 456.5Z" fill="#698ED0" fill-rule="evenodd"/><path d="M162.5 456.5 173.5 445.5 206.5 445.5 206.5 478.5 195.5 489.5 162.5 489.5ZM162.5 456.5 195.5 456.5 206.5 445.5M195.5 456.5 195.5 489.5" stroke="#2F528F" stroke-width="1.33333" stroke-miterlimit="8" fill="none" fill-rule="evenodd"/><rect x="195.5" y="456.5" width="33" height="33" fill="#4472C4"/><path d="M228.5 456.5 239.5 445.5 239.5 478.5 228.5 489.5Z" fill="#375C9E" fill-rule="evenodd"/><path d="M195.5 456.5 206.5 445.5 239.5 445.5 228.5 456.5Z" fill="#698ED0" fill-rule="evenodd"/><path d="M195.5 456.5 206.5 445.5 239.5 445.5 239.5 478.5 228.5 489.5 195.5 489.5ZM195.5 456.5 228.5 456.5 239.5 445.5M228.5 456.5 228.5 489.5" stroke="#2F528F" stroke-width="1.33333" stroke-miterlimit="8" fill="none" fill-rule="evenodd"/><rect x="228.5" y="556.5" width="33" height="33" fill="#4472C4"/><path d="M261.5 556.5 272.5 545.5 272.5 578.5 261.5 589.5Z" fill="#375C9E" fill-rule="evenodd"/><path d="M228.5 556.5 239.5 545.5 272.5 545.5 261.5 556.5Z" fill="#698ED0" fill-rule="evenodd"/><path d="M228.5 556.5 239.5 545.5 272.5 545.5 272.5 578.5 261.5 589.5 228.5 589.5ZM228.5 556.5 261.5 556.5 272.5 545.5M261.5 556.5 261.5 589.5" stroke="#2F528F" stroke-width="1.33333" stroke-miterlimit="8" fill="none" fill-rule="evenodd"/><rect x="228.5" y="522.5" width="33" height="33" fill="#4472C4"/><path d="M261.5 522.5 272.5 511.5 272.5 544.5 261.5 555.5Z" fill="#375C9E" fill-rule="evenodd"/><path d="M228.5 522.5 239.5 511.5 272.5 511.5 261.5 522.5Z" fill="#698ED0" fill-rule="evenodd"/><path d="M228.5 522.5 239.5 511.5 272.5 511.5 272.5 544.5 261.5 555.5 228.5 555.5ZM228.5 522.5 261.5 522.5 272.5 511.5M261.5 522.5 261.5 555.5" stroke="#2F528F" stroke-width="1.33333" stroke-miterlimit="8" fill="none" fill-rule="evenodd"/><rect x="227.5" y="489.5" width="34" height="33" fill="#4472C4"/><path d="M261.5 489.5 272.5 478.5 272.5 511.5 261.5 522.5Z" fill="#375C9E" fill-rule="evenodd"/><path d="M227.5 489.5 238.5 478.5 272.5 478.5 261.5 489.5Z" fill="#698ED0" fill-rule="evenodd"/><path d="M227.5 489.5 238.5 478.5 272.5 478.5 272.5 511.5 261.5 522.5 227.5 522.5ZM227.5 489.5 261.5 489.5 272.5 478.5M261.5 489.5 261.5 522.5" stroke="#2F528F" stroke-width="1.33333" stroke-miterlimit="8" fill="none" fill-rule="evenodd"/><rect x="228.5" y="456.5" width="33" height="33" fill="#4472C4"/><path d="M261.5 456.5 272.5 445.5 272.5 478.5 261.5 489.5Z" fill="#375C9E" fill-rule="evenodd"/><path d="M228.5 456.5 239.5 445.5 272.5 445.5 261.5 456.5Z" fill="#698ED0" fill-rule="evenodd"/><path d="M228.5 456.5 239.5 445.5 272.5 445.5 272.5 478.5 261.5 489.5 228.5 489.5ZM228.5 456.5 261.5 456.5 272.5 445.5M261.5 456.5 261.5 489.5" stroke="#2F528F" stroke-width="1.33333" stroke-miterlimit="8" fill="none" fill-rule="evenodd"/><rect x="117.5" y="566.75" width="33.75" height="33.75" fill="#4472C4"/><path d="M151.25 566.75 162.5 555.5 162.5 589.25 151.25 600.5Z" fill="#375C9E" fill-rule="evenodd"/><path d="M117.5 566.75 128.75 555.5 162.5 555.5 151.25 566.75Z" fill="#698ED0" fill-rule="evenodd"/><path d="M117.5 566.75 128.75 555.5 162.5 555.5 162.5 589.25 151.25 600.5 117.5 600.5ZM117.5 566.75 151.25 566.75 162.5 555.5M151.25 566.75 151.25 600.5" stroke="#2F528F" stroke-width="1.33333" stroke-miterlimit="8" fill="none" fill-rule="evenodd"/><rect x="117.5" y="533.5" width="34" height="33" fill="#4472C4"/><path d="M151.5 533.5 162.5 522.5 162.5 555.5 151.5 566.5Z" fill="#375C9E" fill-rule="evenodd"/><path d="M117.5 533.5 128.5 522.5 162.5 522.5 151.5 533.5Z" fill="#698ED0" fill-rule="evenodd"/><path d="M117.5 533.5 128.5 522.5 162.5 522.5 162.5 555.5 151.5 566.5 117.5 566.5ZM117.5 533.5 151.5 533.5 162.5 522.5M151.5 533.5 151.5 566.5" stroke="#2F528F" stroke-width="1.33333" stroke-miterlimit="8" fill="none" fill-rule="evenodd"/><rect x="151.5" y="566.5" width="33" height="34" fill="#4472C4"/><path d="M184.5 566.5 195.5 555.5 195.5 589.5 184.5 600.5Z" fill="#375C9E" fill-rule="evenodd"/><path d="M151.5 566.5 162.5 555.5 195.5 555.5 184.5 566.5Z" fill="#698ED0" fill-rule="evenodd"/><path d="M151.5 566.5 162.5 555.5 195.5 555.5 195.5 589.5 184.5 600.5 151.5 600.5ZM151.5 566.5 184.5 566.5 195.5 555.5M184.5 566.5 184.5 600.5" stroke="#2F528F" stroke-width="1.33333" stroke-miterlimit="8" fill="none" fill-rule="evenodd"/><rect x="151.5" y="533.5" width="33" height="33" fill="#4472C4"/><path d="M184.5 533.5 195.5 522.5 195.5 555.5 184.5 566.5Z" fill="#375C9E" fill-rule="evenodd"/><path d="M151.5 533.5 162.5 522.5 195.5 522.5 184.5 533.5Z" fill="#698ED0" fill-rule="evenodd"/><path d="M151.5 533.5 162.5 522.5 195.5 522.5 195.5 555.5 184.5 566.5 151.5 566.5ZM151.5 533.5 184.5 533.5 195.5 522.5M184.5 533.5 184.5 566.5" stroke="#2F528F" stroke-width="1.33333" stroke-miterlimit="8" fill="none" fill-rule="evenodd"/><rect x="118.5" y="500.5" width="33" height="33" fill="#4472C4"/><path d="M151.5 500.5 162.5 489.5 162.5 522.5 151.5 533.5Z" fill="#375C9E" fill-rule="evenodd"/><path d="M118.5 500.5 129.5 489.5 162.5 489.5 151.5 500.5Z" fill="#698ED0" fill-rule="evenodd"/><path d="M118.5 500.5 129.5 489.5 162.5 489.5 162.5 522.5 151.5 533.5 118.5 533.5ZM118.5 500.5 151.5 500.5 162.5 489.5M151.5 500.5 151.5 533.5" stroke="#2F528F" stroke-width="1.33333" stroke-miterlimit="8" fill="none" fill-rule="evenodd"/><rect x="118.5" y="467.5" width="33" height="33" fill="#4472C4"/><path d="M151.5 467.5 162.5 456.5 162.5 489.5 151.5 500.5Z" fill="#375C9E" fill-rule="evenodd"/><path d="M118.5 467.5 129.5 456.5 162.5 456.5 151.5 467.5Z" fill="#698ED0" fill-rule="evenodd"/><path d="M118.5 467.5 129.5 456.5 162.5 456.5 162.5 489.5 151.5 500.5 118.5 500.5ZM118.5 467.5 151.5 467.5 162.5 456.5M151.5 467.5 151.5 500.5" stroke="#2F528F" stroke-width="1.33333" stroke-miterlimit="8" fill="none" fill-rule="evenodd"/><rect x="151.5" y="500.5" width="33" height="33" fill="#4472C4"/><path d="M184.5 500.5 195.5 489.5 195.5 522.5 184.5 533.5Z" fill="#375C9E" fill-rule="evenodd"/><path d="M151.5 500.5 162.5 489.5 195.5 489.5 184.5 500.5Z" fill="#698ED0" fill-rule="evenodd"/><path d="M151.5 500.5 162.5 489.5 195.5 489.5 195.5 522.5 184.5 533.5 151.5 533.5ZM151.5 500.5 184.5 500.5 195.5 489.5M184.5 500.5 184.5 533.5" stroke="#2F528F" stroke-width="1.33333" stroke-miterlimit="8" fill="none" fill-rule="evenodd"/><rect x="151.5" y="467.5" width="33" height="33" fill="#4472C4"/><path d="M184.5 467.5 195.5 456.5 195.5 489.5 184.5 500.5Z" fill="#375C9E" fill-rule="evenodd"/><path d="M151.5 467.5 162.5 456.5 195.5 456.5 184.5 467.5Z" fill="#698ED0" fill-rule="evenodd"/><path d="M151.5 467.5 162.5 456.5 195.5 456.5 195.5 489.5 184.5 500.5 151.5 500.5ZM151.5 467.5 184.5 467.5 195.5 456.5M184.5 467.5 184.5 500.5" stroke="#2F528F" stroke-width="1.33333" stroke-miterlimit="8" fill="none" fill-rule="evenodd"/><rect x="184.5" y="566.5" width="33" height="34" fill="#4472C4"/><path d="M217.5 566.5 228.5 555.5 228.5 589.5 217.5 600.5Z" fill="#375C9E" fill-rule="evenodd"/><path d="M184.5 566.5 195.5 555.5 228.5 555.5 217.5 566.5Z" fill="#698ED0" fill-rule="evenodd"/><path d="M184.5 566.5 195.5 555.5 228.5 555.5 228.5 589.5 217.5 600.5 184.5 600.5ZM184.5 566.5 217.5 566.5 228.5 555.5M217.5 566.5 217.5 600.5" stroke="#2F528F" stroke-width="1.33333" stroke-miterlimit="8" fill="none" fill-rule="evenodd"/><rect x="217.5" y="566.5" width="33" height="33" fill="#4472C4"/><path d="M250.5 566.5 261.5 555.5 261.5 588.5 250.5 599.5Z" fill="#375C9E" fill-rule="evenodd"/><path d="M217.5 566.5 228.5 555.5 261.5 555.5 250.5 566.5Z" fill="#698ED0" fill-rule="evenodd"/><path d="M217.5 566.5 228.5 555.5 261.5 555.5 261.5 588.5 250.5 599.5 217.5 599.5ZM217.5 566.5 250.5 566.5 261.5 555.5M250.5 566.5 250.5 599.5" stroke="#2F528F" stroke-width="1.33333" stroke-miterlimit="8" fill="none" fill-rule="evenodd"/><rect x="184.5" y="533.5" width="33" height="34" fill="#4472C4"/><path d="M217.5 533.5 228.5 522.5 228.5 556.5 217.5 567.5Z" fill="#375C9E" fill-rule="evenodd"/><path d="M184.5 533.5 195.5 522.5 228.5 522.5 217.5 533.5Z" fill="#698ED0" fill-rule="evenodd"/><path d="M184.5 533.5 195.5 522.5 228.5 522.5 228.5 556.5 217.5 567.5 184.5 567.5ZM184.5 533.5 217.5 533.5 228.5 522.5M217.5 533.5 217.5 567.5" stroke="#2F528F" stroke-width="1.33333" stroke-miterlimit="8" fill="none" fill-rule="evenodd"/><rect x="184.5" y="500.5" width="33" height="33" fill="#4472C4"/><path d="M217.5 500.5 228.5 489.5 228.5 522.5 217.5 533.5Z" fill="#375C9E" fill-rule="evenodd"/><path d="M184.5 500.5 195.5 489.5 228.5 489.5 217.5 500.5Z" fill="#698ED0" fill-rule="evenodd"/><path d="M184.5 500.5 195.5 489.5 228.5 489.5 228.5 522.5 217.5 533.5 184.5 533.5ZM184.5 500.5 217.5 500.5 228.5 489.5M217.5 500.5 217.5 533.5" stroke="#2F528F" stroke-width="1.33333" stroke-miterlimit="8" fill="none" fill-rule="evenodd"/><rect x="184.5" y="467.5" width="33" height="33" fill="#4472C4"/><path d="M217.5 467.5 228.5 456.5 228.5 489.5 217.5 500.5Z" fill="#375C9E" fill-rule="evenodd"/><path d="M184.5 467.5 195.5 456.5 228.5 456.5 217.5 467.5Z" fill="#698ED0" fill-rule="evenodd"/><path d="M184.5 467.5 195.5 456.5 228.5 456.5 228.5 489.5 217.5 500.5 184.5 500.5ZM184.5 467.5 217.5 467.5 228.5 456.5M217.5 467.5 217.5 500.5" stroke="#2F528F" stroke-width="1.33333" stroke-miterlimit="8" fill="none" fill-rule="evenodd"/><rect x="217.5" y="533.5" width="33" height="33" fill="#4472C4"/><path d="M250.5 533.5 261.5 522.5 261.5 555.5 250.5 566.5Z" fill="#375C9E" fill-rule="evenodd"/><path d="M217.5 533.5 228.5 522.5 261.5 522.5 250.5 533.5Z" fill="#698ED0" fill-rule="evenodd"/><path d="M217.5 533.5 228.5 522.5 261.5 522.5 261.5 555.5 250.5 566.5 217.5 566.5ZM217.5 533.5 250.5 533.5 261.5 522.5M250.5 533.5 250.5 566.5" stroke="#2F528F" stroke-width="1.33333" stroke-miterlimit="8" fill="none" fill-rule="evenodd"/><rect x="217.5" y="500.5" width="34" height="33" fill="#4472C4"/><path d="M251.5 500.5 262.5 489.5 262.5 522.5 251.5 533.5Z" fill="#375C9E" fill-rule="evenodd"/><path d="M217.5 500.5 228.5 489.5 262.5 489.5 251.5 500.5Z" fill="#698ED0" fill-rule="evenodd"/><path d="M217.5 500.5 228.5 489.5 262.5 489.5 262.5 522.5 251.5 533.5 217.5 533.5ZM217.5 500.5 251.5 500.5 262.5 489.5M251.5 500.5 251.5 533.5" stroke="#2F528F" stroke-width="1.33333" stroke-miterlimit="8" fill="none" fill-rule="evenodd"/><rect x="217.5" y="467.5" width="34" height="33" fill="#4472C4"/><path d="M251.5 467.5 262.5 456.5 262.5 489.5 251.5 500.5Z" fill="#375C9E" fill-rule="evenodd"/><path d="M217.5 467.5 228.5 456.5 262.5 456.5 251.5 467.5Z" fill="#698ED0" fill-rule="evenodd"/><path d="M217.5 467.5 228.5 456.5 262.5 456.5 262.5 489.5 251.5 500.5 217.5 500.5ZM217.5 467.5 251.5 467.5 262.5 456.5M251.5 467.5 251.5 500.5" stroke="#2F528F" stroke-width="1.33333" stroke-miterlimit="8" fill="none" fill-rule="evenodd"/><path d="M124.167 613.167 242.593 613.167 242.593 613.833 124.167 613.833ZM125.5 617.5 117.5 613.5 125.5 609.5ZM241.26 609.5 249.26 613.5 241.26 617.5Z" fill="#4472C4"/><text font-family="Cambria Math,Cambria Math_MSFontService,sans-serif" font-weight="400" font-size="24" transform="translate(168.289 644)">𝑁<tspan font-size="18" x="15.5067" y="5">𝑖𝑥</tspan></text><path d="M4.64242 4.79619 33.4856 37.7386 32.984 38.1778 4.14084 5.23535ZM2.26049 8.65391 0 0 8.27942 3.38395ZM35.366 34.3201 37.6265 42.974 29.347 39.59Z" fill="#4472C4" transform="matrix(1 0 0 -1 271.5 599.474)"/><text font-family="Cambria Math,Cambria Math_MSFontService,sans-serif" font-weight="400" font-size="24" transform="translate(300.428 592)">𝑁<tspan font-size="18" x="15.5067" y="5">𝑖𝑓</tspan></text><path d="M107.833 474.167 107.833 592.712 107.167 592.712 107.167 474.167ZM103.5 475.5 107.5 467.5 111.5 475.5ZM111.5 591.378 107.5 599.378 103.5 591.378Z" fill="#4472C4"/><text font-family="Cambria Math,Cambria Math_MSFontService,sans-serif" font-weight="400" font-size="24" transform="translate(69.2713 539)">𝑁<tspan font-size="18" x="15.5067" y="5">𝑖𝑦</tspan></text></g></svg>