<svg width="346" height="180" xmlns="http://www.w3.org/2000/svg" xmlns:xlink="http://www.w3.org/1999/xlink" overflow="hidden"><defs><clipPath id="clip0"><path d="M549 433 895 433 895 613 549 613Z" fill-rule="evenodd" clip-rule="evenodd"/></clipPath></defs><g clip-path="url(#clip0)" transform="translate(-549 -433)"><rect x="681.5" y="487" width="23.5" height="22.5" fill="#FFE699"/><path d="M705 487 712.5 479.5 712.5 502 705 509.5Z" fill="#CDB97B" fill-rule="evenodd"/><path d="M681.5 487 689 479.5 712.5 479.5 705 487Z" fill="#FFEBAD" fill-rule="evenodd"/><path d="M681.5 487 689 479.5 712.5 479.5 712.5 502 705 509.5 681.5 509.5ZM681.5 487 705 487 712.5 479.5M705 487 705 509.5" stroke="#FFC000" stroke-width="1.33333" stroke-miterlimit="8" fill="none" fill-rule="evenodd"/><rect x="681.5" y="465" width="23.5" height="22.5" fill="#FFE699"/><path d="M705 465 712.5 457.5 712.5 480 705 487.5Z" fill="#CDB97B" fill-rule="evenodd"/><path d="M681.5 465 689 457.5 712.5 457.5 705 465Z" fill="#FFEBAD" fill-rule="evenodd"/><path d="M681.5 465 689 457.5 712.5 457.5 712.5 480 705 487.5 681.5 487.5ZM681.5 465 705 465 712.5 457.5M705 465 705 487.5" stroke="#FFC000" stroke-width="1.33333" stroke-miterlimit="8" fill="none" fill-rule="evenodd"/><rect x="636.5" y="442" width="22.5" height="22.5" fill="#FFE699"/><path d="M659 442 666.5 434.5 666.5 457 659 464.5Z" fill="#CDB97B" fill-rule="evenodd"/><path d="M636.5 442 644 434.5 666.5 434.5 659 442Z" fill="#FFEBAD" fill-rule="evenodd"/><path d="M636.5 442 644 434.5 666.5 434.5 666.5 457 659 464.5 636.5 464.5ZM636.5 442 659 442 666.5 434.5M659 442 659 464.5" stroke="#FFC000" stroke-width="1.33333" stroke-miterlimit="8" fill="none" fill-rule="evenodd"/><rect x="658.5" y="442" width="23.5" height="22.5" fill="#FFE699"/><path d="M682 442 689.5 434.5 689.5 457 682 464.5Z" fill="#CDB97B" fill-rule="evenodd"/><path d="M658.5 442 666 434.5 689.5 434.5 682 442Z" fill="#FFEBAD" fill-rule="evenodd"/><path d="M658.5 442 666 434.5 689.5 434.5 689.5 457 682 464.5 658.5 464.5ZM658.5 442 682 442 689.5 434.5M682 442 682 464.5" stroke="#FFC000" stroke-width="1.33333" stroke-miterlimit="8" fill="none" fill-rule="evenodd"/><rect x="681.5" y="442" width="22.5" height="22.5" fill="#FFE699"/><path d="M704 442 711.5 434.5 711.5 457 704 464.5Z" fill="#CDB97B" fill-rule="evenodd"/><path d="M681.5 442 689 434.5 711.5 434.5 704 442Z" fill="#FFEBAD" fill-rule="evenodd"/><path d="M681.5 442 689 434.5 711.5 434.5 711.5 457 704 464.5 681.5 464.5ZM681.5 442 704 442 711.5 434.5M704 442 704 464.5" stroke="#FFC000" stroke-width="1.33333" stroke-miterlimit="8" fill="none" fill-rule="evenodd"/><rect x="674.5" y="494" width="23.5" height="22.5" fill="#FFE699"/><path d="M698 494 705.5 486.5 705.5 509 698 516.5Z" fill="#CDB97B" fill-rule="evenodd"/><path d="M674.5 494 682 486.5 705.5 486.5 698 494Z" fill="#FFEBAD" fill-rule="evenodd"/><path d="M674.5 494 682 486.5 705.5 486.5 705.5 509 698 516.5 674.5 516.5ZM674.5 494 698 494 705.5 486.5M698 494 698 516.5" stroke="#FFC000" stroke-width="1.33333" stroke-miterlimit="8" fill="none" fill-rule="evenodd"/><rect x="674.5" y="471" width="23.5" height="22.5" fill="#FFE699"/><path d="M698 471 705.5 463.5 705.5 486 698 493.5Z" fill="#CDB97B" fill-rule="evenodd"/><path d="M674.5 471 682 463.5 705.5 463.5 698 471Z" fill="#FFEBAD" fill-rule="evenodd"/><path d="M674.5 471 682 463.5 705.5 463.5 705.5 486 698 493.5 674.5 493.5ZM674.5 471 698 471 705.5 463.5M698 471 698 493.5" stroke="#FFC000" stroke-width="1.33333" stroke-miterlimit="8" fill="none" fill-rule="evenodd"/><rect x="629.5" y="450" width="22.5" height="22.5" fill="#FFE699"/><path d="M652 450 659.5 442.5 659.5 465 652 472.5Z" fill="#CDB97B" fill-rule="evenodd"/><path d="M629.5 450 637 442.5 659.5 442.5 652 450Z" fill="#FFEBAD" fill-rule="evenodd"/><path d="M629.5 450 637 442.5 659.5 442.5 659.5 465 652 472.5 629.5 472.5ZM629.5 450 652 450 659.5 442.5M652 450 652 472.5" stroke="#FFC000" stroke-width="1.33333" stroke-miterlimit="8" fill="none" fill-rule="evenodd"/><rect x="652.5" y="449" width="22.5" height="23.5" fill="#FFE699"/><path d="M675 449 682.5 441.5 682.5 465 675 472.5Z" fill="#CDB97B" fill-rule="evenodd"/><path d="M652.5 449 660 441.5 682.5 441.5 675 449Z" fill="#FFEBAD" fill-rule="evenodd"/><path d="M652.5 449 660 441.5 682.5 441.5 682.5 465 675 472.5 652.5 472.5ZM652.5 449 675 449 682.5 441.5M675 449 675 472.5" stroke="#FFC000" stroke-width="1.33333" stroke-miterlimit="8" fill="none" fill-rule="evenodd"/><rect x="674.5" y="449" width="22.5" height="23.5" fill="#FFE699"/><path d="M697 449 704.5 441.5 704.5 465 697 472.5Z" fill="#CDB97B" fill-rule="evenodd"/><path d="M674.5 449 682 441.5 704.5 441.5 697 449Z" fill="#FFEBAD" fill-rule="evenodd"/><path d="M674.5 449 682 441.5 704.5 441.5 704.5 465 697 472.5 674.5 472.5ZM674.5 449 697 449 704.5 441.5M697 449 697 472.5" stroke="#FFC000" stroke-width="1.33333" stroke-miterlimit="8" fill="none" fill-rule="evenodd"/><rect x="621.5" y="457" width="23.5" height="22.5" fill="#FFE699"/><path d="M645 457 652.5 449.5 652.5 472 645 479.5Z" fill="#CDB97B" fill-rule="evenodd"/><path d="M621.5 457 629 449.5 652.5 449.5 645 457Z" fill="#FFEBAD" fill-rule="evenodd"/><path d="M621.5 457 629 449.5 652.5 449.5 652.5 472 645 479.5 621.5 479.5ZM621.5 457 645 457 652.5 449.5M645 457 645 479.5" stroke="#FFC000" stroke-width="1.33333" stroke-miterlimit="8" fill="none" fill-rule="evenodd"/><rect x="644.5" y="457" width="22.5" height="22.5" fill="#FFE699"/><path d="M667 457 674.5 449.5 674.5 472 667 479.5Z" fill="#CDB97B" fill-rule="evenodd"/><path d="M644.5 457 652 449.5 674.5 449.5 667 457Z" fill="#FFEBAD" fill-rule="evenodd"/><path d="M644.5 457 652 449.5 674.5 449.5 674.5 472 667 479.5 644.5 479.5ZM644.5 457 667 457 674.5 449.5M667 457 667 479.5" stroke="#FFC000" stroke-width="1.33333" stroke-miterlimit="8" fill="none" fill-rule="evenodd"/><rect x="667.5" y="502" width="22.5" height="22.5" fill="#FFE699"/><path d="M690 502 697.5 494.5 697.5 517 690 524.5Z" fill="#CDB97B" fill-rule="evenodd"/><path d="M667.5 502 675 494.5 697.5 494.5 690 502Z" fill="#FFEBAD" fill-rule="evenodd"/><path d="M667.5 502 675 494.5 697.5 494.5 697.5 517 690 524.5 667.5 524.5ZM667.5 502 690 502 697.5 494.5M690 502 690 524.5" stroke="#FFC000" stroke-width="1.33333" stroke-miterlimit="8" fill="none" fill-rule="evenodd"/><rect x="667.5" y="479" width="22.5" height="23.5" fill="#FFE699"/><path d="M690 479 697.5 471.5 697.5 495 690 502.5Z" fill="#CDB97B" fill-rule="evenodd"/><path d="M667.5 479 675 471.5 697.5 471.5 690 479Z" fill="#FFEBAD" fill-rule="evenodd"/><path d="M667.5 479 675 471.5 697.5 471.5 697.5 495 690 502.5 667.5 502.5ZM667.5 479 690 479 697.5 471.5M690 479 690 502.5" stroke="#FFC000" stroke-width="1.33333" stroke-miterlimit="8" fill="none" fill-rule="evenodd"/><rect x="667.5" y="457" width="22.5" height="22.5" fill="#FFE699"/><path d="M690 457 697.5 449.5 697.5 472 690 479.5Z" fill="#CDB97B" fill-rule="evenodd"/><path d="M667.5 457 675 449.5 697.5 449.5 690 457Z" fill="#FFEBAD" fill-rule="evenodd"/><path d="M667.5 457 675 449.5 697.5 449.5 697.5 472 690 479.5 667.5 479.5ZM667.5 457 690 457 697.5 449.5M690 457 690 479.5" stroke="#FFC000" stroke-width="1.33333" stroke-miterlimit="8" fill="none" fill-rule="evenodd"/><rect x="614.5" y="510" width="22.5" height="22.5" fill="#FFE699"/><path d="M637 510 644.5 502.5 644.5 525 637 532.5Z" fill="#CDB97B" fill-rule="evenodd"/><path d="M614.5 510 622 502.5 644.5 502.5 637 510Z" fill="#FFEBAD" fill-rule="evenodd"/><path d="M614.5 510 622 502.5 644.5 502.5 644.5 525 637 532.5 614.5 532.5ZM614.5 510 637 510 644.5 502.5M637 510 637 532.5" stroke="#FFC000" stroke-width="1.33333" stroke-miterlimit="8" fill="none" fill-rule="evenodd"/><rect x="614.5" y="487" width="22.5" height="22.5" fill="#FFE699"/><path d="M637 487 644.5 479.5 644.5 502 637 509.5Z" fill="#CDB97B" fill-rule="evenodd"/><path d="M614.5 487 622 479.5 644.5 479.5 637 487Z" fill="#FFEBAD" fill-rule="evenodd"/><path d="M614.5 487 622 479.5 644.5 479.5 644.5 502 637 509.5 614.5 509.5ZM614.5 487 637 487 644.5 479.5M637 487 637 509.5" stroke="#FFC000" stroke-width="1.33333" stroke-miterlimit="8" fill="none" fill-rule="evenodd"/><rect x="614.5" y="464" width="22.5" height="23.5" fill="#FFE699"/><path d="M637 464 644.5 456.5 644.5 480 637 487.5Z" fill="#CDB97B" fill-rule="evenodd"/><path d="M614.5 464 622 456.5 644.5 456.5 637 464Z" fill="#FFEBAD" fill-rule="evenodd"/><path d="M614.5 464 622 456.5 644.5 456.5 644.5 480 637 487.5 614.5 487.5ZM614.5 464 637 464 644.5 456.5M637 464 637 487.5" stroke="#FFC000" stroke-width="1.33333" stroke-miterlimit="8" fill="none" fill-rule="evenodd"/><rect x="636.5" y="510" width="23.5" height="22.5" fill="#FFE699"/><path d="M660 510 667.5 502.5 667.5 525 660 532.5Z" fill="#CDB97B" fill-rule="evenodd"/><path d="M636.5 510 644 502.5 667.5 502.5 660 510Z" fill="#FFEBAD" fill-rule="evenodd"/><path d="M636.5 510 644 502.5 667.5 502.5 667.5 525 660 532.5 636.5 532.5ZM636.5 510 660 510 667.5 502.5M660 510 660 532.5" stroke="#FFC000" stroke-width="1.33333" stroke-miterlimit="8" fill="none" fill-rule="evenodd"/><rect x="637.5" y="487" width="22.5" height="23.5" fill="#FFE699"/><path d="M660 487 667.5 479.5 667.5 503 660 510.5Z" fill="#CDB97B" fill-rule="evenodd"/><path d="M637.5 487 645 479.5 667.5 479.5 660 487Z" fill="#FFEBAD" fill-rule="evenodd"/><path d="M637.5 487 645 479.5 667.5 479.5 667.5 503 660 510.5 637.5 510.5ZM637.5 487 660 487 667.5 479.5M660 487 660 510.5" stroke="#FFC000" stroke-width="1.33333" stroke-miterlimit="8" fill="none" fill-rule="evenodd"/><rect x="636.5" y="464.25" width="23.25" height="23.25" fill="#FFE699"/><path d="M659.75 464.25 667.5 456.5 667.5 479.75 659.75 487.5Z" fill="#CDB97B" fill-rule="evenodd"/><path d="M636.5 464.25 644.25 456.5 667.5 456.5 659.75 464.25Z" fill="#FFEBAD" fill-rule="evenodd"/><path d="M636.5 464.25 644.25 456.5 667.5 456.5 667.5 479.75 659.75 487.5 636.5 487.5ZM636.5 464.25 659.75 464.25 667.5 456.5M659.75 464.25 659.75 487.5" stroke="#FFC000" stroke-width="1.33333" stroke-miterlimit="8" fill="none" fill-rule="evenodd"/><rect x="659.5" y="510" width="22.5" height="22.5" fill="#FFE699"/><path d="M682 510 689.5 502.5 689.5 525 682 532.5Z" fill="#CDB97B" fill-rule="evenodd"/><path d="M659.5 510 667 502.5 689.5 502.5 682 510Z" fill="#FFEBAD" fill-rule="evenodd"/><path d="M659.5 510 667 502.5 689.5 502.5 689.5 525 682 532.5 659.5 532.5ZM659.5 510 682 510 689.5 502.5M682 510 682 532.5" stroke="#FFC000" stroke-width="1.33333" stroke-miterlimit="8" fill="none" fill-rule="evenodd"/><rect x="659.5" y="487" width="22.5" height="23.5" fill="#FFE699"/><path d="M682 487 689.5 479.5 689.5 503 682 510.5Z" fill="#CDB97B" fill-rule="evenodd"/><path d="M659.5 487 667 479.5 689.5 479.5 682 487Z" fill="#FFEBAD" fill-rule="evenodd"/><path d="M659.5 487 667 479.5 689.5 479.5 689.5 503 682 510.5 659.5 510.5ZM659.5 487 682 487 689.5 479.5M682 487 682 510.5" stroke="#FFC000" stroke-width="1.33333" stroke-miterlimit="8" fill="none" fill-rule="evenodd"/><rect x="659.5" y="464" width="22.5" height="23.5" fill="#FFE699"/><path d="M682 464 689.5 456.5 689.5 480 682 487.5Z" fill="#CDB97B" fill-rule="evenodd"/><path d="M659.5 464 667 456.5 689.5 456.5 682 464Z" fill="#FFEBAD" fill-rule="evenodd"/><path d="M659.5 464 667 456.5 689.5 456.5 689.5 480 682 487.5 659.5 487.5ZM659.5 464 682 464 689.5 456.5M682 464 682 487.5" stroke="#FFC000" stroke-width="1.33333" stroke-miterlimit="8" fill="none" fill-rule="evenodd"/><path d="M621.167 539.167 675.948 539.167 675.948 539.833 621.167 539.833ZM622.5 543.5 614.5 539.5 622.5 535.5ZM674.614 535.5 682.614 539.5 674.614 543.5Z" fill="#FFC000"/><text fill="#FFC000" font-family="Cambria Math,Cambria Math_MSFontService,sans-serif" font-weight="400" font-size="24" transform="translate(630.802 562)">𝑁<tspan font-size="18" x="15.5067" y="5">𝑘𝑥</tspan></text><path d="M4.63993 4.7986 21.5954 24.1841 21.0936 24.623 4.13812 5.2375ZM2.256 8.65508 0 0 8.27767 3.38825ZM23.4775 20.7665 25.7335 29.4216 17.4559 26.0334Z" fill="#FFC000" transform="matrix(1 0 0 -1 692.5 532.922)"/><text fill="#FFC000" font-family="Cambria Math,Cambria Math_MSFontService,sans-serif" font-weight="400" font-size="24" transform="translate(709.414 529)">𝑁<tspan font-size="18" x="15.5067" y="5">𝑖𝑓</tspan></text><path d="M607.833 471.167 607.833 526.274 607.167 526.274 607.167 471.167ZM603.5 472.5 607.5 464.5 611.5 472.5ZM611.5 524.941 607.5 532.941 603.5 524.941Z" fill="#FFC000"/><text fill="#FFC000" font-family="Cambria Math,Cambria Math_MSFontService,sans-serif" font-weight="400" font-size="24" transform="translate(559.489 501)">𝑁<tspan font-size="18" x="15.5067" y="5">𝑘𝑦</tspan></text><rect x="849.5" y="487" width="22.5" height="22.5" fill="#FFE699"/><path d="M872 487 879.5 479.5 879.5 502 872 509.5Z" fill="#CDB97B" fill-rule="evenodd"/><path d="M849.5 487 857 479.5 879.5 479.5 872 487Z" fill="#FFEBAD" fill-rule="evenodd"/><path d="M849.5 487 857 479.5 879.5 479.5 879.5 502 872 509.5 849.5 509.5ZM849.5 487 872 487 879.5 479.5M872 487 872 509.5" stroke="#FFC000" stroke-width="1.33333" stroke-miterlimit="8" fill="none" fill-rule="evenodd"/><rect x="849.5" y="464" width="22.5" height="23.5" fill="#FFE699"/><path d="M872 464 879.5 456.5 879.5 480 872 487.5Z" fill="#CDB97B" fill-rule="evenodd"/><path d="M849.5 464 857 456.5 879.5 456.5 872 464Z" fill="#FFEBAD" fill-rule="evenodd"/><path d="M849.5 464 857 456.5 879.5 456.5 879.5 480 872 487.5 849.5 487.5ZM849.5 464 872 464 879.5 456.5M872 464 872 487.5" stroke="#FFC000" stroke-width="1.33333" stroke-miterlimit="8" fill="none" fill-rule="evenodd"/><rect x="803.5" y="442" width="23.5" height="22.5" fill="#FFE699"/><path d="M827 442 834.5 434.5 834.5 457 827 464.5Z" fill="#CDB97B" fill-rule="evenodd"/><path d="M803.5 442 811 434.5 834.5 434.5 827 442Z" fill="#FFEBAD" fill-rule="evenodd"/><path d="M803.5 442 811 434.5 834.5 434.5 834.5 457 827 464.5 803.5 464.5ZM803.5 442 827 442 834.5 434.5M827 442 827 464.5" stroke="#FFC000" stroke-width="1.33333" stroke-miterlimit="8" fill="none" fill-rule="evenodd"/><rect x="826.5" y="442" width="22.5" height="22.5" fill="#FFE699"/><path d="M849 442 856.5 434.5 856.5 457 849 464.5Z" fill="#CDB97B" fill-rule="evenodd"/><path d="M826.5 442 834 434.5 856.5 434.5 849 442Z" fill="#FFEBAD" fill-rule="evenodd"/><path d="M826.5 442 834 434.5 856.5 434.5 856.5 457 849 464.5 826.5 464.5ZM826.5 442 849 442 856.5 434.5M849 442 849 464.5" stroke="#FFC000" stroke-width="1.33333" stroke-miterlimit="8" fill="none" fill-rule="evenodd"/><rect x="848.5" y="442" width="23.5" height="22.5" fill="#FFE699"/><path d="M872 442 879.5 434.5 879.5 457 872 464.5Z" fill="#CDB97B" fill-rule="evenodd"/><path d="M848.5 442 856 434.5 879.5 434.5 872 442Z" fill="#FFEBAD" fill-rule="evenodd"/><path d="M848.5 442 856 434.5 879.5 434.5 879.5 457 872 464.5 848.5 464.5ZM848.5 442 872 442 879.5 434.5M872 442 872 464.5" stroke="#FFC000" stroke-width="1.33333" stroke-miterlimit="8" fill="none" fill-rule="evenodd"/><rect x="842.5" y="494" width="22.5" height="22.5" fill="#FFE699"/><path d="M865 494 872.5 486.5 872.5 509 865 516.5Z" fill="#CDB97B" fill-rule="evenodd"/><path d="M842.5 494 850 486.5 872.5 486.5 865 494Z" fill="#FFEBAD" fill-rule="evenodd"/><path d="M842.5 494 850 486.5 872.5 486.5 872.5 509 865 516.5 842.5 516.5ZM842.5 494 865 494 872.5 486.5M865 494 865 516.5" stroke="#FFC000" stroke-width="1.33333" stroke-miterlimit="8" fill="none" fill-rule="evenodd"/><rect x="842.5" y="471" width="22.5" height="22.5" fill="#FFE699"/><path d="M865 471 872.5 463.5 872.5 486 865 493.5Z" fill="#CDB97B" fill-rule="evenodd"/><path d="M842.5 471 850 463.5 872.5 463.5 865 471Z" fill="#FFEBAD" fill-rule="evenodd"/><path d="M842.5 471 850 463.5 872.5 463.5 872.5 486 865 493.5 842.5 493.5ZM842.5 471 865 471 872.5 463.5M865 471 865 493.5" stroke="#FFC000" stroke-width="1.33333" stroke-miterlimit="8" fill="none" fill-rule="evenodd"/><rect x="796.5" y="449" width="22.5" height="23.5" fill="#FFE699"/><path d="M819 449 826.5 441.5 826.5 465 819 472.5Z" fill="#CDB97B" fill-rule="evenodd"/><path d="M796.5 449 804 441.5 826.5 441.5 819 449Z" fill="#FFEBAD" fill-rule="evenodd"/><path d="M796.5 449 804 441.5 826.5 441.5 826.5 465 819 472.5 796.5 472.5ZM796.5 449 819 449 826.5 441.5M819 449 819 472.5" stroke="#FFC000" stroke-width="1.33333" stroke-miterlimit="8" fill="none" fill-rule="evenodd"/><rect x="819.5" y="449" width="22.5" height="22.5" fill="#FFE699"/><path d="M842 449 849.5 441.5 849.5 464 842 471.5Z" fill="#CDB97B" fill-rule="evenodd"/><path d="M819.5 449 827 441.5 849.5 441.5 842 449Z" fill="#FFEBAD" fill-rule="evenodd"/><path d="M819.5 449 827 441.5 849.5 441.5 849.5 464 842 471.5 819.5 471.5ZM819.5 449 842 449 849.5 441.5M842 449 842 471.5" stroke="#FFC000" stroke-width="1.33333" stroke-miterlimit="8" fill="none" fill-rule="evenodd"/><rect x="841.5" y="449" width="22.5" height="22.5" fill="#FFE699"/><path d="M864 449 871.5 441.5 871.5 464 864 471.5Z" fill="#CDB97B" fill-rule="evenodd"/><path d="M841.5 449 849 441.5 871.5 441.5 864 449Z" fill="#FFEBAD" fill-rule="evenodd"/><path d="M841.5 449 849 441.5 871.5 441.5 871.5 464 864 471.5 841.5 471.5ZM841.5 449 864 449 871.5 441.5M864 449 864 471.5" stroke="#FFC000" stroke-width="1.33333" stroke-miterlimit="8" fill="none" fill-rule="evenodd"/><rect x="789.5" y="457" width="22.5" height="22.5" fill="#FFE699"/><path d="M812 457 819.5 449.5 819.5 472 812 479.5Z" fill="#CDB97B" fill-rule="evenodd"/><path d="M789.5 457 797 449.5 819.5 449.5 812 457Z" fill="#FFEBAD" fill-rule="evenodd"/><path d="M789.5 457 797 449.5 819.5 449.5 819.5 472 812 479.5 789.5 479.5ZM789.5 457 812 457 819.5 449.5M812 457 812 479.5" stroke="#FFC000" stroke-width="1.33333" stroke-miterlimit="8" fill="none" fill-rule="evenodd"/><rect x="811.5" y="457" width="22.5" height="22.5" fill="#FFE699"/><path d="M834 457 841.5 449.5 841.5 472 834 479.5Z" fill="#CDB97B" fill-rule="evenodd"/><path d="M811.5 457 819 449.5 841.5 449.5 834 457Z" fill="#FFEBAD" fill-rule="evenodd"/><path d="M811.5 457 819 449.5 841.5 449.5 841.5 472 834 479.5 811.5 479.5ZM811.5 457 834 457 841.5 449.5M834 457 834 479.5" stroke="#FFC000" stroke-width="1.33333" stroke-miterlimit="8" fill="none" fill-rule="evenodd"/><rect x="834.5" y="502" width="23.5" height="22.5" fill="#FFE699"/><path d="M858 502 865.5 494.5 865.5 517 858 524.5Z" fill="#CDB97B" fill-rule="evenodd"/><path d="M834.5 502 842 494.5 865.5 494.5 858 502Z" fill="#FFEBAD" fill-rule="evenodd"/><path d="M834.5 502 842 494.5 865.5 494.5 865.5 517 858 524.5 834.5 524.5ZM834.5 502 858 502 865.5 494.5M858 502 858 524.5" stroke="#FFC000" stroke-width="1.33333" stroke-miterlimit="8" fill="none" fill-rule="evenodd"/><rect x="834.5" y="479" width="22.5" height="23.5" fill="#FFE699"/><path d="M857 479 864.5 471.5 864.5 495 857 502.5Z" fill="#CDB97B" fill-rule="evenodd"/><path d="M834.5 479 842 471.5 864.5 471.5 857 479Z" fill="#FFEBAD" fill-rule="evenodd"/><path d="M834.5 479 842 471.5 864.5 471.5 864.5 495 857 502.5 834.5 502.5ZM834.5 479 857 479 864.5 471.5M857 479 857 502.5" stroke="#FFC000" stroke-width="1.33333" stroke-miterlimit="8" fill="none" fill-rule="evenodd"/><rect x="834.5" y="457" width="22.5" height="22.5" fill="#FFE699"/><path d="M857 457 864.5 449.5 864.5 472 857 479.5Z" fill="#CDB97B" fill-rule="evenodd"/><path d="M834.5 457 842 449.5 864.5 449.5 857 457Z" fill="#FFEBAD" fill-rule="evenodd"/><path d="M834.5 457 842 449.5 864.5 449.5 864.5 472 857 479.5 834.5 479.5ZM834.5 457 857 457 864.5 449.5M857 457 857 479.5" stroke="#FFC000" stroke-width="1.33333" stroke-miterlimit="8" fill="none" fill-rule="evenodd"/><rect x="781.5" y="510" width="22.5" height="22.5" fill="#FFE699"/><path d="M804 510 811.5 502.5 811.5 525 804 532.5Z" fill="#CDB97B" fill-rule="evenodd"/><path d="M781.5 510 789 502.5 811.5 502.5 804 510Z" fill="#FFEBAD" fill-rule="evenodd"/><path d="M781.5 510 789 502.5 811.5 502.5 811.5 525 804 532.5 781.5 532.5ZM781.5 510 804 510 811.5 502.5M804 510 804 532.5" stroke="#FFC000" stroke-width="1.33333" stroke-miterlimit="8" fill="none" fill-rule="evenodd"/><rect x="781.5" y="487" width="22.5" height="22.5" fill="#FFE699"/><path d="M804 487 811.5 479.5 811.5 502 804 509.5Z" fill="#CDB97B" fill-rule="evenodd"/><path d="M781.5 487 789 479.5 811.5 479.5 804 487Z" fill="#FFEBAD" fill-rule="evenodd"/><path d="M781.5 487 789 479.5 811.5 479.5 811.5 502 804 509.5 781.5 509.5ZM781.5 487 804 487 811.5 479.5M804 487 804 509.5" stroke="#FFC000" stroke-width="1.33333" stroke-miterlimit="8" fill="none" fill-rule="evenodd"/><rect x="781.5" y="464" width="22.5" height="22.5" fill="#FFE699"/><path d="M804 464 811.5 456.5 811.5 479 804 486.5Z" fill="#CDB97B" fill-rule="evenodd"/><path d="M781.5 464 789 456.5 811.5 456.5 804 464Z" fill="#FFEBAD" fill-rule="evenodd"/><path d="M781.5 464 789 456.5 811.5 456.5 811.5 479 804 486.5 781.5 486.5ZM781.5 464 804 464 811.5 456.5M804 464 804 486.5" stroke="#FFC000" stroke-width="1.33333" stroke-miterlimit="8" fill="none" fill-rule="evenodd"/><rect x="804.5" y="510" width="22.5" height="22.5" fill="#FFE699"/><path d="M827 510 834.5 502.5 834.5 525 827 532.5Z" fill="#CDB97B" fill-rule="evenodd"/><path d="M804.5 510 812 502.5 834.5 502.5 827 510Z" fill="#FFEBAD" fill-rule="evenodd"/><path d="M804.5 510 812 502.5 834.5 502.5 834.5 525 827 532.5 804.5 532.5ZM804.5 510 827 510 834.5 502.5M827 510 827 532.5" stroke="#FFC000" stroke-width="1.33333" stroke-miterlimit="8" fill="none" fill-rule="evenodd"/><rect x="804.5" y="487" width="22.5" height="22.5" fill="#FFE699"/><path d="M827 487 834.5 479.5 834.5 502 827 509.5Z" fill="#CDB97B" fill-rule="evenodd"/><path d="M804.5 487 812 479.5 834.5 479.5 827 487Z" fill="#FFEBAD" fill-rule="evenodd"/><path d="M804.5 487 812 479.5 834.5 479.5 834.5 502 827 509.5 804.5 509.5ZM804.5 487 827 487 834.5 479.5M827 487 827 509.5" stroke="#FFC000" stroke-width="1.33333" stroke-miterlimit="8" fill="none" fill-rule="evenodd"/><rect x="804.5" y="464" width="22.5" height="22.5" fill="#FFE699"/><path d="M827 464 834.5 456.5 834.5 479 827 486.5Z" fill="#CDB97B" fill-rule="evenodd"/><path d="M804.5 464 812 456.5 834.5 456.5 827 464Z" fill="#FFEBAD" fill-rule="evenodd"/><path d="M804.5 464 812 456.5 834.5 456.5 834.5 479 827 486.5 804.5 486.5ZM804.5 464 827 464 834.5 456.5M827 464 827 486.5" stroke="#FFC000" stroke-width="1.33333" stroke-miterlimit="8" fill="none" fill-rule="evenodd"/><rect x="826.5" y="510" width="23.5" height="22.5" fill="#FFE699"/><path d="M850 510 857.5 502.5 857.5 525 850 532.5Z" fill="#CDB97B" fill-rule="evenodd"/><path d="M826.5 510 834 502.5 857.5 502.5 850 510Z" fill="#FFEBAD" fill-rule="evenodd"/><path d="M826.5 510 834 502.5 857.5 502.5 857.5 525 850 532.5 826.5 532.5ZM826.5 510 850 510 857.5 502.5M850 510 850 532.5" stroke="#FFC000" stroke-width="1.33333" stroke-miterlimit="8" fill="none" fill-rule="evenodd"/><rect x="826.5" y="487" width="23.5" height="22.5" fill="#FFE699"/><path d="M850 487 857.5 479.5 857.5 502 850 509.5Z" fill="#CDB97B" fill-rule="evenodd"/><path d="M826.5 487 834 479.5 857.5 479.5 850 487Z" fill="#FFEBAD" fill-rule="evenodd"/><path d="M826.5 487 834 479.5 857.5 479.5 857.5 502 850 509.5 826.5 509.5ZM826.5 487 850 487 857.5 479.5M850 487 850 509.5" stroke="#FFC000" stroke-width="1.33333" stroke-miterlimit="8" fill="none" fill-rule="evenodd"/><rect x="826.5" y="464" width="23.5" height="22.5" fill="#FFE699"/><path d="M850 464 857.5 456.5 857.5 479 850 486.5Z" fill="#CDB97B" fill-rule="evenodd"/><path d="M826.5 464 834 456.5 857.5 456.5 850 464Z" fill="#FFEBAD" fill-rule="evenodd"/><path d="M826.5 464 834 456.5 857.5 456.5 857.5 479 850 486.5 826.5 486.5ZM826.5 464 850 464 857.5 456.5M850 464 850 486.5" stroke="#FFC000" stroke-width="1.33333" stroke-miterlimit="8" fill="none" fill-rule="evenodd"/><path d="M729.5 483C729.5 481.067 731.067 479.5 733 479.5 734.933 479.5 736.5 481.067 736.5 483 736.5 484.933 734.933 486.5 733 486.5 731.067 486.5 729.5 484.933 729.5 483Z" stroke="#FFC000" stroke-width="1.33333" stroke-miterlimit="8" fill="#FFE699" fill-rule="evenodd"/><path d="M745.5 482C745.5 480.067 747.291 478.5 749.5 478.5 751.709 478.5 753.5 480.067 753.5 482 753.5 483.933 751.709 485.5 749.5 485.5 747.291 485.5 745.5 483.933 745.5 482Z" stroke="#FFC000" stroke-width="1.33333" stroke-miterlimit="8" fill="#FFE699" fill-rule="evenodd"/><path d="M761.5 482C761.5 480.067 763.291 478.5 765.5 478.5 767.709 478.5 769.5 480.067 769.5 482 769.5 483.933 767.709 485.5 765.5 485.5 763.291 485.5 761.5 483.933 761.5 482Z" stroke="#FFC000" stroke-width="1.33333" stroke-miterlimit="8" fill="#FFE699" fill-rule="evenodd"/><path d="M894.5 568.5C894.5 569.881 894.313 571 894.083 571L744.417 571C744.187 571 744 572.12 744 573.5 744 572.12 743.813 571 743.583 571L593.917 571C593.687 571 593.5 569.881 593.5 568.5" stroke="#FFC000" stroke-width="0.666667" stroke-miterlimit="8" fill="none" fill-rule="evenodd"/><text fill="#FFC000" font-family="Cambria Math,Cambria Math_MSFontService,sans-serif" font-weight="400" font-size="24" transform="translate(735.401 599)">𝑁<tspan font-size="18" x="15.5067" y="5">𝑜𝑓</tspan></text></g></svg>