<svg width="330" height="247" xmlns="http://www.w3.org/2000/svg" xmlns:xlink="http://www.w3.org/1999/xlink" overflow="hidden"><defs><clipPath id="clip0"><path d="M555 183 885 183 885 430 555 430Z" fill-rule="evenodd" clip-rule="evenodd"/></clipPath></defs><g clip-path="url(#clip0)" transform="translate(-555 -183)"><rect x="767.5" y="296.5" width="33" height="33" fill="#70AD47"/><path d="M800.5 296.5 811.5 285.5 811.5 318.5 800.5 329.5Z" fill="#5A8B39" fill-rule="evenodd"/><path d="M767.5 296.5 778.5 285.5 811.5 285.5 800.5 296.5Z" fill="#8CBD6B" fill-rule="evenodd"/><path d="M767.5 296.5 778.5 285.5 811.5 285.5 811.5 318.5 800.5 329.5 767.5 329.5ZM767.5 296.5 800.5 296.5 811.5 285.5M800.5 296.5 800.5 329.5" stroke="#385723" stroke-width="1.33333" stroke-miterlimit="8" fill="none" fill-rule="evenodd"/><rect x="767.5" y="262.5" width="33" height="33" fill="#70AD47"/><path d="M800.5 262.5 811.5 251.5 811.5 284.5 800.5 295.5Z" fill="#5A8B39" fill-rule="evenodd"/><path d="M767.5 262.5 778.5 251.5 811.5 251.5 800.5 262.5Z" fill="#8CBD6B" fill-rule="evenodd"/><path d="M767.5 262.5 778.5 251.5 811.5 251.5 811.5 284.5 800.5 295.5 767.5 295.5ZM767.5 262.5 800.5 262.5 811.5 251.5M800.5 262.5 800.5 295.5" stroke="#385723" stroke-width="1.33333" stroke-miterlimit="8" fill="none" fill-rule="evenodd"/><rect x="767.5" y="229.5" width="33" height="33" fill="#70AD47"/><path d="M800.5 229.5 811.5 218.5 811.5 251.5 800.5 262.5Z" fill="#5A8B39" fill-rule="evenodd"/><path d="M767.5 229.5 778.5 218.5 811.5 218.5 800.5 229.5Z" fill="#8CBD6B" fill-rule="evenodd"/><path d="M767.5 229.5 778.5 218.5 811.5 218.5 811.5 251.5 800.5 262.5 767.5 262.5ZM767.5 229.5 800.5 229.5 811.5 218.5M800.5 229.5 800.5 262.5" stroke="#385723" stroke-width="1.33333" stroke-miterlimit="8" fill="none" fill-rule="evenodd"/><rect x="668.5" y="196.5" width="33" height="33" fill="#70AD47"/><path d="M701.5 196.5 712.5 185.5 712.5 218.5 701.5 229.5Z" fill="#5A8B39" fill-rule="evenodd"/><path d="M668.5 196.5 679.5 185.5 712.5 185.5 701.5 196.5Z" fill="#8CBD6B" fill-rule="evenodd"/><path d="M668.5 196.5 679.5 185.5 712.5 185.5 712.5 218.5 701.5 229.5 668.5 229.5ZM668.5 196.5 701.5 196.5 712.5 185.5M701.5 196.5 701.5 229.5" stroke="#385723" stroke-width="1.33333" stroke-miterlimit="8" fill="none" fill-rule="evenodd"/><rect x="701.5" y="196.5" width="33" height="33" fill="#70AD47"/><path d="M734.5 196.5 745.5 185.5 745.5 218.5 734.5 229.5Z" fill="#5A8B39" fill-rule="evenodd"/><path d="M701.5 196.5 712.5 185.5 745.5 185.5 734.5 196.5Z" fill="#8CBD6B" fill-rule="evenodd"/><path d="M701.5 196.5 712.5 185.5 745.5 185.5 745.5 218.5 734.5 229.5 701.5 229.5ZM701.5 196.5 734.5 196.5 745.5 185.5M734.5 196.5 734.5 229.5" stroke="#385723" stroke-width="1.33333" stroke-miterlimit="8" fill="none" fill-rule="evenodd"/><rect x="734.5" y="196.5" width="33" height="33" fill="#70AD47"/><path d="M767.5 196.5 778.5 185.5 778.5 218.5 767.5 229.5Z" fill="#5A8B39" fill-rule="evenodd"/><path d="M734.5 196.5 745.5 185.5 778.5 185.5 767.5 196.5Z" fill="#8CBD6B" fill-rule="evenodd"/><path d="M734.5 196.5 745.5 185.5 778.5 185.5 778.5 218.5 767.5 229.5 734.5 229.5ZM734.5 196.5 767.5 196.5 778.5 185.5M767.5 196.5 767.5 229.5" stroke="#385723" stroke-width="1.33333" stroke-miterlimit="8" fill="none" fill-rule="evenodd"/><rect x="767.5" y="196.5" width="33" height="33" fill="#70AD47"/><path d="M800.5 196.5 811.5 185.5 811.5 218.5 800.5 229.5Z" fill="#5A8B39" fill-rule="evenodd"/><path d="M767.5 196.5 778.5 185.5 811.5 185.5 800.5 196.5Z" fill="#8CBD6B" fill-rule="evenodd"/><path d="M767.5 196.5 778.5 185.5 811.5 185.5 811.5 218.5 800.5 229.5 767.5 229.5ZM767.5 196.5 800.5 196.5 811.5 185.5M800.5 196.5 800.5 229.5" stroke="#385723" stroke-width="1.33333" stroke-miterlimit="8" fill="none" fill-rule="evenodd"/><rect x="756.5" y="307.5" width="33" height="33" fill="#70AD47"/><path d="M789.5 307.5 800.5 296.5 800.5 329.5 789.5 340.5Z" fill="#5A8B39" fill-rule="evenodd"/><path d="M756.5 307.5 767.5 296.5 800.5 296.5 789.5 307.5Z" fill="#8CBD6B" fill-rule="evenodd"/><path d="M756.5 307.5 767.5 296.5 800.5 296.5 800.5 329.5 789.5 340.5 756.5 340.5ZM756.5 307.5 789.5 307.5 800.5 296.5M789.5 307.5 789.5 340.5" stroke="#385723" stroke-width="1.33333" stroke-miterlimit="8" fill="none" fill-rule="evenodd"/><rect x="756.5" y="273.5" width="33" height="33" fill="#70AD47"/><path d="M789.5 273.5 800.5 262.5 800.5 295.5 789.5 306.5Z" fill="#5A8B39" fill-rule="evenodd"/><path d="M756.5 273.5 767.5 262.5 800.5 262.5 789.5 273.5Z" fill="#8CBD6B" fill-rule="evenodd"/><path d="M756.5 273.5 767.5 262.5 800.5 262.5 800.5 295.5 789.5 306.5 756.5 306.5ZM756.5 273.5 789.5 273.5 800.5 262.5M789.5 273.5 789.5 306.5" stroke="#385723" stroke-width="1.33333" stroke-miterlimit="8" fill="none" fill-rule="evenodd"/><rect x="756.5" y="240.5" width="33" height="33" fill="#70AD47"/><path d="M789.5 240.5 800.5 229.5 800.5 262.5 789.5 273.5Z" fill="#5A8B39" fill-rule="evenodd"/><path d="M756.5 240.5 767.5 229.5 800.5 229.5 789.5 240.5Z" fill="#8CBD6B" fill-rule="evenodd"/><path d="M756.5 240.5 767.5 229.5 800.5 229.5 800.5 262.5 789.5 273.5 756.5 273.5ZM756.5 240.5 789.5 240.5 800.5 229.5M789.5 240.5 789.5 273.5" stroke="#385723" stroke-width="1.33333" stroke-miterlimit="8" fill="none" fill-rule="evenodd"/><rect x="657.5" y="207.5" width="33" height="33" fill="#70AD47"/><path d="M690.5 207.5 701.5 196.5 701.5 229.5 690.5 240.5Z" fill="#5A8B39" fill-rule="evenodd"/><path d="M657.5 207.5 668.5 196.5 701.5 196.5 690.5 207.5Z" fill="#8CBD6B" fill-rule="evenodd"/><path d="M657.5 207.5 668.5 196.5 701.5 196.5 701.5 229.5 690.5 240.5 657.5 240.5ZM657.5 207.5 690.5 207.5 701.5 196.5M690.5 207.5 690.5 240.5" stroke="#385723" stroke-width="1.33333" stroke-miterlimit="8" fill="none" fill-rule="evenodd"/><rect x="690.5" y="207.5" width="34" height="33" fill="#70AD47"/><path d="M724.5 207.5 735.5 196.5 735.5 229.5 724.5 240.5Z" fill="#5A8B39" fill-rule="evenodd"/><path d="M690.5 207.5 701.5 196.5 735.5 196.5 724.5 207.5Z" fill="#8CBD6B" fill-rule="evenodd"/><path d="M690.5 207.5 701.5 196.5 735.5 196.5 735.5 229.5 724.5 240.5 690.5 240.5ZM690.5 207.5 724.5 207.5 735.5 196.5M724.5 207.5 724.5 240.5" stroke="#385723" stroke-width="1.33333" stroke-miterlimit="8" fill="none" fill-rule="evenodd"/><rect x="723.5" y="207.5" width="33" height="33" fill="#70AD47"/><path d="M756.5 207.5 767.5 196.5 767.5 229.5 756.5 240.5Z" fill="#5A8B39" fill-rule="evenodd"/><path d="M723.5 207.5 734.5 196.5 767.5 196.5 756.5 207.5Z" fill="#8CBD6B" fill-rule="evenodd"/><path d="M723.5 207.5 734.5 196.5 767.5 196.5 767.5 229.5 756.5 240.5 723.5 240.5ZM723.5 207.5 756.5 207.5 767.5 196.5M756.5 207.5 756.5 240.5" stroke="#385723" stroke-width="1.33333" stroke-miterlimit="8" fill="none" fill-rule="evenodd"/><rect x="756.5" y="207.5" width="33" height="33" fill="#70AD47"/><path d="M789.5 207.5 800.5 196.5 800.5 229.5 789.5 240.5Z" fill="#5A8B39" fill-rule="evenodd"/><path d="M756.5 207.5 767.5 196.5 800.5 196.5 789.5 207.5Z" fill="#8CBD6B" fill-rule="evenodd"/><path d="M756.5 207.5 767.5 196.5 800.5 196.5 800.5 229.5 789.5 240.5 756.5 240.5ZM756.5 207.5 789.5 207.5 800.5 196.5M789.5 207.5 789.5 240.5" stroke="#385723" stroke-width="1.33333" stroke-miterlimit="8" fill="none" fill-rule="evenodd"/><rect x="646.5" y="218.5" width="34" height="33" fill="#70AD47"/><path d="M680.5 218.5 691.5 207.5 691.5 240.5 680.5 251.5Z" fill="#5A8B39" fill-rule="evenodd"/><path d="M646.5 218.5 657.5 207.5 691.5 207.5 680.5 218.5Z" fill="#8CBD6B" fill-rule="evenodd"/><path d="M646.5 218.5 657.5 207.5 691.5 207.5 691.5 240.5 680.5 251.5 646.5 251.5ZM646.5 218.5 680.5 218.5 691.5 207.5M680.5 218.5 680.5 251.5" stroke="#385723" stroke-width="1.33333" stroke-miterlimit="8" fill="none" fill-rule="evenodd"/><rect x="680.5" y="218.5" width="33" height="33" fill="#70AD47"/><path d="M713.5 218.5 724.5 207.5 724.5 240.5 713.5 251.5Z" fill="#5A8B39" fill-rule="evenodd"/><path d="M680.5 218.5 691.5 207.5 724.5 207.5 713.5 218.5Z" fill="#8CBD6B" fill-rule="evenodd"/><path d="M680.5 218.5 691.5 207.5 724.5 207.5 724.5 240.5 713.5 251.5 680.5 251.5ZM680.5 218.5 713.5 218.5 724.5 207.5M713.5 218.5 713.5 251.5" stroke="#385723" stroke-width="1.33333" stroke-miterlimit="8" fill="none" fill-rule="evenodd"/><rect x="712.5" y="218.5" width="34" height="33" fill="#70AD47"/><path d="M746.5 218.5 757.5 207.5 757.5 240.5 746.5 251.5Z" fill="#5A8B39" fill-rule="evenodd"/><path d="M712.5 218.5 723.5 207.5 757.5 207.5 746.5 218.5Z" fill="#8CBD6B" fill-rule="evenodd"/><path d="M712.5 218.5 723.5 207.5 757.5 207.5 757.5 240.5 746.5 251.5 712.5 251.5ZM712.5 218.5 746.5 218.5 757.5 207.5M746.5 218.5 746.5 251.5" stroke="#385723" stroke-width="1.33333" stroke-miterlimit="8" fill="none" fill-rule="evenodd"/><rect x="746.5" y="317.5" width="33" height="33" fill="#70AD47"/><path d="M779.5 317.5 790.5 306.5 790.5 339.5 779.5 350.5Z" fill="#5A8B39" fill-rule="evenodd"/><path d="M746.5 317.5 757.5 306.5 790.5 306.5 779.5 317.5Z" fill="#8CBD6B" fill-rule="evenodd"/><path d="M746.5 317.5 757.5 306.5 790.5 306.5 790.5 339.5 779.5 350.5 746.5 350.5ZM746.5 317.5 779.5 317.5 790.5 306.5M779.5 317.5 779.5 350.5" stroke="#385723" stroke-width="1.33333" stroke-miterlimit="8" fill="none" fill-rule="evenodd"/><rect x="745.5" y="284.5" width="34" height="33" fill="#70AD47"/><path d="M779.5 284.5 790.5 273.5 790.5 306.5 779.5 317.5Z" fill="#5A8B39" fill-rule="evenodd"/><path d="M745.5 284.5 756.5 273.5 790.5 273.5 779.5 284.5Z" fill="#8CBD6B" fill-rule="evenodd"/><path d="M745.5 284.5 756.5 273.5 790.5 273.5 790.5 306.5 779.5 317.5 745.5 317.5ZM745.5 284.5 779.5 284.5 790.5 273.5M779.5 284.5 779.5 317.5" stroke="#385723" stroke-width="1.33333" stroke-miterlimit="8" fill="none" fill-rule="evenodd"/><rect x="745.5" y="251.5" width="33" height="33" fill="#70AD47"/><path d="M778.5 251.5 789.5 240.5 789.5 273.5 778.5 284.5Z" fill="#5A8B39" fill-rule="evenodd"/><path d="M745.5 251.5 756.5 240.5 789.5 240.5 778.5 251.5Z" fill="#8CBD6B" fill-rule="evenodd"/><path d="M745.5 251.5 756.5 240.5 789.5 240.5 789.5 273.5 778.5 284.5 745.5 284.5ZM745.5 251.5 778.5 251.5 789.5 240.5M778.5 251.5 778.5 284.5" stroke="#385723" stroke-width="1.33333" stroke-miterlimit="8" fill="none" fill-rule="evenodd"/><rect x="745.5" y="217.75" width="33.75" height="33.75" fill="#70AD47"/><path d="M779.25 217.75 790.5 206.5 790.5 240.25 779.25 251.5Z" fill="#5A8B39" fill-rule="evenodd"/><path d="M745.5 217.75 756.75 206.5 790.5 206.5 779.25 217.75Z" fill="#8CBD6B" fill-rule="evenodd"/><path d="M745.5 217.75 756.75 206.5 790.5 206.5 790.5 240.25 779.25 251.5 745.5 251.5ZM745.5 217.75 779.25 217.75 790.5 206.5M779.25 217.75 779.25 251.5" stroke="#385723" stroke-width="1.33333" stroke-miterlimit="8" fill="none" fill-rule="evenodd"/><rect x="635.5" y="328.5" width="33" height="33" fill="#70AD47"/><path d="M668.5 328.5 679.5 317.5 679.5 350.5 668.5 361.5Z" fill="#5A8B39" fill-rule="evenodd"/><path d="M635.5 328.5 646.5 317.5 679.5 317.5 668.5 328.5Z" fill="#8CBD6B" fill-rule="evenodd"/><path d="M635.5 328.5 646.5 317.5 679.5 317.5 679.5 350.5 668.5 361.5 635.5 361.5ZM635.5 328.5 668.5 328.5 679.5 317.5M668.5 328.5 668.5 361.5" stroke="#385723" stroke-width="1.33333" stroke-miterlimit="8" fill="none" fill-rule="evenodd"/><rect x="635.5" y="295.5" width="33" height="33" fill="#70AD47"/><path d="M668.5 295.5 679.5 284.5 679.5 317.5 668.5 328.5Z" fill="#5A8B39" fill-rule="evenodd"/><path d="M635.5 295.5 646.5 284.5 679.5 284.5 668.5 295.5Z" fill="#8CBD6B" fill-rule="evenodd"/><path d="M635.5 295.5 646.5 284.5 679.5 284.5 679.5 317.5 668.5 328.5 635.5 328.5ZM635.5 295.5 668.5 295.5 679.5 284.5M668.5 295.5 668.5 328.5" stroke="#385723" stroke-width="1.33333" stroke-miterlimit="8" fill="none" fill-rule="evenodd"/><rect x="668.5" y="328.5" width="34" height="33" fill="#70AD47"/><path d="M702.5 328.5 713.5 317.5 713.5 350.5 702.5 361.5Z" fill="#5A8B39" fill-rule="evenodd"/><path d="M668.5 328.5 679.5 317.5 713.5 317.5 702.5 328.5Z" fill="#8CBD6B" fill-rule="evenodd"/><path d="M668.5 328.5 679.5 317.5 713.5 317.5 713.5 350.5 702.5 361.5 668.5 361.5ZM668.5 328.5 702.5 328.5 713.5 317.5M702.5 328.5 702.5 361.5" stroke="#385723" stroke-width="1.33333" stroke-miterlimit="8" fill="none" fill-rule="evenodd"/><rect x="668.5" y="295.5" width="34" height="33" fill="#70AD47"/><path d="M702.5 295.5 713.5 284.5 713.5 317.5 702.5 328.5Z" fill="#5A8B39" fill-rule="evenodd"/><path d="M668.5 295.5 679.5 284.5 713.5 284.5 702.5 295.5Z" fill="#8CBD6B" fill-rule="evenodd"/><path d="M668.5 295.5 679.5 284.5 713.5 284.5 713.5 317.5 702.5 328.5 668.5 328.5ZM668.5 295.5 702.5 295.5 713.5 284.5M702.5 295.5 702.5 328.5" stroke="#385723" stroke-width="1.33333" stroke-miterlimit="8" fill="none" fill-rule="evenodd"/><rect x="635.5" y="261.5" width="33" height="33" fill="#70AD47"/><path d="M668.5 261.5 679.5 250.5 679.5 283.5 668.5 294.5Z" fill="#5A8B39" fill-rule="evenodd"/><path d="M635.5 261.5 646.5 250.5 679.5 250.5 668.5 261.5Z" fill="#8CBD6B" fill-rule="evenodd"/><path d="M635.5 261.5 646.5 250.5 679.5 250.5 679.5 283.5 668.5 294.5 635.5 294.5ZM635.5 261.5 668.5 261.5 679.5 250.5M668.5 261.5 668.5 294.5" stroke="#385723" stroke-width="1.33333" stroke-miterlimit="8" fill="none" fill-rule="evenodd"/><rect x="635.5" y="229.5" width="34" height="33" fill="#70AD47"/><path d="M669.5 229.5 680.5 218.5 680.5 251.5 669.5 262.5Z" fill="#5A8B39" fill-rule="evenodd"/><path d="M635.5 229.5 646.5 218.5 680.5 218.5 669.5 229.5Z" fill="#8CBD6B" fill-rule="evenodd"/><path d="M635.5 229.5 646.5 218.5 680.5 218.5 680.5 251.5 669.5 262.5 635.5 262.5ZM635.5 229.5 669.5 229.5 680.5 218.5M669.5 229.5 669.5 262.5" stroke="#385723" stroke-width="1.33333" stroke-miterlimit="8" fill="none" fill-rule="evenodd"/><rect x="668.5" y="261.5" width="34" height="33" fill="#70AD47"/><path d="M702.5 261.5 713.5 250.5 713.5 283.5 702.5 294.5Z" fill="#5A8B39" fill-rule="evenodd"/><path d="M668.5 261.5 679.5 250.5 713.5 250.5 702.5 261.5Z" fill="#8CBD6B" fill-rule="evenodd"/><path d="M668.5 261.5 679.5 250.5 713.5 250.5 713.5 283.5 702.5 294.5 668.5 294.5ZM668.5 261.5 702.5 261.5 713.5 250.5M702.5 261.5 702.5 294.5" stroke="#385723" stroke-width="1.33333" stroke-miterlimit="8" fill="none" fill-rule="evenodd"/><rect x="669.5" y="229.5" width="33" height="33" fill="#70AD47"/><path d="M702.5 229.5 713.5 218.5 713.5 251.5 702.5 262.5Z" fill="#5A8B39" fill-rule="evenodd"/><path d="M669.5 229.5 680.5 218.5 713.5 218.5 702.5 229.5Z" fill="#8CBD6B" fill-rule="evenodd"/><path d="M669.5 229.5 680.5 218.5 713.5 218.5 713.5 251.5 702.5 262.5 669.5 262.5ZM669.5 229.5 702.5 229.5 713.5 218.5M702.5 229.5 702.5 262.5" stroke="#385723" stroke-width="1.33333" stroke-miterlimit="8" fill="none" fill-rule="evenodd"/><rect x="701.5" y="328.5" width="34" height="33" fill="#70AD47"/><path d="M735.5 328.5 746.5 317.5 746.5 350.5 735.5 361.5Z" fill="#5A8B39" fill-rule="evenodd"/><path d="M701.5 328.5 712.5 317.5 746.5 317.5 735.5 328.5Z" fill="#8CBD6B" fill-rule="evenodd"/><path d="M701.5 328.5 712.5 317.5 746.5 317.5 746.5 350.5 735.5 361.5 701.5 361.5ZM701.5 328.5 735.5 328.5 746.5 317.5M735.5 328.5 735.5 361.5" stroke="#385723" stroke-width="1.33333" stroke-miterlimit="8" fill="none" fill-rule="evenodd"/><rect x="735.5" y="328.5" width="33" height="33" fill="#70AD47"/><path d="M768.5 328.5 779.5 317.5 779.5 350.5 768.5 361.5Z" fill="#5A8B39" fill-rule="evenodd"/><path d="M735.5 328.5 746.5 317.5 779.5 317.5 768.5 328.5Z" fill="#8CBD6B" fill-rule="evenodd"/><path d="M735.5 328.5 746.5 317.5 779.5 317.5 779.5 350.5 768.5 361.5 735.5 361.5ZM735.5 328.5 768.5 328.5 779.5 317.5M768.5 328.5 768.5 361.5" stroke="#385723" stroke-width="1.33333" stroke-miterlimit="8" fill="none" fill-rule="evenodd"/><rect x="701.5" y="295.5" width="33" height="33" fill="#70AD47"/><path d="M734.5 295.5 745.5 284.5 745.5 317.5 734.5 328.5Z" fill="#5A8B39" fill-rule="evenodd"/><path d="M701.5 295.5 712.5 284.5 745.5 284.5 734.5 295.5Z" fill="#8CBD6B" fill-rule="evenodd"/><path d="M701.5 295.5 712.5 284.5 745.5 284.5 745.5 317.5 734.5 328.5 701.5 328.5ZM701.5 295.5 734.5 295.5 745.5 284.5M734.5 295.5 734.5 328.5" stroke="#385723" stroke-width="1.33333" stroke-miterlimit="8" fill="none" fill-rule="evenodd"/><rect x="702.5" y="262.5" width="33" height="33" fill="#70AD47"/><path d="M735.5 262.5 746.5 251.5 746.5 284.5 735.5 295.5Z" fill="#5A8B39" fill-rule="evenodd"/><path d="M702.5 262.5 713.5 251.5 746.5 251.5 735.5 262.5Z" fill="#8CBD6B" fill-rule="evenodd"/><path d="M702.5 262.5 713.5 251.5 746.5 251.5 746.5 284.5 735.5 295.5 702.5 295.5ZM702.5 262.5 735.5 262.5 746.5 251.5M735.5 262.5 735.5 295.5" stroke="#385723" stroke-width="1.33333" stroke-miterlimit="8" fill="none" fill-rule="evenodd"/><rect x="702.5" y="229.5" width="33" height="33" fill="#70AD47"/><path d="M735.5 229.5 746.5 218.5 746.5 251.5 735.5 262.5Z" fill="#5A8B39" fill-rule="evenodd"/><path d="M702.5 229.5 713.5 218.5 746.5 218.5 735.5 229.5Z" fill="#8CBD6B" fill-rule="evenodd"/><path d="M702.5 229.5 713.5 218.5 746.5 218.5 746.5 251.5 735.5 262.5 702.5 262.5ZM702.5 229.5 735.5 229.5 746.5 218.5M735.5 229.5 735.5 262.5" stroke="#385723" stroke-width="1.33333" stroke-miterlimit="8" fill="none" fill-rule="evenodd"/><rect x="735.5" y="295.5" width="33" height="33" fill="#70AD47"/><path d="M768.5 295.5 779.5 284.5 779.5 317.5 768.5 328.5Z" fill="#5A8B39" fill-rule="evenodd"/><path d="M735.5 295.5 746.5 284.5 779.5 284.5 768.5 295.5Z" fill="#8CBD6B" fill-rule="evenodd"/><path d="M735.5 295.5 746.5 284.5 779.5 284.5 779.5 317.5 768.5 328.5 735.5 328.5ZM735.5 295.5 768.5 295.5 779.5 284.5M768.5 295.5 768.5 328.5" stroke="#385723" stroke-width="1.33333" stroke-miterlimit="8" fill="none" fill-rule="evenodd"/><rect x="735.5" y="262.5" width="33" height="33" fill="#70AD47"/><path d="M768.5 262.5 779.5 251.5 779.5 284.5 768.5 295.5Z" fill="#5A8B39" fill-rule="evenodd"/><path d="M735.5 262.5 746.5 251.5 779.5 251.5 768.5 262.5Z" fill="#8CBD6B" fill-rule="evenodd"/><path d="M735.5 262.5 746.5 251.5 779.5 251.5 779.5 284.5 768.5 295.5 735.5 295.5ZM735.5 262.5 768.5 262.5 779.5 251.5M768.5 262.5 768.5 295.5" stroke="#385723" stroke-width="1.33333" stroke-miterlimit="8" fill="none" fill-rule="evenodd"/><rect x="735.5" y="229.5" width="33" height="33" fill="#70AD47"/><path d="M768.5 229.5 779.5 218.5 779.5 251.5 768.5 262.5Z" fill="#5A8B39" fill-rule="evenodd"/><path d="M735.5 229.5 746.5 218.5 779.5 218.5 768.5 229.5Z" fill="#8CBD6B" fill-rule="evenodd"/><path d="M735.5 229.5 746.5 218.5 779.5 218.5 779.5 251.5 768.5 262.5 735.5 262.5ZM735.5 229.5 768.5 229.5 779.5 218.5M768.5 229.5 768.5 262.5" stroke="#385723" stroke-width="1.33333" stroke-miterlimit="8" fill="none" fill-rule="evenodd"/><path d="M642.167 374.167 760.593 374.167 760.593 374.833 642.167 374.833ZM643.5 378.5 635.5 374.5 643.5 370.5ZM759.26 370.5 767.26 374.5 759.26 378.5Z" fill="#385723"/><text fill="#70AD47" font-family="Cambria Math,Cambria Math_MSFontService,sans-serif" font-weight="400" font-size="24" transform="translate(680.693 401)">𝑁<tspan font-size="18" x="15.5067" y="5">𝑜𝑥</tspan></text><path d="M4.64242 4.79619 33.4856 37.7386 32.984 38.1778 4.14084 5.23535ZM2.26049 8.65391 0 0 8.27942 3.38395ZM35.366 34.3201 37.6265 42.974 29.347 39.59Z" fill="#385723" transform="matrix(1 0 0 -1 789.5 361.474)"/><text fill="#70AD47" font-family="Cambria Math,Cambria Math_MSFontService,sans-serif" font-weight="400" font-size="24" transform="translate(823.361 351)">𝑁<tspan font-size="18" x="15.5067" y="5">𝑜𝑓</tspan></text><path d="M624.833 236.167 624.833 354.712 624.167 354.712 624.167 236.167ZM620.5 237.5 624.5 229.5 628.5 237.5ZM628.5 353.378 624.5 361.378 620.5 353.378Z" fill="#385723"/><text fill="#70AD47" font-family="Cambria Math,Cambria Math_MSFontService,sans-serif" font-weight="400" font-size="24" transform="translate(578.397 296)">𝑁<tspan font-size="18" x="15.5067" y="5">𝑜𝑦</tspan></text></g></svg>