<svg width="1286" height="722" xmlns="http://www.w3.org/2000/svg" xmlns:xlink="http://www.w3.org/1999/xlink" overflow="hidden"><defs><clipPath id="clip0"><path d="M-3-3 1283-3 1283 719-3 719Z" fill-rule="evenodd" clip-rule="evenodd"/></clipPath></defs><g clip-path="url(#clip0)" transform="translate(3 3)"><rect x="44.5001" y="-1.50005" width="181" height="100" stroke="#2F528F" stroke-width="1.33333" stroke-miterlimit="8" fill="#4472C4"/><text fill="#FFFFFF" font-family="Calibri,Calibri_MSFontService,sans-serif" font-weight="400" font-size="24" transform="translate(94.6208 41)">External<tspan x="-1.24" y="29">memory</tspan></text><rect x="0" y="136" width="1280" height="580" stroke="#ED7D31" stroke-width="4" stroke-linejoin="round" stroke-miterlimit="10" fill="none"/><text fill="#ED7D31" font-family="Calibri,Calibri_MSFontService,sans-serif" font-weight="400" font-size="24" transform="translate(1215.66 166)">FPGA</text><rect x="57.5001" y="179.5" width="155" height="82" stroke="#2F528F" stroke-width="1.33333" stroke-miterlimit="8" fill="#4472C4"/><text fill="#FFFFFF" font-family="Calibri,Calibri_MSFontService,sans-serif" font-weight="400" font-size="24" transform="translate(109.941 227)">DMA</text><rect x="817.5" y="179.5" width="156" height="82" stroke="#000000" stroke-width="1.33333" stroke-miterlimit="8"/><text fill="#FFFFFF" font-family="Calibri,Calibri_MSFontService,sans-serif" font-weight="400" font-size="24" transform="translate(869.982 213)">Main <tspan x="-22.4266" y="29">controller</tspan></text><path d="M6.9425e-07-4 584.893-3.9999 584.893 4.0001-6.9425e-07 4ZM580.893-11.9999 604.893 0.000104987 580.893 12.0001Z" transform="matrix(-1 -8.74228e-08 -8.74228e-08 1 816.893 201)"/><rect x="555.5" y="341.5" width="216" height="108" stroke="#AE5A21" stroke-width="1.33333" stroke-miterlimit="8" fill="#ED7D31"/><text fill="#FFFFFF" font-family="Cambria Math,Cambria Math_MSFontService,sans-serif" font-weight="400" font-size="24" transform="translate(568.491 389)">1<tspan x="18.6667" y="0">Ã—</tspan><tspan x="41.1667" y="0">1</tspan><tspan x="54.5" y="0"> </tspan><tspan x="59.8333" y="0">ğ‘ğ‘œğ‘›ğ‘£ğ‘œğ‘™ğ‘¢ğ‘¡ğ‘–ğ‘œğ‘›</tspan><tspan font-family="Calibri,Calibri_MSFontService,sans-serif" x="77.7933" y="28">PEs</tspan></text><rect x="1049.5" y="486.5" width="216" height="108" stroke="#AE5A21" stroke-width="1.33333" stroke-miterlimit="8" fill="#ED7D31"/><text fill="#FFFFFF" font-family="Cambria Math,Cambria Math_MSFontService,sans-serif" font-weight="400" font-size="24" transform="translate(1067.56 534)">ğ·ğ‘†ğ¶<tspan x="44.72" y="0"> </tspan><tspan x="50.0533" y="0">ğ‘ğ‘œğ‘›ğ‘£ğ‘œğ‘™ğ‘¢ğ‘¡ğ‘–ğ‘œğ‘›</tspan><tspan font-family="Calibri,Calibri_MSFontService,sans-serif" x="72.9" y="28">PEs</tspan></text><path d="M899.078 261 899.078 305.263 663 305.263 667 301.263 667 321.526 659 321.526 659 297.263 895.078 297.263 891.078 301.263 891.078 261ZM675 317.526 663 341.526 651 317.526Z"/><path d="M973 216 1161.28 216 1161.28 466.396 1153.28 466.396 1153.28 220 1157.28 224 973 224ZM1169.28 462.396 1157.28 486.396 1145.28 462.396Z"/><rect x="249.5" y="304.5" width="171" height="74" stroke="#507E32" stroke-width="1.33333" stroke-miterlimit="8" fill="#70AD47"/><text fill="#FFFFFF" font-family="Calibri,Calibri_MSFontService,sans-serif" font-weight="400" font-size="24" transform="translate(283.245 349)">FMI Buffer</text><rect x="248.5" y="388.5" width="171" height="74" stroke="#507E32" stroke-width="1.33333" stroke-miterlimit="8" fill="#70AD47"/><text fill="#FFFFFF" font-family="Calibri,Calibri_MSFontService,sans-serif" font-weight="400" font-size="24" transform="translate(282.725 433)">KEX Buffer</text><rect x="248.5" y="473.5" width="171" height="74" stroke="#507E32" stroke-width="1.33333" stroke-miterlimit="8" fill="#70AD47"/><text fill="#FFFFFF" font-family="Calibri,Calibri_MSFontService,sans-serif" font-weight="400" font-size="24" transform="translate(276.808 518)">KDW Buffer</text><rect x="248.5" y="557.5" width="171" height="74" stroke="#507E32" stroke-width="1.33333" stroke-miterlimit="8" fill="#70AD47"/><text fill="#FFFFFF" font-family="Calibri,Calibri_MSFontService,sans-serif" font-weight="400" font-size="24" transform="translate(277.975 602)">KPW Buffer</text><rect x="248.5" y="643.5" width="171" height="74" stroke="#507E32" stroke-width="1.33333" stroke-miterlimit="8" fill="#70AD47"/><text fill="#FFFFFF" font-family="Calibri,Calibri_MSFontService,sans-serif" font-weight="400" font-size="24" transform="translate(277.392 687)">FMO Buffer</text><path d="M420 337 492.039 337 492.039 365.643 488.039 361.643 536.079 361.643 536.079 369.643 484.039 369.643 484.039 341 488.039 345 420 345ZM532.079 353.643 556.079 365.643 532.079 377.643Z" fill="#70AD47"/><path d="M0.0393916-3.99981 116.119-2.85661 116.041 5.14301-0.0393916 3.99981ZM112.198-10.8956 136.079 1.34016 111.962 13.1032Z" fill="#70AD47" transform="matrix(1 0 0 -1 419 425.34)"/><rect x="879.5" y="359.5" width="170" height="74" stroke="#507E32" stroke-width="1.33333" stroke-miterlimit="8" fill="#70AD47"/><text fill="#FFFFFF" font-family="Calibri,Calibri_MSFontService,sans-serif" font-weight="400" font-size="24" transform="translate(912.566 403)">FMI Buffer</text><path d="M771.026 391 858.832 391.57 858.78 399.57 770.974 399ZM854.884 383.544 878.806 395.7 854.728 407.544Z" fill="#ED7D31"/><path d="M1161.06 594 1161.06 695.702 439 695.702 439 687.702 1157.06 687.702 1153.06 691.702 1153.06 594ZM443 703.702 419 691.702 443 679.702Z" fill="#ED7D31"/><path d="M1049 392 1093.34 392 1093.34 467.014 1085.34 467.014 1085.34 396 1089.34 400 1049 400ZM1101.34 463.014 1089.34 487.014 1077.34 463.014Z" fill="#70AD47"/><path d="M0.016038-3.99997 610.274-1.55312 610.242 6.44682-0.016038 3.99997ZM606.305-9.5691 630.257 2.52703 606.209 14.4307Z" fill="#70AD47" transform="matrix(1 0 0 -1 419 510.527)"/><path d="M0.00717883-3.99999 610.265-2.90476 610.251 5.09523-0.00717883 3.99999ZM606.279-10.9119 630.257 1.13113 606.235 13.088Z" fill="#70AD47" transform="matrix(1 0 0 -1 419 580.131)"/><path d="M23.0088 598 228.328 598.45 228.31 606.45 22.9912 606ZM224.345 590.441 248.319 602.494 224.293 614.441Z" fill="#4472C4"/><path d="M3.99964-0.0535665 4.78787 58.801-3.21141 58.9082-3.99964 0.0535665ZM12.7336 54.6943 1.05606 78.8528-11.2643 55.0157Z" fill="#4472C4" transform="matrix(-1 -8.74228e-08 -8.74228e-08 1 192.056 98)"/><path d="M4-5.363e-06 4.00008 58.3046-3.99992 58.3046-4 5.363e-06ZM12.0001 54.3046 0.000104987 78.3046-11.9999 54.3046Z" fill="#4472C4" transform="matrix(1 0 0 -1 95 178.305)"/><path d="M93.0822 155 93.0822 150.867 27.0001 150.867 27.0001 602.733" stroke="#4472C4" stroke-width="8" stroke-miterlimit="8" fill="none" fill-rule="evenodd"/><path d="M0.0101595-3.99999 205.329-3.4785 205.309 4.52147-0.0101595 3.99999ZM201.349-11.4886 225.319 0.572283 201.288 12.5113Z" fill="#4472C4" transform="matrix(1 0 0 -1 23 523.572)"/><path d="M0.0421418-3.99978 205.362-1.83652 205.278 6.16303-0.0421418 3.99978ZM201.446-9.87822 225.319 2.37396 201.194 14.1204Z" fill="#4472C4" transform="matrix(1 0 0 -1 23 440.374)"/><path d="M0.0538665-3.99964 207.595-1.20451 207.487 6.79477-0.0538665 3.99964ZM203.703-9.25765 227.539 3.06446 203.38 14.7402Z" fill="#4472C4" transform="matrix(1 0 0 -1 22 359.064)"/><path d="M248.345 684.205 80 684.205 80 281 88 281 88 680.205 84 676.205 248.345 676.205ZM72 285 84 261 96 285Z" fill="#70AD47"/><path d="M0-1 400.202-1 400.067 107.188 398.067 107.185 398.201-0.00124516 399.201 1 0 1ZM403.181 106.261 398.4 113.82 395.221 105.46Z" fill="#4472C4" transform="matrix(-4.37114e-08 1 1 4.37114e-08 135 261)"/><path d="M0-1 228.9-1 228.883 74.2256 226.883 74.2252 226.9-0.000224895 227.9 1 0 1ZM231.9 72.9423 227.8 80.8915 223.9 72.8421Z" fill="#4472C4" transform="matrix(-4.37114e-08 1 1 4.37114e-08 167 261)"/><path d="M0-1 148.312-1 148.196 55.239 146.196 55.2349 146.31-0.00207932 147.31 1 0 1ZM151.296 54.2532 146.621 61.8788 143.325 53.564Z" fill="#4472C4" transform="matrix(-4.37114e-08 1 1 4.37114e-08 186 258)"/><path d="M0-1 52.9778-1 52.9741 40.6479 50.9741 40.6477 50.9777-8.94309e-05 51.9777 1 0 1ZM55.9777 39.3254 51.9559 47.3144 47.9777 39.3036Z" fill="#4472C4" transform="matrix(-4.37114e-08 1 1 4.37114e-08 201 261)"/><path d="M0-1 316.719-1 316.671 93.4742 314.671 93.4732 314.719-0.000506269 315.719 1 0 1ZM319.716 92.2832 315.435 100.136 311.721 91.9993Z" fill="#4472C4" transform="matrix(-4.37114e-08 1 1 4.37114e-08 150 258)"/><path d="M0-4 701.39-4 701.28 53.1446 693.28 53.1292 693.382-0.00769762 697.382 4 0 4ZM709.378 49.4449 696.769 73.1304 685.386 48.8315Z" fill="#70AD47" transform="matrix(1 0 0 -1 417 666.13)"/><path d="M212 235 796.893 235 796.893 243 212 243ZM792.893 227 816.893 239 792.893 251Z" fill="#4472C4"/><path d="M938 47.9976 938.067 159.135 930.067 159.14 930 48.0024ZM946.064 155.13 934.079 179.138 922.064 155.145Z"/><text font-family="Calibri,Calibri_MSFontService,sans-serif" font-weight="400" font-size="24" transform="translate(911.466 36)">start</text><path d="M4-3.20234e-06 4.00009 111.138-3.99991 111.138-4 3.20234e-06ZM12.0001 107.138 0.000104987 131.138-11.9999 107.138Z" transform="matrix(1 0 0 -1 847 179.138)"/><text font-family="Calibri,Calibri_MSFontService,sans-serif" font-weight="400" font-size="24" transform="translate(821.889 36)">finish</text><path d="M1065 48 1065 126.426 1061 126.426 1061 48ZM1069 124.426 1063 136.426 1057 124.426Z" fill="#ED7D31"/><text fill="#ED7D31" font-family="Calibri,Calibri_MSFontService,sans-serif" font-weight="400" font-size="24" transform="translate(1050.03 36)">rst</text><path d="M1143 47 1143 125.426 1139 125.426 1139 47ZM1147 123.426 1141 135.426 1135 123.426Z" fill="#ED7D31"/><text fill="#ED7D31" font-family="Calibri,Calibri_MSFontService,sans-serif" font-weight="400" font-size="24" transform="translate(1127.52 35)">cl<tspan x="15.6667" y="0">k</tspan></text><path d="M1159.5 136.5 1141.5 174.5 1123.5 136.5Z" stroke="#ED7D31" stroke-width="3" stroke-linejoin="round" stroke-miterlimit="10" fill="none" fill-rule="evenodd"/></g></svg>