<svg width="1086" height="488" xmlns="http://www.w3.org/2000/svg" xmlns:xlink="http://www.w3.org/1999/xlink" overflow="hidden"><defs><clipPath id="clip0"><path d="M252 175 1338 175 1338 663 252 663Z" fill-rule="evenodd" clip-rule="evenodd"/></clipPath></defs><g clip-path="url(#clip0)" transform="translate(-252 -175)"><path d="M254.5 603.375C254.5 606.619 437.392 609.249 663 609.249 888.608 609.249 1071.5 606.619 1071.5 603.375L1071.5 638.625C1071.5 641.87 888.608 644.5 663 644.5 437.392 644.5 254.5 641.87 254.5 638.625Z" fill="#4472C4" fill-rule="evenodd"/><path d="M254.5 603.375C254.5 600.13 437.392 597.5 663 597.5 888.608 597.5 1071.5 600.13 1071.5 603.375 1071.5 606.619 888.608 609.249 663 609.249 437.392 609.249 254.5 606.619 254.5 603.375Z" fill="#8FAADC" fill-rule="evenodd"/><path d="M1071.5 603.375C1071.5 606.619 888.608 609.249 663 609.249 437.392 609.249 254.5 606.619 254.5 603.375 254.5 600.13 437.392 597.5 663 597.5 888.608 597.5 1071.5 600.13 1071.5 603.375ZM1071.5 603.375 1071.5 638.625C1071.5 641.87 888.608 644.5 663 644.5 437.392 644.5 254.5 641.87 254.5 638.625L254.5 603.375" stroke="#2F528F" stroke-width="1.33333" stroke-miterlimit="8" fill="none" fill-rule="evenodd"/><text fill="#FFFFFF" font-family="Calibri,Calibri_MSFontService,sans-serif" font-weight="400" font-size="32" transform="translate(473.402 635)">Standard convolution kernels</text><path d="M254.5 568.375C254.5 571.619 437.392 574.249 663 574.249 888.608 574.249 1071.5 571.619 1071.5 568.375L1071.5 603.625C1071.5 606.87 888.608 609.5 663 609.5 437.392 609.5 254.5 606.87 254.5 603.625Z" fill="#FFFFFF" fill-rule="evenodd"/><path d="M254.5 568.375C254.5 565.13 437.392 562.5 663 562.5 888.608 562.5 1071.5 565.13 1071.5 568.375 1071.5 571.619 888.608 574.249 663 574.249 437.392 574.249 254.5 571.619 254.5 568.375Z" fill="#FFFFFF" fill-rule="evenodd"/><path d="M1071.5 568.375C1071.5 571.619 888.608 574.249 663 574.249 437.392 574.249 254.5 571.619 254.5 568.375 254.5 565.13 437.392 562.5 663 562.5 888.608 562.5 1071.5 565.13 1071.5 568.375ZM1071.5 568.375 1071.5 603.625C1071.5 606.87 888.608 609.5 663 609.5 437.392 609.5 254.5 606.87 254.5 603.625L254.5 568.375" stroke="#4472C4" stroke-width="1.33333" stroke-miterlimit="8" fill="none" fill-rule="evenodd"/><path d="M254.5 533.375C254.5 536.619 437.392 539.249 663 539.249 888.608 539.249 1071.5 536.619 1071.5 533.375L1071.5 568.625C1071.5 571.87 888.608 574.5 663 574.5 437.392 574.5 254.5 571.87 254.5 568.625Z" fill="#4472C4" fill-rule="evenodd"/><path d="M254.5 533.375C254.5 530.13 437.392 527.5 663 527.5 888.608 527.5 1071.5 530.13 1071.5 533.375 1071.5 536.619 888.608 539.249 663 539.249 437.392 539.249 254.5 536.619 254.5 533.375Z" fill="#8FAADC" fill-rule="evenodd"/><path d="M1071.5 533.375C1071.5 536.619 888.608 539.249 663 539.249 437.392 539.249 254.5 536.619 254.5 533.375 254.5 530.13 437.392 527.5 663 527.5 888.608 527.5 1071.5 530.13 1071.5 533.375ZM1071.5 533.375 1071.5 568.625C1071.5 571.87 888.608 574.5 663 574.5 437.392 574.5 254.5 571.87 254.5 568.625L254.5 533.375" stroke="#2F528F" stroke-width="1.33333" stroke-miterlimit="8" fill="none" fill-rule="evenodd"/><text fill="#FFFFFF" font-family="Calibri,Calibri_MSFontService,sans-serif" font-weight="400" font-size="32" transform="translate(537.572 564)">Depthtwise<tspan x="156.06" y="0">kernels</tspan></text><path d="M254.5 499.375C254.5 502.619 437.392 505.249 663 505.249 888.608 505.249 1071.5 502.619 1071.5 499.375L1071.5 534.625C1071.5 537.87 888.608 540.5 663 540.5 437.392 540.5 254.5 537.87 254.5 534.625Z" fill="#FFFFFF" fill-rule="evenodd"/><path d="M254.5 499.375C254.5 496.13 437.392 493.5 663 493.5 888.608 493.5 1071.5 496.13 1071.5 499.375 1071.5 502.619 888.608 505.249 663 505.249 437.392 505.249 254.5 502.619 254.5 499.375Z" fill="#FFFFFF" fill-rule="evenodd"/><path d="M1071.5 499.375C1071.5 502.619 888.608 505.249 663 505.249 437.392 505.249 254.5 502.619 254.5 499.375 254.5 496.13 437.392 493.5 663 493.5 888.608 493.5 1071.5 496.13 1071.5 499.375ZM1071.5 499.375 1071.5 534.625C1071.5 537.87 888.608 540.5 663 540.5 437.392 540.5 254.5 537.87 254.5 534.625L254.5 499.375" stroke="#4472C4" stroke-width="1.33333" stroke-miterlimit="8" fill="none" fill-rule="evenodd"/><path d="M254.5 464.375C254.5 467.619 437.392 470.249 663 470.249 888.608 470.249 1071.5 467.619 1071.5 464.375L1071.5 499.625C1071.5 502.87 888.608 505.5 663 505.5 437.392 505.5 254.5 502.87 254.5 499.625Z" fill="#4472C4" fill-rule="evenodd"/><path d="M254.5 464.375C254.5 461.13 437.392 458.5 663 458.5 888.608 458.5 1071.5 461.13 1071.5 464.375 1071.5 467.619 888.608 470.249 663 470.249 437.392 470.249 254.5 467.619 254.5 464.375Z" fill="#8FAADC" fill-rule="evenodd"/><path d="M1071.5 464.375C1071.5 467.619 888.608 470.249 663 470.249 437.392 470.249 254.5 467.619 254.5 464.375 254.5 461.13 437.392 458.5 663 458.5 888.608 458.5 1071.5 461.13 1071.5 464.375ZM1071.5 464.375 1071.5 499.625C1071.5 502.87 888.608 505.5 663 505.5 437.392 505.5 254.5 502.87 254.5 499.625L254.5 464.375" stroke="#2F528F" stroke-width="1.33333" stroke-miterlimit="8" fill="none" fill-rule="evenodd"/><text fill="#FFFFFF" font-family="Calibri,Calibri_MSFontService,sans-serif" font-weight="400" font-size="32" transform="translate(549.072 496)">Pointwise<tspan x="133.06" y="0">kernels</tspan></text><path d="M254.5 429.375C254.5 432.619 437.392 435.249 663 435.249 888.608 435.249 1071.5 432.619 1071.5 429.375L1071.5 464.625C1071.5 467.87 888.608 470.5 663 470.5 437.392 470.5 254.5 467.87 254.5 464.625Z" fill="#FFFFFF" fill-rule="evenodd"/><path d="M254.5 429.375C254.5 426.13 437.392 423.5 663 423.5 888.608 423.5 1071.5 426.13 1071.5 429.375 1071.5 432.619 888.608 435.249 663 435.249 437.392 435.249 254.5 432.619 254.5 429.375Z" fill="#FFFFFF" fill-rule="evenodd"/><path d="M1071.5 429.375C1071.5 432.619 888.608 435.249 663 435.249 437.392 435.249 254.5 432.619 254.5 429.375 254.5 426.13 437.392 423.5 663 423.5 888.608 423.5 1071.5 426.13 1071.5 429.375ZM1071.5 429.375 1071.5 464.625C1071.5 467.87 888.608 470.5 663 470.5 437.392 470.5 254.5 467.87 254.5 464.625L254.5 429.375" stroke="#4472C4" stroke-width="1.33333" stroke-miterlimit="8" fill="none" fill-rule="evenodd"/><path d="M254.5 394.375C254.5 397.619 437.392 400.249 663 400.249 888.608 400.249 1071.5 397.619 1071.5 394.375L1071.5 429.625C1071.5 432.87 888.608 435.5 663 435.5 437.392 435.5 254.5 432.87 254.5 429.625Z" fill="#4472C4" fill-rule="evenodd"/><path d="M254.5 394.375C254.5 391.13 437.392 388.5 663 388.5 888.608 388.5 1071.5 391.13 1071.5 394.375 1071.5 397.619 888.608 400.249 663 400.249 437.392 400.249 254.5 397.619 254.5 394.375Z" fill="#8FAADC" fill-rule="evenodd"/><path d="M1071.5 394.375C1071.5 397.619 888.608 400.249 663 400.249 437.392 400.249 254.5 397.619 254.5 394.375 254.5 391.13 437.392 388.5 663 388.5 888.608 388.5 1071.5 391.13 1071.5 394.375ZM1071.5 394.375 1071.5 429.625C1071.5 432.87 888.608 435.5 663 435.5 437.392 435.5 254.5 432.87 254.5 429.625L254.5 394.375" stroke="#2F528F" stroke-width="1.33333" stroke-miterlimit="8" fill="none" fill-rule="evenodd"/><text fill="#FFFFFF" font-family="Cambria Math,Cambria Math_MSFontService,sans-serif" font-weight="400" font-size="32" transform="translate(575.822 426)">1<tspan x="24.78" y="0">×</tspan><tspan x="54.7266" y="0">1</tspan><tspan font-family="Calibri,Calibri_MSFontService,sans-serif" x="79.56" y="0">kernels</tspan></text><path d="M254.5 359.375C254.5 362.619 437.392 365.249 663 365.249 888.608 365.249 1071.5 362.619 1071.5 359.375L1071.5 394.625C1071.5 397.87 888.608 400.5 663 400.5 437.392 400.5 254.5 397.87 254.5 394.625Z" fill="#FFFFFF" fill-rule="evenodd"/><path d="M254.5 359.375C254.5 356.13 437.392 353.5 663 353.5 888.608 353.5 1071.5 356.13 1071.5 359.375 1071.5 362.619 888.608 365.249 663 365.249 437.392 365.249 254.5 362.619 254.5 359.375Z" fill="#FFFFFF" fill-rule="evenodd"/><path d="M1071.5 359.375C1071.5 362.619 888.608 365.249 663 365.249 437.392 365.249 254.5 362.619 254.5 359.375 254.5 356.13 437.392 353.5 663 353.5 888.608 353.5 1071.5 356.13 1071.5 359.375ZM1071.5 359.375 1071.5 394.625C1071.5 397.87 888.608 400.5 663 400.5 437.392 400.5 254.5 397.87 254.5 394.625L254.5 359.375" stroke="#4472C4" stroke-width="1.33333" stroke-miterlimit="8" fill="none" fill-rule="evenodd"/><path d="M254.5 324.375C254.5 327.619 437.392 330.249 663 330.249 888.608 330.249 1071.5 327.619 1071.5 324.375L1071.5 359.625C1071.5 362.87 888.608 365.5 663 365.5 437.392 365.5 254.5 362.87 254.5 359.625Z" fill="#4472C4" fill-rule="evenodd"/><path d="M254.5 324.375C254.5 321.13 437.392 318.5 663 318.5 888.608 318.5 1071.5 321.13 1071.5 324.375 1071.5 327.619 888.608 330.249 663 330.249 437.392 330.249 254.5 327.619 254.5 324.375Z" fill="#8FAADC" fill-rule="evenodd"/><path d="M1071.5 324.375C1071.5 327.619 888.608 330.249 663 330.249 437.392 330.249 254.5 327.619 254.5 324.375 254.5 321.13 437.392 318.5 663 318.5 888.608 318.5 1071.5 321.13 1071.5 324.375ZM1071.5 324.375 1071.5 359.625C1071.5 362.87 888.608 365.5 663 365.5 437.392 365.5 254.5 362.87 254.5 359.625L254.5 324.375" stroke="#2F528F" stroke-width="1.33333" stroke-miterlimit="8" fill="none" fill-rule="evenodd"/><text fill="#FFFFFF" font-family="Calibri,Calibri_MSFontService,sans-serif" font-weight="400" font-size="32" transform="translate(599.502 356)">FMO/FMI</text><path d="M254.5 289.375C254.5 292.619 437.392 295.249 663 295.249 888.608 295.249 1071.5 292.619 1071.5 289.375L1071.5 324.625C1071.5 327.87 888.608 330.5 663 330.5 437.392 330.5 254.5 327.87 254.5 324.625Z" fill="#FFFFFF" fill-rule="evenodd"/><path d="M254.5 289.375C254.5 286.13 437.392 283.5 663 283.5 888.608 283.5 1071.5 286.13 1071.5 289.375 1071.5 292.619 888.608 295.249 663 295.249 437.392 295.249 254.5 292.619 254.5 289.375Z" fill="#FFFFFF" fill-rule="evenodd"/><path d="M1071.5 289.375C1071.5 292.619 888.608 295.249 663 295.249 437.392 295.249 254.5 292.619 254.5 289.375 254.5 286.13 437.392 283.5 663 283.5 888.608 283.5 1071.5 286.13 1071.5 289.375ZM1071.5 289.375 1071.5 324.625C1071.5 327.87 888.608 330.5 663 330.5 437.392 330.5 254.5 327.87 254.5 324.625L254.5 289.375" stroke="#4472C4" stroke-width="1.33333" stroke-miterlimit="8" fill="none" fill-rule="evenodd"/><path d="M254.5 254.375C254.5 257.619 437.392 260.249 663 260.249 888.608 260.249 1071.5 257.619 1071.5 254.375L1071.5 289.625C1071.5 292.87 888.608 295.5 663 295.5 437.392 295.5 254.5 292.87 254.5 289.625Z" fill="#4472C4" fill-rule="evenodd"/><path d="M254.5 254.375C254.5 251.13 437.392 248.5 663 248.5 888.608 248.5 1071.5 251.13 1071.5 254.375 1071.5 257.619 888.608 260.249 663 260.249 437.392 260.249 254.5 257.619 254.5 254.375Z" fill="#8FAADC" fill-rule="evenodd"/><path d="M1071.5 254.375C1071.5 257.619 888.608 260.249 663 260.249 437.392 260.249 254.5 257.619 254.5 254.375 254.5 251.13 437.392 248.5 663 248.5 888.608 248.5 1071.5 251.13 1071.5 254.375ZM1071.5 254.375 1071.5 289.625C1071.5 292.87 888.608 295.5 663 295.5 437.392 295.5 254.5 292.87 254.5 289.625L254.5 254.375" stroke="#2F528F" stroke-width="1.33333" stroke-miterlimit="8" fill="none" fill-rule="evenodd"/><text fill="#FFFFFF" font-family="Calibri,Calibri_MSFontService,sans-serif" font-weight="400" font-size="32" transform="translate(599.502 285)">FMI/FMO</text><path d="M254.5 219.375C254.5 222.619 437.392 225.249 663 225.249 888.608 225.249 1071.5 222.619 1071.5 219.375L1071.5 254.625C1071.5 257.87 888.608 260.5 663 260.5 437.392 260.5 254.5 257.87 254.5 254.625Z" fill="#FFFFFF" fill-rule="evenodd"/><path d="M254.5 219.375C254.5 216.13 437.392 213.5 663 213.5 888.608 213.5 1071.5 216.13 1071.5 219.375 1071.5 222.619 888.608 225.249 663 225.249 437.392 225.249 254.5 222.619 254.5 219.375Z" fill="#FFFFFF" fill-rule="evenodd"/><path d="M1071.5 219.375C1071.5 222.619 888.608 225.249 663 225.249 437.392 225.249 254.5 222.619 254.5 219.375 254.5 216.13 437.392 213.5 663 213.5 888.608 213.5 1071.5 216.13 1071.5 219.375ZM1071.5 219.375 1071.5 254.625C1071.5 257.87 888.608 260.5 663 260.5 437.392 260.5 254.5 257.87 254.5 254.625L254.5 219.375" stroke="#4472C4" stroke-width="1.33333" stroke-miterlimit="8" fill="none" fill-rule="evenodd"/><path d="M254.5 183.5C254.5 186.813 437.392 189.5 663 189.5 888.608 189.5 1071.5 186.813 1071.5 183.5L1071.5 219.5C1071.5 222.814 888.608 225.5 663 225.5 437.392 225.5 254.5 222.814 254.5 219.5Z" fill="#4472C4" fill-rule="evenodd"/><path d="M254.5 183.5C254.5 180.186 437.392 177.5 663 177.5 888.608 177.5 1071.5 180.186 1071.5 183.5 1071.5 186.813 888.608 189.5 663 189.5 437.392 189.5 254.5 186.813 254.5 183.5Z" fill="#8FAADC" fill-rule="evenodd"/><path d="M1071.5 183.5C1071.5 186.813 888.608 189.5 663 189.5 437.392 189.5 254.5 186.813 254.5 183.5 254.5 180.186 437.392 177.5 663 177.5 888.608 177.5 1071.5 180.186 1071.5 183.5ZM1071.5 183.5 1071.5 219.5C1071.5 222.814 888.608 225.5 663 225.5 437.392 225.5 254.5 222.814 254.5 219.5L254.5 183.5" stroke="#2F528F" stroke-width="1.33333" stroke-miterlimit="8" fill="none" fill-rule="evenodd"/><text fill="#FFFFFF" font-family="Calibri,Calibri_MSFontService,sans-serif" font-weight="400" font-size="32" transform="translate(547.242 215)">Layer information</text><path d="M1071 236 1081.21 236.299" stroke="#4472C4" stroke-width="2" stroke-miterlimit="8" fill="none" fill-rule="evenodd"/><path d="M1071.5 585.5 1081.71 585.5" stroke="#4472C4" stroke-width="0.666667" stroke-miterlimit="8" fill="none" fill-rule="evenodd"/><path d="M0 0 0.000104987 349.125" stroke="#4472C4" stroke-width="2" stroke-miterlimit="8" fill="none" fill-rule="evenodd" transform="matrix(1 0 0 -1 1081 585.125)"/><path d="M1071 306 1081.21 306" stroke="#4472C4" stroke-width="2" stroke-miterlimit="8" fill="none" fill-rule="evenodd"/><path d="M1071 376 1081.21 376" stroke="#4472C4" stroke-width="2" stroke-miterlimit="8" fill="none" fill-rule="evenodd"/><path d="M0 0 37.9177 0.000104987" stroke="#4472C4" stroke-width="2" stroke-miterlimit="8" fill="none" fill-rule="evenodd" transform="matrix(1 0 0 -1 1072 411)"/><path d="M1071 446 1081.21 446.149" stroke="#4472C4" stroke-width="2" stroke-miterlimit="8" fill="none" fill-rule="evenodd"/><path d="M1071 517 1081.21 517" stroke="#4472C4" stroke-width="2" stroke-miterlimit="8" fill="none" fill-rule="evenodd"/><text fill="#4472C4" font-family="Calibri,Calibri_MSFontService,sans-serif" font-weight="400" font-size="24" transform="translate(1116.02 418)">Padding</text></g></svg>