<?xml version="1.0" encoding="UTF-8" standalone="no"?>
<svg
   xmlns:dc="http://purl.org/dc/elements/1.1/"
   xmlns:cc="http://creativecommons.org/ns#"
   xmlns:rdf="http://www.w3.org/1999/02/22-rdf-syntax-ns#"
   xmlns:svg="http://www.w3.org/2000/svg"
   xmlns="http://www.w3.org/2000/svg"
   xmlns:sodipodi="http://sodipodi.sourceforge.net/DTD/sodipodi-0.dtd"
   xmlns:inkscape="http://www.inkscape.org/namespaces/inkscape"
   width="1286"
   height="722"
   overflow="hidden"
   version="1.1"
   id="svg135"
   sodipodi:docname="overal_archi.svg"
   inkscape:version="0.92.5 (2060ec1f9f, 2020-04-08)">
  <metadata
     id="metadata139">
    <rdf:RDF>
      <cc:Work
         rdf:about="">
        <dc:format>image/svg+xml</dc:format>
        <dc:type
           rdf:resource="http://purl.org/dc/dcmitype/StillImage" />
        <dc:title></dc:title>
      </cc:Work>
    </rdf:RDF>
  </metadata>
  <sodipodi:namedview
     pagecolor="#ffffff"
     bordercolor="#666666"
     borderopacity="1"
     objecttolerance="10"
     gridtolerance="10"
     guidetolerance="10"
     inkscape:pageopacity="0"
     inkscape:pageshadow="2"
     inkscape:window-width="640"
     inkscape:window-height="480"
     id="namedview137"
     showgrid="false"
     inkscape:zoom="0.27760498"
     inkscape:cx="643"
     inkscape:cy="361"
     inkscape:window-x="0"
     inkscape:window-y="0"
     inkscape:window-maximized="0"
     inkscape:current-layer="svg135" />
  <defs
     id="defs5">
    <clipPath
       id="clip0">
      <path
         d="M-3-3 1283-3 1283 719-3 719Z"
         fill-rule="evenodd"
         clip-rule="evenodd"
         id="path2" />
    </clipPath>
  </defs>
  <g
     clip-path="url(#clip0)"
     transform="translate(3 3)"
     id="g133">
    <rect
       x="44.5001"
       y="-1.50005"
       width="181"
       height="100"
       stroke="#2F528F"
       stroke-width="1.33333"
       stroke-miterlimit="8"
       fill="#4472C4"
       id="rect7" />
    <text
       fill="#FFFFFF"
       font-family="Calibri,Calibri_MSFontService,sans-serif"
       font-weight="400"
       font-size="24"
       transform="translate(94.6208 41)"
       id="text11">External<tspan
   x="-1.24"
   y="29"
   id="tspan9">memory</tspan>
</text>
    <rect
       x="0"
       y="136"
       width="1280"
       height="580"
       stroke="#ED7D31"
       stroke-width="4"
       stroke-linejoin="round"
       stroke-miterlimit="10"
       fill="none"
       id="rect13" />
    <text
       fill="#ED7D31"
       font-family="Calibri,Calibri_MSFontService,sans-serif"
       font-weight="400"
       font-size="24"
       transform="translate(1215.66 166)"
       id="text15">FPGA</text>
    <rect
       x="57.5001"
       y="179.5"
       width="155"
       height="82"
       stroke="#2F528F"
       stroke-width="1.33333"
       stroke-miterlimit="8"
       fill="#4472C4"
       id="rect17" />
    <text
       fill="#FFFFFF"
       font-family="Calibri,Calibri_MSFontService,sans-serif"
       font-weight="400"
       font-size="24"
       transform="translate(109.941 227)"
       id="text19">DMA</text>
    <rect
       x="972.5"
       y="179.5"
       width="156"
       height="82"
       stroke="#000000"
       stroke-width="1.33333"
       stroke-miterlimit="8"
       id="rect21" />
    <text
       fill="#FFFFFF"
       font-family="Calibri,Calibri_MSFontService,sans-serif"
       font-weight="400"
       font-size="24"
       transform="translate(1024.7 213)"
       id="text25">Main <tspan
   x="-22.4266"
   y="29"
   id="tspan23">controller</tspan>
</text>
    <path
       d="M5.52845e-07-4 739.612-3.9999 739.612 4.0001-5.52845e-07 4ZM735.612-11.9999 759.612 0.000104987 735.612 12.0001Z"
       transform="matrix(-1 -8.74228e-08 -8.74228e-08 1 971.612 201)"
       id="path27" />
    <rect
       x="555.5"
       y="341.5"
       width="216"
       height="108"
       stroke="#AE5A21"
       stroke-width="1.33333"
       stroke-miterlimit="8"
       fill="#ED7D31"
       id="rect29" />
    <text
       fill="#FFFFFF"
       font-family="Cambria Math,Cambria Math_MSFontService,sans-serif"
       font-weight="400"
       font-size="24"
       transform="translate(568.491 389)"
       id="text41">1<tspan
   x="18.6667"
   y="0"
   id="tspan31">Ã—</tspan>
<tspan
   x="41.1667"
   y="0"
   id="tspan33">1</tspan>
<tspan
   x="54.5"
   y="0"
   id="tspan35" />
<tspan
   x="59.8333"
   y="0"
   id="tspan37">ğ‘ğ‘œğ‘›ğ‘£ğ‘œğ‘™ğ‘¢ğ‘¡ğ‘–ğ‘œğ‘›</tspan>
<tspan
   font-family="Calibri,Calibri_MSFontService,sans-serif"
   x="77.7933"
   y="28"
   id="tspan39">PEs</tspan>
</text>
    <rect
       x="1049.5"
       y="486.5"
       width="216"
       height="108"
       stroke="#AE5A21"
       stroke-width="1.33333"
       stroke-miterlimit="8"
       fill="#ED7D31"
       id="rect43" />
    <text
       fill="#FFFFFF"
       font-family="Cambria Math,Cambria Math_MSFontService,sans-serif"
       font-weight="400"
       font-size="24"
       transform="translate(1067.56 534)"
       id="text51">ğ·ğ‘†ğ¶<tspan
   x="44.72"
   y="0"
   id="tspan45" />
<tspan
   x="50.0533"
   y="0"
   id="tspan47">ğ‘ğ‘œğ‘›ğ‘£ğ‘œğ‘™ğ‘¢ğ‘¡ğ‘–ğ‘œğ‘›</tspan>
<tspan
   font-family="Calibri,Calibri_MSFontService,sans-serif"
   x="72.9"
   y="28"
   id="tspan49">PEs</tspan>
</text>
    <path
       d="M1053.8 261 1053.8 305.263 663 305.263 667 301.263 667 321.526 659 321.526 659 297.263 1049.8 297.263 1045.8 301.263 1045.8 261ZM675 317.526 663 341.526 651 317.526Z"
       id="path53" />
    <path
       d="M1128 216 1161.56 216 1161.56 466.396 1153.56 466.396 1153.56 220 1157.56 224 1128 224ZM1169.56 462.396 1157.56 486.396 1145.56 462.396Z"
       id="path55" />
    <rect
       x="249.5"
       y="304.5"
       width="171"
       height="74"
       stroke="#507E32"
       stroke-width="1.33333"
       stroke-miterlimit="8"
       fill="#70AD47"
       id="rect57" />
    <text
       fill="#FFFFFF"
       font-family="Calibri,Calibri_MSFontService,sans-serif"
       font-weight="400"
       font-size="24"
       transform="translate(283.245 349)"
       id="text59">FMI Buffer</text>
    <rect
       x="248.5"
       y="388.5"
       width="171"
       height="74"
       stroke="#507E32"
       stroke-width="1.33333"
       stroke-miterlimit="8"
       fill="#70AD47"
       id="rect61" />
    <text
       fill="#FFFFFF"
       font-family="Calibri,Calibri_MSFontService,sans-serif"
       font-weight="400"
       font-size="24"
       transform="translate(282.725 433)"
       id="text63">KEX Buffer</text>
    <rect
       x="248.5"
       y="473.5"
       width="171"
       height="74"
       stroke="#507E32"
       stroke-width="1.33333"
       stroke-miterlimit="8"
       fill="#70AD47"
       id="rect65" />
    <text
       fill="#FFFFFF"
       font-family="Calibri,Calibri_MSFontService,sans-serif"
       font-weight="400"
       font-size="24"
       transform="translate(276.808 518)"
       id="text67">KDW Buffer</text>
    <rect
       x="248.5"
       y="557.5"
       width="171"
       height="74"
       stroke="#507E32"
       stroke-width="1.33333"
       stroke-miterlimit="8"
       fill="#70AD47"
       id="rect69" />
    <text
       fill="#FFFFFF"
       font-family="Calibri,Calibri_MSFontService,sans-serif"
       font-weight="400"
       font-size="24"
       transform="translate(277.975 602)"
       id="text71">KPW Buffer</text>
    <rect
       x="248.5"
       y="643.5"
       width="171"
       height="74"
       stroke="#507E32"
       stroke-width="1.33333"
       stroke-miterlimit="8"
       fill="#70AD47"
       id="rect73" />
    <text
       fill="#FFFFFF"
       font-family="Calibri,Calibri_MSFontService,sans-serif"
       font-weight="400"
       font-size="24"
       transform="translate(277.392 687)"
       id="text75">FMO Buffer</text>
    <path
       d="M420 337 492.039 337 492.039 365.643 488.039 361.643 536.079 361.643 536.079 369.643 484.039 369.643 484.039 341 488.039 345 420 345ZM532.079 353.643 556.079 365.643 532.079 377.643Z"
       fill="#70AD47"
       id="path77" />
    <path
       d="M0.0393916-3.99981 116.119-2.85661 116.041 5.14301-0.0393916 3.99981ZM112.198-10.8956 136.079 1.34016 111.962 13.1032Z"
       fill="#70AD47"
       transform="matrix(1 0 0 -1 419 425.34)"
       id="path79" />
    <rect
       x="879.5"
       y="359.5"
       width="170"
       height="74"
       stroke="#507E32"
       stroke-width="1.33333"
       stroke-miterlimit="8"
       fill="#70AD47"
       id="rect81" />
    <text
       fill="#FFFFFF"
       font-family="Calibri,Calibri_MSFontService,sans-serif"
       font-weight="400"
       font-size="24"
       transform="translate(912.566 403)"
       id="text83">FMI Buffer</text>
    <path
       d="M771.026 391 858.832 391.57 858.78 399.57 770.974 399ZM854.884 383.544 878.806 395.7 854.728 407.544Z"
       fill="#ED7D31"
       id="path85" />
    <path
       d="M1161.06 594 1161.06 695.702 439 695.702 439 687.702 1157.06 687.702 1153.06 691.702 1153.06 594ZM443 703.702 419 691.702 443 679.702Z"
       fill="#ED7D31"
       id="path87" />
    <path
       d="M1049 392 1093.34 392 1093.34 467.014 1085.34 467.014 1085.34 396 1089.34 400 1049 400ZM1101.34 463.014 1089.34 487.014 1077.34 463.014Z"
       fill="#70AD47"
       id="path89" />
    <path
       d="M0.016038-3.99997 610.274-1.55312 610.242 6.44682-0.016038 3.99997ZM606.305-9.5691 630.257 2.52703 606.209 14.4307Z"
       fill="#70AD47"
       transform="matrix(1 0 0 -1 419 510.527)"
       id="path91" />
    <path
       d="M0.00717883-3.99999 610.265-2.90476 610.251 5.09523-0.00717883 3.99999ZM606.279-10.9119 630.257 1.13113 606.235 13.088Z"
       fill="#70AD47"
       transform="matrix(1 0 0 -1 419 580.131)"
       id="path93" />
    <path
       d="M23.0088 598 228.328 598.45 228.31 606.45 22.9912 606ZM224.345 590.441 248.319 602.494 224.293 614.441Z"
       fill="#4472C4"
       id="path95" />
    <path
       d="M3.99964-0.0535665 4.78787 58.801-3.21141 58.9082-3.99964 0.0535665ZM12.7336 54.6943 1.05606 78.8528-11.2643 55.0157Z"
       fill="#4472C4"
       transform="matrix(-1 -8.74228e-08 -8.74228e-08 1 192.056 98)"
       id="path97" />
    <path
       d="M4-5.363e-06 4.00008 58.3046-3.99992 58.3046-4 5.363e-06ZM12.0001 54.3046 0.000104987 78.3046-11.9999 54.3046Z"
       fill="#4472C4"
       transform="matrix(1 0 0 -1 95 178.305)"
       id="path99" />
    <path
       d="M93.0822 155 93.0822 150.867 27.0001 150.867 27.0001 602.733"
       stroke="#4472C4"
       stroke-width="8"
       stroke-miterlimit="8"
       fill="none"
       fill-rule="evenodd"
       id="path101" />
    <path
       d="M0.0101595-3.99999 205.329-3.4785 205.309 4.52147-0.0101595 3.99999ZM201.349-11.4886 225.319 0.572283 201.288 12.5113Z"
       fill="#4472C4"
       transform="matrix(1 0 0 -1 23 523.572)"
       id="path103" />
    <path
       d="M0.0421418-3.99978 205.362-1.83652 205.278 6.16303-0.0421418 3.99978ZM201.446-9.87822 225.319 2.37396 201.194 14.1204Z"
       fill="#4472C4"
       transform="matrix(1 0 0 -1 23 440.374)"
       id="path105" />
    <path
       d="M0.0538665-3.99964 207.595-1.20451 207.487 6.79477-0.0538665 3.99964ZM203.703-9.25765 227.539 3.06446 203.38 14.7402Z"
       fill="#4472C4"
       transform="matrix(1 0 0 -1 22 359.064)"
       id="path107" />
    <path
       d="M248.345 684.205 80 684.205 80 281 88 281 88 680.205 84 676.205 248.345 676.205ZM72 285 84 261 96 285Z"
       fill="#70AD47"
       id="path109" />
    <path
       d="M0-1 400.202-1 400.067 107.188 398.067 107.185 398.201-0.00124516 399.201 1 0 1ZM403.181 106.261 398.4 113.82 395.221 105.46Z"
       fill="#4472C4"
       transform="matrix(-4.37114e-08 1 1 4.37114e-08 135 261)"
       id="path111" />
    <path
       d="M0-1 228.9-1 228.883 74.2256 226.883 74.2252 226.9-0.000224895 227.9 1 0 1ZM231.9 72.9423 227.8 80.8915 223.9 72.8421Z"
       fill="#4472C4"
       transform="matrix(-4.37114e-08 1 1 4.37114e-08 167 261)"
       id="path113" />
    <path
       d="M0-1 148.312-1 148.196 55.239 146.196 55.2349 146.31-0.00207932 147.31 1 0 1ZM151.296 54.2532 146.621 61.8788 143.325 53.564Z"
       fill="#4472C4"
       transform="matrix(-4.37114e-08 1 1 4.37114e-08 186 258)"
       id="path115" />
    <path
       d="M0-1 52.9778-1 52.9741 40.6479 50.9741 40.6477 50.9777-8.94309e-05 51.9777 1 0 1ZM55.9777 39.3254 51.9559 47.3144 47.9777 39.3036Z"
       fill="#4472C4"
       transform="matrix(-4.37114e-08 1 1 4.37114e-08 201 261)"
       id="path117" />
    <path
       d="M0-1 316.719-1 316.671 93.4742 314.671 93.4732 314.719-0.000506269 315.719 1 0 1ZM319.716 92.2832 315.435 100.136 311.721 91.9993Z"
       fill="#4472C4"
       transform="matrix(-4.37114e-08 1 1 4.37114e-08 150 258)"
       id="path119" />
    <path
       d="M0-4 701.39-4 701.28 53.1446 693.28 53.1292 693.382-0.00769762 697.382 4 0 4ZM709.378 49.4449 696.769 73.1304 685.386 48.8315Z"
       fill="#70AD47"
       transform="matrix(1 0 0 -1 417 666.13)"
       id="path121" />
    <path
       d="M212.004 235 951.615 235.756 951.607 243.756 211.996 243ZM947.624 227.751 971.612 239.776 947.599 251.751Z"
       fill="#4472C4"
       id="path123" />
    <path
       d="M1092 47.9976 1092.07 159.135 1084.07 159.14 1084 48.0024ZM1100.06 155.13 1088.08 179.138 1076.06 155.145Z"
       id="path125" />
    <text
       font-family="Calibri,Calibri_MSFontService,sans-serif"
       font-weight="400"
       font-size="24"
       transform="translate(1066.18 36)"
       id="text127">start</text>
    <path
       d="M4-3.20234e-06 4.00009 111.138-3.99991 111.138-4 3.20234e-06ZM12.0001 107.138 0.000104987 131.138-11.9999 107.138Z"
       transform="matrix(1 0 0 -1 1002 179.138)"
       id="path129" />
    <text
       font-family="Calibri,Calibri_MSFontService,sans-serif"
       font-weight="400"
       font-size="24"
       transform="translate(974.956 42)"
       id="text131">finish</text>
  </g>
</svg>
