<svg width="974" height="592" xmlns="http://www.w3.org/2000/svg" xmlns:xlink="http://www.w3.org/1999/xlink" overflow="hidden"><defs><clipPath id="clip0"><path d="M159 93 1133 93 1133 685 159 685Z" fill-rule="evenodd" clip-rule="evenodd"/></clipPath></defs><g clip-path="url(#clip0)" transform="translate(-159 -93)"><path d="M237.574 238.181 396.595 349.73 395.447 351.367 236.426 239.819ZM397.227 346.508 401.479 354.377 392.633 353.058Z"/><path d="M161 238.5C161 217.789 178.013 201 199 201 219.987 201 237 217.789 237 238.5 237 259.211 219.987 276 199 276 178.013 276 161 259.211 161 238.5Z" stroke="#FFFFFF" stroke-width="2" stroke-miterlimit="8" fill="#ED7D31" fill-rule="evenodd"/><text fill="#FFFFFF" font-family="Cambria Math,Cambria Math_MSFontService,sans-serif" font-weight="400" font-size="24" transform="translate(187.15 247)">𝑥<tspan font-size="18" x="12.0467" y="5">1</tspan></text><path d="M161 523C161 502.013 178.013 485 199 485 219.987 485 237 502.013 237 523 237 543.987 219.987 561 199 561 178.013 561 161 543.987 161 523Z" stroke="#FFFFFF" stroke-width="2" stroke-miterlimit="8" fill="#ED7D31" fill-rule="evenodd"/><text fill="#FFFFFF" font-family="Cambria Math,Cambria Math_MSFontService,sans-serif" font-weight="400" font-size="24" transform="translate(181.67 530)">𝑥<tspan font-size="18" x="12.6" y="5">𝑁</tspan><tspan font-size="14" x="25.7667" y="9">𝑖𝑛</tspan></text><path d="M193.5 381C193.5 377.962 195.962 375.5 199 375.5 202.038 375.5 204.5 377.962 204.5 381 204.5 384.038 202.038 386.5 199 386.5 195.962 386.5 193.5 384.038 193.5 381Z" stroke="#000000" stroke-width="1.33333" stroke-miterlimit="8" fill-rule="evenodd"/><path d="M193.5 326C193.5 322.962 195.962 320.5 199 320.5 202.038 320.5 204.5 322.962 204.5 326 204.5 329.038 202.038 331.5 199 331.5 195.962 331.5 193.5 329.038 193.5 326Z" stroke="#000000" stroke-width="1.33333" stroke-miterlimit="8" fill-rule="evenodd"/><path d="M193.5 436C193.5 432.962 195.962 430.5 199 430.5 202.038 430.5 204.5 432.962 204.5 436 204.5 439.038 202.038 441.5 199 441.5 195.962 441.5 193.5 439.038 193.5 436Z" stroke="#000000" stroke-width="1.33333" stroke-miterlimit="8" fill-rule="evenodd"/><path d="M390.5 381.5C390.5 360.513 407.513 343.5 428.5 343.5 449.487 343.5 466.5 360.513 466.5 381.5 466.5 402.487 449.487 419.5 428.5 419.5 407.513 419.5 390.5 402.487 390.5 381.5Z" stroke="#2F528F" stroke-width="1.33333" stroke-miterlimit="8" fill="#4472C4" fill-rule="evenodd"/><path d="M3.42041-17.644 12.1582-5.77881 12.1582-4.89258 2.72461 7.91016 15.4321 7.91016C15.9937 7.91016 16.4233 7.7124 16.7212 7.31689 17.019 6.92139 17.2754 6.0376 17.4902 4.66553L18.5742 4.66553 18.2007 10.0342 0.19043 10.0342 0.19043 9.30908 10.4517-4.59961 0.490723-17.9077 0.490723-18.6035 18.1787-18.6035 18.1787-14.2676 17.2119-14.2676C17.0996-15.3076 16.8726-16.1304 16.5308-16.7358 16.189-17.3413 15.6714-17.644 14.978-17.644Z" fill="#FFFFFF" transform="translate(419.776 383)"/><text fill="#FFFFFF" font-family="Cambria Math,Cambria Math_MSFontService,sans-serif" font-weight="400" font-size="15" transform="translate(441.67 383)"> </text><path d="M613.5 381.5C613.5 371.007 622.007 362.5 632.5 362.5 642.993 362.5 651.5 371.007 651.5 381.5 651.5 391.993 642.993 400.5 632.5 400.5 622.007 400.5 613.5 391.993 613.5 381.5Z" stroke="#2F528F" stroke-width="1.33333" stroke-miterlimit="8" fill="#4472C4" fill-rule="evenodd"/><text fill="#FFFFFF" font-family="Cambria Math,Cambria Math_MSFontService,sans-serif" font-weight="400" font-size="13" transform="translate(628.466 386)">+</text><path d="M0.574269-0.818667 159.595 110.73 158.447 112.367-0.574269 0.818667ZM160.227 107.508 164.479 115.377 155.633 114.058Z" transform="matrix(1 0 0 -1 237 522.377)"/><path d="M300.5 295.5C300.5 285.007 309.007 276.5 319.5 276.5 329.993 276.5 338.5 285.007 338.5 295.5 338.5 305.993 329.993 314.5 319.5 314.5 309.007 314.5 300.5 305.993 300.5 295.5Z" stroke="#2F528F" stroke-width="1.33333" stroke-miterlimit="8" fill="#4472C4" fill-rule="evenodd"/><text fill="#FFFFFF" font-family="Cambria Math,Cambria Math_MSFontService,sans-serif" font-weight="400" font-size="13" transform="translate(314.972 300)">×</text><path d="M320 250 320 269.518 318 269.518 318 250ZM323 268.185 319 276.185 315 268.185Z"/><path d="M294 225.5C294 211.969 304.969 201 318.5 201 332.031 201 343 211.969 343 225.5 343 239.031 332.031 250 318.5 250 304.969 250 294 239.031 294 225.5Z" stroke="#FFFFFF" stroke-width="2" stroke-miterlimit="8" fill="#ED7D31" fill-rule="evenodd"/><text fill="#FFFFFF" font-family="Cambria Math,Cambria Math_MSFontService,sans-serif" font-weight="400" font-size="20" transform="translate(310.963 232)">𝑤<tspan font-size="15" x="13.7" y="4">1</tspan></text><path d="M300.5 465.5C300.5 455.007 309.007 446.5 319.5 446.5 329.993 446.5 338.5 455.007 338.5 465.5 338.5 475.993 329.993 484.5 319.5 484.5 309.007 484.5 300.5 475.993 300.5 465.5Z" stroke="#2F528F" stroke-width="1.33333" stroke-miterlimit="8" fill="#4472C4" fill-rule="evenodd"/><text fill="#FFFFFF" font-family="Cambria Math,Cambria Math_MSFontService,sans-serif" font-weight="400" font-size="13" transform="translate(314.972 470)">×</text><path d="M1-2.71589e-06 1.00009 31.9899-0.999913 31.9899-1 2.71589e-06ZM4.00008 30.6566 0.000104987 38.6566-3.99992 30.6566Z" transform="matrix(1 0 0 -1 319 522.657)"/><path d="M294 547.5C294 533.969 304.969 523 318.5 523 332.031 523 343 533.969 343 547.5 343 561.031 332.031 572 318.5 572 304.969 572 294 561.031 294 547.5Z" stroke="#FFFFFF" stroke-width="2" stroke-miterlimit="8" fill="#ED7D31" fill-rule="evenodd"/><text fill="#FFFFFF" font-family="Cambria Math,Cambria Math_MSFontService,sans-serif" font-weight="400" font-size="19" transform="translate(301.363 553)">𝑤<tspan font-size="14" x="13.2133" y="4">𝑁</tspan><tspan font-size="11" x="23.5467" y="7">𝑖𝑛</tspan></text><path d="M466 380 607.074 380 607.074 382 466 382ZM605.74 377 613.74 381 605.74 385Z"/><path d="M1-2.25204e-06 1.00009 39.9518-0.99991 39.9518-1 2.25204e-06ZM4.00009 38.6185 0.000104987 46.6185-3.99991 38.6185Z" transform="matrix(1 0 0 -1 632 446.618)"/><path d="M613 465C613 454.507 621.507 446 632 446 642.493 446 651 454.507 651 465 651 475.493 642.493 484 632 484 621.507 484 613 475.493 613 465Z" stroke="#FFFFFF" stroke-width="2" stroke-miterlimit="8" fill="#ED7D31" fill-rule="evenodd"/><text fill="#FFFFFF" font-family="Calibri,Calibri_MSFontService,sans-serif" font-weight="400" font-size="17" transform="translate(628.466 469)">b</text><path d="M651 380 792.074 380 792.074 382 651 382ZM790.74 377 798.74 381 790.74 385Z"/><path d="M799.5 381.5C799.5 360.513 816.289 343.5 837 343.5 857.711 343.5 874.5 360.513 874.5 381.5 874.5 402.487 857.711 419.5 837 419.5 816.289 419.5 799.5 402.487 799.5 381.5Z" stroke="#2F528F" stroke-width="1.33333" stroke-miterlimit="8" fill="#4472C4" fill-rule="evenodd"/><path d="M0 0 0.000104987 75.5905" stroke="#FFFFFF" stroke-width="0.666667" stroke-miterlimit="8" stroke-dasharray="2.66667 2" fill="none" fill-rule="evenodd" transform="matrix(1 0 0 -1 837.5 419.091)"/><path d="M799.5 381.5 875.091 381.5" stroke="#FFFFFF" stroke-width="0.666667" stroke-miterlimit="8" stroke-dasharray="2.66667 2" fill="none" fill-rule="evenodd"/><path d="M810 407 836.725 407" stroke="#000000" stroke-width="2" stroke-miterlimit="8" fill="none" fill-rule="evenodd"/><path d="M837 354 863.725 354" stroke="#000000" stroke-width="2" stroke-miterlimit="8" fill="none" fill-rule="evenodd"/><path d="M837 353 837 408.181" stroke="#000000" stroke-width="2" stroke-miterlimit="8" fill="none" fill-rule="evenodd"/><path d="M874 380 1015.07 380 1015.07 382 874 382ZM1013.74 377 1021.74 381 1013.74 385Z"/><text font-family="Cambria Math,Cambria Math_MSFontService,sans-serif" font-weight="400" font-size="24" transform="translate(1029.05 389)">ℎ<tspan x="13.7467" y="0">(</tspan>𝑥<tspan x="37.3066" y="0">|</tspan><tspan x="44.9733" y="0">𝑤</tspan><tspan x="63.34" y="0">,</tspan><tspan x="72.34" y="0">𝑏</tspan><tspan x="85.8667" y="0">)</tspan></text><path d="M229.5 385.5C229.5 224.785 378.365 94.5001 562 94.5001 745.635 94.5001 894.5 224.785 894.5 385.5 894.5 546.215 745.635 676.5 562 676.5 378.365 676.5 229.5 546.215 229.5 385.5Z" stroke="#2F528F" stroke-width="1.33333" stroke-miterlimit="8" fill="none" fill-rule="evenodd"/><text fill="#4472C4" font-family="Calibri,Calibri_MSFontService,sans-serif" font-weight="400" font-size="24" transform="translate(502.485 663)">Perceptron</text></g></svg>