<svg width="929" height="563" xmlns="http://www.w3.org/2000/svg" xmlns:xlink="http://www.w3.org/1999/xlink" overflow="hidden"><defs><clipPath id="clip0"><path d="M119 79 1048 79 1048 642 119 642Z" fill-rule="evenodd" clip-rule="evenodd"/></clipPath></defs><g clip-path="url(#clip0)" transform="translate(-119 -79)"><rect x="352.5" y="245.5" width="365" height="207" stroke="#FF0000" stroke-width="3" stroke-miterlimit="8" fill="#FF0000"/><text fill="#FFFFFF" font-family="Cambria Math,Cambria Math_MSFontService,sans-serif" font-weight="400" font-size="48" transform="translate(380.991 365)">洧냪洧녵洧녷洧녹洧노<tspan x="120.173" y="0"> </tspan>洧냧洧<tspan x="202.013" y="0"> </tspan>洧녢洧녰洧녳洧</text><path d="M341.5 245.5C341.5 239.425 346.649 234.5 353 234.5 359.351 234.5 364.5 239.425 364.5 245.5 364.5 251.575 359.351 256.5 353 256.5 346.649 256.5 341.5 251.575 341.5 245.5Z" stroke="#2F528F" stroke-width="1.33333" stroke-miterlimit="8" fill="#4472C4" fill-rule="evenodd"/><path d="M9.99989-2 354.427-1.9999 354.427 2.0001 9.99989 2ZM12 6 0 0 12-6ZM352.427-5.9999 364.427 0.000104987 352.427 6.0001Z" fill="#4472C4" transform="matrix(-1 -8.74228e-08 -8.74228e-08 1 716.427 220)"/><text font-family="Cambria Math,Cambria Math_MSFontService,sans-serif" font-weight="400" font-size="43" transform="translate(503.344 193)">洧녢<tspan font-size="31" x="20.7533" y="9">洧녰洧논</tspan></text><path d="M2.00001 9.99999 2.0001 196.913-1.9999 196.913-1.99999 9.99999ZM-5.99999 12 0 0 6.00001 12ZM6.0001 194.913 0.000104987 206.913-5.9999 194.913Z" fill="#4472C4" transform="matrix(1 0 0 -1 741 451.913)"/><text font-family="Cambria Math,Cambria Math_MSFontService,sans-serif" font-weight="400" font-size="43" transform="translate(754.442 373)">洧녢<tspan font-size="31" x="20.7534" y="9">洧녰洧녽</tspan></text><rect x="124" y="81" width="922" height="558" stroke="#2F528F" stroke-width="4" stroke-miterlimit="8" fill="none"/><path d="M707.5 452.5C707.5 447.53 711.753 443.5 717 443.5 722.247 443.5 726.5 447.53 726.5 452.5 726.5 457.471 722.247 461.5 717 461.5 711.753 461.5 707.5 457.471 707.5 452.5Z" stroke="#000000" stroke-width="1.33333" stroke-miterlimit="8" fill-rule="evenodd"/><path d="M856.151 477.068C860.519 478.216 863.885 481.19 866.251 485.991 868.616 490.793 869.799 496.475 869.799 503.04 869.799 509.605 868.616 515.288 866.251 520.089 863.885 524.89 860.519 527.865 856.151 529.012L855.627 527.291C859.014 526.017 861.579 523.242 863.322 518.966 865.064 514.69 865.936 509.388 865.936 503.061 865.936 496.72 865.064 491.408 863.322 487.125 861.579 482.842 859.014 480.064 855.627 478.79ZM577.322 477.068 577.847 478.79C574.459 480.064 571.894 482.842 570.152 487.125 568.409 491.408 567.538 496.72 567.538 503.061 567.538 509.388 568.409 514.69 570.152 518.966 571.894 523.242 574.459 526.017 577.847 527.291L577.322 529.012C572.955 527.865 569.588 524.89 567.223 520.089 564.857 515.288 563.674 509.605 563.674 503.04 563.674 496.475 564.857 490.793 567.223 485.991 569.588 481.19 572.955 478.216 577.322 477.068Z" fill-rule="evenodd"/><text font-family="Cambria Math,Cambria Math_MSFontService,sans-serif" font-weight="400" font-size="43" transform="translate(579.062 515)">洧논<tspan x="33.44" y="0">+</tspan><tspan x="74.7534" y="0">洧녢</tspan><tspan font-size="31" x="95.5067" y="9">洧녰洧논</tspan><tspan x="127.447" y="0">;</tspan><tspan x="145.893" y="0">洧녽</tspan><tspan x="179.933" y="0">+</tspan><tspan x="221.247" y="0">洧녢</tspan><tspan font-size="31" x="242" y="9">洧녰洧녽</tspan><tspan fill="#4472C4" font-family="Calibri,Calibri_MSFontService,sans-serif" x="-433.864" y="-311">Pixel of </tspan><tspan fill="#4472C4" font-family="Calibri,Calibri_MSFontService,sans-serif" x="-433.864" y="-260">reference</tspan><tspan fill="#4472C4" font-family="Calibri,Calibri_MSFontService,sans-serif" x="-258.917" y="-260">: </tspan></text><path d="M231.236 274.274C235.323 275.352 238.462 277.679 240.653 281.255 242.843 284.832 243.938 289.147 243.938 294.2 243.938 299.267 242.847 303.581 240.663 307.144 238.479 310.706 235.337 313.026 231.236 314.104L230.732 312.487C233.965 311.409 236.369 309.282 237.944 306.104 239.519 302.927 240.306 298.889 240.306 293.99 240.306 289.259 239.522 285.329 237.955 282.2 236.387 279.072 233.958 276.969 230.669 275.891ZM161.68 274.274 162.247 275.891C158.971 276.969 156.546 279.072 154.971 282.2 153.397 285.329 152.609 289.259 152.609 293.99 152.609 298.889 153.397 302.927 154.971 306.104 156.546 309.282 158.95 311.409 162.184 312.487L161.68 314.104C157.578 313.026 154.436 310.706 152.252 307.144 150.069 303.581 148.977 299.267 148.977 294.2 148.977 289.147 150.072 284.832 152.263 281.255 154.453 277.679 157.592 275.352 161.68 274.274Z" fill="#4472C4" fill-rule="evenodd"/><text fill="#4472C4" font-family="Cambria Math,Cambria Math_MSFontService,sans-serif" font-weight="400" font-size="43" transform="translate(162.904 306)">洧논<tspan x="23.96" y="0">;</tspan><tspan x="42.4067" y="0">洧녽</tspan><tspan x="677.608" y="-180">洧냪洧녵洧녷洧녹洧노</tspan><tspan x="784.482" y="-180"> </tspan><tspan x="793.815" y="-180">洧냧洧</tspan></text></g></svg>