<svg width="695" height="360" xmlns="http://www.w3.org/2000/svg" xmlns:xlink="http://www.w3.org/1999/xlink" overflow="hidden"><defs><clipPath id="clip0"><path d="M362 172 1057 172 1057 532 362 532Z" fill-rule="evenodd" clip-rule="evenodd"/></clipPath></defs><g clip-path="url(#clip0)" transform="translate(-362 -172)"><rect x="417.5" y="252" width="52.5" height="53.5" fill="#70AD47"/><path d="M470 252 487.5 234.5 487.5 288 470 305.5Z" fill="#5A8B39" fill-rule="evenodd"/><path d="M417.5 252 435 234.5 487.5 234.5 470 252Z" fill="#8CBD6B" fill-rule="evenodd"/><path d="M417.5 252 435 234.5 487.5 234.5 487.5 288 470 305.5 417.5 305.5ZM417.5 252 470 252 487.5 234.5M470 252 470 305.5" stroke="#507E32" stroke-width="1.33333" stroke-miterlimit="8" fill="none" fill-rule="evenodd"/><rect x="468.5" y="252.25" width="53.25" height="53.25" fill="#70AD47"/><path d="M521.75 252.25 539.5 234.5 539.5 287.75 521.75 305.5Z" fill="#5A8B39" fill-rule="evenodd"/><path d="M468.5 252.25 486.25 234.5 539.5 234.5 521.75 252.25Z" fill="#8CBD6B" fill-rule="evenodd"/><path d="M468.5 252.25 486.25 234.5 539.5 234.5 539.5 287.75 521.75 305.5 468.5 305.5ZM468.5 252.25 521.75 252.25 539.5 234.5M521.75 252.25 521.75 305.5" stroke="#507E32" stroke-width="1.33333" stroke-miterlimit="8" fill="none" fill-rule="evenodd"/><rect x="522.5" y="252" width="52.5" height="53.5" fill="#ED7D31"/><path d="M575 252 592.5 234.5 592.5 288 575 305.5Z" fill="#BF6427" fill-rule="evenodd"/><path d="M522.5 252 540 234.5 592.5 234.5 575 252Z" fill="#F19659" fill-rule="evenodd"/><path d="M522.5 252 540 234.5 592.5 234.5 592.5 288 575 305.5 522.5 305.5ZM522.5 252 575 252 592.5 234.5M575 252 575 305.5" stroke="#AE5A21" stroke-width="1.33333" stroke-miterlimit="8" fill="none" fill-rule="evenodd"/><rect x="574.5" y="411.25" width="53.25" height="53.25" fill="#5B9BD5"/><path d="M627.75 411.25 645.5 393.5 645.5 446.75 627.75 464.5Z" fill="#497DAB" fill-rule="evenodd"/><path d="M574.5 411.25 592.25 393.5 645.5 393.5 627.75 411.25Z" fill="#7BAFDD" fill-rule="evenodd"/><path d="M574.5 411.25 592.25 393.5 645.5 393.5 645.5 446.75 627.75 464.5 574.5 464.5ZM574.5 411.25 627.75 411.25 645.5 393.5M627.75 411.25 627.75 464.5" stroke="#41719C" stroke-width="1.33333" stroke-miterlimit="8" fill="none" fill-rule="evenodd"/><rect x="574.5" y="360.25" width="53.25" height="53.25" fill="#5B9BD5"/><path d="M627.75 360.25 645.5 342.5 645.5 395.75 627.75 413.5Z" fill="#497DAB" fill-rule="evenodd"/><path d="M574.5 360.25 592.25 342.5 645.5 342.5 627.75 360.25Z" fill="#7BAFDD" fill-rule="evenodd"/><path d="M574.5 360.25 592.25 342.5 645.5 342.5 645.5 395.75 627.75 413.5 574.5 413.5ZM574.5 360.25 627.75 360.25 645.5 342.5M627.75 360.25 627.75 413.5" stroke="#41719C" stroke-width="1.33333" stroke-miterlimit="8" fill="none" fill-rule="evenodd"/><rect x="574.5" y="306.25" width="53.25" height="53.25" fill="#ED7D31"/><path d="M627.75 306.25 645.5 288.5 645.5 341.75 627.75 359.5Z" fill="#BF6427" fill-rule="evenodd"/><path d="M574.5 306.25 592.25 288.5 645.5 288.5 627.75 306.25Z" fill="#F19659" fill-rule="evenodd"/><path d="M574.5 306.25 592.25 288.5 645.5 288.5 645.5 341.75 627.75 359.5 574.5 359.5ZM574.5 306.25 627.75 306.25 645.5 288.5M627.75 306.25 627.75 359.5" stroke="#AE5A21" stroke-width="1.33333" stroke-miterlimit="8" fill="none" fill-rule="evenodd"/><rect x="574.5" y="252.25" width="53.25" height="53.25" fill="#ED7D31"/><path d="M627.75 252.25 645.5 234.5 645.5 287.75 627.75 305.5Z" fill="#BF6427" fill-rule="evenodd"/><path d="M574.5 252.25 592.25 234.5 645.5 234.5 627.75 252.25Z" fill="#F19659" fill-rule="evenodd"/><path d="M574.5 252.25 592.25 234.5 645.5 234.5 645.5 287.75 627.75 305.5 574.5 305.5ZM574.5 252.25 627.75 252.25 645.5 234.5M627.75 252.25 627.75 305.5" stroke="#AE5A21" stroke-width="1.33333" stroke-miterlimit="8" fill="none" fill-rule="evenodd"/><rect x="400.5" y="269" width="52.5" height="52.5" fill="#70AD47"/><path d="M453 269 470.5 251.5 470.5 304 453 321.5Z" fill="#5A8B39" fill-rule="evenodd"/><path d="M400.5 269 418 251.5 470.5 251.5 453 269Z" fill="#8CBD6B" fill-rule="evenodd"/><path d="M400.5 269 418 251.5 470.5 251.5 470.5 304 453 321.5 400.5 321.5ZM400.5 269 453 269 470.5 251.5M453 269 453 321.5" stroke="#507E32" stroke-width="1.33333" stroke-miterlimit="8" fill="none" fill-rule="evenodd"/><rect x="451.5" y="269" width="53.5" height="52.5" fill="#70AD47"/><path d="M505 269 522.5 251.5 522.5 304 505 321.5Z" fill="#5A8B39" fill-rule="evenodd"/><path d="M451.5 269 469 251.5 522.5 251.5 505 269Z" fill="#8CBD6B" fill-rule="evenodd"/><path d="M451.5 269 469 251.5 522.5 251.5 522.5 304 505 321.5 451.5 321.5ZM451.5 269 505 269 522.5 251.5M505 269 505 321.5" stroke="#507E32" stroke-width="1.33333" stroke-miterlimit="8" fill="none" fill-rule="evenodd"/><rect x="505.5" y="269" width="52.5" height="52.5" fill="#ED7D31"/><path d="M558 269 575.5 251.5 575.5 304 558 321.5Z" fill="#BF6427" fill-rule="evenodd"/><path d="M505.5 269 523 251.5 575.5 251.5 558 269Z" fill="#F19659" fill-rule="evenodd"/><path d="M505.5 269 523 251.5 575.5 251.5 575.5 304 558 321.5 505.5 321.5ZM505.5 269 558 269 575.5 251.5M558 269 558 321.5" stroke="#AE5A21" stroke-width="1.33333" stroke-miterlimit="8" fill="none" fill-rule="evenodd"/><rect x="557.5" y="428.25" width="53.25" height="53.25" fill="#5B9BD5"/><path d="M610.75 428.25 628.5 410.5 628.5 463.75 610.75 481.5Z" fill="#497DAB" fill-rule="evenodd"/><path d="M557.5 428.25 575.25 410.5 628.5 410.5 610.75 428.25Z" fill="#7BAFDD" fill-rule="evenodd"/><path d="M557.5 428.25 575.25 410.5 628.5 410.5 628.5 463.75 610.75 481.5 557.5 481.5ZM557.5 428.25 610.75 428.25 628.5 410.5M610.75 428.25 610.75 481.5" stroke="#41719C" stroke-width="1.33333" stroke-miterlimit="8" fill="none" fill-rule="evenodd"/><rect x="557.5" y="377" width="53.5" height="52.5" fill="#5B9BD5"/><path d="M611 377 628.5 359.5 628.5 412 611 429.5Z" fill="#497DAB" fill-rule="evenodd"/><path d="M557.5 377 575 359.5 628.5 359.5 611 377Z" fill="#7BAFDD" fill-rule="evenodd"/><path d="M557.5 377 575 359.5 628.5 359.5 628.5 412 611 429.5 557.5 429.5ZM557.5 377 611 377 628.5 359.5M611 377 611 429.5" stroke="#41719C" stroke-width="1.33333" stroke-miterlimit="8" fill="none" fill-rule="evenodd"/><rect x="557.5" y="323" width="53.5" height="52.5" fill="#ED7D31"/><path d="M611 323 628.5 305.5 628.5 358 611 375.5Z" fill="#BF6427" fill-rule="evenodd"/><path d="M557.5 323 575 305.5 628.5 305.5 611 323Z" fill="#F19659" fill-rule="evenodd"/><path d="M557.5 323 575 305.5 628.5 305.5 628.5 358 611 375.5 557.5 375.5ZM557.5 323 611 323 628.5 305.5M611 323 611 375.5" stroke="#AE5A21" stroke-width="1.33333" stroke-miterlimit="8" fill="none" fill-rule="evenodd"/><rect x="557.5" y="269" width="53.5" height="52.5" fill="#ED7D31"/><path d="M611 269 628.5 251.5 628.5 304 611 321.5Z" fill="#BF6427" fill-rule="evenodd"/><path d="M557.5 269 575 251.5 628.5 251.5 611 269Z" fill="#F19659" fill-rule="evenodd"/><path d="M557.5 269 575 251.5 628.5 251.5 628.5 304 611 321.5 557.5 321.5ZM557.5 269 611 269 628.5 251.5M611 269 611 321.5" stroke="#AE5A21" stroke-width="1.33333" stroke-miterlimit="8" fill="none" fill-rule="evenodd"/><rect x="383.5" y="285" width="52.5" height="53.5" fill="#70AD47"/><path d="M436 285 453.5 267.5 453.5 321 436 338.5Z" fill="#5A8B39" fill-rule="evenodd"/><path d="M383.5 285 401 267.5 453.5 267.5 436 285Z" fill="#8CBD6B" fill-rule="evenodd"/><path d="M383.5 285 401 267.5 453.5 267.5 453.5 321 436 338.5 383.5 338.5ZM383.5 285 436 285 453.5 267.5M436 285 436 338.5" stroke="#507E32" stroke-width="1.33333" stroke-miterlimit="8" fill="none" fill-rule="evenodd"/><rect x="434.5" y="285.25" width="53.25" height="53.25" fill="#70AD47"/><path d="M487.75 285.25 505.5 267.5 505.5 320.75 487.75 338.5Z" fill="#5A8B39" fill-rule="evenodd"/><path d="M434.5 285.25 452.25 267.5 505.5 267.5 487.75 285.25Z" fill="#8CBD6B" fill-rule="evenodd"/><path d="M434.5 285.25 452.25 267.5 505.5 267.5 505.5 320.75 487.75 338.5 434.5 338.5ZM434.5 285.25 487.75 285.25 505.5 267.5M487.75 285.25 487.75 338.5" stroke="#507E32" stroke-width="1.33333" stroke-miterlimit="8" fill="none" fill-rule="evenodd"/><rect x="487.5" y="285.25" width="53.25" height="53.25" fill="#ED7D31"/><path d="M540.75 285.25 558.5 267.5 558.5 320.75 540.75 338.5Z" fill="#BF6427" fill-rule="evenodd"/><path d="M487.5 285.25 505.25 267.5 558.5 267.5 540.75 285.25Z" fill="#F19659" fill-rule="evenodd"/><path d="M487.5 285.25 505.25 267.5 558.5 267.5 558.5 320.75 540.75 338.5 487.5 338.5ZM487.5 285.25 540.75 285.25 558.5 267.5M540.75 285.25 540.75 338.5" stroke="#AE5A21" stroke-width="1.33333" stroke-miterlimit="8" fill="none" fill-rule="evenodd"/><rect x="540.5" y="445" width="53.5" height="52.5" fill="#5B9BD5"/><path d="M594 445 611.5 427.5 611.5 480 594 497.5Z" fill="#497DAB" fill-rule="evenodd"/><path d="M540.5 445 558 427.5 611.5 427.5 594 445Z" fill="#7BAFDD" fill-rule="evenodd"/><path d="M540.5 445 558 427.5 611.5 427.5 611.5 480 594 497.5 540.5 497.5ZM540.5 445 594 445 611.5 427.5M594 445 594 497.5" stroke="#41719C" stroke-width="1.33333" stroke-miterlimit="8" fill="none" fill-rule="evenodd"/><rect x="540.5" y="393.25" width="53.25" height="53.25" fill="#5B9BD5"/><path d="M593.75 393.25 611.5 375.5 611.5 428.75 593.75 446.5Z" fill="#497DAB" fill-rule="evenodd"/><path d="M540.5 393.25 558.25 375.5 611.5 375.5 593.75 393.25Z" fill="#7BAFDD" fill-rule="evenodd"/><path d="M540.5 393.25 558.25 375.5 611.5 375.5 611.5 428.75 593.75 446.5 540.5 446.5ZM540.5 393.25 593.75 393.25 611.5 375.5M593.75 393.25 593.75 446.5" stroke="#41719C" stroke-width="1.33333" stroke-miterlimit="8" fill="none" fill-rule="evenodd"/><rect x="540.5" y="339.25" width="53.25" height="53.25" fill="#ED7D31"/><path d="M593.75 339.25 611.5 321.5 611.5 374.75 593.75 392.5Z" fill="#BF6427" fill-rule="evenodd"/><path d="M540.5 339.25 558.25 321.5 611.5 321.5 593.75 339.25Z" fill="#F19659" fill-rule="evenodd"/><path d="M540.5 339.25 558.25 321.5 611.5 321.5 611.5 374.75 593.75 392.5 540.5 392.5ZM540.5 339.25 593.75 339.25 611.5 321.5M593.75 339.25 593.75 392.5" stroke="#AE5A21" stroke-width="1.33333" stroke-miterlimit="8" fill="none" fill-rule="evenodd"/><rect x="540.5" y="285.25" width="53.25" height="53.25" fill="#ED7D31"/><path d="M593.75 285.25 611.5 267.5 611.5 320.75 593.75 338.5Z" fill="#BF6427" fill-rule="evenodd"/><path d="M540.5 285.25 558.25 267.5 611.5 267.5 593.75 285.25Z" fill="#F19659" fill-rule="evenodd"/><path d="M540.5 285.25 558.25 267.5 611.5 267.5 611.5 320.75 593.75 338.5 540.5 338.5ZM540.5 285.25 593.75 285.25 611.5 267.5M593.75 285.25 593.75 338.5" stroke="#AE5A21" stroke-width="1.33333" stroke-miterlimit="8" fill="none" fill-rule="evenodd"/><rect x="363.5" y="462.25" width="53.25" height="53.25" fill="#A5A5A5"/><path d="M416.75 462.25 434.5 444.5 434.5 497.75 416.75 515.5Z" fill="#858585" fill-rule="evenodd"/><path d="M363.5 462.25 381.25 444.5 434.5 444.5 416.75 462.25Z" fill="#B7B7B7" fill-rule="evenodd"/><path d="M363.5 462.25 381.25 444.5 434.5 444.5 434.5 497.75 416.75 515.5 363.5 515.5ZM363.5 462.25 416.75 462.25 434.5 444.5M416.75 462.25 416.75 515.5" stroke="#787878" stroke-width="1.33333" stroke-miterlimit="8" fill="none" fill-rule="evenodd"/><text fill="#FFFFFF" font-family="Calibri,Calibri_MSFontService,sans-serif" font-weight="400" font-size="32" transform="translate(381.771 499)">4</text><rect x="416.5" y="462" width="52.5" height="53.5" fill="#A5A5A5"/><path d="M469 462 486.5 444.5 486.5 498 469 515.5Z" fill="#858585" fill-rule="evenodd"/><path d="M416.5 462 434 444.5 486.5 444.5 469 462Z" fill="#B7B7B7" fill-rule="evenodd"/><path d="M416.5 462 434 444.5 486.5 444.5 486.5 498 469 515.5 416.5 515.5ZM416.5 462 469 462 486.5 444.5M469 462 469 515.5" stroke="#787878" stroke-width="1.33333" stroke-miterlimit="8" fill="none" fill-rule="evenodd"/><text fill="#FFFFFF" font-family="Calibri,Calibri_MSFontService,sans-serif" font-weight="400" font-size="32" transform="translate(433.98 499)">5</text><rect x="469.5" y="462" width="52.5" height="53.5" fill="#5B9BD5"/><path d="M522 462 539.5 444.5 539.5 498 522 515.5Z" fill="#497DAB" fill-rule="evenodd"/><path d="M469.5 462 487 444.5 539.5 444.5 522 462Z" fill="#7BAFDD" fill-rule="evenodd"/><path d="M469.5 462 487 444.5 539.5 444.5 539.5 498 522 515.5 469.5 515.5ZM469.5 462 522 462 539.5 444.5M522 462 522 515.5" stroke="#41719C" stroke-width="1.33333" stroke-miterlimit="8" fill="none" fill-rule="evenodd"/><text fill="#FFFFFF" font-family="Calibri,Calibri_MSFontService,sans-serif" font-weight="400" font-size="32" transform="translate(487.121 499)">6</text><rect x="522.5" y="462" width="52.5" height="53.5" fill="#5B9BD5"/><path d="M575 462 592.5 444.5 592.5 498 575 515.5Z" fill="#497DAB" fill-rule="evenodd"/><path d="M522.5 462 540 444.5 592.5 444.5 575 462Z" fill="#7BAFDD" fill-rule="evenodd"/><path d="M522.5 462 540 444.5 592.5 444.5 592.5 498 575 515.5 522.5 515.5ZM522.5 462 575 462 592.5 444.5M575 462 575 515.5" stroke="#41719C" stroke-width="1.33333" stroke-miterlimit="8" fill="none" fill-rule="evenodd"/><text fill="#FFFFFF" font-family="Calibri,Calibri_MSFontService,sans-serif" font-weight="400" font-size="32" transform="translate(540.077 499)">7</text><rect x="363.5" y="409.25" width="53.25" height="53.25" fill="#A5A5A5"/><path d="M416.75 409.25 434.5 391.5 434.5 444.75 416.75 462.5Z" fill="#858585" fill-rule="evenodd"/><path d="M363.5 409.25 381.25 391.5 434.5 391.5 416.75 409.25Z" fill="#B7B7B7" fill-rule="evenodd"/><path d="M363.5 409.25 381.25 391.5 434.5 391.5 434.5 444.75 416.75 462.5 363.5 462.5ZM363.5 409.25 416.75 409.25 434.5 391.5M416.75 409.25 416.75 462.5" stroke="#787878" stroke-width="1.33333" stroke-miterlimit="8" fill="none" fill-rule="evenodd"/><text fill="#FFFFFF" font-family="Calibri,Calibri_MSFontService,sans-serif" font-weight="400" font-size="32" transform="translate(381.771 446)">9</text><rect x="416.5" y="409.25" width="53.25" height="53.25" fill="#A5A5A5"/><path d="M469.75 409.25 487.5 391.5 487.5 444.75 469.75 462.5Z" fill="#858585" fill-rule="evenodd"/><path d="M416.5 409.25 434.25 391.5 487.5 391.5 469.75 409.25Z" fill="#B7B7B7" fill-rule="evenodd"/><path d="M416.5 409.25 434.25 391.5 487.5 391.5 487.5 444.75 469.75 462.5 416.5 462.5ZM416.5 409.25 469.75 409.25 487.5 391.5M469.75 409.25 469.75 462.5" stroke="#787878" stroke-width="1.33333" stroke-miterlimit="8" fill="none" fill-rule="evenodd"/><text fill="#FFFFFF" font-family="Calibri,Calibri_MSFontService,sans-serif" font-weight="400" font-size="32" transform="translate(434.363 446)">2</text><rect x="469.5" y="409.25" width="53.25" height="53.25" fill="#5B9BD5"/><path d="M522.75 409.25 540.5 391.5 540.5 444.75 522.75 462.5Z" fill="#497DAB" fill-rule="evenodd"/><path d="M469.5 409.25 487.25 391.5 540.5 391.5 522.75 409.25Z" fill="#7BAFDD" fill-rule="evenodd"/><path d="M469.5 409.25 487.25 391.5 540.5 391.5 540.5 444.75 522.75 462.5 469.5 462.5ZM469.5 409.25 522.75 409.25 540.5 391.5M522.75 409.25 522.75 462.5" stroke="#41719C" stroke-width="1.33333" stroke-miterlimit="8" fill="none" fill-rule="evenodd"/><text fill="#FFFFFF" font-family="Calibri,Calibri_MSFontService,sans-serif" font-weight="400" font-size="32" transform="translate(487.504 446)">2</text><rect x="522.5" y="409" width="52.5" height="53.5" fill="#5B9BD5"/><path d="M575 409 592.5 391.5 592.5 445 575 462.5Z" fill="#497DAB" fill-rule="evenodd"/><path d="M522.5 409 540 391.5 592.5 391.5 575 409Z" fill="#7BAFDD" fill-rule="evenodd"/><path d="M522.5 409 540 391.5 592.5 391.5 592.5 445 575 462.5 522.5 462.5ZM522.5 409 575 409 592.5 391.5M575 409 575 462.5" stroke="#41719C" stroke-width="1.33333" stroke-miterlimit="8" fill="none" fill-rule="evenodd"/><text fill="#FFFFFF" font-family="Calibri,Calibri_MSFontService,sans-serif" font-weight="400" font-size="32" transform="translate(540.208 446)">3</text><rect x="364.5" y="356" width="52.5" height="53.5" fill="#70AD47"/><path d="M417 356 434.5 338.5 434.5 392 417 409.5Z" fill="#5A8B39" fill-rule="evenodd"/><path d="M364.5 356 382 338.5 434.5 338.5 417 356Z" fill="#8CBD6B" fill-rule="evenodd"/><path d="M364.5 356 382 338.5 434.5 338.5 434.5 392 417 409.5 364.5 409.5ZM364.5 356 417 356 434.5 338.5M417 356 417 409.5" stroke="#507E32" stroke-width="1.33333" stroke-miterlimit="8" fill="none" fill-rule="evenodd"/><text fill="#FFFFFF" font-family="Calibri,Calibri_MSFontService,sans-serif" font-weight="400" font-size="32" transform="translate(381.965 393)">5</text><rect x="416.5" y="356" width="52.5" height="53.5" fill="#70AD47"/><path d="M469 356 486.5 338.5 486.5 392 469 409.5Z" fill="#5A8B39" fill-rule="evenodd"/><path d="M416.5 356 434 338.5 486.5 338.5 469 356Z" fill="#8CBD6B" fill-rule="evenodd"/><path d="M416.5 356 434 338.5 486.5 338.5 486.5 392 469 409.5 416.5 409.5ZM416.5 356 469 356 486.5 338.5M469 356 469 409.5" stroke="#507E32" stroke-width="1.33333" stroke-miterlimit="8" fill="none" fill-rule="evenodd"/><text fill="#FFFFFF" font-family="Calibri,Calibri_MSFontService,sans-serif" font-weight="400" font-size="32" transform="translate(434.174 393)">6</text><rect x="469.5" y="356.25" width="53.25" height="53.25" fill="#ED7D31"/><path d="M522.75 356.25 540.5 338.5 540.5 391.75 522.75 409.5Z" fill="#BF6427" fill-rule="evenodd"/><path d="M469.5 356.25 487.25 338.5 540.5 338.5 522.75 356.25Z" fill="#F19659" fill-rule="evenodd"/><path d="M469.5 356.25 487.25 338.5 540.5 338.5 540.5 391.75 522.75 409.5 469.5 409.5ZM469.5 356.25 522.75 356.25 540.5 338.5M522.75 356.25 522.75 409.5" stroke="#AE5A21" stroke-width="1.33333" stroke-miterlimit="8" fill="none" fill-rule="evenodd"/><text fill="#FFFFFF" font-family="Calibri,Calibri_MSFontService,sans-serif" font-weight="400" font-size="32" transform="translate(487.316 393)">7</text><rect x="522.5" y="356.25" width="53.25" height="53.25" fill="#ED7D31"/><path d="M575.75 356.25 593.5 338.5 593.5 391.75 575.75 409.5Z" fill="#BF6427" fill-rule="evenodd"/><path d="M522.5 356.25 540.25 338.5 593.5 338.5 575.75 356.25Z" fill="#F19659" fill-rule="evenodd"/><path d="M522.5 356.25 540.25 338.5 593.5 338.5 593.5 391.75 575.75 409.5 522.5 409.5ZM522.5 356.25 575.75 356.25 593.5 338.5M575.75 356.25 575.75 409.5" stroke="#AE5A21" stroke-width="1.33333" stroke-miterlimit="8" fill="none" fill-rule="evenodd"/><text fill="#FFFFFF" font-family="Calibri,Calibri_MSFontService,sans-serif" font-weight="400" font-size="32" transform="translate(540.272 393)">8</text><rect x="364.5" y="303" width="52.5" height="53.5" fill="#70AD47"/><path d="M417 303 434.5 285.5 434.5 339 417 356.5Z" fill="#5A8B39" fill-rule="evenodd"/><path d="M364.5 303 382 285.5 434.5 285.5 417 303Z" fill="#8CBD6B" fill-rule="evenodd"/><path d="M364.5 303 382 285.5 434.5 285.5 434.5 339 417 356.5 364.5 356.5ZM364.5 303 417 303 434.5 285.5M417 303 417 356.5" stroke="#507E32" stroke-width="1.33333" stroke-miterlimit="8" fill="none" fill-rule="evenodd"/><text fill="#FFFFFF" font-family="Calibri,Calibri_MSFontService,sans-serif" font-weight="400" font-size="32" transform="translate(381.965 340)">1</text><rect x="416.5" y="303.25" width="53.25" height="53.25" fill="#70AD47"/><path d="M469.75 303.25 487.5 285.5 487.5 338.75 469.75 356.5Z" fill="#5A8B39" fill-rule="evenodd"/><path d="M416.5 303.25 434.25 285.5 487.5 285.5 469.75 303.25Z" fill="#8CBD6B" fill-rule="evenodd"/><path d="M416.5 303.25 434.25 285.5 487.5 285.5 487.5 338.75 469.75 356.5 416.5 356.5ZM416.5 303.25 469.75 303.25 487.5 285.5M469.75 303.25 469.75 356.5" stroke="#507E32" stroke-width="1.33333" stroke-miterlimit="8" fill="none" fill-rule="evenodd"/><text fill="#FFFFFF" font-family="Calibri,Calibri_MSFontService,sans-serif" font-weight="400" font-size="32" transform="translate(434.557 340)">2</text><rect x="469.5" y="303.25" width="53.25" height="53.25" fill="#ED7D31"/><path d="M522.75 303.25 540.5 285.5 540.5 338.75 522.75 356.5Z" fill="#BF6427" fill-rule="evenodd"/><path d="M469.5 303.25 487.25 285.5 540.5 285.5 522.75 303.25Z" fill="#F19659" fill-rule="evenodd"/><path d="M469.5 303.25 487.25 285.5 540.5 285.5 540.5 338.75 522.75 356.5 469.5 356.5ZM469.5 303.25 522.75 303.25 540.5 285.5M522.75 303.25 522.75 356.5" stroke="#AE5A21" stroke-width="1.33333" stroke-miterlimit="8" fill="none" fill-rule="evenodd"/><text fill="#FFFFFF" font-family="Calibri,Calibri_MSFontService,sans-serif" font-weight="400" font-size="32" transform="translate(487.514 340)">3</text><rect x="522.5" y="303.25" width="53.25" height="53.25" fill="#ED7D31"/><path d="M575.75 303.25 593.5 285.5 593.5 338.75 575.75 356.5Z" fill="#BF6427" fill-rule="evenodd"/><path d="M522.5 303.25 540.25 285.5 593.5 285.5 575.75 303.25Z" fill="#F19659" fill-rule="evenodd"/><path d="M522.5 303.25 540.25 285.5 593.5 285.5 593.5 338.75 575.75 356.5 522.5 356.5ZM522.5 303.25 575.75 303.25 593.5 285.5M575.75 303.25 575.75 356.5" stroke="#AE5A21" stroke-width="1.33333" stroke-miterlimit="8" fill="none" fill-rule="evenodd"/><text fill="#FFFFFF" font-family="Calibri,Calibri_MSFontService,sans-serif" font-weight="400" font-size="32" transform="translate(540.217 340)">4</text><rect x="954.5" y="188" width="43.5" height="43.5" fill="#70AD47"/><path d="M998 188 1012.5 173.5 1012.5 217 998 231.5Z" fill="#5A8B39" fill-rule="evenodd"/><path d="M954.5 188 969 173.5 1012.5 173.5 998 188Z" fill="#8CBD6B" fill-rule="evenodd"/><path d="M954.5 188 969 173.5 1012.5 173.5 1012.5 217 998 231.5 954.5 231.5ZM954.5 188 998 188 1012.5 173.5M998 188 998 231.5" stroke="#507E32" stroke-width="1.33333" stroke-miterlimit="8" fill="none" fill-rule="evenodd"/><rect x="997.5" y="232" width="43.4999" height="43.5" fill="#5B9BD5"/><path d="M1041 232 1055.5 217.5 1055.5 261 1041 275.5Z" fill="#497DAB" fill-rule="evenodd"/><path d="M997.5 232 1012 217.5 1055.5 217.5 1041 232Z" fill="#7BAFDD" fill-rule="evenodd"/><path d="M997.5 232 1012 217.5 1055.5 217.5 1055.5 261 1041 275.5 997.5 275.5ZM997.5 232 1041 232 1055.5 217.5M1041 232 1041 275.5" stroke="#41719C" stroke-width="1.33333" stroke-miterlimit="8" fill="none" fill-rule="evenodd"/><rect x="997.5" y="188" width="43.4999" height="43.5" fill="#ED7D31"/><path d="M1041 188 1055.5 173.5 1055.5 217 1041 231.5Z" fill="#BF6427" fill-rule="evenodd"/><path d="M997.5 188 1012 173.5 1055.5 173.5 1041 188Z" fill="#F19659" fill-rule="evenodd"/><path d="M997.5 188 1012 173.5 1055.5 173.5 1055.5 217 1041 231.5 997.5 231.5ZM997.5 188 1041 188 1055.5 173.5M1041 188 1041 231.5" stroke="#AE5A21" stroke-width="1.33333" stroke-miterlimit="8" fill="none" fill-rule="evenodd"/><rect x="941.5" y="201.75" width="42.75" height="42.75" fill="#70AD47"/><path d="M984.25 201.75 998.5 187.5 998.5 230.25 984.25 244.5Z" fill="#5A8B39" fill-rule="evenodd"/><path d="M941.5 201.75 955.75 187.5 998.5 187.5 984.25 201.75Z" fill="#8CBD6B" fill-rule="evenodd"/><path d="M941.5 201.75 955.75 187.5 998.5 187.5 998.5 230.25 984.25 244.5 941.5 244.5ZM941.5 201.75 984.25 201.75 998.5 187.5M984.25 201.75 984.25 244.5" stroke="#507E32" stroke-width="1.33333" stroke-miterlimit="8" fill="none" fill-rule="evenodd"/><rect x="983.5" y="246" width="43.4999" height="43.5" fill="#5B9BD5"/><path d="M1027 246 1041.5 231.5 1041.5 275 1027 289.5Z" fill="#497DAB" fill-rule="evenodd"/><path d="M983.5 246 998 231.5 1041.5 231.5 1027 246Z" fill="#7BAFDD" fill-rule="evenodd"/><path d="M983.5 246 998 231.5 1041.5 231.5 1041.5 275 1027 289.5 983.5 289.5ZM983.5 246 1027 246 1041.5 231.5M1027 246 1027 289.5" stroke="#41719C" stroke-width="1.33333" stroke-miterlimit="8" fill="none" fill-rule="evenodd"/><rect x="983.5" y="201.75" width="43.7501" height="42.75" fill="#ED7D31"/><path d="M1027.25 201.75 1041.5 187.5 1041.5 230.25 1027.25 244.5Z" fill="#BF6427" fill-rule="evenodd"/><path d="M983.5 201.75 997.75 187.5 1041.5 187.5 1027.25 201.75Z" fill="#F19659" fill-rule="evenodd"/><path d="M983.5 201.75 997.75 187.5 1041.5 187.5 1041.5 230.25 1027.25 244.5 983.5 244.5ZM983.5 201.75 1027.25 201.75 1041.5 187.5M1027.25 201.75 1027.25 244.5" stroke="#AE5A21" stroke-width="1.33333" stroke-miterlimit="8" fill="none" fill-rule="evenodd"/><rect x="927.5" y="214.75" width="42.7501" height="43.75" fill="#70AD47"/><path d="M970.25 214.75 984.5 200.5 984.5 244.25 970.25 258.5Z" fill="#5A8B39" fill-rule="evenodd"/><path d="M927.5 214.75 941.75 200.5 984.5 200.5 970.25 214.75Z" fill="#8CBD6B" fill-rule="evenodd"/><path d="M927.5 214.75 941.75 200.5 984.5 200.5 984.5 244.25 970.25 258.5 927.5 258.5ZM927.5 214.75 970.25 214.75 984.5 200.5M970.25 214.75 970.25 258.5" stroke="#507E32" stroke-width="1.33333" stroke-miterlimit="8" fill="none" fill-rule="evenodd"/><rect x="971.5" y="258" width="43.5" height="43.5" fill="#5B9BD5"/><path d="M1015 258 1029.5 243.5 1029.5 287 1015 301.5Z" fill="#497DAB" fill-rule="evenodd"/><path d="M971.5 258 986 243.5 1029.5 243.5 1015 258Z" fill="#7BAFDD" fill-rule="evenodd"/><path d="M971.5 258 986 243.5 1029.5 243.5 1029.5 287 1015 301.5 971.5 301.5ZM971.5 258 1015 258 1029.5 243.5M1015 258 1015 301.5" stroke="#41719C" stroke-width="1.33333" stroke-miterlimit="8" fill="none" fill-rule="evenodd"/><rect x="969.5" y="215" width="43.5" height="43.5" fill="#ED7D31"/><path d="M1013 215 1027.5 200.5 1027.5 244 1013 258.5Z" fill="#BF6427" fill-rule="evenodd"/><path d="M969.5 215 984 200.5 1027.5 200.5 1013 215Z" fill="#F19659" fill-rule="evenodd"/><path d="M969.5 215 984 200.5 1027.5 200.5 1027.5 244 1013 258.5 969.5 258.5ZM969.5 215 1013 215 1027.5 200.5M1013 215 1013 258.5" stroke="#AE5A21" stroke-width="1.33333" stroke-miterlimit="8" fill="none" fill-rule="evenodd"/><rect x="912.5" y="272.75" width="43.7501" height="42.75" fill="#A5A5A5"/><path d="M956.25 272.75 970.5 258.5 970.5 301.25 956.25 315.5Z" fill="#858585" fill-rule="evenodd"/><path d="M912.5 272.75 926.75 258.5 970.5 258.5 956.25 272.75Z" fill="#B7B7B7" fill-rule="evenodd"/><path d="M912.5 272.75 926.75 258.5 970.5 258.5 970.5 301.25 956.25 315.5 912.5 315.5ZM912.5 272.75 956.25 272.75 970.5 258.5M956.25 272.75 956.25 315.5" stroke="#787878" stroke-width="1.33333" stroke-miterlimit="8" fill="none" fill-rule="evenodd"/><text fill="#FFFFFF" font-family="Calibri,Calibri_MSFontService,sans-serif" font-weight="400" font-size="32" transform="translate(925.557 305)">9</text><rect x="956.5" y="272.75" width="43.7501" height="42.75" fill="#5B9BD5"/><path d="M1000.25 272.75 1014.5 258.5 1014.5 301.25 1000.25 315.5Z" fill="#497DAB" fill-rule="evenodd"/><path d="M956.5 272.75 970.75 258.5 1014.5 258.5 1000.25 272.75Z" fill="#7BAFDD" fill-rule="evenodd"/><path d="M956.5 272.75 970.75 258.5 1014.5 258.5 1014.5 301.25 1000.25 315.5 956.5 315.5ZM956.5 272.75 1000.25 272.75 1014.5 258.5M1000.25 272.75 1000.25 315.5" stroke="#41719C" stroke-width="1.33333" stroke-miterlimit="8" fill="none" fill-rule="evenodd"/><text fill="#FFFFFF" font-family="Calibri,Calibri_MSFontService,sans-serif" font-weight="400" font-size="32" transform="translate(969.648 305)">7</text><rect x="912.5" y="228" width="43.5" height="43.5" fill="#70AD47"/><path d="M956 228 970.5 213.5 970.5 257 956 271.5Z" fill="#5A8B39" fill-rule="evenodd"/><path d="M912.5 228 927 213.5 970.5 213.5 956 228Z" fill="#8CBD6B" fill-rule="evenodd"/><path d="M912.5 228 927 213.5 970.5 213.5 970.5 257 956 271.5 912.5 271.5ZM912.5 228 956 228 970.5 213.5M956 228 956 271.5" stroke="#507E32" stroke-width="1.33333" stroke-miterlimit="8" fill="none" fill-rule="evenodd"/><text fill="#FFFFFF" font-family="Calibri,Calibri_MSFontService,sans-serif" font-weight="400" font-size="32" transform="translate(925.871 260)">6</text><rect x="956.5" y="228" width="43.5" height="43.5" fill="#ED7D31"/><path d="M1000 228 1014.5 213.5 1014.5 257 1000 271.5Z" fill="#BF6427" fill-rule="evenodd"/><path d="M956.5 228 971 213.5 1014.5 213.5 1000 228Z" fill="#F19659" fill-rule="evenodd"/><path d="M956.5 228 971 213.5 1014.5 213.5 1014.5 257 1000 271.5 956.5 271.5ZM956.5 228 1000 228 1014.5 213.5M1000 228 1000 271.5" stroke="#AE5A21" stroke-width="1.33333" stroke-miterlimit="8" fill="none" fill-rule="evenodd"/><text fill="#FFFFFF" font-family="Calibri,Calibri_MSFontService,sans-serif" font-weight="400" font-size="32" transform="translate(969.754 260)">8</text><path d="M0.28399-0.958827 251.048 73.3136 250.48 75.2313-0.28399 0.958827ZM250.622 70.0588 257.157 76.166 248.35 77.7294Z" transform="matrix(1 0 0 -1 640 345.166)"/><path d="M645.377 343.074 887.526 441.578 886.772 443.43 644.623 344.926ZM887.421 438.296 893.325 445.016 884.407 445.707Z"/><text font-family="Calibri,Calibri_MSFontService,sans-serif" font-weight="400" font-size="24" transform="translate(747.423 296)">MAX<tspan x="-6.10352e-05" y="81">AVG</tspan></text><rect x="954.5" y="387" width="43.5" height="43.5" fill="#70AD47"/><path d="M998 387 1012.5 372.5 1012.5 416 998 430.5Z" fill="#5A8B39" fill-rule="evenodd"/><path d="M954.5 387 969 372.5 1012.5 372.5 998 387Z" fill="#8CBD6B" fill-rule="evenodd"/><path d="M954.5 387 969 372.5 1012.5 372.5 1012.5 416 998 430.5 954.5 430.5ZM954.5 387 998 387 1012.5 372.5M998 387 998 430.5" stroke="#507E32" stroke-width="1.33333" stroke-miterlimit="8" fill="none" fill-rule="evenodd"/><rect x="997.5" y="431" width="43.4999" height="43.5" fill="#5B9BD5"/><path d="M1041 431 1055.5 416.5 1055.5 460 1041 474.5Z" fill="#497DAB" fill-rule="evenodd"/><path d="M997.5 431 1012 416.5 1055.5 416.5 1041 431Z" fill="#7BAFDD" fill-rule="evenodd"/><path d="M997.5 431 1012 416.5 1055.5 416.5 1055.5 460 1041 474.5 997.5 474.5ZM997.5 431 1041 431 1055.5 416.5M1041 431 1041 474.5" stroke="#41719C" stroke-width="1.33333" stroke-miterlimit="8" fill="none" fill-rule="evenodd"/><rect x="997.5" y="387" width="43.4999" height="43.5" fill="#ED7D31"/><path d="M1041 387 1055.5 372.5 1055.5 416 1041 430.5Z" fill="#BF6427" fill-rule="evenodd"/><path d="M997.5 387 1012 372.5 1055.5 372.5 1041 387Z" fill="#F19659" fill-rule="evenodd"/><path d="M997.5 387 1012 372.5 1055.5 372.5 1055.5 416 1041 430.5 997.5 430.5ZM997.5 387 1041 387 1055.5 372.5M1041 387 1041 430.5" stroke="#AE5A21" stroke-width="1.33333" stroke-miterlimit="8" fill="none" fill-rule="evenodd"/><rect x="939.5" y="401" width="44.5" height="43.5" fill="#70AD47"/><path d="M984 401 998.5 386.5 998.5 430 984 444.5Z" fill="#5A8B39" fill-rule="evenodd"/><path d="M939.5 401 954 386.5 998.5 386.5 984 401Z" fill="#8CBD6B" fill-rule="evenodd"/><path d="M939.5 401 954 386.5 998.5 386.5 998.5 430 984 444.5 939.5 444.5ZM939.5 401 984 401 998.5 386.5M984 401 984 444.5" stroke="#507E32" stroke-width="1.33333" stroke-miterlimit="8" fill="none" fill-rule="evenodd"/><rect x="983.5" y="444" width="43.5001" height="44.5" fill="#5B9BD5"/><path d="M1027 444 1041.5 429.5 1041.5 474 1027 488.5Z" fill="#497DAB" fill-rule="evenodd"/><path d="M983.5 444 998 429.5 1041.5 429.5 1027 444Z" fill="#7BAFDD" fill-rule="evenodd"/><path d="M983.5 444 998 429.5 1041.5 429.5 1041.5 474 1027 488.5 983.5 488.5ZM983.5 444 1027 444 1041.5 429.5M1027 444 1027 488.5" stroke="#41719C" stroke-width="1.33333" stroke-miterlimit="8" fill="none" fill-rule="evenodd"/><rect x="983.5" y="401" width="43.4999" height="43.5" fill="#ED7D31"/><path d="M1027 401 1041.5 386.5 1041.5 430 1027 444.5Z" fill="#BF6427" fill-rule="evenodd"/><path d="M983.5 401 998 386.5 1041.5 386.5 1027 401Z" fill="#F19659" fill-rule="evenodd"/><path d="M983.5 401 998 386.5 1041.5 386.5 1041.5 430 1027 444.5 983.5 444.5ZM983.5 401 1027 401 1041.5 386.5M1027 401 1027 444.5" stroke="#AE5A21" stroke-width="1.33333" stroke-miterlimit="8" fill="none" fill-rule="evenodd"/><rect x="925.5" y="414.25" width="44.25" height="44.25" fill="#70AD47"/><path d="M969.75 414.25 984.5 399.5 984.5 443.75 969.75 458.5Z" fill="#5A8B39" fill-rule="evenodd"/><path d="M925.5 414.25 940.25 399.5 984.5 399.5 969.75 414.25Z" fill="#8CBD6B" fill-rule="evenodd"/><path d="M925.5 414.25 940.25 399.5 984.5 399.5 984.5 443.75 969.75 458.5 925.5 458.5ZM925.5 414.25 969.75 414.25 984.5 399.5M969.75 414.25 969.75 458.5" stroke="#507E32" stroke-width="1.33333" stroke-miterlimit="8" fill="none" fill-rule="evenodd"/><rect x="970.5" y="456" width="43.5" height="44.5" fill="#5B9BD5"/><path d="M1014 456 1028.5 441.5 1028.5 486 1014 500.5Z" fill="#497DAB" fill-rule="evenodd"/><path d="M970.5 456 985 441.5 1028.5 441.5 1014 456Z" fill="#7BAFDD" fill-rule="evenodd"/><path d="M970.5 456 985 441.5 1028.5 441.5 1028.5 486 1014 500.5 970.5 500.5ZM970.5 456 1014 456 1028.5 441.5M1014 456 1014 500.5" stroke="#41719C" stroke-width="1.33333" stroke-miterlimit="8" fill="none" fill-rule="evenodd"/><rect x="969.5" y="414" width="43.5" height="44.5" fill="#ED7D31"/><path d="M1013 414 1027.5 399.5 1027.5 444 1013 458.5Z" fill="#BF6427" fill-rule="evenodd"/><path d="M969.5 414 984 399.5 1027.5 399.5 1013 414Z" fill="#F19659" fill-rule="evenodd"/><path d="M969.5 414 984 399.5 1027.5 399.5 1027.5 444 1013 458.5 969.5 458.5ZM969.5 414 1013 414 1027.5 399.5M1013 414 1013 458.5" stroke="#AE5A21" stroke-width="1.33333" stroke-miterlimit="8" fill="none" fill-rule="evenodd"/><rect x="912.5" y="471" width="43.5" height="44.5" fill="#A5A5A5"/><path d="M956 471 970.5 456.5 970.5 501 956 515.5Z" fill="#858585" fill-rule="evenodd"/><path d="M912.5 471 927 456.5 970.5 456.5 956 471Z" fill="#B7B7B7" fill-rule="evenodd"/><path d="M912.5 471 927 456.5 970.5 456.5 970.5 501 956 515.5 912.5 515.5ZM912.5 471 956 471 970.5 456.5M956 471 956 515.5" stroke="#787878" stroke-width="1.33333" stroke-miterlimit="8" fill="none" fill-rule="evenodd"/><text fill="#FFFFFF" font-family="Calibri,Calibri_MSFontService,sans-serif" font-weight="400" font-size="32" transform="translate(925.357 504)">5</text><rect x="955.5" y="471.25" width="44.25" height="44.25" fill="#5B9BD5"/><path d="M999.75 471.25 1014.5 456.5 1014.5 500.75 999.75 515.5Z" fill="#497DAB" fill-rule="evenodd"/><path d="M955.5 471.25 970.25 456.5 1014.5 456.5 999.75 471.25Z" fill="#7BAFDD" fill-rule="evenodd"/><path d="M955.5 471.25 970.25 456.5 1014.5 456.5 1014.5 500.75 999.75 515.5 955.5 515.5ZM955.5 471.25 999.75 471.25 1014.5 456.5M999.75 471.25 999.75 515.5" stroke="#41719C" stroke-width="1.33333" stroke-miterlimit="8" fill="none" fill-rule="evenodd"/><text fill="#FFFFFF" font-family="Calibri,Calibri_MSFontService,sans-serif" font-weight="400" font-size="32" transform="translate(956.856 504)">4.5</text><rect x="912.5" y="428" width="43.5" height="43.5" fill="#70AD47"/><path d="M956 428 970.5 413.5 970.5 457 956 471.5Z" fill="#5A8B39" fill-rule="evenodd"/><path d="M912.5 428 927 413.5 970.5 413.5 956 428Z" fill="#8CBD6B" fill-rule="evenodd"/><path d="M912.5 428 927 413.5 970.5 413.5 970.5 457 956 471.5 912.5 471.5ZM912.5 428 956 428 970.5 413.5M956 428 956 471.5" stroke="#507E32" stroke-width="1.33333" stroke-miterlimit="8" fill="none" fill-rule="evenodd"/><text fill="#FFFFFF" font-family="Calibri,Calibri_MSFontService,sans-serif" font-weight="400" font-size="32" transform="translate(913.59 460)">3.5</text><rect x="955.5" y="428" width="44.5" height="43.5" fill="#ED7D31"/><path d="M1000 428 1014.5 413.5 1014.5 457 1000 471.5Z" fill="#BF6427" fill-rule="evenodd"/><path d="M955.5 428 970 413.5 1014.5 413.5 1000 428Z" fill="#F19659" fill-rule="evenodd"/><path d="M955.5 428 970 413.5 1014.5 413.5 1014.5 457 1000 471.5 955.5 471.5ZM955.5 428 1000 428 1014.5 413.5M1000 428 1000 471.5" stroke="#AE5A21" stroke-width="1.33333" stroke-miterlimit="8" fill="none" fill-rule="evenodd"/><text fill="#FFFFFF" font-family="Calibri,Calibri_MSFontService,sans-serif" font-weight="400" font-size="32" transform="translate(956.963 460)">5.5</text></g></svg>