<svg width="1282" height="581" xmlns="http://www.w3.org/2000/svg" xmlns:xlink="http://www.w3.org/1999/xlink" overflow="hidden"><defs><clipPath id="clip0"><path d="M-1 102 1281 102 1281 683-1 683Z" fill-rule="evenodd" clip-rule="evenodd"/></clipPath></defs><g clip-path="url(#clip0)" transform="translate(1 -102)"><rect x="509.5" y="103.5" width="56" height="57" stroke="#000000" stroke-linejoin="round" stroke-miterlimit="10" fill="none"/><rect x="565.5" y="103.5" width="57" height="57" stroke="#000000" stroke-linejoin="round" stroke-miterlimit="10" fill="none"/><rect x="622.5" y="103.5" width="57" height="57" stroke="#000000" stroke-linejoin="round" stroke-miterlimit="10" fill="none"/><rect x="509.5" y="160.5" width="56" height="56" stroke="#000000" stroke-linejoin="round" stroke-miterlimit="10" fill="none"/><rect x="565.5" y="160.5" width="57" height="56" stroke="#000000" stroke-linejoin="round" stroke-miterlimit="10" fill="none"/><rect x="622.5" y="160.5" width="57" height="56" stroke="#000000" stroke-linejoin="round" stroke-miterlimit="10" fill="none"/><rect x="509.5" y="216.5" width="56" height="57" stroke="#000000" stroke-linejoin="round" stroke-miterlimit="10" fill="none"/><rect x="565.5" y="216.5" width="57" height="57" stroke="#000000" stroke-linejoin="round" stroke-miterlimit="10" fill="none"/><rect x="622.5" y="216.5" width="57" height="57" stroke="#000000" stroke-linejoin="round" stroke-miterlimit="10" fill="none"/><rect x="603.5" y="122.5" width="57" height="57" fill="#4472C4"/><path d="M660.5 122.5 679.5 103.5 679.5 160.5 660.5 179.5Z" fill="#375C9E" fill-rule="evenodd"/><path d="M603.5 122.5 622.5 103.5 679.5 103.5 660.5 122.5Z" fill="#698ED0" fill-rule="evenodd"/><path d="M603.5 122.5 622.5 103.5 679.5 103.5 679.5 160.5 660.5 179.5 603.5 179.5ZM603.5 122.5 660.5 122.5 679.5 103.5M660.5 122.5 660.5 179.5" stroke="#2F528F" stroke-width="1.33333" stroke-miterlimit="8" fill="none" fill-rule="evenodd"/><rect x="585.5" y="141.25" width="56.25" height="56.25" fill="#4472C4"/><path d="M641.75 141.25 660.5 122.5 660.5 178.75 641.75 197.5Z" fill="#375C9E" fill-rule="evenodd"/><path d="M585.5 141.25 604.25 122.5 660.5 122.5 641.75 141.25Z" fill="#698ED0" fill-rule="evenodd"/><path d="M585.5 141.25 604.25 122.5 660.5 122.5 660.5 178.75 641.75 197.5 585.5 197.5ZM585.5 141.25 641.75 141.25 660.5 122.5M641.75 141.25 641.75 197.5" stroke="#2F528F" stroke-width="1.33333" stroke-miterlimit="8" fill="none" fill-rule="evenodd"/><rect x="565.5" y="159.5" width="57" height="57" fill="#4472C4"/><path d="M622.5 159.5 641.5 140.5 641.5 197.5 622.5 216.5Z" fill="#375C9E" fill-rule="evenodd"/><path d="M565.5 159.5 584.5 140.5 641.5 140.5 622.5 159.5Z" fill="#698ED0" fill-rule="evenodd"/><path d="M565.5 159.5 584.5 140.5 641.5 140.5 641.5 197.5 622.5 216.5 565.5 216.5ZM565.5 159.5 622.5 159.5 641.5 140.5M622.5 159.5 622.5 216.5" stroke="#2F528F" stroke-width="1.33333" stroke-miterlimit="8" fill="none" fill-rule="evenodd"/><rect x="547.5" y="178.25" width="56.25" height="56.25" fill="#4472C4"/><path d="M603.75 178.25 622.5 159.5 622.5 215.75 603.75 234.5Z" fill="#375C9E" fill-rule="evenodd"/><path d="M547.5 178.25 566.25 159.5 622.5 159.5 603.75 178.25Z" fill="#698ED0" fill-rule="evenodd"/><path d="M547.5 178.25 566.25 159.5 622.5 159.5 622.5 215.75 603.75 234.5 547.5 234.5ZM547.5 178.25 603.75 178.25 622.5 159.5M603.75 178.25 603.75 234.5" stroke="#2F528F" stroke-width="1.33333" stroke-miterlimit="8" fill="none" fill-rule="evenodd"/><rect x="528.5" y="196.5" width="57" height="57" fill="#ED7D31"/><path d="M585.5 196.5 604.5 177.5 604.5 234.5 585.5 253.5Z" fill="#BF6427" fill-rule="evenodd"/><path d="M528.5 196.5 547.5 177.5 604.5 177.5 585.5 196.5Z" fill="#F19659" fill-rule="evenodd"/><path d="M528.5 196.5 547.5 177.5 604.5 177.5 604.5 234.5 585.5 253.5 528.5 253.5ZM528.5 196.5 585.5 196.5 604.5 177.5M585.5 196.5 585.5 253.5" stroke="#AE5A21" stroke-width="1.33333" stroke-miterlimit="8" fill="none" fill-rule="evenodd"/><rect x="509.5" y="215.25" width="56.25" height="57.25" fill="#ED7D31"/><path d="M565.75 215.25 584.5 196.5 584.5 253.75 565.75 272.5Z" fill="#BF6427" fill-rule="evenodd"/><path d="M509.5 215.25 528.25 196.5 584.5 196.5 565.75 215.25Z" fill="#F19659" fill-rule="evenodd"/><path d="M509.5 215.25 528.25 196.5 584.5 196.5 584.5 253.75 565.75 272.5 509.5 272.5ZM509.5 215.25 565.75 215.25 584.5 196.5M565.75 215.25 565.75 272.5" stroke="#AE5A21" stroke-width="1.33333" stroke-miterlimit="8" fill="none" fill-rule="evenodd"/><rect x="490.5" y="234.25" width="57.25" height="56.25" fill="#ED7D31"/><path d="M547.75 234.25 566.5 215.5 566.5 271.75 547.75 290.5Z" fill="#BF6427" fill-rule="evenodd"/><path d="M490.5 234.25 509.25 215.5 566.5 215.5 547.75 234.25Z" fill="#F19659" fill-rule="evenodd"/><path d="M490.5 234.25 509.25 215.5 566.5 215.5 566.5 271.75 547.75 290.5 490.5 290.5ZM490.5 234.25 547.75 234.25 566.5 215.5M547.75 234.25 547.75 290.5" stroke="#AE5A21" stroke-width="1.33333" stroke-miterlimit="8" fill="none" fill-rule="evenodd"/><rect x="472.5" y="252.25" width="56.25" height="57.25" fill="#ED7D31"/><path d="M528.75 252.25 547.5 233.5 547.5 290.75 528.75 309.5Z" fill="#BF6427" fill-rule="evenodd"/><path d="M472.5 252.25 491.25 233.5 547.5 233.5 528.75 252.25Z" fill="#F19659" fill-rule="evenodd"/><path d="M472.5 252.25 491.25 233.5 547.5 233.5 547.5 290.75 528.75 309.5 472.5 309.5ZM472.5 252.25 528.75 252.25 547.5 233.5M528.75 252.25 528.75 309.5" stroke="#AE5A21" stroke-width="1.33333" stroke-miterlimit="8" fill="none" fill-rule="evenodd"/><rect x="452.5" y="271.5" width="57" height="57" fill="#70AD47"/><path d="M509.5 271.5 528.5 252.5 528.5 309.5 509.5 328.5Z" fill="#5A8B39" fill-rule="evenodd"/><path d="M452.5 271.5 471.5 252.5 528.5 252.5 509.5 271.5Z" fill="#8CBD6B" fill-rule="evenodd"/><path d="M452.5 271.5 471.5 252.5 528.5 252.5 528.5 309.5 509.5 328.5 452.5 328.5ZM452.5 271.5 509.5 271.5 528.5 252.5M509.5 271.5 509.5 328.5" stroke="#507E32" stroke-width="1.33333" stroke-miterlimit="8" fill="none" fill-rule="evenodd"/><rect x="433.5" y="290.25" width="57.25" height="56.25" fill="#70AD47"/><path d="M490.75 290.25 509.5 271.5 509.5 327.75 490.75 346.5Z" fill="#5A8B39" fill-rule="evenodd"/><path d="M433.5 290.25 452.25 271.5 509.5 271.5 490.75 290.25Z" fill="#8CBD6B" fill-rule="evenodd"/><path d="M433.5 290.25 452.25 271.5 509.5 271.5 509.5 327.75 490.75 346.5 433.5 346.5ZM433.5 290.25 490.75 290.25 509.5 271.5M490.75 290.25 490.75 346.5" stroke="#507E32" stroke-width="1.33333" stroke-miterlimit="8" fill="none" fill-rule="evenodd"/><rect x="415.5" y="308.25" width="56.25" height="57.25" fill="#70AD47"/><path d="M471.75 308.25 490.5 289.5 490.5 346.75 471.75 365.5Z" fill="#5A8B39" fill-rule="evenodd"/><path d="M415.5 308.25 434.25 289.5 490.5 289.5 471.75 308.25Z" fill="#8CBD6B" fill-rule="evenodd"/><path d="M415.5 308.25 434.25 289.5 490.5 289.5 490.5 346.75 471.75 365.5 415.5 365.5ZM415.5 308.25 471.75 308.25 490.5 289.5M471.75 308.25 471.75 365.5" stroke="#507E32" stroke-width="1.33333" stroke-miterlimit="8" fill="none" fill-rule="evenodd"/><rect x="396.5" y="327.25" width="57.25" height="56.25" fill="#70AD47"/><path d="M453.75 327.25 472.5 308.5 472.5 364.75 453.75 383.5Z" fill="#5A8B39" fill-rule="evenodd"/><path d="M396.5 327.25 415.25 308.5 472.5 308.5 453.75 327.25Z" fill="#8CBD6B" fill-rule="evenodd"/><path d="M396.5 327.25 415.25 308.5 472.5 308.5 472.5 364.75 453.75 383.5 396.5 383.5ZM396.5 327.25 453.75 327.25 472.5 308.5M453.75 327.25 453.75 383.5" stroke="#507E32" stroke-width="1.33333" stroke-miterlimit="8" fill="none" fill-rule="evenodd"/><rect x="283.5" y="326.5" width="57" height="57" stroke="#000000" stroke-linejoin="round" stroke-miterlimit="10" fill="none"/><rect x="340.5" y="326.5" width="56" height="57" stroke="#000000" stroke-linejoin="round" stroke-miterlimit="10" fill="none"/><rect x="283.5" y="383.5" width="57" height="57" stroke="#000000" stroke-linejoin="round" stroke-miterlimit="10" fill="none"/><rect x="396.5" y="383.5" width="57" height="57" stroke="#000000" stroke-linejoin="round" stroke-miterlimit="10" fill="none"/><rect x="340.5" y="440.5" width="56" height="56" stroke="#000000" stroke-linejoin="round" stroke-miterlimit="10" fill="none"/><rect x="396.5" y="440.5" width="57" height="56" stroke="#000000" stroke-linejoin="round" stroke-miterlimit="10" fill="none"/><rect x="283.5" y="440.5" width="57" height="56" stroke="#000000" stroke-linejoin="round" stroke-miterlimit="10" fill="none"/><rect x="396.5" y="326.5" width="57" height="57" stroke="#000000" stroke-linejoin="round" stroke-miterlimit="10" fill="none"/><path d="M5.44407 3.97431 221.728 217.723 220.322 219.146 4.03822 5.39684ZM2.87839 8.46846 0 0 8.50181 2.77836ZM222.889 214.653 225.767 223.121 217.266 220.343Z" transform="matrix(1 0 0 -1 453 468.121)"/><text font-family="Calibri,Calibri_MSFontService,sans-serif" font-weight="400" font-size="24" transform="translate(584.441 373)">Nif</text><path d="M289.667 507 446.412 507 446.412 509 289.667 509ZM291 512 283 508 291 504ZM445.079 504 453.079 508 445.079 512Z"/><text font-family="Calibri,Calibri_MSFontService,sans-serif" font-weight="400" font-size="24" transform="translate(349.029 533)">Nix</text><path d="M272 332.667 272 489.412 270 489.412 270 332.667ZM267 334 271 326 275 334ZM275 488.079 271 496.079 267 488.079Z"/><text font-family="Calibri,Calibri_MSFontService,sans-serif" font-weight="400" font-size="24" transform="translate(229.86 419)">Niy</text><rect x="484.5" y="531.25" width="57.25" height="56.25" fill="#4472C4"/><path d="M541.75 531.25 560.5 512.5 560.5 568.75 541.75 587.5Z" fill="#375C9E" fill-rule="evenodd"/><path d="M484.5 531.25 503.25 512.5 560.5 512.5 541.75 531.25Z" fill="#698ED0" fill-rule="evenodd"/><path d="M484.5 531.25 503.25 512.5 560.5 512.5 560.5 568.75 541.75 587.5 484.5 587.5ZM484.5 531.25 541.75 531.25 560.5 512.5M541.75 531.25 541.75 587.5" stroke="#2F528F" stroke-width="1.33333" stroke-miterlimit="8" fill="none" fill-rule="evenodd"/><rect x="464.5" y="550.5" width="57" height="57" fill="#4472C4"/><path d="M521.5 550.5 540.5 531.5 540.5 588.5 521.5 607.5Z" fill="#375C9E" fill-rule="evenodd"/><path d="M464.5 550.5 483.5 531.5 540.5 531.5 521.5 550.5Z" fill="#698ED0" fill-rule="evenodd"/><path d="M464.5 550.5 483.5 531.5 540.5 531.5 540.5 588.5 521.5 607.5 464.5 607.5ZM464.5 550.5 521.5 550.5 540.5 531.5M521.5 550.5 521.5 607.5" stroke="#2F528F" stroke-width="1.33333" stroke-miterlimit="8" fill="none" fill-rule="evenodd"/><rect x="445.5" y="569.5" width="57" height="57" fill="#ED7D31"/><path d="M502.5 569.5 521.5 550.5 521.5 607.5 502.5 626.5Z" fill="#BF6427" fill-rule="evenodd"/><path d="M445.5 569.5 464.5 550.5 521.5 550.5 502.5 569.5Z" fill="#F19659" fill-rule="evenodd"/><path d="M445.5 569.5 464.5 550.5 521.5 550.5 521.5 607.5 502.5 626.5 445.5 626.5ZM445.5 569.5 502.5 569.5 521.5 550.5M502.5 569.5 502.5 626.5" stroke="#AE5A21" stroke-width="1.33333" stroke-miterlimit="8" fill="none" fill-rule="evenodd"/><rect x="427.5" y="587.25" width="56.25" height="57.25" fill="#ED7D31"/><path d="M483.75 587.25 502.5 568.5 502.5 625.75 483.75 644.5Z" fill="#BF6427" fill-rule="evenodd"/><path d="M427.5 587.25 446.25 568.5 502.5 568.5 483.75 587.25Z" fill="#F19659" fill-rule="evenodd"/><path d="M427.5 587.25 446.25 568.5 502.5 568.5 502.5 625.75 483.75 644.5 427.5 644.5ZM427.5 587.25 483.75 587.25 502.5 568.5M483.75 587.25 483.75 644.5" stroke="#AE5A21" stroke-width="1.33333" stroke-miterlimit="8" fill="none" fill-rule="evenodd"/><rect x="408.5" y="606.25" width="56.25" height="57.25" fill="#70AD47"/><path d="M464.75 606.25 483.5 587.5 483.5 644.75 464.75 663.5Z" fill="#5A8B39" fill-rule="evenodd"/><path d="M408.5 606.25 427.25 587.5 483.5 587.5 464.75 606.25Z" fill="#8CBD6B" fill-rule="evenodd"/><path d="M408.5 606.25 427.25 587.5 483.5 587.5 483.5 644.75 464.75 663.5 408.5 663.5ZM408.5 606.25 464.75 606.25 483.5 587.5M464.75 606.25 464.75 663.5" stroke="#507E32" stroke-width="1.33333" stroke-miterlimit="8" fill="none" fill-rule="evenodd"/><rect x="389.5" y="625.25" width="56.25" height="57.25" fill="#70AD47"/><path d="M445.75 625.25 464.5 606.5 464.5 663.75 445.75 682.5Z" fill="#5A8B39" fill-rule="evenodd"/><path d="M389.5 625.25 408.25 606.5 464.5 606.5 445.75 625.25Z" fill="#8CBD6B" fill-rule="evenodd"/><path d="M389.5 625.25 408.25 606.5 464.5 606.5 464.5 663.75 445.75 682.5 389.5 682.5ZM389.5 625.25 445.75 625.25 464.5 606.5M445.75 625.25 445.75 682.5" stroke="#507E32" stroke-width="1.33333" stroke-miterlimit="8" fill="none" fill-rule="evenodd"/><text font-family="Calibri,Calibri_MSFontService,sans-serif" font-weight="400" font-size="24" transform="translate(84.0952 240)">Input FM</text><path d="M5.44044 3.98059 71.1272 69.0343 69.7199 70.4554 4.03309 5.40163ZM2.86948 8.47149 0 0 8.49888 2.78731ZM72.2908 65.9645 75.1603 74.436 66.6614 71.6487Z" fill="#ED7D31" transform="matrix(1 0 0 -1 460 252.436)"/><text font-family="Calibri,Calibri_MSFontService,sans-serif" font-weight="400" font-size="24" transform="translate(434.586 217)">Npar</text><path d="M843.5 169.5 859.5 186.52 859.5 236.48 843.5 253.5Z" stroke="#AE5A21" stroke-width="1.33333" stroke-miterlimit="8" fill="#ED7D31" fill-rule="evenodd"/><path d="M604.5 203.25 824 203.25 824 194.5 841.5 212 824 229.5 824 220.75 604.5 220.75Z" stroke="#AE5A21" stroke-width="1.33333" stroke-miterlimit="8" fill="#ED7D31" fill-rule="evenodd"/><path d="M920.5 237.5 936.5 254.52 936.5 304.48 920.5 321.5Z" stroke="#AE5A21" stroke-width="1.33333" stroke-miterlimit="8" fill="#ED7D31" fill-rule="evenodd"/><path d="M884.5 212C884.5 206.753 888.753 202.5 894 202.5 899.247 202.5 903.5 206.753 903.5 212 903.5 217.247 899.247 221.5 894 221.5 888.753 221.5 884.5 217.247 884.5 212Z" fill="#ED7D31" fill-rule="evenodd"/><path d="M887.283 205.283 900.718 218.718M900.718 205.283 887.283 218.718" stroke="#AE5A21" stroke-width="1.33333" stroke-miterlimit="8" fill="none" fill-rule="evenodd"/><path d="M884.5 212C884.5 206.753 888.753 202.5 894 202.5 899.247 202.5 903.5 206.753 903.5 212 903.5 217.247 899.247 221.5 894 221.5 888.753 221.5 884.5 217.247 884.5 212Z" stroke="#AE5A21" stroke-width="1.33333" stroke-miterlimit="8" fill="none" fill-rule="evenodd"/><path d="M859.507 211.167 877.75 211.537 877.737 212.204 859.493 211.833ZM876.492 207.844 884.409 212.006 876.329 215.842Z"/><path d="M962.5 280C962.5 274.753 966.529 270.5 971.5 270.5 976.471 270.5 980.5 274.753 980.5 280 980.5 285.247 976.471 289.5 971.5 289.5 966.529 289.5 962.5 285.247 962.5 280Z" fill="#ED7D31" fill-rule="evenodd"/><path d="M965.136 273.283 977.864 286.718M977.864 273.283 965.136 286.718" stroke="#AE5A21" stroke-width="1.33333" stroke-miterlimit="8" fill="none" fill-rule="evenodd"/><path d="M962.5 280C962.5 274.753 966.529 270.5 971.5 270.5 976.471 270.5 980.5 274.753 980.5 280 980.5 285.247 976.471 289.5 971.5 289.5 966.529 289.5 962.5 285.247 962.5 280Z" stroke="#AE5A21" stroke-width="1.33333" stroke-miterlimit="8" fill="none" fill-rule="evenodd"/><path d="M936.513 279.167 955.12 279.898 955.093 280.565 936.487 279.833ZM953.931 276.182 961.768 280.493 953.617 284.176Z"/><path d="M1032.5 244C1032.5 238.753 1036.75 234.5 1042 234.5 1047.25 234.5 1051.5 238.753 1051.5 244 1051.5 249.247 1047.25 253.5 1042 253.5 1036.75 253.5 1032.5 249.247 1032.5 244Z" fill="#ED7D31" fill-rule="evenodd"/><path d="M1042 234.5 1042 253.5M1032.5 244 1051.5 244" stroke="#AE5A21" stroke-width="1.33333" stroke-miterlimit="8" fill="none" fill-rule="evenodd"/><path d="M1032.5 244C1032.5 238.753 1036.75 234.5 1042 234.5 1047.25 234.5 1051.5 238.753 1051.5 244 1051.5 249.247 1047.25 253.5 1042 253.5 1036.75 253.5 1032.5 249.247 1032.5 244Z" stroke="#AE5A21" stroke-width="1.33333" stroke-miterlimit="8" fill="none" fill-rule="evenodd"/><path d="M0-0.333333 61.1618-0.333333 61.1618 20.4569 60.4951 20.4569 60.4951 0 60.8284 0.333333 0 0.333333ZM64.8285 19.1236 60.8284 27.1236 56.8284 19.1236Z" transform="matrix(1 0 0 -1 980.5 280.624)"/><path d="M903.5 211.167 1042.5 211.167 1042.5 227.308 1041.84 227.308 1041.84 211.5 1042.17 211.833 903.5 211.833ZM1046.17 225.975 1042.17 233.975 1038.17 225.975Z"/><path d="M0-0.333333 477.279-0.333333 477.279 309.591 476.612 309.591 476.612 0 476.946 0.333333 0 0.333333ZM480.946 308.258 476.946 316.258 472.946 308.258Z" transform="matrix(1 0 0 -1 494.5 605.758)"/><path d="M0-0.333333 380.387-0.333333 380.387 361.2 379.72 361.2 379.72 0 380.053 0.333333 0 0.333333ZM384.053 359.867 380.053 367.867 376.053 359.867Z" transform="matrix(1 0 0 -1 513.5 589.367)"/><path d="M1051.5 243.167 1115.42 243.167 1115.42 243.833 1051.5 243.833ZM1114.08 239.5 1122.08 243.5 1114.08 247.5Z"/><text font-family="Calibri,Calibri_MSFontService,sans-serif" font-weight="400" font-size="24" transform="translate(34.2366 609)">Pointwise<tspan x="99.9667" y="0">kernel</tspan><tspan x="1112.98" y="-358">Output FM</tspan></text><path d="M5.34128 4.11283 31.882 31.7191 30.4402 33.1052 3.89951 5.49895ZM2.66093 8.53929 0 0 8.42799 2.99482ZM33.1206 28.6788 35.7815 37.2181 27.3535 34.2232Z" fill="#ED7D31" transform="matrix(1 0 0 -1 413 588.218)"/><text font-family="Calibri,Calibri_MSFontService,sans-serif" font-weight="400" font-size="24" transform="translate(371.925 573)">Nnp</text><path d="M530.5 270.25 904 270.25 904 261.5 921.5 279 904 296.5 904 287.75 530.5 287.75Z" stroke="#AE5A21" stroke-width="1.33333" stroke-miterlimit="8" fill="#ED7D31" fill-rule="evenodd"/></g></svg>