<svg width="1276" height="608" xmlns="http://www.w3.org/2000/svg" xmlns:xlink="http://www.w3.org/1999/xlink" overflow="hidden"><defs><clipPath id="clip0"><path d="M13 65 1289 65 1289 673 13 673Z" fill-rule="evenodd" clip-rule="evenodd"/></clipPath></defs><g clip-path="url(#clip0)" transform="translate(-13 -65)"><rect x="448.5" y="95.0001" width="85.5" height="85.4999"/><path d="M534 95.0001 562.5 66.5001 562.5 152 534 180.5Z" fill-rule="evenodd"/><path d="M448.5 95.0001 477 66.5001 562.5 66.5001 534 95.0001Z" fill="#323232" fill-rule="evenodd"/><path d="M448.5 95.0001 477 66.5001 562.5 66.5001 562.5 152 534 180.5 448.5 180.5ZM448.5 95.0001 534 95.0001 562.5 66.5001M534 95.0001 534 180.5" stroke="#000000" stroke-width="1.33333" stroke-miterlimit="8" fill="none" fill-rule="evenodd"/><rect x="420.5" y="123.75" width="84.7501" height="85.75"/><path d="M505.25 123.75 533.5 95.5001 533.5 181.25 505.25 209.5Z" fill-rule="evenodd"/><path d="M420.5 123.75 448.75 95.5001 533.5 95.5001 505.25 123.75Z" fill="#323232" fill-rule="evenodd"/><path d="M420.5 123.75 448.75 95.5001 533.5 95.5001 533.5 181.25 505.25 209.5 420.5 209.5ZM420.5 123.75 505.25 123.75 533.5 95.5001M505.25 123.75 505.25 209.5" stroke="#000000" stroke-width="1.33333" stroke-miterlimit="8" fill="none" fill-rule="evenodd"/><rect x="392.5" y="152.75" width="84.75" height="84.7499" fill="#4472C4"/><path d="M477.25 152.75 505.5 124.5 505.5 209.25 477.25 237.5Z" fill="#375C9E" fill-rule="evenodd"/><path d="M392.5 152.75 420.75 124.5 505.5 124.5 477.25 152.75Z" fill="#698ED0" fill-rule="evenodd"/><path d="M392.5 152.75 420.75 124.5 505.5 124.5 505.5 209.25 477.25 237.5 392.5 237.5ZM392.5 152.75 477.25 152.75 505.5 124.5M477.25 152.75 477.25 237.5" stroke="#2F528F" stroke-width="1.33333" stroke-miterlimit="8" fill="none" fill-rule="evenodd"/><rect x="363.5" y="180.75" width="84.75" height="84.7499" fill="#4472C4"/><path d="M448.25 180.75 476.5 152.5 476.5 237.25 448.25 265.5Z" fill="#375C9E" fill-rule="evenodd"/><path d="M363.5 180.75 391.75 152.5 476.5 152.5 448.25 180.75Z" fill="#698ED0" fill-rule="evenodd"/><path d="M363.5 180.75 391.75 152.5 476.5 152.5 476.5 237.25 448.25 265.5 363.5 265.5ZM363.5 180.75 448.25 180.75 476.5 152.5M448.25 180.75 448.25 265.5" stroke="#2F528F" stroke-width="1.33333" stroke-miterlimit="8" fill="none" fill-rule="evenodd"/><rect x="335.5" y="208.75" width="84.75" height="84.7499" fill="#ED7D31"/><path d="M420.25 208.75 448.5 180.5 448.5 265.25 420.25 293.5Z" fill="#BF6427" fill-rule="evenodd"/><path d="M335.5 208.75 363.75 180.5 448.5 180.5 420.25 208.75Z" fill="#F19659" fill-rule="evenodd"/><path d="M335.5 208.75 363.75 180.5 448.5 180.5 448.5 265.25 420.25 293.5 335.5 293.5ZM335.5 208.75 420.25 208.75 448.5 180.5M420.25 208.75 420.25 293.5" stroke="#AE5A21" stroke-width="1.33333" stroke-miterlimit="8" fill="none" fill-rule="evenodd"/><rect x="306.5" y="237.75" width="84.75" height="84.7499" fill="#ED7D31"/><path d="M391.25 237.75 419.5 209.5 419.5 294.25 391.25 322.5Z" fill="#BF6427" fill-rule="evenodd"/><path d="M306.5 237.75 334.75 209.5 419.5 209.5 391.25 237.75Z" fill="#F19659" fill-rule="evenodd"/><path d="M306.5 237.75 334.75 209.5 419.5 209.5 419.5 294.25 391.25 322.5 306.5 322.5ZM306.5 237.75 391.25 237.75 419.5 209.5M391.25 237.75 391.25 322.5" stroke="#AE5A21" stroke-width="1.33333" stroke-miterlimit="8" fill="none" fill-rule="evenodd"/><rect x="278.5" y="265.75" width="84.7501" height="85.75"/><path d="M363.25 265.75 391.5 237.5 391.5 323.25 363.25 351.5Z" fill-rule="evenodd"/><path d="M278.5 265.75 306.75 237.5 391.5 237.5 363.25 265.75Z" fill="#323232" fill-rule="evenodd"/><path d="M278.5 265.75 306.75 237.5 391.5 237.5 391.5 323.25 363.25 351.5 278.5 351.5ZM278.5 265.75 363.25 265.75 391.5 237.5M363.25 265.75 363.25 351.5" stroke="#000000" stroke-width="1.33333" stroke-miterlimit="8" fill="none" fill-rule="evenodd"/><rect x="249.5" y="294" width="85.5" height="85.4999"/><path d="M335 294 363.5 265.5 363.5 351 335 379.5Z" fill-rule="evenodd"/><path d="M249.5 294 278 265.5 363.5 265.5 335 294Z" fill="#323232" fill-rule="evenodd"/><path d="M249.5 294 278 265.5 363.5 265.5 363.5 351 335 379.5 249.5 379.5ZM249.5 294 335 294 363.5 265.5M335 294 335 379.5" stroke="#000000" stroke-width="1.33333" stroke-miterlimit="8" fill="none" fill-rule="evenodd"/><rect x="221.5" y="321.75" width="84.75" height="84.7499" fill="#70AD47"/><path d="M306.25 321.75 334.5 293.5 334.5 378.25 306.25 406.5Z" fill="#5A8B39" fill-rule="evenodd"/><path d="M221.5 321.75 249.75 293.5 334.5 293.5 306.25 321.75Z" fill="#8CBD6B" fill-rule="evenodd"/><path d="M221.5 321.75 249.75 293.5 334.5 293.5 334.5 378.25 306.25 406.5 221.5 406.5ZM221.5 321.75 306.25 321.75 334.5 293.5M306.25 321.75 306.25 406.5" stroke="#507E32" stroke-width="1.33333" stroke-miterlimit="8" fill="none" fill-rule="evenodd"/><rect x="192.5" y="350.75" width="85.75" height="84.75"/><path d="M278.25 350.75 306.5 322.5 306.5 407.25 278.25 435.5Z" fill-rule="evenodd"/><path d="M192.5 350.75 220.75 322.5 306.5 322.5 278.25 350.75Z" fill="#323232" fill-rule="evenodd"/><path d="M192.5 350.75 220.75 322.5 306.5 322.5 306.5 407.25 278.25 435.5 192.5 435.5ZM192.5 350.75 278.25 350.75 306.5 322.5M278.25 350.75 278.25 435.5" stroke="#000000" stroke-width="1.33333" stroke-miterlimit="8" fill="none" fill-rule="evenodd"/><rect x="164.5" y="379.75" width="85.75" height="84.75" fill="#70AD47"/><path d="M250.25 379.75 278.5 351.5 278.5 436.25 250.25 464.5Z" fill="#5A8B39" fill-rule="evenodd"/><path d="M164.5 379.75 192.75 351.5 278.5 351.5 250.25 379.75Z" fill="#8CBD6B" fill-rule="evenodd"/><path d="M164.5 379.75 192.75 351.5 278.5 351.5 278.5 436.25 250.25 464.5 164.5 464.5ZM164.5 379.75 250.25 379.75 278.5 351.5M250.25 379.75 250.25 464.5" stroke="#507E32" stroke-width="1.33333" stroke-miterlimit="8" fill="none" fill-rule="evenodd"/><rect x="136.5" y="407.75" width="84.75" height="84.7499"/><path d="M221.25 407.75 249.5 379.5 249.5 464.25 221.25 492.5Z" fill-rule="evenodd"/><path d="M136.5 407.75 164.75 379.5 249.5 379.5 221.25 407.75Z" fill="#323232" fill-rule="evenodd"/><path d="M136.5 407.75 164.75 379.5 249.5 379.5 249.5 464.25 221.25 492.5 136.5 492.5ZM136.5 407.75 221.25 407.75 249.5 379.5M221.25 407.75 221.25 492.5" stroke="#000000" stroke-width="1.33333" stroke-miterlimit="8" fill="none" fill-rule="evenodd"/><rect x="107.5" y="435" width="85.5" height="85.4999" fill="#FFC000"/><path d="M193 435 221.5 406.5 221.5 492 193 520.5Z" fill="#CD9A00" fill-rule="evenodd"/><path d="M107.5 435 136 406.5 221.5 406.5 193 435Z" fill="#FFCC32" fill-rule="evenodd"/><path d="M107.5 435 136 406.5 221.5 406.5 221.5 492 193 520.5 107.5 520.5ZM107.5 435 193 435 221.5 406.5M193 435 193 520.5" stroke="#BC8C00" stroke-width="1.33333" stroke-miterlimit="8" fill="none" fill-rule="evenodd"/><rect x="78.5001" y="464" width="85.5" height="85.4999"/><path d="M164 464 192.5 435.5 192.5 521 164 549.5Z" fill-rule="evenodd"/><path d="M78.5001 464 107 435.5 192.5 435.5 164 464Z" fill="#323232" fill-rule="evenodd"/><path d="M78.5001 464 107 435.5 192.5 435.5 192.5 521 164 549.5 78.5001 549.5ZM78.5001 464 164 464 192.5 435.5M164 464 164 549.5" stroke="#000000" stroke-width="1.33333" stroke-miterlimit="8" fill="none" fill-rule="evenodd"/><rect x="51.5001" y="492.75" width="84.75" height="84.7499"/><path d="M136.25 492.75 164.5 464.5 164.5 549.25 136.25 577.5Z" fill-rule="evenodd"/><path d="M51.5001 492.75 79.7501 464.5 164.5 464.5 136.25 492.75Z" fill="#323232" fill-rule="evenodd"/><path d="M51.5001 492.75 79.7501 464.5 164.5 464.5 164.5 549.25 136.25 577.5 51.5001 577.5ZM51.5001 492.75 136.25 492.75 164.5 464.5M136.25 492.75 136.25 577.5" stroke="#000000" stroke-width="1.33333" stroke-miterlimit="8" fill="none" fill-rule="evenodd"/><rect x="22.5001" y="520.75" width="84.75" height="84.7499" fill="#FFC000"/><path d="M107.25 520.75 135.5 492.5 135.5 577.25 107.25 605.5Z" fill="#CD9A00" fill-rule="evenodd"/><path d="M22.5001 520.75 50.7501 492.5 135.5 492.5 107.25 520.75Z" fill="#FFCC32" fill-rule="evenodd"/><path d="M22.5001 520.75 50.7501 492.5 135.5 492.5 135.5 577.25 107.25 605.5 22.5001 605.5ZM22.5001 520.75 107.25 520.75 135.5 492.5M107.25 520.75 107.25 605.5" stroke="#BC8C00" stroke-width="1.33333" stroke-miterlimit="8" fill="none" fill-rule="evenodd"/><rect x="1151.5" y="94.7501" width="84.75" height="85.75" fill="#4472C4"/><path d="M1236.25 94.7501 1264.5 66.5001 1264.5 152.25 1236.25 180.5Z" fill="#375C9E" fill-rule="evenodd"/><path d="M1151.5 94.7501 1179.75 66.5001 1264.5 66.5001 1236.25 94.7501Z" fill="#698ED0" fill-rule="evenodd"/><path d="M1151.5 94.7501 1179.75 66.5001 1264.5 66.5001 1264.5 152.25 1236.25 180.5 1151.5 180.5ZM1151.5 94.7501 1236.25 94.7501 1264.5 66.5001M1236.25 94.7501 1236.25 180.5" stroke="#2F528F" stroke-width="1.33333" stroke-miterlimit="8" fill="none" fill-rule="evenodd"/><rect x="1122.5" y="123.75" width="84.75" height="85.75"/><path d="M1207.25 123.75 1235.5 95.5001 1235.5 181.25 1207.25 209.5Z" fill-rule="evenodd"/><path d="M1122.5 123.75 1150.75 95.5001 1235.5 95.5001 1207.25 123.75Z" fill="#323232" fill-rule="evenodd"/><path d="M1122.5 123.75 1150.75 95.5001 1235.5 95.5001 1235.5 181.25 1207.25 209.5 1122.5 209.5ZM1122.5 123.75 1207.25 123.75 1235.5 95.5001M1207.25 123.75 1207.25 209.5" stroke="#000000" stroke-width="1.33333" stroke-miterlimit="8" fill="none" fill-rule="evenodd"/><rect x="1094.5" y="152.75" width="85.75" height="84.75"/><path d="M1180.25 152.75 1208.5 124.5 1208.5 209.25 1180.25 237.5Z" fill-rule="evenodd"/><path d="M1094.5 152.75 1122.75 124.5 1208.5 124.5 1180.25 152.75Z" fill="#323232" fill-rule="evenodd"/><path d="M1094.5 152.75 1122.75 124.5 1208.5 124.5 1208.5 209.25 1180.25 237.5 1094.5 237.5ZM1094.5 152.75 1180.25 152.75 1208.5 124.5M1180.25 152.75 1180.25 237.5" stroke="#000000" stroke-width="1.33333" stroke-miterlimit="8" fill="none" fill-rule="evenodd"/><rect x="1065.5" y="180.75" width="85.75" height="84.75" fill="#4472C4"/><path d="M1151.25 180.75 1179.5 152.5 1179.5 237.25 1151.25 265.5Z" fill="#375C9E" fill-rule="evenodd"/><path d="M1065.5 180.75 1093.75 152.5 1179.5 152.5 1151.25 180.75Z" fill="#698ED0" fill-rule="evenodd"/><path d="M1065.5 180.75 1093.75 152.5 1179.5 152.5 1179.5 237.25 1151.25 265.5 1065.5 265.5ZM1065.5 180.75 1151.25 180.75 1179.5 152.5M1151.25 180.75 1151.25 265.5" stroke="#2F528F" stroke-width="1.33333" stroke-miterlimit="8" fill="none" fill-rule="evenodd"/><rect x="1037.5" y="208.75" width="84.75" height="84.7499"/><path d="M1122.25 208.75 1150.5 180.5 1150.5 265.25 1122.25 293.5Z" fill-rule="evenodd"/><path d="M1037.5 208.75 1065.75 180.5 1150.5 180.5 1122.25 208.75Z" fill="#323232" fill-rule="evenodd"/><path d="M1037.5 208.75 1065.75 180.5 1150.5 180.5 1150.5 265.25 1122.25 293.5 1037.5 293.5ZM1037.5 208.75 1122.25 208.75 1150.5 180.5M1122.25 208.75 1122.25 293.5" stroke="#000000" stroke-width="1.33333" stroke-miterlimit="8" fill="none" fill-rule="evenodd"/><rect x="1008.5" y="237.75" width="85.7499" height="84.75" fill="#ED7D31"/><path d="M1094.25 237.75 1122.5 209.5 1122.5 294.25 1094.25 322.5Z" fill="#BF6427" fill-rule="evenodd"/><path d="M1008.5 237.75 1036.75 209.5 1122.5 209.5 1094.25 237.75Z" fill="#F19659" fill-rule="evenodd"/><path d="M1008.5 237.75 1036.75 209.5 1122.5 209.5 1122.5 294.25 1094.25 322.5 1008.5 322.5ZM1008.5 237.75 1094.25 237.75 1122.5 209.5M1094.25 237.75 1094.25 322.5" stroke="#AE5A21" stroke-width="1.33333" stroke-miterlimit="8" fill="none" fill-rule="evenodd"/><rect x="981.5" y="265.75" width="84.7501" height="85.75"/><path d="M1066.25 265.75 1094.5 237.5 1094.5 323.25 1066.25 351.5Z" fill-rule="evenodd"/><path d="M981.5 265.75 1009.75 237.5 1094.5 237.5 1066.25 265.75Z" fill="#323232" fill-rule="evenodd"/><path d="M981.5 265.75 1009.75 237.5 1094.5 237.5 1094.5 323.25 1066.25 351.5 981.5 351.5ZM981.5 265.75 1066.25 265.75 1094.5 237.5M1066.25 265.75 1066.25 351.5" stroke="#000000" stroke-width="1.33333" stroke-miterlimit="8" fill="none" fill-rule="evenodd"/><rect x="952.5" y="293.75" width="84.7501" height="85.75" fill="#ED7D31"/><path d="M1037.25 293.75 1065.5 265.5 1065.5 351.25 1037.25 379.5Z" fill="#BF6427" fill-rule="evenodd"/><path d="M952.5 293.75 980.75 265.5 1065.5 265.5 1037.25 293.75Z" fill="#F19659" fill-rule="evenodd"/><path d="M952.5 293.75 980.75 265.5 1065.5 265.5 1065.5 351.25 1037.25 379.5 952.5 379.5ZM952.5 293.75 1037.25 293.75 1065.5 265.5M1037.25 293.75 1037.25 379.5" stroke="#AE5A21" stroke-width="1.33333" stroke-miterlimit="8" fill="none" fill-rule="evenodd"/><rect x="923.5" y="321.75" width="85.7499" height="84.75"/><path d="M1009.25 321.75 1037.5 293.5 1037.5 378.25 1009.25 406.5Z" fill-rule="evenodd"/><path d="M923.5 321.75 951.75 293.5 1037.5 293.5 1009.25 321.75Z" fill="#323232" fill-rule="evenodd"/><path d="M923.5 321.75 951.75 293.5 1037.5 293.5 1037.5 378.25 1009.25 406.5 923.5 406.5ZM923.5 321.75 1009.25 321.75 1037.5 293.5M1009.25 321.75 1009.25 406.5" stroke="#000000" stroke-width="1.33333" stroke-miterlimit="8" fill="none" fill-rule="evenodd"/><rect x="895.5" y="350.75" width="84.75" height="84.7499" fill="#70AD47"/><path d="M980.25 350.75 1008.5 322.5 1008.5 407.25 980.25 435.5Z" fill="#5A8B39" fill-rule="evenodd"/><path d="M895.5 350.75 923.75 322.5 1008.5 322.5 980.25 350.75Z" fill="#8CBD6B" fill-rule="evenodd"/><path d="M895.5 350.75 923.75 322.5 1008.5 322.5 1008.5 407.25 980.25 435.5 895.5 435.5ZM895.5 350.75 980.25 350.75 1008.5 322.5M980.25 350.75 980.25 435.5" stroke="#507E32" stroke-width="1.33333" stroke-miterlimit="8" fill="none" fill-rule="evenodd"/><rect x="867.5" y="379.75" width="84.75" height="84.7499" fill="#70AD47"/><path d="M952.25 379.75 980.5 351.5 980.5 436.25 952.25 464.5Z" fill="#5A8B39" fill-rule="evenodd"/><path d="M867.5 379.75 895.75 351.5 980.5 351.5 952.25 379.75Z" fill="#8CBD6B" fill-rule="evenodd"/><path d="M867.5 379.75 895.75 351.5 980.5 351.5 980.5 436.25 952.25 464.5 867.5 464.5ZM867.5 379.75 952.25 379.75 980.5 351.5M952.25 379.75 952.25 464.5" stroke="#507E32" stroke-width="1.33333" stroke-miterlimit="8" fill="none" fill-rule="evenodd"/><rect x="838.5" y="407.75" width="84.75" height="84.7499"/><path d="M923.25 407.75 951.5 379.5 951.5 464.25 923.25 492.5Z" fill-rule="evenodd"/><path d="M838.5 407.75 866.75 379.5 951.5 379.5 923.25 407.75Z" fill="#323232" fill-rule="evenodd"/><path d="M838.5 407.75 866.75 379.5 951.5 379.5 951.5 464.25 923.25 492.5 838.5 492.5ZM838.5 407.75 923.25 407.75 951.5 379.5M923.25 407.75 923.25 492.5" stroke="#000000" stroke-width="1.33333" stroke-miterlimit="8" fill="none" fill-rule="evenodd"/><rect x="810.5" y="434.75" width="84.7501" height="85.75"/><path d="M895.25 434.75 923.5 406.5 923.5 492.25 895.25 520.5Z" fill-rule="evenodd"/><path d="M810.5 434.75 838.75 406.5 923.5 406.5 895.25 434.75Z" fill="#323232" fill-rule="evenodd"/><path d="M810.5 434.75 838.75 406.5 923.5 406.5 923.5 492.25 895.25 520.5 810.5 520.5ZM810.5 434.75 895.25 434.75 923.5 406.5M895.25 434.75 895.25 520.5" stroke="#000000" stroke-width="1.33333" stroke-miterlimit="8" fill="none" fill-rule="evenodd"/><rect x="781.5" y="463.75" width="84.7501" height="85.75" fill="#FFC000"/><path d="M866.25 463.75 894.5 435.5 894.5 521.25 866.25 549.5Z" fill="#CD9A00" fill-rule="evenodd"/><path d="M781.5 463.75 809.75 435.5 894.5 435.5 866.25 463.75Z" fill="#FFCC32" fill-rule="evenodd"/><path d="M781.5 463.75 809.75 435.5 894.5 435.5 894.5 521.25 866.25 549.5 781.5 549.5ZM781.5 463.75 866.25 463.75 894.5 435.5M866.25 463.75 866.25 549.5" stroke="#BC8C00" stroke-width="1.33333" stroke-miterlimit="8" fill="none" fill-rule="evenodd"/><rect x="753.5" y="492.75" width="85.7499" height="84.75" fill="#FFC000"/><path d="M839.25 492.75 867.5 464.5 867.5 549.25 839.25 577.5Z" fill="#CD9A00" fill-rule="evenodd"/><path d="M753.5 492.75 781.75 464.5 867.5 464.5 839.25 492.75Z" fill="#FFCC32" fill-rule="evenodd"/><path d="M753.5 492.75 781.75 464.5 867.5 464.5 867.5 549.25 839.25 577.5 753.5 577.5ZM753.5 492.75 839.25 492.75 867.5 464.5M839.25 492.75 839.25 577.5" stroke="#BC8C00" stroke-width="1.33333" stroke-miterlimit="8" fill="none" fill-rule="evenodd"/><rect x="724.5" y="520.75" width="85.7499" height="84.75"/><path d="M810.25 520.75 838.5 492.5 838.5 577.25 810.25 605.5Z" fill-rule="evenodd"/><path d="M724.5 520.75 752.75 492.5 838.5 492.5 810.25 520.75Z" fill="#323232" fill-rule="evenodd"/><path d="M724.5 520.75 752.75 492.5 838.5 492.5 838.5 577.25 810.25 605.5 724.5 605.5ZM724.5 520.75 810.25 520.75 838.5 492.5M810.25 520.75 810.25 605.5" stroke="#000000" stroke-width="1.33333" stroke-miterlimit="8" fill="none" fill-rule="evenodd"/><path d="M28.6658 614 802.857 614 802.857 616 28.6658 616ZM30 619 22 615 30 611ZM801.518 611 809.518 615 801.518 619Z"/><text font-family="Calibri,Calibri_MSFontService,sans-serif" font-weight="400" font-size="24" transform="translate(397.913 651)">Nof</text><path d="M5.42099 4.00174 450.726 448.829 449.313 450.244 4.00753 5.41672ZM2.83296 8.48377 0 0 8.48679 2.8239ZM451.901 445.762 454.734 454.245 446.247 451.422Z" transform="matrix(1 0 0 -1 825 607.245)"/><text font-family="Calibri,Calibri_MSFontService,sans-serif" font-weight="400" font-size="24" transform="translate(1092.21 376)">Nif</text><path d="M662.5 124.5C662.5 117.32 668.32 111.5 675.5 111.5 682.68 111.5 688.5 117.32 688.5 124.5 688.5 131.68 682.68 137.5 675.5 137.5 668.32 137.5 662.5 131.68 662.5 124.5Z" stroke="#000000" stroke-width="1.33333" stroke-miterlimit="8" fill-rule="evenodd"/><path d="M910.5 123.5C910.5 116.32 916.32 110.5 923.5 110.5 930.68 110.5 936.5 116.32 936.5 123.5 936.5 130.68 930.68 136.5 923.5 136.5 916.32 136.5 910.5 130.68 910.5 123.5Z" stroke="#000000" stroke-width="1.33333" stroke-miterlimit="8" fill-rule="evenodd"/><path d="M783.5 124.5C783.5 117.32 789.32 111.5 796.5 111.5 803.68 111.5 809.5 117.32 809.5 124.5 809.5 131.68 803.68 137.5 796.5 137.5 789.32 137.5 783.5 131.68 783.5 124.5Z" stroke="#000000" stroke-width="1.33333" stroke-miterlimit="8" fill-rule="evenodd"/><path d="M293.5 594C293.5 586.544 299.32 580.5 306.5 580.5 313.68 580.5 319.5 586.544 319.5 594 319.5 601.456 313.68 607.5 306.5 607.5 299.32 607.5 293.5 601.456 293.5 594Z" stroke="#000000" stroke-width="1.33333" stroke-miterlimit="8" fill-rule="evenodd"/><path d="M541.5 593C541.5 585.544 547.32 579.5 554.5 579.5 561.68 579.5 567.5 585.544 567.5 593 567.5 600.456 561.68 606.5 554.5 606.5 547.32 606.5 541.5 600.456 541.5 593Z" stroke="#000000" stroke-width="1.33333" stroke-miterlimit="8" fill-rule="evenodd"/><path d="M414.5 594C414.5 586.544 420.32 580.5 427.5 580.5 434.68 580.5 440.5 586.544 440.5 594 440.5 601.456 434.68 607.5 427.5 607.5 420.32 607.5 414.5 601.456 414.5 594Z" stroke="#000000" stroke-width="1.33333" stroke-miterlimit="8" fill-rule="evenodd"/><path d="M5.41335 4.01822 109.631 108.659 108.214 110.07 3.99628 5.42957ZM2.81125 8.49099 0 0 8.47954 2.84559ZM110.816 105.597 113.627 114.088 105.148 111.242Z" fill="#FFC000" transform="matrix(1 0 0 -1 118 609.088)"/><path d="M5.41335 4.01822 109.631 108.659 108.214 110.07 3.99628 5.42957ZM2.81125 8.49099 0 0 8.47954 2.84559ZM110.816 105.597 113.627 114.088 105.148 111.242Z" fill="#70AD47" transform="matrix(1 0 0 -1 232 496.088)"/><path d="M5.41335 4.01822 109.631 108.659 108.214 110.07 3.99628 5.42957ZM2.81125 8.49099 0 0 8.47954 2.84559ZM110.816 105.597 113.627 114.088 105.148 111.242Z" fill="#ED7D31" transform="matrix(1 0 0 -1 345 381.088)"/><path d="M5.41335 4.01822 109.631 108.659 108.214 110.07 3.99628 5.42957ZM2.81125 8.49099 0 0 8.47954 2.84559ZM110.816 105.597 113.627 114.088 105.148 111.242Z" fill="#4472C4" transform="matrix(1 0 0 -1 459 268.088)"/><text font-family="Calibri,Calibri_MSFontService,sans-serif" font-weight="400" font-size="24" transform="translate(531.481 221)">Npa<tspan x="39.6667" y="0">r</tspan><tspan x="-116.32" y="115">Npar</tspan><tspan x="-215.653" y="225">Npar</tspan><tspan x="-342.251" y="342">Npar</tspan></text><path d="M64.0759 520.372 63 410" stroke="#FFC000" stroke-width="2" stroke-miterlimit="8" fill="none" fill-rule="evenodd"/><path d="M149.357 434.63 63 410" stroke="#FFC000" stroke-width="2" stroke-miterlimit="8" fill="none" fill-rule="evenodd"/><rect x="22.5001" y="371.5" width="83" height="39" stroke="#BC8C00" stroke-width="1.33333" stroke-miterlimit="8" fill="#FFC000"/><text fill="#FFFFFF" font-family="Calibri,Calibri_MSFontService,sans-serif" font-weight="400" font-size="24" transform="translate(42.9308 398)">Nnp</text></g></svg>