<svg width="1023" height="296" xmlns="http://www.w3.org/2000/svg" xmlns:xlink="http://www.w3.org/1999/xlink" overflow="hidden"><defs><clipPath id="clip0"><path d="M31 95 1054 95 1054 391 31 391Z" fill-rule="evenodd" clip-rule="evenodd"/></clipPath></defs><g clip-path="url(#clip0)" transform="translate(-31 -95)"><rect x="32.5001" y="168.5" width="114" height="114" stroke="#2F528F" stroke-width="1.33333" stroke-miterlimit="8" fill="#4472C4"/><text fill="#FFFFFF" font-family="Calibri,Calibri_MSFontService,sans-serif" font-weight="400" font-size="24" transform="translate(52.936 233)">Sign<tspan x="46" y="0">bit</tspan></text><rect x="146.5" y="168.5" width="113" height="114" stroke="#AE5A21" stroke-width="1.33333" stroke-miterlimit="8" fill="#ED7D31"/><rect x="259.5" y="168.5" width="113" height="114" stroke="#AE5A21" stroke-width="1.33333" stroke-miterlimit="8" fill="#ED7D31"/><rect x="372.5" y="168.5" width="114" height="114" stroke="#AE5A21" stroke-width="1.33333" stroke-miterlimit="8" fill="#ED7D31"/><rect x="486.5" y="168.5" width="113" height="114" stroke="#AE5A21" stroke-width="1.33333" stroke-miterlimit="8" fill="#ED7D31"/><rect x="599.5" y="168.5" width="114" height="114" stroke="#507E32" stroke-width="1.33333" stroke-miterlimit="8" fill="#70AD47"/><rect x="713.5" y="168.5" width="113" height="114" stroke="#507E32" stroke-width="1.33333" stroke-miterlimit="8" fill="#70AD47"/><rect x="826.5" y="168.5" width="113" height="114" stroke="#507E32" stroke-width="1.33333" stroke-miterlimit="8" fill="#70AD47"/><rect x="939.5" y="168.5" width="114" height="114" stroke="#507E32" stroke-width="1.33333" stroke-miterlimit="8" fill="#70AD47"/><path d="M32.5001 168.5C32.5001 159.939 50.0029 152.999 71.5937 152.999L503.906 152.999C525.497 152.999 543 146.06 543 137.499 543 146.06 560.503 152.999 582.094 152.999L1014.41 152.999C1036 152.999 1053.5 159.939 1053.5 168.5" stroke="#4472C4" stroke-width="0.666667" stroke-miterlimit="8" fill="none" fill-rule="evenodd"/><text font-family="Calibri,Calibri_MSFontService,sans-serif" font-weight="400" font-size="24" transform="translate(257.964 340)">Integer<tspan x="75.1534" y="0">part</tspan><tspan x="20.4067" y="29">(m</tspan><tspan x="52.4067" y="29">bits</tspan>)</text><path d="M599.5 282.5C599.5 291.061 581.997 298 560.406 298L355.094 298C333.503 298 316 304.94 316 313.501 316 304.94 298.497 298 276.906 298L71.5942 298C50.0031 298 32.5001 291.061 32.5001 282.5" stroke="#4472C4" stroke-width="0.666667" stroke-miterlimit="8" fill="none" fill-rule="evenodd"/><path d="M1053.5 282.5C1053.5 291.061 1036 298 1014.41 298L865.594 298C844.003 298 826.5 304.94 826.5 313.501 826.5 304.94 808.997 298 787.406 298L638.594 298C617.003 298 599.5 291.061 599.5 282.5" stroke="#4472C4" stroke-width="0.666667" stroke-miterlimit="8" fill="none" fill-rule="evenodd"/><path d="M1-2.19502e-06 1.00009 41.1628-0.99991 41.1628-1 2.19502e-06ZM4.00009 39.8295 0.000104987 47.8295-3.99991 39.8295Z" transform="matrix(1 0 0 -1 599 329.829)"/><text font-family="Calibri,Calibri_MSFontService,sans-serif" font-weight="400" font-size="24" transform="translate(500.555 348)">Implied<tspan x="79" y="0">binary</tspan><tspan x="146.12" y="0">point</tspan><tspan x="13.7572" y="-223">N bits</tspan><tspan x="254.302" y="-8">Fractiona</tspan><tspan x="345.142" y="-8">l</tspan><tspan x="356.142" y="-8">part</tspan><tspan x="291.302" y="21">(n </tspan>bits)</text></g></svg>