<svg width="1262" height="500" xmlns="http://www.w3.org/2000/svg" xmlns:xlink="http://www.w3.org/1999/xlink" overflow="hidden"><defs><clipPath id="clip0"><path d="M22 232 1284 232 1284 732 22 732Z" fill-rule="evenodd" clip-rule="evenodd"/></clipPath></defs><g clip-path="url(#clip0)" transform="translate(-22 -232)"><rect x="526.5" y="261.5" width="586" height="459" stroke="#000000" stroke-width="3" stroke-linejoin="round" stroke-miterlimit="10" fill="none"/><text font-family="Calibri,Calibri_MSFontService,sans-serif" font-weight="400" font-size="27" transform="translate(785.821 290)">Buffe<tspan x="57.24" y="0">r</tspan><tspan x="-69.67" y="418">Mem[</tspan><tspan font-family="Cambria Math,Cambria Math_MSFontService,sans-serif" x="-4.0033" y="418">ğ‘</tspan><tspan font-family="Cambria Math,Cambria Math_MSFontService,sans-serif" font-size="20" x="13.2834" y="423">ğ‘’ğ‘™ğ‘’ğ‘š</tspan><tspan font-family="Cambria Math,Cambria Math_MSFontService,sans-serif" x="66.65" y="418">âˆ’</tspan><tspan font-family="Cambria Math,Cambria Math_MSFontService,sans-serif" x="92.5767" y="418">1</tspan><tspan x="107.41" y="418">:0]</tspan></text><path d="M1112 490 1215.31 490 1215.31 492 1112 492ZM1213.98 487 1221.98 491 1213.98 495Z"/><text font-family="Calibri,Calibri_MSFontService,sans-serif" font-weight="400" font-size="27" transform="translate(1234.61 494)">res</text><path d="M0 0 7.9222 21.0031" stroke="#000000" stroke-width="2" stroke-miterlimit="8" fill="none" fill-rule="evenodd" transform="matrix(1 0 0 -1 1164 501.003)"/><text font-family="Cambria Math,Cambria Math_MSFontService,sans-serif" font-weight="400" font-size="27" transform="translate(1150.49 473)">ğµğ‘Š</text><path d="M416 680 519.314 680 519.314 682 416 682ZM517.981 677 525.981 681 517.981 685Z"/><text font-family="Cambria Math,Cambria Math_MSFontService,sans-serif" font-weight="400" font-size="27" transform="translate(447.97 714)">ğµğ‘Š</text><path d="M0 0 7.9222 21.0031" stroke="#000000" stroke-width="2" stroke-miterlimit="8" fill="none" fill-rule="evenodd" transform="matrix(1 0 0 -1 466 691.003)"/><text font-family="Cambria Math,Cambria Math_MSFontService,sans-serif" font-weight="400" font-size="27" transform="translate(345.911 690)">ğ‘¤<tspan font-size="20" x="18.78" y="5">ğ‘‘ğ‘ğ‘¡ğ‘</tspan></text><path d="M360 351 521.565 351 521.565 353 360 353ZM520.232 348 528.232 352 520.232 356Z"/><text font-family="Cambria Math,Cambria Math_MSFontService,sans-serif" font-weight="400" font-size="27" transform="translate(387.854 397)">log<tspan font-size="20" x="35.54" y="5">2</tspan></text><path d="M512.484 376.776C515.05 377.452 517.021 378.914 518.397 381.159 519.772 383.405 520.46 386.114 520.46 389.287 520.46 392.469 519.774 395.178 518.403 397.415 517.032 399.651 515.059 401.108 512.484 401.785L512.167 400.77C514.198 400.093 515.707 398.757 516.696 396.762 517.685 394.767 518.179 392.231 518.179 389.155 518.179 386.184 517.687 383.717 516.703 381.753 515.718 379.788 514.193 378.468 512.128 377.791ZM446.183 376.776 446.539 377.791C444.482 378.468 442.959 379.788 441.971 381.753 440.982 383.717 440.487 386.184 440.487 389.155 440.487 392.231 440.982 394.767 441.971 396.762 442.959 398.757 444.469 400.093 446.499 400.77L446.183 401.785C443.608 401.108 441.634 399.651 440.263 397.415 438.892 395.178 438.207 392.469 438.207 389.287 438.207 386.114 438.894 383.405 440.27 381.159 441.645 378.914 443.616 377.452 446.183 376.776Z" fill-rule="evenodd"/><text font-family="Cambria Math,Cambria Math_MSFontService,sans-serif" font-weight="400" font-size="27" transform="translate(446.9 397)">ğ‘<tspan font-size="20" x="17.2867" y="5">ğ‘’ğ‘™ğ‘’ğ‘š</tspan></text><path d="M0 0 7.9222 21.0031" stroke="#000000" stroke-width="2" stroke-miterlimit="8" fill="none" fill-rule="evenodd" transform="matrix(1 0 0 -1 468 362.003)"/><text font-family="Calibri,Calibri_MSFontService,sans-serif" font-weight="400" font-size="27" transform="translate(297.215 361)">addr</text><path d="M287.987 351.343 241 351" stroke="#000000" stroke-width="2" stroke-miterlimit="8" fill="none" fill-rule="evenodd"/><path d="M222.5 319.5 241.5 324.25 241.5 379.75 222.5 384.5Z" stroke="#000000" stroke-linejoin="round" stroke-miterlimit="10" fill="none" fill-rule="evenodd"/><path d="M0 0 94.2511 0.000104987" stroke="#000000" stroke-width="2" stroke-miterlimit="8" fill="none" fill-rule="evenodd" transform="matrix(-1 -8.74228e-08 -8.74228e-08 1 222.251 337)"/><path d="M221.885 371 127 371" stroke="#000000" stroke-width="2" stroke-miterlimit="8" fill="none" fill-rule="evenodd"/><text font-family="Calibri,Calibri_MSFontService,sans-serif" font-weight="400" font-size="27" transform="translate(38.3011 346)">Addr_r</text><path d="M232 274 232 314.847 230 314.847 230 274ZM235 313.514 231 321.514 227 313.514Z"/><text font-family="Calibri,Calibri_MSFontService,sans-serif" font-weight="400" font-size="24" transform="translate(203.687 262)">rea<tspan x="31.52" y="0">d</tspan><tspan font-size="27" x="-165.386" y="118">Addr</tspan><tspan font-size="27" x="-112.552" y="118">_w</tspan></text><path d="M411 582 519.279 582 519.279 584 411 584ZM517.946 579 525.946 583 517.946 587Z"/><text font-family="Calibri,Calibri_MSFontService,sans-serif" font-weight="400" font-size="24" transform="translate(345.911 591)">write</text></g></svg>