<svg width="945" height="382" xmlns="http://www.w3.org/2000/svg" xmlns:xlink="http://www.w3.org/1999/xlink" overflow="hidden"><defs><clipPath id="clip0"><path d="M-1 123 944 123 944 505-1 505Z" fill-rule="evenodd" clip-rule="evenodd"/></clipPath></defs><g clip-path="url(#clip0)" transform="translate(1 -123)"><rect x="0.500053" y="311.5" width="234" height="98" stroke="#000000" stroke-linejoin="round" stroke-miterlimit="10" fill="none"/><text font-family="Calibri,Calibri_MSFontService,sans-serif" font-weight="400" font-size="24" transform="translate(33.3376 368)">External<tspan x="85.3133" y="0">memory</tspan></text><rect x="337.5" y="311.5" width="124" height="98" stroke="#000000" stroke-linejoin="round" stroke-miterlimit="10" fill="none"/><text font-family="Calibri,Calibri_MSFontService,sans-serif" font-weight="400" font-size="24" transform="translate(374.463 368)">DMA</text><path d="M234.5 353.5 323.5 353.5 323.5 346.5 337.5 360.5 323.5 374.5 323.5 367.5 234.5 367.5Z" stroke="#2F528F" stroke-width="1.33333" stroke-miterlimit="8" fill="#4472C4" fill-rule="evenodd"/><rect x="286.5" y="125.5" width="657" height="379" stroke="#ED7D31" stroke-linejoin="round" stroke-miterlimit="10" stroke-dasharray="4 3" fill="none"/><text fill="#ED7D31" font-family="Calibri,Calibri_MSFontService,sans-serif" font-weight="400" font-size="24" transform="translate(311.301 152)">FPGA</text><path d="M461.5 360.5 527.555 360.5" stroke="#4472C4" stroke-width="3" stroke-miterlimit="8" fill="none" fill-rule="evenodd"/><path d="M0 0 0.000104987 111.065" stroke="#4472C4" stroke-width="3" stroke-miterlimit="8" fill="none" fill-rule="evenodd" transform="matrix(1 0 0 -1 527.5 360.565)"/><path d="M0 0 0.000104987 81.2476" stroke="#4472C4" stroke-width="3" stroke-miterlimit="8" fill="none" fill-rule="evenodd" transform="matrix(1 0 0 -1 527.5 441.748)"/><rect x="578.5" y="360.5" width="81" height="62" stroke="#000000" stroke-linejoin="round" stroke-miterlimit="10" fill="none"/><text font-family="Calibri,Calibri_MSFontService,sans-serif" font-weight="400" font-size="24" transform="translate(606.422 399)">PE</text><path d="M0 0 270.972 0.000104987" stroke="#4472C4" stroke-width="3" stroke-miterlimit="8" fill="none" fill-rule="evenodd" transform="matrix(-1 -8.74228e-08 -8.74228e-08 1 796.472 441.5)"/><path d="M618.5 422.5 618.5 441.876" stroke="#4472C4" stroke-width="3" stroke-miterlimit="8" fill="none" fill-rule="evenodd"/><rect x="699.5" y="360.5" width="80" height="62" stroke="#000000" stroke-linejoin="round" stroke-miterlimit="10" fill="none"/><text font-family="Calibri,Calibri_MSFontService,sans-serif" font-weight="400" font-size="24" transform="translate(726.861 399)">PE</text><path d="M739.5 422.5 739.5 441.876" stroke="#4472C4" stroke-width="3" stroke-miterlimit="8" fill="none" fill-rule="evenodd"/><path d="M0 2.5C-6.36567e-16 1.11929 1.11929 0 2.5 0 3.88071 -6.36567e-16 5 1.11929 5 2.5 5 3.88071 3.88071 5 2.5 5 1.11929 5 -9.5485e-16 3.88071 0 2.5Z" fill="#4472C4" fill-rule="evenodd" transform="matrix(1 0 0 -1 799 444)"/><path d="M0 2.5C-6.36567e-16 1.11929 1.11929 0 2.5 0 3.88071 -6.36567e-16 5 1.11929 5 2.5 5 3.88071 3.88071 5 2.5 5 1.11929 5 -9.5485e-16 3.88071 0 2.5Z" fill="#4472C4" fill-rule="evenodd" transform="matrix(1 0 0 -1 807 444)"/><path d="M0 2.5C-6.36567e-16 1.11929 1.11929 0 2.5 0 3.88071 -6.36567e-16 5 1.11929 5 2.5 5 3.88071 3.88071 5 2.5 5 1.11929 5 -9.5485e-16 3.88071 0 2.5Z" fill="#4472C4" fill-rule="evenodd" transform="matrix(1 0 0 -1 814 444)"/><path d="M0 0 58.9606 0.000104987" stroke="#4472C4" stroke-width="3" stroke-miterlimit="8" fill="none" fill-rule="evenodd" transform="matrix(-1 -8.74228e-08 -8.74228e-08 1 881.461 442.5)"/><rect x="578.5" y="249.5" width="81" height="62" stroke="#000000" stroke-linejoin="round" stroke-miterlimit="10" fill="none"/><text font-family="Calibri,Calibri_MSFontService,sans-serif" font-weight="400" font-size="24" transform="translate(606.422 288)">PE</text><path d="M618.5 311.5 618.5 330.876" stroke="#4472C4" stroke-width="3" stroke-miterlimit="8" fill="none" fill-rule="evenodd"/><rect x="699.5" y="249.5" width="80" height="62" stroke="#000000" stroke-linejoin="round" stroke-miterlimit="10" fill="none"/><text font-family="Calibri,Calibri_MSFontService,sans-serif" font-weight="400" font-size="24" transform="translate(726.861 288)">PE</text><path d="M739.5 311.5 739.5 330.876" stroke="#4472C4" stroke-width="3" stroke-miterlimit="8" fill="none" fill-rule="evenodd"/><path d="M0 0 270.972 0.000104987" stroke="#4472C4" stroke-width="3" stroke-miterlimit="8" fill="none" fill-rule="evenodd" transform="matrix(-1 -8.74228e-08 -8.74228e-08 1 796.472 331.5)"/><path d="M633 314.5 636.5 311 640 314.5 638.25 314.5 638.25 356.5 640 356.5 636.5 360 633 356.5 634.75 356.5 634.75 314.5Z" fill="#767171" fill-rule="evenodd"/><path d="M757 314.5 760.5 311 764 314.5 762.25 314.5 762.25 356.5 764 356.5 760.5 360 757 356.5 758.75 356.5 758.75 314.5Z" fill="#767171" fill-rule="evenodd"/><path d="M695 387 699 391 695 395 695 393 663 393 663 395 659 391 663 387 663 389 695 389Z" fill="#767171" fill-rule="evenodd"/><path d="M792.5 387 796 390.5 792.5 394 792.5 392.25 783.5 392.25 783.5 394 780 390.5 783.5 387 783.5 388.75 792.5 388.75Z" fill="#767171" fill-rule="evenodd"/><path d="M835.5 388 839 391.5 835.5 395 835.5 393.25 825.5 393.25 825.5 395 822 391.5 825.5 388 825.5 389.75 835.5 389.75Z" fill="#767171" fill-rule="evenodd"/><path d="M0 2.5C-6.36567e-16 1.11929 1.11929 0 2.5 0 3.88071 -6.36567e-16 5 1.11929 5 2.5 5 3.88071 3.88071 5 2.5 5 1.11929 5 -9.5485e-16 3.88071 0 2.5Z" fill="#767171" fill-rule="evenodd" transform="matrix(1 0 0 -1 799 393)"/><path d="M0 2.5C-6.36567e-16 1.11929 1.11929 0 2.5 0 3.88071 -6.36567e-16 5 1.11929 5 2.5 5 3.88071 3.88071 5 2.5 5 1.11929 5 -9.5485e-16 3.88071 0 2.5Z" fill="#767171" fill-rule="evenodd" transform="matrix(1 0 0 -1 807 393)"/><path d="M0 2.5C-6.36567e-16 1.11929 1.11929 0 2.5 0 3.88071 -6.36567e-16 5 1.11929 5 2.5 5 3.88071 3.88071 5 2.5 5 1.11929 5 -9.5485e-16 3.88071 0 2.5Z" fill="#767171" fill-rule="evenodd" transform="matrix(1 0 0 -1 814 393)"/><rect x="839.5" y="360.5" width="81" height="62" stroke="#000000" stroke-linejoin="round" stroke-miterlimit="10" fill="none"/><text font-family="Calibri,Calibri_MSFontService,sans-serif" font-weight="400" font-size="24" transform="translate(867.444 399)">PE</text><path d="M880.5 422.5 880.5 441.877" stroke="#4472C4" stroke-width="3" stroke-miterlimit="8" fill="none" fill-rule="evenodd"/><path d="M0 2.5C-6.36567e-16 1.11929 1.11929 0 2.5 0 3.88071 -6.36567e-16 5 1.11929 5 2.5 5 3.88071 3.88071 5 2.5 5 1.11929 5 -9.5485e-16 3.88071 0 2.5Z" fill="#4472C4" fill-rule="evenodd" transform="matrix(1 0 0 -1 798 333)"/><path d="M0 2.5C-6.36567e-16 1.11929 1.11929 0 2.5 0 3.88071 -6.36567e-16 5 1.11929 5 2.5 5 3.88071 3.88071 5 2.5 5 1.11929 5 -9.5485e-16 3.88071 0 2.5Z" fill="#4472C4" fill-rule="evenodd" transform="matrix(1 0 0 -1 806 333)"/><path d="M0 2.5C-6.36567e-16 1.11929 1.11929 0 2.5 0 3.88071 -6.36567e-16 5 1.11929 5 2.5 5 3.88071 3.88071 5 2.5 5 1.11929 5 -9.5485e-16 3.88071 0 2.5Z" fill="#4472C4" fill-rule="evenodd" transform="matrix(1 0 0 -1 813 333)"/><path d="M0 0 58.9606 0.000104987" stroke="#4472C4" stroke-width="3" stroke-miterlimit="8" fill="none" fill-rule="evenodd" transform="matrix(-1 -8.74228e-08 -8.74228e-08 1 881.461 331.5)"/><path d="M835.5 277 839 280.5 835.5 284 835.5 282.25 825.5 282.25 825.5 284 822 280.5 825.5 277 825.5 278.75 835.5 278.75Z" fill="#767171" fill-rule="evenodd"/><rect x="839.5" y="249.5" width="81" height="62" stroke="#000000" stroke-linejoin="round" stroke-miterlimit="10" fill="none"/><text font-family="Calibri,Calibri_MSFontService,sans-serif" font-weight="400" font-size="24" transform="translate(867.444 287)">PE</text><path d="M880.5 311.5 880.5 330.877" stroke="#4472C4" stroke-width="3" stroke-miterlimit="8" fill="none" fill-rule="evenodd"/><path d="M792.5 277 796 280.5 792.5 284 792.5 282.25 783.5 282.25 783.5 284 780 280.5 783.5 277 783.5 278.75 792.5 278.75Z" fill="#767171" fill-rule="evenodd"/><path d="M0 2.5C-6.36567e-16 1.11929 1.11929 0 2.5 0 3.88071 -6.36567e-16 5 1.11929 5 2.5 5 3.88071 3.88071 5 2.5 5 1.11929 5 -9.5485e-16 3.88071 0 2.5Z" fill="#767171" fill-rule="evenodd" transform="matrix(1 0 0 -1 799 283)"/><path d="M0 2.5C-6.36567e-16 1.11929 1.11929 0 2.5 0 3.88071 -6.36567e-16 5 1.11929 5 2.5 5 3.88071 3.88071 5 2.5 5 1.11929 5 -9.5485e-16 3.88071 0 2.5Z" fill="#767171" fill-rule="evenodd" transform="matrix(1 0 0 -1 806 283)"/><path d="M0 2.5C-6.36567e-16 1.11929 1.11929 0 2.5 0 3.88071 -6.36567e-16 5 1.11929 5 2.5 5 3.88071 3.88071 5 2.5 5 1.11929 5 -9.5485e-16 3.88071 0 2.5Z" fill="#767171" fill-rule="evenodd" transform="matrix(1 0 0 -1 814 283)"/><path d="M694 276 698 280 694 284 694 282 662 282 662 284 658 280 662 276 662 278 694 278Z" fill="#767171" fill-rule="evenodd"/><path d="M0 2.5C-6.36567e-16 1.11929 1.11929 0 2.5 0 3.88071 -6.36567e-16 5 1.11929 5 2.5 5 3.88071 3.88071 5 2.5 5 1.11929 5 -9.5485e-16 3.88071 0 2.5Z" fill="#4472C4" fill-rule="evenodd" transform="matrix(-1 -8.74228e-08 -8.74228e-08 1 529 224)"/><path d="M0 2C-6.36567e-16 0.89543 1.11929 0 2.5 0 3.88071 -5.09253e-16 5 0.89543 5 2 5 3.10457 3.88071 4 2.5 4 1.11929 4 -9.5485e-16 3.10457 0 2Z" fill="#4472C4" fill-rule="evenodd" transform="matrix(-1 -8.74228e-08 -8.74228e-08 1 529 233)"/><path d="M0 2C-6.36567e-16 0.89543 1.11929 0 2.5 0 3.88071 -5.09253e-16 5 0.89543 5 2 5 3.10457 3.88071 4 2.5 4 1.11929 4 -9.5485e-16 3.10457 0 2Z" fill="#4472C4" fill-rule="evenodd" transform="matrix(-1 -8.74228e-08 -8.74228e-08 1 529 241)"/><rect x="578.5" y="138.5" width="81" height="62" stroke="#000000" stroke-linejoin="round" stroke-miterlimit="10" fill="none"/><text font-family="Calibri,Calibri_MSFontService,sans-serif" font-weight="400" font-size="24" transform="translate(606.422 177)">PE</text><path d="M0 0 270.972 0.000104987" stroke="#4472C4" stroke-width="3" stroke-miterlimit="8" fill="none" fill-rule="evenodd" transform="matrix(-1 -8.74228e-08 -8.74228e-08 1 796.472 219.5)"/><path d="M618.5 200.5 618.5 219.876" stroke="#4472C4" stroke-width="3" stroke-miterlimit="8" fill="none" fill-rule="evenodd"/><rect x="699.5" y="138.5" width="80" height="62" stroke="#000000" stroke-linejoin="round" stroke-miterlimit="10" fill="none"/><text font-family="Calibri,Calibri_MSFontService,sans-serif" font-weight="400" font-size="24" transform="translate(726.861 177)">PE</text><path d="M739.5 200.5 739.5 219.876" stroke="#4472C4" stroke-width="3" stroke-miterlimit="8" fill="none" fill-rule="evenodd"/><path d="M0 2.5C-6.36567e-16 1.11929 1.11929 0 2.5 0 3.88071 -6.36567e-16 5 1.11929 5 2.5 5 3.88071 3.88071 5 2.5 5 1.11929 5 -9.5485e-16 3.88071 0 2.5Z" fill="#4472C4" fill-rule="evenodd" transform="matrix(1 0 0 -1 799 222)"/><path d="M0 2.5C-6.36567e-16 1.11929 1.11929 0 2.5 0 3.88071 -6.36567e-16 5 1.11929 5 2.5 5 3.88071 3.88071 5 2.5 5 1.11929 5 -9.5485e-16 3.88071 0 2.5Z" fill="#4472C4" fill-rule="evenodd" transform="matrix(1 0 0 -1 807 222)"/><path d="M0 2.5C-6.36567e-16 1.11929 1.11929 0 2.5 0 3.88071 -6.36567e-16 5 1.11929 5 2.5 5 3.88071 3.88071 5 2.5 5 1.11929 5 -9.5485e-16 3.88071 0 2.5Z" fill="#4472C4" fill-rule="evenodd" transform="matrix(1 0 0 -1 814 222)"/><path d="M0 0 58.9606 0.000104987" stroke="#4472C4" stroke-width="3" stroke-miterlimit="8" fill="none" fill-rule="evenodd" transform="matrix(-1 -8.74228e-08 -8.74228e-08 1 881.461 220.5)"/><path d="M695 165 699 169 695 173 695 171 663 171 663 173 659 169 663 165 663 167 695 167Z" fill="#767171" fill-rule="evenodd"/><path d="M792 165 796 169 792 173 792 171 784 171 784 173 780 169 784 165 784 167 792 167Z" fill="#767171" fill-rule="evenodd"/><path d="M835.5 166 839 169.5 835.5 173 835.5 171.25 825.5 171.25 825.5 173 822 169.5 825.5 166 825.5 167.75 835.5 167.75Z" fill="#767171" fill-rule="evenodd"/><path d="M0 2.5C-6.36567e-16 1.11929 1.11929 0 2.5 0 3.88071 -6.36567e-16 5 1.11929 5 2.5 5 3.88071 3.88071 5 2.5 5 1.11929 5 -9.5485e-16 3.88071 0 2.5Z" fill="#767171" fill-rule="evenodd" transform="matrix(1 0 0 -1 799 171)"/><path d="M0 2.5C-6.36567e-16 1.11929 1.11929 0 2.5 0 3.88071 -6.36567e-16 5 1.11929 5 2.5 5 3.88071 3.88071 5 2.5 5 1.11929 5 -9.5485e-16 3.88071 0 2.5Z" fill="#767171" fill-rule="evenodd" transform="matrix(1 0 0 -1 807 171)"/><path d="M0 2.5C-6.36567e-16 1.11929 1.11929 0 2.5 0 3.88071 -6.36567e-16 5 1.11929 5 2.5 5 3.88071 3.88071 5 2.5 5 1.11929 5 -9.5485e-16 3.88071 0 2.5Z" fill="#767171" fill-rule="evenodd" transform="matrix(1 0 0 -1 814 171)"/><rect x="839.5" y="138.5" width="81" height="62" stroke="#000000" stroke-linejoin="round" stroke-miterlimit="10" fill="none"/><text font-family="Calibri,Calibri_MSFontService,sans-serif" font-weight="400" font-size="24" transform="translate(867.444 177)">PE</text><path d="M880.5 200.5 880.5 219.877" stroke="#4472C4" stroke-width="3" stroke-miterlimit="8" fill="none" fill-rule="evenodd"/><path d="M633 240.5 636.5 237 640 240.5 638.25 240.5 638.25 245.5 640 245.5 636.5 249 633 245.5 634.75 245.5 634.75 240.5Z" fill="#767171" fill-rule="evenodd"/><path d="M633 201 636 198 639 201 637.5 201 637.5 207 639 207 636 210 633 207 634.5 207 634.5 201Z" fill="#767171" fill-rule="evenodd"/><path d="M0 2C-6.36567e-16 0.89543 1.11929 0 2.5 0 3.88071 -5.09253e-16 5 0.89543 5 2 5 3.10457 3.88071 4 2.5 4 1.11929 4 -9.5485e-16 3.10457 0 2Z" fill="#767171" fill-rule="evenodd" transform="matrix(-1 -8.74228e-08 -8.74228e-08 1 639 213)"/><path d="M0 2.5C-6.36567e-16 1.11929 1.11929 0 2.5 0 3.88071 -6.36567e-16 5 1.11929 5 2.5 5 3.88071 3.88071 5 2.5 5 1.11929 5 -9.5485e-16 3.88071 0 2.5Z" fill="#767171" fill-rule="evenodd" transform="matrix(-1 -8.74228e-08 -8.74228e-08 1 639 221)"/><path d="M0 2.5C-6.36567e-16 1.11929 1.11929 0 2.5 0 3.88071 -6.36567e-16 5 1.11929 5 2.5 5 3.88071 3.88071 5 2.5 5 1.11929 5 -9.5485e-16 3.88071 0 2.5Z" fill="#767171" fill-rule="evenodd" transform="matrix(-1 -8.74228e-08 -8.74228e-08 1 639 229)"/><path d="M758 242.5 761.5 239 765 242.5 763.25 242.5 763.25 246.5 765 246.5 761.5 250 758 246.5 759.75 246.5 759.75 242.5Z" fill="#767171" fill-rule="evenodd"/><path d="M757 203.5 760.5 200 764 203.5 762.25 203.5 762.25 207.5 764 207.5 760.5 211 757 207.5 758.75 207.5 758.75 203.5Z" fill="#767171" fill-rule="evenodd"/><path d="M0 2.5C-6.36567e-16 1.11929 1.11929 0 2.5 0 3.88071 -6.36567e-16 5 1.11929 5 2.5 5 3.88071 3.88071 5 2.5 5 1.11929 5 -9.5485e-16 3.88071 0 2.5Z" fill="#767171" fill-rule="evenodd" transform="matrix(-1 -8.74228e-08 -8.74228e-08 1 763 214)"/><path d="M0 2.5C-6.36567e-16 1.11929 1.11929 0 2.5 0 3.88071 -6.36567e-16 5 1.11929 5 2.5 5 3.88071 3.88071 5 2.5 5 1.11929 5 -9.5485e-16 3.88071 0 2.5Z" fill="#767171" fill-rule="evenodd" transform="matrix(-1 -8.74228e-08 -8.74228e-08 1 763 222)"/><path d="M0 2C-6.36567e-16 0.89543 1.11929 0 2.5 0 3.88071 -5.09253e-16 5 0.89543 5 2 5 3.10457 3.88071 4 2.5 4 1.11929 4 -9.5485e-16 3.10457 0 2Z" fill="#767171" fill-rule="evenodd" transform="matrix(-1 -8.74228e-08 -8.74228e-08 1 763 231)"/><path d="M893 241.5 896.5 238 900 241.5 898.25 241.5 898.25 245.5 900 245.5 896.5 249 893 245.5 894.75 245.5 894.75 241.5Z" fill="#767171" fill-rule="evenodd"/><path d="M892 202.5 895.5 199 899 202.5 897.25 202.5 897.25 207.5 899 207.5 895.5 211 892 207.5 893.75 207.5 893.75 202.5Z" fill="#767171" fill-rule="evenodd"/><path d="M0 2C-6.36567e-16 0.89543 1.11929 0 2.5 0 3.88071 -5.09253e-16 5 0.89543 5 2 5 3.10457 3.88071 4 2.5 4 1.11929 4 -9.5485e-16 3.10457 0 2Z" fill="#767171" fill-rule="evenodd" transform="matrix(-1 -8.74228e-08 -8.74228e-08 1 898 214)"/><path d="M0 2.5C-6.36567e-16 1.11929 1.11929 0 2.5 0 3.88071 -6.36567e-16 5 1.11929 5 2.5 5 3.88071 3.88071 5 2.5 5 1.11929 5 -9.5485e-16 3.88071 0 2.5Z" fill="#767171" fill-rule="evenodd" transform="matrix(-1 -8.74228e-08 -8.74228e-08 1 898 222)"/><path d="M0 2.5C-6.36567e-16 1.11929 1.11929 0 2.5 0 3.88071 -6.36567e-16 5 1.11929 5 2.5 5 3.88071 3.88071 5 2.5 5 1.11929 5 -9.5485e-16 3.88071 0 2.5Z" fill="#767171" fill-rule="evenodd" transform="matrix(-1 -8.74228e-08 -8.74228e-08 1 898 230)"/><path d="M891 314.5 894.5 311 898 314.5 896.25 314.5 896.25 356.5 898 356.5 894.5 360 891 356.5 892.75 356.5 892.75 314.5Z" fill="#767171" fill-rule="evenodd"/><rect x="125" y="209" width="125" height="39" fill="#70AD47"/><text fill="#FFFFFF" font-family="Calibri,Calibri_MSFontService,sans-serif" font-weight="400" font-size="24" transform="translate(134.699 236)">bottleneck</text><path d="M250.966 228.74 282.972 347.729 281.041 348.249 249.034 229.26ZM285.523 345.662 283.738 354.427 277.797 347.74Z" fill="#70AD47"/></g></svg>