<svg width="1139" height="734" xmlns="http://www.w3.org/2000/svg" xmlns:xlink="http://www.w3.org/1999/xlink" overflow="hidden"><defs><clipPath id="clip0"><path d="M71-5 1210-5 1210 729 71 729Z" fill-rule="evenodd" clip-rule="evenodd"/></clipPath></defs><g clip-path="url(#clip0)" transform="translate(-71 5)"><rect x="458.5" y="224.5" width="364" height="207" stroke="#FF0000" stroke-width="3" stroke-miterlimit="8" fill="#FF0000"/><text fill="#FFFFFF" font-family="Cambria Math,Cambria Math_MSFontService,sans-serif" font-weight="400" font-size="43" transform="translate(503.49 342)">ğ¼ğ‘›ğ‘ğ‘¢ğ‘¡<tspan x="106.873" y="0"> </tspan><tspan x="116.207" y="0">ğ¹ğ‘€</tspan><tspan x="179.58" y="0"> </tspan><tspan x="188.913" y="0">ğ‘‡ğ‘–ğ‘™ğ‘’</tspan></text><rect x="76.5001" y="1.50005" width="364" height="206" stroke="#FF0000" stroke-width="3" stroke-miterlimit="8" fill="#FF0000"/><rect x="75.5001" y="224.5" width="364" height="207" stroke="#FF0000" stroke-width="3" stroke-miterlimit="8" fill="#FF0000"/><rect x="75.5001" y="449.5" width="364" height="207" stroke="#FF0000" stroke-width="3" stroke-miterlimit="8" fill="#FF0000"/><rect x="458.5" y="449.5" width="364" height="207" stroke="#FF0000" stroke-width="3" stroke-miterlimit="8" fill="#FF0000"/><rect x="459.5" y="-2.50005" width="364" height="207" stroke="#FF0000" stroke-width="3" stroke-miterlimit="8" fill="#FF0000"/><rect x="843.5" y="-1.50005" width="364" height="207" stroke="#FF0000" stroke-width="3" stroke-miterlimit="8" fill="#FF0000"/><rect x="841.5" y="224.5" width="364" height="207" stroke="#FF0000" stroke-width="3" stroke-miterlimit="8" fill="#FF0000"/><rect x="841.5" y="449.5" width="364" height="207" stroke="#FF0000" stroke-width="3" stroke-miterlimit="8" fill="#FF0000"/><rect x="74" y="1" width="40" height="208" fill="#70AD47"/><rect x="75" y="1" width="366" height="40" fill="#70AD47"/><rect x="75" y="224" width="40" height="208" fill="#70AD47"/><rect x="457" y="-3" width="366" height="40" fill="#70AD47"/><rect x="75" y="618" width="366" height="40" fill="#70AD47"/><rect x="456" y="619" width="366" height="40" fill="#70AD47"/><rect x="839" y="619" width="366" height="40" fill="#70AD47"/><rect x="73" y="449" width="40" height="208" fill="#70AD47"/><rect x="1167" y="449" width="40" height="208" fill="#70AD47"/><rect x="1167" y="224" width="40" height="208" fill="#70AD47"/><rect x="1169" y="-2" width="40" height="209" fill="#70AD47"/><rect x="842" y="-3" width="367" height="39" fill="#70AD47"/><path d="M98.5001 45.5001C98.5001 35.0066 107.007 26.5001 117.5 26.5001 127.993 26.5001 136.5 35.0066 136.5 45.5001 136.5 55.9935 127.993 64.5001 117.5 64.5001 107.007 64.5001 98.5001 55.9935 98.5001 45.5001Z" stroke="#2F528F" stroke-width="1.33333" stroke-miterlimit="8" fill="#4472C4" fill-rule="evenodd"/><path d="M444.5 41.5001C444.5 31.0066 453.007 22.5001 463.5 22.5001 473.993 22.5001 482.5 31.0066 482.5 41.5001 482.5 51.9935 473.993 60.5001 463.5 60.5001 453.007 60.5001 444.5 51.9935 444.5 41.5001Z" stroke="#2F528F" stroke-width="1.33333" stroke-miterlimit="8" fill="#4472C4" fill-rule="evenodd"/><path d="M98.5001 229.5C98.5001 219.007 107.007 210.5 117.5 210.5 127.993 210.5 136.5 219.007 136.5 229.5 136.5 239.993 127.993 248.5 117.5 248.5 107.007 248.5 98.5001 239.993 98.5001 229.5Z" stroke="#2F528F" stroke-width="1.33333" stroke-miterlimit="8" fill="#4472C4" fill-rule="evenodd"/><path d="M95.5001 456.5C95.5001 446.007 104.007 437.5 114.5 437.5 124.993 437.5 133.5 446.007 133.5 456.5 133.5 466.993 124.993 475.5 114.5 475.5 104.007 475.5 95.5001 466.993 95.5001 456.5Z" stroke="#2F528F" stroke-width="1.33333" stroke-miterlimit="8" fill="#4472C4" fill-rule="evenodd"/><path d="M444.5 228.5C444.5 218.007 453.007 209.5 463.5 209.5 473.993 209.5 482.5 218.007 482.5 228.5 482.5 238.993 473.993 247.5 463.5 247.5 453.007 247.5 444.5 238.993 444.5 228.5Z" stroke="#2F528F" stroke-width="1.33333" stroke-miterlimit="8" fill="#4472C4" fill-rule="evenodd"/><path d="M445.5 456.5C445.5 446.007 454.007 437.5 464.5 437.5 474.993 437.5 483.5 446.007 483.5 456.5 483.5 466.993 474.993 475.5 464.5 475.5 454.007 475.5 445.5 466.993 445.5 456.5Z" stroke="#2F528F" stroke-width="1.33333" stroke-miterlimit="8" fill="#4472C4" fill-rule="evenodd"/><path d="M827.5 41.5001C827.5 31.0066 836.007 22.5001 846.5 22.5001 856.993 22.5001 865.5 31.0066 865.5 41.5001 865.5 51.9935 856.993 60.5001 846.5 60.5001 836.007 60.5001 827.5 51.9935 827.5 41.5001Z" stroke="#2F528F" stroke-width="1.33333" stroke-miterlimit="8" fill="#4472C4" fill-rule="evenodd"/><path d="M827.5 230C827.5 219.783 836.007 211.5 846.5 211.5 856.993 211.5 865.5 219.783 865.5 230 865.5 240.217 856.993 248.5 846.5 248.5 836.007 248.5 827.5 240.217 827.5 230Z" stroke="#2F528F" stroke-width="1.33333" stroke-miterlimit="8" fill="#4472C4" fill-rule="evenodd"/><path d="M826.5 456.5C826.5 446.007 835.007 437.5 845.5 437.5 855.993 437.5 864.5 446.007 864.5 456.5 864.5 466.993 855.993 475.5 845.5 475.5 835.007 475.5 826.5 466.993 826.5 456.5Z" stroke="#2F528F" stroke-width="1.33333" stroke-miterlimit="8" fill="#4472C4" fill-rule="evenodd"/><path d="M73.5001 698C73.5001 687.783 81.7828 679.5 92.0001 679.5 102.217 679.5 110.5 687.783 110.5 698 110.5 708.217 102.217 716.5 92.0001 716.5 81.7828 716.5 73.5001 708.217 73.5001 698Z" stroke="#2F528F" stroke-width="1.33333" stroke-miterlimit="8" fill="#4472C4" fill-rule="evenodd"/><text fill="#4472C4" font-family="Calibri,Calibri_MSFontService,sans-serif" font-weight="400" font-size="24" transform="translate(120.094 701)">: <tspan font-size="32" x="12" y="0">pixel of </tspan><tspan font-size="32" x="113.487" y="0">reference</tspan></text></g></svg>