<svg width="1138" height="664" xmlns="http://www.w3.org/2000/svg" xmlns:xlink="http://www.w3.org/1999/xlink" overflow="hidden"><defs><clipPath id="clip0"><path d="M72 28 1210 28 1210 692 72 692Z" fill-rule="evenodd" clip-rule="evenodd"/></clipPath></defs><g clip-path="url(#clip0)" transform="translate(-72 -28)"><rect x="458.5" y="257.5" width="364" height="206" stroke="#FF0000" stroke-width="3" stroke-miterlimit="8" fill="#FF0000"/><text fill="#FFFFFF" font-family="Cambria Math,Cambria Math_MSFontService,sans-serif" font-weight="400" font-size="43" transform="translate(503.49 374)">πΌπ‘›π‘π‘Άπ‘΅<tspan x="106.873" y="0"> </tspan><tspan x="116.207" y="0">πΉπ‘€</tspan><tspan x="179.58" y="0"> </tspan><tspan x="188.913" y="0">π‘‡π‘–π‘™π‘’</tspan></text><rect x="76.5001" y="33.5001" width="364" height="207" stroke="#FF0000" stroke-width="3" stroke-miterlimit="8" fill="#FF0000"/><rect x="75.5001" y="257.5" width="364" height="206" stroke="#FF0000" stroke-width="3" stroke-miterlimit="8" fill="#FF0000"/><rect x="75.5001" y="482.5" width="364" height="207" stroke="#FF0000" stroke-width="3" stroke-miterlimit="8" fill="#FF0000"/><rect x="458.5" y="482.5" width="364" height="207" stroke="#FF0000" stroke-width="3" stroke-miterlimit="8" fill="#FF0000"/><rect x="459.5" y="30.5001" width="364" height="207" stroke="#FF0000" stroke-width="3" stroke-miterlimit="8" fill="#FF0000"/><rect x="843.5" y="31.5001" width="364" height="207" stroke="#FF0000" stroke-width="3" stroke-miterlimit="8" fill="#FF0000"/><rect x="841.5" y="257.5" width="364" height="206" stroke="#FF0000" stroke-width="3" stroke-miterlimit="8" fill="#FF0000"/><rect x="841.5" y="482.5" width="364" height="207" stroke="#FF0000" stroke-width="3" stroke-miterlimit="8" fill="#FF0000"/><rect x="74" y="34" width="40" height="208" fill="#70AD47"/><rect x="75" y="33" width="366" height="40" fill="#70AD47"/><rect x="75" y="257" width="40" height="208" fill="#70AD47"/><rect x="457" y="30" width="366" height="40" fill="#70AD47"/><rect x="75" y="651" width="366" height="40" fill="#70AD47"/><rect x="456" y="652" width="366" height="40" fill="#70AD47"/><rect x="839" y="652" width="366" height="40" fill="#70AD47"/><rect x="73" y="481" width="40" height="209" fill="#70AD47"/><rect x="1167" y="481" width="40" height="209" fill="#70AD47"/><rect x="1167" y="257" width="40" height="208" fill="#70AD47"/><rect x="1169" y="31" width="40" height="208" fill="#70AD47"/><rect x="842" y="29.0001" width="367" height="40" fill="#70AD47"/></g></svg>