<svg width="727" height="341" xmlns="http://www.w3.org/2000/svg" xmlns:xlink="http://www.w3.org/1999/xlink" overflow="hidden"><defs><clipPath id="clip0"><path d="M294 153 1021 153 1021 494 294 494Z" fill-rule="evenodd" clip-rule="evenodd"/></clipPath></defs><g clip-path="url(#clip0)" transform="translate(-294 -153)"><rect x="532.5" y="154.5" width="216" height="133" stroke="#000000" stroke-linejoin="round" stroke-miterlimit="10" fill="none"/><text font-family="Calibri,Calibri_MSFontService,sans-serif" font-weight="400" font-size="24" transform="translate(601.407 228)">Training</text><rect x="532.5" y="360.5" width="216" height="133" stroke="#000000" stroke-linejoin="round" stroke-miterlimit="10" fill="none"/><text font-family="Calibri,Calibri_MSFontService,sans-serif" font-weight="400" font-size="24" transform="translate(593.943 387)">Inference</text><rect x="834.5" y="182.5" width="185" height="72" stroke="#2F528F" stroke-width="1.33333" stroke-miterlimit="8" fill="#4472C4"/><text fill="#FFFFFF" font-family="Calibri,Calibri_MSFontService,sans-serif" font-weight="400" font-size="24" transform="translate(894.879 226)">Model</text><rect x="547.5" y="414.5" width="186" height="71" stroke="#2F528F" stroke-width="1.33333" stroke-miterlimit="8" fill="#4472C4"/><text fill="#FFFFFF" font-family="Calibri,Calibri_MSFontService,sans-serif" font-weight="400" font-size="24" transform="translate(608.333 457)">Model</text><path d="M748.5 212.25 817 212.25 817 203.5 834.5 221 817 238.5 817 229.75 748.5 229.75Z" stroke="#2F528F" stroke-width="1.33333" stroke-miterlimit="8" fill="#4472C4" fill-rule="evenodd"/><path d="M446.5 209.5 514.5 209.5 514.5 200.5 532.5 218.5 514.5 236.5 514.5 227.5 446.5 227.5Z" stroke="#2F528F" stroke-width="1.33333" stroke-miterlimit="8" fill="#4472C4" fill-rule="evenodd"/><text font-family="Calibri,Calibri_MSFontService,sans-serif" font-weight="400" font-size="24" transform="translate(309.236 224)">Training data</text><path d="M446.5 418.25 515 418.25 515 409.5 532.5 427 515 444.5 515 435.75 446.5 435.75Z" stroke="#2F528F" stroke-width="1.33333" stroke-miterlimit="8" fill="#4472C4" fill-rule="evenodd"/><text font-family="Calibri,Calibri_MSFontService,sans-serif" font-weight="400" font-size="24" transform="translate(337.358 434)">New data</text><path d="M748.5 418.25 817 418.25 817 409.5 834.5 427 817 444.5 817 435.75 748.5 435.75Z" stroke="#2F528F" stroke-width="1.33333" stroke-miterlimit="8" fill="#4472C4" fill-rule="evenodd"/><text font-family="Calibri,Calibri_MSFontService,sans-serif" font-weight="400" font-size="24" transform="translate(843.539 434)">Prediction</text></g></svg>